<?xml version="1.0" encoding="utf-8"?>
<!-- Generator: Adobe Illustrator 17.1.0, SVG Export Plug-In . SVG Version: 6.00 Build 0)  -->
<!DOCTYPE svg PUBLIC "-//W3C//DTD SVG 1.1//EN" "http://www.w3.org/Graphics/SVG/1.1/DTD/svg11.dtd">
<svg version="1.1" id="Слой_1" xmlns="http://www.w3.org/2000/svg" xmlns:xlink="http://www.w3.org/1999/xlink" x="0px" y="0px"
	 width="25px" height="25px" viewBox="-1 0 25 25" enable-background="new -1 0 25 25" xml:space="preserve">
<g id="Слой_x0020_1">
	<g id="_383415320">
		<polygon id="_383415704" fill="#2594E1" points="0.1,9.3 3.2,9.3 3.2,24.8 0.2,24.7 		"/>
		<path id="_383415584" fill="#5EBDFF" d="M4.3,9.6c0,0,5.7-0.1,6.2-9.6c2.4,1.1,4.1,4.3,2.1,8.9c3.5-0.5,8.9-0.4,10.1,0.7
			c0.2,1.8,0.7,7.5-3.4,15c-3.8,0.6-9.1,0.6-14.8-1.6C4.4,20,4.3,9.6,4.3,9.6L4.3,9.6z"/>
		<polygon id="_383415440" fill="#51A9E7" points="0.1,9.3 3.2,9.3 3.2,22.3 0.2,24.5 		"/>
		<path id="_383415368" fill="#7ECAFF" d="M4.3,9.6c0,0,5.7-0.1,6.2-9.6c2.4,1.1,4.1,4.3,2.1,8.9c2.8-0.4,6.7-0.4,8.9,0.1l-17,12.3
			C4.4,17.3,4.3,9.6,4.3,9.6L4.3,9.6z"/>
	</g>
</g>
</svg>
