<?xml version="1.0" encoding="utf-8"?>
<!-- Generator: Adobe Illustrator 17.1.0, SVG Export Plug-In . SVG Version: 6.00 Build 0)  -->
<!DOCTYPE svg PUBLIC "-//W3C//DTD SVG 1.1//EN" "http://www.w3.org/Graphics/SVG/1.1/DTD/svg11.dtd">
<svg version="1.1" id="Слой_1" xmlns="http://www.w3.org/2000/svg" xmlns:xlink="http://www.w3.org/1999/xlink" x="0px" y="0px"
	 width="26px" height="25px" viewBox="0 0 26 25" enable-background="new 0 0 26 25" xml:space="preserve">
<g id="Слой_x0020_1">
	<g id="_383418488">
		<g>
			<defs>
				<path id="SVGID_1_" d="M2.7,21.1c0,0-1.9-4.9,2.5-9.9l2.1,0.4l0.1-3l3.9-3.9L14.5,6l-0.7-3.3c0,0,3-3.7,10-2.4
					c0,0,2.2,1.6,1.9,4.3c0,0-2.8,0.7-4.6,0.3L23.9,7c0,0-2.1,3.3-3.4,4.3l-5.4,0.3c0,0,2.7,0.9,3.4,1.9c0,0-1,2.1-2.7,3.1
					c0,0-3-0.7-5.2-0.4c0,0,2.2,0.7,3.3,1.9c0,0-4.5,3.6-9.7,3.4h-1L2.7,21.1L2.7,21.1z"/>
			</defs>
			<clipPath id="SVGID_2_">
				<use xlink:href="#SVGID_1_"  overflow="visible"/>
			</clipPath>
			<g clip-path="url(#SVGID_2_)">
				<g id="_379670280">
					<polygon id="_379671216" fill="#FCAF5D" points="16.2,6.8 11.1,4.3 7.2,8.3 7.4,12 8.4,14.1 9,14.7 					"/>
					<path id="_379671120" fill="#A4D2F0" d="M7.3,11.6l-2.2-1c0,0-4.5,5.2-2.5,10.6l0.6,1l6-7.4C9.1,14.8,7.3,11.6,7.3,11.6z"/>
					<path id="_379671024" fill="#B49EDB" d="M3,22.1c0,0,6.7,0,11.5-3.7c0,0-3.3-2.5-5.8-2.6C6.2,15.6,3,22.1,3,22.1z"/>
					<polygon id="_379670928" fill="#67B6EB" points="11.7,11.5 20.9,12 24.6,6.9 19.3,3.5 					"/>
					<path id="_379670832" fill="#FFE641" d="M12.3,11.2c0,0,3.9,0,6.9,2.8l-2.7,3.9l-8.8-2.2L12.3,11.2L12.3,11.2z"/>
					<path id="_379670736" fill="#B6E7B1" d="M12.3,1.8l3.1,5.8c0,0,5.4-5.8,9.7-7.9c0,0-2.8-0.7-5.8-0.4
						C16.3-0.4,12.3,1.8,12.3,1.8L12.3,1.8z"/>
					<path id="_379670640" fill="#84D67B" d="M21.1,4.9l2.9,0.5L28,4.8l-0.7-3.3L25-0.4c-2.1,1.2-4.7,3.2-6.1,4.7L21.1,4.9L21.1,4.9
						z"/>
					<polygon id="_379670544" fill="#81C0EA" points="15,7.5 24.3,8.1 25.4,6.3 18.8,4.2 					"/>
					<polygon id="_379670448" fill="#FFBE78" points="11.8,11.4 9.4,5.6 11.1,4.2 14.5,5.9 15.4,7.6 					"/>
					<path id="_379670376" fill="#8AC8F2" d="M2.8,22.9c0,0,1.9-4,2.5-4.7c0,0-2.7-2.9-2.9-4.5c0,0-0.8,3.2-0.7,4.8
						C1.8,20,2.8,22.9,2.8,22.9z"/>
				</g>
			</g>
		</g>
		<path fill="none" d="M2.7,21.1c0,0-1.9-4.9,2.5-9.9l2.1,0.4l0.1-3l3.9-3.9L14.5,6l-0.7-3.3c0,0,3-3.7,10-2.4c0,0,2.2,1.6,1.9,4.3
			c0,0-2.8,0.7-4.6,0.3L23.9,7c0,0-2.1,3.3-3.4,4.3l-5.4,0.3c0,0,2.7,0.9,3.4,1.9c0,0-1,2.1-2.7,3.1c0,0-3-0.7-5.2-0.4
			c0,0,2.2,0.7,3.3,1.9c0,0-4.5,3.6-9.7,3.4h-1L2.7,21.1L2.7,21.1z"/>
		<path fill="#FFFFFF" d="M1.5,22.1c0,0,9.3-13,17.3-17.9c0,0-7.5,7.6-10.2,10.9c-2.7,3.3-5.8,7.6-5.8,7.6l-1,0.1L1.5,22.1L1.5,22.1
			z"/>
		<path fill="#7F7F7F" d="M0.2,25c0,0,0-1.9,1-2.8l0.4,0.7h1C2.8,22.9,2,24.7,0.2,25z"/>
	</g>
</g>
</svg>
