<?xml version="1.0" encoding="utf-8"?>
<!-- Generator: Adobe Illustrator 17.1.0, SVG Export Plug-In . SVG Version: 6.00 Build 0)  -->
<!DOCTYPE svg PUBLIC "-//W3C//DTD SVG 1.1//EN" "http://www.w3.org/Graphics/SVG/1.1/DTD/svg11.dtd">
<svg version="1.1" id="Слой_1" xmlns="http://www.w3.org/2000/svg" xmlns:xlink="http://www.w3.org/1999/xlink" x="0px" y="0px"
	 width="29px" height="25px" viewBox="0 0 29 25" enable-background="new 0 0 29 25" xml:space="preserve">
<g id="Слой_x0020_1">
	<g id="_383417264">
		<path id="_383417720" fill="#FEDE55" d="M23.5,25l-5.2-5.2H2.9c-1.4,0-2.5-1.1-2.5-2.5V2.5C0.4,1.1,1.6,0,2.9,0l23.1,0
			c1.4,0,2.5,1.1,2.5,2.5v14.8c0,1.4-1.1,2.5-2.5,2.5h-2.5L23.5,25L23.5,25z"/>
		<circle id="_383417624" fill="#FFFFFF" cx="7.8" cy="10" r="2.6"/>
		<circle id="_383417528" fill="#FFFFFF" cx="14.1" cy="10" r="2.6"/>
		<circle id="_383417384" fill="#FFFFFF" cx="20.6" cy="10" r="2.6"/>
		<path id="_383417312" fill="#FFFFFF" fill-opacity="0.2" d="M3.3,0h11.2h11.6c0.7,0,1.3,0.3,1.8,0.8L14.6,10L1.5,19l-0.2,0.1
			c-0.5-0.5-0.8-1.1-0.8-1.8V2.5C0.5,1.1,1.6,0,3,0L3.3,0L3.3,0z"/>
	</g>
</g>
</svg>
