<?xml version="1.0" encoding="utf-8"?>
<!-- Generator: Adobe Illustrator 17.1.0, SVG Export Plug-In . SVG Version: 6.00 Build 0)  -->
<!DOCTYPE svg PUBLIC "-//W3C//DTD SVG 1.1//EN" "http://www.w3.org/Graphics/SVG/1.1/DTD/svg11.dtd">
<svg version="1.1" id="Слой_1" xmlns="http://www.w3.org/2000/svg" xmlns:xlink="http://www.w3.org/1999/xlink" x="0px" y="0px"
	 width="28px" height="25px" viewBox="0 0 28 25" enable-background="new 0 0 28 25" xml:space="preserve">
<g id="Слой_x0020_1">
	<g id="_411608880">
		
			<rect id="_411609072" x="0.8" y="4.2" fill="#FFFFFF" stroke="#000000" stroke-width="6.865710e-003" width="26.5" height="16.3"/>
		<path id="_411608976" fill="#B2B2B2" d="M24.8,25h-0.4v-1.7l0.6,0c0.2,0,0.3-0.1,0.3-0.3l0-1.2c0-0.2-0.1-0.3-0.3-0.3h-0.6v-1.6
			h0.3c0.8,0,1.4-0.6,1.4-1.4V6.7c0-0.8-0.6-1.4-1.4-1.4h-0.3V3.5l0.6,0c0.2,0,0.3-0.1,0.3-0.3l0-1.2c0-0.2-0.1-0.3-0.3-0.3h-0.6V0
			h0.4c1.7,0,3,1.4,3,3l0,19C27.8,23.6,26.4,25,24.8,25z M24.3,25L24.3,25l-3.4,0v-1.7l0.6,0c0.2,0,0.3-0.1,0.3-0.3l0-1.2
			c0-0.2-0.1-0.3-0.3-0.3h-0.6v-1.6h3.4v1.6h-0.6c-0.2,0-0.3,0.1-0.3,0.3V23c0,0.2,0.1,0.3,0.3,0.3l0.6,0C24.3,23.3,24.3,25,24.3,25
			z M20.9,0L20.9,0l3.4,0v1.7h-0.6c-0.2,0-0.3,0.1-0.3,0.3v1.2c0,0.2,0.1,0.3,0.3,0.3l0.6,0v1.7l-3.4,0V3.5l0.6,0
			c0.2,0,0.3-0.1,0.3-0.3l0-1.2c0-0.2-0.1-0.3-0.3-0.3h-0.6C20.9,1.7,20.9,0,20.9,0z M20.9,25L20.9,25h-3.4v-1.7l0.6,0
			c0.2,0,0.3-0.1,0.3-0.3l0-1.2c0-0.2-0.1-0.3-0.3-0.3h-0.6v-1.6h3.4v1.6h-0.6c-0.2,0-0.3,0.1-0.3,0.3V23c0,0.2,0.1,0.3,0.3,0.3
			l0.6,0C20.9,23.3,20.9,25,20.9,25z M17.5,0L17.5,0l3.4,0v1.7h-0.6C20.2,1.7,20,1.8,20,2v1.2c0,0.2,0.1,0.3,0.3,0.3l0.6,0v1.7h-3.4
			V3.5l0.6,0c0.2,0,0.3-0.1,0.3-0.3l0-1.2c0-0.2-0.1-0.3-0.3-0.3h-0.6C17.5,1.7,17.5,0,17.5,0z M17.5,25L17.5,25L14,25v-1.7l0.6,0
			c0.2,0,0.3-0.1,0.3-0.3l0-1.2c0-0.2-0.1-0.3-0.3-0.3H14v-1.6h3.5v1.6h-0.6c-0.2,0-0.3,0.1-0.3,0.3l0,1.2c0,0.2,0.1,0.3,0.3,0.3
			l0.6,0C17.5,23.3,17.5,25,17.5,25z M14,0L14,0l3.5,0v1.7h-0.6c-0.2,0-0.3,0.1-0.3,0.3l0,1.2c0,0.2,0.1,0.3,0.3,0.3l0.6,0v1.7
			l-3.5,0V3.5l0.6,0c0.2,0,0.3-0.1,0.3-0.3l0-1.2c0-0.2-0.1-0.3-0.3-0.3H14C14,1.7,14,0,14,0z M14,25L14,25l-3.4,0v-1.7l0.6,0
			c0.2,0,0.3-0.1,0.3-0.3l0-1.2c0-0.2-0.1-0.3-0.3-0.3h-0.6v-1.6H14v1.6h-0.6c-0.2,0-0.3,0.1-0.3,0.3V23c0,0.2,0.1,0.3,0.3,0.3
			l0.6,0C14,23.3,14,25,14,25z M10.6,0L10.6,0L14,0v1.7h-0.6c-0.2,0-0.3,0.1-0.3,0.3v1.2c0,0.2,0.1,0.3,0.3,0.3l0.6,0v1.7h-3.4V3.5
			l0.6,0c0.2,0,0.3-0.1,0.3-0.3l0-1.2c0-0.2-0.1-0.3-0.3-0.3h-0.6C10.6,1.7,10.6,0,10.6,0z M10.6,25L10.6,25H7.1v-1.7l0.6,0
			C7.9,23.3,8,23.2,8,23l0-1.2c0-0.2-0.1-0.3-0.3-0.3H7.1v-1.6h3.4v1.6H10c-0.2,0-0.3,0.1-0.3,0.3V23c0,0.2,0.1,0.3,0.3,0.3l0.6,0
			C10.6,23.3,10.6,25,10.6,25z M7.1,0L7.1,0l3.4,0v1.7H10C9.8,1.7,9.7,1.8,9.7,2v1.2c0,0.2,0.1,0.3,0.3,0.3l0.6,0v1.7l-3.4,0V3.5
			l0.6,0C7.9,3.5,8,3.4,8,3.2L8,2c0-0.2-0.1-0.3-0.3-0.3H7.1C7.1,1.7,7.1,0,7.1,0z M7.1,25L7.1,25l-3.5,0v-1.7l0.6,0
			c0.2,0,0.3-0.1,0.3-0.3l0-1.2c0-0.2-0.1-0.3-0.3-0.3H3.7v-1.6h3.5v1.6H6.5c-0.2,0-0.3,0.1-0.3,0.3V23c0,0.2,0.1,0.3,0.3,0.3l0.6,0
			C7.1,23.3,7.1,25,7.1,25z M3.7,0L3.7,0l3.5,0v1.7H6.5C6.4,1.7,6.3,1.8,6.3,2v1.2c0,0.2,0.1,0.3,0.3,0.3l0.6,0v1.7l-3.5,0V3.5
			l0.6,0c0.2,0,0.3-0.1,0.3-0.3l0-1.2c0-0.2-0.1-0.3-0.3-0.3H3.7C3.7,1.7,3.7,0,3.7,0z M3.7,25L3.7,25H3.2c-1.7,0-3-1.4-3-3V3
			c0-1.7,1.4-3,3-3h0.4v1.7H3.1C2.9,1.7,2.8,1.8,2.8,2v1.2c0,0.2,0.1,0.3,0.3,0.3l0.6,0v1.7H3.4C2.6,5.2,2,5.9,2,6.7l0,11.8
			c0,0.8,0.6,1.4,1.4,1.4h0.3v1.6H3.1c-0.2,0-0.3,0.1-0.3,0.3V23c0,0.2,0.1,0.3,0.3,0.3l0.6,0L3.7,25L3.7,25z"/>
		<path id="_411608928" fill="#FC731F" d="M18.7,13l-7,4c-0.6,0.3-1.2,0-1.2-0.7V8.5c0-0.7,0.5-1,1.2-0.7l7,4
			C19.3,12.1,19.3,12.7,18.7,13L18.7,13z"/>
	</g>
</g>
</svg>
