<?xml version="1.0" encoding="utf-8"?>
<!-- Generator: Adobe Illustrator 17.1.0, SVG Export Plug-In . SVG Version: 6.00 Build 0)  -->
<!DOCTYPE svg PUBLIC "-//W3C//DTD SVG 1.1//EN" "http://www.w3.org/Graphics/SVG/1.1/DTD/svg11.dtd">
<svg version="1.1" id="Слой_1" xmlns="http://www.w3.org/2000/svg" xmlns:xlink="http://www.w3.org/1999/xlink" x="0px" y="0px"
	 width="31px" height="25px" viewBox="0 0 31 25" enable-background="new 0 0 31 25" xml:space="preserve">
<g id="Слой_x0020_1">
	<g id="_383424512">
		<polygon id="_383426168" fill="#FFFFFF" points="1.2,1.3 27.7,1.3 27.7,23.9 1.2,23.9 		"/>
		<path id="_383426048" fill="#73BBE6" d="M26.1,24.8h-23c-2.4,0-3.1-1.3-3.1-3.6V3c0-2.4,0-2.9,2.3-2.9l23.8,0
			c2.4,0,2.8,0.1,2.8,2.5V22C28.9,24.4,28.4,24.8,26.1,24.8z M27.4,4.4c0-2.4-0.4-2.8-2.8-2.8H3.5C1.1,1.6,1.5,2,1.5,4.4v15.4
			c0,2.4,0.4,3.6,2.8,3.6h20.3c2.4,0,2.8-0.4,2.8-2.8L27.4,4.4L27.4,4.4z"/>
		<polygon id="_383425928" fill="#FFD699" points="3.4,3.5 10.1,3.5 10.1,9.4 3.4,9.4 		"/>
		<polygon id="_383425808" fill="#FFD699" points="11.2,3.5 17.8,3.5 17.8,9.4 11.2,9.4 		"/>
		<polygon id="_383425688" fill="#FFD699" points="18.9,3.5 25.5,3.5 25.5,9.4 18.9,9.4 		"/>
		<polygon id="_383425568" fill="#73BBE6" points="3.3,11.2 11.8,11.2 11.8,12.9 3.3,12.9 		"/>
		<polygon id="_383425448" fill="#73BBE6" points="3.3,13.8 11.8,13.8 11.8,15.5 3.3,15.5 		"/>
		<polygon id="_383425328" fill="#73BBE6" points="3.3,16.4 11.7,16.4 11.7,18.1 3.3,18.1 		"/>
		<polygon id="_383425208" fill="#73BBE6" points="3.3,18.9 11.7,18.9 11.7,20.6 3.3,20.6 		"/>
		<g>
			<path id="_383425088" fill="#FF8232" d="M25.7,10.4h2.1c0.6,0,1.1,0.4,1.1,1c0,0.6-0.5,1.1-1.1,1.1h-2.1c-0.6,0-1.1-0.5-1.1-1.1
				C24.6,10.8,25.1,10.4,25.7,10.4z"/>
			<path id="_383424968" fill="#42A0D6" d="M14.7,11.3h14.6c1,0,1.7,0.8,1.7,1.7v10.1c0,1-0.8,1.7-1.7,1.7H14.7
				c-1,0-1.7-0.8-1.7-1.7V13.1C13,12.1,13.7,11.3,14.7,11.3z"/>
			<path id="_383424848" fill="#55ADE0" d="M14.7,11.3h14.6c0.7,0,1.2,0.4,1.5,0.9L21.9,18l8.8,6c-0.3,0.5-0.8,0.8-1.5,0.8H14.7
				c-1,0-1.7-0.8-1.7-1.7V13.1C13,12.1,13.7,11.3,14.7,11.3L14.7,11.3z"/>
			<path id="_383424704" fill="#FFFFFF" d="M22,13.5c2.3,0,4.2,1.9,4.2,4.3c0,2.4-1.9,4.3-4.2,4.3c-2.3,0-4.2-1.9-4.2-4.3
				C17.8,15.4,19.7,13.5,22,13.5z"/>
			<path id="_383424680" fill="#73C869" d="M22,15.3c1.4,0,2.5,1.2,2.5,2.6c0,1.4-1.1,2.6-2.5,2.6c-1.4,0-2.5-1.2-2.5-2.6
				C19.4,16.5,20.6,15.3,22,15.3z"/>
		</g>
	</g>
</g>
</svg>
