<?xml version="1.0" encoding="utf-8"?>
<!-- Generator: Adobe Illustrator 16.0.0, SVG Export Plug-In . SVG Version: 6.00 Build 0)  -->
<!DOCTYPE svg PUBLIC "-//W3C//DTD SVG 1.1//EN" "http://www.w3.org/Graphics/SVG/1.1/DTD/svg11.dtd">
<svg version="1.1" id="Слой_1" xmlns="http://www.w3.org/2000/svg" xmlns:xlink="http://www.w3.org/1999/xlink" x="0px" y="0px"
	 width="24.762px" height="24.816px" viewBox="0.238 0 24.762 24.816" enable-background="new 0.238 0 24.762 24.816"
	 xml:space="preserve">
<g id="Слой_x0020_1">
	<g id="_225550360">
		<path id="_225551608" fill="#5EBDFF" d="M16.069,24.816l-0.048-5.175H2.482c-1.239,0-2.244-1.103-2.244-2.462V2.463
			C0.238,1.103,1.242,0,2.481,0h20.274C23.995,0,25,1.103,25,2.463V17.18c0,1.359-1.005,2.462-2.244,2.462h-2.023L16.069,24.816
			L16.069,24.816z"/>
		<path id="_225551536" fill="#FFFFFF" d="M13.58,11.174c0.106-0.244,0.379-0.566,0.819-0.969c0.85-0.776,1.403-1.387,1.664-1.838
			c0.26-0.45,0.389-0.93,0.389-1.432c0-0.912-0.354-1.711-1.06-2.398c-0.707-0.685-1.658-1.027-2.854-1.027
			c-1.137,0-2.055,0.338-2.753,1.018C9.086,5.205,8.709,6.029,8.654,7l1.913,0.26c0.133-0.678,0.377-1.184,0.733-1.514
			c0.356-0.329,0.797-0.496,1.326-0.496c0.548,0,0.985,0.158,1.311,0.477c0.322,0.318,0.483,0.698,0.483,1.145
			c0,0.318-0.092,0.611-0.272,0.878c-0.12,0.168-0.483,0.524-1.092,1.064c-0.607,0.542-1.013,1.032-1.216,1.464
			c-0.203,0.436-0.304,0.987-0.304,1.661c0,0.065,0.003,0.064,0.008,0.363h1.891C13.425,11.674,13.472,11.417,13.58,11.174z
			 M12.602,13.371c-0.586,0-1.062,0.522-1.062,1.164c0,0.644,0.476,1.164,1.062,1.164s1.061-0.521,1.061-1.164
			C13.662,13.895,13.188,13.371,12.602,13.371z"/>
		<path id="_225551800" fill="#FFFFFF" fill-opacity="0.2" d="M2.77,0.006h9.574h10.475c0.64,0,1.217,0.294,1.626,0.767L12.344,9.9
			L1.098,18.832l-0.171,0.129c-0.423-0.449-0.687-1.078-0.687-1.773V2.471c0-1.359,1.005-2.463,2.243-2.463H2.77V0.006z"/>
	</g>
</g>
</svg>
