<?xml version="1.0" encoding="utf-8"?>
<!-- Generator: Adobe Illustrator 14.0.0, SVG Export Plug-In . SVG Version: 6.00 Build 43363)  -->
<!DOCTYPE svg PUBLIC "-//W3C//DTD SVG 1.1//EN" "http://www.w3.org/Graphics/SVG/1.1/DTD/svg11.dtd">
<svg version="1.1" id="Слой_1" xmlns="http://www.w3.org/2000/svg" xmlns:xlink="http://www.w3.org/1999/xlink" x="0px" y="0px" width="27px" height="25px" viewBox="-189 209 27 25" enable-background="new 0 0 27 25" xml:space="preserve">
<g id="Слой_x0020_1">
	<g id="_225550480">
		<path id="_225551944" fill="#5EBDFF" d="M-172.248,234.352l-0.054-5.213h-14.978c-1.37,0.001-2.482-1.11-2.482-2.48v-14.831
			c0-1.37,1.112-2.482,2.482-2.482h22.433c1.369,0,2.479,1.112,2.479,2.482v14.831c0,1.369-1.112,2.48-2.479,2.48h-2.244
			L-172.248,234.352z"/>
		<path id="_225550600" fill="#FFFFFF" fill-opacity="0.2" d="M-186.963,209.352h10.591h11.587c0.709,0,1.346,0.298,1.8,0.772
			l-13.387,9.199l-12.44,8.999l-0.19,0.131c-0.468-0.452-0.758-1.084-0.758-1.786v-14.833c0-1.371,1.111-2.482,2.48-2.482H-186.963
			L-186.963,209.352z"/>
		<circle id="_225550672" fill="#FFFFFF" cx="-180.179" cy="219.6" r="2.135"/>
		<circle id="_225550936" fill="#FFFFFF" cx="-172.816" cy="219.6" r="2.135"/>
	</g>
</g>
</svg>
