<?xml version="1.0" encoding="utf-8"?>
<!-- Generator: Adobe Illustrator 17.1.0, SVG Export Plug-In . SVG Version: 6.00 Build 0)  -->
<!DOCTYPE svg PUBLIC "-//W3C//DTD SVG 1.1//EN" "http://www.w3.org/Graphics/SVG/1.1/DTD/svg11.dtd">
<svg version="1.1" id="Слой_1" xmlns="http://www.w3.org/2000/svg" xmlns:xlink="http://www.w3.org/1999/xlink" x="0px" y="0px"
	 width="31px" height="25px" viewBox="0 0 31 25" enable-background="new 0 0 31 25" xml:space="preserve">
<g id="Слой_x0020_1">
	<g id="_383413784">
		<path id="_383414288" fill="#F3775B" d="M21.7,0.2h3.6c1,0,1.8,0.7,1.8,1.7c0,1-0.8,1.8-1.8,1.8h-3.6c-1,0-1.8-0.8-1.8-1.8
			C19.8,0.9,20.7,0.2,21.7,0.2z"/>
		<path id="_383414168" fill="#AAB2BD" d="M3,1.7H28c1.6,0,3,1.3,3,3l0,17.2c0,1.6-1.3,3-3,3H3c-1.6,0-3-1.3-3-3V4.7
			C0,3,1.3,1.7,3,1.7z"/>
		<path id="_383414048" fill="#BBC1CA" d="M3,1.7h24.8c1.1,0,2.1,0.6,2.6,1.6l-15.1,9.9l15,10.3c-0.5,0.8-1.4,1.4-2.5,1.4H3
			c-1.6,0-3-1.3-3-3V4.7C0,3,1.3,1.7,3,1.7L3,1.7z"/>
		<path id="_383413904" fill="#FFFFFF" d="M15.5,5.5c4,0,7.2,3.3,7.2,7.3c0,4-3.2,7.3-7.2,7.3c-4,0-7.2-3.3-7.2-7.3
			C8.3,8.7,11.5,5.5,15.5,5.5z"/>
		<path id="_383413832" fill="#73BBE6" d="M15.4,8.5c2.4,0,4.3,2,4.3,4.4c0,2.4-1.9,4.4-4.3,4.4c-2.4,0-4.3-2-4.3-4.4
			C11,10.5,13,8.5,15.4,8.5z"/>
	</g>
</g>
</svg>
