<?xml version="1.0" encoding="utf-8"?>
<!-- Generator: Adobe Illustrator 14.0.0, SVG Export Plug-In . SVG Version: 6.00 Build 43363)  -->
<!DOCTYPE svg PUBLIC "-//W3C//DTD SVG 1.1//EN" "http://www.w3.org/Graphics/SVG/1.1/DTD/svg11.dtd">
<svg version="1.1" id="Слой_1" xmlns="http://www.w3.org/2000/svg" xmlns:xlink="http://www.w3.org/1999/xlink" x="0px" y="0px" width="24px" height="25px" viewBox="-189 209 24 25" enable-background="new -189.788 209.322 24 25" xml:space="preserve">
<g id="Слой_x0020_1">
	<g id="_225550360">
		<path id="_225551608" fill="#5EBDFF" d="M-173.958,234.138l-0.048-5.174h-13.539c-1.239,0-2.244-1.102-2.244-2.462l0-14.717
			c0-1.36,1.004-2.463,2.243-2.463l20.275,0c1.239,0,2.244,1.103,2.244,2.463v14.717c0,1.36-1.005,2.462-2.244,2.462h-2.024
			L-173.958,234.138L-173.958,234.138z"/>
		<path id="_225551536" fill="#FFFFFF" d="M-176.447,220.496c0.106-0.244,0.379-0.566,0.819-0.968
			c0.85-0.777,1.404-1.388,1.664-1.839c0.26-0.45,0.389-0.929,0.389-1.431c0-0.912-0.353-1.711-1.06-2.398
			c-0.707-0.685-1.658-1.028-2.854-1.028c-1.137,0-2.055,0.338-2.753,1.017c-0.699,0.678-1.076,1.502-1.131,2.473l1.913,0.26
			c0.133-0.678,0.377-1.183,0.734-1.513c0.356-0.33,0.797-0.497,1.326-0.497c0.548,0,0.985,0.159,1.31,0.477
			c0.323,0.318,0.484,0.698,0.484,1.144c0,0.319-0.092,0.612-0.273,0.878c-0.12,0.168-0.483,0.524-1.091,1.065
			c-0.608,0.542-1.013,1.032-1.216,1.464c-0.203,0.435-0.304,0.987-0.304,1.661c0,0.065,0.003,0.064,0.008,0.363h1.89
			C-176.602,220.996-176.555,220.739-176.447,220.496z M-177.426,222.694c-0.585,0-1.061,0.522-1.061,1.164
			c0,0.643,0.476,1.163,1.061,1.163c0.586,0,1.061-0.521,1.061-1.163C-176.365,223.217-176.84,222.694-177.426,222.694z"/>
		<path id="_225551800" fill="#FFFFFF" fill-opacity="0.2" d="M-187.258,209.328h9.575h10.474c0.64,0,1.217,0.294,1.626,0.767
			l-12.1,9.128l-11.246,8.931l-0.171,0.129c-0.423-0.449-0.687-1.078-0.687-1.773v-14.717c0-1.36,1.005-2.463,2.243-2.463H-187.258
			L-187.258,209.328z"/>
	</g>
</g>
</svg>
