<?xml version="1.0" encoding="utf-8"?>
<!-- Generator: Adobe Illustrator 17.1.0, SVG Export Plug-In . SVG Version: 6.00 Build 0)  -->
<!DOCTYPE svg PUBLIC "-//W3C//DTD SVG 1.1//EN" "http://www.w3.org/Graphics/SVG/1.1/DTD/svg11.dtd">
<svg version="1.1" id="Слой_1" xmlns="http://www.w3.org/2000/svg" xmlns:xlink="http://www.w3.org/1999/xlink" x="0px" y="0px"
	 width="31px" height="25px" viewBox="0 0 31 25" enable-background="new 0 0 31 25" xml:space="preserve">
<g id="Слой_x0020_1">
	<g id="_383423168">
		<path id="_383423912" fill="#69BFF2" d="M7.1,18.8L9,22.9c0.5,1.1,3.6,2.6,6.4,1.3c2.8-1.3,4.2-4.4,3.1-6.8c-1.4,0.2-3,0.4-3,0.4
			s0.9,3.3-1,4.1c-1.9,0.8-3.1-0.3-3.4-0.8C11,20.5,10,18.4,10,18.4L7.1,18.8L7.1,18.8z"/>
		<path id="_383423792" fill="#70C0F0" d="M26.1,1.3l-2.3,2.4c-0.2,0.2-0.5,0.2-0.7,0L23,3.6c-0.2-0.2-0.1-0.5,0-0.7l2.3-2.4
			c0.2-0.2,0.5-0.2,0.7,0l0.1,0.1C26.3,0.8,26.3,1.1,26.1,1.3z M29.6,5.7l-3.9,2c-0.2,0.1-0.6,0-0.7-0.2L25,7.3
			c-0.1-0.3,0-0.5,0.2-0.7l3.9-2c0.2-0.1,0.6,0,0.7,0.2L29.9,5C30,5.2,29.9,5.5,29.6,5.7z M30.6,11.1l-3.7,0.3
			c-0.3,0-0.5-0.2-0.6-0.4l0-0.2c0-0.3,0.2-0.5,0.4-0.6l3.7-0.3c0.3,0,0.5,0.2,0.6,0.4l0,0.2C31,10.8,30.8,11.1,30.6,11.1z"/>
		<path id="_383423672" fill="#7CC9F7" d="M0.8,15.3L17.2,0.4c0,0,0.8-0.2,1,0.3C18.5,1.3,25.4,16,25.4,16s0.1,0.8-0.4,0.9
			c-0.5,0.1-21.9,2.4-21.9,2.4L0.8,15.3L0.8,15.3z"/>
		<polygon id="_383423552" fill="#FFDB42" points="3.8,12.6 6.7,18.9 2.3,20 0,15.2 		"/>
		<polygon id="_383423432" fill="#D2EEFE" points="14.6,2.7 16.2,1.3 23.8,17 21.7,17.3 		"/>
		<path id="_383423288" fill="#FFFFFF" fill-opacity="0.2" d="M0.1,15.3l3.7-2.7L16.9,0.7l0.3-0.2c0.2-0.1,0.6-0.1,1,0.2l3.6,7.7
			L1.4,18L0.1,15.3L0.1,15.3z"/>
		<polygon id="_383423216" fill="#D9F1FE" points="16.2,1.3 20.1,9.3 18.2,10.2 14.6,2.8 		"/>
	</g>
</g>
</svg>
