<?xml version="1.0" encoding="utf-8"?><svg baseProfile="full" xmlns="http://www.w3.org/2000/svg" height="48" width="43"><path fill="rgb( 100, 185, 235 )" d="M19.885 29.347s0 1.392 0 1.392c-.277.06-.558.13-.865.2-.626.14-1.226.282-1.807.43 0 0 0-2.03 0-2.03S.06 17.13.06 17.13s36.977 0 36.977 0-17.152 12.22-17.152 12.22zm4.654 15.72s-4.66 0-4.66 0 0-1.613 0-1.613 0-2.214 0-2.214 0-.65 0-.65 0-5.562 0-5.562c-.08.017-.15.034-.228.05-.537.125-1.46.34-2.448.608 0 0 0 4.42 0 4.42s0 .65 0 .65 0 2.273 0 2.273 0 2.03 0 2.03-4.655 0-4.655 0c-.62 0-1.13.5-1.13 1.122 0 .625.51 1.127 1.13 1.127 0 0 11.98 0 11.98 0 .62 0 1.124-.5 1.124-1.128 0-.623-.504-1.124-1.126-1.124zm-3.95-1.538s0-2.87 0-2.87c1.13.14 1.52.13 2.4.13.784 0 1.422.633 1.422 1.422 0 .785-.64 1.42-1.426 1.42-.32 0-.84.06-2.405-.11zM37.56 6.35C33.37 2.697 23.06.56 17.755 4.52c-.915.353-1.837 1.065-2.567 2.067-1.496 2.042-1.612 4.495-.263 5.483 1.346.985 3.65.13 5.145-1.915C21.12 8.72 21.472 7.09 21.13 5.9c4.434-1.642 11.644.056 14.56 2.6 2.735 2.387 4.174 5.947 3.755 9.3-.36 2.857-3.41 6.238-6.28 8.323-3.76 2.73-8.65 4.183-12.937 5.244-.112.03-.232.056-.345.084-.277.07-.558.13-.865.2-.626.15-1.226.29-1.807.44-3.56.9-6.2 1.91-6.74 3.99-.372 1.44-.11 2.79.75 3.916 1.27 1.637 2.9 2.365 5.21 2.86 0 0 0-2.92 0-2.92-1.65-.407-2.29-.832-2.95-1.68-.33-.422-.402-.872-.252-1.45.236-.625 2.21-1.282 3.99-1.766.987-.267 1.912-.483 2.448-.606.076-.02.147-.036.226-.05.366-.087.715-.17 1.026-.25 4.557-1.125 9.773-2.684 13.933-5.702 3.26-2.374 6.93-6.317 7.425-10.275.532-4.273-1.27-8.792-4.707-11.794z"/></svg>