<?xml version="1.0" encoding="utf-8"?><svg baseProfile="full" xmlns="http://www.w3.org/2000/svg" height="48" width="43"><path fill="rgb( 100, 185, 235 )" d="M19.885 29.347s0 1.392 0 1.392c-.277.06-.558.13-.865.2-.626.144-1.226.286-1.807.432 0 0 0-2.03 0-2.03S.06 17.132.06 17.132s36.977 0 36.977 0S19.885 29.35 19.885 29.35zm4.654 15.72s-4.66 0-4.66 0 0-1.613 0-1.613 0-2.214 0-2.214 0-.65 0-.65 0-5.562 0-5.562c-.08.017-.15.034-.224.05-.537.125-1.46.34-2.448.608 0 0 0 4.42 0 4.42s0 .65 0 .65 0 2.273 0 2.273 0 2.033 0 2.033-4.655 0-4.655 0c-.62 0-1.13.5-1.13 1.123 0 .625.51 1.127 1.13 1.127 0 0 11.98 0 11.98 0 .62 0 1.124-.502 1.124-1.128 0-.623-.504-1.124-1.126-1.124zm-3.95-1.538s0-2.87 0-2.87c1.13.14 1.52.13 2.4.13.788 0 1.426.637 1.426 1.426 0 .785-.64 1.42-1.426 1.42-.32 0-.84.06-2.404-.11zM37.56 6.35c-4.19-3.653-14.5-5.79-19.805-1.83-.915.353-1.837 1.065-2.567 2.067-1.496 2.042-1.612 4.495-.263 5.483 1.346.985 3.65.13 5.145-1.915 1.05-1.435 1.402-3.065 1.06-4.255 4.434-1.642 11.644.056 14.56 2.6 2.735 2.387 4.174 5.947 3.755 9.3-.36 2.857-3.41 6.238-6.28 8.323-3.76 2.73-8.65 4.183-12.937 5.244-.112.03-.232.056-.345.084-.277.07-.558.13-.865.2-.626.15-1.226.29-1.807.44-3.563.9-6.202 1.91-6.74 3.99-.376 1.437-.114 2.79.748 3.912 1.27 1.637 2.898 2.365 5.21 2.86 0 0 0-2.92 0-2.92-1.65-.407-2.293-.832-2.95-1.68-.33-.422-.404-.872-.254-1.45.236-.625 2.21-1.282 3.99-1.766.987-.266 1.912-.482 2.448-.605.076-.02.147-.036.226-.05.366-.087.715-.17 1.026-.25 4.557-1.125 9.773-2.684 13.933-5.702 3.262-2.375 6.93-6.318 7.425-10.276.532-4.273-1.27-8.792-4.707-11.794z"/></svg>