<?xml version="1.0" encoding="utf-8"?><svg baseProfile="full" xmlns="http://www.w3.org/2000/svg" height="48" width="43"><path fill="rgb( 100, 185, 235 )" d="M19.885 29.347s0 1.392 0 1.392c-.277.064-.558.13-.865.203-.626.144-1.226.286-1.807.432 0 0 0-2.03 0-2.03S.06 17.135.06 17.135s36.977 0 36.977 0-17.152 12.213-17.152 12.213zm4.654 15.72s-4.656 0-4.656 0 0-1.613 0-1.613 0-2.214 0-2.214 0-.65 0-.65 0-5.562 0-5.562c-.08.017-.15.034-.225.05-.537.125-1.46.34-2.448.608 0 0 0 4.42 0 4.42s0 .65 0 .65 0 2.273 0 2.273 0 2.036 0 2.036-4.654 0-4.654 0c-.62 0-1.13.5-1.13 1.123 0 .625.51 1.127 1.13 1.127 0 0 11.98 0 11.98 0 .62 0 1.124-.502 1.124-1.128 0-.623-.503-1.124-1.125-1.124zm-3.95-1.538s0-2.87 0-2.87c1.13.14 1.52.134 2.404.134.787 0 1.425.636 1.425 1.425 0 .785-.64 1.42-1.426 1.42-.322 0-.84.06-2.405-.11zM37.564 6.353C33.375 2.697 23.063.56 17.757 4.52c-.915.353-1.837 1.065-2.567 2.067-1.496 2.042-1.612 4.495-.263 5.483 1.346.985 3.65.13 5.145-1.915 1.05-1.435 1.402-3.065 1.06-4.255 4.434-1.642 11.644.056 14.56 2.6 2.735 2.387 4.174 5.947 3.755 9.3-.36 2.857-3.41 6.238-6.28 8.323-3.76 2.73-8.65 4.183-12.937 5.244-.112.03-.232.056-.345.084-.277.068-.558.13-.865.2-.626.147-1.226.29-1.807.438-3.563.9-6.202 1.912-6.74 3.988-.376 1.438-.114 2.79.748 3.913 1.27 1.636 2.895 2.364 5.21 2.86 0 0 0-2.92 0-2.92-1.65-.408-2.296-.833-2.952-1.68-.33-.423-.405-.873-.255-1.45.236-.626 2.21-1.283 3.99-1.767.987-.266 1.912-.482 2.448-.605.076-.02.147-.036.226-.05.367-.087.716-.17 1.027-.248 4.557-1.127 9.773-2.686 13.933-5.704 3.264-2.375 6.933-6.318 7.427-10.276.532-4.274-1.27-8.793-4.707-11.795z"/></svg>