<?xml version="1.0" encoding="utf-8"?><svg baseProfile="full" xmlns="http://www.w3.org/2000/svg" height="41" width="42"><path fill="rgb( 100, 185, 235 )" d="M37.198 20.91S21.002 5.047 21.002 5.047s-16.2 15.86-16.2 15.86-4.43.002-4.43.002S21 .38 21 .38s8.083 7.773 8.083 7.773 0-5.072 0-5.072 4.86 0 4.86 0 0 10.61 0 10.61 7.684 7.22 7.684 7.22-4.432 0-4.432 0zm-1.286 1.357s0 18.723 0 18.723-29.928 0-29.928 0 0-18.723 0-18.723S21.002 8.174 21.002 8.174s14.91 14.093 14.91 14.093zM14.885 32.915c1.53 1.312 4.053 2.685 6.117 4.928 2.063-2.243 4.585-3.616 6.114-4.928 8.264-7.07-.935-17.705-6.114-9.162-5.182-8.543-14.38 2.093-6.117 9.162z"/></svg>