<?xml version="1.0" encoding="utf-8"?><svg baseProfile="full" xmlns="http://www.w3.org/2000/svg" height="35" width="38"><path fill="rgb( 100, 185, 235 )" d="M31.654 33.952c-2.353.078-24.945.004-24.945.004s-5.886-.16-5.258-6.985c.706-3.293 3.53-15.924 3.53-15.924s28.79-.013 28.79-.013 3.45 16.252 3.45 16.252.393 6.433-5.57 6.668zm2.824-24.94s-30.123 0-30.123 0c-.433 0-.784-.352-.784-.785 0 0 0-.396 0-.396 0-.43.353-.865.786-.865 0 0 14.345 0 14.345 0s2.85-3.542 2.85-3.542c-.08-.243-.13-.497-.13-.765 0-1.386 1.122-2.51 2.51-2.51 1.384 0 2.51 1.124 2.51 2.51 0 1.386-1.126 2.51-2.51 2.51-.13 0-.257-.02-.38-.038 0 0-1.36 1.834-1.36 1.834s12.29 0 12.29 0c.432 0 .783.434.783.867 0 0 0 .398 0 .398 0 .433-.35.784-.784.784zM18.083 5.768s-1.255.024-1.255.024-.705-.704-.705-.704c-.19.046-.385.077-.59.077-1.386 0-2.51-1.124-2.51-2.51 0-1.386 1.124-2.576 2.51-2.576 1.387 0 2.51 1.19 2.51 2.576 0 .155-.018.305-.045.452 0 0 1.183 1.35 1.183 1.35s-1.096 1.31-1.096 1.31z"/></svg>