<?xml version="1.0" encoding="utf-8"?><svg baseProfile="full" xmlns="http://www.w3.org/2000/svg" height="36" width="35"><path fill="rgb( 100, 185, 235 )" d="M.004 34.153c0 1.024.827 1.84 1.836 1.84 0 0 31.314 0 31.314 0 1.01 0 1.84-.816 1.84-1.84 0 0 0-16.104 0-16.104s-34.99 0-34.99 0 0 16.1 0 16.1zM14.9 20.817c0-.45.506-.81 1.138-.81 0 0 3.85 0 3.85 0 .626 0 1.133.36 1.133.81 0 0 0 2.318 0 2.318 0 .455-.5.818-1.13.818 0 0-3.85 0-3.85 0-.63 0-1.14-.363-1.14-.818 0 0 0-2.318 0-2.318zM33.153 8.06s-6.988 0-6.988 0C25.95 3.836 22.47.94 18.185.94c0 0-.73 0-.73 0C13.18.942 9.7 3.837 9.48 8.06c0 0-7.64 0-7.64 0-1.01 0-1.836.82-1.836 1.835 0 0 0 7.08 0 7.08s34.99 0 34.99 0 0-7.08 0-7.08c0-1.016-.83-1.836-1.84-1.836zm-21.376 0c.223-3.21 2.417-5.185 5.678-5.19 0 0 .73 0 .73 0 3.266.004 5.644 1.978 5.864 5.187 0 0-12.28 0-12.28 0z"/></svg>