<?xml version="1.0" encoding="utf-8"?><svg baseProfile="full" xmlns="http://www.w3.org/2000/svg" height="35" width="38"><path fill="rgb( 100, 185, 235 )" d="M31.654 33.952c-2.353.078-24.945.004-24.945.004s-5.89-.16-5.26-6.985c.705-3.29 3.53-15.92 3.53-15.92s28.79-.014 28.79-.014 3.45 16.252 3.45 16.252.392 6.433-5.57 6.668zm2.824-24.94s-30.123 0-30.123 0c-.433 0-.784-.352-.784-.785 0 0 0-.396 0-.396 0-.43.356-.862.79-.862 0 0 14.344 0 14.344 0s2.85-3.542 2.85-3.542c-.08-.243-.13-.497-.13-.765 0-1.386 1.122-2.51 2.51-2.51 1.384 0 2.51 1.124 2.51 2.51 0 1.386-1.126 2.51-2.51 2.51-.13 0-.257-.02-.38-.04 0 0-1.36 1.836-1.36 1.836s12.29 0 12.29 0c.432 0 .783.434.783.867 0 0 0 .398 0 .398 0 .434-.35.785-.784.785zM18.083 5.768s-1.255.024-1.255.024-.705-.704-.705-.704c-.19.046-.385.077-.59.077-1.386 0-2.51-1.124-2.51-2.51 0-1.386 1.124-2.576 2.51-2.576 1.387 0 2.51 1.19 2.51 2.573 0 .155-.018.305-.045.452 0 0 1.183 1.35 1.183 1.35s-1.093 1.31-1.093 1.31z"/></svg>