<svg xmlns="http://www.w3.org/2000/svg" width="320" height="100" viewBox="0 0 320 100"><g fill-rule="evenodd" clip-rule="evenodd"><path fill="#735FA0" d="M-878.2-275.6h595v286h-595zM99.7 21.9c0 3.2-1.6 5.3-4.8 5.3h-2.4v-2.9h1.9c1.2 0 2.1-.7 2.1-2 0-1.1-.8-2.3-2.4-2.3h-1.6v-2.8h1.1c1.1 0 1.9-.5 1.9-1.7 0-1.1-.9-1.5-1.9-1.5h-1v-3h2c2.4 0 4.4 1.9 4.4 4.3 0 1.4-.6 2.7-1.7 3.1 1.1.3 2.4 1.7 2.4 3.5zm18.9-8h-7.2v3.2h6.2c1.1 0 1.7.6 1.7 1.4 0 .8-.6 1.4-1.7 1.4h-6.2v4.2h7.4c1.1 0 1.6.7 1.6 1.5s-.5 1.5-1.6 1.5h-8.7c-1 0-1.8-.7-1.8-1.7V13c0-1.1.6-2 1.8-2h8.4c1.1 0 1.6.6 1.6 1.4.1.9-.5 1.5-1.5 1.5zm20.1 1.5c-.6 0-2.2-1.4-4.2-1.4-2.8 0-4.6 2.5-4.6 5.3 0 2.7 1.9 4.9 4.7 4.9 1.9 0 3.5-1.4 4.1-1.4 1 0 1.5 1 1.5 1.6-.5 2-4.1 2.8-5.8 2.8-4.6 0-7.4-3.2-7.4-7.9 0-4.8 2.7-8.1 7.4-8.1 1.7 0 5.3.8 5.7 2.8 0 .7-.5 1.4-1.4 1.4zM92.5 27.1h-4.1c-.8 0-1.6-.9-1.7-1.4V12.9c0-1.1 1-1.8 2.1-1.8h3.7V14h-2.9l.1 3.2h2.8V20h-2.8v4.3h2.8v2.8zm113.6 0v-2.9h.5c1.2 0 2.2-.8 2.2-2 0-1.1-.8-2.3-2.4-2.3h-.2v-2.8h.5c3.3 0 5.4 1.6 5.4 5 0 3.2-1.8 5-5 5h-1zm10 0c-1 0-1.5-.5-1.5-1.5V12.4c0-1.1.5-1.5 1.5-1.5s1.5.3 1.5 1.5v13.2c.1 1.2-.5 1.5-1.5 1.5zm23 0c-1.1 0-1.4-.4-1.4-1.5v-9.7l-8 9.7c-.4.5-1.1 1.4-2 1.4-1 0-1.4-.7-1.5-1.5V12.3c0-1.1.6-1.4 1.5-1.5.9 0 1.6.4 1.6 1.5v9.1l7.4-9.1c.6-.9 1.2-1.5 2.4-1.5 1 0 1.6.5 1.6 1.5v13.2c-.1 1.1-.5 1.6-1.6 1.6zm-5.5-18.7c-1.9 0-3.8-.7-3.8-2.4 0-.5.4-.7.9-.7 1.6 0 1.1 1.6 3.1 1.6s1.3-1.6 2.7-1.6c.6 0 1 .2 1 .7-.2 1.6-1.9 2.5-3.9 2.4zm-43.3 18.7c-1 0-1.5-.4-1.5-1.4V13.9h-5.6v6.5c.1 2.7-.5 4.2-2.5 5.6-.8.6-1.7 1.1-2.8 1.1-1.1 0-1.5-.7-1.5-1.4 0-.8.6-1 1.4-1.5.8-.5 2-.8 2.4-3.1v-8.6c0-1.1.7-1.5 1.6-1.5h8.1c1 0 1.8.3 1.8 1.5v13.2c0 .8-.4 1.4-1.4 1.4zm15.8-10v2.8h-2.7v4.3h2.7v2.9h-3.9c-.9 0-1.8-.6-1.8-1.4V12.5c0-1.1.5-1.5 1.5-1.5s1.5.3 1.5 1.5v4.6h2.7z"/><path fill="#AA96D2" d="M3.7 38.5H22l9.5 15.3V38.5h14.8v15.7l8.8-15.7H75L57.5 62.7l19.4 27.7H57L46.3 73.3v17.1H31.6l-.1-16.9L21 90.4H1.9l19.3-27z"/><path fill="#FF8232" d="M82.2 38.5H98v25.2l17-25.2 14.4.1.1 51.8h-15.7l-.1-26.2-16.8 26.2H82.2z"/><path fill="#64B9EB" d="M236.4 90.4l-3.4-8.7h-8.3V69.6h4.4l-4.3-13.3-.1.4V38.5h8.9L253 90.4h-16.6zm-11.7-8.8h-8.2l-3.8 8.7h-16.8l20.2-51.8h8.6v18.1l-4.4 12.9h4.4v12.1z"/><path fill="#73C869" d="M299.1 42.5c12 2 18.9 11.8 18.9 22.2 0 10.4-7.4 19.7-18.9 21.6V71.9c2.7-1.6 4.3-4 4.3-7.4 0-3.5-1.5-6.3-4.3-8.1V42.5zm-4.3 44.2v3.7h-16.9v-3.6c-1.5 0-2.9-.2-4.3-.4V71.8c1.2.7 2.7 1.3 4.3 1.7V54.7c-1.6.4-3 1-4.3 1.8v-14c1.4-.2 2.8-.4 4.3-.4v-3.5h16.9v3.6s0 0 .1 0c1.5 0 2.9.1 4.2.4v13.8c-1.2-.8-2.6-1.4-4.3-1.7v18.9c1.6-.4 3-.9 4.3-1.6v14.5c-1.4.1-2.8.2-4.3.2zm-21.2-.3c-11.7-1.9-20.1-10.8-20.1-21.7 0-10.9 8.5-20.2 20.1-22.3v14.1c-2.6 1.8-4.3 4.5-4.3 7.9 0 3.4 1.6 5.8 4.3 7.3v14.7zM153 61.8c-4-.4-6.1-1.8-8-3.3-1.6 2.6-1.2 5.3-.2 6.9 0 0 .6 1 8.2.3v-3.9z"/><path fill="#64B9EB" d="M152.7 67.4c-3.3.4-4.9.7-7.9-.3-.9 2.8-.5 3.9.8 6 0 0 3 1.1 7.3-1l-.2-4.7z"/><path fill="#FF8232" d="M152.8 73.8c-2.6 1.1-4.1 1.7-6.8 1.3-.5 1.4-.9 3.6.5 5.4 1.4-.2 3.3.3 6.8-1.9l-.5-4.8z"/><path fill="#AA96D2" d="M154.1 80.4c-1.8 1.1-5 1.5-7.4 1.5-.9 2.6-.6 3.6 1.1 5.2 1.3-.2 3.1 0 6.7-2.7l-.4-4z"/><path fill="#FF8232" d="M175.4 39.9l11.7-5.6s.3 6.4-.8 11c-.9 3.8-10.9-5.4-10.9-5.4z"/><path fill="#FFD72C" d="M176.4 39.2l10.7-5-5.1 8z"/><path fill="#FFE641" d="M151.3 57.2s-.1 28.1 0 31.4c.1 8.7 18.5 9 18.5-.1 0-5.2 0-13.5 0-13.5s7.1 5.2 16.1-2.3c4.6 1.5 8.1-.9 10.5-3.8 3.3-2.4 4.6-5.9 4.1-10.1-.3-3-2.6-4.2-5.7-6.8-3.1-2.6-4.9-13-20.6-15.3-3.9-6-8.9-13.1-8.9-13.1L164 37.8l-7.4-11.5-1.3 16.4-9.5-3.6c.1 0-4.5 13.8 5.5 18.1z"/><path fill="#C3640F" d="M151 16.3l6.2-2.3-.8 11zm9.9-2.6l6.2-2.6-2.1 11.2z"/><path opacity=".5" fill="#FF8232" d="M151.3 63.7l4.5 6-4.5 6.7zm0 15l5.8 9-3.6 5.3c-1.9-1.2-2.3-4-2.3-4l.1-10.3zm3.5-1l3.2-4 3.6 4.5-3.5 4z"/><circle fill="#fff" cx="172.8" cy="50.5" r="6.7"/><path fill="#333" d="M172.3 53.2c2.3 0 4.1-1.9 4.1-4.1 0-2.3-1.9-4.1-4.1-4.1-2.3 0-4.1 1.9-4.1 4.1 0 2.3 1.8 4.1 4.1 4.1z"/><circle fill="#fff" cx="171.4" cy="47.6" r="1.7"/><circle fill="#C3640F" cx="192.3" cy="62" r="2.8"/><path fill="#FF8232" d="M186 72.7l-5.7-4 2.6 6.2zm-39.9-33.6l7.9 11s-3.3 1.2-2.6 8.3c-5.6-2.5-11.1-9.4-5.3-19.3z"/><path fill="#fff" d="M-661.3-178.9c0 4.6-2.3 7.5-6.8 7.5h-3.4v-4.1h2.7c1.7 0 3-1 3-2.8 0-1.5-1.2-3.3-3.5-3.3h-2.2v-4h1.5c1.6 0 2.6-.7 2.6-2.3 0-1.5-1.3-2.1-2.7-2.1h-1.4v-4.1h2.8c3.4 0 6.2 2.6 6.2 6.1 0 2-.9 3.9-2.4 4.4 1.9.2 3.6 2.2 3.6 4.7zm26.7-11.3h-10.2v4.5h8.8c1.6 0 2.4.9 2.4 2s-.8 2-2.4 2h-8.8v6h10.5c1.6 0 2.3 1 2.3 2.1s-.8 2.1-2.3 2.1h-12.3c-1.4 0-2.5-1-2.5-2.4v-17.5c0-1.6.8-2.8 2.5-2.8h11.9c1.6 0 2.3.9 2.3 2 .1 1.2-.7 2-2.2 2zm28.5 2.2c-.9 0-3.2-2.1-5.9-2.1-4 0-6.5 3.6-6.5 7.6 0 3.8 2.6 7 6.6 7 2.7 0 4.9-2 5.9-2 1.5 0 2.1 1.5 2.1 2.2-.7 2.8-5.9 3.9-8.3 3.9-6.6 0-10.5-4.5-10.5-11.2 0-6.7 3.9-11.5 10.5-11.5 2.4 0 7.4 1.2 8 3.9.2 1.2-.7 2.2-1.9 2.2zm-65.3 16.6h-5.8c-1.2 0-2.3-1.2-2.4-2v-18.1c0-1.6 1.4-2.6 2.9-2.6h5.3v4.1h-4.1l.1 4.5h4v4h-3.9v6.1h4v4zm160.7 0v-4.1h.7c1.7 0 3.1-1.1 3.1-2.9 0-1.5-1.2-3.2-3.4-3.2h-.3v-4h.7c4.7 0 7.6 2.2 7.6 7.1 0 4.6-2.5 7.1-7 7.1h-1.4zm14.2 0c-1.4 0-2.1-.7-2.1-2.1v-18.6c0-1.6.7-2.1 2.1-2.1 1.4 0 2.2.5 2.2 2.1v18.6c-.1 1.6-.8 2.1-2.2 2.1zm32.5 0c-1.6 0-2-.6-2-2.1v-13.7l-11.3 13.7c-.6.7-1.5 2.1-2.9 2-1.5 0-2-1-2.1-2.1v-18.7c0-1.6.9-2 2.1-2.1 1.2 0 2.2.5 2.2 2.1v12.9l10.4-12.9c.9-1.2 1.7-2.1 3.4-2.1 1.4 0 2.3.8 2.3 2.1v18.6c0 1.6-.5 2.3-2.1 2.3zm-7.8-26.5c-2.7 0-5.4-1-5.4-3.4 0-.7.6-1 1.2-1 2.2 0 1.5 2.3 4.3 2.2 2.8 0 1.8-2.3 3.8-2.2.8 0 1.4.3 1.4 1 0 2.3-2.5 3.5-5.3 3.4zm-61.3 26.5c-1.4 0-2.2-.6-2.2-2v-16.7h-7.9v9.2c.1 3.8-.7 6-3.5 7.9-1.2.8-2.4 1.6-4 1.6s-2.2-.9-2.2-2 .8-1.4 2-2.1c1.2-.7 2.8-1.1 3.3-4.4V-192c0-1.6 1-2.1 2.3-2.1h11.5c1.4 0 2.6.5 2.6 2.1v18.6c.2 1.1-.5 2-1.9 2zm22.4-14.2v4h-3.8v6.1h3.8v4.1h-5.5c-1.3 0-2.6-.8-2.6-2v-18.7c0-1.6.8-2.1 2.2-2.1 1.4 0 2.1.5 2.1 2.1l.1 6.5h3.7z"/><path fill="#AA96D2" d="M-797.2-155.3h26l13.5 21.6v-21.6h20.9v22.2l12.5-22.2h28.1l-24.7 34.2 27.4 39.1h-28.1l-15.2-24v24h-20.9v-23.8l-15 23.8h-27l27.3-38.1z"/><path fill="#FF8232" d="M-686-155.3h22.3v35.6l24.1-35.6 20.4.1.1 73.3-22.3-.1v-36.9L-665.2-82H-686z"/><path fill="#64B9EB" d="M-467.8-82l-4.8-12.3h-11.8v-17.1h6.2l-6-18.9-.2.6v-25.6l12.6.1 27.4 73.4-23.4-.2zm-16.6-12.3h-11.7l-5.3 12.3h-23.8l28.5-73.3 12.2.1v25.6l-6.3 18.3h6.3v17z"/><path fill="#73C869" d="M-379.1-149.6c17 2.8 26.8 16.7 26.8 31.5 0 14.7-10.5 27.8-26.8 30.6V-108c3.8-2.3 6-5.7 6-10.5 0-4.9-2.1-9-6-11.5v-19.6zm-6.1 62.5v5.2h-24V-87c-2.1 0-4.1-.2-6.1-.5v-20.7c1.7 1 3.8 1.8 6.1 2.4v-26.5c-2.3.5-4.3 1.4-6.1 2.6v-19.9c2-.3 4-.5 6.1-.6v-5h24v5.1s.1 0 .1 0c2.1 0 4.1.2 5.9.5v19.6c-1.7-1.1-3.7-1.9-6-2.4v26.7c2.3-.5 4.3-1.3 6-2.3v20.5c-1.9.2-3.9.4-6 .4zm-30-.4c-16.5-2.7-28.5-15.3-28.5-30.7 0-15.4 12-28.6 28.5-31.5v19.9c-3.7 2.5-6.1 6.4-6.1 11.2 0 4.8 2.3 8.1 6.1 10.4v20.7zm-170.6-34.8c-5.7-.6-8.7-2.5-11.4-4.6-2.3 3.7-1.7 7.5-.3 9.7 0 0 .8 1.5 11.6.4l.1-5.5z"/><path fill="#64B9EB" d="M-586.2-114.4c-4.7.5-7 1-11.2-.4-1.2 3.9-.8 5.5 1.2 8.4 0 0 4.3 1.6 10.3-1.4l-.3-6.6z"/><path fill="#FF8232" d="M-586.1-105.4c-3.7 1.6-5.7 2.4-9.7 1.8-.7 2-1.3 5.1.7 7.7 2-.3 4.7.5 9.6-2.6l-.6-6.9z"/><path fill="#AA96D2" d="M-584.2-96.1c-2.6 1.6-7 2.2-10.4 2.1-1.3 3.6-.8 5 1.5 7.4 1.8-.3 4.3 0 9.5-3.8l-.6-5.7z"/><path fill="#FF8232" d="M-554.2-153.4l16.6-7.9s.5 9.1-1.1 15.6c-1.3 5.4-15.5-7.7-15.5-7.7z"/><path fill="#FFD72C" d="M-552.7-154.3l15.1-7.1-7.2 11.4z"/><path fill="#FFE641" d="M-588.2-128.9s-.1 39.7 0 44.4c.2 12.3 26.2 12.7 26.2-.2 0-7.4 0-19 0-19s10 7.3 22.8-3.2c6.4 2.1 11.5-1.3 14.8-5.4 4.7-3.4 6.5-8.3 5.8-14.3-.5-4.3-3.6-5.9-8-9.6-4.4-3.7-7-18.4-29.1-21.6-5.5-8.5-12.6-18.5-12.6-18.5l-1.9 19.9-10.5-16.3-1.8 23.2-13.4-5s-6.5 19.6 7.7 25.6z"/><path fill="#FF8232" d="M-588.7-186.7l8.8-3.3-1.1 15.6zm14.1-3.7l8.7-3.7-2.9 15.8z"/><path opacity=".5" fill="#FF8232" d="M-588.2-119.6l6.3 8.4-6.3 9.5zm0 21.1l8.2 12.7-5.1 7.5c-2.7-1.7-3.3-5.7-3.3-5.7l.2-14.5zm4.8-1.3l4.6-5.7 5.2 6.4-5.1 5.6z"/><path fill="#fff" d="M-557.9-147.7c5.2 0 9.4 4.2 9.4 9.4s-4.2 9.4-9.4 9.4-9.4-4.2-9.4-9.4 4.2-9.4 9.4-9.4z"/><path fill="#333" d="M-558.5-134.5c3.2 0 5.8-2.6 5.8-5.8 0-3.2-2.6-5.8-5.8-5.8-3.2 0-5.8 2.6-5.8 5.8-.1 3.2 2.6 5.8 5.8 5.8z"/><circle fill="#fff" cx="-559.8" cy="-142.4" r="2.4"/><circle fill="#C3640F" cx="-530.2" cy="-122.1" r="3.9"/><path fill="#FF8232" d="M-539.2-107l-7.9-5.6 3.6 8.8zm-56.4-47.4l11.2 15.6s-4.7 1.7-3.7 11.8c-7.9-3.7-15.7-13.5-7.5-27.4z"/></g></svg>