<?xml version="1.0" encoding="utf-8"?>
<!-- Generator: Adobe Illustrator 17.1.0, SVG Export Plug-In . SVG Version: 6.00 Build 0)  -->
<!DOCTYPE svg PUBLIC "-//W3C//DTD SVG 1.1//EN" "http://www.w3.org/Graphics/SVG/1.1/DTD/svg11.dtd">
<svg version="1.1" id="Слой_1" xmlns="http://www.w3.org/2000/svg" xmlns:xlink="http://www.w3.org/1999/xlink" x="0px" y="0px"
	 viewBox="182.5 146.2 230 65" enable-background="new 182.5 146.2 230 65" xml:space="preserve">
<g>
	<path fill="#735FA0" d="M267.5,160h-5c-0.1,0-0.3-0.1-0.3-0.3V157h4.4c0.8,0,1.2-0.5,1.2-1c0-0.6-0.4-1-1.2-1h-4.4l0-2
		c0-0.1,0.1-0.2,0.3-0.2h4.9c0.8,0,1.1-0.4,1.1-1c0-0.6-0.4-1-1.1-1h-6c-0.9,0-1.3,0.6-1.3,1.4l0,8.8c0,0.7,0.5,1.2,1.2,1.2h6.1
		c0.8,0,1.1-0.5,1.1-1C268.7,160.5,268.3,160,267.5,160z"/>
	<path fill="#735FA0" d="M252.3,156c0.8-0.3,1.2-1.2,1.2-2.2c0-1.7-1.4-3-3.1-3H249h-2.6c-0.7,0-1.5,0.5-1.5,1.3l0,9.1
		c0,0.4,0.6,1,1.2,1l2.9,0l1.7,0c2.2,0,3.4-1.4,3.4-3.7C254.1,157.1,253.2,156.1,252.3,156z M247,153c0-0.1,0.1-0.3,0.3-0.3h1.8h0.7
		c0.7,0,1.4,0.3,1.4,1.1c0,0.8-0.5,1.2-1.3,1.2H249h-2L247,153z M250.3,160.1H249h-1.7c-0.1,0-0.3-0.1-0.3-0.3l0-2.8h2h1.1
		c1.1,0,1.7,0.9,1.7,1.6C251.8,159.5,251.2,160.1,250.3,160.1z"/>
	<path fill="#735FA0" d="M281.7,159c-0.5,0-1.6,1-2.9,1c-2,0-3.3-1.6-3.3-3.5c0-2,1.2-3.8,3.2-3.8c1.4,0,2.5,1,2.9,1
		c0.6,0,1-0.5,1-1.1c-0.3-1.4-2.8-2-4-2c-3.3,0-5.2,2.4-5.2,5.8c0,3.3,2,5.6,5.3,5.6c1.2,0,3.8-0.5,4.1-1.9
		C282.8,159.8,282.5,159,281.7,159z"/>
</g>
<path fill="#735FA0" d="M317.9,150.7h-5.8c-0.7,0-1.2,0.3-1.2,1.1v6.1c-0.3,1.7-1.1,1.9-1.7,2.2c-0.6,0.4-1,0.5-1,1
	c0,0.5,0.3,1,1.1,1c0.8,0,1.4-0.4,2-0.8c1.4-1,1.8-2,1.8-3.9V153c0-0.1,0.1-0.3,0.3-0.3h3.4c0.1,0,0.2,0.1,0.3,0.2l0,8.1
	c0,0.7,0.4,1,1.1,1c0.7,0,1-0.4,1-1l0-9.3C319.2,151,318.6,150.7,317.9,150.7z"/>
<path fill="#735FA0" d="M348.8,148.9c1.4,0,2.6-0.6,2.6-1.7c0-0.3-0.3-0.5-0.7-0.5c-1,0-0.5,1.1-1.9,1.1c-1.4,0-1.1-1.1-2.2-1.1
	c-0.3,0-0.6,0.2-0.6,0.5C346.1,148.4,347.5,148.9,348.8,148.9z"/>
<path fill="#735FA0" d="M353.7,151.8c0-0.7-0.4-1-1.1-1c-0.9,0-1.2,0.4-1.7,1l-4.8,5.9c-0.1,0.2-0.4,0.1-0.4-0.2v-5.8
	c0-0.8-0.5-1-1.1-1c-0.6,0-1,0.2-1,1l0,9.3c0,0.6,0.3,1,1,1c0.7,0,1.2-0.7,1.4-1l5.2-6.3c0.1-0.2,0.4-0.1,0.4,0.2l0,6.1
	c0,0.7,0.2,1,1,1c0.8,0,1-0.4,1-1L353.7,151.8z"/>
<path fill="#735FA0" d="M336.4,150.7c-0.7,0-1,0.2-1,1l0,9.3c0,0.7,0.3,1,1,1c0.7,0,1.1-0.2,1.1-1l0-9.3
	C337.5,151,337.1,150.7,336.4,150.7z"/>
<path fill="#735FA0" d="M329.7,155l-0.4,0l-1.9,0l0-3.3c0-0.8-0.3-1-1-1c-0.7,0-1.1,0.2-1.1,1v9.3c0,0.6,0.6,1,1.3,1h2.7h0.7
	c2.2,0,3.5-1.2,3.5-3.5C333.5,156.1,332.1,155,329.7,155z M329.7,160.1h-0.4h-1.6c-0.1,0-0.2-0.1-0.3-0.2l0-2.8l1.9,0h0.2
	c1.1,0,1.7,0.9,1.7,1.6C331.3,159.5,330.6,160.1,329.7,160.1z"/>
<path fill="#AA96D2" d="M188.4,170.2l11.4,0c0.2,0,0.4,0.1,0.6,0.3l5.4,8.6c0.3,0.6,1.2,0.3,1.2-0.3v-7.9c0-0.4,0.3-0.6,0.6-0.6h9.1
	c0.4,0,0.6,0.3,0.6,0.6l0,8c0,0.7,0.9,0.9,1.2,0.3l4.9-8.6c0.1-0.2,0.3-0.3,0.6-0.3h12.4c0.5,0,0.8,0.6,0.5,1l-11.4,15.7
	c-0.2,0.2-0.2,0.5,0,0.8l12.8,18.2c0.3,0.4,0,1-0.5,1h-12.5c-0.2,0-0.4-0.1-0.5-0.3l-6.2-9.8c-0.3-0.5-1.2-0.3-1.2,0.3l0,9.2
	c0,0.4-0.3,0.6-0.6,0.6l-9.1,0c-0.4,0-0.6-0.3-0.6-0.6l0-9c0-0.7-0.9-0.9-1.2-0.3l-6.1,9.7c-0.1,0.2-0.3,0.3-0.5,0.3h-11.9
	c-0.5,0-0.8-0.6-0.5-1l12.6-17.7c0.2-0.2,0.2-0.5,0-0.8l-11.4-16.2C187.5,170.7,187.9,170.2,188.4,170.2z"/>
<path fill="#FF8232" d="M243.4,170.2l9.8,0c0.4,0,0.7,0.3,0.6,0.7l0,15.2c0,0.6,0.8,0.9,1.2,0.4l10.7-15.9c0.1-0.2,0.3-0.3,0.5-0.3
	l9.3,0c0.4,0,0.6,0.3,0.6,0.7v35.4c0,0.4-0.3,0.6-0.6,0.6h-9.9c-0.4,0-0.6-0.3-0.6-0.6l0-15.6c0-0.6-0.8-0.9-1.2-0.4l-10.5,16.3
	c-0.1,0.2-0.3,0.3-0.5,0.3h-9.4c-0.4,0-0.6-0.3-0.6-0.6l0-35.4C242.7,170.4,243,170.2,243.4,170.2z"/>
<path fill="#64B9EB" d="M348.8,170.2l-11.9,0c-0.3,0-0.5,0.2-0.6,0.4L322.4,206c-0.2,0.4,0.1,0.9,0.6,0.9l10.6,0
	c0.3,0,0.5-0.2,0.6-0.4l2.3-5.4c0.1-0.2,0.3-0.4,0.6-0.4l5.4,0l5.4,0c0.3,0,0.5,0.2,0.6,0.4l2,5.3c0.1,0.3,0.3,0.4,0.6,0.4h10.4
	c0.4,0,0.8-0.4,0.6-0.9l-12.8-35.4C349.3,170.3,349,170.2,348.8,170.2z M342.5,192.1l-2.2,0c-0.4,0-0.8-0.4-0.6-0.9l2.4-6.9
	c0.2-0.5,0.8-0.5,0.9,0l2.4,6.9c0.1,0.4-0.2,0.8-0.6,0.8L342.5,192.1z"/>
<path fill="#73C869" d="M395.1,173c-0.8-0.1-1.6-0.2-2.4-0.2c-0.4,0-0.7-0.3-0.6-0.6v-1.3c0-0.4-0.3-0.6-0.6-0.6h-10.7
	c-0.4,0-0.6,0.3-0.6,0.6v1.2c0,0.4-0.3,0.6-0.6,0.6c-0.8,0-1.6,0.1-2.4,0.3c-8.3,1.4-14.2,8.1-14.2,15.7c0,7.7,6,14,14.2,15.3
	c0.8,0.1,1.6,0.2,2.4,0.2c0.3,0,0.6,0.3,0.6,0.6v1.3c0,0.4,0.3,0.6,0.6,0.6h10.7c0.4,0,0.6-0.3,0.6-0.6v-1.3c0-0.4,0.3-0.6,0.6-0.6
	c0.8,0,1.6-0.1,2.4-0.2c8.1-1.4,13.4-7.9,13.4-15.3C408.5,181.3,403.6,174.4,395.1,173z M380.1,194c0,0.4-0.4,0.8-0.9,0.6
	c-0.8-0.3-1.5-0.6-2.2-1c-1.9-1.1-3-2.8-3-5.2c0-2.4,1.2-4.3,3-5.6c0.6-0.4,1.4-0.8,2.2-1.1c0.4-0.1,0.9,0.2,0.9,0.6V194z
	 M395.1,193.8c-0.6,0.4-1.4,0.7-2.2,0.9c-0.4,0.1-0.8-0.2-0.8-0.6v-11.7c0-0.4,0.4-0.7,0.8-0.6c0.8,0.2,1.5,0.6,2.2,1
	c1.9,1.3,3,3.3,3,5.7C398.1,190.9,397,192.6,395.1,193.8z"/>
<path fill="#73C869" d="M291.1,186.6c-1.9-0.3-3.2-0.9-4.2-1.7c-0.4-0.3-1-0.1-1.2,0.4c-0.5,1.4-0.3,2.8,0.2,3.7
	c0.1,0.2,0.3,0.3,0.5,0.4c0.5,0.2,1.8,0.3,4.7,0.1c0.4,0,0.7-0.4,0.7-0.8l0-1.3C291.8,187,291.5,186.6,291.1,186.6z"/>
<path fill="#64B9EB" d="M290.7,190.7c-1.5,0.2-2.5,0.3-3.9-0.1c-0.5-0.1-0.9,0.2-1,0.6c-0.3,1.3,0,2,0.7,3.1
	c0.1,0.2,0.3,0.3,0.5,0.4c0.7,0.1,2.2,0.3,4.2-0.6c0.3-0.1,0.5-0.5,0.5-0.8l-0.1-1.8C291.6,191,291.2,190.7,290.7,190.7z"/>
<path fill="#FF8232" d="M290.4,195.6c-0.9,0.4-1.7,0.5-2.8,0.5c-0.5,0-1,0.3-1.1,0.8c-0.1,0.7-0.1,1.5,0.3,2.3
	c0.2,0.3,0.5,0.5,0.9,0.5c0.9,0,2,0,3.6-0.9c0.4-0.2,0.6-0.6,0.5-1l-0.1-1.4C291.7,195.8,291,195.4,290.4,195.6z"/>
<path fill="#AA96D2" d="M291.4,200.3c-1,0.3-2.2,0.5-3.4,0.5c-0.4,0-0.8,0.3-0.9,0.8c-0.3,1.1-0.1,1.8,0.6,2.5
	c0.2,0.2,0.5,0.4,0.9,0.3c0.8-0.1,1.9-0.2,3.8-1.5c0.3-0.2,0.5-0.6,0.4-0.9l-0.1-0.9C292.7,200.5,292,200.1,291.4,200.3z"/>
<path fill="#FF8232" d="M307.6,171.1l8.3-4c0,0,0.2,4.6-0.6,7.8C314.7,177.7,307.6,171.1,307.6,171.1z"/>
<polygon fill="#FFD72C" points="308.4,170.7 315.9,167.1 312.3,172.8 "/>
<path fill="#FFE641" d="M290.3,183.2c0.2,0.1,0.3,0.3,0.3,0.5c0,2.6,0,19.7,0,21.9c0.1,6.1,13.1,6.4,13.1-0.1c0-2.8,0-6.9,0-8.7
	c0-0.4,0.4-0.6,0.7-0.5c1.6,0.8,5.6,2,10.5-1.8c0.1-0.1,0.3-0.1,0.5-0.1c3.1,0.9,5.5-0.8,7.2-2.8c2.4-1.7,3.2-4.1,2.9-7.1
	c-0.2-2.1-1.8-3-4-4.8c-2.2-1.8-3.5-9.1-14.3-10.8c-0.1,0-0.3-0.1-0.3-0.2c-1.9-3-4.2-6.3-5.4-8c-0.3-0.4-0.9-0.2-0.9,0.2l-0.7,7.2
	c0,0.5-0.7,0.6-0.9,0.2l-3.7-5.7c-0.3-0.4-0.9-0.2-0.9,0.2l-0.7,9.5c0,0.3-0.4,0.5-0.7,0.4l-5.6-2.1c-0.3-0.1-0.6,0.1-0.7,0.3
	C286.1,173.1,284.5,180.5,290.3,183.2z"/>
<path fill="#FF8232" d="M290.3,152l3.1-1.2c0.3-0.1,0.7,0.1,0.7,0.5l-0.4,5.5c0,0.5-0.7,0.6-0.9,0.2l-2.7-4.3
	C289.9,152.4,290,152.1,290.3,152z"/>
<path fill="#FF8232" d="M297.2,150.2l3-1.3c0.4-0.2,0.8,0.2,0.7,0.6l-1,5.5c-0.1,0.5-0.7,0.6-0.9,0.1l-2-4.2
	C296.8,150.6,297,150.3,297.2,150.2z"/>
<polygon opacity="0.5" fill="#FF8232" enable-background="new    " points="290.6,188 293.8,192.2 290.6,197 "/>
<path opacity="0.5" fill="#FF8232" enable-background="new    " d="M290.6,198.6l4.1,6.4l-2.6,3.7c-1.4-0.9-1.7-2.9-1.7-2.9
	L290.6,198.6z"/>
<polygon opacity="0.5" fill="#FF8232" enable-background="new    " points="293,197.9 295.3,195.1 297.9,198.2 295.4,201.1 "/>
<path fill="#FFFFFF" d="M305.8,173.9c2.6,0,4.7,2.1,4.7,4.7c0,2.6-2.1,4.7-4.7,4.7c-2.6,0-4.7-2.1-4.7-4.7
	C301.1,176.1,303.2,173.9,305.8,173.9z"/>
<path fill="#333333" d="M305.4,180.6c1.6,0,2.9-1.3,2.9-2.9c0-1.6-1.3-2.9-2.9-2.9c-1.6,0-2.9,1.3-2.9,2.9
	C302.5,179.3,303.8,180.6,305.4,180.6z"/>
<circle fill="#FFFFFF" cx="304.8" cy="176.6" r="1.2"/>
<circle fill="#C3640F" cx="319.6" cy="186.8" r="1.9"/>
<polygon fill="#FF8232" points="315.1,194.3 311.1,191.5 313,195.9 "/>
<path fill="#FF8232" d="M286.9,170.6l5.6,7.8c0,0-2.4,0.9-1.8,5.9C286.7,182.5,282.8,177.6,286.9,170.6z"/>
</svg>
