<svg xmlns="http://www.w3.org/2000/svg" width="230" height="64.8" viewBox="0 0 230 64.8"><g fill-rule="evenodd" clip-rule="evenodd"><path fill="#735FA0" d="M-923.2-293.2h595v286h-595zM72.3 12.6c0 2.3-1.2 3.7-3.4 3.7h-1.7v-2h1.3c.9 0 1.5-.5 1.5-1.4 0-.8-.6-1.6-1.7-1.6h-1.1v-2h.8c.8 0 1.3-.4 1.3-1.2 0-.8-.6-1.1-1.3-1.1h-.7V5h1.4c1.7 0 3.1 1.3 3.1 3 0 1-.4 1.9-1.2 2.2.9.1 1.7 1.1 1.7 2.4zM85.7 7h-5.1v2.3H85c.8 0 1.2.4 1.2 1 0 .5-.4 1-1.2 1h-4.4v3h5.3c.8 0 1.1.5 1.1 1.1 0 .6-.4 1-1.1 1h-6.1c-.7 0-1.2-.5-1.2-1.2V6.4c0-.8.4-1.4 1.3-1.4h6c.8 0 1.1.5 1.1 1-.2.5-.6 1-1.3 1zm14.2 1c-.4 0-1.6-1-2.9-1-2 0-3.2 1.8-3.2 3.8 0 1.9 1.3 3.5 3.3 3.5 1.4 0 2.5-1 2.9-1 .7 0 1.1.7 1.1 1.1-.4 1.4-2.9 1.9-4.1 1.9-3.3 0-5.3-2.2-5.3-5.6 0-3.4 1.9-5.8 5.2-5.8 1.2 0 3.7.6 4 2 0 .6-.4 1.1-1 1.1zm-32.6 8.3h-2.9c-.6 0-1.2-.6-1.2-1V6.2c0-.8.7-1.3 1.5-1.3h2.6v2h-2.1v2.2h2v2h-2v3.1h2v2.1zm80.3 0v-2h.4c.9 0 1.5-.5 1.5-1.4 0-.8-.6-1.6-1.7-1.6h-.2v-2h.4c2.3 0 3.8 1.1 3.8 3.5 0 2.3-1.3 3.5-3.5 3.5h-.7zm7.1 0c-.7 0-1-.4-1-1V6c0-.8.3-1 1-1s1.1.2 1.1 1v9.3c0 .8-.4 1-1.1 1zm16.2 0c-.8 0-1-.3-1-1V8.5l-5.6 6.8c-.3.3-.7 1-1.4 1s-1-.5-1-1V6c0-.8.4-1 1-1s1.1.2 1.1 1v6.5l5.2-6.5c.4-.6.8-1 1.7-1 .7 0 1.2.4 1.1 1v9.3c0 .7-.3 1-1.1 1zm-3.8-13.2c-1.4 0-2.7-.5-2.7-1.7 0-.3.3-.5.6-.5 1.1 0 .8 1.1 2.2 1.1 1.4 0 .9-1.1 1.9-1.1.4 0 .7.2.7.5-.1 1.2-1.4 1.7-2.7 1.7zm-30.7 13.2c-.7 0-1.1-.3-1.1-1V7h-3.9v4.6c0 1.9-.4 3-1.8 3.9-.6.4-1.2.8-2 .8s-1.1-.5-1.1-1c0-.6.4-.7 1-1 .6-.4 1.4-.5 1.7-2.2V6c0-.8.5-1.1 1.2-1.1h5.8c.7 0 1.3.2 1.3 1v9.3c-.1.7-.4 1.1-1.1 1.1zm11.2-7v2h-1.9v3.1h1.9v2h-2.7c-.6 0-1.3-.4-1.3-1V6c0-.8.4-1 1.1-1 .7 0 1 .2 1 1v3.3h1.9z"/><path fill="#AA96D2" d="M4.4 24.4h13l6.7 10.8V24.4h10.5v11.1l6.2-11.1h14.1L42.5 41.5l13.7 19.6h-14L34.6 49v12.1H24.1v-12l-7.5 12H3.2L16.8 42z"/><path fill="#FF8232" d="M60 24.4h11.1v17.8l12.1-17.8h10.2v36.7H82.3l-.1-18.5L70.4 61H60z"/><path fill="#64B9EB" d="M169 61.1l-2.4-6.2h-5.9v-8.5h3.1l-3-9.4-.1.3V24.4h6.3l13.7 36.7H169zm-8.2-6.2H155l-2.7 6.2h-11.9l14.3-36.7h6.1v12.8l-3.1 9.1h3.1v8.6z"/><path fill="#73C869" d="M213.3 27.2c8.5 1.4 13.4 8.3 13.4 15.7 0 7.3-5.3 13.9-13.4 15.3V48c1.9-1.1 3-2.9 3-5.3 0-2.5-1.1-4.5-3-5.7v-9.8zm-3 31.3v2.6h-12v-2.6c-1 0-2-.1-3-.3V47.9c.9.5 1.9.9 3 1.2V35.8c-1.1.3-2.2.7-3 1.3v-9.9c1-.2 2-.3 3-.3v-2.5h12V27c1 0 2 .1 3 .2V37c-.8-.6-1.9-1-3-1.2v13.3c1.1-.3 2.2-.7 3-1.2v10.2c-.9.3-1.9.4-3 .4zm-15-.2c-8.2-1.4-14.2-7.6-14.2-15.3 0-7.7 6-14.3 14.2-15.7v9.9c-1.9 1.3-3 3.2-3 5.6 0 2.4 1.2 4.1 3 5.2v10.3zM110 40.9c-2.9-.3-4.3-1.3-5.7-2.3-1.1 1.9-.8 3.7-.1 4.9 0 0 .4.7 5.8.2v-2.8z"/><path fill="#64B9EB" d="M109.9 44.8c-2.4.3-3.5.5-5.6-.2-.6 1.9-.4 2.7.6 4.2 0 0 2.2.8 5.1-.7l-.1-3.3z"/><path fill="#FF8232" d="M109.9 49.3c-1.9.8-2.9 1.2-4.8.9-.4 1-.7 2.5.3 3.8 1-.1 2.4.2 4.8-1.3l-.3-3.4z"/><path fill="#AA96D2" d="M110.8 54c-1.3.8-3.5 1.1-5.2 1.1-.6 1.8-.4 2.5.8 3.7.9-.2 2.2 0 4.8-1.9l-.4-2.9z"/><path fill="#FF8232" d="M125.9 25.4l8.3-4s.2 4.5-.6 7.8c-.7 2.7-7.7-3.8-7.7-3.8z"/><path fill="#FFD72C" d="M126.6 24.9l7.5-3.5-3.6 5.6z"/><path fill="#FFE641" d="M108.8 37.6s0 19.8 0 22.2c.1 6.1 13.1 6.4 13.1-.1 0-3.7 0-9.5 0-9.5s5 3.6 11.4-1.6c3.2 1 5.7-.7 7.4-2.7 2.4-1.7 3.2-4.1 2.9-7.1-.2-2.1-1.8-3-4-4.8-2.2-1.9-3.5-9.2-14.6-10.8-2.8-4.2-6.3-9.3-6.3-9.3l-1 10-5.2-8.1-.9 11.6-6.7-2.5c.1-.1-3.1 9.7 3.9 12.7z"/><path fill="#C3640F" d="M108.6 8.7L113 7l-.6 7.8zm7-1.8L120 5l-1.5 7.9z"/><path opacity=".5" fill="#FF8232" d="M108.9 42.2l3.1 4.2-3.2 4.8zm0 10.6l4.1 6.4-2.6 3.7c-1.4-.9-1.7-2.9-1.7-2.9l.2-7.2zm2.4-.7l2.2-2.8 2.6 3.2-2.5 2.8z"/><circle fill="#fff" cx="124" cy="32.9" r="4.7"/><path fill="#333" d="M123.7 34.8c1.6 0 2.9-1.3 2.9-2.9 0-1.6-1.3-2.9-2.9-2.9-1.6 0-2.9 1.3-2.9 2.9 0 1.6 1.3 2.9 2.9 2.9z"/><circle fill="#fff" cx="123.1" cy="30.8" r="1.2"/><circle fill="#C3640F" cx="137.9" cy="41" r="1.9"/><path fill="#FF8232" d="M133.4 48.6l-4-2.9 1.8 4.4zm-28.3-23.8l5.6 7.8s-2.4.9-1.8 5.9c-3.9-1.8-7.8-6.7-3.8-13.7z"/><path fill="#fff" d="M-706.3-196.5c0 4.6-2.3 7.5-6.8 7.5h-3.4v-4.1h2.7c1.7 0 3-1 3-2.8 0-1.5-1.2-3.3-3.5-3.3h-2.2v-4h1.5c1.6 0 2.6-.7 2.6-2.3 0-1.5-1.3-2.1-2.7-2.1h-1.4v-4.1h2.8c3.4 0 6.2 2.6 6.2 6.1 0 2-.9 3.9-2.4 4.4 1.9.2 3.6 2.2 3.6 4.7zm26.7-11.3h-10.2v4.5h8.8c1.6 0 2.4.9 2.4 2s-.8 2-2.4 2h-8.8v6h10.5c1.6 0 2.3 1 2.3 2.1s-.8 2.1-2.3 2.1h-12.3c-1.4 0-2.5-1-2.5-2.4V-209c0-1.6.8-2.8 2.5-2.8h11.9c1.6 0 2.3.9 2.3 2 .1 1.2-.7 2-2.2 2zm28.6 2.2c-.9 0-3.2-2.1-5.9-2.1-4 0-6.5 3.6-6.5 7.6 0 3.8 2.6 7 6.6 7 2.7 0 4.9-2 5.9-2 1.5 0 2.1 1.5 2.1 2.2-.7 2.8-5.9 3.9-8.3 3.9-6.6 0-10.5-4.5-10.5-11.2 0-6.7 3.9-11.5 10.5-11.5 2.4 0 7.4 1.2 8 3.9.1 1.2-.8 2.2-1.9 2.2zm-65.4 16.6h-5.8c-1.2 0-2.3-1.2-2.4-2v-18.1c0-1.6 1.4-2.6 2.9-2.6h5.3v4.1h-4.1l.1 4.5h4v4h-3.9v6.1h4v4zm160.7 0v-4.1h.7c1.7 0 3.1-1.1 3.1-2.9 0-1.5-1.2-3.2-3.4-3.2h-.3v-4h.7c4.7 0 7.6 2.2 7.6 7.1 0 4.6-2.5 7.1-7 7.1h-1.4zm14.2 0c-1.4 0-2.1-.7-2.1-2.1v-18.6c0-1.6.7-2.1 2.1-2.1 1.4 0 2.2.5 2.2 2.1v18.6c0 1.6-.8 2.1-2.2 2.1zm32.5 0c-1.6 0-2-.6-2-2.1v-13.7l-11.3 13.7c-.6.7-1.5 2.1-2.9 2-1.5 0-2-1-2.1-2.1v-18.7c0-1.6.9-2 2.1-2.1 1.2 0 2.2.5 2.2 2.1v12.9l10.4-12.9c.9-1.2 1.7-2.1 3.4-2.1 1.4 0 2.3.8 2.3 2.1v18.6c0 1.6-.5 2.3-2.1 2.3zm-7.8-26.5c-2.7 0-5.4-1-5.4-3.4 0-.7.6-1 1.2-1 2.2 0 1.5 2.3 4.3 2.2 2.8 0 1.8-2.3 3.8-2.2.8 0 1.4.3 1.4 1 0 2.3-2.5 3.5-5.3 3.4zM-578-189c-1.4 0-2.2-.6-2.2-2v-16.7h-7.9v9.2c.1 3.8-.7 6-3.5 7.9-1.2.8-2.4 1.6-4 1.6s-2.2-.9-2.2-2 .8-1.4 2-2.1c1.2-.7 2.8-1.1 3.3-4.4v-12.1c0-1.6 1-2.1 2.3-2.1h11.5c1.4 0 2.6.5 2.6 2.1v18.6c.1 1.1-.6 2-1.9 2zm22.3-14.2v4h-3.8v6.1h3.8v4.1h-5.5c-1.3 0-2.6-.8-2.6-2v-18.7c0-1.6.8-2.1 2.2-2.1 1.4 0 2.1.5 2.1 2.1l.1 6.5h3.7z"/><path fill="#AA96D2" d="M-842.1-172.9h25.9l13.5 21.6v-21.6h20.9v22.2l12.5-22.2h28.1l-24.7 34.2 27.5 39.1h-28.2l-15.2-24v24h-20.9v-23.8l-15 23.8h-26.9l27.2-38.1z"/><path fill="#FF8232" d="M-731-172.9h22.4l-.1 35.6 24.1-35.6 20.4.1.1 73.3-22.3-.1v-36.9l-23.8 36.9h-20.7z"/><path fill="#64B9EB" d="M-512.8-99.6l-4.8-12.3h-11.8V-129h6.2l-6-18.9-.2.6v-25.6l12.6.1 27.4 73.4-23.4-.2zm-16.5-12.3H-541l-5.3 12.3h-23.8l28.5-73.3 12.2.1v25.6l-6.3 18.3h6.3v17z"/><path fill="#73C869" d="M-424.1-167.2c17 2.8 26.8 16.7 26.8 31.5 0 14.7-10.5 27.8-26.8 30.6v-20.5c3.8-2.3 6-5.7 6-10.5 0-4.9-2.1-9-6-11.5v-19.6zm-6.1 62.5v5.2h-24v-5.1c-2.1 0-4.1-.2-6.1-.5v-20.7c1.7 1 3.8 1.8 6.1 2.4V-150c-2.3.5-4.3 1.4-6.1 2.6v-19.9c2-.3 4-.5 6.1-.6v-5h24v5.1s.1 0 .1 0c2.1 0 4.1.2 5.9.5v19.6c-1.7-1.1-3.7-1.9-6-2.4v26.7c2.3-.5 4.3-1.3 6-2.3v20.5c-1.9.3-3.9.5-6 .5zm-30-.4c-16.5-2.7-28.5-15.3-28.5-30.7 0-15.4 12-28.6 28.5-31.5v19.9c-3.7 2.5-6.1 6.4-6.1 11.2 0 4.8 2.3 8.1 6.1 10.4v20.7zm-170.6-34.8c-5.7-.6-8.7-2.5-11.4-4.6-2.3 3.7-1.7 7.5-.3 9.7 0 0 .8 1.5 11.6.4l.1-5.5z"/><path fill="#64B9EB" d="M-631.2-132c-4.7.5-7 1-11.2-.4-1.2 3.9-.8 5.5 1.2 8.4 0 0 4.3 1.6 10.3-1.4l-.3-6.6z"/><path fill="#FF8232" d="M-631.1-123c-3.7 1.6-5.7 2.4-9.7 1.8-.7 2-1.3 5.1.7 7.7 2-.3 4.7.5 9.6-2.6l-.6-6.9z"/><path fill="#AA96D2" d="M-629.2-113.7c-2.6 1.6-7 2.2-10.4 2.1-1.3 3.6-.8 5 1.5 7.4 1.8-.3 4.3 0 9.5-3.8l-.6-5.7z"/><path fill="#FF8232" d="M-599.2-171l16.6-7.9s.5 9.1-1.1 15.6c-1.3 5.4-15.5-7.7-15.5-7.7z"/><path fill="#FFD72C" d="M-597.7-171.9l15.1-7.1-7.2 11.4z"/><path fill="#FFE641" d="M-633.2-146.5s-.1 39.7 0 44.4c.2 12.3 26.2 12.7 26.2-.2 0-7.4 0-19 0-19s10 7.3 22.8-3.2c6.4 2.1 11.5-1.3 14.8-5.4 4.7-3.4 6.5-8.3 5.8-14.3-.5-4.3-3.6-5.9-8-9.6-4.4-3.7-7-18.4-29.1-21.6-5.5-8.5-12.6-18.5-12.6-18.5l-1.9 19.9-10.5-16.3-1.8 23.2-13.4-5s-6.5 19.6 7.7 25.6z"/><path fill="#FF8232" d="M-633.7-204.3l8.8-3.3-1.1 15.6zm14.1-3.7l8.8-3.7-3 15.8z"/><path opacity=".5" fill="#FF8232" d="M-633.2-137.2l6.3 8.4-6.3 9.5zm0 21.1l8.2 12.7-5.1 7.5c-2.7-1.7-3.3-5.7-3.3-5.7l.2-14.5zm4.9-1.3l4.5-5.7 5.2 6.4-5.1 5.6z"/><path fill="#fff" d="M-602.9-165.3c5.2 0 9.4 4.2 9.4 9.4s-4.2 9.4-9.4 9.4-9.4-4.2-9.4-9.4 4.2-9.4 9.4-9.4z"/><path fill="#333" d="M-603.5-152.1c3.2 0 5.8-2.6 5.8-5.8 0-3.2-2.6-5.8-5.8-5.8-3.2 0-5.8 2.6-5.8 5.8-.1 3.2 2.6 5.8 5.8 5.8z"/><circle fill="#fff" cx="-604.7" cy="-160" r="2.4"/><circle fill="#C3640F" cx="-575.2" cy="-139.7" r="3.9"/><path fill="#FF8232" d="M-584.2-124.6l-7.9-5.6 3.6 8.8zm-56.4-47.4l11.2 15.6s-4.7 1.7-3.7 11.8c-7.9-3.7-15.7-13.5-7.5-27.4z"/></g></svg>