<svg xmlns="http://www.w3.org/2000/svg" width="54.2" height="80" viewBox="0 0 54.2 80"><g fill-rule="evenodd" clip-rule="evenodd"><path fill="#73C869" d="M9 48.2c-3.8-.4-5.8-1.7-7.6-3.1-1.5 2.5-1.1 5-.2 6.5 0 0 .5 1 7.8.3v-3.7z"/><path fill="#64B9EB" d="M8.7 53.5c-3.2.3-4.7.6-7.5-.3-.8 2.6-.5 3.7.8 5.7 0 0 2.9 1.1 6.9-1l-.2-4.4z"/><path fill="#FF8232" d="M8.8 59.5c-2.5 1.1-3.9 1.6-6.5 1.2-.5 1.3-.9 3.4.5 5.2 1.4-.2 3.2.3 6.4-1.8l-.4-4.6z"/><path fill="#AA96D2" d="M10.1 65.8c-1.8 1.1-4.7 1.4-7 1.4-.9 2.4-.6 3.4 1 4.9 1.2-.2 2.9 0 6.4-2.6l-.4-3.7z"/><path fill="#FF8232" d="M30.2 27.4l11.1-5.3s.3 6.1-.8 10.5c-.8 3.6-10.3-5.2-10.3-5.2z"/><path fill="#FFD72C" d="M31.2 26.8l10.1-4.7-4.8 7.6z"/><path fill="#FFE641" d="M7.4 43.8s0 26.6 0 29.7C7.5 81.7 25 82 25 73.4c0-5 0-12.8 0-12.8s6.7 4.9 15.3-2.1c4.3 1.4 7.7-.9 9.9-3.6 3.2-2.3 4.3-5.6 3.9-9.6-.3-2.9-2.4-4-5.4-6.5-2.9-2.5-4.7-12.3-19.5-14.5-3.7-5.5-8.5-12.3-8.5-12.3l-1.3 13.3-7-10.9L11.2 30l-9-3.4c.1.1-4.3 13.2 5.2 17.2z"/><path fill="#C3640F" d="M7.1 5.1l5.8-2.2-.7 10.4zm9.4-2.5L22.4.2l-2 10.5z"/><path opacity=".5" fill="#FF8232" d="M7.4 50l4.2 5.6L7.4 62zm0 14.2l5.5 8.5-3.4 5c-1.8-1.2-2.2-3.8-2.2-3.8l.1-9.7zm3.3-.9l3-3.8 3.5 4.3-3.4 3.8z"/><circle fill="#fff" cx="27.7" cy="37.5" r="6.3"/><path fill="#333" d="M27.3 40.1c2.2 0 3.9-1.8 3.9-3.9 0-2.2-1.8-3.9-3.9-3.9-2.2 0-3.9 1.8-3.9 3.9 0 2.1 1.7 3.9 3.9 3.9z"/><circle fill="#fff" cx="26.5" cy="34.7" r="1.6"/><circle fill="#C3640F" cx="46.3" cy="48.4" r="2.6"/><path fill="#FF8232" d="M40.2 58.5l-5.3-3.8 2.5 5.9zM2.4 26.7l7.5 10.5s-3.2 1.1-2.5 7.9C2.2 42.6-3 36 2.4 26.7z"/></g></svg>