<?xml version="1.0" encoding="utf-8"?>
<!-- Generator: Adobe Illustrator 17.1.0, SVG Export Plug-In . SVG Version: 6.00 Build 0)  -->
<!DOCTYPE svg PUBLIC "-//W3C//DTD SVG 1.1//EN" "http://www.w3.org/Graphics/SVG/1.1/DTD/svg11.dtd">
<svg version="1.1" id="Слой_1" xmlns="http://www.w3.org/2000/svg" xmlns:xlink="http://www.w3.org/1999/xlink" x="0px" y="0px"
	 width="320px" height="100px" viewBox="-10 0 320 100" style="enable-background:new -10 0 320 100;" xml:space="preserve">
<g>
	<path style="fill:#735FA0;" d="M107.2,24.2H100c-0.2,0-0.3-0.1-0.3-0.3v-3.9h6.2c1.1,0,1.7-0.6,1.7-1.5c0-0.9-0.5-1.4-1.7-1.4h-6.2
		v-2.9c0-0.2,0.1-0.3,0.3-0.3h7c1.1,0,1.6-0.6,1.6-1.4c0-0.9-0.5-1.5-1.6-1.5h-8.5c-1.2,0-1.8,0.9-1.8,2v12.5c0,1.1,0.7,1.7,1.8,1.7
		h8.8c1.1,0,1.6-0.6,1.6-1.5C108.8,25,108.2,24.2,107.2,24.2z"/>
	<path style="fill:#735FA0;" d="M85.4,18.3c1.1-0.4,1.7-1.7,1.7-3.1c0-2.5-2-4.3-4.4-4.3h-1.9H77c-1.1,0-2,0.7-2,1.8v12.9
		c0,0.5,0.9,1.4,1.7,1.4h4.2h2.4c3.2,0,4.8-2,4.8-5.4C87.9,20.1,86.7,18.6,85.4,18.3z M77.9,14.2c0-0.2,0.1-0.3,0.3-0.3h2.6h1
		c1,0,1.9,0.4,1.9,1.5c0,1.2-0.7,1.7-1.8,1.7h-1.1h-2.9C77.9,17.1,77.9,14.2,77.9,14.2z M82.7,24.3h-1.9h-2.5
		c-0.2,0-0.3-0.1-0.3-0.3v-4h2.8h1.6c1.6,0,2.5,1.3,2.5,2.4C84.8,23.6,84,24.3,82.7,24.3z"/>
	<path style="fill:#735FA0;" d="M127.4,22.8c-0.6,0-2.2,1.4-4.2,1.4c-2.8,0-4.7-2.2-4.7-4.9c0-2.8,1.7-5.4,4.6-5.4
		c1.9,0,3.5,1.5,4.2,1.5c0.9,0,1.4-0.7,1.4-1.5c-0.4-1.9-4.1-2.8-5.8-2.8c-4.7,0-7.5,3.4-7.5,8.2s2.8,7.9,7.5,7.9
		c1.7,0,5.3-0.7,5.9-2.8C128.9,23.9,128.5,22.8,127.4,22.8z"/>
</g>
<path style="fill:#735FA0;" d="M179.1,11h-8.2c-1,0-1.7,0.3-1.7,1.5v8.7c-0.3,2.4-1.5,2.7-2.4,3.1c-0.9,0.5-1.5,0.6-1.5,1.5
	c0,0.7,0.4,1.4,1.5,1.4s1.9-0.5,2.8-1.2c2-1.4,2.6-2.9,2.5-5.6v-6.2c0-0.2,0.1-0.3,0.3-0.3h4.9c0.2,0,0.3,0.1,0.3,0.3v11.6
	c0,1,0.5,1.5,1.5,1.5c1,0,1.4-0.6,1.4-1.5V12.5C180.9,11.3,180,11,179.1,11z"/>
<path style="fill:#735FA0;" d="M223.2,8.3c1.9,0,3.7-0.7,3.7-2.5c0-0.4-0.4-0.6-1-0.6c-1.4,0-0.6,1.6-2.7,1.6s-1.5-1.6-3.1-1.6
	c-0.4,0-0.9,0.2-0.9,0.6C219.2,7.5,221.2,8.3,223.2,8.3z"/>
<path style="fill:#735FA0;" d="M230.1,12.5c0-1-0.6-1.5-1.6-1.5c-1.2,0-1.7,0.6-2.4,1.5l-6.7,8.5c-0.2,0.2-0.6,0.1-0.6-0.2v-8.2
	c0-1.1-0.7-1.5-1.6-1.5s-1.5,0.3-1.5,1.5v13.3c0,0.7,0.4,1.5,1.5,1.5c1,0,1.6-1,2-1.5l7.4-9c0.2-0.2,0.6-0.1,0.6,0.2v8.8
	c0,1.1,0.3,1.5,1.4,1.5c1.1,0,1.5-0.5,1.5-1.5L230.1,12.5z"/>
<path style="fill:#735FA0;" d="M205.5,11c-1,0-1.5,0.3-1.5,1.5v13.3c0,1,0.4,1.5,1.5,1.5c1,0,1.5-0.3,1.5-1.5V12.5
	C207,11.3,206.5,11,205.5,11z"/>
<path style="fill:#735FA0;" d="M195.9,17.1h-0.5h-2.7v-4.6c0-1.2-0.5-1.5-1.5-1.5c-1,0-1.5,0.3-1.5,1.5v13.3c0,0.9,0.9,1.4,1.8,1.4
	h3.9h1c3.2,0,5-1.8,5-5C201.3,18.7,199.3,17.1,195.9,17.1z M195.9,24.3h-0.5H193c-0.2,0-0.3-0.1-0.3-0.3v-4h2.7h0.2
	c1.6,0,2.5,1.2,2.5,2.4C198,23.6,197.1,24.3,195.9,24.3z"/>
<path style="fill:#AA96D2;" d="M-5.7,38.7h16.2c0.3,0,0.6,0.2,0.7,0.4l7.7,12.2c0.5,0.7,1.7,0.4,1.7-0.5V39.5c0-0.5,0.4-1,1-1h12.9
	c0.5,0,1,0.4,1,1V51c0,1,1.3,1.3,1.7,0.4l7-12.3c0.2-0.3,0.4-0.4,0.9-0.4h17.8c0.7,0,1.2,0.9,0.7,1.5L47.4,62.6
	c-0.2,0.3-0.2,0.7,0,1.1l18.2,26c0.4,0.6,0,1.5-0.7,1.5H47c-0.3,0-0.6-0.2-0.7-0.4l-8.9-14c-0.5-0.7-1.7-0.4-1.7,0.5v13.1
	c0,0.5-0.4,1-1,1H21.8c-0.5,0-1-0.4-1-1V77.5c0-1-1.2-1.3-1.7-0.5l-8.8,13.7c-0.2,0.3-0.4,0.4-0.7,0.4H-7.3c-0.7,0-1.2-0.9-0.7-1.5
	l18-25.3c0.2-0.3,0.2-0.7,0-1.1L-6.3,40.1C-6.9,39.5-6.5,38.7-5.7,38.7z"/>
<path style="fill:#FF8232;" d="M72.7,38.7h14c0.5,0,1,0.4,1,1v21.7c0,1,1.2,1.3,1.7,0.5l15.2-22.7c0.2-0.2,0.4-0.4,0.7-0.4h13.2
	c0.5,0,1,0.4,1,1v50.5c0,0.5-0.4,1-1,1h-14c-0.5,0-1-0.4-1-1V68c0-1-1.2-1.3-1.7-0.5l-15,23.3c-0.2,0.2-0.4,0.4-0.7,0.4H72.8
	c-0.5,0-1-0.4-1-1V39.6C71.7,39.1,72.2,38.7,72.7,38.7z"/>
<path style="fill:#64B9EB;" d="M223.1,38.7h-16.9c-0.4,0-0.7,0.2-0.9,0.5l-19.7,50.5c-0.2,0.6,0.2,1.3,0.9,1.3h15.1
	c0.3,0,0.7-0.2,0.9-0.5l3.3-7.6c0.1-0.3,0.4-0.5,0.9-0.5h7.7h7.7c0.4,0,0.7,0.2,0.9,0.6l2.8,7.6c0.1,0.3,0.4,0.6,0.9,0.6h14.8
	c0.6,0,1.1-0.6,0.9-1.3l-18.2-50.5C223.8,38.9,223.4,38.7,223.1,38.7z M214.2,70h-3.1c-0.6,0-1.1-0.6-0.9-1.2l3.3-9.8
	c0.2-0.6,1.2-0.6,1.4,0l3.4,9.8c0.2,0.6-0.2,1.2-0.9,1.2H214.2z"/>
<path style="fill:#73C869;" d="M289.2,42.7c-1.1-0.2-2.2-0.3-3.4-0.3c-0.6,0-1-0.4-0.9-1v-1.8c0-0.5-0.4-1-1-1h-15.2
	c-0.5,0-1,0.4-1,1v1.7c0,0.5-0.4,0.9-0.9,1c-1.2,0.1-2.4,0.2-3.4,0.3c-11.8,2-20.2,11.4-20.2,22.5S251.8,85,263.5,87
	c1.1,0.2,2.2,0.3,3.4,0.3c0.5,0,0.9,0.4,0.9,1v1.8c0,0.5,0.4,1,1,1h15.2c0.5,0,1-0.4,1-1v-1.8c0-0.5,0.4-0.9,0.9-1
	c1.2,0,2.2-0.2,3.4-0.3c11.6-1.9,19-11.3,19-21.8C308.2,54.6,301.3,44.7,289.2,42.7z M267.8,72.8c0,0.6-0.6,1.1-1.2,0.9
	c-1.2-0.3-2.1-0.9-3.1-1.4c-2.7-1.6-4.3-4-4.3-7.4s1.6-6.2,4.3-7.9c1-0.6,1.9-1.1,3.1-1.5c0.6-0.2,1.2,0.2,1.2,0.9V72.8z
	 M289.2,72.4c-0.9,0.5-1.9,1-3.1,1.3c-0.6,0.2-1.2-0.3-1.2-0.9V56.1c0-0.6,0.6-1.1,1.2-0.9c1.2,0.3,2.1,0.9,3.1,1.4
	c2.8,1.8,4.3,4.7,4.3,8.1C293.6,68.3,292,70.8,289.2,72.4z"/>
<path style="fill:#73C869;" d="M140.8,62c-2.8-0.4-4.5-1.3-6-2.4c-0.6-0.4-1.5-0.2-1.7,0.5c-0.7,2-0.4,4,0.3,5.3
	c0.1,0.2,0.4,0.4,0.6,0.5c0.7,0.2,2.5,0.4,6.7,0.1c0.6,0,1.1-0.5,1.1-1.2v-1.8C141.7,62.6,141.3,62.1,140.8,62z"/>
<path style="fill:#64B9EB;" d="M140.2,68.1c-2.1,0.2-3.6,0.3-5.6-0.1c-0.6-0.2-1.3,0.2-1.4,1c-0.3,1.8,0,2.8,1,4.4
	c0.2,0.2,0.4,0.4,0.7,0.5c1,0.2,3.2,0.4,6-0.7c0.4-0.2,0.7-0.6,0.7-1.2l-0.1-2.6C141.5,68.5,140.9,68,140.2,68.1z"/>
<path style="fill:#FF8232;" d="M139.7,75c-1.3,0.5-2.5,0.7-4,0.6c-0.7,0-1.4,0.5-1.5,1.2c-0.2,1.1-0.2,2.2,0.3,3.3
	c0.2,0.5,0.7,0.7,1.3,0.7c1.2,0,2.8,0,5.1-1.4c0.5-0.3,0.7-0.9,0.7-1.4l-0.2-1.9C141.6,75.3,140.7,74.7,139.7,75z"/>
<path style="fill:#AA96D2;" d="M141.2,81.7c-1.5,0.4-3.2,0.7-4.8,0.7c-0.6,0-1.2,0.4-1.3,1.1c-0.4,1.6-0.1,2.5,0.9,3.6
	c0.3,0.3,0.7,0.5,1.2,0.4c1.2-0.1,2.7-0.3,5.3-2.1c0.4-0.3,0.6-0.9,0.6-1.3l-0.1-1.3C143,82,142.1,81.4,141.2,81.7z"/>
<path style="fill:#FF8232;" d="M164.3,40.1l11.8-5.7c0,0,0.3,6.5-0.7,11.1C174.5,49.4,164.3,40.1,164.3,40.1z"/>
<polygon style="fill:#FFD72C;" points="165.4,39.4 176.2,34.4 171.1,42.4 "/>
<path style="fill:#FFE641;" d="M139.6,57.3c0.2,0.1,0.4,0.3,0.4,0.6c0,3.6,0,28.1,0,31.2c0.1,8.8,18.6,9.1,18.7-0.1
	c0-4.1,0-9.8,0-12.3c0-0.5,0.5-0.9,1-0.6c2.2,1.1,8,2.9,14.9-2.6c0.2-0.1,0.4-0.2,0.6-0.1c4.4,1.3,7.9-1.2,10.2-4
	c3.3-2.5,4.6-5.9,4.1-10.2c-0.3-3.1-2.6-4.2-5.7-6.8c-3.1-2.6-4.9-12.9-20.4-15.3c-0.2,0-0.4-0.1-0.5-0.3c-2.7-4.4-5.9-9.1-7.7-11.4
	c-0.4-0.5-1.2-0.3-1.3,0.3l-1,10.2c-0.1,0.6-1,0.9-1.3,0.3l-5.2-8c-0.3-0.5-1.3-0.3-1.3,0.3L144,42c0,0.4-0.5,0.7-1,0.6l-7.9-3
	c-0.4-0.1-0.9,0.1-1,0.4C133.6,42.9,131.5,53.4,139.6,57.3z"/>
<path style="fill:#FF8232;" d="M139.6,12.7l4.4-1.6c0.5-0.2,1,0.2,1,0.7l-0.5,7.8c0,0.6-1,1-1.3,0.3l-3.9-6.2
	C139,13.3,139.2,12.9,139.6,12.7z"/>
<path style="fill:#FF8232;" d="M149.4,10.1l4.3-1.8c0.5-0.2,1.1,0.2,1,0.7l-1.5,7.8c-0.1,0.6-1.1,0.7-1.4,0.2l-2.9-6
	C148.9,10.7,149.1,10.3,149.4,10.1z"/>
<polygon style="opacity:0.5;fill:#FF8232;enable-background:new    ;" points="140,64 144.5,70.1 140,77 "/>
<path style="opacity:0.5;fill:#FF8232;enable-background:new    ;" d="M140,79.2l5.9,9.1l-3.6,5.3c-1.9-1.2-2.4-4.1-2.4-4.1
	L140,79.2z"/>
<polygon style="opacity:0.5;fill:#FF8232;enable-background:new    ;" points="143.5,78.3 146.8,74.2 150.4,78.8 146.9,82.9 "/>
<path style="fill:#FFFFFF;" d="M161.7,44.1c3.7,0,6.7,3,6.7,6.7s-3,6.7-6.7,6.7c-3.7,0-6.7-3-6.7-6.7S158,44.1,161.7,44.1z"/>
<path style="fill:#333333;" d="M161.3,53.5c2.2,0,4.2-1.8,4.2-4.2c0-2.2-1.8-4.2-4.2-4.2c-2.2,0-4.2,1.8-4.2,4.2
	C157.1,51.6,159,53.5,161.3,53.5z"/>
<circle style="fill:#FFFFFF;" cx="160.4" cy="47.9" r="1.7"/>
<circle style="fill:#C3640F;" cx="181.4" cy="62.3" r="2.8"/>
<polygon style="fill:#FF8232;" points="175,73.2 169.3,69.2 172,75.5 "/>
<path style="fill:#FF8232;" d="M134.8,39.3l7.9,11.1c0,0-3.3,1.2-2.7,8.3C134.6,56.2,129,49.3,134.8,39.3z"/>
</svg>
