<?xml version="1.0" encoding="utf-8"?><svg baseProfile="full" xmlns="http://www.w3.org/2000/svg" height="24" width="25"><path fill="rgb( 228, 214, 91 )" d="M12.654 23.883c-6.114 0-11.72-5.605-11.72-11.72C.934 6.05 6.54.447 12.654.447c6.115 0 11.72 5.604 11.72 11.718s-5.605 11.72-11.72 11.72zM8.564 6.38c-1.018 0-1.844 1.1-1.844 2.46 0 1.358.826 2.46 1.845 2.46 1.02 0 1.845-1.102 1.845-2.46 0-1.36-.826-2.46-1.845-2.46zm8.61 0c-1.018 0-1.844 1.1-1.844 2.46 0 1.358.826 2.46 1.845 2.46 1.02 0 1.845-1.102 1.845-2.46 0-1.36-.826-2.46-1.845-2.46zm1.68 8.098c-1.053 0-1.6 3.283-6.447 3.302-3.836.015-4.585-3.302-5.64-3.302-.527 0-.527.17-.527.854 0 .683 2.767 3.757 6.167 3.678 4.82-.112 6.975-2.995 6.975-3.678 0-.684 0-.854-.527-.854z"/></svg>