<?xml version="1.0" encoding="utf-8"?><svg xmlns="http://www.w3.org/2000/svg" width="80" height="60" viewBox="0 0 80 60"><g fill-rule="evenodd" clip-rule="evenodd"><path fill="#F181B4" d="M39.5 7.197c-13.42 0-24.302 10.88-24.302 24.302 0 13.42 10.88 24.3 24.302 24.3 13.422 0 24.302-10.88 24.302-24.3 0-13.428-10.88-24.31-24.302-24.31zm.202 45.353c-11.768 0-21.307-9.43-21.307-21.06 0-11.63 9.54-21.058 21.307-21.058 11.768 0 21.307 9.43 21.307 21.06 0 11.63-9.54 21.058-21.31 21.058z"/><path fill="#FDB9D8" d="M53.2 31.137c-.868-.242-1.745-.17-2.518.14-.146-1.56-1.233-2.942-2.84-3.39-2.076-.582-4.228.622-4.805 2.686-.043.153-.073.307-.096.457-1.9-.26-3.75.904-4.27 2.794-.533 1.902.46 3.87 2.243 4.622-.25.352-.45.75-.57 1.188-.577 2.067.64 4.21 2.717 4.79 1.66.464 3.365-.214 4.28-1.558.5.733 1.25 1.302 2.175 1.56 2.08.58 4.23-.623 4.808-2.69.33-1.177.074-2.377-.59-3.303 1.034-.45 1.863-1.34 2.19-2.507.577-2.064-.64-4.208-2.717-4.79zm-20.502-6.423c-.678-.19-1.365-.134-1.97.11-.114-1.22-.964-2.302-2.22-2.655-1.627-.46-3.31.482-3.763 2.1-.034.12-.057.24-.075.36-1.488-.207-2.934.71-3.348 2.183-.416 1.488.36 3.027 1.755 3.616-.196.277-.35.59-.446.93-.45 1.62.508 3.296 2.13 3.75 1.3.363 2.638-.167 3.35-1.22.39.573.98 1.02 1.707 1.22 1.626.456 3.312-.487 3.763-2.103.256-.92.056-1.86-.464-2.584.81-.352 1.458-1.05 1.713-1.963.45-1.614-.5-3.293-2.127-3.75zm7.635-2.962c.258.375.64.666 1.112.797 1.062.29 2.163-.32 2.457-1.38.168-.6.038-1.216-.302-1.69.53-.23.952-.684 1.12-1.28.294-1.054-.327-2.15-1.39-2.448-.443-.123-.89-.087-1.286.072-.076-.797-.63-1.504-1.45-1.734-1.062-.294-2.163.32-2.456 1.376-.023.078-.038.157-.05.234-.973-.133-1.916.462-2.186 1.43-.272.97.236 1.974 1.146 2.36-.128.18-.23.382-.292.61-.294 1.052.328 2.15 1.39 2.445.85.236 1.72-.11 2.187-.798z"/><circle fill="#fff" cx="47.605" cy="36.821" r="2.446"/><circle fill="#fff" cx="28.511" cy="28.695" r="1.914"/><circle fill="#fff" cx="40.326" cy="18.568" r="1.34"/></g></svg>