<?xml version="1.0" encoding="utf-8"?><svg xmlns="http://www.w3.org/2000/svg" width="80" height="60" viewBox="0 0 80 60"><g fill-rule="evenodd" clip-rule="evenodd"><path fill="#FEAE50" d="M64.832 22.59c-1.556-7.088-13.83-6.57-13.83-6.57l.174-12.446-5.36-1.383c-1.036 16.25-5.53 31.64-8.642 33.71-1.556-2.07-5.877-.69-5.877-.69s-2.42-4.84-3.976-6.57c-1.55-1.73-4.66-1.73-6.74-1.73-2.07 0-5.7 3.12-6.91 5.54s-2.767 7.775-2.077 14.69 8.645 11.93 8.645 11.93l2.94-6.57s-2.076-1.557-3.458-3.285c-1.384-1.728-1.73-4.148-1.73-6.05s1.037-5.185 2.42-6.568 1.902 0 1.902 0 3.63 8.47 6.05 11.41c2.42 2.938 6.393 5.703 11.752 6.222 5.36.52 12.1-.52 18.15-8.125 6.05-7.608 8.125-16.423 6.57-23.51z"/><path fill="#fff" d="M61.058 23.498c-2.353-4.47-12.94-4.94-12.94-4.94l-3.293 8.705-1.647 4.94h17.88s2.352-4.235 0-8.705z"/></g></svg>