<?xml version="1.0" encoding="utf-8"?>
<!-- Generator: Adobe Illustrator 17.1.0, SVG Export Plug-In . SVG Version: 6.00 Build 0)  -->
<!DOCTYPE svg PUBLIC "-//W3C//DTD SVG 1.1//EN" "http://www.w3.org/Graphics/SVG/1.1/DTD/svg11.dtd">
<svg version="1.1" xmlns="http://www.w3.org/2000/svg" xmlns:xlink="http://www.w3.org/1999/xlink" x="0px" y="0px" width="80px"
	 height="60px" viewBox="0 0 80 60" enable-background="new 0 0 80 60" xml:space="preserve">
<g id="Слой_47__x2B__Слой_0__x2B__Группа_1__x2B__Фигура_1_копия_2_xA0_Изображение_1_">
</g>
<g id="подвал_xA0_Изображение_1_">
</g>
<g id="Группа_179_3_">
	<g id="Группа_178_3_">
		<g id="Тень_Слой_49_xA0_Изображение_1_">
		</g>
		<g id="Слой_49_2_" enable-background="new    ">
		</g>
		<g id="Фигура_753_2_" enable-background="new    ">
		</g>
		
			<g id="Вовремя__xAB_ловить_xBB__начальные_симптомы_болезней_x2C__быстро_реагироват_1_">
		</g>
		<g id="Об_этом_наш_сервис_x21__xA0_Изображение_1_">
		</g>
	</g>
</g>
<g id="шапка_сайта_1_">
	<g id="полоска_xA0_Изображение_1_">
	</g>
	<g id="Группа_176_1_">
		<g id="ЛОГО_копия_2_xA0_Изображение_1_">
		</g>
		<g id="иконки_1_">
			<g id="диалоги_1_">
				<g id="Фигура_577_копия_22_xA0_Изображение_1_">
				</g>
				<g id="_x31__2_">
				</g>
				<g id="вам_письмо_xA0_Изображение_1_">
				</g>
			</g>
			<g id="мой_жираф_2_">
				<g id="мой_жираф_xA0_Изображение_1_">
				</g>
			</g>
			<g id="Изображение_xA0_49_1_" display="none">
			</g>
		</g>
		<g id="поиск__x2B__добавить_1_">
			<g id="поиск_1_">
				<g id="Фигура_561_xA0_Изображение_1_">
				</g>
				<g id="Поиск_xA0_Изображение_1_">
				</g>
			</g>
		</g>
		<g id="Вход_xA0_Изображение_1_">
		</g>
		<g id="Регистрация_xA0_Изображение_1_">
		</g>
	</g>
</g>
<g id="Я_здесь:___Главная___x3E_______________x3E___Справочник_детских_болезне_1_">
</g>
<g id="Векторный_смарт-объект_xA0_Изображение_1_">
</g>
<g id="Изображение_xA0_69_1_" display="none" opacity="0.4314">
</g>
<g id="категории_1_">
	<g id="_x31__1_">
		<g id="Врождённый_порок_сердца_Ревматическая_хорея_Лимфаденит_1_">
		</g>
		<g id="hand_копия_8_xA0_Изображение_1_">
		</g>
		<g id="Болезни_кровообращения_xA0_Изображение_1_">
		</g>
	</g>
	<g id="_x32__1_">
		
			<g id="Гастрит_Дуоденит_Географический_язык_Дискинезия_желчевыводящих_1_">
		</g>
		<g id="Гастроэнтерология_xA0_Изображение_1_">
		</g>
		<g id="Группа_179_2_">
		</g>
	</g>
	<g id="_x33__1_">
		<g id="Анемия_Гемофилия_Лейкоз_Тромбоцитопения_1_">
		</g>
		<g id="Гематология_xA0_Изображение_1_">
		</g>
		<g id="Группа_14_1_">
		</g>
	</g>
	<g id="_x31__копия_3_">
		<g id="Рахит_x0D__x0D__x0D__x0D__x0D__x0D_">
		</g>
		<g id="Гиповитаминозы_xA0_Изображение_1_">
		</g>
		<g id="_x31__копия_37_1_">
		</g>
	</g>
	<g id="_x32__копия_1_">
		
			<g id="Гипотиреоз_Тиреотоксикоз_Сахарный_диабет_Тиреоидит_Ожирение_Син_1_">
		</g>
		<g id="Эндокринология_xA0_Изображение_1_">
		</g>
		<g id="Группа_19_1_">
		</g>
	</g>
	<g id="_x33__копия_1_">
		
			<g id="Лямблиоз_Грибковые_заболевания_Гельминтозы_Педикулёз_Чесотка_1_">
		</g>
		<g id="Паразитология_xA0_Изображение_1_">
		</g>
		<g id="Группа_21_копия_1_">
		</g>
	</g>
	<g id="_x31__копия_2_1_">
		
			<g id="Коклюш_Ветряная_оспа_Корь_Краснуха_Эпидемический_паротит_Скарла_1_">
		</g>
		<g id="Детские_инфекции_xA0_Изображение_1_">
		</g>
		<g id="Группа_20_1_">
		</g>
	</g>
	<g id="_x32__копия_2_1_">
		
			<g id="Гастрит_Дуоденит_Географический_язык_Дискинезия_желчевыводящих__копия_1_">
		</g>
		<g id="Дерматология_xA0_Изображение_1_">
		</g>
		<g id="Группа_13_1_">
			<g id="Фигура_369">
				<g>
					<path fill-rule="evenodd" clip-rule="evenodd" fill="#F181B4" d="M39.5,7.197c-13.421,0-24.302,10.88-24.302,24.302
						c0,13.422,10.88,24.302,24.302,24.302c13.422,0,24.302-10.88,24.302-24.302C63.802,18.078,52.921,7.197,39.5,7.197z
						 M39.702,52.55c-11.768,0-21.307-9.429-21.307-21.059c0-11.631,9.539-21.059,21.307-21.059
						c11.768,0,21.307,9.429,21.307,21.059C61.009,43.122,51.469,52.55,39.702,52.55z"/>
				</g>
			</g>
			<g id="Фигура_370">
				<g>
					<path fill-rule="evenodd" clip-rule="evenodd" fill="#FDB9D8" d="M53.199,31.137c-0.867-0.242-1.744-0.171-2.517,0.141
						c-0.146-1.56-1.233-2.943-2.839-3.392c-2.077-0.581-4.229,0.623-4.806,2.687c-0.043,0.153-0.073,0.307-0.096,0.457
						c-1.902-0.26-3.75,0.904-4.278,2.794c-0.532,1.902,0.461,3.869,2.244,4.622c-0.251,0.352-0.449,0.749-0.571,1.188
						c-0.576,2.067,0.64,4.21,2.718,4.791c1.659,0.463,3.366-0.215,4.279-1.559c0.501,0.733,1.253,1.302,2.177,1.559
						c2.079,0.58,4.23-0.622,4.807-2.688c0.329-1.178,0.073-2.378-0.591-3.304c1.034-0.45,1.863-1.341,2.19-2.507
						C56.493,33.862,55.277,31.718,53.199,31.137z M32.698,24.714c-0.678-0.19-1.365-0.134-1.969,0.11
						c-0.115-1.22-0.965-2.302-2.222-2.655c-1.626-0.453-3.31,0.489-3.762,2.104c-0.034,0.12-0.057,0.24-0.075,0.358
						c-1.488-0.203-2.934,0.708-3.348,2.187c-0.416,1.488,0.36,3.027,1.755,3.616c-0.196,0.277-0.35,0.588-0.446,0.931
						c-0.451,1.617,0.501,3.295,2.127,3.749c1.299,0.363,2.634-0.167,3.349-1.22c0.392,0.573,0.981,1.018,1.704,1.22
						c1.625,0.456,3.311-0.487,3.762-2.103c0.257-0.921,0.057-1.861-0.463-2.585c0.809-0.352,1.458-1.05,1.713-1.963
						C35.275,26.847,34.323,25.168,32.698,24.714z M40.333,21.752c0.258,0.375,0.64,0.666,1.112,0.797
						c1.062,0.297,2.163-0.319,2.457-1.374c0.168-0.601,0.038-1.215-0.302-1.688c0.529-0.23,0.952-0.685,1.119-1.282
						c0.295-1.054-0.326-2.151-1.389-2.448c-0.443-0.123-0.891-0.087-1.286,0.072c-0.076-0.796-0.63-1.503-1.451-1.733
						c-1.061-0.296-2.162,0.319-2.455,1.374c-0.023,0.078-0.038,0.157-0.05,0.234c-0.973-0.133-1.916,0.462-2.186,1.428
						c-0.272,0.971,0.236,1.976,1.146,2.361c-0.128,0.181-0.229,0.383-0.292,0.608c-0.294,1.055,0.328,2.151,1.389,2.448
						C38.995,22.786,39.867,22.44,40.333,21.752z"/>
				</g>
			</g>
			<g id="Фигура_371">
				<g>
					<circle fill-rule="evenodd" clip-rule="evenodd" fill="#FFFFFF" cx="47.605" cy="36.821" r="2.446"/>
				</g>
			</g>
			<g id="Фигура_371_копия">
				<g>
					<circle fill-rule="evenodd" clip-rule="evenodd" fill="#FFFFFF" cx="28.511" cy="28.695" r="1.914"/>
				</g>
			</g>
			<g id="Фигура_371_копия_2">
				<g>
					<circle fill-rule="evenodd" clip-rule="evenodd" fill="#FFFFFF" cx="40.326" cy="18.568" r="1.34"/>
				</g>
			</g>
		</g>
	</g>
	<g id="_x32__копия_5_1_">
		<g id="Пупочная_грыжа_Аппендицит_Мозоль_Острый_панкреатит_1_">
		</g>
		<g id="Хирургия_xA0_Изображение_1_">
		</g>
	</g>
	<g id="_x32__копия_6_1_">
		
			<g id="Коньюнктивит_Ячмень_Близорукость_Дакриоаденит_Дальнозоркость_Ас_1_">
		</g>
		<g id="Офтальмология_xA0_Изображение_1_">
		</g>
	</g>
	<g id="_x32__копия_7_1_">
		
			<g id="Коньюнктивит_Ячмень_Близорукость_Дакриоаденит_Дальнозоркость_Ас_копия_1_">
		</g>
		<g id="Урология_xA0_Изображение_1_">
		</g>
	</g>
	<g id="_x33__копия_2_1_">
		<g id="Анемия_Гемофилия_Лейкоз_Тромбоцитопения_______копия_2_1_">
		</g>
		<g id="Нервология_xA0_Изображение_1_">
		</g>
	</g>
	<g id="_x33__копия_4_1_">
		<g id="Бронхит_x0D_Пневмония_x0D__x0D__x0D__x0D__x0D__x0D_">
		</g>
		<g id="Пульмонология_xA0_Изображение_1_">
		</g>
	</g>
	<g id="_x33__копия_5_1_">
		
			<g id="Компьютерная_зависимость_Нервный_стресс_Умственная_отсталость_Ш_1_">
		</g>
		<g id="Психиатрия_xA0_Изображение_1_">
		</g>
		<g id="Группа_18_1_">
		</g>
	</g>
	<g id="_x31__копия_3_1_">
		<g id="Гемангиома_x0D_Мастоцитома_x0D__x0D__x0D__x0D__x0D__x0D_">
		</g>
		<g id="Онкология_xA0_Изображение_1_">
		</g>
		<g id="Группа_17_1_">
		</g>
	</g>
	<g id="_x32__копия_3_1_">
		
			<g id="Трахеит_Ларингит_Острый_ринит_Тонзиллит_Синусит_Острый_фарингит_1_">
		</g>
		<g id="Оториноларингология_xA0_Изображение_1_">
		</g>
		<g id="Группа_11_1_">
		</g>
	</g>
	<g id="_x32__копия_4_1_">
		
			<g id="Дизентерия_Амёбиаз_Холера_Кишечные_инфекции_x2C__вызванные_условно-_1_">
		</g>
		<g id="Инфекции_xA0_Изображение_1_">
		</g>
		<g id="_x31__копия_2_">
		</g>
	</g>
	<g id="_x33__копия_3_1_">
		<g id="Стоматит_Нарушение_прорезывания_зубов_1_">
		</g>
		<g id="Стоматология_xA0_Изображение_1_">
		</g>
		<g id="Фигура_361_xA0_Изображение_1_">
		</g>
	</g>
</g>
<g id="Существует_такой_термин__x2013___xAB_детские_болезни_xBB_._Раз_он_есть_x2C__значи_xA0_Изображение_1_">
</g>
<g id="Группа_178_2_">
	<g id="Слой_50_2_" enable-background="new    ">
	</g>
	
		<g id="Детский_организм_работает_совсем_иначе_x2C__нежели_взрослый._Посмот_xA0_Изображение_1_">
	</g>
</g>
<g id="Справочник_детских_болезней_xA0_Изображение_1_">
</g>
<g id="Изображение_xA0_276_xA0_Изображение_1_" display="none" opacity="0.149">
	
		<image display="inline" overflow="visible" width="940" height="3004" id="Изображение_xA0_276_xA0_Изображение" xlink:href="539A7EAE.png"  transform="matrix(1 0 0 1 -347 -1585)">
	</image>
</g>
</svg>
