<?xml version="1.0" encoding="utf-8"?><svg xmlns="http://www.w3.org/2000/svg" width="80" height="60" viewBox="0 0 80 60"><g fill-rule="evenodd" clip-rule="evenodd"><circle fill="#2DA5DF" cx="38.092" cy="31.564" r="16.134"/><path fill="#2DA5DF" d="M37.24 6.227h1.226V17.7H37.24zm-17.06 6.38l.925-.807 8.126 9.323-.92.806zm-6.844 15.858l-.058 1.225 12.366 1.506.057-1.225zm4.27 18.652l10.28-9.084.81.92-10.277 9.083zm14.87 8.693l3.108-13.626 1.196.273-3.107 13.625zm11.61-14.517l.914-.82 8.127 9.084-.914.818zm5.164-6.54l.25-1.2 10.656 2.225-.25 1.2zm.475-12.56l9.083-5.498.635 1.05-9.083 5.498z"/><circle fill="#4CBEF6" cx="37.764" cy="5.215" r="3.107"/><circle fill="#4CBEF6" cx="20.591" cy="11.348" r="3.107"/><circle fill="#4CBEF6" cx="12.231" cy="28.295" r="3.107"/><circle fill="#4CBEF6" cx="18.138" cy="46.921" r="3.107"/><circle fill="#4CBEF6" cx="34.085" cy="55.508" r="3.107"/><circle fill="#4CBEF6" cx="53.711" cy="50.601" r="3.107"/><circle fill="#4CBEF6" cx="62.297" cy="37.335" r="3.107"/><circle fill="#4CBEF6" cx="60.911" cy="16.255" r="3.107"/></g></svg>
