<?xml version="1.0" encoding="utf-8"?><svg xmlns="http://www.w3.org/2000/svg" width="80" height="60" viewBox="0 0 80 60"><g fill-rule="evenodd" clip-rule="evenodd"><path fill="#F07AB0" d="M57.832 19.022c-.125-3.748-2.75-8.745-5.997-11.494-3.248-2.748-7.245-3.872-10.62-4.372-3.372-.5-6.995.125-10.618 1.5-3.623 1.373-6.496 3.997-8.995 7.37-2.5 3.373-2.5 9.87-2.5 12.618 0 2.75-3.997 7.996-4.746 9.12-.75 1.124-.5 3.248-.5 3.248s1.25.624 4.747.5c-1.498 16.74 11.49 12.868 11.49 12.868l.007 6.247h20.975l.002-16.99s4.882-7.122 6.006-9.995c1.124-2.874.874-6.87.75-10.62z"/><circle fill="#FFFBFE" cx="25.02" cy="28.897" r="2.509"/><path fill="#fff" d="M53.085 13.9c-.75-2.25-3.873-4.497-7.246-5.997s-6-1.5-10.497-1-9.37 4.623-11.494 7.747c-2.124 3.123-.625 6.122 1.624 7.746 2.25 1.624 4.497.875 7.87.875 9.246-.5 6.267 10.297 6.267 10.297l6.103.076s.75-1.248 1.75-3.247c.998-2 3.747-4.497 5.62-6.746 1.875-2.25.75-7.5 0-9.748zM39.922 35.725h6.02v1.84h-6.02zm.098 4.01h5.925v1.913H40.02zm0 4h5.925v1.913H40.02zm0 4h5.925v1.913H40.02zm0 4h5.925v1.913H40.02zm0 4h5.925v1.913H40.02z"/></g></svg>

