<?xml version="1.0" encoding="utf-8"?><svg xmlns="http://www.w3.org/2000/svg" width="80" height="60" viewBox="0 0 80 60"><g fill-rule="evenodd" clip-rule="evenodd"><path fill="#24B5FC" d="M28.683 4.636l.177 11.418 1.095-.13.05-11.305z"/><path fill="#1C9BD9" d="M24.912 18.1l.117 4.363 8.176.026.02-4.38z"/><path fill="#61CCFF" d="M34.375 24.32c-3.978.094-11.106-.063-11.106-.063s-3.19-.34-3.137 3.542c.053 3.88-.015 17.242-.015 17.242s.535 2.02 1.887 2.33c2.592.196 13.402-.012 13.402-.012s1.03-.688 1.153-1.256l.05-19.053c-.002 0-.065-2.485-2.238-2.73z"/><path fill="#199AD9" d="M31.6 49.133l-6.63-.01.03 4.83 6.626.048z"/><path fill="#D1F0FF" d="M34.807 27.723c-.218-2.394-2.324-2.044-2.324-2.044s-6.2-.03-8.732-.055c-2.103.01-1.98 1.606-1.98 1.606l.006 6.943 13.198.106s.05-4.165-.166-6.558z"/><path fill="#199AD9" d="M36.62 56.158l-16.572-.115-.097 2.64 16.688.116z"/><path fill="#fff" d="M35.104 39.083L30 39.07l.125 6.696 5.01-.063zM26.84 39.083l-5.105-.012.126 6.697 5.013-.063z"/><path fill="#61B6E6" d="M55.58 6.813c-2.453-3.093-3.84.64-3.84.64l-4.056 19.405.634 28.79c1.172 3.52 3.092 3.093 3.092 3.093s4.798.323 6.61.004c1.814-.32 2.454-1.813 2.454-1.813l.007-30.495s-2.982-15.142-4.9-19.62zm-5.735 48.482l-.473-28.31 3.95-18.448s.373-.693.693.053c.32.747 4.048 17.276 4.048 17.276l.526 30.07-8.746-.64z"/><path fill="#4CC4FE" d="M56.89 26.72l-6.186.424.26 26.818 6.345.375z"/></g></svg>