<?xml version="1.0" encoding="utf-8"?><svg xmlns="http://www.w3.org/2000/svg" width="80" height="60" viewBox="0 0 80 60"><g fill-rule="evenodd" clip-rule="evenodd"><circle fill="#C9CACA" cx="39.823" cy="35.829" r="15.925"/><circle fill="#fff" cx="39.831" cy="35.478" r="4.263"/><path fill="#CE8033" d="M22.256 35.79c-5.942-2.03-8.678-6.957-8.678-6.957s.156 8.99.313 11.65c2.19 2.422 8.45 5.94 12.98 7.74-2.19-2.112-4.22-8.992-4.61-12.432zm34.71.55c-.39 5.706-2.11 8.755-4.846 11.96 9.303-2.11 13.603-8.365 13.603-8.365s.156-7.818.234-11.57c-2.658 4.534-8.99 7.974-8.99 7.974z"/><path fill="#A36120" d="M40.673 12.58c-23.454-.235-27.095 13.126-27.095 13.126 1.485 3.752 2.893 4.3 3.987 5.003 1.33-.86 4.847-3.44 8.052-4.698 3.753-4.77 7.427-7.64 14.776-7.72 7.35-.077 12.04 4.046 13.603 7.33 2.736 1.173 6.332 3.596 7.74 5.08.625-.624 3.518-3.126 4.143-5.472-.47-1.483-7.23-12.655-25.21-12.655z"/></g></svg>