<?xml version="1.0" encoding="utf-8"?><svg xmlns="http://www.w3.org/2000/svg" width="80" height="60" viewBox="0 0 80 60"><g fill-rule="evenodd" clip-rule="evenodd"><path fill="#CE8033" d="M25.94 22.558c2.11-1.703 3.408-5.03.893-7.788-2.515-2.758-6.003-2.434-8.518-.73 0 0-18.495 13.142-.325 26.608 2.434 2.19 6.49.568 8.274-1.055 1.785-1.622 2.677-4.624.81-6.733-1.863-2.11-6-6.652-1.133-10.302zm35.883-8.518c-2.515-1.703-6.003-2.028-8.517.73-2.515 2.758-1.217 6.084.892 7.788 4.867 3.65.73 8.193-1.136 10.302-1.866 2.11-.973 5.11.81 6.733 1.786 1.622 5.842 3.245 8.275 1.055 18.172-13.466-.324-26.608-.324-26.608z"/><path fill="#99CDFD" d="M38.352 28.318c-.08-2.515-2.596-3.326-2.596-3.326H29.51s-2.27.568-2.19 2.353c.08 1.785 2.028 2.19 2.028 2.19s.892 0 2.352 0 1.46 2.19 1.46 2.19l.162 21.497c0 .08-.08 1.947 2.433 1.866 2.515-.08 2.596-2.028 2.596-2.028s.086-22.228.004-24.742zM50.63 24.99h-6.247s-2.515.812-2.596 3.327c-.08 2.515 0 24.742 0 24.742s.08 1.944 2.596 2.025c2.515.08 2.434-1.785 2.434-1.866l.162-21.497s0-2.19 1.46-2.19 2.35 0 2.35 0 1.947-.406 2.03-2.19c.08-1.785-2.19-2.353-2.19-2.353z"/></g></svg>