<?xml version="1.0" encoding="utf-8"?>
<!-- Generator: Adobe Illustrator 17.1.0, SVG Export Plug-In . SVG Version: 6.00 Build 0)  -->
<!DOCTYPE svg PUBLIC "-//W3C//DTD SVG 1.1//EN" "http://www.w3.org/Graphics/SVG/1.1/DTD/svg11.dtd">
<svg version="1.1" xmlns="http://www.w3.org/2000/svg" xmlns:xlink="http://www.w3.org/1999/xlink" x="0px" y="0px" width="80px"
	 height="60px" viewBox="0 0 80 60" enable-background="new 0 0 80 60" xml:space="preserve">
<g id="Слой_47__x2B__Слой_0__x2B__Группа_1__x2B__Фигура_1_копия_2_xA0_Изображение_1_">
</g>
<g id="подвал_xA0_Изображение_1_">
</g>
<g id="Группа_179_3_">
	<g id="Группа_178_3_">
		<g id="Тень_Слой_49_xA0_Изображение_1_">
		</g>
		<g id="Слой_49_2_" enable-background="new    ">
		</g>
		<g id="Фигура_753_2_" enable-background="new    ">
		</g>
		
			<g id="Вовремя__xAB_ловить_xBB__начальные_симптомы_болезней_x2C__быстро_реагироват_1_">
		</g>
		<g id="Об_этом_наш_сервис_x21__xA0_Изображение_1_">
		</g>
	</g>
</g>
<g id="шапка_сайта_1_">
	<g id="полоска_xA0_Изображение_1_">
	</g>
	<g id="Группа_176_1_">
		<g id="ЛОГО_копия_2_xA0_Изображение_1_">
		</g>
		<g id="иконки_1_">
			<g id="диалоги_1_">
				<g id="Фигура_577_копия_22_xA0_Изображение_1_">
				</g>
				<g id="_x31__2_">
				</g>
				<g id="вам_письмо_xA0_Изображение_1_">
				</g>
			</g>
			<g id="мой_жираф_2_">
				<g id="мой_жираф_xA0_Изображение_1_">
				</g>
			</g>
			<g id="Изображение_xA0_49_1_" display="none">
			</g>
		</g>
		<g id="поиск__x2B__добавить_1_">
			<g id="поиск_1_">
				<g id="Фигура_561_xA0_Изображение_1_">
				</g>
				<g id="Поиск_xA0_Изображение_1_">
				</g>
			</g>
		</g>
		<g id="Вход_xA0_Изображение_1_">
		</g>
		<g id="Регистрация_xA0_Изображение_1_">
		</g>
	</g>
</g>
<g id="Я_здесь:___Главная___x3E_______________x3E___Справочник_детских_болезне_1_">
</g>
<g id="Векторный_смарт-объект_xA0_Изображение_1_">
</g>
<g id="Изображение_xA0_69_1_" display="none" opacity="0.4314">
</g>
<g id="категории_1_">
	<g id="_x31__1_">
		<g id="Врождённый_порок_сердца_Ревматическая_хорея_Лимфаденит_1_">
		</g>
		<g id="hand_копия_8_xA0_Изображение_1_">
		</g>
		<g id="Болезни_кровообращения_xA0_Изображение_1_">
		</g>
	</g>
	<g id="_x32__1_">
		
			<g id="Гастрит_Дуоденит_Географический_язык_Дискинезия_желчевыводящих_1_">
		</g>
		<g id="Гастроэнтерология_xA0_Изображение_1_">
		</g>
		<g id="Группа_179_2_">
		</g>
	</g>
	<g id="_x33__1_">
		<g id="Анемия_Гемофилия_Лейкоз_Тромбоцитопения_1_">
		</g>
		<g id="Гематология_xA0_Изображение_1_">
		</g>
		<g id="Группа_14_1_">
		</g>
	</g>
	<g id="_x31__копия_3_">
		<g id="Рахит_x0D__x0D__x0D__x0D__x0D__x0D_">
		</g>
		<g id="Гиповитаминозы_xA0_Изображение_1_">
		</g>
		<g id="_x31__копия_37_1_">
		</g>
	</g>
	<g id="_x32__копия_1_">
		
			<g id="Гипотиреоз_Тиреотоксикоз_Сахарный_диабет_Тиреоидит_Ожирение_Син_1_">
		</g>
		<g id="Эндокринология_xA0_Изображение_1_">
		</g>
		<g id="Группа_19_1_">
		</g>
	</g>
	<g id="_x33__копия_1_">
		
			<g id="Лямблиоз_Грибковые_заболевания_Гельминтозы_Педикулёз_Чесотка_1_">
		</g>
		<g id="Паразитология_xA0_Изображение_1_">
		</g>
		<g id="Группа_21_копия_1_">
		</g>
	</g>
	<g id="_x31__копия_2_1_">
		
			<g id="Коклюш_Ветряная_оспа_Корь_Краснуха_Эпидемический_паротит_Скарла_1_">
		</g>
		<g id="Детские_инфекции_xA0_Изображение_1_">
		</g>
		<g id="Группа_20_1_">
		</g>
	</g>
	<g id="_x32__копия_2_1_">
		
			<g id="Гастрит_Дуоденит_Географический_язык_Дискинезия_желчевыводящих__копия_1_">
		</g>
		<g id="Дерматология_xA0_Изображение_1_">
		</g>
		<g id="Группа_13_1_">
		</g>
	</g>
	<g id="_x32__копия_5_1_">
		<g id="Пупочная_грыжа_Аппендицит_Мозоль_Острый_панкреатит_1_">
		</g>
		<g id="Хирургия_xA0_Изображение_1_">
		</g>
		<g id="Фигура_358">
			<g>
				<path fill-rule="evenodd" clip-rule="evenodd" fill="#99CDFD" d="M58.334,21.817c-2.814-2.694-7.302-2.598-9.997,0.212
					c-0.832,0.867-1.389,1.892-1.697,2.974c-0.704-0.3-1.624-0.764-2.379-1.458c-0.776-0.745-1.271-1.755-1.549-2.438
					c1.141-0.34,2.203-0.958,3.081-1.878c2.695-2.815,2.598-7.303-0.22-9.999c-2.813-2.694-7.298-2.598-9.997,0.215
					c-2.7,2.815-2.603,7.302,0.215,9.998c1.071,1.026,2.386,1.649,3.752,1.867L14.388,53.399c-0.322,0.419-0.284,1.026,0.102,1.394
					c0.386,0.366,0.991,0.386,1.4,0.038l30.683-26.262c0.299,1.278,0.964,2.489,1.98,3.466c2.813,2.69,7.302,2.594,9.997-0.221
					C61.245,29.001,61.148,24.512,58.334,21.817z M37.23,17.942c-1.984-1.905-2.052-5.067-0.148-7.056
					c1.897-1.979,5.068-2.048,7.047-0.152c1.989,1.905,2.057,5.067,0.156,7.056C42.386,19.78,39.215,19.848,37.23,17.942z
					 M22.505,46.429l18.625-23.755c0.383,0.764,0.929,1.646,1.693,2.374l0.1,0.101c0.802,0.735,1.749,1.259,2.548,1.625
					L22.505,46.429z M57.047,30.376c-1.9,1.988-5.068,2.056-7.056,0.152c-1.064-1.023-1.561-2.408-1.51-3.779
					c0.055-0.17,0.069-0.349,0.04-0.531c0.14-0.998,0.57-1.965,1.318-2.745c1.905-1.985,5.068-2.053,7.056-0.152
					C58.885,25.225,58.953,28.388,57.047,30.376z"/>
			</g>
		</g>
		<g id="Фигура_359">
			<g>
				<path fill-rule="evenodd" clip-rule="evenodd" fill="#ADABAB" d="M42.817,37.42c-0.193-0.193-0.363-0.35-0.508-0.5
					c0.217-0.576,0.185-1.125-0.137-1.452l-24.614-24.61c-0.553-0.551-1.722-0.274-2.621,0.625c-0.9,0.896-1.182,2.073-0.626,2.621
					l24.61,24.611c0.315,0.314,0.831,0.35,1.38,0.168c5.372,4.001,4.114,11.015,9.494,14.721c1.799,1.243,4.775,2.276,7.772,2.045
					c1.48-0.112,2.948-1.249,2.948-1.249C55.194,47.748,49.871,42.429,42.817,37.42z M49.834,52.871
					c-4.275-3.986-3.436-10.325-8.502-13.826l0.524-0.488c4.928,3.497,4.295,9.523,8.53,13.474c1.762,1.38,5.021,2.477,7.844,1.807
					l0.508,0.5C55.719,55.629,51.819,54.427,49.834,52.871z"/>
			</g>
		</g>
	</g>
	<g id="_x32__копия_6_1_">
		
			<g id="Коньюнктивит_Ячмень_Близорукость_Дакриоаденит_Дальнозоркость_Ас_1_">
		</g>
		<g id="Офтальмология_xA0_Изображение_1_">
		</g>
	</g>
	<g id="_x32__копия_7_1_">
		
			<g id="Коньюнктивит_Ячмень_Близорукость_Дакриоаденит_Дальнозоркость_Ас_копия_1_">
		</g>
		<g id="Урология_xA0_Изображение_1_">
		</g>
	</g>
	<g id="_x33__копия_2_1_">
		<g id="Анемия_Гемофилия_Лейкоз_Тромбоцитопения_______копия_2_1_">
		</g>
		<g id="Нервология_xA0_Изображение_1_">
		</g>
	</g>
	<g id="_x33__копия_4_1_">
		<g id="Бронхит_x0D_Пневмония_x0D__x0D__x0D__x0D__x0D__x0D_">
		</g>
		<g id="Пульмонология_xA0_Изображение_1_">
		</g>
	</g>
	<g id="_x33__копия_5_1_">
		
			<g id="Компьютерная_зависимость_Нервный_стресс_Умственная_отсталость_Ш_1_">
		</g>
		<g id="Психиатрия_xA0_Изображение_1_">
		</g>
		<g id="Группа_18_1_">
		</g>
	</g>
	<g id="_x31__копия_3_1_">
		<g id="Гемангиома_x0D_Мастоцитома_x0D__x0D__x0D__x0D__x0D__x0D_">
		</g>
		<g id="Онкология_xA0_Изображение_1_">
		</g>
		<g id="Группа_17_1_">
		</g>
	</g>
	<g id="_x32__копия_3_1_">
		
			<g id="Трахеит_Ларингит_Острый_ринит_Тонзиллит_Синусит_Острый_фарингит_1_">
		</g>
		<g id="Оториноларингология_xA0_Изображение_1_">
		</g>
		<g id="Группа_11_1_">
		</g>
	</g>
	<g id="_x32__копия_4_1_">
		
			<g id="Дизентерия_Амёбиаз_Холера_Кишечные_инфекции_x2C__вызванные_условно-_1_">
		</g>
		<g id="Инфекции_xA0_Изображение_1_">
		</g>
		<g id="_x31__копия_2_">
		</g>
	</g>
	<g id="_x33__копия_3_1_">
		<g id="Стоматит_Нарушение_прорезывания_зубов_1_">
		</g>
		<g id="Стоматология_xA0_Изображение_1_">
		</g>
		<g id="Фигура_361_xA0_Изображение_1_">
		</g>
	</g>
</g>
<g id="Существует_такой_термин__x2013___xAB_детские_болезни_xBB_._Раз_он_есть_x2C__значи_xA0_Изображение_1_">
</g>
<g id="Группа_178_2_">
	<g id="Слой_50_2_" enable-background="new    ">
	</g>
	
		<g id="Детский_организм_работает_совсем_иначе_x2C__нежели_взрослый._Посмот_xA0_Изображение_1_">
	</g>
</g>
<g id="Справочник_детских_болезней_xA0_Изображение_1_">
</g>
<g id="Изображение_xA0_276_xA0_Изображение_1_" display="none" opacity="0.149">
	
		<image display="inline" overflow="visible" width="940" height="3004" id="Изображение_xA0_276_xA0_Изображение" xlink:href="21485F3C.png"  transform="matrix(1 0 0 1 -27.3333 -2246)">
	</image>
</g>
</svg>
