<?xml version="1.0" encoding="utf-8"?><svg xmlns="http://www.w3.org/2000/svg" width="80" height="60" viewBox="0 0 80 60"><path fill-rule="evenodd" clip-rule="evenodd" fill="#76D3FF" d="M69.643 45.706c-.52-12.317-5.21-23.392-11.395-34.01-6.422-11.042-10.753.203-12.51 8.46-1.784-.996-3.27-2.16-3.568-3.484-.05-.232-.14-.443-.24-.65-.02-.682-.052-1.364-.085-2.032-.093-1.804-.185-3.508-.037-5.06.143-1.525-.976-2.88-2.505-3.023-1.53-.13-2.877.98-3.02 2.504-.183 1.957-.08 3.944.013 5.863.055 1.04.102 2.02.11 2.965-.5 1.04-1.7 1.97-3.126 2.786-1.775-8.242-6.1-19.31-12.486-8.327-6.18 10.618-10.87 21.693-11.384 34.01-.437 2.067-.325 3.602.185 4.716.26.557.61 1.014 1.05 1.363 8.69-.802 17.566 1.42 24.74-6.77.186-.755.312-1.56.39-2.398.522-5.625-1.142-12.808-1.588-16.803 1.882-.907 3.74-2.01 5.205-3.437 1.533 1.49 3.494 2.623 5.455 3.556-.465 4.022-2.09 11.113-1.576 16.683.08.838.21 1.643.388 2.398 7.18 8.19 16.06 5.967 24.74 6.77.436-.35.8-.806 1.05-1.363.517-1.112.623-2.647.196-4.714z"/></svg>