<?xml version="1.0" encoding="utf-8"?><svg xmlns="http://www.w3.org/2000/svg" width="80" height="60" viewBox="0 0 80 60"><path fill="#4BC3FE" d="M28.9 56.1c-.3-1.1-7.6-26.3-7.6-39.8 0-4.3 1.2-6.8 2.8-8.3 2.8-2.7 5.6-4.1 9-4.1 2.4 0 4.9.7 7.6 2.1 2.8-1.5 5.5-2.2 7.9-2.2 3 0 5.6 1.2 7.3 3.4 1.7 2.1 2.6 5.2 2.6 8.8 0 .6 0 1.3-.1 2-.8 10.1-6.4 36.5-6.7 37.6-.3 1.2-1.5 2.1-2.8 2.1s-2.1-.5-2.6-1.3c-.4-.6-.6-1.5-1.1-4.4-.5-2.8-1.1-6.7-2.2-9.9-1-3-2.2-4.7-3.2-4.7-.9 0-1.9 1.7-2.7 4.5-.8 3.1-1.3 7-1.6 9.9-.4 3.3-.5 4.4-1 5.1-.1.1-.2.2-.3.3-.5.4-1.6.7-2.3.7-1.2 0-2.7-.6-3-1.8z"/><path fill="#fff" d="M31.7 55.2zm17-.5zm0 0zm-17.1 0c-1.4-4-7.6-26.5-7.6-38.3-.1-3.6.8-4.9 1.7-6.1C27.6 7.8 30.2 7 32.8 7c2.1 0 4.3.7 6.8 2.1.2.1.5.2.8.2s.5-.1.8-.2c2.6-1.4 5.1-2.2 7.1-2.2 2.1 0 3.7.7 4.9 2.2 1.2 1.6 1.9 3.9 1.9 6.8 0 .6 0 1.1-.1 1.7-.7 9.1-5.6 32.6-6.5 36.6-.1-.7-.3-1.8-.5-2.8-1.2-6.9-2.9-17.2-8.4-17.2-3.9 0-5.3 5.1-5.7 6.8-.9 3.2-2.1 13-2.3 13.7z"/><path fill="#4BC3FE" d="M26.2 15.3s.7-4.5 5.2-6 5 1.5 2.3 2-5.1 4.6-5.5 6.3-2.9 1.5-2-2.3z"/></svg>