<?xml version="1.0" encoding="utf-8"?><svg xmlns="http://www.w3.org/2000/svg" width="80" height="60" viewBox="0 0 80 60"><path fill-rule="evenodd" clip-rule="evenodd" fill="#EE5F20" d="M58.445 28.84C55.07 23.165 41.113 2.15 41.113 2.15c-1.38 5.523-11.35 17.487-14.11 21.32-2.762 3.835-7.363 14.726-4.142 22.395 3.223 7.67 11.2 11.81 16.413 11.964 5.215.15 9.203-.46 15.798-6.29 6.597-5.83 6.75-17.026 3.376-22.7zM39.822 51.874C27.03 49.138 27.77 35.128 27.77 35.128c.152-1.533 3.833-1.84 3.987.153.307 9.82 8.436 13.04 9.663 13.653 1.795 1.09.466 3.648-1.598 2.942z"/></svg>