<?xml version="1.0" encoding="utf-8"?><svg xmlns="http://www.w3.org/2000/svg" width="80" height="60" viewBox="0 0 80 60"><g fill-rule="evenodd" clip-rule="evenodd"><circle fill="#2DA5DF" cx="38.092" cy="31.564" r="16.134"/><path fill="#2DA5DF" d="M37.24 6.227h1.226V17.7H37.24zM20.18 12.607l.925-.807 8.126 9.323-.923.806zM13.336 28.465l-.058 1.225 12.366 1.506.057-1.225zM17.607 47.117l10.278-9.084.812.92-10.278 9.083zM32.476 55.81l3.108-13.626 1.196.273-3.107 13.625zM44.086 41.293l.914-.82 8.127 9.084-.914.818zM49.25 34.754l.25-1.2 10.656 2.224-.25 1.2zM49.725 22.193l9.083-5.498.635 1.05-9.083 5.498z"/><circle fill="#4CBEF6" cx="37.764" cy="5.215" r="3.107"/><circle fill="#4CBEF6" cx="20.591" cy="11.348" r="3.107"/><circle fill="#4CBEF6" cx="12.231" cy="28.295" r="3.107"/><circle fill="#4CBEF6" cx="18.138" cy="46.921" r="3.107"/><circle fill="#4CBEF6" cx="34.085" cy="55.508" r="3.107"/><circle fill="#4CBEF6" cx="53.711" cy="50.601" r="3.107"/><circle fill="#4CBEF6" cx="62.297" cy="37.335" r="3.107"/><circle fill="#4CBEF6" cx="60.911" cy="16.255" r="3.107"/></g></svg>