<?xml version="1.0" encoding="utf-8"?><svg xmlns="http://www.w3.org/2000/svg" width="80" height="60" viewBox="0 0 80 60"><g fill-rule="evenodd" clip-rule="evenodd"><path fill="#FE8BC0" d="M53.157 23.79C52.303 16.957 40.465 8 32.237 8.213c-17.727-.57-23.91 15.79-23.91 15.79-2.994.36-6.645 3.76-6.618 7.044.022 2.995 2.772 5.337 5.76 6.404 1.497 8.97 10.11 18.77 23.986 18.77 16.865-.214 22.128-14.926 22.768-18.77 4.056-1.28 5.405-4.696 5.405-7.47 0-2.775-1.698-5.34-6.475-6.19zm-.854 10.673c-1.92 12.81-11.807 19.492-20.986 19.705C16.39 54.233 10.24 40.37 9.82 35.744c-2.134-.64-5.168-2.337-5.122-5.55.042-2.972 4.27-4.277 6.618-4.697 4.7-13.81 17.562-15.554 19.855-14.66 3.556 0 6.29 7.106 5.01 9.667-1.28 2.562-5.65 2.43-7.57.937-1.92-1.49-1.134-4.332.79-4.76 1.92-.426 2.84 1.56 1.77 2.415-1.067.854-.64 1.503-.213 1.717 2.135 1.28 4.27-1.716 2.775-3.85-3.453-5.97-9.127-1.47-9.177 1.708-.045 2.81 1.708 6.83 7.045 6.404 8.54-.853 9.06-9.423 4.648-13.448 8.353 1.935 13.94 9.043 14.778 14.728C55.94 26.207 57 28.7 57 30.834c0 2.135-2.562 2.99-4.697 3.63z"/><path fill="#FE84BD" d="M31.71 40.006c-3.66 0-7.05 4.148-7.05 4.148 0 1.29 1.58 1.65 2.153.717.574-.93 2.88-2.854 4.89-2.854s3.657 1.35 4.733 2.354c1.076 1.003 1.65.5 1.65-.79-.932-1.864-3.087-3.573-6.376-3.573z"/><path fill="#BCBCBD" d="M77.967 38.667l.07-28.773c0-.9-1.82-2.87-2.857-2.87l-8.35.116c-.898 0-2.87 1.956-2.87 2.72l-.067 28.77c0 .19-.012.377.024.557l-.023.053c.017.02.062.04.08.06.168.713.602 1.325 1.196 1.72.3.52 1.104 1.48 1.353 2.044l9.327.025c.252-.568.527-1.525.828-2.04.596-.397 1.13-1.006 1.302-1.72.017-.02-.03-.04-.014-.06l.04-.05c.036-.18-.04-.365-.04-.555z"/><path fill="#999" d="M74.04 50.175l-6.025-.014c.012 1.15.017 2.586.017 2.586-.003 1.395 1.988 2.53 3.384 2.533 1.394.002 2.59-1.127 2.594-2.52 0 0-.037-1.56.03-2.583z"/><path fill="#BEBEBF" d="M65.572 44.03c1.243 3.05 1.83 3.675 2.044 5.142l6.443.012c.22-1.466.82-2.086 2.08-5.13l-10.57-.025z"/><path fill="#fff" d="M71.117 8.813c-1.503 0-5.132 2.48-5.132 3.982v24.34c0 1.502 3.628 3.037 5.132 3.037 1.503 0 4.91-1.534 4.91-3.038V12.796c0-1.503-3.407-3.983-4.91-3.983z"/><path fill="#F93F3E" d="M70.05 23.176l-.03 13.697 1.904.03.03-13.698z"/><path fill="#4CB4FD" d="M70.05 15.306l-.03 7.678 1.904.03.03-7.68z"/><path fill="#FEAADA" d="M16.512 39.496l.062 3.5h3.348v-3.5zm11.998 7.998l.062 3.5h3.348v-3.5zm0-13.997l.062 3.5h3.348v-3.5zm-15.997-4l.062 3.5h3.348v-3.5zm27.994 8l.062 3.5h3.345v-3.5zm6-6l.06 3.5h3.35v-3.5z"/><circle fill="#0295FC" cx="22.302" cy="30.15" r="2.591"/><circle fill="#0295FC" cx="38.302" cy="30.15" r="2.591"/></g></svg>