<?xml version="1.0" encoding="utf-8"?><svg xmlns="http://www.w3.org/2000/svg" width="80" height="60" viewBox="0 0 80 60"><g fill-rule="evenodd" clip-rule="evenodd"><path fill="#61B6E6" d="M39.5 2.75c-14.773 0-26.75 11.976-26.75 26.75S24.727 56.25 39.5 56.25c14.774 0 26.75-11.976 26.75-26.75S54.274 2.75 39.5 2.75zm.153 50.672c-13.047 0-23.625-10.7-23.625-23.9S26.605 5.625 39.653 5.625c13.047 0 23.625 10.7 23.625 23.9S52.7 53.42 39.653 53.42z"/><path fill="#9A5E49" d="M36.246 19.444l-7.8-6.754-1.332 1.617 7.515 6.564 1.61-1.42zm10.368-8.18l-2.473-1.238-5.51 10.75 2.473 1.426 5.517-10.94zM44.426 27.15l9.037-9.42-1.807-1.9-8.94 9.226 1.71 2.092zm7.61 1.14l7.61-3.044-.95-2.854-7.8 2.95 1.14 2.948zm-14.744 4.66l-12.746 3.995 1.14 2.188L37.96 34.95l-.666-2zm-3.995 7.135l5.612 7.325L41 45.985l-5.327-7.23-2.378 1.332zM47.47 35.33l-6.278 4.185 1.427 2.283 6.652-4.376-1.808-2.093zm-.856-4.947l7.99 7.42 1.807-2.094-8.08-7.14-1.71 1.81zm-11.89-4.66l9.037 8.75 1.72-2.092-9.323-8.27-1.426 1.618zm-4.66 4.946l2.377-.29-2.28-9.32-2.38.57 2.29 9.034zm-4.854-5.33l-6.182 2.85.76 1.806 6.28-2.95-.857-1.71zm19.788 18.17l3.234 4.942 1.428-1.332-3.33-4.47-1.33.856z"/></g></svg>