<?xml version="1.0" encoding="utf-8"?>
<!-- Generator: Adobe Illustrator 17.1.0, SVG Export Plug-In . SVG Version: 6.00 Build 0)  -->
<!DOCTYPE svg PUBLIC "-//W3C//DTD SVG 1.1//EN" "http://www.w3.org/Graphics/SVG/1.1/DTD/svg11.dtd">
<svg version="1.1" xmlns="http://www.w3.org/2000/svg" xmlns:xlink="http://www.w3.org/1999/xlink" x="0px" y="0px" width="80px"
	 height="60px" viewBox="0 0 80 60" enable-background="new 0 0 80 60" xml:space="preserve">
<g id="Слой_47__x2B__Слой_0__x2B__Группа_1__x2B__Фигура_1_копия_2_xA0_Изображение_1_">
</g>
<g id="подвал_xA0_Изображение_1_">
</g>
<g id="Группа_179_3_">
	<g id="Группа_178_3_">
		<g id="Тень_Слой_49_xA0_Изображение_1_">
		</g>
		<g id="Слой_49_2_" enable-background="new    ">
		</g>
		<g id="Фигура_753_2_" enable-background="new    ">
		</g>
		
			<g id="Вовремя__xAB_ловить_xBB__начальные_симптомы_болезней_x2C__быстро_реагироват_1_">
		</g>
		<g id="Об_этом_наш_сервис_x21__xA0_Изображение_1_">
		</g>
	</g>
</g>
<g id="шапка_сайта_1_">
	<g id="полоска_xA0_Изображение_1_">
	</g>
	<g id="Группа_176_1_">
		<g id="ЛОГО_копия_2_xA0_Изображение_1_">
		</g>
		<g id="иконки_1_">
			<g id="диалоги_1_">
				<g id="Фигура_577_копия_22_xA0_Изображение_1_">
				</g>
				<g id="_x31__2_">
				</g>
				<g id="вам_письмо_xA0_Изображение_1_">
				</g>
			</g>
			<g id="мой_жираф_2_">
				<g id="мой_жираф_xA0_Изображение_1_">
				</g>
			</g>
			<g id="Изображение_xA0_49_1_" display="none">
			</g>
		</g>
		<g id="поиск__x2B__добавить_1_">
			<g id="поиск_1_">
				<g id="Фигура_561_xA0_Изображение_1_">
				</g>
				<g id="Поиск_xA0_Изображение_1_">
				</g>
			</g>
		</g>
		<g id="Вход_xA0_Изображение_1_">
		</g>
		<g id="Регистрация_xA0_Изображение_1_">
		</g>
	</g>
</g>
<g id="Я_здесь:___Главная___x3E_______________x3E___Справочник_детских_болезне_1_">
</g>
<g id="Векторный_смарт-объект_xA0_Изображение_1_">
</g>
<g id="Изображение_xA0_69_1_" display="none" opacity="0.4314">
</g>
<g id="категории_1_">
	<g id="_x31__1_">
		<g id="Врождённый_порок_сердца_Ревматическая_хорея_Лимфаденит_1_">
		</g>
		<g id="hand_копия_8_xA0_Изображение_1_">
		</g>
		<g id="Болезни_кровообращения_xA0_Изображение_1_">
		</g>
	</g>
	<g id="_x32__1_">
		
			<g id="Гастрит_Дуоденит_Географический_язык_Дискинезия_желчевыводящих_1_">
		</g>
		<g id="Гастроэнтерология_xA0_Изображение_1_">
		</g>
		<g id="Группа_179_2_">
		</g>
	</g>
	<g id="_x33__1_">
		<g id="Анемия_Гемофилия_Лейкоз_Тромбоцитопения_1_">
		</g>
		<g id="Гематология_xA0_Изображение_1_">
		</g>
		<g id="Группа_14_1_">
		</g>
	</g>
	<g id="_x31__копия_3_">
		<g id="Рахит_x0D__x0D__x0D__x0D__x0D__x0D_">
		</g>
		<g id="Гиповитаминозы_xA0_Изображение_1_">
		</g>
		<g id="_x31__копия_37_1_">
		</g>
	</g>
	<g id="_x32__копия_1_">
		
			<g id="Гипотиреоз_Тиреотоксикоз_Сахарный_диабет_Тиреоидит_Ожирение_Син_1_">
		</g>
		<g id="Эндокринология_xA0_Изображение_1_">
		</g>
		<g id="Группа_19_1_">
		</g>
	</g>
	<g id="_x33__копия_1_">
		
			<g id="Лямблиоз_Грибковые_заболевания_Гельминтозы_Педикулёз_Чесотка_1_">
		</g>
		<g id="Паразитология_xA0_Изображение_1_">
		</g>
		<g id="Группа_21_копия_1_">
		</g>
	</g>
	<g id="_x31__копия_2_1_">
		
			<g id="Коклюш_Ветряная_оспа_Корь_Краснуха_Эпидемический_паротит_Скарла_1_">
		</g>
		<g id="Детские_инфекции_xA0_Изображение_1_">
		</g>
		<g id="Группа_20_1_">
		</g>
	</g>
	<g id="_x32__копия_2_1_">
		
			<g id="Гастрит_Дуоденит_Географический_язык_Дискинезия_желчевыводящих__копия_1_">
		</g>
		<g id="Дерматология_xA0_Изображение_1_">
		</g>
		<g id="Группа_13_1_">
		</g>
	</g>
	<g id="_x32__копия_5_1_">
		<g id="Пупочная_грыжа_Аппендицит_Мозоль_Острый_панкреатит_1_">
		</g>
		<g id="Хирургия_xA0_Изображение_1_">
		</g>
	</g>
	<g id="_x32__копия_6_1_">
		
			<g id="Коньюнктивит_Ячмень_Близорукость_Дакриоаденит_Дальнозоркость_Ас_1_">
		</g>
		<g id="Офтальмология_xA0_Изображение_1_">
		</g>
		<g id="Фигура_356">
			<g>
				<path fill-rule="evenodd" clip-rule="evenodd" fill="#5EA5E6" d="M73.593,20.977c-0.772-1.787-2.003-2.077-2.674-2.093
					c-2.288-0.06-5.09,2.869-7.466,7.808c-0.831,1.716-1.548,3.549-2.136,5.421c-1.985-2.228-4.875-3.636-8.096-3.636
					c-3.886,0-7.286,2.04-9.207,5.109c-1.295-1.98-3.316-3.266-5.587-3.266c-2.26,0-4.272,1.273-5.572,3.239
					c-1.916-3.05-5.315-5.081-9.184-5.081c-1.952,0-3.781,0.519-5.366,1.422c0.358-0.917,0.74-1.811,1.149-2.66
					c2.251-4.683,4.584-6.806,5.816-6.806c0,0,0.009,0,0.019,0.003c0.161,0.002,0.652,0.011,1.084,1.017
					c0.193,0.45,0.712,0.657,1.163,0.464c0.454-0.193,0.657-0.714,0.463-1.162c-0.767-1.787-2.003-2.077-2.673-2.09
					c-2.279-0.049-5.09,2.866-7.47,7.805c-0.836,1.739-1.562,3.599-2.15,5.497c-1.787,1.934-2.876,4.518-2.876,7.355
					c0,5.993,4.852,10.845,10.842,10.845c5.991,0,10.842-4.852,10.842-10.845c0-1.124-0.165-2.208-0.487-3.228
					c0.781-2.102,2.458-3.558,4.401-3.558c1.957,0,3.648,1.484,4.42,3.611c-0.304,1.004-0.473,2.074-0.473,3.174
					c0,5.993,4.855,10.845,10.846,10.845c5.982,0,10.842-4.852,10.842-10.845c0-1.96-0.524-3.799-1.433-5.386
					c0.62-2.238,1.451-4.477,2.416-6.476c2.251-4.684,4.586-6.807,5.812-6.807c0.005,0,0.013,0,0.023,0
					c0.161,0.002,0.652,0.016,1.085,1.022c0.193,0.448,0.716,0.655,1.162,0.464C73.574,21.947,73.786,21.423,73.593,20.977z
					 M20.732,47.391c-3.4-1.206-5.835-4.449-5.835-8.267c0-4.397,3.239-8.042,7.47-8.669c-3.179,1.762-5.324,5.143-5.324,9.03
					C17.042,42.659,18.476,45.499,20.732,47.391z M50.351,47.502c-3.405-1.206-5.835-4.45-5.835-8.265
					c0-4.399,3.243-8.044,7.466-8.669c-3.17,1.759-5.32,5.142-5.32,9.026C46.661,42.772,48.095,45.609,50.351,47.502z"/>
			</g>
		</g>
	</g>
	<g id="_x32__копия_7_1_">
		
			<g id="Коньюнктивит_Ячмень_Близорукость_Дакриоаденит_Дальнозоркость_Ас_копия_1_">
		</g>
		<g id="Урология_xA0_Изображение_1_">
		</g>
	</g>
	<g id="_x33__копия_2_1_">
		<g id="Анемия_Гемофилия_Лейкоз_Тромбоцитопения_______копия_2_1_">
		</g>
		<g id="Нервология_xA0_Изображение_1_">
		</g>
	</g>
	<g id="_x33__копия_4_1_">
		<g id="Бронхит_x0D_Пневмония_x0D__x0D__x0D__x0D__x0D__x0D_">
		</g>
		<g id="Пульмонология_xA0_Изображение_1_">
		</g>
	</g>
	<g id="_x33__копия_5_1_">
		
			<g id="Компьютерная_зависимость_Нервный_стресс_Умственная_отсталость_Ш_1_">
		</g>
		<g id="Психиатрия_xA0_Изображение_1_">
		</g>
		<g id="Группа_18_1_">
		</g>
	</g>
	<g id="_x31__копия_3_1_">
		<g id="Гемангиома_x0D_Мастоцитома_x0D__x0D__x0D__x0D__x0D__x0D_">
		</g>
		<g id="Онкология_xA0_Изображение_1_">
		</g>
		<g id="Группа_17_1_">
		</g>
	</g>
	<g id="_x32__копия_3_1_">
		
			<g id="Трахеит_Ларингит_Острый_ринит_Тонзиллит_Синусит_Острый_фарингит_1_">
		</g>
		<g id="Оториноларингология_xA0_Изображение_1_">
		</g>
		<g id="Группа_11_1_">
		</g>
	</g>
	<g id="_x32__копия_4_1_">
		
			<g id="Дизентерия_Амёбиаз_Холера_Кишечные_инфекции_x2C__вызванные_условно-_1_">
		</g>
		<g id="Инфекции_xA0_Изображение_1_">
		</g>
		<g id="_x31__копия_2_">
		</g>
	</g>
	<g id="_x33__копия_3_1_">
		<g id="Стоматит_Нарушение_прорезывания_зубов_1_">
		</g>
		<g id="Стоматология_xA0_Изображение_1_">
		</g>
		<g id="Фигура_361_xA0_Изображение_1_">
		</g>
	</g>
</g>
<g id="Существует_такой_термин__x2013___xAB_детские_болезни_xBB_._Раз_он_есть_x2C__значи_xA0_Изображение_1_">
</g>
<g id="Группа_178_2_">
	<g id="Слой_50_2_" enable-background="new    ">
	</g>
	
		<g id="Детский_организм_работает_совсем_иначе_x2C__нежели_взрослый._Посмот_xA0_Изображение_1_">
	</g>
</g>
<g id="Справочник_детских_болезней_xA0_Изображение_1_">
</g>
<g id="Изображение_xA0_276_xA0_Изображение_1_" display="none" opacity="0.149">
	
		<image display="inline" overflow="visible" width="940" height="3004" id="Изображение_xA0_276_xA0_Изображение" xlink:href="DB56B387.png"  transform="matrix(1 0 0 1 -27.3333 -2476)">
	</image>
</g>
</svg>
