<?xml version="1.0" encoding="utf-8"?>
<!-- Generator: Adobe Illustrator 17.1.0, SVG Export Plug-In . SVG Version: 6.00 Build 0)  -->
<!DOCTYPE svg PUBLIC "-//W3C//DTD SVG 1.1//EN" "http://www.w3.org/Graphics/SVG/1.1/DTD/svg11.dtd">
<svg version="1.1" xmlns="http://www.w3.org/2000/svg" xmlns:xlink="http://www.w3.org/1999/xlink" x="0px" y="0px" width="80px"
	 height="60px" viewBox="0 0 80 60" enable-background="new 0 0 80 60" xml:space="preserve">
<g id="Слой_47__x2B__Слой_0__x2B__Группа_1__x2B__Фигура_1_копия_2_xA0_Изображение_1_">
</g>
<g id="подвал_xA0_Изображение_1_">
</g>
<g id="Группа_179_3_">
	<g id="Группа_178_3_">
		<g id="Тень_Слой_49_xA0_Изображение_1_">
		</g>
		<g id="Слой_49_2_" enable-background="new    ">
		</g>
		<g id="Фигура_753_2_" enable-background="new    ">
		</g>
		
			<g id="Вовремя__xAB_ловить_xBB__начальные_симптомы_болезней_x2C__быстро_реагироват_1_">
		</g>
		<g id="Об_этом_наш_сервис_x21__xA0_Изображение_1_">
		</g>
	</g>
</g>
<g id="шапка_сайта_1_">
	<g id="полоска_xA0_Изображение_1_">
	</g>
	<g id="Группа_176_1_">
		<g id="ЛОГО_копия_2_xA0_Изображение_1_">
		</g>
		<g id="иконки_1_">
			<g id="диалоги_1_">
				<g id="Фигура_577_копия_22_xA0_Изображение_1_">
				</g>
				<g id="_x31__2_">
				</g>
				<g id="вам_письмо_xA0_Изображение_1_">
				</g>
			</g>
			<g id="мой_жираф_2_">
				<g id="мой_жираф_xA0_Изображение_1_">
				</g>
			</g>
			<g id="Изображение_xA0_49_1_" display="none">
			</g>
		</g>
		<g id="поиск__x2B__добавить_1_">
			<g id="поиск_1_">
				<g id="Фигура_561_xA0_Изображение_1_">
				</g>
				<g id="Поиск_xA0_Изображение_1_">
				</g>
			</g>
		</g>
		<g id="Вход_xA0_Изображение_1_">
		</g>
		<g id="Регистрация_xA0_Изображение_1_">
		</g>
	</g>
</g>
<g id="Я_здесь:___Главная___x3E_______________x3E___Справочник_детских_болезне_1_">
</g>
<g id="Векторный_смарт-объект_xA0_Изображение_1_">
</g>
<g id="Изображение_xA0_69_1_" display="none" opacity="0.4314">
	<g id="Фигура_752" display="inline" opacity="0.302">
		<g>
			<rect x="-8" y="-653.885" fill-rule="evenodd" clip-rule="evenodd" fill="#66508C" width="198" height="671"/>
		</g>
	</g>
</g>
<g id="категории_1_">
	<g id="_x31__1_">
		<g id="Врождённый_порок_сердца_Ревматическая_хорея_Лимфаденит_1_">
		</g>
		<g id="hand_копия_8_xA0_Изображение_1_">
		</g>
		<g id="Болезни_кровообращения_xA0_Изображение_1_">
		</g>
	</g>
	<g id="_x32__1_">
		
			<g id="Гастрит_Дуоденит_Географический_язык_Дискинезия_желчевыводящих_1_">
		</g>
		<g id="Гастроэнтерология_xA0_Изображение_1_">
		</g>
		<g id="Группа_179_2_">
		</g>
	</g>
	<g id="_x33__1_">
		<g id="Анемия_Гемофилия_Лейкоз_Тромбоцитопения_1_">
		</g>
		<g id="Гематология_xA0_Изображение_1_">
		</g>
		<g id="Группа_14_1_">
		</g>
	</g>
	<g id="_x31__копия_3_">
		<g id="Рахит_x0D__x0D__x0D__x0D__x0D__x0D_">
		</g>
		<g id="Гиповитаминозы_xA0_Изображение_1_">
		</g>
		<g id="_x31__копия_37_1_">
		</g>
	</g>
	<g id="_x32__копия_1_">
		
			<g id="Гипотиреоз_Тиреотоксикоз_Сахарный_диабет_Тиреоидит_Ожирение_Син_1_">
		</g>
		<g id="Эндокринология_xA0_Изображение_1_">
		</g>
		<g id="Группа_19_1_">
		</g>
	</g>
	<g id="_x33__копия_1_">
		
			<g id="Лямблиоз_Грибковые_заболевания_Гельминтозы_Педикулёз_Чесотка_1_">
		</g>
		<g id="Паразитология_xA0_Изображение_1_">
		</g>
		<g id="Группа_21_копия_1_">
		</g>
	</g>
	<g id="_x31__копия_2_1_">
		
			<g id="Коклюш_Ветряная_оспа_Корь_Краснуха_Эпидемический_паротит_Скарла_1_">
		</g>
		<g id="Детские_инфекции_xA0_Изображение_1_">
		</g>
		<g id="Группа_20_1_">
			<g id="Фигура_754_1_">
				<g>
					<path fill-rule="evenodd" clip-rule="evenodd" fill="#FE8BC0" d="M53.157,23.789C52.303,16.958,40.465,8.001,32.236,8.214
						C14.51,7.644,8.327,24.003,8.327,24.003c-2.994,0.36-6.645,3.761-6.618,7.045c0.025,2.995,2.775,5.337,5.764,6.404
						C8.967,46.418,17.58,56.22,31.456,56.22c16.865-0.214,22.128-14.926,22.768-18.769c4.056-1.281,5.405-4.697,5.405-7.472
						C59.629,27.205,57.934,24.64,53.157,23.789z M52.303,34.463c-1.921,12.809-11.807,19.492-20.986,19.705
						C16.391,54.233,10.239,40.37,9.821,35.744c-2.135-0.641-5.169-2.337-5.123-5.55c0.042-2.972,4.271-4.277,6.618-4.697
						c4.7-13.811,17.562-15.554,19.855-14.66c3.553,0,6.289,7.106,5.008,9.667c-1.281,2.562-5.65,2.431-7.572,0.937
						c-1.921-1.494-1.133-4.335,0.789-4.762c1.921-0.427,2.841,1.56,1.773,2.414c-1.067,0.854-0.64,1.503-0.213,1.717
						c2.135,1.281,4.269-1.717,2.775-3.851c-3.455-5.969-9.129-1.471-9.179,1.708c-0.045,2.81,1.708,6.831,7.045,6.404
						c8.539-0.854,9.061-9.424,4.648-13.449c8.353,1.935,13.941,9.043,14.778,14.728c4.917-0.143,5.977,2.35,5.977,4.485
						C56.999,32.969,54.438,33.823,52.303,34.463z"/>
				</g>
			</g>
			<g id="Фигура_755_1_">
				<g>
					<path fill-rule="evenodd" clip-rule="evenodd" fill="#FE84BD" d="M31.71,40.006c-3.659,0-7.05,4.148-7.05,4.148
						c0,1.291,1.579,1.65,2.153,0.717c0.574-0.933,2.881-2.857,4.89-2.857c2.009,0,3.657,1.35,4.733,2.354
						c1.076,1.004,1.65,0.502,1.65-0.789C37.154,41.715,34.999,40.006,31.71,40.006z"/>
				</g>
			</g>
			<g id="Фигура_419_1_">
				<g>
					<path fill-rule="evenodd" clip-rule="evenodd" fill="#BCBCBD" d="M77.967,38.667l0.069-28.773c0-0.899-1.82-2.87-2.856-2.87
						L66.831,7.14c-0.899,0-2.87,1.956-2.87,2.719l-0.068,28.772c-0.001,0.19-0.012,0.376,0.024,0.556l-0.023,0.053
						c0.017,0.019,0.062,0.04,0.079,0.059c0.169,0.714,0.603,1.326,1.197,1.721c0.3,0.519,1.104,1.48,1.353,2.044l9.327,0.025
						c0.252-0.565,0.527-1.522,0.828-2.04c0.596-0.394,1.129-1.003,1.302-1.717c0.017-0.019-0.03-0.04-0.014-0.059l0.04-0.052
						C78.042,39.042,77.967,38.857,77.967,38.667z"/>
				</g>
			</g>
			<g id="Фигура_419_копия_2_1_">
				<g>
					<path fill-rule="evenodd" clip-rule="evenodd" fill="#999999" d="M74.041,50.175l-6.026-0.014
						c0.012,1.146,0.017,2.583,0.017,2.583c-0.003,1.395,1.988,2.529,3.384,2.533c1.394,0.003,2.59-1.126,2.594-2.52
						C74.011,52.757,73.973,51.196,74.041,50.175z"/>
				</g>
			</g>
			<g id="Фигура_419_копия_1_">
				<g>
					<path fill-rule="evenodd" clip-rule="evenodd" fill="#BEBEBF" d="M65.572,44.029c1.243,3.052,1.829,3.676,2.044,5.143
						l6.443,0.012c0.22-1.466,0.824-2.086,2.081-5.131L65.572,44.029z"/>
				</g>
			</g>
			<g id="Фигура_420_1_">
				<g>
					<path fill-rule="evenodd" clip-rule="evenodd" fill="#FFFFFF" d="M71.117,8.813c-1.503,0-5.132,2.479-5.132,3.982v24.339
						c0,1.503,3.628,3.038,5.132,3.038c1.503,0,4.91-1.534,4.91-3.038V12.796C76.027,11.293,72.62,8.813,71.117,8.813z"/>
				</g>
			</g>
			<g id="Фигура_422_1_">
				<g>
					<polygon fill-rule="evenodd" clip-rule="evenodd" fill="#F93F3E" points="70.05,23.176 70.021,36.873 71.924,36.902 
						71.953,23.205 					"/>
				</g>
			</g>
			<g id="Фигура_422_копия_1_">
				<g>
					<polygon fill-rule="evenodd" clip-rule="evenodd" fill="#4CB4FD" points="70.05,15.306 70.021,22.984 71.924,23.013 
						71.953,15.335 					"/>
				</g>
			</g>
			<g id="Фигура_423_копия_5_1_">
				<g>
					<polygon fill-rule="evenodd" clip-rule="evenodd" fill="#FEAADA" points="16.512,39.496 16.574,42.995 19.922,42.995 
						19.922,39.496 					"/>
				</g>
			</g>
			<g id="Фигура_423_копия_6_1_">
				<g>
					<polygon fill-rule="evenodd" clip-rule="evenodd" fill="#FEAADA" points="28.509,47.494 28.572,50.994 31.92,50.994 
						31.92,47.494 					"/>
				</g>
			</g>
			<g id="Фигура_423_копия_8_1_">
				<g>
					<polygon fill-rule="evenodd" clip-rule="evenodd" fill="#FEAADA" points="28.509,33.497 28.572,36.997 31.92,36.997 
						31.92,33.497 					"/>
				</g>
			</g>
			<g id="Фигура_423_копия_9_1_">
				<g>
					<polygon fill-rule="evenodd" clip-rule="evenodd" fill="#FEAADA" points="12.513,29.498 12.575,32.997 15.923,32.997 
						15.923,29.498 					"/>
				</g>
			</g>
			<g id="Фигура_423_копия_10_1_">
				<g>
					<polygon fill-rule="evenodd" clip-rule="evenodd" fill="#FEAADA" points="40.507,37.497 40.569,40.996 43.917,40.996 
						43.917,37.497 					"/>
				</g>
			</g>
			<g id="Фигура_423_копия_11_1_">
				<g>
					<polygon fill-rule="evenodd" clip-rule="evenodd" fill="#FEAADA" points="46.506,31.498 46.568,34.997 49.916,34.997 
						49.916,31.498 					"/>
				</g>
			</g>
			<g id="Фигура_756_1_">
				<g>
					<circle fill-rule="evenodd" clip-rule="evenodd" fill="#0295FC" cx="22.302" cy="30.15" r="2.591"/>
				</g>
			</g>
			<g id="Фигура_756_копия_1_">
				<g>
					<circle fill-rule="evenodd" clip-rule="evenodd" fill="#0295FC" cx="38.302" cy="30.15" r="2.591"/>
				</g>
			</g>
		</g>
	</g>
	<g id="_x32__копия_2_1_">
		
			<g id="Гастрит_Дуоденит_Географический_язык_Дискинезия_желчевыводящих__копия_1_">
		</g>
		<g id="Дерматология_xA0_Изображение_1_">
		</g>
		<g id="Группа_13_1_">
		</g>
	</g>
	<g id="_x32__копия_5_1_">
		<g id="Пупочная_грыжа_Аппендицит_Мозоль_Острый_панкреатит_1_">
		</g>
		<g id="Хирургия_xA0_Изображение_1_">
		</g>
	</g>
	<g id="_x32__копия_6_1_">
		
			<g id="Коньюнктивит_Ячмень_Близорукость_Дакриоаденит_Дальнозоркость_Ас_1_">
		</g>
		<g id="Офтальмология_xA0_Изображение_1_">
		</g>
	</g>
	<g id="_x32__копия_7_1_">
		
			<g id="Коньюнктивит_Ячмень_Близорукость_Дакриоаденит_Дальнозоркость_Ас_копия_1_">
		</g>
		<g id="Урология_xA0_Изображение_1_">
		</g>
	</g>
	<g id="_x33__копия_2_1_">
		<g id="Анемия_Гемофилия_Лейкоз_Тромбоцитопения_______копия_2_1_">
		</g>
		<g id="Нервология_xA0_Изображение_1_">
		</g>
	</g>
	<g id="_x33__копия_4_1_">
		<g id="Бронхит_x0D_Пневмония_x0D__x0D__x0D__x0D__x0D__x0D_">
		</g>
		<g id="Пульмонология_xA0_Изображение_1_">
		</g>
	</g>
	<g id="_x33__копия_5_1_">
		
			<g id="Компьютерная_зависимость_Нервный_стресс_Умственная_отсталость_Ш_1_">
		</g>
		<g id="Психиатрия_xA0_Изображение_1_">
		</g>
		<g id="Группа_18_1_">
		</g>
	</g>
	<g id="_x31__копия_3_1_">
		<g id="Гемангиома_x0D_Мастоцитома_x0D__x0D__x0D__x0D__x0D__x0D_">
		</g>
		<g id="Онкология_xA0_Изображение_1_">
		</g>
		<g id="Группа_17_1_">
		</g>
	</g>
	<g id="_x32__копия_3_1_">
		
			<g id="Трахеит_Ларингит_Острый_ринит_Тонзиллит_Синусит_Острый_фарингит_1_">
		</g>
		<g id="Оториноларингология_xA0_Изображение_1_">
		</g>
		<g id="Группа_11_1_">
		</g>
	</g>
	<g id="_x32__копия_4_1_">
		
			<g id="Дизентерия_Амёбиаз_Холера_Кишечные_инфекции_x2C__вызванные_условно-_1_">
		</g>
		<g id="Инфекции_xA0_Изображение_1_">
		</g>
		<g id="_x31__копия_2_">
		</g>
	</g>
	<g id="_x33__копия_3_1_">
		<g id="Стоматит_Нарушение_прорезывания_зубов_1_">
		</g>
		<g id="Стоматология_xA0_Изображение_1_">
		</g>
		<g id="Фигура_361_xA0_Изображение_1_">
		</g>
	</g>
</g>
<g id="Существует_такой_термин__x2013___xAB_детские_болезни_xBB_._Раз_он_есть_x2C__значи_xA0_Изображение_1_">
</g>
<g id="Группа_178_2_">
	<g id="Слой_50_2_" enable-background="new    ">
	</g>
	
		<g id="Детский_организм_работает_совсем_иначе_x2C__нежели_взрослый._Посмот_xA0_Изображение_1_">
	</g>
</g>
<g id="Справочник_детских_болезней_xA0_Изображение_1_">
</g>
<g id="Изображение_xA0_276_xA0_Изображение_1_" display="none" opacity="0.149">
	
		<image display="inline" overflow="visible" width="940" height="3004" id="Изображение_xA0_276_xA0_Изображение" xlink:href="6B612D8A.png"  transform="matrix(1 0 0 1 -38 -1149.8846)">
	</image>
</g>
</svg>
