<?xml version="1.0" encoding="utf-8"?><svg xmlns="http://www.w3.org/2000/svg" width="80" height="60" viewBox="0 0 80 60"><g fill-rule="evenodd" clip-rule="evenodd"><path fill="#24B5FC" d="M28.683 4.636l.177 11.418 1.095-.13.05-11.305z"/><path fill="#1C9BD9" d="M24.912 18.1l.117 4.363 8.17.026.02-4.38z"/><path fill="#61CCFF" d="M34.375 24.32c-3.978.094-11.106-.063-11.106-.063s-3.19-.34-3.14 3.542c.05 3.88-.017 17.24-.017 17.24s.535 2.02 1.887 2.33c2.593.193 13.403-.01 13.403-.01s1.03-.69 1.153-1.26l.05-19.054c-.003 0-.066-2.486-2.24-2.73z"/><path fill="#199AD9" d="M31.6 49.133l-6.63-.01.03 4.83 6.626.048z"/><path fill="#D1F0FF" d="M34.807 27.723c-.218-2.394-2.324-2.044-2.324-2.044s-6.2-.03-8.732-.06c-2.1.01-1.98 1.606-1.98 1.606l.01 6.942 13.2.105s.05-4.166-.167-6.56z"/><path fill="#199AD9" d="M36.62 56.158l-16.572-.115-.097 2.64 16.69.116z"/><path fill="#fff" d="M35.104 39.083L30 39.07l.125 6.696 5.01-.063zm-8.264 0l-5.105-.012.126 6.7 5.018-.06z"/><path fill="#61B6E6" d="M55.58 6.813c-2.453-3.093-3.84.64-3.84.64l-4.056 19.405.634 28.79c1.172 3.52 3.092 3.093 3.092 3.093s4.798.328 6.61.01c1.814-.32 2.454-1.814 2.454-1.814l.007-30.495S57.5 11.3 55.58 6.82zm-5.735 48.482l-.473-28.31 3.95-18.448s.373-.693.693.053c.32.747 4.048 17.276 4.048 17.276l.526 30.07-8.75-.64z"/><path fill="#4CC4FE" d="M56.89 26.72l-6.186.424.26 26.818 6.345.375z"/></g></svg>
