<?xml version="1.0" encoding="utf-8"?><svg xmlns="http://www.w3.org/2000/svg" width="80" height="60" viewBox="0 0 80 60"><g fill-rule="evenodd" clip-rule="evenodd"><ellipse fill="#F392BF" cx="48.505" cy="55.525" rx="3.595" ry="2.429"/><path fill="#FB93C3" d="M62.173 21.324c1.53-6.115-4.892-10.396-7.542-10.498-1.017-4.586-6.93-5.708-8.865-4.994-1.53-3.057-9.173-2.548-11.72-.408-1.02-1.223-7.747-1.63-10.193 3.262-2.853-1.53-9.376 2.243-9.58 6.013-5.91.51-6.012 8.967-4.076 12.024-1.325 9.58 11.517 9.784 15.084 8.56 2.956 8.053 11.11 4.282 11.11 4.282l9.274 12.74L50.35 52s-2.548-7.133-3.26-8.458c15.287 2.65 17.02-11.517 14.47-14.065 2.856-1.223 2.346-6.42.613-8.153z"/></g></svg>