<?xml version="1.0" encoding="utf-8"?>
<!-- Generator: Adobe Illustrator 17.1.0, SVG Export Plug-In . SVG Version: 6.00 Build 0)  -->
<!DOCTYPE svg PUBLIC "-//W3C//DTD SVG 1.1//EN" "http://www.w3.org/Graphics/SVG/1.1/DTD/svg11.dtd">
<svg version="1.1" id="Слой_1" xmlns="http://www.w3.org/2000/svg" xmlns:xlink="http://www.w3.org/1999/xlink" x="0px" y="0px"
	 width="80px" height="60px" viewBox="132.5 477 80 60" enable-background="new 132.5 477 80 60" xml:space="preserve">
<g id="Слой_x0020_1">
	<path fill="#4BC3FE" d="M161.3,533c-0.3-1.1-7.6-26.3-7.6-39.8c0-4.3,1.2-6.8,2.8-8.3c2.8-2.7,5.6-4.1,9-4.1c2.4,0,4.9,0.7,7.6,2.1
		c2.8-1.5,5.5-2.2,7.9-2.2c3,0,5.6,1.2,7.3,3.4c1.7,2.1,2.6,5.2,2.6,8.8c0,0.6,0,1.3-0.1,2c-0.8,10.1-6.4,36.5-6.7,37.6
		c-0.3,1.2-1.5,2.1-2.8,2.1s-2.1-0.5-2.6-1.3c-0.4-0.6-0.6-1.5-1.1-4.4c-0.5-2.8-1.1-6.7-2.2-9.9c-1-3-2.2-4.7-3.2-4.7
		c-0.9,0-1.9,1.7-2.7,4.5c-0.8,3.1-1.3,7-1.6,9.9c-0.4,3.3-0.5,4.4-1,5.1c-0.1,0.1-0.2,0.2-0.3,0.3c-0.5,0.4-1.6,0.7-2.3,0.7
		C163.1,534.8,161.6,534.2,161.3,533L161.3,533z"/>
	<path fill="#FFFFFF" d="M164.1,532.1C164.1,532.1,164.1,532.1,164.1,532.1C164.1,532.1,164.1,532.1,164.1,532.1z M181.1,531.6
		C181.1,531.6,181.1,531.6,181.1,531.6L181.1,531.6z M181.1,531.6C181.1,531.6,181.1,531.6,181.1,531.6
		C181.1,531.6,181.1,531.6,181.1,531.6z M164,531.6c-1.4-4-7.6-26.5-7.6-38.3c-0.1-3.6,0.8-4.9,1.7-6.1c1.9-2.5,4.5-3.3,7.1-3.3
		c2.1,0,4.3,0.7,6.8,2.1c0.2,0.1,0.5,0.2,0.8,0.2c0.3,0,0.5-0.1,0.8-0.2c2.6-1.4,5.1-2.2,7.1-2.2c2.1,0,3.7,0.7,4.9,2.2
		c1.2,1.6,1.9,3.9,1.9,6.8c0,0.6,0,1.1-0.1,1.7c-0.7,9.1-5.6,32.6-6.5,36.6c0,0,0,0,0,0c-0.1-0.7-0.3-1.8-0.5-2.8
		c-1.2-6.9-2.9-17.2-8.4-17.2c-3.9,0-5.3,5.1-5.7,6.8C165.4,521.1,164.2,530.9,164,531.6L164,531.6z"/>
	<path fill="#4BC3FE" d="M158.6,492.2c0,0,0.7-4.5,5.2-6c4.5-1.5,5,1.5,2.3,2c-2.7,0.5-5.1,4.6-5.5,6.3S157.7,496,158.6,492.2
		L158.6,492.2z"/>
</g>
</svg>
