<?xml version="1.0" encoding="utf-8"?><svg xmlns="http://www.w3.org/2000/svg" width="80" height="60" viewBox="0 0 80 60"><g fill-rule="evenodd" clip-rule="evenodd"><path fill="#99CDFD" d="M58.334 21.817c-2.814-2.694-7.302-2.598-9.997.212-.832.864-1.39 1.89-1.697 2.97-.704-.3-1.624-.763-2.38-1.457-.775-.745-1.27-1.755-1.548-2.438 1.14-.34 2.203-.958 3.08-1.878 2.696-2.816 2.6-7.304-.22-10-2.812-2.694-7.297-2.598-9.996.215-2.7 2.815-2.603 7.302.215 9.998 1.074 1.027 2.39 1.65 3.755 1.868L14.388 53.4c-.322.418-.284 1.025.102 1.393.386.366.99.386 1.4.038l30.683-26.26c.3 1.28.964 2.49 1.98 3.467 2.813 2.69 7.302 2.594 9.997-.22 2.695-2.814 2.598-7.303-.216-9.998zM37.23 17.942c-1.984-1.905-2.052-5.067-.148-7.056 1.897-1.98 5.068-2.048 7.047-.152 1.986 1.905 2.054 5.067.153 7.056-1.9 1.99-5.07 2.058-7.055.152zM22.505 46.43L41.13 22.673c.383.764.93 1.646 1.693 2.374l.1.1c.802.736 1.75 1.26 2.548 1.626L22.508 46.43zm34.542-16.054c-1.9 1.988-5.068 2.056-7.056.152-1.06-1.023-1.56-2.408-1.51-3.78.058-.17.07-.348.04-.53.14-.998.57-1.965 1.32-2.745 1.906-1.985 5.07-2.053 7.057-.152 1.99 1.907 2.058 5.07.152 7.058z"/><path fill="#ADABAB" d="M42.817 37.42c-.193-.193-.363-.35-.508-.5.214-.576.182-1.125-.14-1.452l-24.614-24.61c-.553-.55-1.722-.274-2.62.625-.9.896-1.183 2.073-.627 2.62l24.61 24.612c.315.314.83.35 1.38.168 5.372 4 4.114 11.015 9.494 14.72 1.8 1.244 4.775 2.277 7.772 2.046 1.48-.115 2.948-1.25 2.948-1.25-5.32-6.654-10.644-11.97-17.698-16.98zm7.017 15.45c-4.275-3.985-3.436-10.324-8.502-13.825l.524-.488c4.928 3.497 4.295 9.523 8.53 13.474 1.762 1.38 5.02 2.48 7.844 1.81l.508.5c-3.02 1.29-6.92.09-8.904-1.467z"/></g></svg>