<?xml version="1.0" encoding="utf-8"?><svg xmlns="http://www.w3.org/2000/svg" width="80" height="60" viewBox="0 0 80 60"><g fill-rule="evenodd" clip-rule="evenodd"><path fill="#FEAE50" d="M64.832 22.59c-1.556-7.088-13.83-6.57-13.83-6.57l.174-12.446-5.36-1.383c-1.036 16.25-5.53 31.637-8.642 33.71-1.556-2.073-5.877-.69-5.877-.69s-2.42-4.84-3.976-6.57c-1.553-1.73-4.664-1.73-6.74-1.73-2.073 0-5.704 3.115-6.914 5.535S10.9 40.222 11.59 47.137s8.644 11.928 8.644 11.928l2.94-6.57s-2.076-1.555-3.458-3.283c-1.383-1.728-1.73-4.148-1.73-6.05s1.038-5.185 2.42-6.568c1.384-1.383 1.903 0 1.903 0s3.63 8.47 6.05 11.41c2.42 2.938 6.394 5.703 11.753 6.222 5.36.52 12.1-.52 18.15-8.124 6.05-7.608 8.125-16.423 6.57-23.51z"/><path fill="#fff" d="M61.058 23.498c-2.353-4.47-12.94-4.94-12.94-4.94l-3.293 8.705-1.647 4.94h17.88s2.352-4.235 0-8.705z"/></g></svg>