<?xml version="1.0" encoding="utf-8"?><svg xmlns="http://www.w3.org/2000/svg" width="80" height="60" viewBox="0 0 80 60"><path fill-rule="evenodd" clip-rule="evenodd" fill="#5EA5E6" d="M73.593 20.977c-.772-1.787-2.003-2.077-2.674-2.093-2.29-.06-5.09 2.87-7.47 7.808-.83 1.716-1.547 3.55-2.135 5.42-1.985-2.227-4.875-3.635-8.096-3.635-3.886 0-7.286 2.04-9.207 5.11-1.295-1.98-3.316-3.267-5.587-3.267-2.26 0-4.272 1.273-5.572 3.24-1.916-3.05-5.315-5.082-9.184-5.082-1.95 0-3.78.52-5.364 1.422.358-.917.74-1.81 1.15-2.66 2.25-4.683 4.583-6.806 5.815-6.806 0 0 .01 0 .02.003.16.002.65.01 1.085 1.017.193.45.712.657 1.163.464.454-.193.657-.714.463-1.162-.767-1.787-2.003-2.077-2.673-2.09-2.28-.05-5.09 2.866-7.47 7.805-.836 1.74-1.562 3.6-2.15 5.5-1.787 1.934-2.876 4.518-2.876 7.355 0 5.993 4.853 10.845 10.843 10.845s10.842-4.853 10.842-10.846c0-1.124-.165-2.208-.487-3.228.78-2.102 2.458-3.558 4.4-3.558 1.958 0 3.65 1.484 4.42 3.61-.303 1.005-.472 2.075-.472 3.175 0 5.993 4.855 10.845 10.846 10.845 5.984 0 10.844-4.852 10.844-10.845 0-1.96-.524-3.8-1.433-5.386.62-2.238 1.45-4.477 2.417-6.476 2.25-4.682 4.586-6.805 5.812-6.805.004 0 .012 0 .022 0 .162.002.653.016 1.086 1.022.193.448.716.655 1.162.464.446-.192.658-.716.465-1.162zM20.733 47.39c-3.4-1.205-5.836-4.448-5.836-8.266 0-4.397 3.24-8.042 7.47-8.67-3.18 1.763-5.324 5.144-5.324 9.03 0 3.175 1.433 6.015 3.69 7.907zm29.618.112c-3.402-1.206-5.832-4.45-5.832-8.265 0-4.4 3.243-8.044 7.466-8.67-3.17 1.76-5.32 5.143-5.32 9.027 0 3.178 1.433 6.015 3.69 7.908z"/></svg>