<?xml version="1.0" encoding="utf-8"?><svg xmlns="http://www.w3.org/2000/svg" width="80" height="60" viewBox="0 0 80 60"><g fill-rule="evenodd" clip-rule="evenodd"><path fill="#EE5F20" d="M32.045 34.747c-2.472-5.083-11.61-20.1-11.61-20.1-.976 3.9-8.643 13.6-10.592 16.31-1.95 2.707-5.198 10.396-2.924 15.812 2.27 5.41 7.9 8.332 11.58 8.44 3.683.11 6.5-.324 11.156-4.44 4.657-4.116 4.422-11.837 2.383-16.03zm-13.15 16.265c-9.033-1.932-8.51-11.824-8.51-11.824.107-1.083 2.706-1.3 2.815.108.217 6.932 5.957 9.206 6.823 9.64 1.268.768.33 2.574-1.128 2.076z"/><path fill="#77C0FE" d="M51.992 4.175c-8.955-1.85-17.714 3.91-19.563 12.866-1.85 8.96 4 17.25 12.96 19.1 8.952 1.85 17.614-3.44 19.464-12.394C66.704 14.79 60.944 6.03 51.99 4.18zM61.2 23.02c-1.43 6.92-8.126 11.02-15.046 9.592-6.92-1.43-11.444-7.846-10.014-14.766 1.43-6.92 8.197-11.37 15.117-9.942 6.92 1.43 11.37 8.197 9.942 15.117z"/><path fill="#55B1FF" d="M60.347 36.022l-8.464 2.9 4.34 13.715s3.425 2.51 6.003 1.605c2.577-.904 2.693-4.37 2.693-4.37l-4.58-13.85z"/></g></svg>