<?xml version="1.0" encoding="utf-8"?><svg xmlns="http://www.w3.org/2000/svg" width="80" height="60" viewBox="0 0 80 60"><g fill-rule="evenodd" clip-rule="evenodd"><path fill="#74BA5B" d="M12.914 9.488l-.28 12.92s6.32 2.67 13.34 2.53c7.023-.142 12.22-2.81 12.22-2.81s.14-6.038.14-12.64c-11.376-8.707-25.42 0-25.42 0z"/><path fill="#9FD2F8" d="M12.633 26.605v25.7s3.09 5.62 12.64 5.62 12.92-5.197 12.92-5.197.282-20.224.282-27.386c-7.865 4.774-25.842 1.263-25.842 1.263z"/><path fill="#FA753B" d="M64.966 42.054H48.674c-4.188 0-7.584 3.395-7.584 7.584 0 4.188 3.396 7.584 7.584 7.584h16.292c4.188 0 7.584-3.396 7.584-7.584 0-4.19-3.396-7.584-7.584-7.584z"/><path fill="#FFFEFF" d="M70.496 48.514c-.14-4.073-6.18-5.056-6.18-5.056h-7.724l-.28 11.798s4.914 0 8.566 0c3.652 0 5.758-2.67 5.618-6.742z"/><path fill="#F9D00F" d="M72.134 22.856c-1.693-3.83-6.17-5.564-10.002-3.872L47.23 25.57c-3.83 1.692-5.564 6.17-3.87 10 1.692 3.832 6.17 5.565 10 3.873l14.902-6.585c3.832-1.693 5.566-6.17 3.872-10.002z"/><path fill="#FFFEFF" d="M69.802 22.66c-1.775-3.67-7.696-2.128-7.696-2.128l-7.065 3.122 4.515 10.904s4.496-1.987 7.836-3.463 4.187-4.768 2.413-8.436z"/></g></svg>