<?xml version="1.0" encoding="utf-8"?><svg baseProfile="full" xmlns="http://www.w3.org/2000/svg" height="58" width="58"><path fill="rgb( 250, 138, 15 )" d="M29.43.774c15.722 0 28.467 12.745 28.467 28.468 0 15.722-12.745 28.467-28.467 28.467C13.707 57.71.962 44.963.962 29.24.962 13.52 13.707.774 29.43.774z"/><path fill="rgb( 255, 255, 255 )" d="M38.5 34.744s.067.108.067.108-1.98 1.356-5.21 2.058c0 0 5.166 4.723 5.166 4.723.11.085.21.178.305.28 0 0 .03.026.03.026s-.003 0-.003 0c.402.445.654 1.028.673 1.673.04 1.436-1.09 2.634-2.526 2.675-.94.027-1.78-.45-2.258-1.186 0 0-4.552-4.15-4.552-4.15s-5.098 5.126-5.098 5.126-.037-.037-.037-.037c-.438.38-1.005.617-1.63.636-1.435.04-2.633-1.09-2.674-2.526-.027-.948.456-1.79 1.2-2.268 0 0 4.615-4.805 4.615-4.805-1.545-.26-3.19-.737-4.903-1.522 0 0 .024-.07.024-.07-1.055-.31-1.838-1.267-1.87-2.424-.042-1.435 1.09-2.632 2.525-2.673.69-.02 1.324.23 1.802.656 1.89.794 6.774 2.317 11.457-.602.425-.34.96-.548 1.546-.565 1.436-.04 2.634 1.09 2.675 2.526.028 1-.51 1.885-1.326 2.344zm-8.585-4.926c-4.94.14-9.06-3.752-9.202-8.692-.14-4.94 3.75-9.06 8.69-9.202 4.94-.14 9.062 3.75 9.203 8.69.14 4.942-3.75 9.062-8.69 9.204z"/><path fill="rgb( 250, 138, 15 )" d="M29.53 17.382c-1.94.056-3.227 1.668-3.172 3.61.056 1.94 1.675 3.47 3.616 3.414 1.94-.056 3.47-1.675 3.415-3.616-.057-1.94-1.676-3.47-3.617-3.415 0 0-.243.007-.243.007z"/></svg>