<?xml version="1.0" encoding="utf-8"?>
<!DOCTYPE svg PUBLIC "-//W3C//DTD SVG 1.1//EN" "http://www.w3.org/Graphics/SVG/1.1/DTD/svg11.dtd">
<svg version="1.1" baseProfile="full"
 xmlns="http://www.w3.org/2000/svg"
 xmlns:xlink="http://www.w3.org/1999/xlink"
 xmlns:ev="http://www.w3.org/2001/xml-events" 
  height="58px" 
  width="58px" 
>
<path fill="rgb( 224, 224, 224 )"
 d="M29.43,0.774 C45.152,0.774 57.897,13.519 57.897,29.242 C57.897,44.9640000000001 45.152,57.7089999999999 29.43,57.7089999999999 C13.707,57.7089999999999 0.96199999999999,44.9640000000001 0.96199999999999,29.242 C0.96199999999999,13.519 13.707,0.774 29.43,0.774 Z "/>
<path fill="rgb( 255, 255, 255 )"
 d="M38.499,34.744 C38.499,34.744 38.567,34.852 38.567,34.852 C38.567,34.852 36.587,36.208 33.3579999999999,36.91 C33.3579999999999,36.91 38.523,41.633 38.523,41.633 C38.6319999999999,41.718 38.734,41.811 38.828,41.912 C38.828,41.912 38.8579999999999,41.939 38.8579999999999,41.939 C38.8579999999999,41.939 38.855,41.941 38.855,41.941 C39.2569999999999,42.385 39.509,42.968 39.528,43.6130000000001 C39.569,45.049 38.437,46.247 37.002,46.288 C36.061,46.3150000000001 35.222,45.838 34.744,45.102 C34.744,45.102 30.192,40.952 30.192,40.952 C30.192,40.952 25.0940000000001,46.078 25.0940000000001,46.078 C25.0940000000001,46.078 25.057,46.0410000000001 25.057,46.0410000000001 C24.619,46.421 24.052,46.657 23.428,46.676 C21.992,46.716 20.794,45.585 20.753,44.15 C20.726,43.202 21.2089999999999,42.359 21.953,41.8819999999999 C21.953,41.8819999999999 26.568,37.077 26.568,37.077 C25.023,36.818 23.379,36.34 21.665,35.555 C21.665,35.555 21.689,35.484 21.689,35.484 C20.635,35.176 19.852,34.218 19.819,33.061 C19.778,31.625 20.909,30.428 22.345,30.3869999999999 C23.034,30.367 23.669,30.6180000000001 24.147,31.043 C26.038,31.837 30.921,33.36 35.604,30.441 C36.029,30.101 36.5650000000001,29.8920000000001 37.15,29.875 C38.586,29.835 39.784,30.966 39.825,32.401 C39.853,33.401 39.314,34.285 38.499,34.744 ZM29.915,29.818 C24.975,29.9589999999999 20.854,26.066 20.713,21.126 C20.572,16.187 24.4640000000001,12.066 29.404,11.924 C34.3440000000001,11.783 38.465,15.675 38.606,20.615 C38.747,25.556 34.855,29.676 29.915,29.818 Z "/>
<path fill="rgb( 224, 224, 224 )"
 d="M29.53,17.3819999999999 C27.5890000000001,17.438 26.303,19.05 26.3579999999999,20.991 C26.414,22.932 28.033,24.461 29.974,24.4059999999999 C31.915,24.35 33.444,22.731 33.389,20.79 C33.333,18.849 31.7140000000001,17.3200000000001 29.773,17.375 C29.773,17.375 29.53,17.3819999999999 29.53,17.3819999999999 Z "/>
</svg>
