<?xml version="1.0" encoding="utf-8"?>
<!DOCTYPE svg PUBLIC "-//W3C//DTD SVG 1.1//EN" "http://www.w3.org/Graphics/SVG/1.1/DTD/svg11.dtd">
<svg version="1.1" baseProfile="full"
 xmlns="http://www.w3.org/2000/svg"
 xmlns:xlink="http://www.w3.org/1999/xlink"
 xmlns:ev="http://www.w3.org/2001/xml-events" 
  height="58px" 
  width="58px" 
>
<path fill="rgb( 224, 224, 224 )"
 d="M28.95,0.69600000000003 C44.768,0.69600000000003 57.591,13.519 57.591,29.337 C57.591,45.154 44.768,57.978 28.95,57.978 C13.1319999999999,57.978 0.30899999999997,45.154 0.30899999999997,29.337 C0.30899999999997,13.519 13.1319999999999,0.69600000000003 28.95,0.69600000000003 Z "/>
<path fill="rgb( 255, 255, 255 )"
 d="M38.336,29.043 C37.538,28.182 36.475,27.612 35.148,27.333 C35.148,27.333 35.148,27.218 35.148,27.218 C36.071,26.833 36.795,26.232 37.319,25.414 C37.843,24.597 38.105,23.664 38.105,22.616 C38.105,21.712 37.915,20.913 37.5359999999999,20.221 C37.155,19.528 36.581,18.976 35.812,18.562 C35.1,18.177 34.338,17.925 33.525,17.805 C32.712,17.684 31.5170000000001,17.624 29.9400000000001,17.624 C29.9400000000001,17.624 22.352,17.624 22.352,17.624 C22.352,17.624 22.352,39.105 22.352,39.105 C22.352,39.105 30.95,39.105 30.95,39.105 C32.441,39.105 33.669,38.97 34.636,38.701 C35.602,38.432 36.49,37.98 37.298,37.345 C37.98,36.816 38.524,36.148 38.928,35.34 C39.332,34.532 39.534,33.5940000000001 39.534,32.527 C39.534,31.0650000000001 39.134,29.903 38.336,29.043 ZM32.378,24.938 C32.215,25.294 31.917,25.573 31.484,25.775 C31.0890000000001,25.958 30.707,26.059 30.337,26.078 C29.967,26.097 29.3200000000001,26.107 28.397,26.107 C28.397,26.107 27.718,26.107 27.718,26.107 C27.718,26.107 27.718,21.563 27.718,21.563 C27.718,21.563 28.0940000000001,21.563 28.0940000000001,21.563 C29.055,21.563 29.779,21.5700000000001 30.265,21.5839999999999 C30.75,21.599 31.171,21.683 31.527,21.837 C31.902,22 32.178,22.265 32.357,22.63 C32.534,22.996 32.623,23.351 32.623,23.698 C32.623,24.169 32.542,24.583 32.378,24.938 ZM33.64,33.818 C33.414,34.227 33.056,34.537 32.566,34.748 C32.008,34.989 31.46,35.119 30.921,35.138 C30.3819999999999,35.157 29.4109999999999,35.167 28.0069999999999,35.167 C28.0069999999999,35.167 27.718,35.167 27.718,35.167 C27.718,35.167 27.718,29.7859999999999 27.718,29.7859999999999 C27.718,29.7859999999999 28.7140000000001,29.7859999999999 28.7140000000001,29.7859999999999 C29.676,29.7859999999999 30.443,29.793 31.015,29.807 C31.587,29.822 32.037,29.891 32.364,30.016 C32.902,30.2089999999999 33.306,30.492 33.576,30.8680000000001 C33.845,31.2430000000001 33.98,31.7619999999999 33.98,32.426 C33.98,32.9450000000001 33.866,33.409 33.64,33.818 Z "/>
</svg>
