<?xml version="1.0" encoding="utf-8"?>
<!DOCTYPE svg PUBLIC "-//W3C//DTD SVG 1.1//EN" "http://www.w3.org/Graphics/SVG/1.1/DTD/svg11.dtd">
<svg version="1.1" baseProfile="full"
 xmlns="http://www.w3.org/2000/svg"
 xmlns:xlink="http://www.w3.org/1999/xlink"
 xmlns:ev="http://www.w3.org/2001/xml-events" 
  height="61px" 
  width="64px" 
>
<path fill="rgb( 200, 160, 225 )"
 d="M1.67999999999995,0.01200000000017 C1.67999999999995,0.01200000000017 61.37,0.01200000000017 61.37,0.01200000000017 C62.298,0.01200000000017 63.05,0.76400000000012 63.05,1.69200000000001 C63.05,1.69200000000001 63.05,59.3200000000002 63.05,59.3200000000002 C63.05,60.248 62.298,61 61.37,61 C61.37,61 1.67999999999995,61 1.67999999999995,61 C0.75199999999995,61 0,60.248 0,59.3200000000002 C0,59.3200000000002 0,1.69200000000001 0,1.69200000000001 C0,0.76400000000012 0.75199999999995,0.01200000000017 1.67999999999995,0.01200000000017 Z "/>
<path fill="rgb( 139, 101, 161 )"
 d="M31.678,5.08599999999979 C46.04,5.08599999999979 57.683,16.7280000000001 57.683,31.0900000000001 C57.683,45.4520000000002 46.04,57.0949999999998 31.678,57.0949999999998 C17.316,57.0949999999998 5.673,45.4520000000002 5.673,31.0900000000001 C5.673,16.7280000000001 17.316,5.08599999999979 31.678,5.08599999999979 Z "/>
<path fill="rgb( 255, 255, 255 )"
 d="M31.803,9.28600000000006 C43.776,9.28600000000006 53.482,18.991 53.482,30.9639999999999 C53.482,42.9369999999999 43.776,52.6419999999998 31.803,52.6419999999998 C19.831,52.6419999999998 10.125,42.9369999999999 10.125,30.9639999999999 C10.125,18.991 19.831,9.28600000000006 31.803,9.28600000000006 Z "/>
<path fill="rgb( 127, 129, 127 )"
 d="M32.678,32.056 C32.678,32.6129999999998 32.227,33.0259999999998 31.67,33.0259999999998 C31.67,33.0259999999998 20.581,33.0259999999998 20.581,33.0259999999998 C20.024,33.0259999999998 19.573,32.6129999999998 19.573,32.056 C19.573,31.4989999999998 20.024,31.009 20.581,31.009 C20.581,31.009 31.67,31.009 31.67,31.009 C32.227,31.009 32.678,31.4989999999998 32.678,32.056 Z "/>
<path fill="rgb( 129, 129, 129 )"
 d="M31.922,14.4609999999998 C32.479,14.4609999999998 32.93,14.9119999999998 32.93,15.4690000000001 C32.93,15.4690000000001 32.93,31.0940000000001 32.93,31.0940000000001 C32.93,31.6509999999998 32.479,32.1019999999999 31.922,32.1019999999999 C31.365,32.1019999999999 31.044,31.6509999999998 31.044,31.0940000000001 C31.044,31.0940000000001 31.044,15.4690000000001 31.044,15.4690000000001 C31.044,14.9119999999998 31.365,14.4609999999998 31.922,14.4609999999998 Z "/>
<path fill="rgb( 254, 105, 120 )"
 d="M31.854,29.3960000000002 C33.43,29.3960000000002 34.708,30.674 34.708,32.25 C34.708,33.826 33.43,35.1030000000001 31.854,35.1030000000001 C30.278,35.1030000000001 29,33.826 29,32.25 C29,30.674 30.278,29.3960000000002 31.854,29.3960000000002 Z "/>
<path fill="rgb( 255, 255, 255 )"
 d="M31.8680000000001,30.636 C32.751,30.636 33.467,31.3519999999999 33.467,32.2350000000001 C33.467,33.1179999999999 32.751,33.8339999999998 31.8680000000001,33.8339999999998 C30.985,33.8339999999998 30.269,33.1179999999999 30.269,32.2350000000001 C30.269,31.3519999999999 30.985,30.636 31.8680000000001,30.636 Z "/>
</svg>
