<?xml version="1.0" encoding="utf-8"?>
<!-- Generator: Adobe Illustrator 17.1.0, SVG Export Plug-In . SVG Version: 6.00 Build 0)  -->
<!DOCTYPE svg PUBLIC "-//W3C//DTD SVG 1.1//EN" "http://www.w3.org/Graphics/SVG/1.1/DTD/svg11.dtd">
<svg version="1.1" id="Слой_1" xmlns:ev="http://www.w3.org/2001/xml-events"
	 xmlns="http://www.w3.org/2000/svg" xmlns:xlink="http://www.w3.org/1999/xlink" x="0px" y="0px" width="64px" height="61px"
	 viewBox="0 0 64 61" enable-background="new 0 0 64 61" xml:space="preserve">
<path fill="#FBA328" d="M31.7,5.1c14.4,0,26,11.6,26,26s-11.6,26-26,26s-26-11.6-26-26S17.3,5.1,31.7,5.1z"/>
<path fill="#FFFFFF" d="M31.8,9.3c12,0,21.7,9.7,21.7,21.7s-9.7,21.7-21.7,21.7c-12,0-21.7-9.7-21.7-21.7S19.8,9.3,31.8,9.3z"/>
<path fill="#7F817F" d="M49.7,32.1c0,0.6-0.5,1-1,1H32.3c-0.6,0-1-0.4-1-1s0.5-1,1-1h16.3C49.2,31,49.7,31.5,49.7,32.1z"/>
<path fill="#818181" d="M31.9,19.5c0.6,0,1,0.5,1,1V32c0,0.6-0.5,1-1,1c-0.6,0-0.9-0.5-0.9-1V20.5C31,19.9,31.4,19.5,31.9,19.5z"/>
<path fill="#18A9FF" d="M31.9,29.4c1.6,0,2.9,1.3,2.9,2.9s-1.3,2.9-2.9,2.9S29,33.8,29,32.3S30.3,29.4,31.9,29.4z"/>
<path fill="#FFFFFF" d="M31.9,30.6c0.9,0,1.6,0.7,1.6,1.6c0,0.9-0.7,1.6-1.6,1.6s-1.6-0.7-1.6-1.6C30.3,31.4,31,30.6,31.9,30.6z"/>
</svg>
