<?xml version="1.0" encoding="utf-8"?>
<!DOCTYPE svg PUBLIC "-//W3C//DTD SVG 1.1//EN" "http://www.w3.org/Graphics/SVG/1.1/DTD/svg11.dtd">
<svg version="1.1" baseProfile="full"
 xmlns="http://www.w3.org/2000/svg"
 xmlns:xlink="http://www.w3.org/1999/xlink"
 xmlns:ev="http://www.w3.org/2001/xml-events" 
  height="61px" 
  width="64px" 
>
<path fill="rgb( 136, 207, 252 )"
 d="M1.67999999999995,0.01199999999994 C1.67999999999995,0.01199999999994 61.37,0.01199999999994 61.37,0.01199999999994 C62.298,0.01199999999994 63.05,0.76400000000001 63.05,1.69200000000001 C63.05,1.69200000000001 63.05,59.3200000000001 63.05,59.3200000000001 C63.05,60.248 62.298,61 61.37,61 C61.37,61 1.67999999999995,61 1.67999999999995,61 C0.75199999999995,61 0,60.248 0,59.3200000000001 C0,59.3200000000001 0,1.69200000000001 0,1.69200000000001 C0,0.76400000000001 0.75199999999995,0.01199999999994 1.67999999999995,0.01199999999994 Z "/>
<path fill="rgb( 93, 146, 206 )"
 d="M31.678,5.08600000000001 C46.04,5.08600000000001 57.683,16.728 57.683,31.09 C57.683,45.452 46.04,57.095 31.678,57.095 C17.316,57.095 5.673,45.452 5.673,31.09 C5.673,16.728 17.316,5.08600000000001 31.678,5.08600000000001 Z "/>
<path fill="rgb( 255, 255, 255 )"
 d="M31.803,9.28599999999994 C43.776,9.28599999999994 53.482,18.992 53.482,30.9640000000001 C53.482,42.937 43.776,52.6420000000001 31.803,52.6420000000001 C19.831,52.6420000000001 10.125,42.937 10.125,30.9640000000001 C10.125,18.992 19.831,9.28599999999994 31.803,9.28599999999994 Z "/>
<path fill="rgb( 127, 129, 127 )"
 d="M32.678,32.056 C32.678,32.612 32.227,33.026 31.67,33.026 C31.67,33.026 20.581,33.026 20.581,33.026 C20.024,33.026 19.573,32.612 19.573,32.056 C19.573,31.499 20.024,31.01 20.581,31.01 C20.581,31.01 31.67,31.01 31.67,31.01 C32.227,31.01 32.678,31.499 32.678,32.056 Z "/>
<path fill="rgb( 129, 129, 129 )"
 d="M31.922,14.461 C32.479,14.461 32.93,14.912 32.93,15.4690000000001 C32.93,15.4690000000001 32.93,31.0940000000001 32.93,31.0940000000001 C32.93,31.651 32.479,32.102 31.922,32.102 C31.365,32.102 31.044,31.651 31.044,31.0940000000001 C31.044,31.0940000000001 31.044,15.4690000000001 31.044,15.4690000000001 C31.044,14.912 31.365,14.461 31.922,14.461 Z "/>
<path fill="rgb( 255, 107, 34 )"
 d="M31.854,29.396 C33.43,29.396 34.708,30.674 34.708,32.25 C34.708,33.826 33.43,35.104 31.854,35.104 C30.278,35.104 29.001,33.826 29.001,32.25 C29.001,30.674 30.278,29.396 31.854,29.396 Z "/>
<path fill="rgb( 255, 255, 255 )"
 d="M31.8680000000001,30.636 C32.751,30.636 33.467,31.352 33.467,32.235 C33.467,33.1180000000001 32.751,33.8339999999999 31.8680000000001,33.8339999999999 C30.985,33.8339999999999 30.269,33.1180000000001 30.269,32.235 C30.269,31.352 30.985,30.636 31.8680000000001,30.636 Z "/>
</svg>
