<?xml version="1.0" encoding="utf-8"?>
<!DOCTYPE svg PUBLIC "-//W3C//DTD SVG 1.1//EN" "http://www.w3.org/Graphics/SVG/1.1/DTD/svg11.dtd">
<svg version="1.1" baseProfile="full"
 xmlns="http://www.w3.org/2000/svg"
 xmlns:xlink="http://www.w3.org/1999/xlink"
 xmlns:ev="http://www.w3.org/2001/xml-events" 
  height="61px" 
  width="64px" 
>
<path fill="rgb( 255, 190, 99 )"
 d="M1.67999999999995,0.01199999999994 C1.67999999999995,0.01199999999994 61.37,0.01199999999994 61.37,0.01199999999994 C62.298,0.01199999999994 63.05,0.7639999999999 63.05,1.69200000000001 C63.05,1.69200000000001 63.05,59.3199999999999 63.05,59.3199999999999 C63.05,60.248 62.298,61 61.37,61 C61.37,61 1.67999999999995,61 1.67999999999995,61 C0.75199999999995,61 0,60.248 0,59.3199999999999 C0,59.3199999999999 0,1.69200000000001 0,1.69200000000001 C0,0.7639999999999 0.75199999999995,0.01199999999994 1.67999999999995,0.01199999999994 Z "/>
<path fill="rgb( 251, 163, 40 )"
 d="M31.678,5.08600000000001 C46.04,5.08600000000001 57.683,16.7280000000001 57.683,31.0899999999999 C57.683,45.452 46.04,57.095 31.678,57.095 C17.316,57.095 5.673,45.452 5.673,31.0899999999999 C5.673,16.7280000000001 17.316,5.08600000000001 31.678,5.08600000000001 Z "/>
<path fill="rgb( 255, 255, 255 )"
 d="M31.803,9.28600000000006 C43.776,9.28600000000006 53.482,18.991 53.482,30.9639999999999 C53.482,42.9369999999999 43.776,52.6420000000001 31.803,52.6420000000001 C19.831,52.6420000000001 10.125,42.9369999999999 10.125,30.9639999999999 C10.125,18.991 19.831,9.28600000000006 31.803,9.28600000000006 Z "/>
<path fill="rgb( 127, 129, 127 )"
 d="M49.678,32.056 C49.678,32.6130000000001 49.227,33.0250000000001 48.67,33.0250000000001 C48.67,33.0250000000001 32.34,33.0250000000001 32.34,33.0250000000001 C31.783,33.0250000000001 31.332,32.6130000000001 31.332,32.056 C31.332,31.499 31.783,31.009 32.34,31.009 C32.34,31.009 48.67,31.009 48.67,31.009 C49.227,31.009 49.678,31.499 49.678,32.056 Z "/>
<path fill="rgb( 129, 129, 129 )"
 d="M31.922,19.461 C32.479,19.461 32.93,19.912 32.93,20.4690000000001 C32.93,20.4690000000001 32.93,31.9839999999999 32.93,31.9839999999999 C32.93,32.5409999999999 32.479,32.992 31.922,32.992 C31.365,32.992 31.044,32.5409999999999 31.044,31.9839999999999 C31.044,31.9839999999999 31.044,20.4690000000001 31.044,20.4690000000001 C31.044,19.912 31.365,19.461 31.922,19.461 Z "/>
<path fill="rgb( 24, 169, 255 )"
 d="M31.854,29.396 C33.43,29.396 34.708,30.674 34.708,32.25 C34.708,33.826 33.43,35.1030000000001 31.854,35.1030000000001 C30.278,35.1030000000001 29.001,33.826 29.001,32.25 C29.001,30.674 30.278,29.396 31.854,29.396 Z "/>
<path fill="rgb( 255, 255, 255 )"
 d="M31.8680000000001,30.636 C32.751,30.636 33.467,31.3520000000001 33.467,32.2349999999999 C33.467,33.1179999999999 32.751,33.8340000000001 31.8680000000001,33.8340000000001 C30.985,33.8340000000001 30.269,33.1179999999999 30.269,32.2349999999999 C30.269,31.3520000000001 30.985,30.636 31.8680000000001,30.636 Z "/>
</svg>
