<?xml version="1.0" encoding="utf-8"?>
<!DOCTYPE svg PUBLIC "-//W3C//DTD SVG 1.1//EN" "http://www.w3.org/Graphics/SVG/1.1/DTD/svg11.dtd">
<svg version="1.1" baseProfile="full"
 xmlns="http://www.w3.org/2000/svg"
 xmlns:xlink="http://www.w3.org/1999/xlink"
 xmlns:ev="http://www.w3.org/2001/xml-events" 
  height="160px" 
  width="110px" 
>
<path fill="rgb( 254, 198, 153 )"
 d="M35.446,81.771 C35.446,81.771 73.955,81.771 73.955,81.771 C73.955,81.771 73.955,107.357 73.955,107.357 C73.955,107.357 35.446,107.357 35.446,107.357 C35.446,107.357 35.446,81.771 35.446,81.771 Z "/>
<path fill="rgb( 254, 214, 181 )"
 d="M55.17,22.9179999999999 C78.845,22.9179999999999 88.54,32.7449999999999 88.54,53.335 C88.54,73.9269999999999 78.845,91.011 55.17,91.011 C31.495,91.011 20.443,74.319 20.443,53.729 C20.443,33.1389999999999 31.495,22.9179999999999 55.17,22.9179999999999 Z "/>
<path fill="rgb( 118, 119, 121 )"
 d="M84.058,70.23 C84.058,70.23 84.058,55.2950000000001 84.058,55.2950000000001 C84.058,47.8789999999999 77.147,43.1579999999999 68.623,43.1579999999999 C68.623,43.1579999999999 40.838,43.1579999999999 40.838,43.1579999999999 C32.312,43.1579999999999 25.401,47.8789999999999 25.401,55.2950000000001 C25.401,55.2950000000001 25.401,69.3610000000001 25.401,69.3610000000001 C21.984,66.0909999999999 20.224,59.3989999999999 19.717,46.2829999999999 C19.194,32.7449999999999 28.377,13.548 54.473,13.548 C80.571,13.548 88.231,20.6969999999999 89.278,44.2560000000001 C90.0170000000001,60.867 88.6180000000001,67.6479999999999 84.058,70.23 Z "/>
<path fill="rgb( 164, 147, 205 )"
 d="M21.394,99.1379999999999 C21.394,99.1379999999999 89.066,99.1379999999999 89.066,99.1379999999999 C104.638,99.1379999999999 108.811,111.213 108.811,118.775 C108.811,118.775 108.811,151.481 108.811,151.481 C108.811,155.526 105.043,158.801 100.395,158.801 C100.395,158.801 8.85199999999998,158.801 8.85199999999998,158.801 C4.20399999999995,158.801 0.43499999999995,155.526 0.43499999999995,151.481 C0.43499999999995,151.481 0.43499999999995,121.591 0.43499999999995,121.591 C0.43499999999995,108.398 12.296,99.1379999999999 21.394,99.1379999999999 Z "/>
<path fill="rgb( 255, 255, 255 )"
 d="M25.283,124.415 C25.283,124.415 30.186,124.415 30.186,124.415 C30.186,124.415 30.186,158.529 30.186,158.529 C30.186,158.529 25.283,158.529 25.283,158.529 C25.283,158.529 25.283,124.415 25.283,124.415 Z "/>
<path fill="rgb( 255, 255, 255 )"
 d="M79.215,124.415 C79.215,124.415 84.119,124.415 84.119,124.415 C84.119,124.415 84.119,158.529 84.119,158.529 C84.119,158.529 79.215,158.529 79.215,158.529 C79.215,158.529 79.215,124.415 79.215,124.415 Z "/>
<path opacity="0.2" fill="rgb( 255, 255, 255 )"
 d="M54.701,0.74800000000005 C54.701,0.74800000000005 109.052,0.74800000000005 109.052,0.74800000000005 C109.052,0.74800000000005 109.052,159.013 109.052,159.013 C109.052,159.013 54.701,159.013 54.701,159.013 C54.701,159.013 54.701,0.74800000000005 54.701,0.74800000000005 Z "/>
<path fill="rgb( 91, 39, 39 )"
 d="M40.6079999999999,72.681 C32.958,72.681 26.7569999999999,67.828 26.7569999999999,61.8420000000001 C26.7569999999999,55.855 32.958,51.0029999999999 40.6079999999999,51.0029999999999 C48.2569999999999,51.0029999999999 54.458,55.855 54.458,61.8420000000001 C54.458,67.828 48.2569999999999,72.681 40.6079999999999,72.681 ZM40.6369999999999,54.4929999999999 C34.85,54.4929999999999 30.159,57.8430000000001 30.159,61.9760000000001 C30.159,66.1079999999999 34.85,69.4580000000001 40.6369999999999,69.4580000000001 C46.424,69.4580000000001 51.116,66.1079999999999 51.116,61.9760000000001 C51.116,57.8430000000001 46.424,54.4929999999999 40.6369999999999,54.4929999999999 Z "/>
<path fill="rgb( 95, 49, 49 )"
 d="M19.8579999999999,55.2159999999999 C19.8579999999999,55.2159999999999 28.318,58.3889999999999 28.318,58.3889999999999 C28.318,58.3889999999999 28.436,64.499 28.436,64.499 C28.436,64.499 19.741,58.9760000000001 19.741,58.9760000000001 C19.741,58.9760000000001 19.8579999999999,55.2159999999999 19.8579999999999,55.2159999999999 Z "/>
<path fill="rgb( 95, 49, 49 )"
 d="M88.141,56.2159999999999 C88.141,56.2159999999999 79.682,59.3889999999999 79.682,59.3889999999999 C79.682,59.3889999999999 79.564,65.499 79.564,65.499 C79.564,65.499 88.259,59.9760000000001 88.259,59.9760000000001 C88.259,59.9760000000001 88.141,56.2159999999999 88.141,56.2159999999999 Z "/>
<path fill="rgb( 95, 49, 49 )"
 d="M89.141,56.2159999999999 C89.141,56.2159999999999 80.682,59.3889999999999 80.682,59.3889999999999 C80.682,59.3889999999999 80.564,65.499 80.564,65.499 C80.564,65.499 89.259,59.9760000000001 89.259,59.9760000000001 C89.259,59.9760000000001 89.141,56.2159999999999 89.141,56.2159999999999 Z "/>
<path fill="rgb( 95, 49, 49 )"
 d="M53.11,59.9159999999999 C53.11,59.9159999999999 53.11,64.9690000000001 53.11,64.9690000000001 C53.11,64.9690000000001 55.577,62.0309999999999 57.8099999999999,64.499 C57.34,62.7360000000001 57.222,61.326 57.575,60.0340000000001 C55.212,58.4760000000001 53.11,59.9159999999999 53.11,59.9159999999999 Z "/>
<path fill="rgb( 91, 39, 39 )"
 d="M69.6079999999999,72.681 C61.958,72.681 55.7569999999999,67.828 55.7569999999999,61.8420000000001 C55.7569999999999,55.855 61.958,51.0029999999999 69.6079999999999,51.0029999999999 C77.2569999999999,51.0029999999999 83.458,55.855 83.458,61.8420000000001 C83.458,67.828 77.2569999999999,72.681 69.6079999999999,72.681 ZM69.6369999999999,54.4929999999999 C63.85,54.4929999999999 59.159,57.8430000000001 59.159,61.9760000000001 C59.159,66.1079999999999 63.85,69.4580000000001 69.6369999999999,69.4580000000001 C75.424,69.4580000000001 80.116,66.1079999999999 80.116,61.9760000000001 C80.116,57.8430000000001 75.424,54.4929999999999 69.6369999999999,54.4929999999999 Z "/>
</svg>
