<?xml version="1.0" encoding="utf-8"?><svg baseProfile="full" xmlns="http://www.w3.org/2000/svg" height="15" width="15"><path fill="rgb( 102, 102, 102 )" d="M11.903 1.245c.327 0 .64.15.96.455.383.367.58.72.585 1.048.006.34-.187.713-.574 1.113-.34.35-2.995 2.98-7.893 7.8 0 0-.37.37-.37.37-.56.177-.882-.51-1.9-.18.33-1.08-.302-1.27-.127-1.886C3.63 8.92 10.55 2.01 10.813 1.75c.05-.05.52-.5 1.094-.5m0-1.22C10.89.027 10.15.68 9.95.88c-.286.282-8.364 8.35-8.364 8.35-.063.063-.11.142-.133.23-.22.808-1.316 3.898-1.327 3.934-.056.184-.005.384.13.518.097.098.227.15.36.15.052 0 .105-.01.157-.025.037-.012 3.742-.71 4.35-.892.082-.023.155-.067.215-.125.385-.38 7.81-7.69 8.41-8.31.622-.642.93-1.31.92-1.983-.012-.667-.336-1.308-.96-1.907-.55-.527-1.158-.794-1.805-.794z"/></svg>