<?xml version="1.0" encoding="utf-8"?>
<!DOCTYPE svg PUBLIC "-//W3C//DTD SVG 1.1//EN" "http://www.w3.org/Graphics/SVG/1.1/DTD/svg11.dtd">
<svg version="1.1" baseProfile="full"
 xmlns="http://www.w3.org/2000/svg"
 xmlns:xlink="http://www.w3.org/1999/xlink"
 xmlns:ev="http://www.w3.org/2001/xml-events" 
  height="8px" 
  width="29px" 
>
<path fill="rgb( 241, 117, 4 )"
 d="M25.5,7.9989999999998 C23.567,7.9989999999998 22,6.43199999999979 22,4.4989999999998 C22,2.5659999999998 23.567,0.9989999999998 25.5,0.9989999999998 C27.433,0.9989999999998 29,2.5659999999998 29,4.4989999999998 C29,6.43199999999979 27.433,7.9989999999998 25.5,7.9989999999998 ZM14.5,7.9989999999998 C12.567,7.9989999999998 11,6.43199999999979 11,4.4989999999998 C11,2.5659999999998 12.567,0.9989999999998 14.5,0.9989999999998 C16.433,0.9989999999998 18,2.5659999999998 18,4.4989999999998 C18,6.43199999999979 16.433,7.9989999999998 14.5,7.9989999999998 ZM3.5,7.9989999999998 C1.56700000000001,7.9989999999998 0,6.43199999999979 0,4.4989999999998 C0,2.5659999999998 1.56700000000001,0.9989999999998 3.5,0.9989999999998 C5.43299999999999,0.9989999999998 7,2.5659999999998 7,4.4989999999998 C7,6.43199999999979 5.43299999999999,7.9989999999998 3.5,7.9989999999998 Z "/>
</svg>
