<?xml version="1.0" encoding="utf-8"?>
<!-- Generator: Adobe Illustrator 17.1.0, SVG Export Plug-In . SVG Version: 6.00 Build 0)  -->
<!DOCTYPE svg PUBLIC "-//W3C//DTD SVG 1.1//EN" "http://www.w3.org/Graphics/SVG/1.1/DTD/svg11.dtd">
<svg version="1.1" id="Слой_1" xmlns="http://www.w3.org/2000/svg" xmlns:xlink="http://www.w3.org/1999/xlink" x="0px" y="0px"
	 width="100px" height="100px" viewBox="0 0 100 100" enable-background="new 0 0 100 100" xml:space="preserve">
<g id="Слой_x0020_1">
	<g id="_139845600">
		<path id="_139847328" fill="#FAE141" d="M50,10.1c-11,0-21,4.5-28.3,11.7C14.5,29,10,39,10,50s4.5,21,11.7,28.3
			C28.9,85.5,38.9,90,50,90s21-4.5,28.3-11.7C85.4,71.1,89.9,61,89.9,50s-4.5-21-11.7-28.3C70.9,14.5,61,10.1,50,10.1z M14.9,14.9
			C23.9,6,36.3,0.4,50,0.4S76,6,85.1,14.9C94,24,99.6,36.4,99.6,50S94,76,85.1,85.1C76,94,63.6,99.6,50,99.6S23.9,94,14.9,85.1
			C5.9,76,0.4,63.6,0.4,50S5.9,24,14.9,14.9z"/>
		<path id="_139847568" fill="#FFFFFF" d="M49.8,25.6h0.9c3,0,5.5,2.5,5.5,5.5v13h12.7c3,0,5.5,2.5,5.5,5.5v0.9c0,3-2.5,5.5-5.5,5.5
			H56.2v12.8c0,3-2.5,5.5-5.5,5.5h-0.9c-3,0-5.5-2.5-5.5-5.5V56.1H31.1c-3,0-5.5-2.5-5.5-5.5v-0.9c0-3,2.5-5.5,5.5-5.5h13.2v-13
			C44.3,28.1,46.7,25.6,49.8,25.6z"/>
	</g>
</g>
</svg>
