<?xml version="1.0" encoding="utf-8"?><svg baseProfile="full" xmlns="http://www.w3.org/2000/svg" height="99" width="99"><path fill="rgb( 255, 255, 255 )" d="M84.326 84.416c-8.86 8.86-21.103 14.343-34.622 14.343-13.518 0-25.76-5.49-34.62-14.35C6.22 75.552.74 63.312.74 49.792c0-13.52 5.482-25.76 14.343-34.62C23.945 6.317 36.186.83 49.703.83c13.52 0 25.762 5.483 34.623 14.344 8.86 8.86 14.343 21.102 14.343 34.62 0 13.52-5.49 25.76-14.35 34.622zM76.58 22.92c-6.88-6.876-16.383-11.13-26.877-11.13-10.493 0-19.995 4.255-26.874 11.133-6.88 6.88-11.14 16.38-11.14 26.875 0 10.493 4.256 19.995 11.134 26.874C29.71 83.546 39.21 87.8 49.704 87.8S69.7 83.547 76.58 76.67c6.877-6.88 11.132-16.382 11.132-26.875 0-10.494-4.255-19.995-11.133-26.874zm-8.922 32.165s-12.348 0-12.348 0 0 12.853 0 12.853c0 2.946-2.41 5.356-5.355 5.356 0 0-.8 0-.8 0-2.947 0-5.356-2.41-5.356-5.356 0 0 0-12.853 0-12.853s-12.82 0-12.82 0c-2.946 0-5.356-2.02-5.356-4.966 0 0 0-.808 0-.808 0-2.946 2.41-5.355 5.355-5.355 0 0 12.813 0 12.813 0s0-12.697 0-12.697c0-2.945 2.408-5.355 5.354-5.355 0 0 .8 0 .8 0 2.946 0 5.355 2.41 5.355 5.355 0 0 0 12.697 0 12.697s12.348 0 12.348 0c2.948 0 5.357 2.41 5.357 5.354 0 0 0 .8 0 .8 0 2.95-2.41 4.97-5.355 4.97z"/></svg>