<?xml version="1.0" encoding="utf-8"?><svg baseProfile="full" xmlns="http://www.w3.org/2000/svg" height="15" width="15"><path fill="rgb( 210, 210, 210 )" d="M11.903 1.245c.327 0 .64.15.96.455.383.367.58.72.585 1.048.006.34-.187.713-.574 1.113-.34.35-2.995 2.975-7.893 7.8 0 0-.374.37-.374.37-.56.173-.882-.51-1.9-.183.33-1.08-.302-1.27-.127-1.887 1.045-1.046 7.966-7.956 8.23-8.216.05-.05.518-.5 1.093-.5m0-1.218C10.89.026 10.15.68 9.95.88c-.286.282-8.364 8.35-8.364 8.35-.063.063-.11.142-.133.23-.22.808-1.316 3.898-1.327 3.934-.056.184-.005.384.13.518.097.098.227.15.36.15.052 0 .105-.01.157-.025.037-.012 3.742-.71 4.35-.892.082-.023.155-.067.215-.125.385-.38 7.81-7.69 8.41-8.31.622-.642.93-1.31.92-1.983-.012-.667-.336-1.308-.96-1.907-.55-.527-1.158-.794-1.805-.794z"/></svg>