<?xml version="1.0" encoding="utf-8"?><svg baseProfile="full" xmlns="http://www.w3.org/2000/svg" height="38" width="39"><path fill="rgb( 210, 210, 210 )" d="M31.307 3.953c.845 0 1.66.386 2.486 1.18.988.946 1.497 1.858 1.51 2.708.016.877-.484 1.845-1.485 2.88-.878.905-7.744 7.69-20.41 20.167 0 0-.97.956-.97.956-1.45.45-2.282-1.32-4.91-.473.847-2.794-.785-3.283-.332-4.88C9.903 23.786 27.8 5.917 28.48 5.246c.132-.132 1.34-1.293 2.827-1.293m0-3.15c-2.62 0-4.53 1.69-5.052 2.21C25.518 3.74 4.63 24.6 4.63 24.6c-.165.167-.285.37-.346.597-.566 2.09-3.402 10.08-3.43 10.172-.146.476-.015.994.335 1.34.25.253.586.386.93.386.136 0 .272-.02.406-.062.096-.032 9.676-1.836 11.253-2.306.207-.06.396-.174.55-.326.996-.98 20.197-19.884 21.75-21.49 1.608-1.657 2.407-3.38 2.376-5.125-.03-1.724-.868-3.383-2.482-4.93C34.552 1.493 32.982.8 31.307.8z"/></svg>