<?xml version="1.0" encoding="utf-8"?><svg baseProfile="full" xmlns="http://www.w3.org/2000/svg" height="99" width="99"><path fill="rgb( 255, 255, 255 )" d="M49.704 11.788c-10.493 0-19.995 4.255-26.874 11.133-6.878 6.88-11.133 16.38-11.133 26.877 0 10.493 4.255 19.995 11.133 26.873 6.88 6.88 16.38 11.133 26.874 11.133S69.7 83.547 76.58 76.668c6.877-6.878 11.132-16.38 11.132-26.873 0-10.494-4.255-19.995-11.133-26.874C69.7 16.046 60.195 11.79 49.7 11.79zm-34.62 3.386C23.944 6.312 36.184.83 49.704.83c13.52 0 25.76 5.482 34.62 14.344 8.86 8.86 14.344 21.102 14.344 34.62 0 13.52-5.483 25.76-14.344 34.622-8.86 8.862-21.103 14.343-34.622 14.343-13.518 0-25.76-5.484-34.62-14.346C6.22 75.554.74 63.314.74 49.794c0-13.52 5.482-25.76 14.343-34.62zm57.05 40.506c-3.63 3.016-25.814 19.313-25.814 19.313s-10.067 1.403-10.28-4.74c-.215-6.145-.02-38.442-.02-38.442s1.732-7.796 10.125-4.3C50.183 30.5 72.66 47.96 72.66 47.96s3.485 4.39-.53 7.725zM45.78 39.566s.204 23.7.204 23.7 15.374-11.78 15.374-11.78-15.578-11.92-15.578-11.92z"/></svg>

