<?xml version="1.0" encoding="utf-8"?><svg baseProfile="full" xmlns="http://www.w3.org/2000/svg" height="38" width="39"><path fill="rgb( 102, 102, 102 )" d="M31.307 3.953c.845 0 1.66.386 2.486 1.18.988.946 1.497 1.858 1.51 2.708.016.88-.484 1.85-1.485 2.88-.878.91-7.744 7.69-20.41 20.17 0 0-.97.957-.97.957-1.45.45-2.282-1.32-4.91-.473.847-2.793-.785-3.282-.332-4.88C9.903 23.787 27.8 5.918 28.48 5.247c.132-.132 1.34-1.293 2.827-1.293m0-3.15c-2.62 0-4.53 1.69-5.052 2.21C25.518 3.74 4.63 24.6 4.63 24.6c-.165.167-.285.37-.346.597-.566 2.09-3.402 10.08-3.43 10.172-.146.472-.015.99.335 1.34.25.25.582.382.93.382.132 0 .27-.02.402-.062.096-.03 9.676-1.835 11.253-2.305.207-.06.396-.174.55-.326.996-.98 20.197-19.885 21.75-21.49 1.608-1.658 2.407-3.38 2.376-5.126-.03-1.724-.867-3.383-2.48-4.93C34.552 1.494 32.982.8 31.307.8z"/></svg>