<?xml version="1.0" encoding="utf-8"?>
<!-- Generator: Adobe Illustrator 17.1.0, SVG Export Plug-In . SVG Version: 6.00 Build 0)  -->
<!DOCTYPE svg PUBLIC "-//W3C//DTD SVG 1.1//EN" "http://www.w3.org/Graphics/SVG/1.1/DTD/svg11.dtd">
<svg version="1.1" id="Слой_1" xmlns="http://www.w3.org/2000/svg" xmlns:xlink="http://www.w3.org/1999/xlink" x="0px" y="0px"
	 width="55px" height="80px" viewBox="0 0 55 80" enable-background="new 0 0 55 80" xml:space="preserve">
<path fill="#73C869" d="M9.5,47.9c-3.8-0.4-5.8-1.7-7.6-3.1c-1.5,2.5-1.1,5-0.2,6.5c0,0,0.5,1,7.7,0.3L9.5,47.9L9.5,47.9z"/>
<path fill="#64B9EB" d="M9.3,53.2c-3.1,0.3-4.6,0.6-7.4-0.3c-0.8,2.6-0.5,3.6,0.8,5.6c0,0,2.9,1.1,6.8-1L9.3,53.2L9.3,53.2z"/>
<path fill="#FF8232" d="M9.3,59.1c-2.5,1-3.8,1.6-6.4,1.2c-0.5,1.3-0.9,3.4,0.5,5.1c1.3-0.2,3.1,0.3,6.4-1.8L9.3,59.1z"/>
<path fill="#AA96D2" d="M10.6,65.3c-1.7,1.1-4.7,1.4-6.9,1.4c-0.8,2.4-0.6,3.4,1,4.9c1.2-0.2,2.9,0,6.3-2.5L10.6,65.3z"/>
<path fill="#FF8232" d="M30.6,27.3l11-5.3c0,0,0.3,6.1-0.7,10.4C40,35.9,30.6,27.3,30.6,27.3L30.6,27.3z"/>
<polygon fill="#FFD72C" points="31.6,26.6 41.6,21.9 36.8,29.5 "/>
<path fill="#FFE641" d="M54.2,45.1c-0.3-2.9-2.4-3.9-5.3-6.4c-2.9-2.5-4.6-12.2-19.4-14.4C25.9,18.7,21.2,12,21.2,12l-1.3,13.2
	l-7-10.8l-1.2,15.4l-8.9-3.3c0,0-4.3,13,5.1,17v0c0,0-0.1,33.4,0,36.5h17.5c0-4.9-0.1-19.7-0.1-19.7s6.7,4.9,15.2-2.1
	c4.3,1.4,7.6-0.9,9.9-3.6C53.5,52.3,54.6,49.1,54.2,45.1"/>
<polygon fill="#C3640F" points="7.6,5.1 13.4,2.9 12.7,13.3 "/>
<polygon fill="#C3640F" points="17,2.7 22.8,0.2 20.8,10.7 "/>
<polygon fill="#FF8232" fill-opacity="0.502" points="7.9,49.7 12.2,55.3 7.9,61.6 "/>
<path fill="#FF8232" fill-opacity="0.502" d="M8,63.7l5.5,8.5l-3.4,5c-1.8-1.1-2.2-3.8-2.2-3.8L8,63.7L8,63.7z"/>
<polygon fill="#FF8232" fill-opacity="0.502" points="11.2,62.8 14.2,59.1 17.6,63.3 14.3,67.1 "/>
<path fill="#FFFFFF" d="M28.1,31c3.5,0,6.3,2.8,6.3,6.3c0,3.5-2.8,6.3-6.3,6.3c-3.5,0-6.3-2.8-6.3-6.3C21.9,33.8,24.7,31,28.1,31z"
	/>
<circle fill="#333333" cx="27.7" cy="35.9" r="3.9"/>
<path fill="#FFFFFF" d="M26.9,32.9c0.9,0,1.6,0.7,1.6,1.6c0,0.9-0.7,1.6-1.6,1.6c-0.9,0-1.6-0.7-1.6-1.6
	C25.3,33.6,26,32.9,26.9,32.9z"/>
<path fill="#C3640F" d="M46.5,45.5c1.4,0,2.6,1.2,2.6,2.6c0,1.4-1.2,2.6-2.6,2.6c-1.4,0-2.6-1.2-2.6-2.6
	C43.9,46.6,45.1,45.5,46.5,45.5z"/>
<polygon fill="#FF8232" points="40.5,58.1 35.2,54.3 37.7,60.2 "/>
<path fill="#FF8232" d="M3,26.5l7.4,10.4c0,0-3.1,1.1-2.5,7.8C2.8,42.3-2.4,35.8,3,26.5L3,26.5z"/>
</svg>
