<?xml version="1.0" encoding="utf-8"?><svg xmlns="http://www.w3.org/2000/svg" width="55" height="80" viewBox="0 0 55 80"><path fill="#73C869" d="M9.5 47.9c-3.8-.4-5.8-1.7-7.6-3.1-1.5 2.5-1.1 5-.2 6.5 0 0 .5 1 7.7.3l.1-3.7z"/><path fill="#64B9EB" d="M9.3 53.2c-3.1.3-4.6.6-7.4-.3-.8 2.6-.5 3.6.8 5.6 0 0 2.9 1.1 6.8-1l-.2-4.3z"/><path fill="#FF8232" d="M9.3 59.1c-2.5 1-3.8 1.6-6.4 1.2-.5 1.3-.9 3.4.5 5.1 1.3-.2 3.1.3 6.4-1.8l-.5-4.5z"/><path fill="#AA96D2" d="M10.6 65.3c-1.7 1.1-4.7 1.4-6.9 1.4-.8 2.4-.6 3.4 1 4.9 1.2-.2 2.9 0 6.3-2.5l-.4-3.8z"/><path fill="#FF8232" d="M30.6 27.3l11-5.3s.3 6.1-.7 10.4c-.9 3.5-10.3-5.1-10.3-5.1z"/><path fill="#FFD72C" d="M31.6 26.6l10-4.7-4.8 7.6z"/><path fill="#FFE641" d="M54.2 45.1c-.3-2.9-2.4-3.9-5.3-6.4-2.9-2.5-4.6-12.2-19.4-14.4-3.6-5.6-8.3-12.3-8.3-12.3l-1.3 13.2-7-10.8-1.2 15.4-8.9-3.3s-4.3 13 5.1 17c0 0-.1 33.4 0 36.5h17.5c0-4.9-.1-19.7-.1-19.7s6.7 4.9 15.2-2.1c4.3 1.4 7.6-.9 9.9-3.6 3.1-2.3 4.2-5.5 3.8-9.5"/><path fill="#C3640F" d="M7.6 5.1l5.8-2.2-.7 10.4zM17 2.7L22.8.2l-2 10.5z"/><path fill="#FF8232" fill-opacity=".502" d="M7.9 49.7l4.3 5.6-4.3 6.3zM8 63.7l5.5 8.5-3.4 5c-1.8-1.1-2.2-3.8-2.2-3.8l.1-9.7zM11.2 62.8l3-3.7 3.4 4.2-3.3 3.8z"/><path fill="#fff" d="M28.1 31c3.5 0 6.3 2.8 6.3 6.3s-2.8 6.3-6.3 6.3-6.3-2.8-6.3-6.3c.1-3.5 2.9-6.3 6.3-6.3z"/><circle fill="#333" cx="27.7" cy="35.9" r="3.9"/><path fill="#fff" d="M26.9 32.9c.9 0 1.6.7 1.6 1.6 0 .9-.7 1.6-1.6 1.6-.9 0-1.6-.7-1.6-1.6 0-.9.7-1.6 1.6-1.6z"/><path fill="#C3640F" d="M46.5 45.5c1.4 0 2.6 1.2 2.6 2.6 0 1.4-1.2 2.6-2.6 2.6-1.4 0-2.6-1.2-2.6-2.6 0-1.5 1.2-2.6 2.6-2.6z"/><path fill="#FF8232" d="M40.5 58.1l-5.3-3.8 2.5 5.9zM3 26.5l7.4 10.4S7.3 38 7.9 44.7C2.8 42.3-2.4 35.8 3 26.5z"/></svg>