<?xml version="1.0" encoding="utf-8"?>
<!-- Generator: Adobe Illustrator 17.1.0, SVG Export Plug-In . SVG Version: 6.00 Build 0)  -->
<!DOCTYPE svg PUBLIC "-//W3C//DTD SVG 1.1//EN" "http://www.w3.org/Graphics/SVG/1.1/DTD/svg11.dtd">
<svg version="1.1" xmlns="http://www.w3.org/2000/svg" xmlns:xlink="http://www.w3.org/1999/xlink" x="0px" y="0px" width="54.2px"
	 height="80px" viewBox="0 0 54.2 80" enable-background="new 0 0 54.2 80" xml:space="preserve">
<g id="Направляющие_для_монтажной_области">
</g>
<g id="Слой_1">
	<path fill-rule="evenodd" clip-rule="evenodd" fill="#73C869" d="M9,48.2c-3.8-0.4-5.8-1.7-7.6-3.1c-1.5,2.5-1.1,5-0.2,6.5
		c0,0,0.5,1,7.8,0.3L9,48.2z"/>
	<path fill-rule="evenodd" clip-rule="evenodd" fill="#64B9EB" d="M8.7,53.5c-3.2,0.3-4.7,0.6-7.5-0.3c-0.8,2.6-0.5,3.7,0.8,5.7
		c0,0,2.9,1.1,6.9-1L8.7,53.5z"/>
	<path fill-rule="evenodd" clip-rule="evenodd" fill="#FF8232" d="M8.8,59.5c-2.5,1.1-3.9,1.6-6.5,1.2c-0.5,1.3-0.9,3.4,0.5,5.2
		c1.4-0.2,3.2,0.3,6.4-1.8L8.8,59.5z"/>
	<path fill-rule="evenodd" clip-rule="evenodd" fill="#AA96D2" d="M10.1,65.8c-1.8,1.1-4.7,1.4-7,1.4c-0.9,2.4-0.6,3.4,1,4.9
		c1.2-0.2,2.9,0,6.4-2.6L10.1,65.8z"/>
	<path fill-rule="evenodd" clip-rule="evenodd" fill="#FF8232" d="M30.2,27.4l11.1-5.3c0,0,0.3,6.1-0.8,10.5
		C39.7,36.2,30.2,27.4,30.2,27.4z"/>
	<polygon fill-rule="evenodd" clip-rule="evenodd" fill="#FFD72C" points="31.2,26.8 41.3,22.1 36.5,29.7 	"/>
	<path fill-rule="evenodd" clip-rule="evenodd" fill="#FFE641" d="M7.4,43.8c0,0,0,26.6,0,29.7c0.1,8.2,17.6,8.5,17.6-0.1
		c0-5,0-12.8,0-12.8s6.7,4.9,15.3-2.1c4.3,1.4,7.7-0.9,9.9-3.6c3.2-2.3,4.3-5.6,3.9-9.6c-0.3-2.9-2.4-4-5.4-6.5
		c-2.9-2.5-4.7-12.3-19.5-14.5C25.5,18.8,20.7,12,20.7,12l-1.3,13.3l-7-10.9L11.2,30l-9-3.4C2.3,26.7-2.1,39.8,7.4,43.8z"/>
	<polygon fill-rule="evenodd" clip-rule="evenodd" fill="#C3640F" points="7.1,5.1 12.9,2.9 12.2,13.3 	"/>
	<polygon fill-rule="evenodd" clip-rule="evenodd" fill="#C3640F" points="16.5,2.6 22.4,0.2 20.4,10.7 	"/>
	<polygon opacity="0.5" fill-rule="evenodd" clip-rule="evenodd" fill="#FF8232" points="7.4,50 11.6,55.6 7.4,62 	"/>
	<path opacity="0.5" fill-rule="evenodd" clip-rule="evenodd" fill="#FF8232" d="M7.4,64.2l5.5,8.5l-3.4,5c-1.8-1.2-2.2-3.8-2.2-3.8
		L7.4,64.2z"/>
	<polygon opacity="0.5" fill-rule="evenodd" clip-rule="evenodd" fill="#FF8232" points="10.7,63.3 13.7,59.5 17.2,63.8 13.8,67.6 	
		"/>
	<circle fill-rule="evenodd" clip-rule="evenodd" fill="#FFFFFF" cx="27.7" cy="37.5" r="6.3"/>
	<path fill-rule="evenodd" clip-rule="evenodd" fill="#333333" d="M27.3,40.1c2.2,0,3.9-1.8,3.9-3.9c0-2.2-1.8-3.9-3.9-3.9
		c-2.2,0-3.9,1.8-3.9,3.9C23.4,38.3,25.1,40.1,27.3,40.1z"/>
	<circle fill-rule="evenodd" clip-rule="evenodd" fill="#FFFFFF" cx="26.5" cy="34.7" r="1.6"/>
	<circle fill-rule="evenodd" clip-rule="evenodd" fill="#C3640F" cx="46.3" cy="48.4" r="2.6"/>
	<polygon fill-rule="evenodd" clip-rule="evenodd" fill="#FF8232" points="40.2,58.5 34.9,54.7 37.4,60.6 	"/>
	<path fill-rule="evenodd" clip-rule="evenodd" fill="#FF8232" d="M2.4,26.7l7.5,10.5c0,0-3.2,1.1-2.5,7.9C2.2,42.6-3,36,2.4,26.7z"
		/>
</g>
</svg>
