<?xml version="1.0" encoding="utf-8"?>
<!DOCTYPE svg PUBLIC "-//W3C//DTD SVG 1.1//EN" "http://www.w3.org/Graphics/SVG/1.1/DTD/svg11.dtd">
<svg version="1.1" baseProfile="full"
 xmlns="http://www.w3.org/2000/svg"
 xmlns:xlink="http://www.w3.org/1999/xlink"
 xmlns:ev="http://www.w3.org/2001/xml-events" 
  height="15px" 
  width="17px" 
> 
<path fill="rgb( 253, 219, 101 )"
 d="M14.9849999999999,10.998 C14.9849999999999,10.998 10.963,10.998 10.963,10.998 C10.963,10.998 4.75299999999993,14.102 4.75299999999993,14.102 C4.75299999999993,14.102 5.03600000000006,10.998 5.03600000000006,10.998 C5.03600000000006,10.998 2.99000000000001,10.998 2.99000000000001,10.998 C1.88599999999997,10.998 0.99000000000001,10.102 0.99000000000001,8.99700000000001 C0.99000000000001,8.99700000000001 0.99000000000001,2.93000000000001 0.99000000000001,2.93000000000001 C0.99000000000001,1.82499999999999 1.88599999999997,0.93000000000001 2.99000000000001,0.93000000000001 C2.99000000000001,0.93000000000001 14.9849999999999,0.93000000000001 14.9849999999999,0.93000000000001 C16.0889999999999,0.93000000000001 16.9849999999999,1.82499999999999 16.9849999999999,2.93000000000001 C16.9849999999999,2.93000000000001 16.9849999999999,8.99700000000001 16.9849999999999,8.99700000000001 C16.9849999999999,10.102 16.0889999999999,10.998 14.9849999999999,10.998 Z "/>
</svg>
