<svg baseProfile="full" xmlns="http://www.w3.org/2000/svg" height="11" width="18"><path fill="rgb( 220, 220, 220 )" d="M5.752 5.591c0-1.816 1.472-3.287 3.287-3.287 1.816 0 3.287 1.471 3.287 3.287 0 1.816-1.471 3.1-3.287 3.1-1.815 0-3.287-1.284-3.287-3.1zm11.917 0c-2.094-2.617-4.634-4.614-8.424-4.614-3.791 0-6.331 1.997-8.424 4.614 0 0 .017 0 .017 0 2.09 2.617 4.623 4.429 8.407 4.429 3.783 0 6.316-1.812 8.406-4.429 0 0 .018 0 .018 0zm-10.274 0c0 .908.736 1.645 1.644 1.645.908 0 1.644-.737 1.644-1.645s-.736-1.644-1.644-1.644c-.908 0-1.644.736-1.644 1.644z"/></svg>