<?xml version="1.0" encoding="UTF-8"?>
<!DOCTYPE svg PUBLIC "-//W3C//DTD SVG 1.1//EN" "http://www.w3.org/Graphics/SVG/1.1/DTD/svg11.dtd">
<!-- Creator: CorelDRAW -->
<svg xmlns="http://www.w3.org/2000/svg" xml:space="preserve" width="19px" height="19px" style="shape-rendering:geometricPrecision; text-rendering:geometricPrecision; image-rendering:optimizeQuality; fill-rule:evenodd; clip-rule:evenodd"
viewBox="0 0 0.401128 0.401211"
 xmlns:xlink="http://www.w3.org/1999/xlink">
 <defs>
  <style type="text/css">
   <![CDATA[
    .fil0 {fill:#FEFEFE}
   ]]>
  </style>
 </defs>
 <g id="Слой_x0020_1">
  <metadata id="CorelCorpID_0Corel-Layer"/>
  <path class="fil0" d="M0.391269 0.00978319c-0.0131799,-0.0130443 -0.0344918,-0.0130443 -0.0476717,0l-0.143752 0.143823 -0.141688 -0.141818c-0.0130855,-0.0130501 -0.0342913,-0.0130384 -0.0473001,0 -0.0130678,0.0130443 -0.0130796,0.0344505 0,0.0475006l0.141688 0.141482 -0.142685 0.142826c-0.0131445,0.0130443 -0.0131504,0.0344564 -1.17941e-005,0.0478309 0.0131917,0.0130384 0.0345213,0.0130384 0.0477011,0l0.142697 -0.142826 0.141688 0.141824c0.0130796,0.0130443 0.0342795,0.0130443 0.0473237,0 0.0130914,-0.0130443 0.0130737,-0.0344564 0,-0.0475006l-0.141718 -0.141482 0.143729 -0.143835c0.0131504,-0.0133686 0.0131386,-0.0344446 0,-0.047825z"/>
 </g>
</svg>
