<?xml version="1.0" encoding="utf-8"?>
<!-- Generator: Adobe Illustrator 17.1.0, SVG Export Plug-In . SVG Version: 6.00 Build 0)  -->
<!DOCTYPE svg PUBLIC "-//W3C//DTD SVG 1.1//EN" "http://www.w3.org/Graphics/SVG/1.1/DTD/svg11.dtd">
<svg version="1.1" id="Слой_1" xmlns:ev="http://www.w3.org/2001/xml-events"
	 xmlns="http://www.w3.org/2000/svg" xmlns:xlink="http://www.w3.org/1999/xlink" x="0px" y="0px" width="8px" height="12px"
	 viewBox="2 -2 8 12" enable-background="new 2 -2 8 12" xml:space="preserve">
<path fill="#858383" d="M5.7,4l3.8,3.8c0.4,0.4,0.4,1,0,1.4L9.1,9.5c-0.4,0.4-1,0.4-1.4,0L3.2,5.1c0,0,0,0,0,0L2.9,4.7
	C2.7,4.5,2.6,4.3,2.6,4c0-0.3,0.1-0.5,0.3-0.7L3.2,3c0,0,0,0,0,0l4.5-4.5c0.4-0.4,1-0.4,1.4,0l0.3,0.3c0.4,0.4,0.4,1,0,1.4L5.7,4z"
	/>
</svg>
