<?xml version="1.0" encoding="utf-8"?>
<!-- Generator: Adobe Illustrator 17.1.0, SVG Export Plug-In . SVG Version: 6.00 Build 0)  -->
<!DOCTYPE svg PUBLIC "-//W3C//DTD SVG 1.1//EN" "http://www.w3.org/Graphics/SVG/1.1/DTD/svg11.dtd">
<svg version="1.1" id="Слой_1" xmlns="http://www.w3.org/2000/svg" xmlns:xlink="http://www.w3.org/1999/xlink" x="0px" y="0px"
	 width="28px" height="20px" viewBox="0 0 28 20" style="enable-background:new 0 0 28 20;" xml:space="preserve">
<style type="text/css">
	.st0{fill-rule:evenodd;clip-rule:evenodd;fill:#6ACCFF;}
	.st1{fill-rule:evenodd;clip-rule:evenodd;fill:#FFFFFF;}
</style>
<g id="Фигура_478">
	<g>
		<path class="st0" d="M26,0H2C0.9,0,0,0.9,0,2v16c0,1.1,0.9,2,2,2H26c1.1,0,2-0.9,2-2V2C28,0.9,27.1,0,26,0z"/>
	</g>
</g>
<g id="Фигура_479_копия">
	<g>
		<polygon class="st1" points="18.9,12 18.9,4.9 18,5 18,12.1 15.8,12.1 18.4,16.5 21.2,12 		"/>
	</g>
</g>
<g id="Фигура_479_копия_2">
	<g>
		<polygon class="st1" points="14.2,9 11.4,4.5 8.8,8.9 11,8.9 11,16 11.9,16.1 11.9,9 		"/>
	</g>
</g>
</svg>
