<?xml version="1.0" encoding="utf-8"?>
<!-- Generator: Adobe Illustrator 17.1.0, SVG Export Plug-In . SVG Version: 6.00 Build 0)  -->
<!DOCTYPE svg PUBLIC "-//W3C//DTD SVG 1.1//EN" "http://www.w3.org/Graphics/SVG/1.1/DTD/svg11.dtd">
<svg version="1.1" id="Слой_1" xmlns="http://www.w3.org/2000/svg" xmlns:xlink="http://www.w3.org/1999/xlink" x="0px" y="0px"
	 width="75px" height="75px" viewBox="0 0 75 75" enable-background="new 0 0 75 75" xml:space="preserve">
<path fill="#61C448" d="M40.4,16.8v-4.5c0-1.4-1.2-2.6-2.6-2.6c-1.4,0-2.6,1.2-2.6,2.6v4.5c0.8-0.1,1.7-0.1,2.5-0.1
	C38.6,16.7,39.5,16.8,40.4,16.8z"/>
<path fill="#54B83B" d="M58.2,37.9c-0.5-0.5-0.5-1.4,0-1.9l5.6-5.6c0.2-0.2,0.6-0.4,0.9-0.4h5.6c0.7,0,1.3,1.3,1.3,2.1
	c0,0.7-0.6,2.1-1.4,2.1h-5.1L60,39.5c-0.3,0.3-0.6,0.4-0.9,0.4C58.8,39.9,58.5,38.2,58.2,37.9z"/>
<path fill="#73D15C" d="M16.8,37.9c0.5-0.5,0.5-1.4,0-1.9l-5.6-5.6c-0.2-0.2-0.6-0.4-0.9-0.4H4.5c-0.7,0-1.3,1.3-1.3,2.1
	c0,0.7,0.6,2.1,1.4,2.1h5.1l5.3,5.2c0.3,0.3,0.6,0.4,0.9,0.4C16.2,39.9,16.5,38.2,16.8,37.9z"/>
<path fill="#54B83B" d="M40.4,16.8v-4.5c0-1.4-1.2-2.6-2.6-2.6c0,0-0.1,0-0.1,0v7h0C38.6,16.7,39.5,16.8,40.4,16.8z"/>
<path fill="#FF8063" d="M15.7,24.3h0.2h0h43.9c0-4.6-9.9-8.2-22.1-8.2C25.5,16.1,15.7,19.8,15.7,24.3C15.7,24.3,15.7,24.3,15.7,24.3
	z"/>
<path fill="#FC6A49" d="M37.7,24.1l22.1,0.2c0-4.5-10.1-8.2-22.1-8.2L37.7,24.1z"/>
<path fill="#FCD3CA" d="M25.7,19.4c-0.1,1.6,1.2,2.9,2.7,3c1.6,0.1,2.9-1.2,3-2.7c0.1-1.4-0.9-2.6-2.2-2.9c-0.7,0.1-1.4,0.2-2.1,0.3
	C26.2,17.6,25.7,18.4,25.7,19.4z"/>
<circle fill="#FCB4A4" cx="40.6" cy="19.7" r="2.9"/>
<path fill="#FCBAAB" d="M52.4,22c1.5-0.1,2.6-1.3,2.7-2.8c-1.4-0.7-3.1-1.3-5.1-1.8c-0.4,0.5-0.6,1.2-0.6,1.9
	C49.4,20.9,50.8,22.1,52.4,22z"/>
<path fill="#FC6A49" d="M15.7,57.4c0,4.4,3.5,7.9,7.9,7.9H52c4.4,0,7.9-3.5,7.9-7.9v-29H15.7V57.4z"/>
<path fill="#FF8063" d="M15.7,57.4c0,4.4,3.5,7.9,7.9,7.9h13.8l0.4-37l-22.1,0.1V57.4z"/>
<circle fill="#FCD3CA" cx="20.8" cy="33.4" r="2.9"/>
<circle fill="#FCBAAB" cx="33.8" cy="33.4" r="2.9"/>
<circle fill="#FCB4A4" cx="46.9" cy="33.4" r="2.9"/>
<circle fill="#FCD3CA" cx="27.5" cy="41.9" r="2.9"/>
<circle fill="#FCBAAB" cx="40.6" cy="41.9" r="2.9"/>
<circle fill="#FCBAAB" cx="53.6" cy="41.9" r="2.9"/>
<circle fill="#FCD3CA" cx="20.8" cy="50.8" r="2.9"/>
<circle fill="#FCBAAB" cx="33.8" cy="50.8" r="2.9"/>
<circle fill="#FCBAAB" cx="46.9" cy="50.8" r="2.9"/>
<circle fill="#FCD3CA" cx="27.5" cy="59.4" r="2.9"/>
<circle fill="#FCBAAB" cx="40.6" cy="59.4" r="2.9"/>
<circle fill="#FCBAAB" cx="53.6" cy="59.4" r="2.9"/>
<path fill-rule="evenodd" clip-rule="evenodd" fill="#61C448" d="M14.8,23.9h45.5c0.8,0,1.4,1.2,1.4,2.6v0.1c0,1.4-0.6,2.6-1.4,2.6
	H14.8c-0.8,0-1.4-1.2-1.4-2.6v-0.1C13.5,25.1,14.1,23.9,14.8,23.9z"/>
<path fill="#FCBAAB" d="M56.3,33.7c0.6,1.4,2.1,2.1,3.5,1.6l0-5.4c-0.6-0.2-1.3-0.2-2,0.1C56.4,30.6,55.7,32.3,56.3,33.7z"/>
<path fill="#FCBAAB" d="M56.3,51.9c0.6,1.4,2.1,2.1,3.5,1.6l0-5.4c-0.6-0.2-1.3-0.2-2,0.1C56.4,48.8,55.7,50.5,56.3,51.9z"/>
<path fill="#FCD3CA" d="M19.2,43c-0.6,1.4-2.1,2.1-3.5,1.6l0-5.4c0.6-0.2,1.3-0.2,2,0.1C19.2,39.9,19.8,41.6,19.2,43z"/>
<path fill="#FCD3CA" d="M19.2,60.3c-0.5,1-1.3,1.4-2.1,1.6c-1.2-1.7-1.5-3.4-1.4-5.4c0.6-0.2,1.3-0.2,2,0.1
	C19.1,57.1,19.8,58.8,19.2,60.3z"/>
<path fill="#FCD3CA" d="M18.9,22.7C18,22.5,17.3,22,17,21.5c1.3-1.4,2.9-2.2,4.8-2.9c0.2,0.5,0.3,0.9,0.3,1.5
	C21.9,21.6,20.5,22.8,18.9,22.7z"/>
<path fill-rule="evenodd" clip-rule="evenodd" fill="#54B83B" d="M37.7,23.9h22.6c0.8,0,1.4,1.2,1.4,2.6v0.1c0,1.4-0.6,2.6-1.4,2.6
	H37.7V23.9z"/>
</svg>
