<?xml version="1.0" encoding="utf-8"?>
<!-- Generator: Adobe Illustrator 17.1.0, SVG Export Plug-In . SVG Version: 6.00 Build 0)  -->
<!DOCTYPE svg PUBLIC "-//W3C//DTD SVG 1.1//EN" "http://www.w3.org/Graphics/SVG/1.1/DTD/svg11.dtd">
<svg version="1.1" id="Слой_1" xmlns="http://www.w3.org/2000/svg" xmlns:xlink="http://www.w3.org/1999/xlink" x="0px" y="0px"
	 width="75px" height="75px" viewBox="0 0 75 75" enable-background="new 0 0 75 75" xml:space="preserve">
<path fill="#FCC09A" d="M28.4,18c0.1,4.6-3.2,8.4-7.4,8.5c-4.2,0.1-7.7-3.5-7.8-8.1c-0.1-4.6,3.2-8.4,7.4-8.5
	C24.8,9.8,28.3,13.4,28.4,18z"/>
<ellipse transform="matrix(0.9996 -2.648900e-002 2.648900e-002 0.9996 -0.4858 0.5577)" fill="#FFDCC4" cx="20.8" cy="18.6" rx="4.1" ry="4.5"/>
<path fill="#F5AE82" d="M61.8,17.5c0.1,4.6-3.2,8.4-7.4,8.5c-4.2,0.1-7.7-3.5-7.8-8.1c-0.1-4.6,3.2-8.4,7.4-8.5
	C58.2,9.3,61.7,12.9,61.8,17.5z"/>
<ellipse transform="matrix(0.9996 -2.649093e-002 2.649093e-002 0.9996 -0.4542 1.4391)" fill="#FFDCC4" cx="54.1" cy="17.9" rx="4.1" ry="4.5"/>
<path fill="#FCC09A" d="M29.2,57.9c0,4.6-3.4,8.3-7.6,8.3c-4.2,0-7.6-3.7-7.6-8.3c0-4.6,3.4-8.3,7.6-8.3
	C25.8,49.6,29.2,53.3,29.2,57.9z"/>
<ellipse fill="#F5AE82" cx="52.3" cy="57.9" rx="7.6" ry="8.3"/>
<path fill="#FCC09A" d="M50.9,47.4c0,7.7-6.2,14-13.9,14c-7.7,0-13.9-6.3-13.9-14c0-7.7,7.3-13.9,13.9-14
	C44.7,33.4,50.9,39.7,50.9,47.4z"/>
<path fill="#F5AE82" d="M51,48.3c4.3,0.7,7.2-1,7.6-3.6c0.5-2.6-1.6-6.3-10.7-6.2C49.3,41.9,50.6,43,51,48.3z"/>
<path fill="#F5AE82" d="M37.8,58.6c0,0-0.6,2.8-0.5,2.8c7.7,0,13.9-6.3,13.9-14c0-7.7-6.4-14.8-13.2-14.8c0,0,0.3,9.5,0.2,9.5
	L37.8,58.6z"/>
<path fill="#F5AE82" d="M55.2,24.8c0.2,8.8-7.7,16.1-17.4,16.7c-9.8,0.3-17.9-6.7-18.1-15.8C19.4,16.6,27.1,9,37,8.8
	C46.8,8.5,54.9,15.7,55.2,24.8z"/>
<path fill="#F9CCAF" d="M48.5,32.6c0.1,4.7-5,8.8-10.9,9c-5.9,0.2-10.2-3.8-10.4-8.4c-0.1-4.7,4.5-8.6,10.4-8.7
	C43.5,24.3,48.3,28,48.5,32.6z"/>
<ellipse fill="#FFDCC4" cx="20.5" cy="59.2" rx="4.6" ry="5.4"/>
<path fill="#FCC09A" d="M37.5,41.7c-9.8,0.2-17.6-6.8-17.9-15.9C19.4,16.6,27.1,9,37,8.8c0.5,0,0.3,0,0.8,0L37.5,41.7z"/>
<path fill="#FFDCC4" d="M38.1,41.6c-8.8,0.3-11.1-6.3-10.9-8.4c-0.2-5.7,5.8-8.8,10.6-8.7l0.2,4.6L38.1,41.6z"/>
<ellipse fill="#FFDCC4" cx="53.5" cy="59.2" rx="4.6" ry="5.4"/>
<path fill="#875638" d="M31.9,23.1c0,1-0.8,1.9-1.8,1.9c-1,0-1.9-0.8-1.9-1.8c0-1,0.8-1.9,1.8-1.9C31,21.2,31.8,22,31.9,23.1z"/>
<path fill="#875638" d="M47.8,22.4c0,1-0.8,1.9-1.8,1.9c-1,0-1.9-0.8-1.9-1.8c0-1,0.8-1.9,1.8-1.9C46.9,20.6,47.8,21.4,47.8,22.4z"
	/>
<path fill="#FCC09A" d="M23.3,48.3c-4.3,0.7-7.7-1-8.1-3.6c-0.4-2.6,2-7.6,11.6-6.1C24.8,42.1,23.1,43.7,23.3,48.3z"/>
<ellipse fill="#FFDCC4" cx="18.3" cy="43.9" rx="2" ry="2.4"/>
<ellipse fill="#FFDCC4" cx="55.5" cy="43.9" rx="2" ry="2.4"/>
<path fill="#F54D27" d="M43.6,46.6c-2.7-0.6-4.7,1.4-5.7,2.4c-0.5-1.4-2.3-4.1-5.1-4.6c-3.6-0.7-8.1,2.8-6.2,9.3
	c1.7,5.8,6.8,10,7.9,10.8c1.3-0.3,7.6-2.2,11.4-6.9C50,52.3,47.2,47.3,43.6,46.6z"/>
<path fill="#FA6949" d="M37.9,48.8c-0.7-0.9-1.8-3.8-5.1-4.5c-3.7-0.9-8.2,2.8-6.3,9.3c1.7,5.8,6.8,9.9,7.8,10.7L37.9,48.8z"/>
<path fill="#DB834C" d="M32.6,36.2c-0.3-0.1-0.4-0.3-0.3-0.6c0.1-0.3,0.3-0.4,0.6-0.3c0,0,3.8,1.4,4.5-2.6l0.5-0.2l0.6,0.2
	c0,0,0.5,3.4,4.3,2.5c0.3-0.1,0.5,0,0.6,0.3c0.1,0.3-0.2,0.5-0.4,0.6c-3,0.7-4.4-0.7-5-2C36.4,37.3,32.6,36.2,32.6,36.2z"/>
<ellipse transform="matrix(0.9997 -2.642471e-002 2.642471e-002 0.9997 -0.7813 1.0132)" fill="#AB7554" cx="37.9" cy="30.1" rx="3.5" ry="2.8"/>
</svg>
