<?xml version="1.0" encoding="utf-8"?>
<!-- Generator: Adobe Illustrator 17.1.0, SVG Export Plug-In . SVG Version: 6.00 Build 0)  -->
<!DOCTYPE svg PUBLIC "-//W3C//DTD SVG 1.1//EN" "http://www.w3.org/Graphics/SVG/1.1/DTD/svg11.dtd">
<svg version="1.1" id="Слой_1" xmlns="http://www.w3.org/2000/svg" xmlns:xlink="http://www.w3.org/1999/xlink" x="0px" y="0px"
	 width="75px" height="75px" viewBox="0 0 75 75" enable-background="new 0 0 75 75" xml:space="preserve">
<rect x="50.7" y="10.5" opacity="0.91" fill-rule="evenodd" clip-rule="evenodd" fill="#85CA7D" width="2.5" height="6.7"/>
<polygon opacity="0.91" fill-rule="evenodd" clip-rule="evenodd" fill="#FFE77D" points="23,33.3 24.7,33.3 24.7,45.3 22.5,45.3 
	22.5,41 17.7,41 17.7,38.9 20.3,38.9 20.3,33.2 23,33.2 "/>
<path opacity="0.91" fill-rule="evenodd" clip-rule="evenodd" fill="#CCC4E6" d="M14.3,32.8l-2.7-12.7c0,0,0-4.6,4.1-4.8
	c4.1-0.2,39.2-0.1,39.2-0.1s3.8,0.2,4.3,3.9c0.5,3.7,1.7,27.1,1.7,27.1L61.8,60c0,0-1,4.4-4.4,4.5c-3.4,0.1-44.5-0.1-44.5-0.1
	s-3.5-1-3.7-3.7c-0.2-2.7,0-8.3,0-8.3s1-3.8,4.3-3.9c3.3-0.1,26.8-0.1,26.8-0.1l2.3-19.4L30.8,29c0,0-1.6,6.7-4.9,6.7
	c-3.3,0-7.7,0-7.7,0S16.2,36,14.3,32.8z"/>
<path opacity="0.91" fill-rule="evenodd" clip-rule="evenodd" fill="#C0B3E6" d="M44.1,15.2c5.6,0,10.8,0,10.8,0s3.8,0.2,4.3,3.9
	c0.5,3.7,1.7,27.1,1.7,27.1L61.8,60c0,0-2,4.5-4.4,4.5c-2.4,0-9.6-0.2-18.9-0.2L44.1,15.2z"/>
<path opacity="0.91" fill-rule="evenodd" clip-rule="evenodd" fill="#FFFFFF" d="M52,56.1c3,0,5.5-2.4,5.5-5.3
	c0-2.9-2.4-5.3-5.5-5.3c-3,0-5.5,2.4-5.5,5.3C46.6,53.7,49,56.1,52,56.1z"/>
<path opacity="0.91" fill-rule="evenodd" clip-rule="evenodd" fill="#85CA7D" d="M52.2,53.8c1.8,0,3.2-1.4,3.2-3.1
	c0-1.7-1.4-3.1-3.2-3.1c-1.8,0-3.2,1.4-3.2,3.1C49,52.4,50.4,53.8,52.2,53.8z"/>
<path opacity="0.91" fill-rule="evenodd" clip-rule="evenodd" fill="#FFE77D" d="M62.8,16.7h1.4c0.9,0,1.6,0.9,1.6,1.9v14.7
	c0,1-0.7,1.9-1.6,1.9h-1.4c-0.9,0-1.6-0.9-1.6-1.9V18.6C61.2,17.6,62,16.7,62.8,16.7z"/>
<polygon opacity="0.91" fill-rule="evenodd" clip-rule="evenodd" fill="#88D47F" points="12.8,48.5 27.6,62.6 37.7,48.6 "/>
<circle opacity="0.91" fill="#FCEFB3" cx="19.4" cy="50.8" r="1.9"/>
<path opacity="0.91" fill="#FCEFB3" d="M26.7,51.1c1.6,0,2.9,1.3,2.9,2.9c0,1.6-1.3,2.9-2.9,2.9c-1.6,0-2.9-1.3-2.9-2.9
	C23.8,52.4,25.1,51.1,26.7,51.1z"/>
<circle opacity="0.91" fill="#FCEFB3" cx="32.2" cy="51" r="1.2"/>
</svg>
