<?xml version="1.0" encoding="utf-8"?><svg xmlns="http://www.w3.org/2000/svg" width="75" height="75" viewBox="0 0 75 75"><path fill-rule="evenodd" clip-rule="evenodd" fill="#FEC699" d="M54.2 62.1L20.6 62l1.6 10.2h30.7z"/><path fill-rule="evenodd" clip-rule="evenodd" fill="#6DCC56" d="M36.1 32.7h2.2l1.3 26.1H35z"/><path fill-rule="evenodd" clip-rule="evenodd" fill="#87D973" d="M36.1 32.7l1.2.1.2 25.6H35z"/><path fill-rule="evenodd" clip-rule="evenodd" fill="#FAC5E0" d="M37.3 26.2v10.4c4.7 20 31.2 3.9 10.7-6.8C69 34.4 64.2 3.2 44.3 18c3.9-9.9-1.6-15.1-7-15.2v23.4zm0 0l.1-23.4c-5.3-.1-10.4 4.7-6.5 14.8C13.7 4.3 4 32.8 26.4 29.1c-16.6 11 5.6 27.5 10.9 7.3 0 0 0 .1 0 .1V26.2z"/><path fill-rule="evenodd" clip-rule="evenodd" fill="#87D973" d="M23 48.7c4.8-3 8.6-.7 11.8 5.4-6.1 4-10 2.7-11.8-5.4z"/><path fill-rule="evenodd" clip-rule="evenodd" fill="#FCB8DB" d="M44.3 18c3.7-9.2-1.1-15.1-7-15.1l-.1 33.7c5.3 20.2 30.8 3.7 10.7-6.7C69 34.4 64.2 3.2 44.3 18z"/><path fill-rule="evenodd" clip-rule="evenodd" fill="#6DCC56" d="M51.8 49.1c-4.4-3.1-8.2-1-11.4 4.6 5.5 4.2 9.3 3 11.4-4.6z"/><path fill-rule="evenodd" clip-rule="evenodd" fill="#FCDE5B" d="M37.3 16.4c5.4 0 9.9 4.5 9.9 10s-4.4 10-9.9 10c-5.4 0-9.9-4.5-9.9-10 .1-5.5 4.5-10 9.9-10z"/><path fill-rule="evenodd" clip-rule="evenodd" fill="#F7AD71" d="M54.3 62.1l-16.6.2.1 9.9h15.1z"/><path fill-rule="evenodd" clip-rule="evenodd" fill="#FFE985" d="M37.3 36.4c-5.4 0-9.9-4.5-9.9-10s4.4-10 9.9-10v20z"/><path fill-rule="evenodd" clip-rule="evenodd" fill="#FFD2AD" d="M18.4 58l37.8-.3-.4 4.4-36.8.3z"/><path fill-rule="evenodd" clip-rule="evenodd" fill="#FCC79C" d="M37.7 57.9l18.5-.2-.4 4.5-18.1.1z"/></svg>