<?xml version="1.0" encoding="utf-8"?>
<!-- Generator: Adobe Illustrator 17.1.0, SVG Export Plug-In . SVG Version: 6.00 Build 0)  -->
<!DOCTYPE svg PUBLIC "-//W3C//DTD SVG 1.1//EN" "http://www.w3.org/Graphics/SVG/1.1/DTD/svg11.dtd">
<svg version="1.1" id="Слой_1" xmlns="http://www.w3.org/2000/svg" xmlns:xlink="http://www.w3.org/1999/xlink" x="0px" y="0px"
	 width="75px" height="75px" viewBox="0 0 75 75" enable-background="new 0 0 75 75" xml:space="preserve">
<path fill-rule="evenodd" clip-rule="evenodd" fill="#87D973" d="M37.5,6C46.7,6,63,23.6,63,38.7c0,15.1-10.7,21.9-25.5,21.9
	C22.6,60.6,12,53.7,12,38.7C12,23.6,28.3,6,37.5,6z"/>
<path fill-rule="evenodd" clip-rule="evenodd" fill="#6DCC56" d="M37.5,6C46.7,6,63,23.6,63,38.7S52.4,60.6,37.5,60.6V6z"/>
<path fill-rule="evenodd" clip-rule="evenodd" fill="#D48646" d="M37.4,21.7L37.4,21.7c2.2,0,4,1.8,4.1,4.1l0.3,8.3l3.7-3.7
	c0.7-0.7,2-0.7,2.7,0l0,0c0.7,0.7,0.7,2,0,2.7L42,39.3l0.2,5.8l3.3-3.3c0.7-0.7,2-0.7,2.7,0l0,0c0.7,0.7,0.7,2,0,2.7l-5.8,5.8
	l0.6,14.9c0.1,2.9-3.2,4-5.6,3.8c-2.2,0-5.7-1.6-5.6-3.8l0.6-15.1l-5.6-5.6c-0.7-0.7-0.7-2,0-2.7l0,0c0.7-0.7,2-0.7,2.7,0l3.1,3.1
	l0.2-5.8l-6-6c-0.7-0.7-0.7-2,0-2.7l0,0c0.7-0.7,2-0.7,2.7,0l3.5,3.5l0.3-8.1C33.4,23.5,35.2,21.7,37.4,21.7z"/>
<path fill-rule="evenodd" clip-rule="evenodd" fill="#DB9053" d="M37.4,21.7L37.4,21.7c0,0,0.1,0,0.1,0V69c0,0-0.1,0-0.1,0
	c-2.2,0-5.7-1.6-5.6-3.8l0.6-15.1l-5.6-5.6c-0.7-0.7-0.7-2,0-2.7l0,0c0.7-0.7,2-0.7,2.7,0l3.1,3.1l0.2-5.8l-6-6
	c-0.7-0.7-0.7-2,0-2.7l0,0c0.7-0.7,2-0.7,2.7,0l3.5,3.5l0.3-8.1C33.4,23.5,35.2,21.7,37.4,21.7z"/>
<path fill-rule="evenodd" clip-rule="evenodd" fill="#FF91C8" d="M26.5,26.4c2.2,0,4-1.8,4-4c0-2.2-1.8-4-4-4c-2.2,0-4,1.8-4,4
	C22.5,24.6,24.3,26.4,26.5,26.4z"/>
<path fill-rule="evenodd" clip-rule="evenodd" fill="#F76C4D" d="M54.1,38.5c2.2,0,4-1.8,4-4c0-2.2-1.8-4-4-4c-2.2,0-4,1.8-4,4
	C50.1,36.7,51.9,38.5,54.1,38.5z"/>
<path fill-rule="evenodd" clip-rule="evenodd" fill="#FFD414" d="M19.5,47.5c2.2,0,4-1.8,4-4c0-2.2-1.8-4-4-4s-4,1.8-4,4
	C15.5,45.6,17.3,47.5,19.5,47.5z"/>
<path fill-rule="evenodd" clip-rule="evenodd" fill="#FFA1D0" d="M26.4,18.3c-2.2,0-4,1.8-4,4c0,2.2,1.8,4,4,4V18.3z"/>
<path fill-rule="evenodd" clip-rule="evenodd" fill="#FA7B5F" d="M54,30.5c-2.2,0-4,1.8-4,4c0,2.2,1.8,4,4,4V30.5z"/>
<path fill-rule="evenodd" clip-rule="evenodd" fill="#FFDE4A" d="M19.5,39.4c-2.2,0-4,1.8-4,4c0,2.2,1.8,4,4,4V39.4z"/>
</svg>
