<?xml version="1.0" encoding="utf-8"?>
<!-- Generator: Adobe Illustrator 17.1.0, SVG Export Plug-In . SVG Version: 6.00 Build 0)  -->
<!DOCTYPE svg PUBLIC "-//W3C//DTD SVG 1.1//EN" "http://www.w3.org/Graphics/SVG/1.1/DTD/svg11.dtd">
<svg version="1.1" id="Слой_1" xmlns="http://www.w3.org/2000/svg" xmlns:xlink="http://www.w3.org/1999/xlink" x="0px" y="0px"
	 width="75px" height="75px" viewBox="0 0 75 75" enable-background="new 0 0 75 75" xml:space="preserve">
<path fill-rule="evenodd" clip-rule="evenodd" fill="#F7AD71" d="M32,53.5v9.8c0,2-1.2,3.9-3.1,3.9H26c-1.9,0-3.4-1.9-3.4-3.9v-9.8
	H32z"/>
<path fill-rule="evenodd" clip-rule="evenodd" fill="#FEC699" d="M45.3,53.5v9.8c0,2-1.2,3.9-3.1,3.9h-2.9c-1.9,0-3.4-1.9-3.4-3.9
	v-9.8H45.3z"/>
<path fill-rule="evenodd" clip-rule="evenodd" fill="#F7AD71" d="M58.4,48.6l0.1,14.8c0,2-1.2,3.9-3.1,3.9h-2.9
	c-1.9,0-3.4-1.9-3.4-3.9v-9.8L58.4,48.6z"/>
<path fill-rule="evenodd" clip-rule="evenodd" fill="#FEC699" d="M16.7,30.3l35.8-0.1c3.3,0,6,2.7,6,6v12c0,3.3-2.7,6-6,6H18.8v9.5
	c0,1.8-1.2,3.6-3.1,3.6h-2.9c-1.9,0-3.4-1.8-3.4-3.6V17c0-1.8,1.5-3.3,3.4-3.3h0.6c1.9,0,3.4,1.5,3.4,3.3L16.7,30.3z"/>
<path fill-rule="evenodd" clip-rule="evenodd" fill="#FFD2AD" d="M48.9,13.9c-1.6,0-3.2,0.2-4.6,0.7c-1.9-2.1-5.8-6.2-7.5-6.7
	c-2.2-0.7-3.4,2.1-3.4,2.1l-0.2,14.6c-0.7,1.9-1.1,3.9-1.1,6.1c0,9.3,7.5,16.8,16.8,16.8s16.8-7.5,16.8-16.8c0-2.2-0.4-4.4-1.2-6.3
	l-0.2-14.3c-2-3.8-5-1.2-5-1.2l-6,5.5C51.9,14.1,50.4,13.9,48.9,13.9z"/>
<path fill-rule="evenodd" clip-rule="evenodd" fill="#1A8F0D" d="M41.5,30.2c1.8,0,3.2-1.5,3.2-3.2c0-1.8-1.5-3.2-3.2-3.2
	c-1.8,0-3.2,1.5-3.2,3.2C38.3,28.7,39.8,30.2,41.5,30.2z"/>
<path fill-rule="evenodd" clip-rule="evenodd" fill="#FCC79C" d="M49,47.4c9.2,0,16.7-7.5,16.7-16.8c0-2.2-0.4-4.4-1.2-6.3
	l-0.2-14.3c-2-3.8-5-1.2-5-1.2l-6,5.5c-1.3-0.4-2.8-0.6-4.2-0.6V47.4z"/>
<path fill-rule="evenodd" clip-rule="evenodd" fill="#1A8F0D" d="M56.4,30.2c1.8,0,3.2-1.5,3.2-3.2c0-1.8-1.5-3.2-3.2-3.2
	c-1.8,0-3.2,1.5-3.2,3.2C53.1,28.7,54.6,30.2,56.4,30.2z"/>
<path fill-rule="evenodd" clip-rule="evenodd" fill="#F7AD71" d="M21.3,30.2v18.4c0,1.3-1.3,2.2-2.3,2.2c-1.3,0-2.3-0.9-2.3-2.2
	V30.2H21.3z"/>
<path fill-rule="evenodd" clip-rule="evenodd" fill="#F7AD71" d="M30.3,30.2v18.4c0,1.3-1.3,2.2-2.3,2.2c-1.3,0-2.3-0.9-2.3-2.2
	V30.2H30.3z"/>
<path fill-rule="evenodd" clip-rule="evenodd" fill="#FFD6B5" d="M40.2,27.4c0.9,0,1.6-0.7,1.6-1.6c0-0.9-0.7-1.6-1.6-1.6
	c-0.9,0-1.6,0.7-1.6,1.6C38.6,26.7,39.4,27.4,40.2,27.4z"/>
<path fill-rule="evenodd" clip-rule="evenodd" fill="#FFD6B5" d="M55.2,27.7c1,0,1.8-0.8,1.8-1.8c0-1-0.8-1.8-1.8-1.8
	c-1,0-1.8,0.8-1.8,1.8C53.4,26.9,54.2,27.7,55.2,27.7z"/>
<path fill-rule="evenodd" clip-rule="evenodd" fill="#D84C2D" d="M36.4,19.4v-4.2c0,0,0.5-1.6,1.7-1.1c1.2,0.5,2.6,2.1,2.6,2.1
	S38.1,17.3,36.4,19.4z"/>
<path fill-rule="evenodd" clip-rule="evenodd" fill="#C94426" d="M61.3,19.1v-4.2c0,0-0.5-1.6-1.7-1.1c-1.2,0.5-2.6,2.1-2.6,2.1
	S59.6,17,61.3,19.1z"/>
<path fill="#F3775B" d="M41.9,40.3c-0.2-0.3-0.2-0.8,0.2-1.1c0.3-0.2,0.8-0.2,1.1,0.2c0,0,2.5,3.9,4.6,0.3l0.3-2.9l-2.4-2.6
	c0,0,0-0.6,0.3-0.8c0.4-0.1,4-1,6.3,0.1c0,0,0.4,0.3,0.1,0.7c-0.4,0.4-1.8,2-2.4,2.6l0.1,2.8c0.7,2,4.2,1.7,5.1-0.2
	c0.2-0.4,0.6-0.5,1-0.4c0.4,0.2,0.5,0.6,0.4,1c-2.1,3.2-5.1,3.2-7.6,0.8C44.9,45.4,41.9,40.3,41.9,40.3z"/>
<path fill="#D84C2D" d="M48.3,37L48.3,37l-2.5-2.8c0,0,0-0.6,0.3-0.8c0.4-0.1,4-1,6.3,0.1c0,0,0.4,0.3,0.1,0.7
	c-0.3,0.3-1.9,2-2.5,2.7C49.2,37.4,48.8,37.3,48.3,37z"/>
<path fill-rule="evenodd" clip-rule="evenodd" fill="#D48646" d="M35.6,40.4c4.3,8.2,13.8,9.7,18.8,8.7c1.2-0.2,2.9-0.8,4-1.5l0-3.1
	c-0.9,0.5-1.9,1.3-4,2C46.6,49.1,40.3,45.8,35.6,40.4z"/>
<path fill-rule="evenodd" clip-rule="evenodd" fill="#F7AD71" d="M40.1,45.7l0,3c0,1.3-1.3,2.2-2.3,2.2c-1.3,0-2.3-0.9-2.3-2.2
	l0-8.2L40.1,45.7z"/>
</svg>
