<?xml version="1.0" encoding="utf-8"?><svg xmlns="http://www.w3.org/2000/svg" width="75" height="75" viewBox="0 0 75 75"><path fill-rule="evenodd" clip-rule="evenodd" fill="#BDB3E3" d="M38.8 68c5.3 0 9.4.5 9.4 1.1 0 .6-4.5 1.1-10.1 1.1S28 69.7 28 69.1c0-.6 3.9-1 9-1.1l-.5-15.8-.9-5.8H34l-.3-4c-4.3-.1-7.8-.1-7.8-.1s.8-7.6 6.9-10.3l-1.2-7.1s-4.2-.4-3.2-5.2c-.8-.5-1.8-1-3-1.3 0 0 .8-6.8 7-5.2.4.1.8.2 1.2.3 1-.4 2.1-1.5 2-4.3l-2.5-.1s-.1-2.3 3.4-2.9c0 0 1.2-2.7 2.7-.1 0 0 3.4.5 3.4 2.9l-2.5.1s-.3 3.3 1.7 4.4c.7-.2.8-.2 1.5-.5s6.7-.9 6.8 5.4c-1.6.3-2.4.8-3.4 1.5-.4 3.2-1.2 4.4-3.3 5.3-.6 2.4-.7 5-.9 6.9 6.7 2.1 7.2 8.6 7.1 10.3-.8.2-3.8.2-7.3.2l-.7 4.2h-1.2l-1 5.7-.6 15.5z"/><path fill-rule="evenodd" clip-rule="evenodd" fill="#AB9FD6" d="M38.8 68c5.3 0 9.4.5 9.4 1.1 0 .6-4.5 1.1-10.1 1.1H38V4.8c.4 0 .8.3 1.3 1.1 0 0 3.4.5 3.4 2.9l-2.5.1s-.3 3.3 1.7 4.4c.7-.2 1.2-.4 1.5-.5 1.2-.5 6.8-1 6.9 5.3-1.6.3-2.4.8-3.4 1.6-.4 3.2-1.2 4.4-3.3 5.3-.6 2.4-.7 5-.9 6.9 6.7 2.1 7.2 8.6 7.1 10.3-.8.2-3.8.2-7.3.2l-.7 4.2h-1.2l-1 5.7-.8 15.7z"/><g fill-rule="evenodd" clip-rule="evenodd"><path opacity=".76" fill="#FFDEEF" d="M10.5 49.3s6.6-14.7 22.2-17.4l-1.1-7.2s-3.4-.2-3.4-4l3.1-3.3s1.6-1.4 3-.1c1.4 1.3 3.5 2.7 3.5 2.7l2.5-2.6s1.6-1.5 3 0 3.3 3.4 3.3 3.4-.4 3.4-3.2 4l-.8 6.9C58.3 34.3 64.1 48.1 64.4 49c0 0-13.8 6.6-27.3 6-13.3-.3-22.7-3.6-26.6-5.7z"/><path opacity=".76" fill="#FFC7E4" d="M37.9 20l2.3-2.4s1.6-1.7 2.9-.4c1.3 1.3 3.5 3.7 3.5 3.7s-.4 3.4-3.2 4l-.7 6.9c15.7 2.6 21.5 16.4 21.8 17.3 0 0-13.2 6.3-26.4 6.1L37.9 20z"/></g><ellipse fill-rule="evenodd" clip-rule="evenodd" fill="#F3F3F3" cx="34.2" cy="13.6" rx=".7" ry=".7"/><ellipse fill-rule="evenodd" clip-rule="evenodd" fill="#F3F3F3" cx="35.4" cy="14.2" rx=".7" ry=".7"/><ellipse fill-rule="evenodd" clip-rule="evenodd" fill="#F3F3F3" cx="36.9" cy="14.6" rx=".7" ry=".7"/><ellipse fill-rule="evenodd" clip-rule="evenodd" fill="#F3F3F3" cx="38.6" cy="14.7" rx=".7" ry=".7"/><ellipse fill-rule="evenodd" clip-rule="evenodd" fill="#F3F3F3" cx="40.1" cy="14.2" rx=".7" ry=".7"/><ellipse fill-rule="evenodd" clip-rule="evenodd" fill="#F3F3F3" cx="41.3" cy="13.5" rx=".7" ry=".7"/><path fill-rule="evenodd" clip-rule="evenodd" fill="#fff" d="M37.8 23.8c1.1 0 2.1-.9 2.1-2.1 0-1.1-.9-2.1-2.1-2.1-1.1 0-2.1.9-2.1 2.1 0 1.1 1 2.1 2.1 2.1z"/><path fill-rule="evenodd" clip-rule="evenodd" fill="#F3F3F3" d="M37.9 23.8c1.1 0 2-.9 2-2.1s-.9-2-2-2.1v4.2z"/></svg>