<?xml version="1.0" encoding="utf-8"?>
<!-- Generator: Adobe Illustrator 17.1.0, SVG Export Plug-In . SVG Version: 6.00 Build 0)  -->
<!DOCTYPE svg PUBLIC "-//W3C//DTD SVG 1.1//EN" "http://www.w3.org/Graphics/SVG/1.1/DTD/svg11.dtd">
<svg version="1.1" id="Слой_1" xmlns="http://www.w3.org/2000/svg" xmlns:xlink="http://www.w3.org/1999/xlink" x="0px" y="0px"
	 width="75px" height="75px" viewBox="0 0 75 75" enable-background="new 0 0 75 75" xml:space="preserve">
<polygon fill-rule="evenodd" clip-rule="evenodd" fill="#F5AE82" points="52.3,45.9 50.9,45.5 42,59.4 43.2,60.4 "/>
<path fill-rule="evenodd" clip-rule="evenodd" fill="#FCC09A" d="M32.8,58.3h9.3c0.8,0,1.4,0.6,1.4,1.4v5.4c0,0.8-0.6,1.4-1.4,1.4
	h-9.3c-0.8,0-1.4-0.6-1.4-1.4v-5.4C31.4,59,32.1,58.3,32.8,58.3z"/>
<path fill-rule="evenodd" clip-rule="evenodd" fill="#F5AE82" d="M37.5,58.3h4.7c0.8,0,1.4,0.6,1.4,1.4v5.4c0,0.8-0.6,1.4-1.4,1.4
	h-4.7V58.3z"/>
<path fill-rule="evenodd" clip-rule="evenodd" fill="#FCC09A" d="M35.7,51.4h3.8c0.5,0,0.9,0.4,0.9,0.8v1.6c0,0.4-0.4,0.8-0.9,0.8
	h-3.8c-0.5,0-0.9-0.4-0.9-0.8v-1.6C34.8,51.8,35.2,51.4,35.7,51.4z"/>
<path fill-rule="evenodd" clip-rule="evenodd" fill="#F5AE82" d="M37.6,51.4h1.9c0.5,0,0.9,0.4,0.9,0.8v1.6c0,0.4-0.4,0.8-0.9,0.8
	h-1.9V51.4z"/>
<polygon fill-rule="evenodd" clip-rule="evenodd" fill="#FCC09A" points="22.9,46 24.1,45.3 33.4,59.6 32.2,60.1 "/>
<path fill-rule="evenodd" clip-rule="evenodd" fill="#9ED3F2" d="M37.5,51.6c13.4,0,24.3-9.7,24.3-21.6c0-11.9-10.9-21.6-24.3-21.6
	c-13.4,0-24.3,9.7-24.3,21.6C13.2,41.9,24.1,51.6,37.5,51.6z"/>
<path fill-rule="evenodd" clip-rule="evenodd" fill="#85CA7D" d="M37.5,8.4c13.4,0,24.3,9.7,24.3,21.6c0,11.9-10.9,21.6-24.3,21.6
	l0,0V8.4L37.5,8.4z"/>
<path fill-rule="evenodd" clip-rule="evenodd" fill="#FFEC96" d="M37.5,51.6c9.7,0,17.6-9.7,17.6-21.6c0-11.9-7.9-21.6-17.6-21.6
	c-9.7,0-17.6,9.7-17.6,21.6C19.9,41.9,27.8,51.6,37.5,51.6z"/>
<path fill-rule="evenodd" clip-rule="evenodd" fill="#FC846A" d="M37.5,8.4c9.7,0,17.6,9.7,17.6,21.6c0,11.9-7.9,21.6-17.6,21.6l0,0
	V8.4L37.5,8.4z"/>
<path fill-rule="evenodd" clip-rule="evenodd" fill="#C9BEED" d="M37.5,51.6c4.3,0,7.8-9.7,7.8-21.6c0-11.9-3.5-21.6-7.8-21.6
	c-4.3,0-7.8,9.7-7.8,21.6C29.7,41.9,33.2,51.6,37.5,51.6z"/>
<path fill="#FFE988" d="M24.4,27.2c1.7,0,3.1,1.3,3.1,2.8c0,1.6-1.4,2.8-3.1,2.8c-1.7,0-3.1-1.3-3.1-2.8
	C21.3,28.5,22.7,27.2,24.4,27.2z"/>
<path fill-rule="evenodd" clip-rule="evenodd" fill="#C0B3E6" d="M37.6,8.4c4.3,0.1,7.7,9.7,7.7,21.6c0,11.9-3.5,21.5-7.7,21.6V8.4z
	"/>
</svg>
