<?xml version="1.0" encoding="utf-8"?>
<!-- Generator: Adobe Illustrator 17.1.0, SVG Export Plug-In . SVG Version: 6.00 Build 0)  -->
<!DOCTYPE svg PUBLIC "-//W3C//DTD SVG 1.1//EN" "http://www.w3.org/Graphics/SVG/1.1/DTD/svg11.dtd">
<svg version="1.1" id="Слой_1" xmlns="http://www.w3.org/2000/svg" xmlns:xlink="http://www.w3.org/1999/xlink" x="0px" y="0px"
	 width="75px" height="75px" viewBox="0 0 75 75" enable-background="new 0 0 75 75" xml:space="preserve">
<path fill-rule="evenodd" clip-rule="evenodd" fill="#D1EDFF" d="M24.3,22.9h26.4c3.5,0,6.3,2.8,6.3,6.3v28.2c0,3.5-2.8,6.3-6.3,6.3
	H24.3c-3.5,0-6.3-2.8-6.3-6.3V29.2C18,25.7,20.8,22.9,24.3,22.9z"/>
<path fill-rule="evenodd" clip-rule="evenodd" fill="#BDE6FF" d="M38,22.9h12.7c3.5,0,6.3,2.8,6.3,6.3v28.2c0,3.5-2.8,6.3-6.3,6.3
	H38V22.9z"/>
<path fill-rule="evenodd" clip-rule="evenodd" fill="#FFFFFF" d="M37.9,57.8c7.8,0,14.2-6.4,14.2-14.2c0-7.8-6.4-14.2-14.2-14.2
	c-7.8,0-14.2,6.4-14.2,14.2C23.7,51.4,30.1,57.8,37.9,57.8z"/>
<path fill-rule="evenodd" clip-rule="evenodd" fill="#FAFAFA" d="M38,57.8c7.8,0,14.2-6.4,14.2-14.2c0-7.9-6.4-14.2-14.2-14.2V57.8z
	"/>
<path fill="#FA5732" d="M35.6,41.1v-7c0-1,1.1-1.6,2.3-1.6c1.2,0,2.3,0.5,2.3,1.6v7H47c1,0,1.6,1.1,1.6,2.3c0,1.2-0.5,2.2-1.6,2.2
	h-6.8v7c0,1-1.1,1.6-2.3,1.6c-1.2,0-2.3-0.5-2.3-1.6v-7h-6.7c-1,0-1.6-1.1-1.6-2.2c0-1.2,0.5-2.3,1.6-2.3H35.6z"/>
<path fill-rule="evenodd" clip-rule="evenodd" fill="#FFC4E2" d="M22.7,11.3h29.4c1.8,0,1.7,0.5,1.7,1v8.4c0,0.6,0.3,1-1.5,1H22.7
	c-1.8,0-1.9-0.5-1.9-1v-8.4C20.8,11.8,20.9,11.3,22.7,11.3z"/>
<path fill-rule="evenodd" clip-rule="evenodd" fill="#FFB8DD" d="M38.1,11.3h14c1.8,0,1.7,0.5,1.7,1v8.4c0,0.6,0.3,1-1.5,1H38.1
	V11.3z"/>
</svg>
