<?xml version="1.0" encoding="utf-8"?>
<!-- Generator: Adobe Illustrator 17.1.0, SVG Export Plug-In . SVG Version: 6.00 Build 0)  -->
<!DOCTYPE svg PUBLIC "-//W3C//DTD SVG 1.1//EN" "http://www.w3.org/Graphics/SVG/1.1/DTD/svg11.dtd">
<svg version="1.1" id="Слой_1" xmlns="http://www.w3.org/2000/svg" xmlns:xlink="http://www.w3.org/1999/xlink" x="0px" y="0px"
	 width="75px" height="75px" viewBox="0 0 75 75" enable-background="new 0 0 75 75" xml:space="preserve">
<path fill-rule="evenodd" clip-rule="evenodd" fill="#FF8A70" d="M26.5,7.7h22.6c1.6,0,2.8,1.3,2.8,2.8v22.6c0,1.6-1.3,2.8-2.8,2.8
	H26.5c-1.6,0-2.8-1.3-2.8-2.8V10.6C23.7,9,24.9,7.7,26.5,7.7z"/>
<path fill-rule="evenodd" clip-rule="evenodd" fill="#86CCF7" d="M10.5,39h22.6c1.6,0,2.8,1.3,2.8,2.8v22.6c0,1.6-1.3,2.8-2.8,2.8
	H10.5c-1.6,0-2.8-1.3-2.8-2.8V41.8C7.7,40.3,9,39,10.5,39z"/>
<path fill-rule="evenodd" clip-rule="evenodd" fill="#FCE477" d="M41.9,39.1h22.6c1.6,0,2.8,1.3,2.8,2.8v22.6c0,1.6-1.3,2.8-2.8,2.8
	H41.9c-1.6,0-2.8-1.3-2.8-2.8V41.9C39.1,40.3,40.4,39.1,41.9,39.1z"/>
<path fill-rule="evenodd" clip-rule="evenodd" fill="#FF8063" d="M37.8,7.7h11.3c1.6,0,2.8,1.3,2.8,2.8v22.6c0,1.6-1.3,2.8-2.8,2.8
	H37.8V7.7z"/>
<path fill="#FFFFFF" d="M37.8,11.6c1.6,0,2.7,0.9,3.3,2.6l5,14.1c0.2,0.6,0.3,1.1,0.3,1.4c0,0.6-0.2,1.1-0.6,1.5
	c-0.4,0.4-1,0.6-1.6,0.6c-1.1,0-1.9-0.7-2.4-2.1l-0.7-2.3h-3.4v-4h2.2l-2.2-6.9h-0.1l0,0v-4.9C37.7,11.6,37.7,11.6,37.8,11.6z
	 M37.6,27.3h-3.5l-0.8,2.5c-0.4,1.3-1.1,2-2.2,2c-0.6,0-1.1-0.2-1.5-0.6c-0.4-0.4-0.6-0.9-0.6-1.5c0-0.5,0.1-0.9,0.2-1.3l5.1-13.9
	c0.7-1.9,1.8-2.8,3.3-2.9v4.9l-2.2,6.8h2.2V27.3z"/>
<path fill-rule="evenodd" clip-rule="evenodd" fill="#FADD5C" d="M53.2,39.1h11.3c1.6,0,2.8,1.3,2.8,2.8v22.6c0,1.6-1.3,2.8-2.8,2.8
	H53.2V39.1z"/>
<path fill="#FFFFFF" d="M53.8,43.2c1.6,0,3,0.4,4.2,1.1c1.5,0.9,2.3,2.2,2.3,3.8c0,2.2-0.8,3.6-2.3,4.4v0.1c1.2,0.4,2,0.9,2.5,1.6
	c0.5,0.7,0.8,1.7,0.8,2.9c0,2-0.7,3.5-2.1,4.6c-1.2,0.9-2.9,1.4-5,1.4h-0.4v-3.9c0.8,0,1.3-0.2,1.7-0.4c0.6-0.3,0.9-1,0.9-1.8
	c0-1-0.3-1.7-0.9-2.1c-0.4-0.2-1-0.3-1.8-0.4v-3.6c0.5,0,0.9-0.1,1.2-0.3c0.5-0.3,0.8-0.8,0.8-1.6c0-1.1-0.6-1.7-1.9-1.9V43.2z
	 M49.7,63.1c-1.1,0-1.9-0.2-2.4-0.6c-0.5-0.4-0.7-1.1-0.7-2.3V46.4c0-1.2,0.2-2,0.7-2.5c0.5-0.5,1.3-0.7,2.4-0.7h3.7
	c0.1,0,0.2,0,0.4,0v3.9c-0.2,0-0.5,0-0.7,0h-2V51h2c0.3,0,0.5,0,0.7,0v3.6c-0.2,0-0.3,0-0.5,0h-2.2v4.7h2.3c0.1,0,0.3,0,0.4,0v3.9
	H49.7z"/>
<path fill-rule="evenodd" clip-rule="evenodd" fill="#77C3F2" d="M21.8,39h11.3c1.6,0,2.8,1.3,2.8,2.8v22.6c0,1.6-1.3,2.8-2.8,2.8
	H21.8V39z"/>
<path fill="#FFFFFF" d="M22.3,58.3c1.6-0.1,2.4-0.9,2.4-2.4c0-1.5-0.8-2.3-2.4-2.5v-3.9h0.5c2,0,3.6,0.6,4.8,1.7
	c1.2,1.1,1.7,2.7,1.7,4.7c0,2-0.6,3.6-1.9,4.7c-1.2,1.1-2.9,1.6-4.9,1.6h-0.2V58.3L22.3,58.3z M22.3,47.5v-4h3c2,0,3.1,0.7,3.1,2
	c0,1.3-1,2-3.1,2H22.3z M19.9,53.4v4.9h1.8c0.2,0,0.4,0,0.5,0v4h-3.7c-1.1,0-1.9-0.2-2.3-0.7c-0.4-0.4-0.6-1.2-0.6-2.3V46.5
	c0-1.1,0.2-1.9,0.6-2.3c0.4-0.4,1.2-0.7,2.3-0.7h3.7v4h-2.4v2h2.4v3.9c-0.2,0-0.3,0-0.5,0H19.9z"/>
</svg>
