<?xml version="1.0" encoding="utf-8"?><svg xmlns="http://www.w3.org/2000/svg" width="75" height="75" viewBox="0 0 75 75"><path fill-rule="evenodd" clip-rule="evenodd" fill="#FF8A70" d="M26.5 7.7h22.6c1.6 0 2.8 1.3 2.8 2.8v22.6c0 1.6-1.3 2.8-2.8 2.8H26.5c-1.6 0-2.8-1.3-2.8-2.8V10.6c0-1.6 1.2-2.9 2.8-2.9z"/><path fill-rule="evenodd" clip-rule="evenodd" fill="#86CCF7" d="M10.5 39h22.6c1.6 0 2.8 1.3 2.8 2.8v22.6c0 1.6-1.3 2.8-2.8 2.8H10.5c-1.6 0-2.8-1.3-2.8-2.8V41.8c0-1.5 1.3-2.8 2.8-2.8z"/><path fill-rule="evenodd" clip-rule="evenodd" fill="#FCE477" d="M41.9 39.1h22.6c1.6 0 2.8 1.3 2.8 2.8v22.6c0 1.6-1.3 2.8-2.8 2.8H41.9c-1.6 0-2.8-1.3-2.8-2.8V41.9c0-1.6 1.3-2.8 2.8-2.8z"/><path fill-rule="evenodd" clip-rule="evenodd" fill="#FF8063" d="M37.8 7.7h11.3c1.6 0 2.8 1.3 2.8 2.8v22.6c0 1.6-1.3 2.8-2.8 2.8H37.8V7.7z"/><path fill="#fff" d="M37.8 11.6c1.6 0 2.7.9 3.3 2.6l5 14.1c.2.6.3 1.1.3 1.4 0 .6-.2 1.1-.6 1.5-.4.4-1 .6-1.6.6-1.1 0-1.9-.7-2.4-2.1l-.7-2.3h-3.4v-4h2.2l-2.2-6.9h-.1v-4.9c.1 0 .1 0 .2 0zm-.2 15.7h-3.5l-.8 2.5c-.4 1.3-1.1 2-2.2 2-.6 0-1.1-.2-1.5-.6-.4-.4-.6-.9-.6-1.5 0-.5.1-.9.2-1.3l5.1-13.9c.7-1.9 1.8-2.8 3.3-2.9v4.9l-2.2 6.8h2.2v4z"/><path fill-rule="evenodd" clip-rule="evenodd" fill="#FADD5C" d="M53.2 39.1h11.3c1.6 0 2.8 1.3 2.8 2.8v22.6c0 1.6-1.3 2.8-2.8 2.8H53.2V39.1z"/><path fill="#fff" d="M53.8 43.2c1.6 0 3 .4 4.2 1.1 1.5.9 2.3 2.2 2.3 3.8 0 2.2-.8 3.6-2.3 4.4v.1c1.2.4 2 .9 2.5 1.6.5.7.8 1.7.8 2.9 0 2-.7 3.5-2.1 4.6-1.2.9-2.9 1.4-5 1.4h-.4v-3.9c.8 0 1.3-.2 1.7-.4.6-.3.9-1 .9-1.8 0-1-.3-1.7-.9-2.1-.4-.2-1-.3-1.8-.4v-3.6c.5 0 .9-.1 1.2-.3.5-.3.8-.8.8-1.6 0-1.1-.6-1.7-1.9-1.9v-3.9zm-4.1 19.9c-1.1 0-1.9-.2-2.4-.6-.5-.4-.7-1.1-.7-2.3V46.4c0-1.2.2-2 .7-2.5.5-.5 1.3-.7 2.4-.7h3.7c.1 0 .2 0 .4 0v3.9c-.2 0-.5 0-.7 0h-2V51h2c.3 0 .5 0 .7 0v3.6c-.2 0-.3 0-.5 0h-2.2v4.7h2.3c.1 0 .3 0 .4 0v3.9h-4.1z"/><path fill-rule="evenodd" clip-rule="evenodd" fill="#77C3F2" d="M21.8 39h11.3c1.6 0 2.8 1.3 2.8 2.8v22.6c0 1.6-1.3 2.8-2.8 2.8H21.8V39z"/><path fill="#fff" d="M22.3 58.3c1.6-.1 2.4-.9 2.4-2.4s-.8-2.3-2.4-2.5v-3.9h.5c2 0 3.6.6 4.8 1.7 1.2 1.1 1.7 2.7 1.7 4.7s-.6 3.6-1.9 4.7c-1.2 1.1-2.9 1.6-4.9 1.6h-.2v-3.9zm0-10.8v-4h3c2 0 3.1.7 3.1 2s-1 2-3.1 2h-3zm-2.4 5.9v4.9h1.8c.2 0 .4 0 .5 0v4h-3.7c-1.1 0-1.9-.2-2.3-.7-.4-.4-.6-1.2-.6-2.3V46.5c0-1.1.2-1.9.6-2.3.4-.4 1.2-.7 2.3-.7h3.7v4h-2.4v2h2.4v3.9c-.2 0-.3 0-.5 0h-1.8z"/></svg>