<?xml version="1.0" encoding="utf-8"?>
<!-- Generator: Adobe Illustrator 17.1.0, SVG Export Plug-In . SVG Version: 6.00 Build 0)  -->
<!DOCTYPE svg PUBLIC "-//W3C//DTD SVG 1.1//EN" "http://www.w3.org/Graphics/SVG/1.1/DTD/svg11.dtd">
<svg version="1.1" id="Слой_1" xmlns="http://www.w3.org/2000/svg" xmlns:xlink="http://www.w3.org/1999/xlink" x="0px" y="0px"
	 width="75px" height="75px" viewBox="0 0 75 75" enable-background="new 0 0 75 75" xml:space="preserve">
<polygon fill-rule="evenodd" clip-rule="evenodd" fill="#FFE46E" points="17.1,28.8 17,7.5 20.1,9.7 22.7,7.4 24.9,9.7 27.8,7.4 
	30,9.7 32.6,7.5 35.2,9.8 37.5,7.4 40,9.8 42.7,7.4 45.2,9.8 47.6,7.4 49.9,9.8 52.2,7.5 55.1,9.8 57.9,7.5 57.9,28.7 "/>
<polygon fill-rule="evenodd" clip-rule="evenodd" fill="#FFDE4C" points="37.6,7.4 40,9.8 42.7,7.4 45.2,9.8 47.6,7.4 49.9,9.8 
	52.2,7.5 55.1,9.8 57.9,7.5 57.9,28.6 37.6,28.6 "/>
<rect x="29.6" y="40.6" fill-rule="evenodd" clip-rule="evenodd" fill="#FFD2AD" width="16.1" height="15.2"/>
<path fill-rule="evenodd" clip-rule="evenodd" fill="#FFD2AD" d="M17,34.2h41V43c0,2.1-1.5,3.8-3.2,3.8H20.3c-1.8,0-3.2-1.7-3.2-3.8
	V34.2z"/>
<path fill-rule="evenodd" clip-rule="evenodd" fill="#FC6A49" d="M37.9,55.6h7.8v8c0,1.5-2.3,4-4,4h-3.8v-3.8c1.2,0,2.2-1,2.2-2.2
	c0-1.2-1-2.2-2.2-2.2V55.6z M29.6,55.6h8.3v3.9c-1.2,0-2.2,1-2.2,2.2c0,1.2,1,2.2,2.2,2.2v3.8h-4.3c-1.6,0-4-2.6-4-4V55.6z"/>
<rect x="17.1" y="28.7" fill-rule="evenodd" clip-rule="evenodd" fill="#F2F2F2" width="40.9" height="5.6"/>
<path fill-rule="evenodd" clip-rule="evenodd" fill="#FCCAA1" d="M37.6,34.2H58V43c0,2.1-1.5,3.8-3.2,3.8H37.6V34.2z"/>
</svg>
