<?xml version="1.0" encoding="utf-8"?><svg xmlns="http://www.w3.org/2000/svg" width="75" height="75" viewBox="0 0 75 75"><path fill="#FFE3CC" d="M22.268 35.65l3.76.55-.9 6.133-3.758-.55z"/><circle fill="#FFE3CC" cx="24.2" cy="25.8" r="12.2"/><path fill="#C0B3E6" d="M30 41.1l-10.7-1.8c-2.4-.4-4.4 1.5-4.9 3.9L10.9 60c-.5 2.4 1.5 4.7 3.9 4.9L28 66.1c2.4.2 4.7-1.5 4.9-3.9L34 46c.1-2.4-1.6-4.5-4-4.9z"/><path fill="#FADAC0" d="M19.2 36.7c1.3-.5 13.1-7.5 8.8-18.4l4.8-.9c0-1.1-8.7-6.9-15.8.1s-2.2 18 2.2 19.2z"/><path fill="#AB7554" d="M16.2 35.5c1.4-.4 14-6.4 10.8-17.9l5.8-1.2c.1-1.1-8.8-7-16.8-.6-8 6.3-4.2 18 .2 19.7z"/><circle fill="#666" cx="32.1" cy="23.8" r="1.2"/><circle fill="#FFE3CC" cx="50.8" cy="25.9" r="12.2"/><path fill="#FFE3CC" d="M54.344 42.3l-3.76.552-.898-6.134 3.76-.55z"/><path fill="#FADAC0" d="M41.2 18.7s7.6 1.4 8.1 5.8c.5 4.5.2 9.1-2 12.7 0 0 3.9 0 6.7-4.5 0 0 1.1 1.9 4.3 2.5 0 0 2.1-2.6 2.5-3.1 0 0 .3 5.1 2.6 7.3 0 0-.5-5.2 1.4-8.3 0 0 4.5-3.3 3.1-7 0 0-1.2-6.2-6.6-4.1 0 0-2.2-4.2-5.4-5.2s-7.7-1.5-10.9.5c-3.2 2.2-3.8 3.4-3.8 3.4z"/><path fill="#FFE159" d="M41 17.5s7.8 1.3 8.3 5.7c.5 4.5.5 9.8-1.7 13.4 0 0 5-2 6.2-5.5 0 0 2.4 2.7 5.7 3.4 0 0 .9-1 1.4-1.4 0 0 .4 5 2.6 7.2 0 0 .5-5.3 2.4-8.5 0 0 3.3-5.1 1.8-8.7 0 0-1.2-6.2-6.6-4.1 0 0-2.2-4.2-5.4-5.2s-7.7-1.5-10.9.5-3.8 3.2-3.8 3.2z"/><circle fill="#469FD6" cx="41.9" cy="23.8" r="1.2"/><path fill="#FFC4E2" d="M46.3 41.5l10.8-1.1c2.4-.2 4.2 1.9 4.5 4.3L64.3 61c.4 2.4-1.9 4.5-4.3 4.6l-12.9.5c-2.4.1-4.4-1.9-4.5-4.3l-.7-15.7c-.1-2.5 1.9-4.4 4.4-4.6z"/><circle fill="#FFE3CC" cx="35.9" cy="27.5" r="1.7"/><circle fill="#FFE3CC" cx="39.3" cy="27.7" r="1.7"/><path fill="#FF7354" d="M33.1 32.1c-1.1-.1-2.3.2-2.9.7.4.7 1.7 1.2 3 1.3.7-.4 1.2-1.1 1.5-1.8-.6-.1-.6-.2-1.6-.2zm8.8 0c1.1-.1 2.3.2 2.9.7-.4.7-1.7 1.2-3 1.3-.7-.4-1.2-1.1-1.5-1.8.6-.1.5-.2 1.6-.2z"/><path fill="#B7A8E3" d="M30 41.1L23.6 40l-3.2 25.3 7.6.8c2.4.3 4.7-1.5 4.9-3.9L34 46c.1-2.4-1.6-4.5-4-4.9z"/><path fill="#FFB8DD" d="M51.9 41l5.2-.5c2.4-.2 4.2 1.9 4.5 4.3L64.3 61c.4 2.4-1.9 4.5-4.3 4.6l-5 .2L51.9 41z"/><circle fill="#FFE3CC" cx="36.9" cy="54.5" r="2.2"/><path fill="#D3C9F0" d="M21.7 42.7h3.4c.6 0 1.1.6 1.1 1.3v6.5l8 1.3c.7.1 1.3.5 1.3 1.1v2.6c0 .6-.6 1.1-1.3 1.1-4.2.2-8.2-.6-12.5-.6-.6 0-1.1-.6-1.1-1.3V44c0-.7.5-1.3 1.1-1.3z"/><circle fill="#FFE3CC" cx="39.6" cy="54.7" r="2.2"/><path fill="#FFD6EB" d="M54.8 43.3h-3.4c-.6 0-1.1.6-1.1 1.3v6.5l-8 1.3c-.7.1-1.3.5-1.3 1.1v2.6c0 .6.6 1.1 1.3 1.1 4.2.2 8.3-.7 12.5-.7.6 0 1.1-.6 1.1-1.3V44.7c0-.8-.5-1.4-1.1-1.4z"/></svg>