<?xml version="1.0" encoding="utf-8"?><svg xmlns="http://www.w3.org/2000/svg" width="75" height="75" viewBox="0 0 75 75"><path fill-rule="evenodd" clip-rule="evenodd" fill="#78C2F0" d="M59.5 35.5H62c1.4 0 2.5 1.5 2.5 3.3v15.6c0 1.8-1.1 3.3-2.5 3.3h-2.5V35.5z"/><path fill-rule="evenodd" clip-rule="evenodd" fill="#82C9F5" d="M15.5 35.5H13c-1.4 0-2.5 1.5-2.5 3.3v15.6c0 1.8 1.1 3.3 2.5 3.3h2.5V35.5z"/><path fill-rule="evenodd" clip-rule="evenodd" fill="#78C2F0" d="M37.9 10.3c4.6.1 8.3 3.6 8.3 8s-3.7 8-8.3 8v-2.7c3.1 0 4.9-2.4 4.9-5.4 0-3-1.8-4.7-4.9-4.8v-3.1zm-.1 0s.1 0 .1 0v3.2c-3.1 0-4.9 1.9-4.9 4.8 0 3 1.7 5.3 4.9 5.3v2.7s-.1 0-.1 0c-4.7 0-8.4-3.6-8.4-8s3.7-8 8.4-8z"/><path fill-rule="evenodd" clip-rule="evenodd" fill="#B6E1FC" d="M22.3 17.7h30.4c4 0 7.3 3.3 7.3 7.3v32.4c0 4-3.3 7.3-7.3 7.3H22.3c-4 0-7.3-3.3-7.3-7.3V25c0-4 3.3-7.3 7.3-7.3z"/><path fill-rule="evenodd" clip-rule="evenodd" fill="#A6DBFC" d="M37.8 17.7h14.9c4 0 7.3 3.3 7.3 7.3v32.4c0 4-3.3 7.3-7.3 7.3H37.8v-47z"/><path fill-rule="evenodd" clip-rule="evenodd" fill="#93D3FA" d="M22.3 17.4h30.5c4 0 7.3 3.3 7.3 7.3V29c0 4-3.3 7.3-7.3 7.3H22.3c-4 0-7.3-3.3-7.3-7.3v-4.4c0-3.9 3.2-7.2 7.3-7.2z"/><path fill-rule="evenodd" clip-rule="evenodd" fill="#78C2F0" d="M22.3 17.1h5.1v17.2h-5.1zm25.4 0h5.1v17.1h-5.1z"/><path fill-rule="evenodd" clip-rule="evenodd" fill="#FEEFB2" d="M33.8 30.6l7-7.1 2.7.8v9.9z"/><path fill-rule="evenodd" clip-rule="evenodd" fill="#FFE781" d="M38.5 32.4l3.7-8.4 1.3.4v9.8z"/><path fill-rule="evenodd" clip-rule="evenodd" fill="#F3775B" d="M26.3 49l7.5-18.4 4.8 1.7-6 15.8z"/><path fill-rule="evenodd" clip-rule="evenodd" fill="#F26748" d="M32.4 48.1l6.2-15.8 4.9 1.9-5.1 13.2zm8.3-24.5l2.8-2.8v3.8z"/><path fill-rule="evenodd" clip-rule="evenodd" fill="#83CAF7" d="M56.7 45.8v8.7c0 3.2-2.6 5.8-5.8 5.8h-27c-3.2 0-5.8-2.6-5.8-5.8v-8.7h38.6z"/><path fill-rule="evenodd" clip-rule="evenodd" fill="#FFF6D1" d="M22.5 33.5h4.6c.5 0 .9.4.9.9v2.8c0 .5-.4.9-.9.9h-4.6c-.5 0-.9-.4-.9-.9v-2.8c0-.4.4-.9.9-.9zm25.4 0h4.6c.5 0 .9.4.9.9v2.8c0 .5-.4.9-.9.9h-4.6c-.5 0-.9-.4-.9-.9v-2.8c-.1-.4.4-.9.9-.9z"/></svg>