<?xml version="1.0" encoding="utf-8"?><svg xmlns="http://www.w3.org/2000/svg" xmlns:xlink="http://www.w3.org/1999/xlink" width="75" height="75" viewBox="0 0 75 75"><path fill="#F79863" d="M36.9 8l-.3 3.5c8.4 1.1 15.6 5.9 20 12.6l1-.5 1.3-.6.9-.4C54.9 14.8 46.7 9.3 36.9 8zm23.8 14.2l-.8.4-1 .4-1.3.6-1 .5-.8.4c3.4 5 5.1 11.2 4.6 17.7-.2 2.9 4.9 4.3 5.2.4.7-7.5-1.2-14.6-4.9-20.4z"/><path fill="#C67234" d="M64.2 66.9c0 .4-.4.7-.8.7l-4.7-.4c-.4 0-.7-.4-.7-.8l2-24.6c0-.4.4-.7.8-.7l4.7.4c.4 0 .7.4.7.8l-2 24.6z"/><path fill="#9ED3F2" d="M31.7 16.3c14.9 1.2 26 14.3 24.7 29.2-.1.7-.1 1.4-.3 2.1l1 .1c.1-.7.2-1.4.3-2.1 1.3-15.5-10.2-29-25.7-30.3-6.4-.5-12.6 1.3-17.6 4.5l.9.6c4.8-3 10.6-4.6 16.7-4.1z"/><circle fill="#F76C4D" cx="58.1" cy="49.1" r="5.9"/><circle fill="#fff" cx="58.1" cy="49.1" r="4"/><path fill="#9ED3F2" d="M12.8 33l.9.1 1.4-13.2-.9-.1z"/><path fill="#DCD4F7" d="M10.4 22.5s13.1-.9 20.7 6.5 10.1 26.2 10.1 26.2 5.9-.7 11.2.6c-2.4 2.5-5.2 5.3-8.8 3.8.1 1.5.4 3.9-4.1 8.2-.4.4-3.7-4.1 0-11.2 0 0-14.9-3.6-22.7-11.2-10-9.7-8.7-20.3-8.7-20.3l5.1 2.5-2.8-5.1z"/><path fill="#D1C6F7" d="M10.4 22.5s13.1-.9 20.7 6.5 10.1 26.2 10.1 26.2 5.9-.7 11.2.6c-2.4 2.5-5.2 5.3-8.8 3.8 0 .1 0 .2 0 .3L13 27.4l-2.6-4.9z"/><ellipse transform="matrix(.696 -.718 .718 .696 -16.881 22.018)" fill="#fff" cx="17.6" cy="31" rx="2.3" ry="2"/><defs><ellipse id="a" transform="matrix(.851 -.526 .526 .851 -13.663 14.066)" cx="17.9" cy="31.1" rx="1.3" ry="1.4"/></defs><clipPath id="b"><use xlink:href="#a" overflow="visible"/></clipPath><path transform="matrix(-.97 -.244 .244 -.97 26.117 67.818)" clip-path="url(#b)" fill="#4A392E" d="M15.7 32.1h3.1v.4h-3.1z"/><defs><ellipse id="c" transform="matrix(.851 -.526 .526 .851 -13.661 14.037)" cx="17.9" cy="31.1" rx="1.3" ry="1.4"/></defs><clipPath id="d"><use xlink:href="#c" overflow="visible"/></clipPath><path transform="matrix(-.97 -.244 .244 -.97 26.354 67.47)" clip-path="url(#d)" fill="#4A392D" d="M15.8 31.9h3.1v.4h-3.1z"/><defs><ellipse id="e" transform="matrix(.851 -.526 .526 .851 -13.657 14.005)" cx="17.8" cy="31" rx="1.3" ry="1.4"/></defs><clipPath id="f"><use xlink:href="#e" overflow="visible"/></clipPath><path transform="matrix(-.97 -.244 .244 -.97 26.4 67.053)" clip-path="url(#f)" fill="#49382D" d="M15.8 31.7h3.1v.4h-3.1z"/><defs><ellipse id="g" transform="matrix(.85 -.526 .526 .85 -13.659 13.986)" cx="17.8" cy="31" rx="1.3" ry="1.4"/></defs><clipPath id="h"><use xlink:href="#g" overflow="visible"/></clipPath><path transform="matrix(-.97 -.244 .244 -.97 26.648 66.703)" clip-path="url(#h)" fill="#49382D" d="M15.9 31.5H19v.4h-3.1z"/><defs><ellipse id="i" transform="matrix(.851 -.526 .526 .851 -13.656 13.954)" cx="17.7" cy="31" rx="1.3" ry="1.4"/></defs><clipPath id="j"><use xlink:href="#i" overflow="visible"/></clipPath><path transform="matrix(-.97 -.244 .244 -.97 26.694 66.285)" clip-path="url(#j)" fill="#49382D" d="M15.9 31.3H19v.4h-3.1z"/><defs><ellipse id="k" transform="matrix(.85 -.526 .526 .85 -13.655 13.932)" cx="17.7" cy="31" rx="1.3" ry="1.4"/></defs><clipPath id="l"><use xlink:href="#k" overflow="visible"/></clipPath><path transform="matrix(-.97 -.244 .244 -.97 26.939 65.933)" clip-path="url(#l)" fill="#49382D" d="M16 31.1h3.1v.4H16z"/><defs><ellipse id="m" transform="matrix(.851 -.526 .526 .851 -13.643 13.884)" cx="17.6" cy="31" rx="1.3" ry="1.4"/></defs><clipPath id="n"><use xlink:href="#m" overflow="visible"/></clipPath><path transform="matrix(-.97 -.244 .244 -.97 26.967 65.521)" clip-path="url(#n)" fill="#49382D" d="M16 30.9h3.1v.4H16z"/><defs><ellipse id="o" transform="matrix(.851 -.526 .526 .851 -13.644 13.864)" cx="17.6" cy="30.9" rx="1.3" ry="1.4"/></defs><clipPath id="p"><use xlink:href="#o" overflow="visible"/></clipPath><path transform="matrix(-.97 -.244 .244 -.97 27.215 65.166)" clip-path="url(#p)" fill="#49382D" d="M16.1 30.7h3.1v.4h-3.1z"/><defs><ellipse id="q" transform="matrix(.851 -.526 .526 .851 -13.645 13.839)" cx="17.5" cy="30.9" rx="1.3" ry="1.4"/></defs><clipPath id="r"><use xlink:href="#q" overflow="visible"/></clipPath><path transform="matrix(-.97 -.244 .244 -.97 27.454 64.821)" clip-path="url(#r)" fill="#49382D" d="M16.2 30.5h3.1v.4h-3.1z"/><defs><ellipse id="s" transform="matrix(.851 -.526 .526 .851 -13.642 13.811)" cx="17.5" cy="30.9" rx="1.3" ry="1.4"/></defs><clipPath id="t"><use xlink:href="#s" overflow="visible"/></clipPath><path transform="matrix(-.97 -.244 .244 -.97 27.505 64.401)" clip-path="url(#t)" fill="#49382D" d="M16.2 30.3h3.1v.4h-3.1z"/><defs><ellipse id="u" transform="matrix(.851 -.526 .526 .851 -13.635 13.775)" cx="17.4" cy="30.9" rx="1.3" ry="1.4"/></defs><clipPath id="v"><use xlink:href="#u" overflow="visible"/></clipPath><path transform="matrix(-.97 -.244 .244 -.97 27.808 63.867)" clip-path="url(#v)" fill="#49382D" d="M16.3 30h3.1v.4h-3.1z"/><defs><ellipse id="w" transform="matrix(.851 -.526 .526 .851 -13.631 13.743)" cx="17.4" cy="30.9" rx="1.3" ry="1.4"/></defs><clipPath id="x"><use xlink:href="#w" overflow="visible"/></clipPath><path transform="matrix(-.97 -.244 .244 -.97 27.853 63.45)" clip-path="url(#x)" fill="#49382D" d="M16.3 29.8h3.1v.4h-3.1z"/><defs><ellipse id="y" transform="matrix(.851 -.526 .526 .851 -13.631 13.72)" cx="17.3" cy="30.8" rx="1.3" ry="1.4"/></defs><clipPath id="z"><use xlink:href="#y" overflow="visible"/></clipPath><path transform="matrix(-.97 -.244 .244 -.97 28.095 63.098)" clip-path="url(#z)" fill="#48372C" d="M16.4 29.6h3.1v.4h-3.1z"/><defs><ellipse id="A" transform="matrix(.851 -.526 .526 .851 -13.597 13.32)" cx="16.6" cy="30.6" rx="1.3" ry="1.4"/></defs><clipPath id="B"><use xlink:href="#A" overflow="visible"/></clipPath><path transform="matrix(-.97 -.244 .244 -.97 30.178 57.538)" clip-path="url(#B)" fill="#48372C" d="M17.1 23.9h3.1v6h-3.1z"/><path fill="#F79863" d="M11.1 17.4l1.1 1S21.3 8.3 37 10.5l.2-1.5s-14.1-2.7-26.1 8.4z"/><path fill="#B5A8DB" d="M23.8 32.2c.4-.4.8-.8 1.2-.6.5.2.3.9.1 1.6-1 3.5-3.5 5.3-6.9 6.4-.9.2-1 .2-1.4-.2s-.1-.7.3-1.1c3.6-1.2 5.6-2.9 6.7-6.1z"/></svg>