<?xml version="1.0" encoding="utf-8"?><svg xmlns="http://www.w3.org/2000/svg" width="75" height="75" viewBox="0 0 75 75"><path fill-rule="evenodd" clip-rule="evenodd" fill="#87D973" d="M37.5 6C46.7 6 63 23.6 63 38.7c0 15.1-10.7 21.9-25.5 21.9-14.9 0-25.5-6.9-25.5-21.9C12 23.6 28.3 6 37.5 6z"/><path fill-rule="evenodd" clip-rule="evenodd" fill="#6DCC56" d="M37.5 6C46.7 6 63 23.6 63 38.7S52.4 60.6 37.5 60.6V6z"/><path fill-rule="evenodd" clip-rule="evenodd" fill="#D48646" d="M37.4 21.7c2.2 0 4 1.8 4.1 4.1l.3 8.3 3.7-3.7c.7-.7 2-.7 2.7 0 .7.7.7 2 0 2.7L42 39.3l.2 5.8 3.3-3.3c.7-.7 2-.7 2.7 0 .7.7.7 2 0 2.7l-5.8 5.8.6 14.9c.1 2.9-3.2 4-5.6 3.8-2.2 0-5.7-1.6-5.6-3.8l.6-15.1-5.6-5.6c-.7-.7-.7-2 0-2.7.7-.7 2-.7 2.7 0l3.1 3.1.2-5.8-6-6c-.7-.7-.7-2 0-2.7.7-.7 2-.7 2.7 0l3.5 3.5.3-8.1c.1-2.3 1.9-4.1 4.1-4.1z"/><path fill-rule="evenodd" clip-rule="evenodd" fill="#DB9053" d="M37.4 21.7s.1 0 .1 0V69s-.1 0-.1 0c-2.2 0-5.7-1.6-5.6-3.8l.6-15.1-5.6-5.6c-.7-.7-.7-2 0-2.7.7-.7 2-.7 2.7 0l3.1 3.1.2-5.8-6-6c-.7-.7-.7-2 0-2.7.7-.7 2-.7 2.7 0l3.5 3.5.3-8.1c.1-2.3 1.9-4.1 4.1-4.1z"/><path fill-rule="evenodd" clip-rule="evenodd" fill="#FF91C8" d="M26.5 26.4c2.2 0 4-1.8 4-4s-1.8-4-4-4-4 1.8-4 4 1.8 4 4 4z"/><path fill-rule="evenodd" clip-rule="evenodd" fill="#F76C4D" d="M54.1 38.5c2.2 0 4-1.8 4-4s-1.8-4-4-4-4 1.8-4 4 1.8 4 4 4z"/><path fill-rule="evenodd" clip-rule="evenodd" fill="#FFD414" d="M19.5 47.5c2.2 0 4-1.8 4-4s-1.8-4-4-4-4 1.8-4 4c0 2.1 1.8 4 4 4z"/><path fill-rule="evenodd" clip-rule="evenodd" fill="#FFA1D0" d="M26.4 18.3c-2.2 0-4 1.8-4 4s1.8 4 4 4v-8z"/><path fill-rule="evenodd" clip-rule="evenodd" fill="#FA7B5F" d="M54 30.5c-2.2 0-4 1.8-4 4s1.8 4 4 4v-8z"/><path fill-rule="evenodd" clip-rule="evenodd" fill="#FFDE4A" d="M19.5 39.4c-2.2 0-4 1.8-4 4s1.8 4 4 4v-8z"/></svg>