<?xml version="1.0" encoding="utf-8"?><svg xmlns="http://www.w3.org/2000/svg" width="75" height="75" viewBox="0 0 75 75"><path opacity=".91" fill-rule="evenodd" clip-rule="evenodd" fill="#999" d="M17.1 48h4.7c2 0 3.6 2 3.6 4.4v8.3c0 2.4-1.6 4.4-3.6 4.4h-4.7c-2 0-3.6-2-3.6-4.4v-8.3c0-2.4 1.6-4.4 3.6-4.4zm36.2 0H58c2 0 3.6 2 3.6 4.4v8.3c0 2.4-1.6 4.4-3.6 4.4h-4.7c-2 0-3.6-2-3.6-4.4v-8.3c.1-2.4 1.7-4.4 3.6-4.4z"/><path opacity=".91" fill-rule="evenodd" clip-rule="evenodd" fill="#A4DAFC" d="M37.7 10c4.3 0 8.4.1 10.7.4 4.9.7 8.6 3.4 9.9 9 1.3 5.6 2.8 10.5 2.8 10.5s4.5.2 5.3 5.6c0 0 2.6 6.1.2 14.6 0 0-1.2 3.3-4.9 4.1-3.7.8-17.4 1.7-23.6 1.8h-.3V30h17.7s-2.5-8.4-3.4-11.1c-.9-2.7-3.7-2.8-3.7-2.8-3.3-.3-7.1-.5-10.7-.5V10zM13.8 29.9l4-14.1c.5-1.8 3.3-5 7.4-5.4 2.2-.2 7.4-.4 12.5-.4v5.6c-6 0-11.2.3-12.2.4-1.5.2-2.3 1.7-2.3 1.7L20 29.9h17.7v26c-6.3.1-20.7-.7-24.4-1.9-3.8-1.2-4.8-3.1-5.5-6.1-.7-3-.3-10.1 1-13.2s2.4-4.2 5-4.8z"/><path opacity=".91" fill-rule="evenodd" clip-rule="evenodd" fill="#FFEA8C" d="M18.5 48.5c3 0 5.5-2.5 5.5-5.5s-2.5-5.5-5.5-5.5S13 40 13 43c0 3.1 2.5 5.5 5.5 5.5z"/><path opacity=".91" fill-rule="evenodd" clip-rule="evenodd" fill="#F7AD71" d="M45.3 38.8c4.1 0 7.4-3.3 7.4-7.4 0-4.1-3.3-7.4-7.4-7.4v2c3 0 5.4 2.4 5.4 5.4 0 3-2.4 5.4-5.4 5.4v2zm0-14.8c-4.1 0-7.4 3.3-7.4 7.4 0 4.1 3.3 7.4 7.4 7.4v-2c-3 0-5.4-2.4-5.4-5.4 0-3 2.4-5.4 5.4-5.4v-2z"/><path opacity=".91" fill-rule="evenodd" clip-rule="evenodd" fill="#8CD0FA" d="M37.9 10c4.2 0 8.3.1 10.5.4 4.9.7 8.6 3.4 9.9 9 1.3 5.6 2.8 10.5 2.8 10.5s4.5.2 5.3 5.6c0 0 2.6 6.1.2 14.6 0 0-1.2 3.3-4.9 4.1-3.7.8-17.4 1.7-23.6 1.8h-.2V30h17.6s-2.5-8.4-3.4-11.1c-.9-2.7-3.7-2.8-3.7-2.8-3.3-.3-7-.5-10.5-.5V10z"/><path opacity=".91" fill-rule="evenodd" clip-rule="evenodd" fill="#FFEA8C" d="M56.5 48.5c3 0 5.5-2.5 5.5-5.5s-2.5-5.5-5.5-5.5S51 40 51 43c.1 3.1 2.5 5.5 5.5 5.5z"/><path opacity=".91" fill-rule="evenodd" clip-rule="evenodd" fill="#DBF1FF" d="M33.1 37h8.6c2.5 0 4.6 2.1 4.6 4.6v3.9c0 2.5-2.1 4.6-4.6 4.6h-8.6c-2.5 0-4.6-2.1-4.6-4.6v-3.9c0-2.6 2.1-4.6 4.6-4.6z"/><path opacity=".91" fill-rule="evenodd" clip-rule="evenodd" fill="#999" d="M34.6 46v1.6c0 .6-.6 1-1 1-.6 0-1-.4-1-1V40c0-.6.5-1 1-1 .4 0 1 .4 1 1v6zm4.1 0v1.6c0 .6-.6 1-1 1-.6 0-1-.4-1-1V40c0-.6.5-1 1-1 .4 0 1 .4 1 1v6zm4.1-.1v1.6c0 .6-.6 1-1 1-.6 0-1-.4-1-1v-7.6c0-.6.5-1 1-1 .4 0 1 .4 1 1v6z"/></svg>