<?xml version="1.0" encoding="utf-8"?><svg xmlns="http://www.w3.org/2000/svg" width="75" height="75" viewBox="0 0 75 75"><path opacity=".91" fill="#FFE46E" enable-background="new" d="M17.1 28.8L17 7.5l3.1 2.2 2.6-2.3 2.2 2.3 2.9-2.3L30 9.7l2.6-2.2 2.6 2.3 2.3-2.4L40 9.8l2.7-2.4 2.5 2.4 2.4-2.4 2.3 2.4 2.3-2.3 2.9 2.3 2.8-2.3v21.2z"/><path opacity=".91" fill="#FFDE4C" enable-background="new" d="M37.6 7.4L40 9.8l2.7-2.4 2.5 2.4 2.4-2.4 2.3 2.4 2.3-2.3 2.9 2.3 2.8-2.3v21.1H37.6z"/><path opacity=".91" fill="#FFD2AD" enable-background="new" d="M29.6 46.8h16.1v8.8H29.6zM17 34.2h41V43c0 2.1-1.5 3.8-3.2 3.8H20.3c-1.8 0-3.2-1.7-3.2-3.8l-.1-8.8z"/><path opacity=".91" fill="#FC6A49" enable-background="new" d="M37.9 55.6h7.8v8c0 1.5-2.3 4-4 4h-3.8v-3.8c1.2 0 2.2-1 2.2-2.2s-1-2.2-2.2-2.2v-3.8zm-8.3 0h8.3v3.9c-1.2 0-2.2 1-2.2 2.2s1 2.2 2.2 2.2v3.8h-4.3c-1.6 0-4-2.6-4-4 0 0 0-8.1 0-8.1z"/><path opacity=".91" fill="#F2F2F2" enable-background="new" d="M17.1 28.7H58v5.6H17.1z"/><path opacity=".91" fill="#FCCAA1" enable-background="new" d="M37.6 34.2H58V43c0 2.1-1.5 3.8-3.2 3.8H37.6V34.2z"/></svg>