<?xml version="1.0" encoding="utf-8"?>
<!-- Generator: Adobe Illustrator 17.1.0, SVG Export Plug-In . SVG Version: 6.00 Build 0)  -->
<!DOCTYPE svg PUBLIC "-//W3C//DTD SVG 1.1//EN" "http://www.w3.org/Graphics/SVG/1.1/DTD/svg11.dtd">
<svg version="1.1" id="Слой_1" xmlns="http://www.w3.org/2000/svg" xmlns:xlink="http://www.w3.org/1999/xlink" x="0px" y="0px"
	 width="75px" height="75px" viewBox="0 0 75 75" enable-background="new 0 0 75 75" xml:space="preserve">
<polygon fill-rule="evenodd" clip-rule="evenodd" fill="#FEC699" points="54.2,62.1 20.6,62 22.2,72.2 52.9,72.2 "/>
<polygon fill-rule="evenodd" clip-rule="evenodd" fill="#6DCC56" points="36.1,32.7 38.3,32.7 39.6,58.8 35,58.8 "/>
<polygon fill-rule="evenodd" clip-rule="evenodd" fill="#87D973" points="36.1,32.7 37.3,32.8 37.5,58.4 35,58.4 "/>
<path fill-rule="evenodd" clip-rule="evenodd" fill="#FAC5E0" d="M37.3,26.2L37.3,26.2L37.3,26.2l0,0.1l0,0v10.3
	c4.7,20,31.2,3.9,10.7-6.8C69,34.4,64.2,3.2,44.3,18c3.9-9.9-1.6-15.1-7-15.2V26.2z M37.3,26.2L37.3,26.2l0.1-23.4
	C32.1,2.7,27,7.5,30.9,17.6C13.7,4.3,4,32.8,26.4,29.1c-16.6,11,5.6,27.5,10.9,7.3c0,0,0,0.1,0,0.1V26.3L37.3,26.2L37.3,26.2
	L37.3,26.2z"/>
<path fill-rule="evenodd" clip-rule="evenodd" fill="#87D973" d="M23,48.7c4.8-3,8.6-0.7,11.8,5.4C28.7,58.1,24.8,56.8,23,48.7
	L23,48.7z"/>
<path fill-rule="evenodd" clip-rule="evenodd" fill="#FCB8DB" d="M44.3,18c3.7-9.2-1.1-15.1-7-15.1l-0.1,33.7
	c5.3,20.2,30.8,3.7,10.7-6.7C69,34.4,64.2,3.2,44.3,18z"/>
<path fill-rule="evenodd" clip-rule="evenodd" fill="#6DCC56" d="M51.8,49.1c-4.4-3.1-8.2-1-11.4,4.6C45.9,57.9,49.7,56.7,51.8,49.1
	L51.8,49.1z"/>
<path fill-rule="evenodd" clip-rule="evenodd" fill="#FCDE5B" d="M37.3,16.4c5.4,0,9.9,4.5,9.9,10c0,5.5-4.4,10-9.9,10
	c-5.4,0-9.9-4.5-9.9-10C27.5,20.9,31.9,16.4,37.3,16.4L37.3,16.4z"/>
<polygon fill-rule="evenodd" clip-rule="evenodd" fill="#F7AD71" points="54.3,62.1 37.7,62.3 37.8,72.2 52.9,72.2 "/>
<path fill-rule="evenodd" clip-rule="evenodd" fill="#FFE985" d="M37.3,36.4c-5.4,0-9.9-4.5-9.9-10c0-5.5,4.4-10,9.9-10V36.4z"/>
<polygon fill-rule="evenodd" clip-rule="evenodd" fill="#FFD2AD" points="18.4,58 56.2,57.7 55.8,62.1 19,62.4 "/>
<polygon fill-rule="evenodd" clip-rule="evenodd" fill="#FCC79C" points="37.7,57.9 56.2,57.7 55.8,62.2 37.7,62.3 "/>
</svg>
