<?xml version="1.0" encoding="utf-8"?><svg xmlns="http://www.w3.org/2000/svg" width="75" height="75" viewBox="0 0 75 75"><path fill-rule="evenodd" clip-rule="evenodd" fill="#F5AE82" d="M52.3 45.9l-1.4-.4L42 59.4l1.2 1z"/><path fill-rule="evenodd" clip-rule="evenodd" fill="#FCC09A" d="M32.8 58.3h9.3c.8 0 1.4.6 1.4 1.4v5.4c0 .8-.6 1.4-1.4 1.4h-9.3c-.8 0-1.4-.6-1.4-1.4v-5.4c0-.7.7-1.4 1.4-1.4z"/><path fill-rule="evenodd" clip-rule="evenodd" fill="#F5AE82" d="M37.5 58.3h4.7c.8 0 1.4.6 1.4 1.4v5.4c0 .8-.6 1.4-1.4 1.4h-4.7v-8.2z"/><path fill-rule="evenodd" clip-rule="evenodd" fill="#FCC09A" d="M35.7 51.4h3.8c.5 0 .9.4.9.8v1.6c0 .4-.4.8-.9.8h-3.8c-.5 0-.9-.4-.9-.8v-1.6c0-.4.4-.8.9-.8z"/><path fill-rule="evenodd" clip-rule="evenodd" fill="#F5AE82" d="M37.6 51.4h1.9c.5 0 .9.4.9.8v1.6c0 .4-.4.8-.9.8h-1.9v-3.2z"/><path fill-rule="evenodd" clip-rule="evenodd" fill="#FCC09A" d="M22.9 46l1.2-.7 9.3 14.3-1.2.5z"/><path fill-rule="evenodd" clip-rule="evenodd" fill="#9ED3F2" d="M37.5 51.6c13.4 0 24.3-9.7 24.3-21.6 0-11.9-10.9-21.6-24.3-21.6S13.2 18.1 13.2 30c0 11.9 10.9 21.6 24.3 21.6z"/><path fill-rule="evenodd" clip-rule="evenodd" fill="#85CA7D" d="M37.5 8.4c13.4 0 24.3 9.7 24.3 21.6 0 11.9-10.9 21.6-24.3 21.6V8.4z"/><path fill-rule="evenodd" clip-rule="evenodd" fill="#FFEC96" d="M37.5 51.6c9.7 0 17.6-9.7 17.6-21.6 0-11.9-7.9-21.6-17.6-21.6-9.7 0-17.6 9.7-17.6 21.6 0 11.9 7.9 21.6 17.6 21.6z"/><path fill-rule="evenodd" clip-rule="evenodd" fill="#FC846A" d="M37.5 8.4c9.7 0 17.6 9.7 17.6 21.6 0 11.9-7.9 21.6-17.6 21.6V8.4z"/><path fill-rule="evenodd" clip-rule="evenodd" fill="#C9BEED" d="M37.5 51.6c4.3 0 7.8-9.7 7.8-21.6 0-11.9-3.5-21.6-7.8-21.6s-7.8 9.7-7.8 21.6c0 11.9 3.5 21.6 7.8 21.6z"/><path fill="#FFE988" d="M24.4 27.2c1.7 0 3.1 1.3 3.1 2.8 0 1.6-1.4 2.8-3.1 2.8-1.7 0-3.1-1.3-3.1-2.8 0-1.5 1.4-2.8 3.1-2.8z"/><path fill-rule="evenodd" clip-rule="evenodd" fill="#C0B3E6" d="M37.6 8.4c4.3.1 7.7 9.7 7.7 21.6 0 11.9-3.5 21.5-7.7 21.6V8.4z"/></svg>