<?xml version="1.0" encoding="utf-8"?>
<!-- Generator: Adobe Illustrator 17.1.0, SVG Export Plug-In . SVG Version: 6.00 Build 0)  -->
<!DOCTYPE svg PUBLIC "-//W3C//DTD SVG 1.1//EN" "http://www.w3.org/Graphics/SVG/1.1/DTD/svg11.dtd">
<svg version="1.1" id="Слой_1" xmlns="http://www.w3.org/2000/svg" xmlns:xlink="http://www.w3.org/1999/xlink" x="0px" y="0px"
	 width="75px" height="75px" viewBox="0 0 75 75" enable-background="new 0 0 75 75" xml:space="preserve">
<polygon fill-rule="evenodd" clip-rule="evenodd" fill="#FFB76B" points="23.7,35.7 22.7,60.5 52.7,61.2 48.7,35.7 "/>
<path fill-rule="evenodd" clip-rule="evenodd" fill="#FF8D73" d="M12.4,62.7c1.9-1.6,27-13.1,50.2,0.4c-0.7,0.4-7.6,4.3-24.9,4.3
	C20.4,67.4,12.3,62.6,12.4,62.7z"/>
<path fill-rule="evenodd" clip-rule="evenodd" fill="#B4DEF7" d="M14.5,42.1c3.1,3.9,6.4,0,6.4,0l0.2-6.9l16-19.4L14.4,34.2
	L14.5,42.1z"/>
<path fill-rule="evenodd" clip-rule="evenodd" fill="#FFEC96" d="M21,42c3.1,3.9,6.3,0.5,6.6-0.1l0-6.1l9.5-20L21,35.2L21,42z"/>
<path fill-rule="evenodd" clip-rule="evenodd" fill="#C7BCE8" d="M27.6,41.8c3.1,3.9,6.6-0.2,6.6-0.2l-0.1-5.5l3-20.2l-9.4,19.9
	L27.6,41.8z"/>
<path fill-rule="evenodd" clip-rule="evenodd" fill="#9EDB97" d="M34.2,41.7c3.1,3.9,6.4,0.1,6.4,0.1l0-5.8l-3.6-20.5l-3,20.6
	L34.2,41.7z"/>
<path fill-rule="evenodd" clip-rule="evenodd" fill="#FFEC96" d="M40.6,41.8c3.1,3.9,6.1,0.7,6.5,0.2l0-7.9l-10-18.3L40.7,36
	L40.6,41.8z"/>
<path fill-rule="evenodd" clip-rule="evenodd" fill="#C7BCE8" d="M47.2,42c3.1,3.9,5.7,1.1,6.2,0.4l0.1-7.4L37,15.7l10,19.8L47.2,42
	z"/>
<path fill-rule="evenodd" clip-rule="evenodd" fill="#B4DEF7" d="M59.8,42.1c-3.1,3.9-6.4,0.3-6.4,0.3l-0.1-7.4L37.1,15.7l22.8,18.5
	L59.8,42.1z"/>
<polygon fill-rule="evenodd" clip-rule="evenodd" fill="#FF7354" points="37.6,13.2 37.6,8.2 48.2,8.3 45.3,10.8 48.2,13.3 "/>
<path fill-rule="evenodd" clip-rule="evenodd" fill="#FF7354" d="M15.8,36.9l15.4,0.3l-1.4,29.8c0,0-15.3-1.3-19.8-5.3l5.6-22
	L15.8,36.9z"/>
<path fill="#7F7F7F" d="M37.6,7.7l0.1,8.5c-0.3-0.2-0.7-0.2-1,0l-0.1-8.5C36.9,7.6,37.2,7.6,37.6,7.7z"/>
<path fill-rule="evenodd" clip-rule="evenodd" fill="#FF7354" d="M58.6,36.9l-15.4,0.3l1.4,30.1c0,0,15.9-1.1,20.5-5.2l-6.2-22.4
	L58.6,36.9z"/>
<path fill-rule="evenodd" clip-rule="evenodd" fill="#6E534A" d="M27.7,44.1v-1.7l0,0c0-0.5,0.1-1.1,0.1-1.6
	c5.3,0.3,10.6,0.4,15.9,0.2c5.3-0.3,10.6-0.6,15.9-0.8c0,0.4,0.1,0.8,0.2,1.2c0.1,0.4,0.2,0.8,0.2,1.2c-3,3-6.4,0.7-6.4,0.7
	c0,0,0-0.1,0-0.1c0,0,0,0.1,0,0.1c-0.5,0.6-3.1,3.4-6.2,0.6c0,0,0,0.1,0,0.1c-0.5,0.5-3.4,4.2-6.6,0.6c0,0,0,0,0-0.1
	c-0.2,0.3-3.5,4.2-6.5,0c0-0.5,0-1,0-1.5c0-0.5,0-1,0-1.5c0,0.5,0,1,0,1.5c0,0.5,0,1,0,1.5C34.4,44.4,30.7,48.4,27.7,44.1L27.7,44.1
	z M27.7,42.3c0-0.5,0.1-1,0.1-1.5l-0.1,0V42.3z M21.2,41.7c0.1-0.4,0.1-0.9,0.1-1.3l-0.1,0V41.7c0.1-0.5,0.1-0.9,0.1-1.3
	c2.1,0.1,4.3,0.3,6.5,0.4v1.5l0,0.1c0,0.5-0.1,1.1-0.1,1.6c-0.3,0.5-3.6,3-6.5-0.6V41.7L21.2,41.7z M27.7,42.4c0,0.5-0.1,1-0.1,1.6
	c0,0,0.1,0.1,0.1,0.1V42.4z M14.6,42.8c2.9,3.2,6.4,0.4,6.4,0.4c0-0.5,0.1-0.9,0.1-1.4l0-0.1v1.6c0-0.1-0.1-0.1-0.1-0.2
	c0-0.5,0.1-0.9,0.1-1.4l0-0.1v-1.3c-2.1-0.1-4.2-0.2-6.3-0.2c0,0.4-0.1,0.9-0.2,1.3C14.7,41.9,14.6,42.4,14.6,42.8z"/>
<path fill-rule="evenodd" clip-rule="evenodd" fill="#9ED3F2" d="M13.6,41.9c3,3.9,7.4,0.7,7.5,0.5l0-7.2l-6.7-1.1L13.6,41.9z"/>
<path fill-rule="evenodd" clip-rule="evenodd" fill="#FFE159" d="M21.1,42.6c3,3.9,6.5,0.7,6.5,0.7l0-7.3l-6.5-0.7L21.1,42.6z"/>
<path fill-rule="evenodd" clip-rule="evenodd" fill="#77C46E" d="M34.1,43.5c3,3.9,6.7,0,6.7,0L40.6,36l-6.5,0L34.1,43.5z"/>
<path fill-rule="evenodd" clip-rule="evenodd" fill="#FFE159" d="M40.8,43.5c3,3.9,6.2-0.4,6.3-0.6l0-7.3L40.6,36L40.8,43.5z"/>
<path fill-rule="evenodd" clip-rule="evenodd" fill="#B0A0DE" d="M27.7,43.3c3,3.9,6.4,0.4,6.5,0.2l-0.1-7.4l-6.4-0.2L27.7,43.3z"/>
<path fill-rule="evenodd" clip-rule="evenodd" fill="#B0A0DE" d="M47.1,42.8c3,3.9,6.5-0.5,6.5-0.5L53.4,35L47,35.6L47.1,42.8z"/>
<path fill-rule="evenodd" clip-rule="evenodd" fill="#9ED3F2" d="M53.6,42.1c3,3.9,7.4,0,7.6-0.4l-1.4-7.6L53.4,35L53.6,42.1z"/>
<polygon fill-rule="evenodd" clip-rule="evenodd" fill="#FFEC96" points="23.4,48.6 25.3,47.6 24.5,49.7 26.4,51 24.2,51.3 
	23.4,53.4 22.3,51.4 20.1,51.2 21.7,49.8 21.4,47.5 "/>
<polygon fill-rule="evenodd" clip-rule="evenodd" fill="#FFEC96" points="16.4,57.7 18,56.8 17.3,58.6 19,59.8 17.1,60 16.4,61.8 
	15.4,60.1 13.5,59.9 14.9,58.7 14.7,56.7 "/>
<polygon fill-rule="evenodd" clip-rule="evenodd" fill="#FFEC96" points="51.4,47.7 53,46.8 52.4,48.6 54,49.8 52.1,50 51.5,51.8 
	50.5,50.1 48.6,49.9 50,48.7 49.7,46.7 "/>
<polygon fill-rule="evenodd" clip-rule="evenodd" fill="#FFEC96" points="56.6,56.5 58.7,55.4 57.8,57.7 60,59.2 57.5,59.5 
	56.7,61.7 55.5,59.5 53,59.3 54.8,57.8 54.5,55.3 "/>
</svg>
