<?xml version="1.0" encoding="utf-8"?><svg xmlns="http://www.w3.org/2000/svg" width="75" height="75" viewBox="0 0 75 75"><path fill-rule="evenodd" clip-rule="evenodd" fill="#FFB76B" d="M23.8 35.3l-1 24.9 30 .6-4-25.5z"/><path fill-rule="evenodd" clip-rule="evenodd" fill="#FF8D73" d="M12.5 62.3c1.9-1.6 27-13.1 50.2.4-.7.4-7.6 4.3-24.9 4.3-17.3 0-25.4-4.8-25.3-4.7z"/><path fill-rule="evenodd" clip-rule="evenodd" fill="#B4DEF7" d="M14.6 41.7c3.1 3.9 6.4 0 6.4 0l.2-6.9 16-19.4-22.7 18.4.1 7.9z"/><path fill-rule="evenodd" clip-rule="evenodd" fill="#FFEC96" d="M21.1 41.6c3.1 3.9 6.3.5 6.6-.1v-6.1l9.5-20-16.1 19.4v6.8z"/><path fill-rule="evenodd" clip-rule="evenodd" fill="#C7BCE8" d="M27.7 41.5c3.1 3.9 6.6-.2 6.6-.2l-.1-5.5 3-20.2-9.4 19.9-.1 6z"/><path fill-rule="evenodd" clip-rule="evenodd" fill="#9EDB97" d="M34.3 41.3c3.1 3.9 6.4.1 6.4.1v-5.8l-3.6-20.5-3 20.6.2 5.6z"/><path fill-rule="evenodd" clip-rule="evenodd" fill="#FFEC96" d="M40.7 41.5c3.1 3.9 6.1.7 6.5.2v-7.9l-10-18.3 3.5 20.2v5.8z"/><path fill-rule="evenodd" clip-rule="evenodd" fill="#C7BCE8" d="M47.3 41.6c3.1 3.9 5.7 1.1 6.2.4l.1-7.4-16.5-19.3 10 19.8.2 6.5z"/><path fill-rule="evenodd" clip-rule="evenodd" fill="#B4DEF7" d="M59.9 41.7c-3.1 3.9-6.4.3-6.4.3l-.1-7.4-16.2-19.3L60 33.8l-.1 7.9z"/><path fill-rule="evenodd" clip-rule="evenodd" fill="#FF7354" d="M37.7 12.9v-5h10.6l-2.9 2.5 2.9 2.5zM15.9 36.5l15.4.3-1.4 29.8s-15.3-1.3-19.8-5.3l5.6-22 .2-2.8z"/><path fill="#7F7F7F" d="M37.7 7.4l.1 8.5c-.3-.2-.7-.2-1 0l-.1-8.5c.3-.2.6-.2 1 0z"/><path fill-rule="evenodd" clip-rule="evenodd" fill="#FF7354" d="M65.1 61.7l-6.2-22.4-.3-2.8-15.4.3 1.4 30.1c.1 0 16-1.2 20.5-5.2"/><path fill-rule="evenodd" clip-rule="evenodd" fill="#CC5D52" d="M27.8 43.7V42c0-.5.1-1.1.1-1.6 5.3.3 10.6.4 15.9.2 5.3-.3 10.6-.6 15.9-.8 0 .4.1.8.2 1.2.1.4.2.8.2 1.2-3 3-6.4.7-6.4.7s0-.1 0-.1 0 .1 0 .1c-.5.6-3.1 3.4-6.2.6 0 0 0 .1 0 .1-.5.5-3.4 4.2-6.6.6 0 0 0 0 0-.1-.2.3-3.5 4.2-6.5 0 0-.5 0-1 0-1.5s0-1 0-1.5c0 .5 0 1 0 1.5s0 1 0 1.5c.1-.1-3.6 3.9-6.6-.4zm0-1.8c0-.5.1-1 .1-1.5h-.1v1.5zm-6.5-.6c.1-.4.1-.9.1-1.3h-.1v1.3c.1-.5.1-.9.1-1.3 2.1.1 4.3.3 6.5.4V42c0 .5-.1 1.1-.1 1.6-.3.5-3.6 3-6.5-.6v-1.7zm6.5.7c0 .5-.1 1-.1 1.6 0 0 .1.1.1.1V42zm-13.1.4c2.9 3.2 6.4.4 6.4.4 0-.5.1-.9.1-1.4v-.1V43c0-.1-.1-.1-.1-.2 0-.5.1-.9.1-1.4V40c-2.1-.1-4.2-.2-6.3-.2 0 .4-.1.9-.2 1.3.1.4 0 .9 0 1.3z"/><path fill-rule="evenodd" clip-rule="evenodd" fill="#9ED3F2" d="M13.7 41.6c3 3.9 7.4.7 7.5.5v-7.2l-6.7-1.1-.8 7.8z"/><path fill-rule="evenodd" clip-rule="evenodd" fill="#FFE159" d="M21.2 42.2c3 3.9 6.5.7 6.5.7v-7.3l-6.5-.7v7.3z"/><path fill-rule="evenodd" clip-rule="evenodd" fill="#77C46E" d="M34.2 43.1c3 3.9 6.7 0 6.7 0l-.1-7.5h-6.5l-.1 7.5z"/><path fill-rule="evenodd" clip-rule="evenodd" fill="#FFE159" d="M40.9 43.1c3 3.9 6.2-.4 6.3-.6v-7.3l-6.4.4.1 7.5z"/><path fill-rule="evenodd" clip-rule="evenodd" fill="#B0A0DE" d="M27.8 42.9c3 3.9 6.4.4 6.5.2l-.1-7.4-6.4-.2v7.4zm19.4-.5c3 3.9 6.5-.5 6.5-.5l-.3-7.3-6.3.5.1 7.3z"/><path fill-rule="evenodd" clip-rule="evenodd" fill="#9ED3F2" d="M53.7 41.7c3 3.9 7.4 0 7.6-.4l-1.4-7.6-6.4.9.2 7.1z"/><path fill-rule="evenodd" clip-rule="evenodd" fill="#FFEC96" d="M23.5 48.2l1.9-1-.8 2.1 1.9 1.4-2.2.2-.8 2.1-1.1-2-2.2-.2 1.6-1.4-.3-2.3zm-7 9.1l1.6-.9-.7 1.8 1.7 1.2-1.9.2-.7 1.8-1-1.7-1.9-.2 1.4-1.2-.2-2zm35-10l1.6-.9-.6 1.8 1.6 1.2-1.9.2-.6 1.8-1-1.7-1.9-.2 1.4-1.2-.3-2zm5.2 8.8l2.1-1.1-.9 2.3 2.2 1.5-2.5.3-.8 2.2-1.2-2.1-2.5-.2 1.8-1.6-.3-2.5z"/></svg>