<?xml version="1.0" encoding="utf-8"?>
<!-- Generator: Adobe Illustrator 17.1.0, SVG Export Plug-In . SVG Version: 6.00 Build 0)  -->
<!DOCTYPE svg PUBLIC "-//W3C//DTD SVG 1.1//EN" "http://www.w3.org/Graphics/SVG/1.1/DTD/svg11.dtd">
<svg version="1.1" id="Слой_1" xmlns="http://www.w3.org/2000/svg" xmlns:xlink="http://www.w3.org/1999/xlink" x="0px" y="0px"
	 width="75px" height="75px" viewBox="0 0 75 75" enable-background="new 0 0 75 75" xml:space="preserve">
<path fill-rule="evenodd" clip-rule="evenodd" fill="#78C2F0" d="M59.5,35.5H62c1.4,0,2.5,1.5,2.5,3.3v15.6c0,1.8-1.1,3.3-2.5,3.3
	h-2.5V35.5z"/>
<path fill-rule="evenodd" clip-rule="evenodd" fill="#82C9F5" d="M15.5,35.5H13c-1.4,0-2.5,1.5-2.5,3.3v15.6c0,1.8,1.1,3.3,2.5,3.3
	h2.5V35.5z"/>
<path fill-rule="evenodd" clip-rule="evenodd" fill="#78C2F0" d="M37.9,10.3c4.6,0.1,8.3,3.6,8.3,8c0,4.4-3.7,8-8.3,8v-2.7
	c3.1,0,4.9-2.4,4.9-5.4c0-3-1.8-4.7-4.9-4.8V10.3z M37.8,10.3c0,0,0.1,0,0.1,0v3.2l0,0c-3.1,0-4.9,1.9-4.9,4.8c0,3,1.7,5.3,4.9,5.3
	l0,0v2.7c0,0-0.1,0-0.1,0c-4.7,0-8.4-3.6-8.4-8C29.4,13.9,33.1,10.3,37.8,10.3z"/>
<path fill-rule="evenodd" clip-rule="evenodd" fill="#B6E1FC" d="M22.3,17.7h30.4c4,0,7.3,3.3,7.3,7.3v32.4c0,4-3.3,7.3-7.3,7.3
	H22.3c-4,0-7.3-3.3-7.3-7.3V25C15,21,18.3,17.7,22.3,17.7z"/>
<path fill-rule="evenodd" clip-rule="evenodd" fill="#A6DBFC" d="M37.8,17.7h14.9c4,0,7.3,3.3,7.3,7.3v32.4c0,4-3.3,7.3-7.3,7.3
	H37.8V17.7z"/>
<path fill-rule="evenodd" clip-rule="evenodd" fill="#93D3FA" d="M22.3,17.4h30.5c4,0,7.3,3.3,7.3,7.3V29c0,4-3.3,7.3-7.3,7.3H22.3
	c-4,0-7.3-3.3-7.3-7.3v-4.4C15,20.7,18.2,17.4,22.3,17.4z"/>
<rect x="22.3" y="17.1" fill-rule="evenodd" clip-rule="evenodd" fill="#78C2F0" width="5.1" height="17.2"/>
<rect x="47.7" y="17.1" fill-rule="evenodd" clip-rule="evenodd" fill="#78C2F0" width="5.1" height="17.1"/>
<polygon fill-rule="evenodd" clip-rule="evenodd" fill="#FEEFB2" points="33.8,30.6 40.8,23.5 43.5,24.3 43.5,34.2 "/>
<polygon fill-rule="evenodd" clip-rule="evenodd" fill="#FFE781" points="38.5,32.4 42.2,24 43.5,24.4 43.5,34.2 "/>
<polygon fill-rule="evenodd" clip-rule="evenodd" fill="#F3775B" points="26.3,49 33.8,30.6 38.6,32.3 32.6,48.1 "/>
<polygon fill-rule="evenodd" clip-rule="evenodd" fill="#F26748" points="32.4,48.1 38.6,32.3 43.5,34.2 38.4,47.4 "/>
<polygon fill-rule="evenodd" clip-rule="evenodd" fill="#F26748" points="40.7,23.6 43.5,20.8 43.5,24.6 "/>
<path fill-rule="evenodd" clip-rule="evenodd" fill="#83CAF7" d="M56.7,45.8v8.7c0,3.2-2.6,5.8-5.8,5.8h-27c-3.2,0-5.8-2.6-5.8-5.8
	v-8.7H56.7z"/>
<path fill-rule="evenodd" clip-rule="evenodd" fill="#FFF6D1" d="M22.5,33.5h4.6c0.5,0,0.9,0.4,0.9,0.9v2.8c0,0.5-0.4,0.9-0.9,0.9
	h-4.6c-0.5,0-0.9-0.4-0.9-0.9v-2.8C21.6,34,22,33.5,22.5,33.5z"/>
<path fill-rule="evenodd" clip-rule="evenodd" fill="#FFF6D1" d="M47.9,33.5h4.6c0.5,0,0.9,0.4,0.9,0.9v2.8c0,0.5-0.4,0.9-0.9,0.9
	h-4.6c-0.5,0-0.9-0.4-0.9-0.9v-2.8C46.9,34,47.4,33.5,47.9,33.5z"/>
</svg>
