<?xml version="1.0" encoding="utf-8"?><svg xmlns="http://www.w3.org/2000/svg" width="75" height="75" viewBox="0 0 75 75"><path fill-rule="evenodd" clip-rule="evenodd" fill="#E89764" d="M36.5 9.4s4.2-5.6 12.1-1.9c1.6.7 2.8 2.3 3.4 6 .6 3.6 1.8 4.4 2.8 6.6.9 2.2.5 7.6-.6 9.6-1.1 1.9-3.2 5.8-3.2 5.8s-1.5 3.6-2.1 4.8c-.7 1.2-1.4 3-2.3 3.6-.9.6-2.3 1.7-3.7 2-1.4.3-9.4.6-10.4.4-1.1-.3-2.9-1-3.7-1.7-.8-.6-2.4-2.3-2.8-4.5-.4-2.2-.7-4.4-1.2-5.4s-3.9-5.1-3.9-8.7c.1-3.5 0-5.6 1.8-9.1 0 0 1.5-5.1 3.1-7 1.3-2 5.3-3.9 10.7-.5z"/><path fill-rule="evenodd" clip-rule="evenodd" fill="#C9EAFF" d="M39.7 43.3s15.5 2.5 14.8 23.4c0 0-16 4.7-34.7 0 0 0-2.1-19.3 14.3-23.4 0 0-1.9-2.4-.4-5.1.3-.4 1.7-1.4 3.3.5 0 0 1.6-2 3.1-.7s-.4 5.3-.4 5.3z"/><path fill-rule="evenodd" clip-rule="evenodd" fill="#BAE5FF" d="M39.7 43.3s15.5 2.5 14.8 23.4c0 0-7.2 2.1-17.7 2.1V38.5c0 .1.1.1.2.2 0 0 1.6-2 3.1-.7s-.4 5.3-.4 5.3z"/><path fill-rule="evenodd" clip-rule="evenodd" fill="#A1DBFF" d="M36.7 47.4c7.4 5.5 11.7.8 11.7.8-12.4-11.9-23.4.3-23.4.3s5.2 4.4 11.7-1.1z"/><path fill-rule="evenodd" clip-rule="evenodd" fill="#FFF1E3" d="M24.9 22.7c-.6 0-1.1.5-1.1 1.1 0 .6.5 1.1 1.1 1.1.7 3.2 2.9 9 10.8 9.8v.9c-1.9.2-3.1 1.1-3.1 1.1-4 3.1.1 7 .1 7s.5.5.9.6c.2-.6.8-.8.8-.8s-.4-.3-1-.8-1.5-1.6-1.2-3.1c.4-1.5 1.7-1.8 1.7-1.8l2.8 2s2.4-1.9 3-1.8c.6.1 1.5 1.1 1.4 2.5-.1 1.3-2.2 2.9-2.2 2.9.9.2 1.1.6 1.1.6l.5-.4c4.5-4-.3-7.1-.3-7.1-.8-.4-1.6-.7-2.3-.8v-.9c8-.1 10.5-6.5 11.3-9.9.1 0 .2.1.3.1.6 0 1.1-.5 1.1-1.1 0-.6-.5-1.1-1.1-1.1-.2 0-.3 0-.4.1-11.3-.6-12.5-8.1-12.5-8.1s-.8 7.3-11.5 8c0-.1-.1-.1-.2-.1z"/><path fill-rule="evenodd" clip-rule="evenodd" fill="#FFE7CF" d="M36.8 39.4v.3s2.5-1.9 3.1-1.8c.6.1 1.5 1.1 1.4 2.5-.1 1.3-2.2 2.9-2.2 2.9.9.2 1.1.6 1.1.6l.5-.4c4.5-4-.3-7.1-.3-7.1-.8-.4-1.6-.7-2.3-.8v-.9c8-.1 10.5-6.5 11.3-9.9.1 0 .2.1.3.1.6 0 1.1-.5 1.1-1.1 0-.6-.5-1.1-1.1-1.1-.2 0-.3 0-.4.1-10.3-.5-12.3-6.6-12.6-7.9l.1 24.5z"/><circle fill="#469FD6" cx="42.1" cy="26" r="1.5"/><circle fill="#469FD6" cx="31.7" cy="25.7" r="1.5"/><path fill-rule="evenodd" clip-rule="evenodd" fill="#FCFEFF" d="M25.1 15.4v1.1c.5 2.1 3.3.4 1.1-.7 2.2.5 1.7-2.8-.4-1.3.4-1.1-.2-1.6-.7-1.6v2.5zm0 0v-2.5c-.6 0-1.1.5-.7 1.6-1.8-1.4-2.9 1.6-.5 1.2-1.8 1.2.6 2.9 1.2.8v-1.1z"/><path fill-rule="evenodd" clip-rule="evenodd" fill="#85CA7D" d="M25.1 14.7c.4 0 .8.4.8.8s-.4.8-.8.8-.8-.4-.8-.8c0-.5.3-.8.8-.8z"/><path fill-rule="evenodd" clip-rule="evenodd" fill="#FCFEFF" d="M29.7 14.9V16c.5 2.1 3.3.4 1.1-.7 2.2.5 1.7-2.8-.4-1.3.4-1.1-.2-1.6-.7-1.6v2.5zm0 0v-2.5c-.6 0-1.1.5-.7 1.6-1.8-1.4-2.9 1.6-.5 1.2-1.8 1.2.6 2.9 1.2.8v-1.1z"/><path fill-rule="evenodd" clip-rule="evenodd" fill="#85CA7D" d="M29.8 14.1c.4 0 .8.4.8.8s-.4.8-.8.8-.8-.4-.8-.8.3-.8.8-.8z"/><path fill-rule="evenodd" clip-rule="evenodd" fill="#FCFEFF" d="M34.4 13.9V15c.5 2.1 3.3.4 1.1-.7 2.2.5 1.7-2.8-.4-1.3.4-1.1-.2-1.6-.7-1.6v2.5zm0 0v-2.5c-.6 0-1.1.5-.7 1.6-1.8-1.4-2.9 1.6-.5 1.2-1.8 1.2.6 2.9 1.2.8v-1.1z"/><path fill-rule="evenodd" clip-rule="evenodd" fill="#85CA7D" d="M34.4 13.2c.4 0 .8.4.8.8s-.4.8-.8.8-.8-.4-.8-.8.3-.8.8-.8z"/><path fill-rule="evenodd" clip-rule="evenodd" fill="#FCFEFF" d="M39.6 14.2v1.1c.5 2.1 3.3.4 1.1-.7 2.2.5 1.7-2.8-.4-1.3.4-1.1-.2-1.6-.8-1.6v2.5zm0 0v-2.5c-.6 0-1.1.5-.7 1.6-1.8-1.4-2.9 1.6-.5 1.2-1.8 1.2.6 2.9 1.2.8v-1.1z"/><path fill-rule="evenodd" clip-rule="evenodd" fill="#85CA7D" d="M39.6 13.4c.4 0 .8.4.8.8s-.4.8-.8.8-.8-.4-.8-.8.4-.8.8-.8z"/><path fill-rule="evenodd" clip-rule="evenodd" fill="#FCFEFF" d="M44.6 15.1v1.1c.5 2.1 3.3.4 1.1-.7 2.2.5 1.7-2.8-.4-1.3.4-1.1-.2-1.6-.7-1.6v2.5zm0 0v-2.5c-.6 0-1.1.5-.7 1.6-1.8-1.4-2.9 1.6-.5 1.2-1.8 1.2.6 2.9 1.2.8v-1.1z"/><path fill-rule="evenodd" clip-rule="evenodd" fill="#85CA7D" d="M44.6 14.3c.4 0 .8.4.8.8s-.4.8-.8.8-.8-.4-.8-.8.4-.8.8-.8z"/><path fill-rule="evenodd" clip-rule="evenodd" fill="#FCFEFF" d="M49.9 15.4v1.1c.5 2.1 3.3.4 1.1-.7 2.2.5 1.7-2.8-.4-1.3.4-1.1-.2-1.6-.7-1.6v2.5zm-.1 0v-2.5c-.6 0-1.1.5-.7 1.6-1.8-1.4-2.9 1.6-.5 1.2-1.8 1.2.6 2.9 1.2.8v-1.1z"/><path fill-rule="evenodd" clip-rule="evenodd" fill="#85CA7D" d="M49.9 14.7c.4 0 .8.4.8.8s-.4.8-.8.8-.8-.4-.8-.8c0-.5.3-.8.8-.8z"/><path fill-rule="evenodd" clip-rule="evenodd" fill="#FF91C8" d="M36.9 32c.9 0 1.6-.3 1.6-.7 0-.4-.7-.7-1.6-.7-.9 0-1.6.3-1.6.7 0 .3.7.7 1.6.7z"/><path fill-rule="evenodd" clip-rule="evenodd" fill="#FCFEFF" d="M35.1 44.5v1.1c.5 2.1 3.3.4 1.1-.7 2.2.5 1.7-2.8-.4-1.3.4-1.1-.2-1.6-.7-1.6v2.5zm0 0V42c-.6 0-1.1.5-.7 1.6-1.8-1.4-2.9 1.6-.5 1.2-1.8 1.2.6 2.9 1.2.8v-1.1z"/><path fill-rule="evenodd" clip-rule="evenodd" fill="#85CA7D" d="M35.1 43.7c.4 0 .8.4.8.8s-.4.8-.8.8-.8-.4-.8-.8.3-.8.8-.8z"/><path fill-rule="evenodd" clip-rule="evenodd" fill="#FCFEFF" d="M38.2 44.6v1.1c.5 2.1 3.3.4 1.1-.7 2.2.5 1.7-2.8-.4-1.3.4-1.1-.2-1.6-.7-1.6v2.5zm0 0v-2.5c-.6 0-1.1.5-.7 1.6-1.8-1.4-2.9 1.6-.5 1.2-1.8 1.2.6 2.9 1.2.8v-1.1z"/><path fill-rule="evenodd" clip-rule="evenodd" fill="#85CA7D" d="M38.2 43.8c.4 0 .8.4.8.8s-.4.8-.8.8-.8-.4-.8-.8.4-.8.8-.8z"/><path fill-rule="evenodd" clip-rule="evenodd" fill="#FCFEFF" d="M36.7 46.6v1.1c.5 2.1 3.3.4 1.1-.7 2.2.5 1.7-2.8-.4-1.3.4-1.1-.2-1.6-.7-1.6v2.5zm0 0v-2.5c-.6 0-1.1.5-.7 1.6-1.8-1.4-2.9 1.6-.5 1.2-1.8 1.2.6 2.9 1.2.8v-1.1z"/><path fill-rule="evenodd" clip-rule="evenodd" fill="#85CA7D" d="M36.7 45.8c.4 0 .8.4.8.8s-.4.8-.8.8-.8-.4-.8-.8.4-.8.8-.8z"/></svg>