<?xml version="1.0" encoding="utf-8"?><svg xmlns="http://www.w3.org/2000/svg" width="75" height="75" viewBox="0 0 75 75"><path fill-rule="evenodd" clip-rule="evenodd" fill="#FFF1E3" d="M37.3 34.9c8.4 0 15.2-6.8 15.2-15.2 0-8.4-6.8-15.2-15.2-15.2-8.4 0-15.2 6.8-15.2 15.2 0 8.4 6.8 15.2 15.2 15.2z"/><path fill-rule="evenodd" clip-rule="evenodd" fill="#FFE7CF" d="M37.4 34.9c8.3-.1 15.1-6.9 15.1-15.2 0-8.4-6.7-15.1-15.1-15.2v30.4z"/><circle fill="#469FD6" cx="44" cy="17.6" r="1.8"/><path fill="#469FD6" d="M32.4 17.6c0 1-.7 1.8-1.7 1.8s-1.8-.7-1.8-1.7.7-1.8 1.7-1.8c.9 0 1.8.7 1.8 1.7z"/><path fill-rule="evenodd" clip-rule="evenodd" fill="#FFF1E3" d="M24.1 26.8c2.1 0 3.9-1.7 3.9-3.9 0-2.1-1.7-3.9-3.9-3.9s-3.9 1.7-3.9 3.9 1.8 3.9 3.9 3.9z"/><path fill-rule="evenodd" clip-rule="evenodd" fill="#FFE7CF" d="M50.8 26.2c2.1 0 3.9-1.7 3.9-3.9 0-2.1-1.7-3.9-3.9-3.9-2.1 0-3.9 1.7-3.9 3.9s1.7 3.9 3.9 3.9z"/><path fill="#F5AE82" d="M36.7 5.1c0-.3.3-.6.6-.6s.6.3.6.6l.1 5.6c0 .3-.3.6-.6.6s-.6-.3-.6-.6l-.1-5.6zm2.3.2c0-.3.3-.6.6-.6s.6.3.6.6l.1 4.4c0 .3-.3.6-.6.6s-.6-.3-.6-.6L39 5.3zm-4.7-.1c0-.3.3-.6.6-.6s.6.3.6.6l.1 4.4c0 .3-.3.6-.6.6s-.6-.3-.6-.6l-.1-4.4z"/><path fill="#F26748" d="M31.1 22c.8.4 4 1.9 6.2 1.9 2.3 0 4.9-1.3 5.8-1.9-.5 1.7-3.7 3.1-5.8 3.1-2 0-4.8-.8-6.2-3.1z"/><path fill-rule="evenodd" clip-rule="evenodd" fill="#A5E89D" d="M37.5 70.5c13.2 0 23.9-10 23.9-22.2S50.7 26.1 37.5 26.1s-23.9 10-23.9 22.2c0 12.3 10.7 22.2 23.9 22.2z"/><path fill-rule="evenodd" clip-rule="evenodd" fill="#9CDE95" d="M37.5 70.5c13.2 0 23.9-9.9 23.9-22.2 0-12.2-10.7-22.2-23.9-22.2v44.4z"/><path fill="#D1F5CC" d="M14.7 44.5c-.5 0-.9-.4-.9-.9s.4-.9.9-.9c.1 0 19-.2 28 26.2.2.5-.1 1-.6 1.1-.5.2-1-.1-1.1-.6-8.6-25.2-26.3-24.9-26.3-24.9zm46.1.1c-5.2.1-16.8-1.1-22.8 16.6-.2.5 0 1.1.5 1.3.5.2.9.2 1.1-.3 5.3-16.7 16.7-15.4 21.6-15.7.3-.4.5-1.3-.4-1.9zM22.9 32.4c-.5 0-.9-.4-.9-.9s.4-.9.9-.9c1.2 1.1 17.9-4.9 24.1 18.9.2.5-.2.9-.7 1-.5.2-.8-.1-.9-.6-7-22.1-21.7-16.3-22.5-17.5zm32.1.8c-5.8.8-7 0-13.1 6.1-.3.4-.3 1 .1 1.3.4.3 1 .3 1.3-.1 6-5.5 7.3-4.9 12.9-5.3.5-.3-.2-1.8-1.2-2z"/></svg>