<?xml version="1.0" encoding="utf-8"?>
<!-- Generator: Adobe Illustrator 17.1.0, SVG Export Plug-In . SVG Version: 6.00 Build 0)  -->
<!DOCTYPE svg PUBLIC "-//W3C//DTD SVG 1.1//EN" "http://www.w3.org/Graphics/SVG/1.1/DTD/svg11.dtd">
<svg version="1.1" id="Слой_1" xmlns="http://www.w3.org/2000/svg" xmlns:xlink="http://www.w3.org/1999/xlink" x="0px" y="0px"
	 width="75px" height="75px" viewBox="0 0 75 75" enable-background="new 0 0 75 75" xml:space="preserve">
<path fill="#F79863" d="M36.9,8l-0.3,3.5c8.4,1.1,15.6,5.9,20,12.6l1-0.5l1.3-0.6l0.9-0.4C54.9,14.8,46.7,9.3,36.9,8z"/>
<path fill="#F79863" d="M60.7,22.2l-0.8,0.4l-1,0.4l-1.3,0.6l-1,0.5l-0.8,0.4c3.4,5,5.1,11.2,4.6,17.7c-0.2,2.9,4.9,4.3,5.2,0.4
	C66.3,35.1,64.4,28,60.7,22.2z"/>
<path fill="#C67234" d="M64.2,66.9c0,0.4-0.4,0.7-0.8,0.7l-4.7-0.4c-0.4,0-0.7-0.4-0.7-0.8l2-24.6c0-0.4,0.4-0.7,0.8-0.7l4.7,0.4
	c0.4,0,0.7,0.4,0.7,0.8L64.2,66.9z"/>
<path fill="#9ED3F2" d="M31.7,16.3c14.9,1.2,26,14.3,24.7,29.2c-0.1,0.7-0.1,1.4-0.3,2.1l1,0.1c0.1-0.7,0.2-1.4,0.3-2.1
	c1.3-15.5-10.2-29-25.7-30.3c-6.4-0.5-12.6,1.3-17.6,4.5l0.9,0.6C19.8,17.4,25.6,15.8,31.7,16.3z"/>
<circle fill="#F76C4D" cx="58.1" cy="49.1" r="5.9"/>
<circle fill="#FFFFFF" cx="58.1" cy="49.1" r="4"/>
<polygon fill="#9ED3F2" points="12.8,33 13.7,33.1 15.1,19.9 14.2,19.8 "/>
<path fill="#DCD4F7" d="M10.4,22.5c0,0,13.1-0.9,20.7,6.5s10.1,26.2,10.1,26.2s5.9-0.7,11.2,0.6c-2.4,2.5-5.2,5.3-8.8,3.8
	c0.1,1.5,0.4,3.9-4.1,8.2c-0.4,0.4-3.7-4.1,0-11.2c0,0-14.9-3.6-22.7-11.2c-10-9.7-8.7-20.3-8.7-20.3l5.1,2.5L10.4,22.5z"/>
<path fill="#D1C6F7" d="M10.4,22.5c0,0,13.1-0.9,20.7,6.5s10.1,26.2,10.1,26.2s5.9-0.7,11.2,0.6c-2.4,2.5-5.2,5.3-8.8,3.8
	c0,0.1,0,0.2,0,0.3L13,27.4L10.4,22.5z"/>
<ellipse transform="matrix(0.6964 -0.7177 0.7177 0.6964 -16.8806 22.0184)" fill="#FFFFFF" cx="17.6" cy="31" rx="2.3" ry="2"/>
<g>
	<g>
		<g>
			<defs>
				
					<ellipse id="SVGID_1_" transform="matrix(0.8505 -0.5259 0.5259 0.8505 -13.6633 14.0659)" cx="17.9" cy="31.1" rx="1.3" ry="1.4"/>
			</defs>
			<clipPath id="SVGID_2_">
				<use xlink:href="#SVGID_1_"  overflow="visible"/>
			</clipPath>
			
				<rect x="15.7" y="32.1" transform="matrix(-0.9697 -0.2442 0.2442 -0.9697 26.1172 67.8181)" clip-path="url(#SVGID_2_)" fill="#4A392E" width="3.1" height="0.4"/>
		</g>
		<g>
			<defs>
				
					<ellipse id="SVGID_3_" transform="matrix(0.8505 -0.5259 0.5259 0.8505 -13.6606 14.0373)" cx="17.9" cy="31.1" rx="1.3" ry="1.4"/>
			</defs>
			<clipPath id="SVGID_4_">
				<use xlink:href="#SVGID_3_"  overflow="visible"/>
			</clipPath>
			
				<rect x="15.8" y="31.9" transform="matrix(-0.9697 -0.2442 0.2442 -0.9697 26.354 67.4702)" clip-path="url(#SVGID_4_)" fill="#4A392D" width="3.1" height="0.4"/>
		</g>
		<g>
			<defs>
				
					<ellipse id="SVGID_5_" transform="matrix(0.8506 -0.5259 0.5259 0.8506 -13.6567 14.0052)" cx="17.8" cy="31" rx="1.3" ry="1.4"/>
			</defs>
			<clipPath id="SVGID_6_">
				<use xlink:href="#SVGID_5_"  overflow="visible"/>
			</clipPath>
			
				<rect x="15.8" y="31.7" transform="matrix(-0.9697 -0.2443 0.2443 -0.9697 26.4002 67.0527)" clip-path="url(#SVGID_6_)" fill="#49382D" width="3.1" height="0.4"/>
		</g>
		<g>
			<defs>
				
					<ellipse id="SVGID_7_" transform="matrix(0.8504 -0.5261 0.5261 0.8504 -13.6595 13.9865)" cx="17.8" cy="31" rx="1.3" ry="1.4"/>
			</defs>
			<clipPath id="SVGID_8_">
				<use xlink:href="#SVGID_7_"  overflow="visible"/>
			</clipPath>
			
				<rect x="15.9" y="31.5" transform="matrix(-0.9698 -0.244 0.244 -0.9698 26.648 66.7026)" clip-path="url(#SVGID_8_)" fill="#49382D" width="3.1" height="0.4"/>
		</g>
		<g>
			<defs>
				
					<ellipse id="SVGID_9_" transform="matrix(0.8505 -0.5261 0.5261 0.8505 -13.6556 13.9544)" cx="17.7" cy="31" rx="1.3" ry="1.4"/>
			</defs>
			<clipPath id="SVGID_10_">
				<use xlink:href="#SVGID_9_"  overflow="visible"/>
			</clipPath>
			
				<rect x="15.9" y="31.3" transform="matrix(-0.9698 -0.2441 0.2441 -0.9698 26.694 66.2848)" clip-path="url(#SVGID_10_)" fill="#49382D" width="3.1" height="0.4"/>
		</g>
		<g>
			<defs>
				
					<ellipse id="SVGID_11_" transform="matrix(0.8504 -0.5262 0.5262 0.8504 -13.6555 13.9319)" cx="17.7" cy="31" rx="1.3" ry="1.4"/>
			</defs>
			<clipPath id="SVGID_12_">
				<use xlink:href="#SVGID_11_"  overflow="visible"/>
			</clipPath>
			
				<rect x="16" y="31.1" transform="matrix(-0.9698 -0.2439 0.2439 -0.9698 26.9389 65.9327)" clip-path="url(#SVGID_12_)" fill="#49382D" width="3.1" height="0.4"/>
		</g>
		<g>
			<defs>
				
					<ellipse id="SVGID_13_" transform="matrix(0.8507 -0.5257 0.5257 0.8507 -13.6433 13.8838)" cx="17.6" cy="31" rx="1.3" ry="1.4"/>
			</defs>
			<clipPath id="SVGID_14_">
				<use xlink:href="#SVGID_13_"  overflow="visible"/>
			</clipPath>
			
				<rect x="16" y="30.9" transform="matrix(-0.9697 -0.2445 0.2445 -0.9697 26.9666 65.521)" clip-path="url(#SVGID_14_)" fill="#49382D" width="3.1" height="0.4"/>
		</g>
		<g>
			<defs>
				
					<ellipse id="SVGID_15_" transform="matrix(0.8505 -0.5259 0.5259 0.8505 -13.6444 13.8644)" cx="17.6" cy="30.9" rx="1.3" ry="1.4"/>
			</defs>
			<clipPath id="SVGID_16_">
				<use xlink:href="#SVGID_15_"  overflow="visible"/>
			</clipPath>
			
				<rect x="16.1" y="30.7" transform="matrix(-0.9697 -0.2442 0.2442 -0.9697 27.2153 65.1665)" clip-path="url(#SVGID_16_)" fill="#49382D" width="3.1" height="0.4"/>
		</g>
		<g>
			<defs>
				
					<ellipse id="SVGID_17_" transform="matrix(0.8505 -0.5261 0.5261 0.8505 -13.6448 13.8394)" cx="17.5" cy="30.9" rx="1.3" ry="1.4"/>
			</defs>
			<clipPath id="SVGID_18_">
				<use xlink:href="#SVGID_17_"  overflow="visible"/>
			</clipPath>
			
				<rect x="16.2" y="30.5" transform="matrix(-0.9698 -0.2441 0.2441 -0.9698 27.4541 64.8207)" clip-path="url(#SVGID_18_)" fill="#49382D" width="3.1" height="0.4"/>
		</g>
		<g>
			<defs>
				
					<ellipse id="SVGID_19_" transform="matrix(0.8505 -0.5261 0.5261 0.8505 -13.6422 13.8106)" cx="17.5" cy="30.9" rx="1.3" ry="1.4"/>
			</defs>
			<clipPath id="SVGID_20_">
				<use xlink:href="#SVGID_19_"  overflow="visible"/>
			</clipPath>
			
				<rect x="16.2" y="30.3" transform="matrix(-0.9698 -0.2441 0.2441 -0.9698 27.5051 64.4009)" clip-path="url(#SVGID_20_)" fill="#49382D" width="3.1" height="0.4"/>
		</g>
		<g>
			<defs>
				
					<ellipse id="SVGID_21_" transform="matrix(0.8506 -0.5259 0.5259 0.8506 -13.6349 13.7751)" cx="17.4" cy="30.9" rx="1.3" ry="1.4"/>
			</defs>
			<clipPath id="SVGID_22_">
				<use xlink:href="#SVGID_21_"  overflow="visible"/>
			</clipPath>
			
				<rect x="16.3" y="30" transform="matrix(-0.9697 -0.2443 0.2443 -0.9697 27.8075 63.8675)" clip-path="url(#SVGID_22_)" fill="#49382D" width="3.1" height="0.4"/>
		</g>
		<g>
			<defs>
				
					<ellipse id="SVGID_23_" transform="matrix(0.8506 -0.5258 0.5258 0.8506 -13.6311 13.7429)" cx="17.4" cy="30.9" rx="1.3" ry="1.4"/>
			</defs>
			<clipPath id="SVGID_24_">
				<use xlink:href="#SVGID_23_"  overflow="visible"/>
			</clipPath>
			
				<rect x="16.3" y="29.8" transform="matrix(-0.9697 -0.2444 0.2444 -0.9697 27.8533 63.4501)" clip-path="url(#SVGID_24_)" fill="#49382D" width="3.1" height="0.4"/>
		</g>
		<g>
			<defs>
				
					<ellipse id="SVGID_25_" transform="matrix(0.8505 -0.5259 0.5259 0.8505 -13.6313 13.7197)" cx="17.3" cy="30.8" rx="1.3" ry="1.4"/>
			</defs>
			<clipPath id="SVGID_26_">
				<use xlink:href="#SVGID_25_"  overflow="visible"/>
			</clipPath>
			
				<rect x="16.4" y="29.6" transform="matrix(-0.9697 -0.2442 0.2442 -0.9697 28.095 63.0981)" clip-path="url(#SVGID_26_)" fill="#48372C" width="3.1" height="0.4"/>
		</g>
		<g>
			<defs>
				
					<ellipse id="SVGID_27_" transform="matrix(0.8505 -0.5261 0.5261 0.8505 -13.5965 13.3198)" cx="16.6" cy="30.6" rx="1.3" ry="1.4"/>
			</defs>
			<clipPath id="SVGID_28_">
				<use xlink:href="#SVGID_27_"  overflow="visible"/>
			</clipPath>
			
				<rect x="17.1" y="23.9" transform="matrix(-0.9698 -0.2441 0.2441 -0.9698 30.178 57.5376)" clip-path="url(#SVGID_28_)" fill="#48372C" width="3.1" height="6"/>
		</g>
	</g>
</g>
<path fill="#F79863" d="M11.1,17.4l1.1,1c0,0,9.1-10.1,24.8-7.9L37.2,9C37.2,9,23.1,6.3,11.1,17.4z"/>
<path fill="#B5A8DB" d="M23.8,32.2c0.4-0.4,0.8-0.8,1.2-0.6c0.5,0.2,0.3,0.9,0.1,1.6c-1,3.5-3.5,5.3-6.9,6.4c-0.9,0.2-1,0.2-1.4-0.2
	s-0.1-0.7,0.3-1.1C20.7,37.1,22.7,35.4,23.8,32.2z"/>
</svg>
