<?xml version="1.0" encoding="utf-8"?><svg xmlns="http://www.w3.org/2000/svg" width="75" height="75" viewBox="0 0 75 75"><path fill="#C5C3C3" d="M36 56h1v11h-1V56zm-7-5h1v11h-1V51zm13 0h1v11h-1V51z"/><path fill="#B2A6DE" d="M21.2 10.2c6.6-2.6 14.6 2 17.9 10.4 3.3 8.4.6 17.2-6 19.9-6.6 2.6-14.6-2-17.9-10.4s-.6-17.2 6-19.9z"/><path fill="#BDB3E3" d="M25.2 9.5c2.2 5.1 5.9 17.6-4 28.7-2.5-1.9-4.6-4.7-6-8.1-3.3-8.4-.6-17.2 6-19.9 1.3-.5 2.7-.7 4-.7z"/><path fill="#FFE679" d="M51 13.2c-6.6-2.6-14.6 2-17.9 10.4-3.3 8.4-.6 17.2 6 19.9 6.6 2.6 14.6-2 17.9-10.4s.6-17.2-6-19.9z"/><path fill="#FFDF51" d="M56.9 33.1c-3.3 8.4-11.3 13-17.9 10.4-5.4-2.1-8.1-8.4-7.2-15.2C40.1 29.8 53 30.5 50.2 13c.2.1.5.1.7.2 6.7 2.7 9.3 11.5 6 19.9z"/><path fill="#88D575" d="M37.6 56.5l1.3 2.6h-5.4l1.3-2.4c-6.5-.6-11.8-7.4-12.1-15.8-.3-9 5.3-16.4 12.4-16.6 7-.4 12.9 6.8 13.2 15.7.2 8.3-4.5 15.3-10.7 16.5z"/><path fill="#70CD59" d="M37.6 56.5l1.3 2.6h-5.4l1.3-2.4c-3.1-.3-5.9-1.9-8-4.5 6.5-3.6 16.2-11.2 9.5-28 6.5.7 11.7 7.4 12 15.8.2 8.3-4.5 15.3-10.7 16.5z"/></svg>