<?xml version="1.0" encoding="utf-8"?>
<!-- Generator: Adobe Illustrator 17.1.0, SVG Export Plug-In . SVG Version: 6.00 Build 0)  -->
<!DOCTYPE svg PUBLIC "-//W3C//DTD SVG 1.1//EN" "http://www.w3.org/Graphics/SVG/1.1/DTD/svg11.dtd">
<svg version="1.1" id="Слой_1" xmlns="http://www.w3.org/2000/svg" xmlns:xlink="http://www.w3.org/1999/xlink" x="0px" y="0px"
	 width="75px" height="75px" viewBox="0 0 75 75" enable-background="new 0 0 75 75" xml:space="preserve">
<path opacity="0.91" fill-rule="evenodd" clip-rule="evenodd" fill="#FCFCFC" d="M51.2,29L42.7,9.5c-2.5-5.7-9-7.2-11.7,0.1
	l-7.3,19.9c-2,5.4-2.8,13.4,0.1,19l9.1,17.9c2.8,5.6,7.9,5.1,10.3-0.2l8.3-18.3C54,42.6,53.7,34.7,51.2,29z"/>
<path opacity="0.91" fill-rule="evenodd" clip-rule="evenodd" fill="#BDB3E3" d="M21.9,38c-0.5,4.7-0.2,6.4,1.9,10.4l9.2,17.9
	c2.8,5.6,7.9,5.1,10.3-0.2l8.3-18.3c1.7-3.7,2-5.2,1.6-9.9L21.9,38z"/>
<path opacity="0.91" fill-rule="evenodd" clip-rule="evenodd" fill="#F2F2F2" d="M37.3,4.7c2,0,3.8,1.4,5,4.2l8.3,18.3
	c1.7,3.7,3,6.5,2.7,11.2l-15.2,0L37.3,4.7z"/>
<path opacity="0.91" fill-rule="evenodd" clip-rule="evenodd" fill="#FFFFFF" d="M37.3,35.3c2.5,0,4.6-2,4.6-4.5
	c0-2.5-2-4.5-4.6-4.5s-4.6,2-4.6,4.5C32.7,33.3,34.8,35.3,37.3,35.3z"/>
<path opacity="0.91" fill-rule="evenodd" clip-rule="evenodd" fill="#FFFFFF" d="M37.3,23.3c2.5,0,4.6-2,4.6-4.5
	c0-2.5-2-4.5-4.6-4.5s-4.6,2-4.6,4.5C32.7,21.2,34.8,23.3,37.3,23.3z"/>
<path opacity="0.91" fill-rule="evenodd" clip-rule="evenodd" fill="#B2A6DE" d="M37.9,70.3c2,0,4.3-1.4,5.5-4.2l8.2-18.3
	c1.7-3.7,2-5.2,1.6-9.9H38L37.9,70.3z"/>
<path opacity="0.91" fill-rule="evenodd" clip-rule="evenodd" fill="#FF91C8" d="M33.1,17.8h8.4c0.2,0,0.3,0.1,0.3,0.3v1.6
	c0,0.1-0.1,0.3-0.3,0.3h-8.4c-0.2,0-0.3-0.1-0.3-0.3v-1.6C32.8,17.9,32.9,17.8,33.1,17.8z"/>
<path opacity="0.91" fill-rule="evenodd" clip-rule="evenodd" fill="#FF91C8" d="M33.1,30.1h8.4c0.2,0,0.3,0.1,0.3,0.3V32
	c0,0.1-0.1,0.3-0.3,0.3h-8.4c-0.2,0-0.3-0.1-0.3-0.3v-1.6C32.8,30.2,32.9,30.1,33.1,30.1z"/>
</svg>
