<?xml version="1.0" encoding="utf-8"?>
<!-- Generator: Adobe Illustrator 17.1.0, SVG Export Plug-In . SVG Version: 6.00 Build 0)  -->
<!DOCTYPE svg PUBLIC "-//W3C//DTD SVG 1.1//EN" "http://www.w3.org/Graphics/SVG/1.1/DTD/svg11.dtd">
<svg version="1.1" id="Слой_1" xmlns="http://www.w3.org/2000/svg" xmlns:xlink="http://www.w3.org/1999/xlink" x="0px" y="0px"
	 width="75px" height="75px" viewBox="0 0 75 75" enable-background="new 0 0 75 75" xml:space="preserve">
<path fill-rule="evenodd" clip-rule="evenodd" fill="#E89764" d="M36.5,9.4c0,0,4.2-5.6,12.1-1.9c1.6,0.7,2.8,2.3,3.4,6
	c0.6,3.6,1.8,4.4,2.8,6.6c0.9,2.2,0.5,7.6-0.6,9.6c-1.1,1.9-3.2,5.8-3.2,5.8s-1.5,3.6-2.1,4.8c-0.7,1.2-1.4,3-2.3,3.6
	c-0.9,0.6-2.3,1.7-3.7,2c-1.4,0.3-9.4,0.6-10.4,0.4c-1.1-0.3-2.9-1-3.7-1.7c-0.8-0.6-2.4-2.3-2.8-4.5c-0.4-2.2-0.7-4.4-1.2-5.4
	c-0.5-1-3.9-5.1-3.9-8.7c0.1-3.5,0-5.6,1.8-9.1c0,0,1.5-5.1,3.1-7C27.1,7.9,31.1,6,36.5,9.4z"/>
<path fill-rule="evenodd" clip-rule="evenodd" fill="#C9EAFF" d="M39.7,43.3c0,0,15.5,2.5,14.8,23.4c0,0-16,4.7-34.7,0
	c0,0-2.1-19.3,14.3-23.4c0,0-1.9-2.4-0.4-5.1c0.3-0.4,1.7-1.4,3.3,0.5c0,0,1.6-2,3.1-0.7C41.6,39.3,39.7,43.3,39.7,43.3z"/>
<path fill-rule="evenodd" clip-rule="evenodd" fill="#BAE5FF" d="M39.7,43.3c0,0,15.5,2.5,14.8,23.4c0,0-7.2,2.1-17.7,2.1V38.5
	c0,0.1,0.1,0.1,0.2,0.2c0,0,1.6-2,3.1-0.7C41.6,39.3,39.7,43.3,39.7,43.3z"/>
<path fill-rule="evenodd" clip-rule="evenodd" fill="#A1DBFF" d="M36.7,47.4c7.4,5.5,11.7,0.8,11.7,0.8C36,36.3,25,48.5,25,48.5
	C25,48.5,30.2,52.9,36.7,47.4z"/>
<path fill-rule="evenodd" clip-rule="evenodd" fill="#FFF1E3" d="M24.9,22.7c-0.6,0-1.1,0.5-1.1,1.1c0,0.6,0.5,1.1,1.1,1.1l0,0
	c0.7,3.2,2.9,9,10.8,9.8l0,0.9c-1.9,0.2-3.1,1.1-3.1,1.1c-4,3.1,0.1,7,0.1,7s0.5,0.5,0.9,0.6c0.2-0.6,0.8-0.8,0.8-0.8
	s-0.4-0.3-1-0.8c-0.6-0.5-1.5-1.6-1.2-3.1c0.4-1.5,1.7-1.8,1.7-1.8l2.8,2c0,0,2.4-1.9,3-1.8c0.6,0.1,1.5,1.1,1.4,2.5
	c-0.1,1.3-2.2,2.9-2.2,2.9c0.9,0.2,1.1,0.6,1.1,0.6l0.5-0.4c4.5-4-0.3-7.1-0.3-7.1c-0.8-0.4-1.6-0.7-2.3-0.8v-0.9
	c8-0.1,10.5-6.5,11.3-9.9c0.1,0,0.2,0.1,0.3,0.1c0.6,0,1.1-0.5,1.1-1.1c0-0.6-0.5-1.1-1.1-1.1c-0.2,0-0.3,0-0.4,0.1
	c-11.3-0.6-12.5-8.1-12.5-8.1s-0.8,7.3-11.5,8C25.1,22.7,25,22.7,24.9,22.7z"/>
<path fill-rule="evenodd" clip-rule="evenodd" fill="#FFE7CF" d="M36.8,39.4l0,0.3c0,0,2.5-1.9,3.1-1.8c0.6,0.1,1.5,1.1,1.4,2.5
	c-0.1,1.3-2.2,2.9-2.2,2.9c0.9,0.2,1.1,0.6,1.1,0.6l0.5-0.4c4.5-4-0.3-7.1-0.3-7.1c-0.8-0.4-1.6-0.7-2.3-0.8v-0.9
	c8-0.1,10.5-6.5,11.3-9.9c0.1,0,0.2,0.1,0.3,0.1c0.6,0,1.1-0.5,1.1-1.1c0-0.6-0.5-1.1-1.1-1.1c-0.2,0-0.3,0-0.4,0.1
	C39,22.3,37,16.2,36.7,14.9L36.8,39.4z"/>
<circle fill="#469FD6" cx="42.1" cy="26" r="1.5"/>
<circle fill="#469FD6" cx="31.7" cy="25.7" r="1.5"/>
<path fill-rule="evenodd" clip-rule="evenodd" fill="#FCFEFF" d="M25.1,15.4L25.1,15.4L25.1,15.4L25.1,15.4L25.1,15.4v1.1
	c0.5,2.1,3.3,0.4,1.1-0.7c2.2,0.5,1.7-2.8-0.4-1.3c0.4-1.1-0.2-1.6-0.7-1.6V15.4z M25.1,15.4L25.1,15.4l0-2.5
	c-0.6,0-1.1,0.5-0.7,1.6c-1.8-1.4-2.9,1.6-0.5,1.2c-1.8,1.2,0.6,2.9,1.2,0.8l0,0L25.1,15.4L25.1,15.4L25.1,15.4L25.1,15.4z"/>
<path fill-rule="evenodd" clip-rule="evenodd" fill="#85CA7D" d="M25.1,14.7c0.4,0,0.8,0.4,0.8,0.8c0,0.4-0.4,0.8-0.8,0.8
	c-0.4,0-0.8-0.4-0.8-0.8C24.3,15,24.6,14.7,25.1,14.7L25.1,14.7z"/>
<path fill-rule="evenodd" clip-rule="evenodd" fill="#FCFEFF" d="M29.7,14.9L29.7,14.9L29.7,14.9L29.7,14.9L29.7,14.9V16
	c0.5,2.1,3.3,0.4,1.1-0.7c2.2,0.5,1.7-2.8-0.4-1.3c0.4-1.1-0.2-1.6-0.7-1.6V14.9z M29.7,14.9L29.7,14.9l0-2.5
	c-0.6,0-1.1,0.5-0.7,1.6c-1.8-1.4-2.9,1.6-0.5,1.2c-1.8,1.2,0.6,2.9,1.2,0.8l0,0L29.7,14.9L29.7,14.9L29.7,14.9L29.7,14.9z"/>
<path fill-rule="evenodd" clip-rule="evenodd" fill="#85CA7D" d="M29.8,14.1c0.4,0,0.8,0.4,0.8,0.8c0,0.4-0.4,0.8-0.8,0.8
	c-0.4,0-0.8-0.4-0.8-0.8C29,14.5,29.3,14.1,29.8,14.1L29.8,14.1z"/>
<path fill-rule="evenodd" clip-rule="evenodd" fill="#FCFEFF" d="M34.4,13.9L34.4,13.9L34.4,13.9L34.4,13.9L34.4,13.9V15
	c0.5,2.1,3.3,0.4,1.1-0.7c2.2,0.5,1.7-2.8-0.4-1.3c0.4-1.1-0.2-1.6-0.7-1.6V13.9z M34.4,13.9L34.4,13.9l0-2.5
	c-0.6,0-1.1,0.5-0.7,1.6c-1.8-1.4-2.9,1.6-0.5,1.2c-1.8,1.2,0.6,2.9,1.2,0.8l0,0L34.4,13.9L34.4,13.9L34.4,13.9L34.4,13.9z"/>
<path fill-rule="evenodd" clip-rule="evenodd" fill="#85CA7D" d="M34.4,13.2c0.4,0,0.8,0.4,0.8,0.8s-0.4,0.8-0.8,0.8
	c-0.4,0-0.8-0.4-0.8-0.8S33.9,13.2,34.4,13.2L34.4,13.2z"/>
<path fill-rule="evenodd" clip-rule="evenodd" fill="#FCFEFF" d="M39.6,14.2L39.6,14.2L39.6,14.2L39.6,14.2L39.6,14.2v1.1
	c0.5,2.1,3.3,0.4,1.1-0.7c2.2,0.5,1.7-2.8-0.4-1.3c0.4-1.1-0.2-1.6-0.8-1.6V14.2z M39.6,14.2L39.6,14.2l0-2.5
	c-0.6,0-1.1,0.5-0.7,1.6c-1.8-1.4-2.9,1.6-0.5,1.2c-1.8,1.2,0.6,2.9,1.2,0.8l0,0L39.6,14.2L39.6,14.2L39.6,14.2L39.6,14.2z"/>
<path fill-rule="evenodd" clip-rule="evenodd" fill="#85CA7D" d="M39.6,13.4c0.4,0,0.8,0.4,0.8,0.8c0,0.4-0.4,0.8-0.8,0.8
	c-0.4,0-0.8-0.4-0.8-0.8C38.8,13.8,39.2,13.4,39.6,13.4L39.6,13.4z"/>
<path fill-rule="evenodd" clip-rule="evenodd" fill="#FCFEFF" d="M44.6,15.1L44.6,15.1L44.6,15.1L44.6,15.1L44.6,15.1v1.1
	c0.5,2.1,3.3,0.4,1.1-0.7c2.2,0.5,1.7-2.8-0.4-1.3c0.4-1.1-0.2-1.6-0.7-1.6V15.1z M44.6,15.1L44.6,15.1l0-2.5
	c-0.6,0-1.1,0.5-0.7,1.6c-1.8-1.4-2.9,1.6-0.5,1.2c-1.8,1.2,0.6,2.9,1.2,0.8l0,0L44.6,15.1L44.6,15.1L44.6,15.1L44.6,15.1z"/>
<path fill-rule="evenodd" clip-rule="evenodd" fill="#85CA7D" d="M44.6,14.3c0.4,0,0.8,0.4,0.8,0.8c0,0.4-0.4,0.8-0.8,0.8
	c-0.4,0-0.8-0.4-0.8-0.8C43.8,14.7,44.2,14.3,44.6,14.3L44.6,14.3z"/>
<path fill-rule="evenodd" clip-rule="evenodd" fill="#FCFEFF" d="M49.9,15.4L49.9,15.4L49.9,15.4L49.9,15.4L49.9,15.4v1.1
	c0.5,2.1,3.3,0.4,1.1-0.7c2.2,0.5,1.7-2.8-0.4-1.3c0.4-1.1-0.2-1.6-0.7-1.6V15.4z M49.8,15.4L49.8,15.4l0-2.5
	c-0.6,0-1.1,0.5-0.7,1.6c-1.8-1.4-2.9,1.6-0.5,1.2c-1.8,1.2,0.6,2.9,1.2,0.8l0,0L49.8,15.4L49.8,15.4L49.8,15.4L49.8,15.4z"/>
<path fill-rule="evenodd" clip-rule="evenodd" fill="#85CA7D" d="M49.9,14.7c0.4,0,0.8,0.4,0.8,0.8c0,0.4-0.4,0.8-0.8,0.8
	c-0.4,0-0.8-0.4-0.8-0.8C49.1,15,49.4,14.7,49.9,14.7L49.9,14.7z"/>
<path fill-rule="evenodd" clip-rule="evenodd" fill="#FF91C8" d="M36.9,32c0.9,0,1.6-0.3,1.6-0.7c0-0.4-0.7-0.7-1.6-0.7
	c-0.9,0-1.6,0.3-1.6,0.7C35.3,31.6,36,32,36.9,32z"/>
<path fill-rule="evenodd" clip-rule="evenodd" fill="#FCFEFF" d="M35.1,44.5L35.1,44.5L35.1,44.5L35.1,44.5L35.1,44.5v1.1
	c0.5,2.1,3.3,0.4,1.1-0.7c2.2,0.5,1.7-2.8-0.4-1.3c0.4-1.1-0.2-1.6-0.7-1.6V44.5z M35.1,44.5L35.1,44.5l0-2.5
	c-0.6,0-1.1,0.5-0.7,1.6c-1.8-1.4-2.9,1.6-0.5,1.2c-1.8,1.2,0.6,2.9,1.2,0.8l0,0L35.1,44.5L35.1,44.5L35.1,44.5L35.1,44.5z"/>
<path fill-rule="evenodd" clip-rule="evenodd" fill="#85CA7D" d="M35.1,43.7c0.4,0,0.8,0.4,0.8,0.8s-0.4,0.8-0.8,0.8
	c-0.4,0-0.8-0.4-0.8-0.8S34.6,43.7,35.1,43.7L35.1,43.7z"/>
<path fill-rule="evenodd" clip-rule="evenodd" fill="#FCFEFF" d="M38.2,44.6L38.2,44.6L38.2,44.6L38.2,44.6L38.2,44.6v1.1
	c0.5,2.1,3.3,0.4,1.1-0.7c2.2,0.5,1.7-2.8-0.4-1.3c0.4-1.1-0.2-1.6-0.7-1.6V44.6z M38.2,44.6L38.2,44.6l0-2.5
	c-0.6,0-1.1,0.5-0.7,1.6c-1.8-1.4-2.9,1.6-0.5,1.2c-1.8,1.2,0.6,2.9,1.2,0.8l0,0L38.2,44.6L38.2,44.6L38.2,44.6L38.2,44.6z"/>
<path fill-rule="evenodd" clip-rule="evenodd" fill="#85CA7D" d="M38.2,43.8c0.4,0,0.8,0.4,0.8,0.8c0,0.4-0.4,0.8-0.8,0.8
	c-0.4,0-0.8-0.4-0.8-0.8C37.4,44.2,37.8,43.8,38.2,43.8L38.2,43.8z"/>
<path fill-rule="evenodd" clip-rule="evenodd" fill="#FCFEFF" d="M36.7,46.6L36.7,46.6L36.7,46.6L36.7,46.6L36.7,46.6v1.1
	c0.5,2.1,3.3,0.4,1.1-0.7c2.2,0.5,1.7-2.8-0.4-1.3c0.4-1.1-0.2-1.6-0.7-1.6V46.6z M36.7,46.6L36.7,46.6l0-2.5
	c-0.6,0-1.1,0.5-0.7,1.6c-1.8-1.4-2.9,1.6-0.5,1.2c-1.8,1.2,0.6,2.9,1.2,0.8l0,0L36.7,46.6L36.7,46.6L36.7,46.6L36.7,46.6z"/>
<path fill-rule="evenodd" clip-rule="evenodd" fill="#85CA7D" d="M36.7,45.8c0.4,0,0.8,0.4,0.8,0.8c0,0.4-0.4,0.8-0.8,0.8
	c-0.4,0-0.8-0.4-0.8-0.8C35.9,46.2,36.3,45.8,36.7,45.8L36.7,45.8z"/>
</svg>
