<?xml version="1.0" encoding="utf-8"?><svg xmlns="http://www.w3.org/2000/svg" width="75" height="75" viewBox="0 0 75 75"><path opacity=".91" fill-rule="evenodd" clip-rule="evenodd" fill="#85CA7D" d="M50.7 10.5h2.5v6.7h-2.5z"/><path opacity=".91" fill-rule="evenodd" clip-rule="evenodd" fill="#FFE77D" d="M23 33.3h1.7v12h-2.2V41h-4.8v-2.1h2.6v-5.7H23z"/><path opacity=".91" fill-rule="evenodd" clip-rule="evenodd" fill="#CCC4E6" d="M14.3 32.8l-2.7-12.7s0-4.6 4.1-4.8c4.1-.2 39.2-.1 39.2-.1s3.8.2 4.3 3.9c.5 3.7 1.7 27.1 1.7 27.1l.9 13.8s-1 4.4-4.4 4.5c-3.4.1-44.5-.1-44.5-.1s-3.5-1-3.7-3.7c-.2-2.7 0-8.3 0-8.3s1-3.8 4.3-3.9c3.3-.1 26.8-.1 26.8-.1L42.6 29H30.8s-1.6 6.7-4.9 6.7c-3.3 0-7.7 0-7.7 0s-2 .3-3.9-2.9z"/><path opacity=".91" fill-rule="evenodd" clip-rule="evenodd" fill="#C0B3E6" d="M44.1 15.2c5.6 0 10.8 0 10.8 0s3.8.2 4.3 3.9c.5 3.7 1.7 27.1 1.7 27.1l.9 13.8s-2 4.5-4.4 4.5c-2.4 0-9.6-.2-18.9-.2l5.6-49.1z"/><path opacity=".91" fill-rule="evenodd" clip-rule="evenodd" fill="#fff" d="M52 56.1c3 0 5.5-2.4 5.5-5.3s-2.4-5.3-5.5-5.3c-3 0-5.5 2.4-5.5 5.3.1 2.9 2.5 5.3 5.5 5.3z"/><path opacity=".91" fill-rule="evenodd" clip-rule="evenodd" fill="#85CA7D" d="M52.2 53.8c1.8 0 3.2-1.4 3.2-3.1 0-1.7-1.4-3.1-3.2-3.1-1.8 0-3.2 1.4-3.2 3.1 0 1.7 1.4 3.1 3.2 3.1z"/><path opacity=".91" fill-rule="evenodd" clip-rule="evenodd" fill="#FFE77D" d="M62.8 16.7h1.4c.9 0 1.6.9 1.6 1.9v14.7c0 1-.7 1.9-1.6 1.9h-1.4c-.9 0-1.6-.9-1.6-1.9V18.6c0-1 .8-1.9 1.6-1.9z"/><path opacity=".91" fill-rule="evenodd" clip-rule="evenodd" fill="#88D47F" d="M12.8 48.5l14.8 14.1 10.1-14z"/><circle opacity=".91" fill="#FCEFB3" cx="19.4" cy="50.8" r="1.9"/><path opacity=".91" fill="#FCEFB3" d="M26.7 51.1c1.6 0 2.9 1.3 2.9 2.9 0 1.6-1.3 2.9-2.9 2.9-1.6 0-2.9-1.3-2.9-2.9 0-1.6 1.3-2.9 2.9-2.9z"/><circle opacity=".91" fill="#FCEFB3" cx="32.2" cy="51" r="1.2"/></svg>