<?xml version="1.0" encoding="utf-8"?><svg xmlns="http://www.w3.org/2000/svg" width="75" height="75" viewBox="0 0 75 75"><path fill="#FCC09A" d="M28.4 18c.1 4.6-3.2 8.4-7.4 8.5-4.2.1-7.7-3.5-7.8-8.1-.1-4.6 3.2-8.4 7.4-8.5 4.2-.1 7.7 3.5 7.8 8.1z"/><ellipse transform="matrix(1 -.026 .026 1 -.486 .558)" fill="#FFDCC4" cx="20.8" cy="18.6" rx="4.1" ry="4.5"/><path fill="#F5AE82" d="M61.8 17.5c.1 4.6-3.2 8.4-7.4 8.5-4.2.1-7.7-3.5-7.8-8.1-.1-4.6 3.2-8.4 7.4-8.5 4.2-.1 7.7 3.5 7.8 8.1z"/><ellipse transform="matrix(1 -.026 .026 1 -.454 1.439)" fill="#FFDCC4" cx="54.1" cy="17.9" rx="4.1" ry="4.5"/><path fill="#FCC09A" d="M29.2 57.9c0 4.6-3.4 8.3-7.6 8.3-4.2 0-7.6-3.7-7.6-8.3 0-4.6 3.4-8.3 7.6-8.3 4.2 0 7.6 3.7 7.6 8.3z"/><ellipse fill="#F5AE82" cx="52.3" cy="57.9" rx="7.6" ry="8.3"/><path fill="#FCC09A" d="M50.9 47.4c0 7.7-6.2 14-13.9 14s-13.9-6.3-13.9-14 7.3-13.9 13.9-14c7.7 0 13.9 6.3 13.9 14z"/><path fill="#F5AE82" d="M51 48.3c4.3.7 7.2-1 7.6-3.6.5-2.6-1.6-6.3-10.7-6.2 1.4 3.4 2.7 4.5 3.1 9.8zM37.8 58.6s-.6 2.8-.5 2.8c7.7 0 13.9-6.3 13.9-14S44.8 32.6 38 32.6c0 0 .3 9.5.2 9.5l-.4 16.5zm17.4-33.8c.2 8.8-7.7 16.1-17.4 16.7-9.8.3-17.9-6.7-18.1-15.8C19.4 16.6 27.1 9 37 8.8c9.8-.3 17.9 6.9 18.2 16z"/><path fill="#F9CCAF" d="M48.5 32.6c.1 4.7-5 8.8-10.9 9-5.9.2-10.2-3.8-10.4-8.4-.1-4.7 4.5-8.6 10.4-8.7 5.9-.2 10.7 3.5 10.9 8.1z"/><ellipse fill="#FFDCC4" cx="20.5" cy="59.2" rx="4.6" ry="5.4"/><path fill="#FCC09A" d="M37.5 41.7c-9.8.2-17.6-6.8-17.9-15.9-.2-9.2 7.5-16.8 17.4-17 .5 0 .3 0 .8 0l-.3 32.9z"/><path fill="#FFDCC4" d="M38.1 41.6c-8.8.3-11.1-6.3-10.9-8.4-.2-5.7 5.8-8.8 10.6-8.7l.2 4.6.1 12.5z"/><ellipse fill="#FFDCC4" cx="53.5" cy="59.2" rx="4.6" ry="5.4"/><path fill="#875638" d="M31.9 23.1c0 1-.8 1.9-1.8 1.9s-1.9-.8-1.9-1.8.8-1.9 1.8-1.9c1-.1 1.8.7 1.9 1.8zm15.9-.7c0 1-.8 1.9-1.8 1.9s-1.9-.8-1.9-1.8.8-1.9 1.8-1.9 1.9.8 1.9 1.8z"/><path fill="#FCC09A" d="M23.3 48.3c-4.3.7-7.7-1-8.1-3.6-.4-2.6 2-7.6 11.6-6.1-2 3.5-3.7 5.1-3.5 9.7z"/><ellipse fill="#FFDCC4" cx="18.3" cy="43.9" rx="2" ry="2.4"/><ellipse fill="#FFDCC4" cx="55.5" cy="43.9" rx="2" ry="2.4"/><path fill="#F54D27" d="M43.6 46.6c-2.7-.6-4.7 1.4-5.7 2.4-.5-1.4-2.3-4.1-5.1-4.6-3.6-.7-8.1 2.8-6.2 9.3 1.7 5.8 6.8 10 7.9 10.8 1.3-.3 7.6-2.2 11.4-6.9 4.1-5.3 1.3-10.3-2.3-11z"/><path fill="#FA6949" d="M37.9 48.8c-.7-.9-1.8-3.8-5.1-4.5-3.7-.9-8.2 2.8-6.3 9.3 1.7 5.8 6.8 9.9 7.8 10.7l3.6-15.5z"/><path fill="#DB834C" d="M32.6 36.2c-.3-.1-.4-.3-.3-.6.1-.3.3-.4.6-.3 0 0 3.8 1.4 4.5-2.6l.5-.2.6.2s.5 3.4 4.3 2.5c.3-.1.5 0 .6.3.1.3-.2.5-.4.6-3 .7-4.4-.7-5-2-1.6 3.2-5.4 2.1-5.4 2.1z"/><ellipse transform="matrix(1 -.026 .026 1 -.781 1.013)" fill="#AB7554" cx="37.9" cy="30.1" rx="3.5" ry="2.8"/></svg>