<?xml version="1.0" encoding="utf-8"?>
<!-- Generator: Adobe Illustrator 17.1.0, SVG Export Plug-In . SVG Version: 6.00 Build 0)  -->
<!DOCTYPE svg PUBLIC "-//W3C//DTD SVG 1.1//EN" "http://www.w3.org/Graphics/SVG/1.1/DTD/svg11.dtd">
<svg version="1.1" id="Слой_1" xmlns="http://www.w3.org/2000/svg" xmlns:xlink="http://www.w3.org/1999/xlink" x="0px" y="0px"
	 width="75px" height="75px" viewBox="0 0 75 75" enable-background="new 0 0 75 75" xml:space="preserve">
<path opacity="0.91" fill-rule="evenodd" clip-rule="evenodd" fill="#999999" d="M17.1,48h4.7c2,0,3.6,2,3.6,4.4v8.3
	c0,2.4-1.6,4.4-3.6,4.4h-4.7c-2,0-3.6-2-3.6-4.4v-8.3C13.5,50,15.1,48,17.1,48z"/>
<path opacity="0.91" fill-rule="evenodd" clip-rule="evenodd" fill="#999999" d="M53.3,48h4.7c2,0,3.6,2,3.6,4.4v8.3
	c0,2.4-1.6,4.4-3.6,4.4h-4.7c-2,0-3.6-2-3.6-4.4v-8.3C49.8,50,51.4,48,53.3,48z"/>
<path opacity="0.91" fill-rule="evenodd" clip-rule="evenodd" fill="#A4DAFC" d="M37.7,10c4.3,0,8.4,0.1,10.7,0.4
	c4.9,0.7,8.6,3.4,9.9,9c1.3,5.6,2.8,10.5,2.8,10.5s4.5,0.2,5.3,5.6c0,0,2.6,6.1,0.2,14.6c0,0-1.2,3.3-4.9,4.1
	c-3.7,0.8-17.4,1.7-23.6,1.8l-0.3,0v-26l17.7,0c0,0-2.5-8.4-3.4-11.1c-0.9-2.7-3.7-2.8-3.7-2.8c-3.3-0.3-7.1-0.5-10.7-0.5V10z
	 M13.8,29.9l4-14.1c0.5-1.8,3.3-5,7.4-5.4c2.2-0.2,7.4-0.4,12.5-0.4v5.6c-6,0-11.2,0.3-12.2,0.4c-1.5,0.2-2.3,1.7-2.3,1.7L20,29.9
	l17.7,0v26C31.4,56,17,55.2,13.3,54c-3.8-1.2-4.8-3.1-5.5-6.1c-0.7-3-0.3-10.1,1-13.2S11.2,30.5,13.8,29.9z"/>
<path opacity="0.91" fill-rule="evenodd" clip-rule="evenodd" fill="#FFEA8C" d="M18.5,48.5c3,0,5.5-2.5,5.5-5.5
	c0-3-2.5-5.5-5.5-5.5c-3,0-5.5,2.5-5.5,5.5C13,46.1,15.5,48.5,18.5,48.5z"/>
<path opacity="0.91" fill-rule="evenodd" clip-rule="evenodd" fill="#F7AD71" d="M45.3,38.8c4.1,0,7.4-3.3,7.4-7.4
	c0-4.1-3.3-7.4-7.4-7.4v2c3,0,5.4,2.4,5.4,5.4c0,3-2.4,5.4-5.4,5.4V38.8z M45.3,24c-4.1,0-7.4,3.3-7.4,7.4c0,4.1,3.3,7.4,7.4,7.4v-2
	c-3,0-5.4-2.4-5.4-5.4c0-3,2.4-5.4,5.4-5.4V24z"/>
<path opacity="0.91" fill-rule="evenodd" clip-rule="evenodd" fill="#8CD0FA" d="M37.9,10c4.2,0,8.3,0.1,10.5,0.4
	c4.9,0.7,8.6,3.4,9.9,9c1.3,5.6,2.8,10.5,2.8,10.5s4.5,0.2,5.3,5.6c0,0,2.6,6.1,0.2,14.6c0,0-1.2,3.3-4.9,4.1
	c-3.7,0.8-17.4,1.7-23.6,1.8l-0.2,0v-26l17.6,0c0,0-2.5-8.4-3.4-11.1c-0.9-2.7-3.7-2.8-3.7-2.8c-3.3-0.3-7-0.5-10.5-0.5V10z"/>
<path opacity="0.91" fill-rule="evenodd" clip-rule="evenodd" fill="#FFEA8C" d="M56.5,48.5c3,0,5.5-2.5,5.5-5.5
	c0-3-2.5-5.5-5.5-5.5c-3,0-5.5,2.5-5.5,5.5C51.1,46.1,53.5,48.5,56.5,48.5z"/>
<path opacity="0.91" fill-rule="evenodd" clip-rule="evenodd" fill="#DBF1FF" d="M33.1,37h8.6c2.5,0,4.6,2.1,4.6,4.6v3.9
	c0,2.5-2.1,4.6-4.6,4.6h-8.6c-2.5,0-4.6-2.1-4.6-4.6v-3.9C28.5,39,30.6,37,33.1,37z"/>
<path opacity="0.91" fill-rule="evenodd" clip-rule="evenodd" fill="#999999" d="M34.6,46v1.6c0,0.6-0.6,1-1,1c-0.6,0-1-0.4-1-1
	v-7.6c0-0.6,0.5-1,1-1c0.4,0,1,0.4,1,1V46z"/>
<path opacity="0.91" fill-rule="evenodd" clip-rule="evenodd" fill="#999999" d="M38.7,46v1.6c0,0.6-0.6,1-1,1c-0.6,0-1-0.4-1-1
	v-7.6c0-0.6,0.5-1,1-1c0.4,0,1,0.4,1,1V46z"/>
<path opacity="0.91" fill-rule="evenodd" clip-rule="evenodd" fill="#999999" d="M42.8,45.9v1.6c0,0.6-0.6,1-1,1c-0.6,0-1-0.4-1-1
	v-7.6c0-0.6,0.5-1,1-1c0.4,0,1,0.4,1,1V45.9z"/>
</svg>
