<?xml version="1.0" encoding="utf-8"?><svg xmlns="http://www.w3.org/2000/svg" width="75" height="75" viewBox="0 0 75 75"><path fill-rule="evenodd" clip-rule="evenodd" fill="#FFDEEF" d="M37.5 6.8c11 0 21.6 10.4 20 22.9L55 49.4c-1.6 12.5-6.5 18.8-17.5 18.8s-16.5-6-17.8-18.3l-2.2-20.1c-1.3-12.6 9-23 20-23z"/><path fill-rule="evenodd" clip-rule="evenodd" fill="#FFF1E3" d="M37.7 41.4c8.3 0 15-6.7 15-15s-6.7-15-15-15-15 6.7-15 15c0 8.2 6.8 15 15 15z"/><path fill-rule="evenodd" clip-rule="evenodd" fill="#FFD4EA" d="M37.6 6.8c11 .1 21.4 10.4 19.9 22.9L55 49.4c-1.6 12.4-6.5 18.7-17.4 18.8V6.8z"/><path fill-rule="evenodd" clip-rule="evenodd" fill="#FFE7CF" d="M37.5 41.3c8-.3 14.4-6.9 14.4-15s-6.4-14.7-14.4-15v30z"/><path fill-rule="evenodd" clip-rule="evenodd" fill="#469FD6" d="M30.9 21.6c-.9 0-1.7.7-1.8 1.7 0 .9.7 1.7 1.6 1.7.9 0 1.7-.7 1.8-1.7 0-.9-.7-1.7-1.6-1.7zm13.2 0c-.9 0-1.7.7-1.8 1.7 0 .9.7 1.7 1.6 1.7.9 0 1.7-.7 1.8-1.7.1-.9-.6-1.7-1.6-1.7z"/><path fill-rule="evenodd" clip-rule="evenodd" fill="#FC6A49" d="M37.4 40.4c3.5 0 6.4-2.8 6.4-6.3s-2.9-6.3-6.4-6.3c-3.5 0-6.4 2.8-6.4 6.3s2.8 6.3 6.4 6.3z"/><path fill-rule="evenodd" clip-rule="evenodd" fill="#FFF5FA" d="M37.3 37.1c1.7 0 3.1-1.4 3.1-3 0-1.7-1.4-3-3.1-3-1.7 0-3.1 1.4-3.1 3 .1 1.7 1.4 3 3.1 3zM20.7 55.5l34.7-9.6-.1 1.7-34 9.6zm17.8-4.4L19 43.8l.2 1.9 17.2 6.2z"/><path fill-rule="evenodd" clip-rule="evenodd" fill="#F7AD71" d="M35.8 15.1v.8c0 .3-.3.5-.5.5-.3 0-.5-.2-.5-.5v-4c0-.3.2-.5.5-.5.2 0 .5.2.5.5v3.2zm2.3-.2v.8c0 .3-.3.5-.5.5-.3 0-.5-.2-.5-.5v-4c0-.3.2-.5.5-.5.2 0 .5.2.5.5v3.2zm2.3.1v.8c0 .3-.3.5-.5.5-.3 0-.5-.2-.5-.5v-4c0-.3.2-.5.5-.5.2 0 .5.2.5.5V15z"/></svg>