<?xml version="1.0" encoding="utf-8"?>
<!-- Generator: Adobe Illustrator 17.1.0, SVG Export Plug-In . SVG Version: 6.00 Build 0)  -->
<!DOCTYPE svg PUBLIC "-//W3C//DTD SVG 1.1//EN" "http://www.w3.org/Graphics/SVG/1.1/DTD/svg11.dtd">
<svg version="1.1" id="Слой_1" xmlns="http://www.w3.org/2000/svg" xmlns:xlink="http://www.w3.org/1999/xlink" x="0px" y="0px"
	 width="75px" height="75px" viewBox="0 0 75 75" enable-background="new 0 0 75 75" xml:space="preserve">
<path fill-rule="evenodd" clip-rule="evenodd" fill="#FFDEEF" d="M37.5,6.8L37.5,6.8c11,0,21.6,10.4,20,22.9L55,49.4
	c-1.6,12.5-6.5,18.8-17.5,18.8l0,0c-11,0-16.5-6-17.8-18.3l-2.2-20.1C16.2,17.2,26.5,6.8,37.5,6.8z"/>
<path fill-rule="evenodd" clip-rule="evenodd" fill="#FFF1E3" d="M37.7,41.4c8.3,0,15-6.7,15-15c0-8.3-6.7-15-15-15
	c-8.3,0-15,6.7-15,15C22.7,34.6,29.5,41.4,37.7,41.4z"/>
<path fill-rule="evenodd" clip-rule="evenodd" fill="#FFD4EA" d="M37.6,6.8c11,0.1,21.4,10.4,19.9,22.9L55,49.4
	c-1.6,12.4-6.5,18.7-17.4,18.8V6.8z"/>
<path fill-rule="evenodd" clip-rule="evenodd" fill="#FFE7CF" d="M37.5,41.3c8-0.3,14.4-6.9,14.4-15c0-8.1-6.4-14.7-14.4-15V41.3z"
	/>
<path fill-rule="evenodd" clip-rule="evenodd" fill="#469FD6" d="M30.9,21.6c-0.9,0-1.7,0.7-1.8,1.7c0,0.9,0.7,1.7,1.6,1.7
	c0.9,0,1.7-0.7,1.8-1.7C32.5,22.4,31.8,21.6,30.9,21.6z"/>
<path fill-rule="evenodd" clip-rule="evenodd" fill="#469FD6" d="M44.1,21.6c-0.9,0-1.7,0.7-1.8,1.7c0,0.9,0.7,1.7,1.6,1.7
	c0.9,0,1.7-0.7,1.8-1.7C45.8,22.4,45.1,21.6,44.1,21.6z"/>
<path fill-rule="evenodd" clip-rule="evenodd" fill="#FC6A49" d="M37.4,40.4c3.5,0,6.4-2.8,6.4-6.3c0-3.5-2.9-6.3-6.4-6.3
	c-3.5,0-6.4,2.8-6.4,6.3C31,37.6,33.8,40.4,37.4,40.4z"/>
<path fill-rule="evenodd" clip-rule="evenodd" fill="#FFF5FA" d="M37.3,37.1c1.7,0,3.1-1.4,3.1-3c0-1.7-1.4-3-3.1-3
	c-1.7,0-3.1,1.4-3.1,3C34.3,35.8,35.6,37.1,37.3,37.1z"/>
<polygon fill-rule="evenodd" clip-rule="evenodd" fill="#FFF5FA" points="20.7,55.5 55.4,45.9 55.3,47.6 21.3,57.2 "/>
<polygon fill-rule="evenodd" clip-rule="evenodd" fill="#FFF5FA" points="38.5,51.1 19,43.8 19.2,45.7 36.4,51.9 "/>
<path fill-rule="evenodd" clip-rule="evenodd" fill="#F7AD71" d="M35.8,15.1v0.8c0,0.3-0.3,0.5-0.5,0.5c-0.3,0-0.5-0.2-0.5-0.5v-4
	c0-0.3,0.2-0.5,0.5-0.5c0.2,0,0.5,0.2,0.5,0.5V15.1z"/>
<path fill-rule="evenodd" clip-rule="evenodd" fill="#F7AD71" d="M38.1,14.9v0.8c0,0.3-0.3,0.5-0.5,0.5c-0.3,0-0.5-0.2-0.5-0.5v-4
	c0-0.3,0.2-0.5,0.5-0.5c0.2,0,0.5,0.2,0.5,0.5V14.9z"/>
<path fill-rule="evenodd" clip-rule="evenodd" fill="#F7AD71" d="M40.4,15v0.8c0,0.3-0.3,0.5-0.5,0.5c-0.3,0-0.5-0.2-0.5-0.5v-4
	c0-0.3,0.2-0.5,0.5-0.5c0.2,0,0.5,0.2,0.5,0.5V15z"/>
</svg>
