<?xml version="1.0" encoding="utf-8"?>
<!-- Generator: Adobe Illustrator 17.1.0, SVG Export Plug-In . SVG Version: 6.00 Build 0)  -->
<!DOCTYPE svg PUBLIC "-//W3C//DTD SVG 1.1//EN" "http://www.w3.org/Graphics/SVG/1.1/DTD/svg11.dtd">
<svg version="1.1" id="Слой_1" xmlns="http://www.w3.org/2000/svg" xmlns:xlink="http://www.w3.org/1999/xlink" x="0px" y="0px"
	 width="75px" height="75px" viewBox="0 0 75 75" enable-background="new 0 0 75 75" xml:space="preserve">
<rect x="21.8" y="35.9" transform="matrix(0.9894 0.1449 -0.1449 0.9894 5.901 -3.0297)" fill="#FFE3CC" width="3.8" height="6.2"/>
<circle fill="#FFE3CC" cx="24.2" cy="25.8" r="12.2"/>
<path fill="#C0B3E6" d="M30,41.1l-10.7-1.8c-2.4-0.4-4.4,1.5-4.9,3.9L10.9,60c-0.5,2.4,1.5,4.7,3.9,4.9L28,66.1
	c2.4,0.2,4.7-1.5,4.9-3.9L34,46C34.1,43.6,32.4,41.5,30,41.1z"/>
<path fill="#FADAC0" d="M19.2,36.7c1.3-0.5,13.1-7.5,8.8-18.4l4.8-0.9c0-1.1-8.7-6.9-15.8,0.1S14.8,35.5,19.2,36.7z"/>
<path fill="#AB7554" d="M16.2,35.5c1.4-0.4,14-6.4,10.8-17.9l5.8-1.2c0.1-1.1-8.8-7-16.8-0.6C8,22.1,11.8,33.8,16.2,35.5z"/>
<circle fill="#666666" cx="32.1" cy="23.8" r="1.2"/>
<circle fill="#FFE3CC" cx="50.8" cy="25.9" r="12.2"/>
<rect x="50.1" y="36.4" transform="matrix(-0.9894 0.1449 -0.1449 -0.9894 109.1873 71.0561)" fill="#FFE3CC" width="3.8" height="6.2"/>
<path fill="#FADAC0" d="M41.2,18.7c0,0,7.6,1.4,8.1,5.8c0.5,4.5,0.2,9.1-2,12.7c0,0,3.9,0,6.7-4.5c0,0,1.1,1.9,4.3,2.5
	c0,0,2.1-2.6,2.5-3.1c0,0,0.3,5.1,2.6,7.3c0,0-0.5-5.2,1.4-8.3c0,0,4.5-3.3,3.1-7c0,0-1.2-6.2-6.6-4.1c0,0-2.2-4.2-5.4-5.2
	s-7.7-1.5-10.9,0.5C41.8,17.5,41.2,18.7,41.2,18.7z"/>
<path fill="#FFE159" d="M41,17.5c0,0,7.8,1.3,8.3,5.7c0.5,4.5,0.5,9.8-1.7,13.4c0,0,5-2,6.2-5.5c0,0,2.4,2.7,5.7,3.4
	c0,0,0.9-1,1.4-1.4c0,0,0.4,5,2.6,7.2c0,0,0.5-5.3,2.4-8.5c0,0,3.3-5.1,1.8-8.7c0,0-1.2-6.2-6.6-4.1c0,0-2.2-4.2-5.4-5.2
	s-7.7-1.5-10.9,0.5C41.6,16.3,41,17.5,41,17.5z"/>
<circle fill="#469FD6" cx="41.9" cy="23.8" r="1.2"/>
<path fill="#FFC4E2" d="M46.3,41.5l10.8-1.1c2.4-0.2,4.2,1.9,4.5,4.3L64.3,61c0.4,2.4-1.9,4.5-4.3,4.6l-12.9,0.5
	c-2.4,0.1-4.4-1.9-4.5-4.3l-0.7-15.7C41.8,43.6,43.8,41.7,46.3,41.5z"/>
<circle fill="#FFE3CC" cx="35.9" cy="27.5" r="1.7"/>
<circle fill="#FFE3CC" cx="39.3" cy="27.7" r="1.7"/>
<path fill="#FF7354" d="M33.1,32.1c-1.1-0.1-2.3,0.2-2.9,0.7c0.4,0.7,1.7,1.2,3,1.3c0.7-0.4,1.2-1.1,1.5-1.8
	C34.1,32.2,34.1,32.1,33.1,32.1z"/>
<path fill="#FF7354" d="M41.9,32.1c1.1-0.1,2.3,0.2,2.9,0.7c-0.4,0.7-1.7,1.2-3,1.3c-0.7-0.4-1.2-1.1-1.5-1.8
	C40.9,32.2,40.8,32.1,41.9,32.1z"/>
<path fill="#B7A8E3" d="M30,41.1L23.6,40l-3.2,25.3l7.6,0.8c2.4,0.3,4.7-1.5,4.9-3.9L34,46C34.1,43.6,32.4,41.5,30,41.1z"/>
<path fill="#FFB8DD" d="M51.9,41l5.2-0.5c2.4-0.2,4.2,1.9,4.5,4.3L64.3,61c0.4,2.4-1.9,4.5-4.3,4.6l-5,0.2L51.9,41z"/>
<circle fill="#FFE3CC" cx="36.9" cy="54.5" r="2.2"/>
<path fill="#D3C9F0" d="M21.7,42.7h3.4c0.6,0,1.1,0.6,1.1,1.3v6.5l8,1.3c0.7,0.1,1.3,0.5,1.3,1.1v2.6c0,0.6-0.6,1.1-1.3,1.1
	C30,56.8,26,56,21.7,56c-0.6,0-1.1-0.6-1.1-1.3V44C20.6,43.3,21.1,42.7,21.7,42.7z"/>
<circle fill="#FFE3CC" cx="39.6" cy="54.7" r="2.2"/>
<path fill="#FFD6EB" d="M54.8,43.3h-3.4c-0.6,0-1.1,0.6-1.1,1.3v6.5l-8,1.3c-0.7,0.1-1.3,0.5-1.3,1.1v2.6c0,0.6,0.6,1.1,1.3,1.1
	c4.2,0.2,8.3-0.7,12.5-0.7c0.6,0,1.1-0.6,1.1-1.3V44.7C55.9,43.9,55.4,43.3,54.8,43.3z"/>
</svg>
