<?xml version="1.0" encoding="utf-8"?>
<!-- Generator: Adobe Illustrator 17.1.0, SVG Export Plug-In . SVG Version: 6.00 Build 0)  -->
<!DOCTYPE svg PUBLIC "-//W3C//DTD SVG 1.1//EN" "http://www.w3.org/Graphics/SVG/1.1/DTD/svg11.dtd">
<svg version="1.1" id="Слой_1" xmlns="http://www.w3.org/2000/svg" xmlns:xlink="http://www.w3.org/1999/xlink" x="0px" y="0px"
	 width="75px" height="75px" viewBox="0 0 75 75" enable-background="new 0 0 75 75" xml:space="preserve">
<rect x="19.9" y="34" transform="matrix(-0.9894 -0.1449 0.1449 -0.9894 37.9409 76.8586)" fill-rule="evenodd" clip-rule="evenodd" fill="#FFE3CC" width="3.8" height="6.2"/>
<circle fill-rule="evenodd" clip-rule="evenodd" fill="#FFE3CC" cx="22.2" cy="23.8" r="12.2"/>
<path fill-rule="evenodd" clip-rule="evenodd" fill="#C0B3E6" d="M28,39.1l-10.7-1.8c-2.4-0.4-4.4,1.5-4.9,3.9L8.9,58
	c-0.5,2.4,1.5,4.7,3.9,4.9L26,64.1c2.4,0.2,4.7-1.5,4.9-3.9L32,44C32.1,41.6,30.4,39.5,28,39.1z"/>
<path fill-rule="evenodd" clip-rule="evenodd" fill="#FADAC0" d="M17.2,34.7c1.3-0.5,13.1-7.5,8.8-18.4l4.8-0.9
	c0-1.1-8.7-6.9-15.8,0.1C7.9,22.5,12.8,33.5,17.2,34.7z"/>
<path fill-rule="evenodd" clip-rule="evenodd" fill="#AB7554" d="M14.2,33.5c1.4-0.4,14-6.4,10.8-17.9l5.8-1.2
	c0.1-1.1-8.8-7-16.8-0.6C6,20.1,9.8,31.8,14.2,33.5z"/>
<circle fill-rule="evenodd" clip-rule="evenodd" fill="#666666" cx="30.1" cy="21.8" r="1.2"/>
<circle fill-rule="evenodd" clip-rule="evenodd" fill="#FFE3CC" cx="48.8" cy="23.9" r="12.2"/>
<rect x="48.1" y="34.4" transform="matrix(0.9894 -0.1449 0.1449 0.9894 -4.8979 7.647)" fill-rule="evenodd" clip-rule="evenodd" fill="#FFE3CC" width="3.8" height="6.2"/>
<path fill-rule="evenodd" clip-rule="evenodd" fill="#FADAC0" d="M39.2,16.7c0,0,7.6,1.4,8.1,5.8c0.5,4.5,0.2,9.1-2,12.7
	c0,0,3.9,0,6.7-4.5c0,0,1.1,1.9,4.3,2.5c0,0,2.1-2.6,2.5-3.1c0,0,0.3,5.1,2.6,7.3c0,0-0.5-5.2,1.4-8.3c0,0,4.5-3.3,3.1-7
	c0,0-1.2-6.2-6.6-4.1c0,0-2.2-4.2-5.4-5.2c-3.2-1-7.7-1.5-10.9,0.5C39.8,15.5,39.2,16.7,39.2,16.7z"/>
<path fill-rule="evenodd" clip-rule="evenodd" fill="#FFE159" d="M39,15.5c0,0,7.8,1.3,8.3,5.7c0.5,4.5,0.5,9.8-1.7,13.4
	c0,0,5-2,6.2-5.5c0,0,2.4,2.7,5.7,3.4c0,0,0.9-1,1.4-1.4c0,0,0.4,5,2.6,7.2c0,0,0.5-5.3,2.4-8.5c0,0,3.3-5.1,1.8-8.7
	c0,0-1.2-6.2-6.6-4.1c0,0-2.2-4.2-5.4-5.2c-3.2-1-7.7-1.5-10.9,0.5C39.6,14.3,39,15.5,39,15.5z"/>
<circle fill-rule="evenodd" clip-rule="evenodd" fill="#469FD6" cx="39.9" cy="21.8" r="1.2"/>
<path fill-rule="evenodd" clip-rule="evenodd" fill="#FFC4E2" d="M44.3,39.5l10.8-1.1c2.4-0.2,4.2,1.9,4.5,4.3L62.3,59
	c0.4,2.4-1.9,4.5-4.3,4.6l-12.9,0.5c-2.4,0.1-4.4-1.9-4.5-4.3l-0.7-15.7C39.8,41.6,41.8,39.7,44.3,39.5z"/>
<circle fill-rule="evenodd" clip-rule="evenodd" fill="#FFE3CC" cx="33.9" cy="25.5" r="1.7"/>
<circle fill-rule="evenodd" clip-rule="evenodd" fill="#FFE3CC" cx="37.3" cy="25.7" r="1.7"/>
<path fill-rule="evenodd" clip-rule="evenodd" fill="#FF7354" d="M31.1,30.1c-1.1-0.1-2.3,0.2-2.9,0.7c0.4,0.7,1.7,1.2,3,1.3
	c0.7-0.4,1.2-1.1,1.5-1.8C32.1,30.2,32.1,30.1,31.1,30.1z"/>
<path fill-rule="evenodd" clip-rule="evenodd" fill="#FF7354" d="M39.9,30.1c1.1-0.1,2.3,0.2,2.9,0.7c-0.4,0.7-1.7,1.2-3,1.3
	c-0.7-0.4-1.2-1.1-1.5-1.8C38.9,30.2,38.8,30.1,39.9,30.1z"/>
<path fill-rule="evenodd" clip-rule="evenodd" fill="#B7A8E3" d="M28,39.1L21.6,38l-3.2,25.3l7.6,0.8c2.4,0.3,4.7-1.5,4.9-3.9L32,44
	C32.1,41.6,30.4,39.5,28,39.1z"/>
<path fill-rule="evenodd" clip-rule="evenodd" fill="#FFB8DD" d="M49.9,39l5.2-0.5c2.4-0.2,4.2,1.9,4.5,4.3L62.3,59
	c0.4,2.4-1.9,4.5-4.3,4.6L53,63.8L49.9,39z"/>
<circle fill-rule="evenodd" clip-rule="evenodd" fill="#FFE3CC" cx="34.9" cy="52.5" r="2.2"/>
<path fill-rule="evenodd" clip-rule="evenodd" fill="#D3C9F0" d="M19.7,40.7h3.4c0.6,0,1.1,0.6,1.1,1.3v6.5l8,1.3
	c0.7,0.1,1.3,0.5,1.3,1.1l0,2.6c0,0.6-0.6,1.1-1.3,1.1C28,54.8,24,54,19.7,54c-0.6,0-1.1-0.6-1.1-1.3V42
	C18.6,41.3,19.1,40.7,19.7,40.7z"/>
<circle fill-rule="evenodd" clip-rule="evenodd" fill="#FFE3CC" cx="37.6" cy="52.7" r="2.2"/>
<path fill-rule="evenodd" clip-rule="evenodd" fill="#FFD6EB" d="M52.8,41.3h-3.4c-0.6,0-1.1,0.6-1.1,1.3v6.5l-8,1.3
	c-0.7,0.1-1.3,0.5-1.3,1.1l0,2.6c0,0.6,0.6,1.1,1.3,1.1c4.2,0.2,8.3-0.7,12.5-0.7c0.6,0,1.1-0.6,1.1-1.3V42.7
	C53.9,41.9,53.4,41.3,52.8,41.3z"/>
</svg>
