<?xml version="1.0" encoding="utf-8"?><svg xmlns="http://www.w3.org/2000/svg" width="75" height="75" viewBox="0 0 75 75"><path fill-rule="evenodd" clip-rule="evenodd" fill="#F7AD71" d="M32 53.5v9.8c0 2-1.2 3.9-3.1 3.9H26c-1.9 0-3.4-1.9-3.4-3.9v-9.8H32z"/><path fill-rule="evenodd" clip-rule="evenodd" fill="#FEC699" d="M45.3 53.5v9.8c0 2-1.2 3.9-3.1 3.9h-2.9c-1.9 0-3.4-1.9-3.4-3.9v-9.8h9.4z"/><path fill-rule="evenodd" clip-rule="evenodd" fill="#F7AD71" d="M58.4 48.6l.1 14.8c0 2-1.2 3.9-3.1 3.9h-2.9c-1.9 0-3.4-1.9-3.4-3.9v-9.8l9.3-5z"/><path fill-rule="evenodd" clip-rule="evenodd" fill="#FEC699" d="M16.7 30.3l35.8-.1c3.3 0 6 2.7 6 6v12c0 3.3-2.7 6-6 6H18.8v9.5c0 1.8-1.2 3.6-3.1 3.6h-2.9c-1.9 0-3.4-1.8-3.4-3.6V17c0-1.8 1.5-3.3 3.4-3.3h.6c1.9 0 3.4 1.5 3.4 3.3l-.1 13.3z"/><path fill-rule="evenodd" clip-rule="evenodd" fill="#FFD2AD" d="M48.9 13.9c-1.6 0-3.2.2-4.6.7-1.9-2.1-5.8-6.2-7.5-6.7-2.2-.7-3.4 2.1-3.4 2.1l-.2 14.6c-.7 1.9-1.1 3.9-1.1 6.1 0 9.3 7.5 16.8 16.8 16.8S65.7 40 65.7 30.7c0-2.2-.4-4.4-1.2-6.3l-.2-14.3c-2-3.8-5-1.2-5-1.2l-6 5.5c-1.4-.3-2.9-.5-4.4-.5z"/><path fill-rule="evenodd" clip-rule="evenodd" fill="#1A8F0D" d="M41.5 30.2c1.8 0 3.2-1.5 3.2-3.2 0-1.8-1.5-3.2-3.2-3.2-1.8 0-3.2 1.5-3.2 3.2 0 1.7 1.5 3.2 3.2 3.2z"/><path fill-rule="evenodd" clip-rule="evenodd" fill="#FCC79C" d="M49 47.4c9.2 0 16.7-7.5 16.7-16.8 0-2.2-.4-4.4-1.2-6.3L64.3 10c-2-3.8-5-1.2-5-1.2l-6 5.5c-1.3-.4-2.8-.6-4.2-.6v33.7z"/><path fill-rule="evenodd" clip-rule="evenodd" fill="#1A8F0D" d="M56.4 30.2c1.8 0 3.2-1.5 3.2-3.2 0-1.8-1.5-3.2-3.2-3.2-1.8 0-3.2 1.5-3.2 3.2-.1 1.7 1.4 3.2 3.2 3.2z"/><path fill-rule="evenodd" clip-rule="evenodd" fill="#F7AD71" d="M21.3 30.2v18.4c0 1.3-1.3 2.2-2.3 2.2-1.3 0-2.3-.9-2.3-2.2V30.2h4.6zm9 0v18.4c0 1.3-1.3 2.2-2.3 2.2-1.3 0-2.3-.9-2.3-2.2V30.2h4.6z"/><path fill-rule="evenodd" clip-rule="evenodd" fill="#FFD6B5" d="M40.2 27.4c.9 0 1.6-.7 1.6-1.6 0-.9-.7-1.6-1.6-1.6-.9 0-1.6.7-1.6 1.6 0 .9.8 1.6 1.6 1.6zm15 .3c1 0 1.8-.8 1.8-1.8s-.8-1.8-1.8-1.8-1.8.8-1.8 1.8.8 1.8 1.8 1.8z"/><path fill-rule="evenodd" clip-rule="evenodd" fill="#D84C2D" d="M36.4 19.4v-4.2s.5-1.6 1.7-1.1 2.6 2.1 2.6 2.1-2.6 1.1-4.3 3.2z"/><path fill-rule="evenodd" clip-rule="evenodd" fill="#C94426" d="M61.3 19.1v-4.2s-.5-1.6-1.7-1.1-2.6 2.1-2.6 2.1 2.6 1.1 4.3 3.2z"/><path fill="#F3775B" d="M41.9 40.3c-.2-.3-.2-.8.2-1.1.3-.2.8-.2 1.1.2 0 0 2.5 3.9 4.6.3l.3-2.9-2.4-2.6s0-.6.3-.8c.4-.1 4-1 6.3.1 0 0 .4.3.1.7-.4.4-1.8 2-2.4 2.6l.1 2.8c.7 2 4.2 1.7 5.1-.2.2-.4.6-.5 1-.4.4.2.5.6.4 1-2.1 3.2-5.1 3.2-7.6.8-4.1 4.6-7.1-.5-7.1-.5z"/><path fill="#D84C2D" d="M48.3 37l-2.5-2.8s0-.6.3-.8c.4-.1 4-1 6.3.1 0 0 .4.3.1.7-.3.3-1.9 2-2.5 2.7-.8.5-1.2.4-1.7.1z"/><path fill-rule="evenodd" clip-rule="evenodd" fill="#D48646" d="M35.6 40.4c4.3 8.2 13.8 9.7 18.8 8.7 1.2-.2 2.9-.8 4-1.5v-3.1c-.9.5-1.9 1.3-4 2-7.8 2.6-14.1-.7-18.8-6.1z"/><path fill-rule="evenodd" clip-rule="evenodd" fill="#F7AD71" d="M40.1 45.7v3c0 1.3-1.3 2.2-2.3 2.2-1.3 0-2.3-.9-2.3-2.2v-8.2l4.6 5.2z"/></svg>