<?xml version="1.0" encoding="utf-8"?>
<!-- Generator: Adobe Illustrator 17.1.0, SVG Export Plug-In . SVG Version: 6.00 Build 0)  -->
<!DOCTYPE svg PUBLIC "-//W3C//DTD SVG 1.1//EN" "http://www.w3.org/Graphics/SVG/1.1/DTD/svg11.dtd">
<svg version="1.1" id="Слой_1" xmlns="http://www.w3.org/2000/svg" xmlns:xlink="http://www.w3.org/1999/xlink" x="0px" y="0px"
	 width="75px" height="75px" viewBox="0 0 75 75" enable-background="new 0 0 75 75" xml:space="preserve">
<path fill-rule="evenodd" clip-rule="evenodd" fill="#E2DBFC" d="M19,39.2l0.1,23.2c0,1.1,0.9,3.3,3.9,3.3s29.3-0.1,29.8-0.1
	c0.5,0,2.9-0.7,2.9-3c0-2.3,0.1-23.4,0.1-23.4H52c-1.5,0-3.8-1-4-4.2c-0.1-1.1-0.1-3-0.2-5.1H27.1l0,4.9c0,1.8-1.9,4.4-4.5,4.4
	C20.1,39.2,19,39.2,19,39.2z"/>
<path fill-rule="evenodd" clip-rule="evenodd" fill="#D8CFFC" d="M37.9,65.7c7.4,0,14.7,0,14.9,0c0.5,0,2.9-0.7,2.9-3
	c0-2.3,0.1-23.4,0.1-23.4H52c-1.5,0-3.8-1-4-4.2c-0.1-1.1-0.1-3-0.2-5.1h-10V65.7z"/>
<path fill="#B2A6DE" d="M4.2,30.2c0,0,3.7,2,6.7-0.4c2.1-1.6,4.2-3,6.2-3.7c2-0.7,4-0.6,5.7,0c3.2,1.2,5.1,3.2,5.1,3.2l-0.1,2.8
	c0,0-3.4-2.5-6-3.5c-1.1-0.4-2.5-0.5-3.9,0c-1.8,0.6-3.5,1.9-5.4,3.3c-4.4,3.4-9.6,0.6-9.6,0.6L4.2,30.2z"/>
<path fill-rule="evenodd" clip-rule="evenodd" fill="#B2A6DE" d="M37,67.4c8.3,0,16.8-0.1,17.1,0c0.5,0,3.2-0.8,3.2-3.4
	c0-2.6,0.1-26.8,0.1-26.8h-4.1c-1.6,0-4.2-1.2-4.4-4.9c-0.2-3.7-0.3-15.4-0.3-16c0-0.6-1.5-8.8-11.2-8.8c-0.1,0-0.2,0-0.3,0v3.4
	c0.1,0,0.2,0,0.3,0c7.8,0,8.1,6.9,8.2,7.6c0,0,0.1,11.9,0.3,14.9c0.3,5,3.5,6.7,8.2,6.7c0,0-0.1,18.9-0.1,21c0,2.1-1.7,2.9-2.5,2.7
	c0,0-7.2,0-14.4,0V67.4z M16.9,37.2L17,63.7c0,1.3,1,3.7,4.3,3.7c1.5,0,8.5,0,15.7,0v-3.5c-6.3,0-12.5,0-13.7,0
	c-2.6,0-3.2-1.8-3.2-2.5L20,40.1c5.1,0.2,8.8-3.5,8.8-6.7l-0.1-14.9c0-0.8,0.8-7.4,8.2-7.6V7.5c-9.4,0.2-11.2,8.2-11.2,8.8l0.1,15.8
	c0,2.1-2.1,5.1-4.9,5.1C18.1,37.2,16.9,37.2,16.9,37.2z"/>
<path fill-rule="evenodd" clip-rule="evenodd" fill="#73D15C" d="M27.7,42.2h19.4v12.4c0,1.7-1.2,3.1-2.6,3.1H30.2
	c-1.4,0-2.6-1.4-2.6-3.1V42.2z"/>
<rect x="27.7" y="28" fill-rule="evenodd" clip-rule="evenodd" fill="#B2A6DE" width="19.4" height="3.6"/>
<path fill="#B2A6DE" d="M70.8,30c0,0-3.7,2-6.7-0.4c-2.1-1.6-4.2-3-6.2-3.7c-2-0.7-4-0.6-5.7,0c-3.2,1.2-5.1,3.2-5.1,3.2l0.1,2.8
	c0,0,3.4-2.5,6-3.5c1.1-0.4,2.5-0.5,3.9,0c1.8,0.6,3.5,1.9,5.4,3.3c4.4,3.4,9.6,0.6,9.6,0.6L70.8,30z"/>
<path fill-rule="evenodd" clip-rule="evenodd" fill="#61C448" d="M37.9,42.2h9.2v12.4c0,1.7-1.2,3.1-2.6,3.1h-6.6V42.2z"/>
<g>
	<defs>
		<path id="SVGID_1_" d="M27.6,42.4H47v12.4c0,1.7-1.2,3.1-2.6,3.1H30.2c-1.4,0-2.6-1.4-2.6-3.1V42.4z"/>
	</defs>
	<clipPath id="SVGID_2_">
		<use xlink:href="#SVGID_1_"  overflow="visible"/>
	</clipPath>
	<g clip-path="url(#SVGID_2_)">
		<circle opacity="0.91" fill="#FFE988" cx="30.5" cy="44.9" r="1.8"/>
		<circle opacity="0.91" fill="#FFE988" cx="31.3" cy="49.5" r="1.2"/>
		<circle opacity="0.91" fill="#FFE988" cx="38.2" cy="44.5" r="1.3"/>
		<circle opacity="0.91" fill="#FFE988" cx="30.9" cy="55.5" r="1.8"/>
		<circle opacity="0.91" fill="#FFE988" cx="37.6" cy="49.7" r="1.8"/>
		<circle opacity="0.91" fill="#FFE988" cx="37.4" cy="55" r="1.3"/>
		<circle opacity="0.91" fill="#FFE988" cx="44.3" cy="55.2" r="1.8"/>
		<circle opacity="0.91" fill="#FFE988" cx="43.7" cy="49.9" r="1.1"/>
		<circle opacity="0.91" fill="#FFE988" cx="44.7" cy="44.9" r="1.8"/>
	</g>
</g>
<rect x="27.6" y="42.1" fill-rule="evenodd" clip-rule="evenodd" fill="#AA9DD9" width="19.5" height="1.4"/>
</svg>
