<?xml version="1.0" encoding="utf-8"?><svg xmlns="http://www.w3.org/2000/svg" width="75" height="75" viewBox="0 0 75 75"><path fill-rule="evenodd" clip-rule="evenodd" fill="#D1EDFF" d="M24.3 22.9h26.4c3.5 0 6.3 2.8 6.3 6.3v28.2c0 3.5-2.8 6.3-6.3 6.3H24.3c-3.5 0-6.3-2.8-6.3-6.3V29.2c0-3.5 2.8-6.3 6.3-6.3z"/><path fill-rule="evenodd" clip-rule="evenodd" fill="#BDE6FF" d="M38 22.9h12.7c3.5 0 6.3 2.8 6.3 6.3v28.2c0 3.5-2.8 6.3-6.3 6.3H38V22.9z"/><path fill-rule="evenodd" clip-rule="evenodd" fill="#fff" d="M37.9 57.8c7.8 0 14.2-6.4 14.2-14.2 0-7.8-6.4-14.2-14.2-14.2-7.8 0-14.2 6.4-14.2 14.2 0 7.8 6.4 14.2 14.2 14.2z"/><path fill-rule="evenodd" clip-rule="evenodd" fill="#FAFAFA" d="M38 57.8c7.8 0 14.2-6.4 14.2-14.2 0-7.9-6.4-14.2-14.2-14.2v28.4z"/><path fill="#FA5732" d="M35.6 41.1v-7c0-1 1.1-1.6 2.3-1.6 1.2 0 2.3.5 2.3 1.6v7H47c1 0 1.6 1.1 1.6 2.3 0 1.2-.5 2.2-1.6 2.2h-6.8v7c0 1-1.1 1.6-2.3 1.6-1.2 0-2.3-.5-2.3-1.6v-7h-6.7c-1 0-1.6-1.1-1.6-2.2 0-1.2.5-2.3 1.6-2.3h6.7z"/><path fill-rule="evenodd" clip-rule="evenodd" fill="#FFC4E2" d="M22.7 11.3h29.4c1.8 0 1.7.5 1.7 1v8.4c0 .6.3 1-1.5 1H22.7c-1.8 0-1.9-.5-1.9-1v-8.4c0-.5.1-1 1.9-1z"/><path fill-rule="evenodd" clip-rule="evenodd" fill="#FFB8DD" d="M38.1 11.3h14c1.8 0 1.7.5 1.7 1v8.4c0 .6.3 1-1.5 1H38.1V11.3z"/></svg>