<?xml version="1.0" encoding="utf-8"?>
<!-- Generator: Adobe Illustrator 17.1.0, SVG Export Plug-In . SVG Version: 6.00 Build 0)  -->
<!DOCTYPE svg PUBLIC "-//W3C//DTD SVG 1.1//EN" "http://www.w3.org/Graphics/SVG/1.1/DTD/svg11.dtd">
<svg version="1.1" id="Слой_1" xmlns="http://www.w3.org/2000/svg" xmlns:xlink="http://www.w3.org/1999/xlink" x="0px" y="0px"
	 width="75px" height="75px" viewBox="0 0 75 75" enable-background="new 0 0 75 75" xml:space="preserve">
<path fill-rule="evenodd" clip-rule="evenodd" fill="#FFF1E3" d="M37.3,34.9c8.4,0,15.2-6.8,15.2-15.2c0-8.4-6.8-15.2-15.2-15.2
	c-8.4,0-15.2,6.8-15.2,15.2C22.1,28.1,28.9,34.9,37.3,34.9z"/>
<path fill-rule="evenodd" clip-rule="evenodd" fill="#FFE7CF" d="M37.4,34.9c8.3-0.1,15.1-6.9,15.1-15.2c0-8.4-6.7-15.1-15.1-15.2
	V34.9z"/>
<circle fill="#469FD6" cx="44" cy="17.6" r="1.8"/>
<path fill="#469FD6" d="M32.4,17.6c0,1-0.7,1.8-1.7,1.8c-1,0-1.8-0.7-1.8-1.7c0-1,0.7-1.8,1.7-1.8C31.5,15.9,32.4,16.6,32.4,17.6z"
	/>
<path fill-rule="evenodd" clip-rule="evenodd" fill="#FFF1E3" d="M24.1,26.8c2.1,0,3.9-1.7,3.9-3.9c0-2.1-1.7-3.9-3.9-3.9
	s-3.9,1.7-3.9,3.9C20.2,25.1,22,26.8,24.1,26.8z"/>
<path fill-rule="evenodd" clip-rule="evenodd" fill="#FFE7CF" d="M50.8,26.2c2.1,0,3.9-1.7,3.9-3.9c0-2.1-1.7-3.9-3.9-3.9
	c-2.1,0-3.9,1.7-3.9,3.9C46.9,24.5,48.6,26.2,50.8,26.2z"/>
<path fill="#F5AE82" d="M36.7,5.1c0-0.3,0.3-0.6,0.6-0.6c0.3,0,0.6,0.3,0.6,0.6l0.1,5.6c0,0.3-0.3,0.6-0.6,0.6
	c-0.3,0-0.6-0.3-0.6-0.6L36.7,5.1z"/>
<path fill="#F5AE82" d="M39,5.3c0-0.3,0.3-0.6,0.6-0.6c0.3,0,0.6,0.3,0.6,0.6l0.1,4.4c0,0.3-0.3,0.6-0.6,0.6c-0.3,0-0.6-0.3-0.6-0.6
	L39,5.3z"/>
<path fill="#F5AE82" d="M34.3,5.2c0-0.3,0.3-0.6,0.6-0.6c0.3,0,0.6,0.3,0.6,0.6l0.1,4.4c0,0.3-0.3,0.6-0.6,0.6
	c-0.3,0-0.6-0.3-0.6-0.6L34.3,5.2z"/>
<path fill="#F26748" d="M31.1,22c0.8,0.4,4,1.9,6.2,1.9c2.3,0,4.9-1.3,5.8-1.9c-0.5,1.7-3.7,3.1-5.8,3.1
	C35.3,25.1,32.5,24.3,31.1,22z"/>
<path fill-rule="evenodd" clip-rule="evenodd" fill="#A5E89D" d="M37.5,70.5c13.2,0,23.9-10,23.9-22.2c0-12.2-10.7-22.2-23.9-22.2
	c-13.2,0-23.9,10-23.9,22.2C13.6,60.6,24.3,70.5,37.5,70.5z"/>
<path fill-rule="evenodd" clip-rule="evenodd" fill="#9CDE95" d="M37.5,70.5c13.2,0,23.9-9.9,23.9-22.2c0-12.2-10.7-22.2-23.9-22.2
	V70.5z"/>
<path fill="#D1F5CC" d="M14.7,44.5c-0.5,0-0.9-0.4-0.9-0.9c0-0.5,0.4-0.9,0.9-0.9c0.1,0,19-0.2,28,26.2c0.2,0.5-0.1,1-0.6,1.1
	c-0.5,0.2-1-0.1-1.1-0.6C32.4,44.2,14.7,44.5,14.7,44.5z"/>
<path fill="#D1F5CC" d="M60.8,44.6c-5.2,0.1-16.8-1.1-22.8,16.6c-0.2,0.5,0,1.1,0.5,1.3c0.5,0.2,0.9,0.2,1.1-0.3
	c5.3-16.7,16.7-15.4,21.6-15.7C61.5,46.1,61.7,45.2,60.8,44.6z"/>
<path fill="#D1F5CC" d="M22.9,32.4c-0.5,0-0.9-0.4-0.9-0.9c0-0.5,0.4-0.9,0.9-0.9c1.2,1.1,17.9-4.9,24.1,18.9c0.2,0.5-0.2,0.9-0.7,1
	c-0.5,0.2-0.8-0.1-0.9-0.6C38.4,27.8,23.7,33.6,22.9,32.4z"/>
<path fill="#D1F5CC" d="M55,33.2c-5.8,0.8-7,0-13.1,6.1c-0.3,0.4-0.3,1,0.1,1.3c0.4,0.3,1,0.3,1.3-0.1c6-5.5,7.3-4.9,12.9-5.3
	C56.7,34.9,56,33.4,55,33.2z"/>
</svg>
