<?xml version="1.0" encoding="utf-8"?><svg xmlns="http://www.w3.org/2000/svg" width="75" height="75" viewBox="0 0 75 75"><path opacity=".91" fill-rule="evenodd" clip-rule="evenodd" fill="#FCFCFC" d="M51.2 29L42.7 9.5c-2.5-5.7-9-7.2-11.7.1l-7.3 19.9c-2 5.4-2.8 13.4.1 19l9.1 17.9c2.8 5.6 7.9 5.1 10.3-.2l8.3-18.3c2.5-5.3 2.2-13.2-.3-18.9z"/><path opacity=".91" fill-rule="evenodd" clip-rule="evenodd" fill="#BDB3E3" d="M21.9 38c-.5 4.7-.2 6.4 1.9 10.4L33 66.3c2.8 5.6 7.9 5.1 10.3-.2l8.3-18.3c1.7-3.7 2-5.2 1.6-9.9l-31.3.1z"/><path opacity=".91" fill-rule="evenodd" clip-rule="evenodd" fill="#F2F2F2" d="M37.3 4.7c2 0 3.8 1.4 5 4.2l8.3 18.3c1.7 3.7 3 6.5 2.7 11.2H38.1l-.8-33.7z"/><path opacity=".91" fill-rule="evenodd" clip-rule="evenodd" fill="#fff" d="M37.3 35.3c2.5 0 4.6-2 4.6-4.5s-2-4.5-4.6-4.5-4.6 2-4.6 4.5 2.1 4.5 4.6 4.5zm0-12c2.5 0 4.6-2 4.6-4.5s-2-4.5-4.6-4.5-4.6 2-4.6 4.5c0 2.4 2.1 4.5 4.6 4.5z"/><path opacity=".91" fill-rule="evenodd" clip-rule="evenodd" fill="#B2A6DE" d="M37.9 70.3c2 0 4.3-1.4 5.5-4.2l8.2-18.3c1.7-3.7 2-5.2 1.6-9.9H38l-.1 32.4z"/><path opacity=".91" fill-rule="evenodd" clip-rule="evenodd" fill="#FF91C8" d="M33.1 17.8h8.4c.2 0 .3.1.3.3v1.6c0 .1-.1.3-.3.3h-8.4c-.2 0-.3-.1-.3-.3v-1.6c0-.2.1-.3.3-.3zm0 12.3h8.4c.2 0 .3.1.3.3V32c0 .1-.1.3-.3.3h-8.4c-.2 0-.3-.1-.3-.3v-1.6c0-.2.1-.3.3-.3z"/></svg>