<?xml version="1.0" encoding="utf-8"?><svg xmlns="http://www.w3.org/2000/svg" width="75" height="75" viewBox="0 0 75 75"><path fill="#61C448" d="M40.4 16.8v-4.5c0-1.4-1.2-2.6-2.6-2.6-1.4 0-2.6 1.2-2.6 2.6v4.5c.8-.1 1.7-.1 2.5-.1.9 0 1.8.1 2.7.1z"/><path fill="#54B83B" d="M58.2 37.9c-.5-.5-.5-1.4 0-1.9l5.6-5.6c.2-.2.6-.4.9-.4h5.6c.7 0 1.3 1.3 1.3 2.1 0 .7-.6 2.1-1.4 2.1h-5.1L60 39.5c-.3.3-.6.4-.9.4-.3 0-.6-1.7-.9-2z"/><path fill="#73D15C" d="M16.8 37.9c.5-.5.5-1.4 0-1.9l-5.6-5.6c-.2-.2-.6-.4-.9-.4H4.5c-.7 0-1.3 1.3-1.3 2.1 0 .7.6 2.1 1.4 2.1h5.1l5.3 5.2c.3.3.6.4.9.4.3.1.6-1.6.9-1.9z"/><path fill="#54B83B" d="M40.4 16.8v-4.5c0-1.4-1.2-2.6-2.6-2.6 0 0-.1 0-.1 0v7c.9 0 1.8.1 2.7.1z"/><path fill="#FF8063" d="M15.7 24.3h44.1c0-4.6-9.9-8.2-22.1-8.2-12.2 0-22 3.7-22 8.2z"/><path fill="#FC6A49" d="M37.7 24.1l22.1.2c0-4.5-10.1-8.2-22.1-8.2v8z"/><path fill="#FCD3CA" d="M25.7 19.4c-.1 1.6 1.2 2.9 2.7 3 1.6.1 2.9-1.2 3-2.7.1-1.4-.9-2.6-2.2-2.9-.7.1-1.4.2-2.1.3-.9.5-1.4 1.3-1.4 2.3z"/><circle fill="#FCB4A4" cx="40.6" cy="19.7" r="2.9"/><path fill="#FCBAAB" d="M52.4 22c1.5-.1 2.6-1.3 2.7-2.8-1.4-.7-3.1-1.3-5.1-1.8-.4.5-.6 1.2-.6 1.9 0 1.6 1.4 2.8 3 2.7z"/><path fill="#FC6A49" d="M15.7 57.4c0 4.4 3.5 7.9 7.9 7.9H52c4.4 0 7.9-3.5 7.9-7.9v-29H15.7v29z"/><path fill="#FF8063" d="M15.7 57.4c0 4.4 3.5 7.9 7.9 7.9h13.8l.4-37-22.1.1v29z"/><circle fill="#FCD3CA" cx="20.8" cy="33.4" r="2.9"/><circle fill="#FCBAAB" cx="33.8" cy="33.4" r="2.9"/><circle fill="#FCB4A4" cx="46.9" cy="33.4" r="2.9"/><circle fill="#FCD3CA" cx="27.5" cy="41.9" r="2.9"/><circle fill="#FCBAAB" cx="40.6" cy="41.9" r="2.9"/><circle fill="#FCBAAB" cx="53.6" cy="41.9" r="2.9"/><circle fill="#FCD3CA" cx="20.8" cy="50.8" r="2.9"/><circle fill="#FCBAAB" cx="33.8" cy="50.8" r="2.9"/><circle fill="#FCBAAB" cx="46.9" cy="50.8" r="2.9"/><circle fill="#FCD3CA" cx="27.5" cy="59.4" r="2.9"/><circle fill="#FCBAAB" cx="40.6" cy="59.4" r="2.9"/><circle fill="#FCBAAB" cx="53.6" cy="59.4" r="2.9"/><path fill-rule="evenodd" clip-rule="evenodd" fill="#61C448" d="M14.8 23.9h45.5c.8 0 1.4 1.2 1.4 2.6v.1c0 1.4-.6 2.6-1.4 2.6H14.8c-.8 0-1.4-1.2-1.4-2.6v-.1c.1-1.4.7-2.6 1.4-2.6z"/><path fill="#FCBAAB" d="M56.3 33.7c.6 1.4 2.1 2.1 3.5 1.6v-5.4c-.6-.2-1.3-.2-2 .1-1.4.6-2.1 2.3-1.5 3.7zm0 18.2c.6 1.4 2.1 2.1 3.5 1.6v-5.4c-.6-.2-1.3-.2-2 .1-1.4.6-2.1 2.3-1.5 3.7z"/><path fill="#FCD3CA" d="M19.2 43c-.6 1.4-2.1 2.1-3.5 1.6v-5.4c.6-.2 1.3-.2 2 .1 1.5.6 2.1 2.3 1.5 3.7zm0 17.3c-.5 1-1.3 1.4-2.1 1.6-1.2-1.7-1.5-3.4-1.4-5.4.6-.2 1.3-.2 2 .1 1.4.5 2.1 2.2 1.5 3.7zm-.3-37.6c-.9-.2-1.6-.7-1.9-1.2 1.3-1.4 2.9-2.2 4.8-2.9.2.5.3.9.3 1.5-.2 1.5-1.6 2.7-3.2 2.6z"/><path fill-rule="evenodd" clip-rule="evenodd" fill="#54B83B" d="M37.7 23.9h22.6c.8 0 1.4 1.2 1.4 2.6v.1c0 1.4-.6 2.6-1.4 2.6H37.7v-5.3z"/></svg>