<?xml version="1.0" encoding="utf-8"?>
<!-- Generator: Adobe Illustrator 17.1.0, SVG Export Plug-In . SVG Version: 6.00 Build 0)  -->
<!DOCTYPE svg PUBLIC "-//W3C//DTD SVG 1.1//EN" "http://www.w3.org/Graphics/SVG/1.1/DTD/svg11.dtd">
<svg version="1.1" id="Слой_2" xmlns="http://www.w3.org/2000/svg" xmlns:xlink="http://www.w3.org/1999/xlink" x="0px" y="0px"
	 width="75px" height="75px" viewBox="0 0 75 75" enable-background="new 0 0 75 75" xml:space="preserve">
<polygon fill-rule="evenodd" clip-rule="evenodd" fill="#FFB76B" points="23.8,35.3 22.8,60.2 52.8,60.8 48.8,35.3 "/>
<path fill-rule="evenodd" clip-rule="evenodd" fill="#FF8D73" d="M12.5,62.3c1.9-1.6,27-13.1,50.2,0.4c-0.7,0.4-7.6,4.3-24.9,4.3
	C20.5,67,12.4,62.2,12.5,62.3z"/>
<path fill-rule="evenodd" clip-rule="evenodd" fill="#B4DEF7" d="M14.6,41.7c3.1,3.9,6.4,0,6.4,0l0.2-6.9l16-19.4L14.5,33.8
	L14.6,41.7z"/>
<path fill-rule="evenodd" clip-rule="evenodd" fill="#FFEC96" d="M21.1,41.6c3.1,3.9,6.3,0.5,6.6-0.1l0-6.1l9.5-20L21.1,34.8
	L21.1,41.6z"/>
<path fill-rule="evenodd" clip-rule="evenodd" fill="#C7BCE8" d="M27.7,41.5c3.1,3.9,6.6-0.2,6.6-0.2l-0.1-5.5l3-20.2l-9.4,19.9
	L27.7,41.5z"/>
<path fill-rule="evenodd" clip-rule="evenodd" fill="#9EDB97" d="M34.3,41.3c3.1,3.9,6.4,0.1,6.4,0.1l0-5.8l-3.6-20.5l-3,20.6
	L34.3,41.3z"/>
<path fill-rule="evenodd" clip-rule="evenodd" fill="#FFEC96" d="M40.7,41.5c3.1,3.9,6.1,0.7,6.5,0.2l0-7.9l-10-18.3l3.5,20.2
	L40.7,41.5z"/>
<path fill-rule="evenodd" clip-rule="evenodd" fill="#C7BCE8" d="M47.3,41.6c3.1,3.9,5.7,1.1,6.2,0.4l0.1-7.4L37.1,15.3l10,19.8
	L47.3,41.6z"/>
<path fill-rule="evenodd" clip-rule="evenodd" fill="#B4DEF7" d="M59.9,41.7c-3.1,3.9-6.4,0.3-6.4,0.3l-0.1-7.4L37.2,15.3l22.8,18.5
	L59.9,41.7z"/>
<polygon fill-rule="evenodd" clip-rule="evenodd" fill="#FF7354" points="37.7,12.9 37.7,7.9 48.3,7.9 45.4,10.4 48.3,12.9 "/>
<path fill-rule="evenodd" clip-rule="evenodd" fill="#FF7354" d="M15.9,36.5l15.4,0.3l-1.4,29.8c0,0-15.3-1.3-19.8-5.3l5.6-22
	L15.9,36.5z"/>
<path fill="#7F7F7F" d="M37.7,7.4l0.1,8.5c-0.3-0.2-0.7-0.2-1,0l-0.1-8.5C37,7.2,37.3,7.2,37.7,7.4z"/>
<path fill-rule="evenodd" clip-rule="evenodd" fill="#FF7354" d="M65.1,61.7l-6.2-22.4l-0.3-2.8l-15.4,0.3l1.4,30.1
	C44.7,66.9,60.6,65.7,65.1,61.7"/>
<path fill-rule="evenodd" clip-rule="evenodd" fill="#CC5D52" d="M27.8,43.7V42l0,0c0-0.5,0.1-1.1,0.1-1.6
	c5.3,0.3,10.6,0.4,15.9,0.2c5.3-0.3,10.6-0.6,15.9-0.8c0,0.4,0.1,0.8,0.2,1.2c0.1,0.4,0.2,0.8,0.2,1.2c-3,3-6.4,0.7-6.4,0.7
	c0,0,0-0.1,0-0.1c0,0,0,0.1,0,0.1c-0.5,0.6-3.1,3.4-6.2,0.6c0,0,0,0.1,0,0.1c-0.5,0.5-3.4,4.2-6.6,0.6c0,0,0,0,0-0.1
	c-0.2,0.3-3.5,4.2-6.5,0c0-0.5,0-1,0-1.5c0-0.5,0-1,0-1.5c0,0.5,0,1,0,1.5c0,0.5,0,1,0,1.5C34.5,44,30.8,48,27.8,43.7L27.8,43.7z
	 M27.8,41.9c0-0.5,0.1-1,0.1-1.5l-0.1,0V41.9z M21.3,41.3c0.1-0.4,0.1-0.9,0.1-1.3l-0.1,0V41.3c0.1-0.5,0.1-0.9,0.1-1.3
	c2.1,0.1,4.3,0.3,6.5,0.4v1.5l0,0.1c0,0.5-0.1,1.1-0.1,1.6c-0.3,0.5-3.6,3-6.5-0.6V41.3L21.3,41.3z M27.8,42c0,0.5-0.1,1-0.1,1.6
	c0,0,0.1,0.1,0.1,0.1V42z M14.7,42.4c2.9,3.2,6.4,0.4,6.4,0.4c0-0.5,0.1-0.9,0.1-1.4l0-0.1V43c0-0.1-0.1-0.1-0.1-0.2
	c0-0.5,0.1-0.9,0.1-1.4l0-0.1V40c-2.1-0.1-4.2-0.2-6.3-0.2c0,0.4-0.1,0.9-0.2,1.3C14.8,41.5,14.7,42,14.7,42.4z"/>
<path fill-rule="evenodd" clip-rule="evenodd" fill="#9ED3F2" d="M13.7,41.6c3,3.9,7.4,0.7,7.5,0.5l0-7.2l-6.7-1.1L13.7,41.6z"/>
<path fill-rule="evenodd" clip-rule="evenodd" fill="#FFE159" d="M21.2,42.2c3,3.9,6.5,0.7,6.5,0.7l0-7.3l-6.5-0.7L21.2,42.2z"/>
<path fill-rule="evenodd" clip-rule="evenodd" fill="#77C46E" d="M34.2,43.1c3,3.9,6.7,0,6.7,0l-0.1-7.5l-6.5,0L34.2,43.1z"/>
<path fill-rule="evenodd" clip-rule="evenodd" fill="#FFE159" d="M40.9,43.1c3,3.9,6.2-0.4,6.3-0.6l0-7.3l-6.4,0.4L40.9,43.1z"/>
<path fill-rule="evenodd" clip-rule="evenodd" fill="#B0A0DE" d="M27.8,42.9c3,3.9,6.4,0.4,6.5,0.2l-0.1-7.4l-6.4-0.2L27.8,42.9z"/>
<path fill-rule="evenodd" clip-rule="evenodd" fill="#B0A0DE" d="M47.2,42.4c3,3.9,6.5-0.5,6.5-0.5l-0.3-7.3l-6.3,0.5L47.2,42.4z"/>
<path fill-rule="evenodd" clip-rule="evenodd" fill="#9ED3F2" d="M53.7,41.7c3,3.9,7.4,0,7.6-0.4l-1.4-7.6l-6.4,0.9L53.7,41.7z"/>
<polygon fill-rule="evenodd" clip-rule="evenodd" fill="#FFEC96" points="23.5,48.2 25.4,47.2 24.6,49.3 26.5,50.7 24.3,50.9 
	23.5,53 22.4,51 20.2,50.8 21.8,49.4 21.5,47.1 "/>
<polygon fill-rule="evenodd" clip-rule="evenodd" fill="#FFEC96" points="16.5,57.3 18.1,56.4 17.4,58.2 19.1,59.4 17.2,59.6 
	16.5,61.4 15.5,59.7 13.6,59.5 15,58.3 14.8,56.3 "/>
<polygon fill-rule="evenodd" clip-rule="evenodd" fill="#FFEC96" points="51.5,47.3 53.1,46.4 52.5,48.2 54.1,49.4 52.2,49.6 
	51.6,51.4 50.6,49.7 48.7,49.5 50.1,48.3 49.8,46.3 "/>
<polygon fill-rule="evenodd" clip-rule="evenodd" fill="#FFEC96" points="56.7,56.1 58.8,55 57.9,57.3 60.1,58.8 57.6,59.1 
	56.8,61.3 55.6,59.2 53.1,59 54.9,57.4 54.6,54.9 "/>
</svg>
