<?xml version="1.0" encoding="utf-8"?>
<!-- Generator: Adobe Illustrator 17.1.0, SVG Export Plug-In . SVG Version: 6.00 Build 0)  -->
<!DOCTYPE svg PUBLIC "-//W3C//DTD SVG 1.1//EN" "http://www.w3.org/Graphics/SVG/1.1/DTD/svg11.dtd">
<svg version="1.1" id="Слой_1" xmlns="http://www.w3.org/2000/svg" xmlns:xlink="http://www.w3.org/1999/xlink" x="0px" y="0px"
	 width="75px" height="75px" viewBox="0 0 75 75" enable-background="new 0 0 75 75" xml:space="preserve">
<path fill-rule="evenodd" clip-rule="evenodd" fill="#BDB3E3" d="M38.8,68c5.3,0,9.4,0.5,9.4,1.1c0,0.6-4.5,1.1-10.1,1.1
	c-5.6,0-10.1-0.5-10.1-1.1c0-0.6,3.9-1,9-1.1l-0.5-15.8l-0.9-5.8L34,46.4l-0.3-4c-4.3-0.1-7.8-0.1-7.8-0.1s0.8-7.6,6.9-10.3
	l-1.2-7.1c0,0-4.2-0.4-3.2-5.2c-0.8-0.5-1.8-1-3-1.3c0,0,0.8-6.8,7-5.2c0.4,0.1,0.8,0.2,1.2,0.3c1-0.4,2.1-1.5,2-4.3l-2.5-0.1
	c0,0-0.1-2.3,3.4-2.9c0,0,1.2-2.7,2.7-0.1c0,0,3.4,0.5,3.4,2.9l-2.5,0.1c0,0-0.3,3.3,1.7,4.4c0.7-0.2,0.8-0.2,1.5-0.5
	c0.7-0.3,6.7-0.9,6.8,5.4c-1.6,0.3-2.4,0.8-3.4,1.5c-0.4,3.2-1.2,4.4-3.3,5.3c-0.6,2.4-0.7,5-0.9,6.9c6.7,2.1,7.2,8.6,7.1,10.3
	c-0.8,0.2-3.8,0.2-7.3,0.2l-0.7,4.2l-1.2,0l-1,5.7L38.8,68z"/>
<path fill-rule="evenodd" clip-rule="evenodd" fill="#AB9FD6" d="M38.8,68c5.3,0,9.4,0.5,9.4,1.1c0,0.6-4.5,1.1-10.1,1.1h-0.1V4.8
	c0.4,0,0.8,0.3,1.3,1.1c0,0,3.4,0.5,3.4,2.9l-2.5,0.1c0,0-0.3,3.3,1.7,4.4c0.7-0.2,1.2-0.4,1.5-0.5c1.2-0.5,6.8-1,6.9,5.3
	c-1.6,0.3-2.4,0.8-3.4,1.6c-0.4,3.2-1.2,4.4-3.3,5.3c-0.6,2.4-0.7,5-0.9,6.9c6.7,2.1,7.2,8.6,7.1,10.3c-0.8,0.2-3.8,0.2-7.3,0.2
	l-0.7,4.2l-1.2,0l-1,5.7L38.8,68z"/>
<g>
	<path opacity="0.76" fill-rule="evenodd" clip-rule="evenodd" fill="#FFDEEF" d="M10.5,49.3c0,0,6.6-14.7,22.2-17.4l-1.1-7.2
		c0,0-3.4-0.2-3.4-4l3.1-3.3c0,0,1.6-1.4,3-0.1c1.4,1.3,3.5,2.7,3.5,2.7l2.5-2.6c0,0,1.6-1.5,3,0c1.4,1.5,3.3,3.4,3.3,3.4
		s-0.4,3.4-3.2,4l-0.8,6.9c15.7,2.6,21.5,16.4,21.8,17.3c0,0-13.8,6.6-27.3,6C23.8,54.7,14.4,51.4,10.5,49.3z"/>
	<path opacity="0.76" fill-rule="evenodd" clip-rule="evenodd" fill="#FFC7E4" d="M37.9,20l2.3-2.4c0,0,1.6-1.7,2.9-0.4
		c1.3,1.3,3.5,3.7,3.5,3.7s-0.4,3.4-3.2,4l-0.7,6.9c15.7,2.6,21.5,16.4,21.8,17.3c0,0-13.2,6.3-26.4,6.1L37.9,20z"/>
</g>
<ellipse fill-rule="evenodd" clip-rule="evenodd" fill="#F3F3F3" cx="34.2" cy="13.6" rx="0.7" ry="0.7"/>
<ellipse fill-rule="evenodd" clip-rule="evenodd" fill="#F3F3F3" cx="35.4" cy="14.2" rx="0.7" ry="0.7"/>
<ellipse fill-rule="evenodd" clip-rule="evenodd" fill="#F3F3F3" cx="36.9" cy="14.6" rx="0.7" ry="0.7"/>
<ellipse fill-rule="evenodd" clip-rule="evenodd" fill="#F3F3F3" cx="38.6" cy="14.7" rx="0.7" ry="0.7"/>
<ellipse fill-rule="evenodd" clip-rule="evenodd" fill="#F3F3F3" cx="40.1" cy="14.2" rx="0.7" ry="0.7"/>
<ellipse fill-rule="evenodd" clip-rule="evenodd" fill="#F3F3F3" cx="41.3" cy="13.5" rx="0.7" ry="0.7"/>
<path fill-rule="evenodd" clip-rule="evenodd" fill="#FFFFFF" d="M37.8,23.8c1.1,0,2.1-0.9,2.1-2.1c0-1.1-0.9-2.1-2.1-2.1
	c-1.1,0-2.1,0.9-2.1,2.1C35.7,22.8,36.7,23.8,37.8,23.8z"/>
<path fill-rule="evenodd" clip-rule="evenodd" fill="#F3F3F3" d="M37.9,23.8c1.1,0,2-0.9,2-2.1s-0.9-2-2-2.1V23.8z"/>
</svg>
