<svg baseProfile="tiny" xmlns="http://www.w3.org/2000/svg" preserveAspectRatio="xMinYMin meet" viewBox="0 0 600 280" width="600" height="280"><path fill="rgb( 254, 198, 153 )" d="M35.446 81.771h38.509v25.586h-38.509v-25.586z"/><path fill="rgb( 254, 214, 181 )" d="M55.17 22.918c23.675 0 33.37 9.827 33.37 30.417 0 20.592-9.695 37.676-33.37 37.676-23.675 0-34.727-16.692-34.727-37.282 0-20.59 11.052-30.811 34.727-30.811z"/><path fill="rgb( 118, 119, 121 )" d="M84.058 70.23v-14.935c0-7.416-6.911-12.137-15.435-12.137h-27.785c-8.526 0-15.437 4.721-15.437 12.137v14.066c-3.417-3.27-5.177-9.962-5.684-23.078-.523-13.538 8.66-32.735 34.756-32.735 26.098 0 33.758 7.149 34.805 30.708.739 16.611-.66 23.392-5.22 25.974z"/><path fill="rgb( 164, 147, 205 )" d="M21.394 99.138h67.672c15.572 0 19.745 12.075 19.745 19.637v32.706c0 4.045-3.768 7.32-8.416 7.32h-91.543c-4.648 0-8.417-3.275-8.417-7.32v-29.89c0-13.193 11.861-22.453 20.959-22.453z"/><path fill="rgb( 255, 255, 255 )" d="M25.283 124.415h4.903v34.114h-4.903v-34.114zM79.215 124.415h4.904v34.114h-4.904v-34.114z"/><path opacity=".2" fill="rgb( 255, 255, 255 )" d="M54.701.748h54.351v158.265h-54.351v-158.265z"/><path fill="rgb( 91, 39, 39 )" d="M40.608 72.681c-7.65 0-13.851-4.853-13.851-10.839 0-5.987 6.201-10.839 13.851-10.839 7.649 0 13.85 4.852 13.85 10.839 0 5.986-6.201 10.839-13.85 10.839zm.029-18.188c-5.787 0-10.478 3.35-10.478 7.483 0 4.132 4.691 7.482 10.478 7.482s10.479-3.35 10.479-7.482c0-4.133-4.692-7.483-10.479-7.483z"/><path fill="rgb( 95, 49, 49 )" d="M19.858 55.216l8.46 3.173.118 6.11-8.695-5.523.117-3.76zM88.141 56.216l-8.459 3.173-.118 6.11 8.695-5.523-.118-3.76zM89.141 56.216l-8.459 3.173-.118 6.11 8.695-5.523-.118-3.76zM53.11 59.916v5.053s2.467-2.938 4.7-.47c-.47-1.763-.588-3.173-.235-4.465-2.363-1.558-4.465-.118-4.465-.118z"/><path fill="rgb( 91, 39, 39 )" d="M69.608 72.681c-7.65 0-13.851-4.853-13.851-10.839 0-5.987 6.201-10.839 13.851-10.839 7.649 0 13.85 4.852 13.85 10.839 0 5.986-6.201 10.839-13.85 10.839zm.029-18.188c-5.787 0-10.478 3.35-10.478 7.483 0 4.132 4.691 7.482 10.478 7.482s10.479-3.35 10.479-7.482c0-4.133-4.692-7.483-10.479-7.483z"/><g transform="translate(140)"><path fill="#EFFDEB" d="M217.8 102.9c-1 15.9-6.4 65.2-53.9 122.3-16.7-.5-78.6-10.2-124.1-38.7 4.5-26.4 21.1-114.2 21.1-114.2s48.6 8.8 69.2-71.8c18.4 13.4 28.3 41.2 3.2 76.8 25.9 3.7 74.6 8.3 84.5 25.6zm-217 91.4l26.2-137.6 35.1 6.9-26.4 137.3-34.9-6.6z"/></g><g transform="translate(360)"><path fill="#FDF1D7" d="M188.8 154.4l-26.1-146.9 37.3-6.7 26.4 147.1-37.6 6.5zm-2.2-9.1s-51.8 9.8-41.6 97.9c-23.4-6.3-43.9-30.2-32.4-75.3-27.1 6.2-77.5 20.2-93.9 6.7-5.1-16.2-18.4-67.4 7.1-142.4 16.8-5.9 82.2-19.8 138.4-8.8 5.5 28 22.4 121.9 22.4 121.9z"/></g></svg>