<svg baseProfile="tiny" xmlns="http://www.w3.org/2000/svg" preserveAspectRatio="xMinYMin meet" viewBox="0 0 800 200" width="800" height="200"><path fill="rgb( 100, 185, 235 )" d="M.004 34.153c0 1.024.827 1.84 1.836 1.84h31.314c1.01 0 1.84-.816 1.84-1.84V18.05H.004v16.103zM14.9 20.817c0-.45.506-.81 1.138-.81h3.85c.626 0 1.133.36 1.133.81v2.318c0 .455-.503.818-1.13.818h-3.85c-.63 0-1.14-.363-1.14-.818v-2.318zM33.153 8.06h-6.988C25.95 3.836 22.47.94 18.185.94h-.73C13.18.942 9.7 3.837 9.48 8.06H1.84C.83 8.06.004 8.88.004 9.894v7.08h34.99v-7.08c0-1.016-.83-1.836-1.84-1.836zm-21.376 0c.223-3.21 2.417-5.185 5.678-5.19h.73c3.266.004 5.644 1.978 5.864 5.187H11.774zm219.877 25.892c-2.353.078-24.945.004-24.945.004s-5.888-.16-5.26-6.985c.706-3.29 3.53-15.922 3.53-15.922l28.79-.013 3.45 16.252s.393 6.433-5.57 6.668zm2.824-24.94h-30.123c-.433 0-.784-.352-.784-.785V7.83c0-.432.355-.866.788-.866H218.7l2.848-3.542c-.078-.243-.13-.497-.13-.765 0-1.386 1.123-2.51 2.51-2.51 1.385 0 2.51 1.124 2.51 2.51 0 1.386-1.125 2.51-2.51 2.51-.13 0-.256-.02-.38-.038l-1.36 1.83h12.29c.433 0 .784.435.784.868v.396c0 .433-.35.784-.784.784zm-16.395-3.244l-1.255.024-.705-.704c-.19.046-.385.077-.59.077-1.386 0-2.51-1.124-2.51-2.51 0-1.386 1.124-2.576 2.51-2.576 1.387 0 2.51 1.19 2.51 2.574 0 .155-.018.305-.045.452l1.183 1.35-1.094 1.31zm201.802 23.58v1.39l-.865.203c-.626.145-1.226.287-1.807.433v-2.03l-17.153-12.21h36.977l-17.152 12.212zm4.654 15.72h-4.658v-10.04l-.225.05c-.537.125-1.46.34-2.448.61v9.38h-4.65c-.62 0-1.13.5-1.13 1.12 0 .625.51 1.127 1.13 1.127h11.98c.62 0 1.123-.502 1.123-1.128 0-.623-.503-1.124-1.125-1.124zm-3.95-1.54v-2.87c1.13.14 1.52.134 2.402.134.787 0 1.425.636 1.425 1.425 0 .785-.64 1.42-1.426 1.42-.32 0-.84.06-2.404-.11zm16.973-37.176c-4.19-3.656-14.5-5.793-19.807-1.833-.915.352-1.837 1.064-2.567 2.066-1.497 2.042-1.613 4.495-.264 5.483 1.346.984 3.65.13 5.145-1.916 1.05-1.435 1.403-3.065 1.06-4.255 4.435-1.643 11.645.055 14.56 2.6 2.736 2.386 4.175 5.946 3.756 9.3-.36 2.856-3.41 6.237-6.28 8.322-3.76 2.73-8.65 4.183-12.937 5.244-.113.03-.233.056-.346.084-.277.07-.558.13-.865.2-.627.148-1.227.29-1.808.44-3.563.9-6.202 1.91-6.74 3.987-.376 1.438-.114 2.79.748 3.913 1.27 1.636 2.896 2.364 5.21 2.86v-2.92c-1.65-.408-2.295-.833-2.95-1.68-.33-.423-.406-.873-.256-1.45.236-.626 2.21-1.283 3.99-1.767.987-.266 1.912-.482 2.448-.605.076-.02.147-.036.226-.05.367-.087.716-.17 1.027-.248 4.557-1.127 9.773-2.686 13.933-5.704 3.264-2.375 6.933-6.318 7.427-10.276.532-4.274-1.27-8.793-4.707-11.795zM637.198 20.91L621.002 5.047l-16.2 15.86-4.43.002L621 .38l8.083 7.773V3.08h4.86v10.61l7.684 7.222h-4.432zm-1.286 1.357V40.99h-29.928V22.267l15.018-14.093 14.91 14.093zm-21.027 10.648c1.53 1.312 4.053 2.685 6.117 4.928 2.063-2.243 4.585-3.616 6.114-4.928 8.264-7.07-.935-17.705-6.114-9.162-5.182-8.543-14.38 2.093-6.117 9.162z"/></svg>