<svg baseProfile="tiny" xmlns="http://www.w3.org/2000/svg" preserveAspectRatio="xMinYMin meet" viewBox="0 0 220 60" width="220" height="60"><path fill="rgb( 100, 185, 235 )" d="M.004 34.153c0 1.024.827 1.841 1.836 1.841h31.314c1.011 0 1.839-.817 1.839-1.841v-16.104h-34.989v16.104zm14.895-13.336c0-.45.507-.811 1.139-.811h3.85c.626 0 1.133.361 1.133.811v2.318c0 .455-.507.818-1.133.818h-3.85c-.632 0-1.139-.363-1.139-.818v-2.318zm18.255-12.758h-6.988c-.217-4.222-3.696-7.117-7.982-7.117h-.729c-4.277 0-7.756 2.895-7.976 7.117h-7.639c-1.009 0-1.836.82-1.836 1.836v7.079h34.989v-7.079c0-1.016-.828-1.836-1.839-1.836zm-21.376 0c.222-3.209 2.416-5.183 5.677-5.187h.729c3.267.004 5.645 1.978 5.865 5.187h-12.271z"/><g transform="translate(50)"><path fill="rgb( 100, 185, 235 )" d="M31.654 33.952c-2.353.078-24.945.004-24.945.004s-5.884-.161-5.256-6.985c.706-3.295 3.53-15.926 3.53-15.926l28.789-.013 3.451 16.252s.393 6.433-5.569 6.668zm2.824-24.941h-30.123c-.433 0-.784-.351-.784-.784v-.396c0-.433.351-.867.784-.867h14.345l2.848-3.542c-.078-.243-.131-.497-.131-.765 0-1.386 1.124-2.51 2.51-2.51 1.386 0 2.51 1.124 2.51 2.51 0 1.386-1.124 2.51-2.51 2.51l-.38-.038-1.36 1.835h12.291c.433 0 .784.434.784.867v.396c0 .433-.351.784-.784.784zm-16.395-3.242l-1.255.025-.705-.704c-.19.046-.385.077-.59.077-1.386 0-2.51-1.124-2.51-2.51 0-1.386 1.124-2.576 2.51-2.576 1.387 0 2.511 1.19 2.511 2.576 0 .155-.019.305-.046.452l1.183 1.352-1.098 1.308z"/></g><g transform="translate(100)"><path fill="rgb( 100, 185, 235 )" d="M19.885 29.347v1.392l-.865.205c-.626.144-1.226.286-1.807.432v-2.029l-17.152-12.214h36.976l-17.152 12.214zm4.654 15.72h-4.654v-10.039l-.225.051c-.536.124-1.461.339-2.447.607v9.381h-4.654c-.618 0-1.128.501-1.128 1.123 0 .626.51 1.128 1.128 1.128h11.98c.622 0 1.125-.502 1.125-1.128 0-.622-.503-1.123-1.125-1.123zm-3.949-1.538v-2.868c1.131.14 1.521.134 2.405.134.787 0 1.425.636 1.425 1.425 0 .786-.638 1.42-1.425 1.42-.322 0-.839.062-2.405-.111zm16.975-37.174c-4.189-3.658-14.502-5.795-19.808-1.836-.915.354-1.837 1.066-2.567 2.068-1.496 2.042-1.612 4.495-.263 5.483 1.346.985 3.65.131 5.145-1.915 1.05-1.435 1.402-3.065 1.061-4.255 4.433-1.642 11.643.056 14.559 2.6 2.735 2.387 4.174 5.947 3.755 9.3-.36 2.857-3.41 6.238-6.281 8.323-3.759 2.731-8.649 4.183-12.936 5.244l-.345.084-.865.2c-.626.145-1.226.289-1.807.436-3.563.899-6.202 1.912-6.741 3.988-.375 1.438-.113 2.789.749 3.913 1.267 1.637 2.893 2.365 5.209 2.861v-2.921c-1.649-.407-2.297-.832-2.953-1.681-.33-.421-.405-.871-.255-1.448.236-.626 2.211-1.283 3.991-1.767.986-.266 1.911-.482 2.447-.605l.225-.051 1.027-.247c4.557-1.126 9.773-2.685 13.933-5.703 3.264-2.375 6.933-6.318 7.427-10.276.532-4.274-1.27-8.793-4.707-11.795z"/></g><g transform="translate(160)"><path fill="rgb( 100, 185, 235 )" d="M37.198 20.909l-16.196-15.861-16.199 15.861-4.432.001 20.631-20.529 8.083 7.772v-5.072h4.859v10.607l7.685 7.222-4.431-.001zm-1.286 1.358v18.723h-29.928v-18.723l15.018-14.093 14.91 14.093zm-21.027 10.648c1.53 1.312 4.053 2.685 6.117 4.928 2.063-2.243 4.585-3.616 6.114-4.928 8.264-7.069-.935-17.705-6.114-9.162-5.182-8.543-14.38 2.093-6.117 9.162z"/></g></svg>