<svg baseProfile="tiny" xmlns="http://www.w3.org/2000/svg" preserveAspectRatio="xMinYMin meet" viewBox="0 0 800 200" width="800" height="200"><path fill="rgb( 100, 185, 235 )" d="M.004 34.153c0 1.024.827 1.84 1.836 1.84h31.314c1.01 0 1.84-.816 1.84-1.84V18.05H.004v16.1zM14.9 20.817c0-.45.506-.81 1.138-.81h3.85c.626 0 1.133.36 1.133.81v2.318c0 .455-.5.818-1.13.818h-3.85c-.63 0-1.14-.363-1.14-.818v-2.318zM33.153 8.06h-6.988C25.95 3.836 22.47.94 18.185.94h-.73C13.18.942 9.7 3.837 9.48 8.06H1.84C.83 8.06.004 8.88.004 9.895v7.08h34.99v-7.08c0-1.016-.83-1.836-1.84-1.836zm-21.376 0c.223-3.21 2.417-5.185 5.678-5.19h.73c3.266.004 5.644 1.978 5.864 5.187H11.77z"/><g transform="translate(200)"><path fill="rgb( 100, 185, 235 )" d="M31.654 33.952c-2.353.078-24.945.004-24.945.004s-5.89-.16-5.26-6.985c.703-3.29 3.53-15.92 3.53-15.92l28.79-.012 3.45 16.252s.39 6.432-5.57 6.667zm2.824-24.94H4.355c-.433 0-.784-.352-.784-.785V7.83c0-.43.358-.86.79-.86h14.346l2.85-3.543c-.08-.243-.13-.497-.13-.765 0-1.386 1.122-2.51 2.51-2.51 1.384 0 2.51 1.124 2.51 2.51 0 1.386-1.126 2.51-2.51 2.51-.13 0-.257-.02-.38-.04l-1.36 1.836h12.29c.432 0 .783.434.783.867v.398c0 .434-.35.785-.785.785zM18.083 5.768l-1.255.024-.705-.704c-.19.046-.385.077-.59.077-1.386 0-2.51-1.124-2.51-2.51 0-1.386 1.124-2.576 2.51-2.576 1.387 0 2.51 1.19 2.51 2.57 0 .156-.018.306-.045.453l1.183 1.35-1.09 1.31z"/></g><g transform="translate(400)"><path fill="rgb( 100, 185, 235 )" d="M19.885 29.347v1.392c-.277.06-.558.13-.865.2-.626.142-1.226.284-1.807.43v-2.03L.06 17.132h36.977L19.885 29.35zm4.654 15.72h-4.66v-10.04l-.226.05c-.537.126-1.46.34-2.448.61v9.374H12.55c-.62 0-1.13.5-1.13 1.124 0 .625.51 1.127 1.13 1.127h11.98c.62 0 1.125-.5 1.125-1.127 0-.623-.504-1.124-1.126-1.124zm-3.95-1.538v-2.87c1.13.14 1.52.13 2.4.13.786 0 1.424.635 1.424 1.424 0 .785-.64 1.42-1.426 1.42-.32 0-.84.06-2.405-.11zM37.56 6.35C33.37 2.697 23.06.56 17.755 4.52c-.915.353-1.837 1.065-2.567 2.067-1.496 2.042-1.612 4.495-.263 5.483 1.346.985 3.65.13 5.145-1.915C21.12 8.72 21.472 7.09 21.13 5.9c4.434-1.642 11.644.056 14.56 2.6 2.735 2.387 4.174 5.947 3.755 9.3-.36 2.857-3.41 6.238-6.28 8.323-3.76 2.73-8.65 4.183-12.937 5.244-.112.03-.232.056-.345.084-.277.07-.558.13-.865.2-.626.15-1.226.29-1.807.44-3.56.9-6.2 1.91-6.74 3.99-.374 1.44-.112 2.79.75 3.914 1.27 1.637 2.898 2.365 5.21 2.86v-2.92c-1.65-.407-2.293-.832-2.95-1.68-.33-.422-.404-.872-.254-1.45.236-.625 2.21-1.282 3.99-1.766.987-.266 1.912-.482 2.448-.605.076-.02.147-.036.226-.05.365-.087.714-.17 1.025-.25 4.557-1.125 9.773-2.684 13.933-5.702 3.262-2.374 6.93-6.317 7.425-10.275.532-4.273-1.27-8.792-4.707-11.794z"/></g><g transform="translate(600)"><path fill="rgb( 100, 185, 235 )" d="M37.198 20.91L21.002 5.047l-16.2 15.86-4.43.002L21 .38l8.083 7.773V3.08h4.86v10.61l7.684 7.22h-4.432zm-1.286 1.357V40.99H5.984V22.267L21.002 8.174l14.91 14.093zM14.885 32.915c1.53 1.312 4.053 2.685 6.117 4.928 2.063-2.243 4.585-3.616 6.114-4.928 8.264-7.07-.935-17.705-6.114-9.162-5.182-8.543-14.38 2.093-6.117 9.162z"/></g></svg>