<svg baseProfile="tiny" xmlns="http://www.w3.org/2000/svg" preserveAspectRatio="xMinYMin meet" viewBox="0 0 800 200" width="800" height="200"><path fill="rgb( 100, 185, 235 )" d="M.004 34.153c0 1.024.827 1.84 1.836 1.84h31.314c1.01 0 1.84-.816 1.84-1.84V18.05H.004v16.103zM14.9 20.817c0-.45.506-.81 1.138-.81h3.85c.626 0 1.133.36 1.133.81v2.318c0 .455-.505.818-1.13.818h-3.85c-.633 0-1.14-.363-1.14-.818v-2.318zM33.153 8.06h-6.988C25.95 3.836 22.47.94 18.185.94h-.73C13.18.942 9.7 3.837 9.48 8.06H1.84C.83 8.06.004 8.88.004 9.894v7.08h34.99v-7.08c0-1.016-.83-1.836-1.84-1.836zm-21.376 0c.223-3.21 2.417-5.185 5.678-5.19h.73c3.266.004 5.644 1.978 5.864 5.187H11.776z"/><g transform="translate(200)"><path fill="rgb( 100, 185, 235 )" d="M31.654 33.952c-2.353.078-24.945.004-24.945.004s-5.886-.16-5.258-6.985c.706-3.293 3.53-15.924 3.53-15.924l28.79-.013 3.45 16.252s.393 6.433-5.57 6.668zm2.824-24.94H4.355c-.433 0-.784-.352-.784-.785V7.83c0-.432.353-.866.786-.866H18.7l2.848-3.542c-.078-.243-.13-.497-.13-.765 0-1.386 1.123-2.51 2.51-2.51 1.385 0 2.51 1.124 2.51 2.51 0 1.386-1.125 2.51-2.51 2.51-.13 0-.256-.02-.38-.038l-1.36 1.833h12.29c.433 0 .784.434.784.867v.397c0 .433-.35.784-.784.784zM18.083 5.768l-1.255.024-.705-.704c-.19.046-.385.077-.59.077-1.386 0-2.51-1.124-2.51-2.51 0-1.386 1.124-2.576 2.51-2.576 1.387 0 2.51 1.19 2.51 2.576 0 .155-.018.305-.045.452l1.183 1.35-1.096 1.31z"/></g><g transform="translate(400)"><path fill="rgb( 100, 185, 235 )" d="M19.885 29.347v1.392l-.865.203c-.626.144-1.226.286-1.807.432v-2.03L.06 17.135h36.977L19.885 29.346zm4.654 15.72h-4.656v-10.04l-.225.05c-.537.126-1.46.34-2.448.61v9.38H12.56c-.62 0-1.13.5-1.13 1.122 0 .625.51 1.127 1.13 1.127h11.98c.62 0 1.124-.502 1.124-1.128 0-.623-.503-1.124-1.125-1.124zm-3.95-1.538v-2.87c1.13.14 1.52.134 2.404.134.787 0 1.425.636 1.425 1.425 0 .785-.64 1.42-1.426 1.42-.322 0-.84.06-2.405-.11zM37.564 6.353C33.375 2.697 23.063.56 17.757 4.52c-.915.353-1.837 1.065-2.567 2.067-1.496 2.042-1.612 4.495-.263 5.483 1.346.985 3.65.13 5.145-1.915 1.05-1.435 1.402-3.065 1.06-4.255 4.434-1.642 11.644.056 14.56 2.6 2.735 2.387 4.174 5.947 3.755 9.3-.36 2.857-3.41 6.238-6.28 8.323-3.76 2.73-8.65 4.183-12.937 5.244-.112.03-.232.056-.345.084-.277.068-.558.13-.865.2-.626.147-1.226.29-1.807.438-3.563.9-6.202 1.912-6.74 3.988-.376 1.438-.114 2.79.748 3.913 1.27 1.636 2.895 2.364 5.21 2.86v-2.92c-1.65-.408-2.296-.833-2.952-1.68-.33-.423-.405-.873-.255-1.45.236-.626 2.21-1.283 3.99-1.767.987-.266 1.912-.482 2.448-.605.076-.02.147-.036.226-.05.367-.087.716-.17 1.027-.248 4.557-1.127 9.773-2.686 13.933-5.704 3.264-2.375 6.933-6.318 7.427-10.276.532-4.274-1.27-8.793-4.707-11.795z"/></g><g transform="translate(600)"><path fill="rgb( 100, 185, 235 )" d="M37.198 20.91L21.002 5.047l-16.2 15.86-4.43.002L21 .38l8.083 7.773V3.08h4.86v10.61l7.684 7.222h-4.432zm-1.286 1.357V40.99H5.984V22.267L21.002 8.174l14.91 14.093zM14.885 32.915c1.53 1.312 4.053 2.685 6.117 4.928 2.063-2.243 4.585-3.616 6.114-4.928 8.264-7.07-.935-17.705-6.114-9.162-5.182-8.543-14.38 2.093-6.117 9.162z"/></g></svg>