<svg baseProfile="tiny" xmlns="http://www.w3.org/2000/svg" preserveAspectRatio="xMinYMin meet" viewBox="0 0 300 150" width="300" height="150"><path fill="rgb( 250, 138, 15 )" d="M29.43.774c15.722 0 28.467 12.745 28.467 28.468 0 15.722-12.745 28.467-28.467 28.467C13.707 57.71.962 44.962.962 29.24.962 13.52 13.707.774 29.43.774z"/><path fill="rgb( 255, 255, 255 )" d="M38.5 34.744l.067.108s-1.98 1.356-5.21 2.058l5.166 4.723c.11.085.21.178.305.28l.03.026h-.003c.402.444.654 1.027.673 1.672.04 1.436-1.09 2.634-2.526 2.675-.94.027-1.78-.45-2.258-1.186l-4.552-4.15-5.098 5.127-.037-.037c-.438.38-1.005.617-1.63.636-1.435.04-2.633-1.09-2.674-2.526-.027-.948.456-1.79 1.2-2.268l4.615-4.805c-1.545-.26-3.19-.737-4.903-1.522l.024-.07c-1.056-.31-1.84-1.267-1.87-2.424-.043-1.434 1.09-2.63 2.524-2.672.69-.02 1.324.23 1.802.656 1.89.794 6.774 2.317 11.457-.602.425-.34.96-.548 1.546-.565 1.435-.04 2.633 1.09 2.674 2.526.028 1-.51 1.885-1.326 2.344zm-8.585-4.926c-4.94.14-9.06-3.752-9.202-8.692-.14-4.94 3.75-9.06 8.69-9.202 4.94-.14 9.062 3.75 9.203 8.69.14 4.942-3.75 9.062-8.69 9.204z"/><path fill="rgb( 250, 138, 15 )" d="M29.53 17.382c-1.94.056-3.227 1.668-3.172 3.61.056 1.94 1.675 3.47 3.616 3.414 1.94-.056 3.47-1.675 3.415-3.616-.058-1.94-1.677-3.47-3.618-3.415l-.243.007z"/><g transform="translate(150)"><path fill="rgb( 224, 224, 224 )" d="M28.95.696c15.818 0 28.64 12.823 28.64 28.64 0 15.818-12.822 28.642-28.64 28.642-15.818 0-28.64-12.824-28.64-28.64C.31 13.518 13.13.695 28.95.695z"/><path fill="rgb( 255, 255, 255 )" d="M38.336 29.043c-.798-.86-1.86-1.43-3.188-1.71v-.115c.923-.385 1.647-.986 2.17-1.804.525-.817.787-1.75.787-2.798 0-.904-.19-1.703-.57-2.395-.38-.69-.954-1.243-1.723-1.657-.712-.385-1.474-.637-2.287-.757s-2.008-.18-3.585-.18h-7.588v21.48h8.598c1.49 0 2.72-.135 3.686-.404.966-.268 1.854-.72 2.662-1.355.682-.53 1.226-1.197 1.63-2.005.404-.808.606-1.746.606-2.813 0-1.463-.4-2.625-1.198-3.485zm-5.958-4.105c-.163.356-.46.635-.894.837-.395.183-.777.284-1.147.303-.37.02-1.017.03-1.94.03h-.68v-4.545h.377c.96 0 1.685.007 2.17.02.486.016.907.1 1.263.254.375.163.65.428.83.793.177.366.266.72.266 1.068 0 .47-.08.885-.245 1.24zm1.262 8.88c-.226.41-.584.72-1.074.93-.558.24-1.106.37-1.645.39-.537.02-1.51.03-2.912.03h-.29v-5.382h.997c.962 0 1.73.007 2.3.02.573.016 1.023.085 1.35.21.538.193.942.476 1.212.852.27.375.404.894.404 1.558 0 .52-.113.983-.34 1.392z"/></g></svg>