<svg baseProfile="tiny" xmlns="http://www.w3.org/2000/svg" preserveAspectRatio="xMinYMin meet" viewBox="0 0 3600 200" width="3600" height="200"><path fill-rule="evenodd" clip-rule="evenodd" fill="#EE5F20" d="M58.445 28.84C55.07 23.165 41.113 2.15 41.113 2.15c-1.38 5.523-11.35 17.487-14.11 21.32-2.762 3.835-7.363 14.726-4.142 22.395 3.225 7.67 11.2 11.81 16.415 11.964 5.215.15 9.203-.46 15.798-6.29 6.597-5.83 6.75-17.028 3.376-22.7zM39.822 51.874C27.03 49.138 27.77 35.128 27.77 35.128c.152-1.533 3.833-1.84 3.987.153.307 9.82 8.436 13.04 9.663 13.655 1.795 1.09.466 3.648-1.598 2.942z"/><circle fill-rule="evenodd" clip-rule="evenodd" fill="#C9CACA" cx="39.823" cy="35.829" r="15.925" transform="translate(200)"/><circle fill-rule="evenodd" clip-rule="evenodd" fill="#fff" cx="39.831" cy="35.478" r="4.263" transform="translate(200)"/><path fill-rule="evenodd" clip-rule="evenodd" fill="#CE8033" d="M222.256 35.79c-5.942-2.03-8.678-6.957-8.678-6.957s.156 8.99.313 11.65c2.19 2.422 8.447 5.94 12.98 7.74-2.19-2.112-4.22-8.992-4.61-12.432zm34.71.55c-.39 5.706-2.11 8.755-4.846 11.96 9.303-2.11 13.603-8.365 13.603-8.365s.156-7.818.234-11.57c-2.658 4.534-8.99 7.974-8.99 7.974z"/><path fill-rule="evenodd" clip-rule="evenodd" fill="#A36120" d="M240.673 12.58c-23.454-.235-27.095 13.126-27.095 13.126 1.485 3.752 2.893 4.3 3.987 5.003 1.33-.86 4.847-3.44 8.052-4.695 3.753-4.77 7.427-7.64 14.776-7.72 7.35-.077 12.04 4.046 13.603 7.33 2.736 1.173 6.332 3.596 7.74 5.08.625-.624 3.518-3.126 4.143-5.472-.47-1.484-7.23-12.656-25.21-12.656z"/><path fill-rule="evenodd" clip-rule="evenodd" fill="#5EA5E6" d="M473.593 20.977c-.772-1.787-2.003-2.077-2.674-2.093-2.29-.06-5.09 2.87-7.47 7.808-.83 1.716-1.548 3.55-2.136 5.42-1.985-2.227-4.875-3.635-8.096-3.635-3.886 0-7.286 2.04-9.207 5.11-1.294-1.98-3.315-3.267-5.586-3.267-2.26 0-4.272 1.273-5.572 3.24-1.916-3.05-5.315-5.082-9.184-5.082-1.95 0-3.78.52-5.364 1.422.358-.917.74-1.81 1.15-2.66 2.25-4.683 4.583-6.806 5.815-6.806 0 0 .01 0 .02.003.16.002.65.01 1.084 1.017.193.45.712.657 1.163.464.454-.193.657-.714.463-1.162-.767-1.787-2.003-2.077-2.673-2.09-2.28-.05-5.09 2.866-7.47 7.805-.836 1.74-1.562 3.6-2.15 5.5-1.787 1.935-2.876 4.52-2.876 7.356 0 5.993 4.854 10.845 10.844 10.845s10.842-4.852 10.842-10.845c0-1.124-.165-2.208-.487-3.228.78-2.102 2.457-3.558 4.4-3.558 1.957 0 3.65 1.483 4.42 3.61-.304 1.004-.473 2.074-.473 3.174 0 5.993 4.855 10.845 10.846 10.845 5.984 0 10.844-4.853 10.844-10.846 0-1.96-.524-3.8-1.433-5.386.62-2.238 1.45-4.477 2.417-6.476 2.25-4.682 4.587-6.805 5.813-6.805h.022c.162.002.653.016 1.086 1.022.194.447.717.654 1.163.463.446-.192.658-.716.465-1.162zm-52.86 26.413c-3.4-1.205-5.836-4.448-5.836-8.266 0-4.397 3.24-8.042 7.47-8.67-3.18 1.763-5.324 5.144-5.324 9.03 0 3.175 1.433 6.015 3.69 7.907zm29.618.112c-3.4-1.206-5.83-4.45-5.83-8.265 0-4.4 3.242-8.044 7.465-8.67-3.17 1.76-5.32 5.143-5.32 9.027 0 3.178 1.433 6.015 3.69 7.908z"/><path fill-rule="evenodd" clip-rule="evenodd" fill="#61B6E6" d="M639.5 2.75c-14.773 0-26.75 11.976-26.75 26.75s11.977 26.75 26.75 26.75c14.774 0 26.75-11.976 26.75-26.75S654.274 2.75 639.5 2.75zm.153 50.672c-13.047 0-23.625-10.7-23.625-23.9s10.577-23.897 23.625-23.897c13.047 0 23.625 10.7 23.625 23.9S652.7 53.42 639.653 53.42z"/><path fill-rule="evenodd" clip-rule="evenodd" fill="#9A5E49" d="M636.246 19.444l-7.8-6.754-1.332 1.617 7.515 6.564 1.613-1.423zm10.368-8.18l-2.473-1.238-5.513 10.75 2.473 1.426 5.516-10.94zm-2.188 15.886l9.037-9.42-1.807-1.9-8.94 9.226 1.71 2.092zm7.61 1.14l7.61-3.044-.95-2.854-7.8 2.95 1.14 2.948zm-14.744 4.66l-12.746 3.995 1.14 2.188 12.274-4.183-.666-2zm-3.995 7.135l5.612 7.325 2.09-1.425-5.328-7.23-2.378 1.332zm14.173-4.755l-6.278 4.185 1.427 2.283 6.655-4.376-1.808-2.093zm-.856-4.947l7.99 7.42 1.807-2.094-8.08-7.138-1.713 1.808zm-11.89-4.66l9.037 8.75 1.716-2.092-9.322-8.272-1.426 1.617zm-4.66 4.946l2.377-.29-2.28-9.32-2.38.57 2.286 9.037zm-4.854-5.33l-6.182 2.852.76 1.807 6.28-2.95-.857-1.71zm19.788 18.17l3.234 4.945 1.428-1.332-3.33-4.47-1.33.855z"/><path fill-rule="evenodd" clip-rule="evenodd" fill="#F07AB0" d="M857.832 19.022c-.125-3.748-2.75-8.745-5.997-11.494-3.248-2.748-7.245-3.872-10.62-4.372-3.372-.5-6.995.125-10.618 1.5-3.623 1.373-6.496 3.997-8.995 7.37-2.5 3.373-2.5 9.87-2.5 12.618 0 2.75-3.997 7.996-4.746 9.12-.75 1.124-.5 3.248-.5 3.248s1.25.624 4.747.5c-1.498 16.74 11.49 12.868 11.49 12.868l.007 6.247h20.975l.002-16.99s4.882-7.122 6.006-9.995c1.124-2.874.874-6.87.75-10.62z"/><circle fill-rule="evenodd" clip-rule="evenodd" fill="#FFFBFE" cx="25.02" cy="28.897" r="2.509" transform="translate(800)"/><path fill-rule="evenodd" clip-rule="evenodd" fill="#fff" d="M853.085 13.9c-.75-2.25-3.873-4.497-7.246-5.997s-6-1.5-10.498-1-9.37 4.623-11.494 7.747c-2.124 3.123-.625 6.122 1.624 7.746 2.25 1.624 4.497.875 7.87.875 9.246-.5 6.267 10.298 6.267 10.298l6.102.076s.75-1.248 1.75-3.247c.998-2 3.747-4.497 5.62-6.746 1.875-2.25.75-7.5 0-9.747zm-13.163 21.825h6.02v1.84h-6.02zm.098 4.01h5.925v1.913h-5.925zm0 4h5.925v1.913h-5.925zm0 4h5.925v1.913h-5.925zm0 4h5.925v1.913h-5.925zm0 4h5.925v1.913h-5.925z"/><path fill-rule="evenodd" clip-rule="evenodd" fill="#76D3FF" d="M1069.643 45.706c-.52-12.317-5.21-23.392-11.395-34.01-6.422-11.042-10.753.203-12.51 8.46-1.784-.996-3.27-2.16-3.568-3.484-.05-.232-.14-.443-.24-.65-.02-.682-.052-1.364-.085-2.032-.093-1.804-.185-3.508-.037-5.06.143-1.525-.976-2.88-2.505-3.023-1.53-.13-2.877.98-3.02 2.504-.183 1.96-.08 3.946.013 5.865.055 1.04.102 2.02.11 2.965-.5 1.04-1.7 1.97-3.126 2.785-1.775-8.242-6.1-19.31-12.486-8.327-6.18 10.618-10.87 21.693-11.384 34.01-.437 2.067-.325 3.602.185 4.716.26.557.61 1.014 1.05 1.363 8.69-.802 17.566 1.42 24.74-6.77.186-.755.312-1.56.39-2.398.522-5.627-1.142-12.81-1.588-16.805 1.882-.907 3.74-2.01 5.205-3.437 1.533 1.49 3.494 2.622 5.455 3.555-.465 4.022-2.09 11.113-1.576 16.683.08.838.21 1.643.39 2.398 7.18 8.19 16.06 5.967 24.74 6.77.436-.35.8-.806 1.05-1.363.517-1.11.623-2.646.196-4.713z"/><path fill="#4BC3FE" d="M1228.9 56.1c-.3-1.1-7.6-26.3-7.6-39.8 0-4.3 1.2-6.8 2.8-8.3 2.8-2.7 5.6-4.1 9-4.1 2.4 0 4.9.7 7.6 2.1 2.8-1.5 5.5-2.2 7.9-2.2 3 0 5.6 1.2 7.3 3.4 1.7 2.1 2.6 5.2 2.6 8.8 0 .6 0 1.3-.1 2-.8 10.1-6.4 36.5-6.7 37.6-.3 1.2-1.5 2.1-2.8 2.1s-2.1-.5-2.6-1.3c-.4-.6-.6-1.5-1.1-4.4-.5-2.8-1.1-6.7-2.2-9.9-1-3-2.2-4.7-3.2-4.7-.9 0-1.9 1.7-2.7 4.5-.8 3.1-1.3 7-1.6 9.9-.4 3.3-.5 4.4-1 5.1l-.3.3c-.5.4-1.6.7-2.3.7-1.2 0-2.7-.6-3-1.8z"/><path fill="#fff" d="M1231.7 55.2zm17-.5zm0 0zm-17.1 0c-1.4-4-7.6-26.5-7.6-38.3-.1-3.6.8-4.9 1.7-6.1 1.9-2.5 4.5-3.3 7.1-3.3 2.1 0 4.3.7 6.8 2.1.2.1.5.2.8.2s.5-.1.8-.2c2.6-1.4 5.1-2.2 7.1-2.2 2.1 0 3.7.7 4.9 2.2 1.2 1.6 1.9 3.9 1.9 6.8 0 .6 0 1.1-.1 1.7-.7 9.1-5.6 32.6-6.5 36.6-.1-.7-.3-1.8-.5-2.8-1.2-6.9-2.9-17.2-8.4-17.2-3.9 0-5.3 5.1-5.7 6.8-.9 3.2-2.1 13-2.3 13.7z"/><path fill="#4BC3FE" d="M1226.2 15.3s.7-4.5 5.2-6 5 1.5 2.3 2-5.1 4.6-5.5 6.3-2.9 1.5-2-2.3z"/><path fill-rule="evenodd" clip-rule="evenodd" fill="#CE8033" d="M1425.94 22.558c2.11-1.703 3.408-5.03.893-7.788-2.515-2.758-6.003-2.434-8.518-.73 0 0-18.495 13.142-.325 26.608 2.434 2.19 6.49.568 8.274-1.055 1.785-1.622 2.677-4.624.81-6.733-1.863-2.11-6-6.652-1.133-10.302zm35.883-8.518c-2.515-1.703-6.003-2.028-8.517.73-2.515 2.758-1.217 6.084.892 7.788 4.867 3.65.73 8.193-1.136 10.302-1.866 2.11-.973 5.11.81 6.733 1.786 1.622 5.842 3.245 8.275 1.055 18.172-13.466-.324-26.608-.324-26.608z"/><path fill-rule="evenodd" clip-rule="evenodd" fill="#99CDFD" d="M1438.352 28.318c-.08-2.515-2.596-3.326-2.596-3.326h-6.246s-2.27.568-2.19 2.353c.08 1.785 2.028 2.19 2.028 2.19h2.352c1.46 0 1.46 2.19 1.46 2.19l.162 21.497c0 .08-.08 1.947 2.433 1.866 2.515-.08 2.596-2.028 2.596-2.028s.087-22.228.005-24.742zm12.278-3.328h-6.247s-2.515.812-2.596 3.327c-.08 2.515 0 24.742 0 24.742s.08 1.943 2.596 2.024c2.515.08 2.434-1.785 2.434-1.866l.162-21.497s0-2.19 1.46-2.19h2.35s1.946-.405 2.03-2.19c.08-1.784-2.19-2.352-2.19-2.352zm207.704-3.173c-2.814-2.694-7.302-2.598-9.997.212-.832.863-1.39 1.89-1.697 2.97-.704-.3-1.624-.764-2.38-1.458-.775-.745-1.27-1.755-1.548-2.438 1.14-.34 2.203-.958 3.08-1.878 2.696-2.816 2.6-7.304-.22-10-2.812-2.694-7.297-2.598-9.996.215-2.7 2.816-2.603 7.303.215 10 1.075 1.026 2.39 1.65 3.756 1.867L1614.388 53.4c-.322.418-.284 1.025.102 1.393.386.366.99.386 1.4.038l30.683-26.26c.3 1.28.964 2.49 1.98 3.468 2.813 2.69 7.302 2.594 9.997-.22 2.695-2.814 2.598-7.303-.216-9.998zm-21.104-3.875c-1.984-1.905-2.052-5.067-.148-7.056 1.897-1.98 5.068-2.048 7.047-.152 1.985 1.905 2.053 5.067.152 7.056-1.9 1.99-5.07 2.058-7.055.152zm-14.725 28.488l18.625-23.757c.383.764.93 1.646 1.693 2.374l.1.1c.802.736 1.75 1.26 2.548 1.626L1622.51 46.43zm34.542-16.054c-1.9 1.988-5.068 2.056-7.056.152-1.06-1.023-1.56-2.408-1.51-3.78.06-.17.07-.348.04-.53.14-.998.57-1.965 1.32-2.745 1.907-1.985 5.07-2.053 7.058-.152 1.99 1.908 2.058 5.07.152 7.06z"/><path fill-rule="evenodd" clip-rule="evenodd" fill="#ADABAB" d="M1642.817 37.42c-.193-.193-.363-.35-.508-.5.213-.576.18-1.125-.14-1.452l-24.615-24.61c-.553-.55-1.722-.274-2.62.625-.9.896-1.183 2.073-.627 2.62l24.61 24.612c.315.314.83.35 1.38.168 5.372 4 4.114 11.015 9.494 14.72 1.8 1.244 4.775 2.277 7.772 2.046 1.48-.116 2.948-1.25 2.948-1.25-5.32-6.655-10.644-11.97-17.698-16.98zm7.017 15.45c-4.275-3.985-3.436-10.324-8.502-13.825l.524-.488c4.928 3.497 4.295 9.523 8.53 13.474 1.762 1.38 5.02 2.48 7.844 1.81l.508.5c-3.02 1.29-6.92.09-8.904-1.466z"/><path fill-rule="evenodd" clip-rule="evenodd" fill="#24B5FC" d="M1828.683 4.636l.177 11.418 1.095-.13.05-11.305z"/><path fill-rule="evenodd" clip-rule="evenodd" fill="#1C9BD9" d="M1824.912 18.1l.117 4.363 8.174.026.02-4.38z"/><path fill-rule="evenodd" clip-rule="evenodd" fill="#61CCFF" d="M1834.375 24.32c-3.978.094-11.106-.063-11.106-.063s-3.19-.34-3.14 3.542c.054 3.88-.014 17.24-.014 17.24s.535 2.02 1.887 2.33c2.592.196 13.402-.01 13.402-.01s1.03-.69 1.153-1.258l.05-19.053c-.003 0-.066-2.486-2.24-2.73z"/><path fill-rule="evenodd" clip-rule="evenodd" fill="#199AD9" d="M1831.6 49.133l-6.63-.01.03 4.83 6.626.048z"/><path fill-rule="evenodd" clip-rule="evenodd" fill="#D1F0FF" d="M1834.807 27.723c-.218-2.394-2.324-2.044-2.324-2.044s-6.2-.03-8.732-.057c-2.1.01-1.98 1.606-1.98 1.606l.008 6.942 13.198.106s.05-4.166-.166-6.56z"/><path fill-rule="evenodd" clip-rule="evenodd" fill="#199AD9" d="M1836.62 56.158l-16.572-.115-.097 2.64 16.69.116z"/><path fill-rule="evenodd" clip-rule="evenodd" fill="#fff" d="M1835.104 39.083L1830 39.07l.125 6.696 5.01-.063zm-8.264 0l-5.105-.012.126 6.7 5.015-.064z"/><path fill-rule="evenodd" clip-rule="evenodd" fill="#61B6E6" d="M1855.58 6.813c-2.453-3.093-3.84.64-3.84.64l-4.056 19.405.634 28.79c1.172 3.52 3.092 3.093 3.092 3.093s4.798.325 6.61.006c1.814-.32 2.454-1.813 2.454-1.813l.007-30.495s-2.98-15.142-4.9-19.62zm-5.735 48.482l-.473-28.31 3.95-18.448s.373-.693.693.053c.32.747 4.048 17.276 4.048 17.276l.526 30.07-8.748-.64z"/><path fill-rule="evenodd" clip-rule="evenodd" fill="#4CC4FE" d="M1856.89 26.72l-6.186.424.26 26.818 6.345.375z"/><path fill-rule="evenodd" clip-rule="evenodd" fill="#FEAE50" d="M2064.832 22.59c-1.556-7.088-13.83-6.57-13.83-6.57l.174-12.446-5.36-1.383c-1.036 16.25-5.53 31.638-8.642 33.71-1.556-2.072-5.877-.69-5.877-.69s-2.42-4.84-3.976-6.57c-1.552-1.73-4.663-1.73-6.74-1.73-2.072 0-5.703 3.116-6.913 5.536s-2.766 7.777-2.076 14.692 8.645 11.928 8.645 11.928l2.94-6.57s-2.076-1.555-3.458-3.283c-1.383-1.728-1.73-4.148-1.73-6.05s1.038-5.185 2.42-6.568c1.384-1.383 1.903 0 1.903 0s3.63 8.47 6.05 11.41c2.42 2.938 6.394 5.703 11.753 6.222 5.36.52 12.1-.52 18.15-8.124 6.05-7.608 8.125-16.423 6.57-23.51z"/><path fill-rule="evenodd" clip-rule="evenodd" fill="#fff" d="M2061.058 23.498c-2.353-4.47-12.94-4.94-12.94-4.94l-3.293 8.705-1.647 4.94h17.88s2.352-4.235 0-8.705z"/><path fill-rule="evenodd" clip-rule="evenodd" fill="#EE5F20" d="M2232.045 34.747c-2.472-5.083-11.61-20.1-11.61-20.1-.976 3.9-8.643 13.6-10.592 16.31-1.95 2.707-5.198 10.396-2.924 15.812 2.27 5.41 7.902 8.335 11.584 8.444 3.682.108 6.498-.325 11.155-4.44 4.657-4.117 4.422-11.838 2.383-16.03zm-13.15 16.265c-9.033-1.932-8.51-11.824-8.51-11.824.107-1.083 2.706-1.3 2.815.108.217 6.932 5.957 9.206 6.823 9.64 1.268.768.33 2.574-1.128 2.076z"/><path fill-rule="evenodd" clip-rule="evenodd" fill="#77C0FE" d="M2251.992 4.175c-8.955-1.85-17.714 3.91-19.563 12.866-1.85 8.96 4.003 17.25 12.96 19.1 8.954 1.85 17.616-3.443 19.466-12.398 1.848-8.955-3.912-17.715-12.868-19.564zm9.208 18.845c-1.43 6.92-8.126 11.02-15.046 9.592-6.92-1.43-11.444-7.846-10.014-14.766 1.43-6.92 8.197-11.37 15.117-9.942 6.92 1.43 11.37 8.197 9.942 15.117z"/><path fill-rule="evenodd" clip-rule="evenodd" fill="#55B1FF" d="M2260.347 36.022l-8.464 2.9 4.34 13.715s3.425 2.51 6.003 1.605c2.577-.904 2.693-4.37 2.693-4.37l-4.576-13.85z"/><path fill-rule="evenodd" clip-rule="evenodd" fill="#74BA5B" d="M2412.914 9.488l-.28 12.92s6.32 2.67 13.34 2.53c7.023-.142 12.22-2.81 12.22-2.81s.14-6.038.14-12.64c-11.376-8.707-25.42 0-25.42 0z"/><path fill-rule="evenodd" clip-rule="evenodd" fill="#9FD2F8" d="M2412.633 26.605v25.7s3.09 5.62 12.64 5.62 12.92-5.197 12.92-5.197.282-20.224.282-27.386c-7.865 4.774-25.842 1.263-25.842 1.263z"/><path fill-rule="evenodd" clip-rule="evenodd" fill="#FA753B" d="M2464.966 42.054h-16.292c-4.188 0-7.584 3.395-7.584 7.584 0 4.188 3.396 7.584 7.584 7.584h16.292c4.188 0 7.584-3.396 7.584-7.584 0-4.19-3.396-7.584-7.584-7.584z"/><path fill-rule="evenodd" clip-rule="evenodd" fill="#FFFEFF" d="M2470.496 48.514c-.14-4.073-6.18-5.056-6.18-5.056h-7.724l-.28 11.798h8.566c3.652 0 5.758-2.67 5.618-6.742z"/><path fill-rule="evenodd" clip-rule="evenodd" fill="#F9D00F" d="M2472.134 22.856c-1.693-3.83-6.17-5.564-10.002-3.872l-14.902 6.586c-3.83 1.692-5.564 6.17-3.87 10 1.692 3.832 6.17 5.565 10 3.873l14.902-6.585c3.832-1.693 5.566-6.17 3.872-10.002z"/><path fill-rule="evenodd" clip-rule="evenodd" fill="#FFFEFF" d="M2469.802 22.66c-1.775-3.67-7.696-2.128-7.696-2.128l-7.065 3.122 4.516 10.904 7.836-3.463c3.34-1.476 4.187-4.768 2.413-8.436z"/><path fill-rule="evenodd" clip-rule="evenodd" fill="#F181B4" d="M2639.5 7.197c-13.42 0-24.302 10.88-24.302 24.302 0 13.42 10.88 24.3 24.302 24.3 13.422 0 24.302-10.88 24.302-24.3 0-13.425-10.88-24.306-24.302-24.306zm.202 45.353c-11.768 0-21.307-9.43-21.307-21.06 0-11.63 9.54-21.058 21.307-21.058 11.768 0 21.307 9.43 21.307 21.06 0 11.63-9.54 21.058-21.31 21.058z"/><path fill-rule="evenodd" clip-rule="evenodd" fill="#FDB9D8" d="M2653.2 31.137c-.868-.242-1.745-.17-2.518.14-.146-1.56-1.233-2.942-2.84-3.39-2.076-.582-4.228.622-4.805 2.686-.043.153-.073.307-.096.457-1.9-.26-3.75.904-4.274 2.794-.532 1.902.46 3.87 2.244 4.622-.25.352-.45.75-.57 1.188-.578 2.067.64 4.21 2.716 4.79 1.66.464 3.366-.214 4.28-1.558.5.733 1.252 1.302 2.176 1.56 2.08.58 4.23-.623 4.808-2.69.33-1.177.073-2.377-.59-3.303 1.033-.45 1.862-1.34 2.19-2.507.576-2.064-.64-4.208-2.718-4.79zm-20.502-6.423c-.678-.19-1.365-.134-1.97.11-.114-1.22-.964-2.302-2.22-2.655-1.627-.457-3.31.485-3.763 2.1-.034.12-.057.24-.075.36-1.488-.204-2.934.71-3.348 2.186-.416 1.488.36 3.027 1.755 3.616-.196.277-.35.588-.446.93-.45 1.618.505 3.296 2.13 3.75 1.3.363 2.635-.167 3.35-1.22.39.573.98 1.018 1.704 1.22 1.626.456 3.312-.487 3.763-2.103.257-.92.057-1.86-.463-2.584.81-.352 1.458-1.05 1.713-1.963.452-1.616-.5-3.295-2.125-3.75zm7.635-2.962c.258.375.64.666 1.112.797 1.062.293 2.163-.32 2.457-1.378.168-.6.038-1.215-.302-1.688.53-.23.952-.685 1.12-1.282.294-1.054-.327-2.15-1.39-2.448-.443-.123-.89-.087-1.286.072-.076-.797-.63-1.504-1.45-1.734-1.062-.296-2.163.32-2.456 1.374-.023.078-.038.157-.05.234-.973-.132-1.916.463-2.186 1.43-.272.97.236 1.975 1.146 2.36-.128.18-.23.383-.292.61-.294 1.053.328 2.15 1.39 2.446.85.236 1.72-.11 2.187-.798z"/><circle fill-rule="evenodd" clip-rule="evenodd" fill="#fff" cx="47.605" cy="36.821" r="2.446" transform="translate(2600)"/><circle fill-rule="evenodd" clip-rule="evenodd" fill="#fff" cx="28.511" cy="28.695" r="1.914" transform="translate(2600)"/><circle fill-rule="evenodd" clip-rule="evenodd" fill="#fff" cx="40.326" cy="18.568" r="1.34" transform="translate(2600)"/><path fill-rule="evenodd" clip-rule="evenodd" fill="#FE8BC0" d="M2853.157 23.79c-.854-6.833-12.692-15.79-20.92-15.577-17.727-.57-23.91 15.79-23.91 15.79-2.994.36-6.645 3.76-6.618 7.044.02 2.995 2.77 5.337 5.76 6.404 1.496 8.97 10.11 18.77 23.985 18.77 16.865-.213 22.128-14.925 22.768-18.77 4.056-1.28 5.405-4.695 5.405-7.47 0-2.774-1.698-5.34-6.475-6.19zm-.854 10.673c-1.92 12.81-11.807 19.492-20.986 19.705-14.927.065-21.077-13.798-21.497-18.424-2.134-.64-5.168-2.337-5.122-5.55.042-2.972 4.27-4.277 6.618-4.697 4.7-13.81 17.562-15.554 19.855-14.66 3.557 0 6.29 7.106 5.01 9.667-1.28 2.562-5.65 2.43-7.57.937-1.92-1.49-1.133-4.33.79-4.76 1.92-.425 2.84 1.56 1.77 2.416-1.066.854-.64 1.503-.212 1.717 2.135 1.28 4.27-1.716 2.775-3.85-3.453-5.97-9.127-1.47-9.177 1.708-.045 2.81 1.708 6.83 7.045 6.405 8.54-.853 9.06-9.423 4.65-13.448 8.352 1.935 13.94 9.043 14.777 14.728 4.914-.147 5.974 2.346 5.974 4.48 0 2.135-2.56 2.99-4.696 3.63z"/><path fill-rule="evenodd" clip-rule="evenodd" fill="#FE84BD" d="M2831.71 40.006c-3.66 0-7.05 4.148-7.05 4.148 0 1.29 1.58 1.65 2.153.717.574-.93 2.88-2.853 4.89-2.853s3.657 1.35 4.733 2.354c1.076 1.004 1.65.5 1.65-.79-.932-1.863-3.087-3.572-6.376-3.572z"/><path fill-rule="evenodd" clip-rule="evenodd" fill="#BCBCBD" d="M2877.967 38.667l.07-28.773c0-.9-1.82-2.87-2.857-2.87l-8.35.116c-.898 0-2.87 1.956-2.87 2.72l-.067 28.77c0 .19-.012.377.024.557l-.023.053c.017.02.062.04.08.06.168.713.602 1.325 1.196 1.72.3.52 1.104 1.48 1.353 2.044l9.327.025c.252-.57.527-1.526.828-2.04.596-.398 1.13-1.007 1.302-1.72.017-.02-.03-.04-.014-.06l.04-.05c.036-.18-.04-.366-.04-.556z"/><path fill-rule="evenodd" clip-rule="evenodd" fill="#999" d="M2874.04 50.175l-6.025-.014c.012 1.15.017 2.587.017 2.587-.003 1.395 1.988 2.53 3.384 2.533 1.394.002 2.59-1.127 2.594-2.52 0 0-.037-1.56.03-2.583z"/><path fill-rule="evenodd" clip-rule="evenodd" fill="#BEBEBF" d="M2865.572 44.03c1.243 3.05 1.83 3.675 2.044 5.142l6.443.012c.22-1.466.82-2.086 2.08-5.13l-10.57-.025z"/><path fill-rule="evenodd" clip-rule="evenodd" fill="#fff" d="M2871.117 8.813c-1.503 0-5.132 2.48-5.132 3.982v24.34c0 1.502 3.628 3.037 5.132 3.037 1.503 0 4.91-1.534 4.91-3.038V12.796c0-1.503-3.407-3.983-4.91-3.983z"/><path fill-rule="evenodd" clip-rule="evenodd" fill="#F93F3E" d="M2870.05 23.176l-.03 13.697 1.904.03.03-13.698z"/><path fill-rule="evenodd" clip-rule="evenodd" fill="#4CB4FD" d="M2870.05 15.306l-.03 7.678 1.904.03.03-7.68z"/><path fill-rule="evenodd" clip-rule="evenodd" fill="#FEAADA" d="M2816.512 39.496l.062 3.5h3.348v-3.5zm11.998 7.998l.062 3.5h3.348v-3.5zm0-13.997l.062 3.5h3.348v-3.5zm-15.997-4l.062 3.5h3.348v-3.5zm27.994 8l.062 3.5h3.344v-3.5zm6-6l.06 3.5h3.35v-3.5z"/><circle fill-rule="evenodd" clip-rule="evenodd" fill="#0295FC" cx="22.302" cy="30.15" r="2.591" transform="translate(2800)"/><circle fill-rule="evenodd" clip-rule="evenodd" fill="#0295FC" cx="38.302" cy="30.15" r="2.591" transform="translate(2800)"/><circle fill-rule="evenodd" clip-rule="evenodd" fill="#2DA5DF" cx="38.092" cy="31.564" r="16.134" transform="translate(3000)"/><path fill-rule="evenodd" clip-rule="evenodd" fill="#2DA5DF" d="M3037.24 6.227h1.226V17.7h-1.226zm-17.06 6.38l.925-.807 8.126 9.323-.92.806zm-6.844 15.858l-.058 1.225 12.366 1.506.057-1.225zm4.27 18.652l10.28-9.084.81.92-10.277 9.083zm14.87 8.693l3.108-13.626 1.196.273-3.107 13.625zm11.61-14.517l.914-.82 8.127 9.084-.914.818zm5.164-6.54l.25-1.2 10.656 2.225-.25 1.2zm.475-12.56l9.083-5.498.635 1.05-9.083 5.498z"/><circle fill-rule="evenodd" clip-rule="evenodd" fill="#4CBEF6" cx="37.764" cy="5.215" r="3.107" transform="translate(3000)"/><circle fill-rule="evenodd" clip-rule="evenodd" fill="#4CBEF6" cx="20.591" cy="11.348" r="3.107" transform="translate(3000)"/><circle fill-rule="evenodd" clip-rule="evenodd" fill="#4CBEF6" cx="12.231" cy="28.295" r="3.107" transform="translate(3000)"/><circle fill-rule="evenodd" clip-rule="evenodd" fill="#4CBEF6" cx="18.138" cy="46.921" r="3.107" transform="translate(3000)"/><circle fill-rule="evenodd" clip-rule="evenodd" fill="#4CBEF6" cx="34.085" cy="55.508" r="3.107" transform="translate(3000)"/><circle fill-rule="evenodd" clip-rule="evenodd" fill="#4CBEF6" cx="53.711" cy="50.601" r="3.107" transform="translate(3000)"/><circle fill-rule="evenodd" clip-rule="evenodd" fill="#4CBEF6" cx="62.297" cy="37.335" r="3.107" transform="translate(3000)"/><circle fill-rule="evenodd" clip-rule="evenodd" fill="#4CBEF6" cx="60.911" cy="16.255" r="3.107" transform="translate(3000)"/><ellipse fill-rule="evenodd" clip-rule="evenodd" fill="#F392BF" cx="48.505" cy="55.525" rx="3.595" ry="2.429" transform="translate(3200)"/><path fill-rule="evenodd" clip-rule="evenodd" fill="#FB93C3" d="M3262.173 21.324c1.53-6.115-4.892-10.396-7.542-10.498-1.015-4.586-6.93-5.708-8.863-4.994-1.53-3.057-9.173-2.548-11.72-.408-1.02-1.223-7.747-1.63-10.193 3.262-2.853-1.53-9.376 2.243-9.58 6.013-5.91.51-6.012 8.965-4.076 12.022-1.325 9.58 11.517 9.784 15.084 8.56 2.957 8.053 11.11 4.282 11.11 4.282l9.275 12.74 4.685-.305s-2.548-7.134-3.26-8.46c15.287 2.65 17.02-11.516 14.47-14.064 2.856-1.223 2.346-6.42.613-8.153z"/><circle fill-rule="evenodd" clip-rule="evenodd" fill="#F181B4" cx="38.805" cy="29.138" r="26.407" transform="translate(3400)"/><circle fill-rule="evenodd" clip-rule="evenodd" fill="#FFFCFF" cx="38.805" cy="29.138" r="23.465" transform="translate(3400)"/><circle fill-rule="evenodd" clip-rule="evenodd" fill="#FDB9D8" cx="38.246" cy="29.206" r="19.543" transform="translate(3400)"/><ellipse fill-rule="evenodd" clip-rule="evenodd" fill="#FFFCFF" cx="36.882" cy="40.173" rx="4.016" ry="3.923" transform="translate(3400)"/><ellipse fill-rule="evenodd" clip-rule="evenodd" fill="#FFFCFF" cx="47.734" cy="35.833" rx="4.016" ry="3.923" transform="translate(3400)"/><ellipse fill-rule="evenodd" clip-rule="evenodd" fill="#FFFCFF" cx="39.053" cy="29.322" rx="4.016" ry="3.923" transform="translate(3400)"/><ellipse fill-rule="evenodd" clip-rule="evenodd" fill="#FFFCFF" cx="49.904" cy="24.981" rx="4.016" ry="3.923" transform="translate(3400)"/><ellipse fill-rule="evenodd" clip-rule="evenodd" fill="#FFFCFF" cx="41.223" cy="18.47" rx="4.016" ry="3.923" transform="translate(3400)"/><path fill-rule="evenodd" clip-rule="evenodd" fill="#FFFCFF" d="M3422.903 22.204h9.413V31.7h-9.413z"/><path fill-rule="evenodd" clip-rule="evenodd" fill="#30AAE6" d="M3424.75 23.802h5.885v6.302h-5.885z"/></svg>