<svg baseProfile="tiny" xmlns="http://www.w3.org/2000/svg" preserveAspectRatio="xMinYMin meet" xmlns:xlink="http://www.w3.org/1999/xlink" viewBox="0 0 900 100" width="900" height="100"><g><g><path fill="#5EBDFF" d="M17.515 25.003l-.054-5.213H2.484C1.113 19.792 0 18.68 0 17.31V2.48C0 1.11 1.112-.004 2.482-.004h22.433c1.37 0 2.48 1.112 2.48 2.482v14.83c0 1.368-1.113 2.48-2.48 2.48h-2.243L17.515 25z"/><path fill="#fff" fill-opacity=".2" d="M2.8.003h22.178c.71 0 1.346.3 1.8.772l-13.387 9.2-12.44 9-.19.13C.294 18.653.005 18.02.005 17.32V2.484c0-1.37 1.11-2.482 2.48-2.482H2.8z"/><circle fill="#fff" cx="9.583" cy="10.251" r="2.135"/><circle fill="#fff" cx="16.946" cy="10.251" r="2.135"/></g></g><g transform="translate(100)"><g><g><g><defs><path id="a" d="M2.7 21.1s-1.9-4.9 2.5-9.9l2.1.4.1-3 3.9-3.9L14.5 6l-.7-3.3s3-3.7 10-2.4c0 0 2.2 1.6 1.9 4.3 0 0-2.8.7-4.6.3L23.9 7s-2.1 3.3-3.4 4.3l-5.4.3s2.7.9 3.4 1.9c0 0-1 2.1-2.7 3.1 0 0-3-.7-5.2-.4 0 0 2.2.7 3.3 1.9 0 0-4.5 3.6-9.7 3.4h-1l-.5-.4z"/></defs><clipPath id="b"><use xlink:href="#a" overflow="visible"/></clipPath><g clip-path="url(#b)"><g><path fill="#FCAF5D" d="M16.2 6.8l-5.1-2.5-3.9 4 .2 3.7 1 2.1.6.6z"/><path fill="#A4D2F0" d="M7.3 11.6l-2.2-1S.6 15.8 2.6 21.2l.6 1 6-7.4c-.1 0-1.9-3.2-1.9-3.2z"/><path fill="#B49EDB" d="M3 22.1s6.7 0 11.5-3.7c0 0-3.3-2.5-5.8-2.6-2.5-.2-5.7 6.3-5.7 6.3z"/><path fill="#67B6EB" d="M11.7 11.5l9.2.5 3.7-5.1-5.3-3.4z"/><path fill="#FFE641" d="M12.3 11.2s3.9 0 6.9 2.8l-2.7 3.9-8.8-2.2 4.6-4.5z"/><path fill="#B6E7B1" d="M12.3 1.8l3.1 5.8s5.4-5.8 9.7-7.9c0 0-2.8-.7-5.8-.4-3 .3-7 2.5-7 2.5z"/><path fill="#84D67B" d="M21.1 4.9l2.9.5 4-.6-.7-3.3L25-.4c-2.1 1.2-4.7 3.2-6.1 4.7l2.2.6z"/><path fill="#81C0EA" d="M15 7.5l9.3.6 1.1-1.8-6.6-2.1z"/><path fill="#FFBE78" d="M11.8 11.4L9.4 5.6l1.7-1.4 3.4 1.7.9 1.7z"/><path fill="#8AC8F2" d="M2.8 22.9s1.9-4 2.5-4.7c0 0-2.7-2.9-2.9-4.5 0 0-.8 3.2-.7 4.8.1 1.5 1.1 4.4 1.1 4.4z"/></g></g></g><path fill="none" d="M2.7 21.1s-1.9-4.9 2.5-9.9l2.1.4.1-3 3.9-3.9L14.5 6l-.7-3.3s3-3.7 10-2.4c0 0 2.2 1.6 1.9 4.3 0 0-2.8.7-4.6.3L23.9 7s-2.1 3.3-3.4 4.3l-5.4.3s2.7.9 3.4 1.9c0 0-1 2.1-2.7 3.1 0 0-3-.7-5.2-.4 0 0 2.2.7 3.3 1.9 0 0-4.5 3.6-9.7 3.4h-1l-.5-.4z"/><path fill="#fff" d="M1.5 22.1s9.3-13 17.3-17.9c0 0-7.5 7.6-10.2 10.9-2.7 3.3-5.8 7.6-5.8 7.6l-1 .1-.3-.7z"/><path fill="#7F7F7F" d="M.2 25s0-1.9 1-2.8l.4.7h1c.2 0-.6 1.8-2.4 2.1z"/></g></g></g><g transform="translate(200)"><g><g><path fill="#FEDE55" d="M23.5 25l-5.2-5.2H2.9c-1.4 0-2.5-1.1-2.5-2.5V2.5C.4 1.1 1.6 0 2.9 0H26c1.4 0 2.5 1.1 2.5 2.5v14.8c0 1.4-1.1 2.5-2.5 2.5h-2.5V25z"/><circle fill="#fff" cx="7.8" cy="10" r="2.6"/><circle fill="#fff" cx="14.1" cy="10" r="2.6"/><circle fill="#fff" cx="20.6" cy="10" r="2.6"/><path fill="#fff" fill-opacity=".2" d="M3.3 0h22.8c.7 0 1.3.3 1.8.8L14.6 10 1.5 19l-.2.1c-.5-.5-.8-1.1-.8-1.8V2.5C.5 1.1 1.6 0 3 0h.3z"/></g></g></g><g transform="translate(300)"><g><g><path fill="#2594E1" d="M.1 9.3h3.1v15.5l-3-.1z"/><path fill="#5EBDFF" d="M4.3 9.6S10 9.5 10.5 0c2.4 1.1 4.1 4.3 2.1 8.9 3.5-.5 8.9-.4 10.1.7.2 1.8.7 7.5-3.4 15-3.8.6-9.1.6-14.8-1.6-.1-3-.2-13.4-.2-13.4z"/><path fill="#51A9E7" d="M.1 9.3h3.1v13l-3 2.2z"/><path fill="#7ECAFF" d="M4.3 9.6S10 9.5 10.5 0c2.4 1.1 4.1 4.3 2.1 8.9 2.8-.4 6.7-.4 8.9.1l-17 12.3c-.1-4-.2-11.7-.2-11.7z"/></g></g></g><g transform="translate(400)"><g><g><path fill="#F3775B" d="M21.7.2h3.6c1 0 1.8.7 1.8 1.7s-.8 1.8-1.8 1.8h-3.6c-1 0-1.8-.8-1.8-1.8-.1-1 .8-1.7 1.8-1.7z"/><path fill="#AAB2BD" d="M3 1.7h25c1.6 0 3 1.3 3 3v17.2c0 1.6-1.3 3-3 3H3c-1.6 0-3-1.3-3-3V4.7c0-1.7 1.3-3 3-3z"/><path fill="#BBC1CA" d="M3 1.7h24.8c1.1 0 2.1.6 2.6 1.6l-15.1 9.9 15 10.3c-.5.8-1.4 1.4-2.5 1.4H3c-1.6 0-3-1.3-3-3V4.7c0-1.7 1.3-3 3-3z"/><path fill="#fff" d="M15.5 5.5c4 0 7.2 3.3 7.2 7.3s-3.2 7.3-7.2 7.3-7.2-3.3-7.2-7.3c0-4.1 3.2-7.3 7.2-7.3z"/><path fill="#73BBE6" d="M15.4 8.5c2.4 0 4.3 2 4.3 4.4 0 2.4-1.9 4.4-4.3 4.4s-4.3-2-4.3-4.4c-.1-2.4 1.9-4.4 4.3-4.4z"/></g></g></g><g transform="translate(500)"><g><g><path fill="#fff" d="M1.2 1.3h26.5v22.6H1.2z"/><path fill="#73BBE6" d="M26.1 24.8h-23C.7 24.8 0 23.5 0 21.2V3C0 .6 0 .1 2.3.1h23.8c2.4 0 2.8.1 2.8 2.5V22c0 2.4-.5 2.8-2.8 2.8zm1.3-20.4c0-2.4-.4-2.8-2.8-2.8H3.5c-2.4 0-2 .4-2 2.8v15.4c0 2.4.4 3.6 2.8 3.6h20.3c2.4 0 2.8-.4 2.8-2.8V4.4z"/><path fill="#FFD699" d="M3.4 3.5h6.7v5.9H3.4zM11.2 3.5h6.6v5.9h-6.6zM18.9 3.5h6.6v5.9h-6.6z"/><path fill="#73BBE6" d="M3.3 11.2h8.5v1.7H3.3zM3.3 13.8h8.5v1.7H3.3zM3.3 16.4h8.4v1.7H3.3zM3.3 18.9h8.4v1.7H3.3z"/><g><path fill="#FF8232" d="M25.7 10.4h2.1c.6 0 1.1.4 1.1 1s-.5 1.1-1.1 1.1h-2.1c-.6 0-1.1-.5-1.1-1.1 0-.6.5-1 1.1-1z"/><path fill="#42A0D6" d="M14.7 11.3h14.6c1 0 1.7.8 1.7 1.7v10.1c0 1-.8 1.7-1.7 1.7H14.7c-1 0-1.7-.8-1.7-1.7v-10c0-1 .7-1.8 1.7-1.8z"/><path fill="#55ADE0" d="M14.7 11.3h14.6c.7 0 1.2.4 1.5.9L21.9 18l8.8 6c-.3.5-.8.8-1.5.8H14.7c-1 0-1.7-.8-1.7-1.7v-10c0-1 .7-1.8 1.7-1.8z"/><path fill="#fff" d="M22 13.5c2.3 0 4.2 1.9 4.2 4.3s-1.9 4.3-4.2 4.3c-2.3 0-4.2-1.9-4.2-4.3s1.9-4.3 4.2-4.3z"/><path fill="#73C869" d="M22 15.3c1.4 0 2.5 1.2 2.5 2.6 0 1.4-1.1 2.6-2.5 2.6s-2.5-1.2-2.5-2.6c-.1-1.4 1.1-2.6 2.5-2.6z"/></g></g></g></g><g transform="translate(600)"><g><g><path fill="#5EBDFF" d="M16.07 24.816l-.05-5.175H2.483c-1.24 0-2.244-1.1-2.244-2.46V2.463C.237 1.102 1.24 0 2.48 0h20.275C23.995 0 25 1.103 25 2.463V17.18c0 1.36-1.005 2.462-2.244 2.462h-2.023l-4.664 5.174z"/><path fill="#fff" d="M13.58 11.174c.106-.244.38-.566.82-.97.85-.775 1.402-1.386 1.663-1.837.26-.45.39-.93.39-1.432 0-.912-.355-1.71-1.06-2.398-.708-.685-1.66-1.027-2.855-1.027-1.137 0-2.055.338-2.753 1.018-.7.677-1.076 1.5-1.13 2.472l1.912.26c.133-.678.377-1.184.733-1.514.356-.33.797-.496 1.326-.496.548 0 .985.158 1.31.477.323.318.484.698.484 1.145 0 .318-.092.61-.272.878-.12.168-.483.524-1.092 1.064-.607.542-1.013 1.032-1.216 1.464-.203.436-.304.987-.304 1.66 0 .066.003.065.008.364h1.89c-.01-.628.038-.885.146-1.128zm-.978 2.197c-.586 0-1.062.524-1.062 1.166 0 .644.476 1.164 1.062 1.164s1.06-.522 1.06-1.165c0-.64-.474-1.164-1.06-1.164z"/><path fill="#fff" fill-opacity=".2" d="M2.77.006h20.05c.64 0 1.216.294 1.625.767L12.345 9.9 1.097 18.832l-.17.13C.503 18.51.24 17.88.24 17.187V2.47C.24 1.113 1.245.01 2.483.01h.287V.006z"/></g></g></g><g transform="translate(700)"><g><g><path fill="#69BFF2" d="M7.1 18.8L9 22.9c.5 1.1 3.6 2.6 6.4 1.3 2.8-1.3 4.2-4.4 3.1-6.8-1.4.2-3 .4-3 .4s.9 3.3-1 4.1c-1.9.8-3.1-.3-3.4-.8-.1-.6-1.1-2.7-1.1-2.7l-2.9.4z"/><path fill="#70C0F0" d="M26.1 1.3l-2.3 2.4c-.2.2-.5.2-.7 0l-.1-.1c-.2-.2-.1-.5 0-.7L25.3.5c.2-.2.5-.2.7 0l.1.1c.2.2.2.5 0 .7zm3.5 4.4l-3.9 2c-.2.1-.6 0-.7-.2v-.2c-.1-.3 0-.5.2-.7l3.9-2c.2-.1.6 0 .7.2l.1.2c.1.2 0 .5-.3.7zm1 5.4l-3.7.3c-.3 0-.5-.2-.6-.4v-.2c0-.3.2-.5.4-.6l3.7-.3c.3 0 .5.2.6.4v.2c0 .3-.2.6-.4.6z"/><path fill="#7CC9F7" d="M.8 15.3L17.2.4s.8-.2 1 .3c.3.6 7.2 15.3 7.2 15.3s.1.8-.4.9c-.5.1-21.9 2.4-21.9 2.4l-2.3-4z"/><path fill="#FFDB42" d="M3.8 12.6l2.9 6.3L2.3 20 0 15.2z"/><path fill="#D2EEFE" d="M14.6 2.7l1.6-1.4L23.8 17l-2.1.3z"/><path fill="#fff" fill-opacity=".2" d="M.1 15.3l3.7-2.7L16.9.7l.3-.2c.2-.1.6-.1 1 .2l3.6 7.7L1.4 18 .1 15.3z"/><path fill="#D9F1FE" d="M16.2 1.3l3.9 8-1.9.9-3.6-7.4z"/></g></g></g><g transform="translate(800)"><g><g><path fill="#fff" stroke="#000" stroke-width=".007" d="M.8 4.2h26.5v16.3H.8z"/><path fill="#B2B2B2" d="M24.8 25h-.4v-1.7h.6c.2 0 .3-.1.3-.3v-1.2c0-.2-.1-.3-.3-.3h-.6v-1.6h.3c.8 0 1.4-.6 1.4-1.4V6.7c0-.8-.6-1.4-1.4-1.4h-.3V3.5h.6c.2 0 .3-.1.3-.3V2c0-.2-.1-.3-.3-.3h-.6V0h.4c1.7 0 3 1.4 3 3v19c0 1.6-1.4 3-3 3zm-.5 0h-3.4v-1.7h.6c.2 0 .3-.1.3-.3v-1.2c0-.2-.1-.3-.3-.3h-.6v-1.6h3.4v1.6h-.6c-.2 0-.3.1-.3.3V23c0 .2.1.3.3.3h.6V25zM20.9 0h3.4v1.7h-.6c-.2 0-.3.1-.3.3v1.2c0 .2.1.3.3.3h.6v1.7h-3.4V3.5h.6c.2 0 .3-.1.3-.3V2c0-.2-.1-.3-.3-.3h-.6V0zm0 25h-3.4v-1.7h.6c.2 0 .3-.1.3-.3v-1.2c0-.2-.1-.3-.3-.3h-.6v-1.6h3.4v1.6h-.6c-.2 0-.3.1-.3.3V23c0 .2.1.3.3.3h.6V25zM17.5 0h3.4v1.7h-.6c-.1 0-.3.1-.3.3v1.2c0 .2.1.3.3.3h.6v1.7h-3.4V3.5h.6c.2 0 .3-.1.3-.3V2c0-.2-.1-.3-.3-.3h-.6V0zm0 25H14v-1.7h.6c.2 0 .3-.1.3-.3v-1.2c0-.2-.1-.3-.3-.3H14v-1.6h3.5v1.6h-.6c-.2 0-.3.1-.3.3V23c0 .2.1.3.3.3h.6V25zM14 0h3.5v1.7h-.6c-.2 0-.3.1-.3.3v1.2c0 .2.1.3.3.3h.6v1.7H14V3.5h.6c.2 0 .3-.1.3-.3V2c0-.2-.1-.3-.3-.3H14V0zm0 25h-3.4v-1.7h.6c.2 0 .3-.1.3-.3v-1.2c0-.2-.1-.3-.3-.3h-.6v-1.6H14v1.6h-.6c-.2 0-.3.1-.3.3V23c0 .2.1.3.3.3h.6V25zM10.6 0H14v1.7h-.6c-.2 0-.3.1-.3.3v1.2c0 .2.1.3.3.3h.6v1.7h-3.4V3.5h.6c.2 0 .3-.1.3-.3V2c0-.2-.1-.3-.3-.3h-.6V0zm0 25H7.1v-1.7h.6c.2 0 .3-.1.3-.3v-1.2c0-.2-.1-.3-.3-.3h-.6v-1.6h3.4v1.6H10c-.2 0-.3.1-.3.3V23c0 .2.1.3.3.3h.6V25zM7.1 0h3.4v1.7H10c-.2 0-.3.1-.3.3v1.2c0 .2.1.3.3.3h.6v1.7H7.2V3.5h.6c.1 0 .2-.1.2-.3V2c0-.2-.1-.3-.3-.3h-.6V0zm0 25H3.6v-1.7h.6c.2 0 .3-.1.3-.3v-1.2c0-.2-.1-.3-.3-.3h-.5v-1.6h3.5v1.6h-.7c-.2 0-.3.1-.3.3V23c0 .2.1.3.3.3h.6V25zM3.7 0h3.5v1.7h-.7c-.1 0-.2.1-.2.3v1.2c0 .2.1.3.3.3h.6v1.7H3.7V3.5h.6c.2 0 .3-.1.3-.3V2c0-.2-.1-.3-.3-.3h-.6V0zm0 25h-.5c-1.7 0-3-1.4-3-3V3c0-1.7 1.4-3 3-3h.4v1.7h-.5c-.2 0-.3.1-.3.3v1.2c0 .2.1.3.3.3h.6v1.7h-.3c-.8 0-1.4.7-1.4 1.5v11.8c0 .8.6 1.4 1.4 1.4h.3v1.6h-.6c-.2 0-.3.1-.3.3V23c0 .2.1.3.3.3h.6V25z"/><path fill="#FC731F" d="M18.7 13l-7 4c-.6.3-1.2 0-1.2-.7V8.5c0-.7.5-1 1.2-.7l7 4c.6.3.6.9 0 1.2z"/></g></g></g></svg>