<svg baseProfile="tiny" xmlns="http://www.w3.org/2000/svg" preserveAspectRatio="xMinYMin meet" viewBox="0 0 800 200" width="800" height="200"><path fill="#C77946" d="M37.9 53.7c-2 3-5.9 3.1-8.8 1.8-5.3-2.4-8.8-5.9-10.4-10.3-.1 0-.2 0-.3.1l-.9.2c-.6.2-1.1.5-1.6.8-.5.3-1 .8-1.3 1.2-.4.5-.7 1-.9 1.6.1-.6.3-1.2.6-1.8.3-.6.7-1.1 1.2-1.6s1-.9 1.6-1.2c.3-.2.6-.3.9-.4l.3-.1c-.2-1.3.2-2.5.9-3.3-.3-.3-.6-.7-.8-1-.4-.4-.8-.9-1.3-1.3-.9-.8-1.9-1.5-2.9-2.1 1.2.4 2.3.9 3.3 1.6l1.6 1c.4.3.7.5 1 .8.4-.3.7-.5 1.1-.6v-1c0-.4.1-.7.2-1.1.2-.7.5-1.4.9-2 .4-.6.9-1.1 1.5-1.6.6-.4 1.2-.8 1.8-1-.6.4-1.1.8-1.6 1.3s-.8 1.1-1.1 1.6c-.3.6-.4 1.2-.5 1.9v1c0 .2 0 .3.1.5v.3c.3 0 .6.2.9.4.1-.1.2-.2.3-.2.3-.2.7-.4 1.1-.5.7-.2 1.5-.3 2.2-.4 1.5 0 2.9.3 4.2.7-1.4-.2-2.8-.2-4.1 0-.7.1-1.3.3-1.9.6-.3.1-.5.3-.8.5-.1.1-.2.2-.3.2 5 7 8.6 3.1 12 5.1 2.9 1.5 3.9 5.3 1.8 8.3zm-1-5.2c-.2-1.1-.9-2.1-1.9-2.7-.6-.4-1.3-.5-2.2-.5h-1.5c-2.7 0-5.6-.7-8.7-5.5-.1-.1-.2-.2-.4-.2-.5 0-1.4.4-2 1.2-.4.5-.9 1.5-.5 2.8 1.3 4.2 4.5 7.5 9.5 9.8 1 .4 2 .7 3 .7 1.2 0 2.9-.3 3.9-1.9.8-1.2 1-2.5.8-3.7zm-1.5-11c-.4.6-.8 1.2-1.3 1.7-.3.4-.6.8-1 1.1-1 1-2.1 1.9-3.3 2.7l1.5-1.5c.5-.5 1-1 1.4-1.6.4-.5.8-1.1 1.2-1.7.3-.6.6-1.2.6-1.8.1-.6 0-1.2-.3-1.8-.3-.6-.6-1.1-1.1-1.6-.9-1-2-1.7-3.2-2.3-2.4-1.1-5.2-1.3-7.8-.9-2.6.4-5.1 1.6-7.2 3.2-2.1 1.7-3.7 3.8-4.7 6.3s-1.4 5.2-.9 7.8c.2 1.3.7 2.6 1.4 3.7s1.6 2.2 2.7 2.7c.6.3 1.2.3 1.8.3.6-.1 1.3-.3 1.9-.6.6-.3 1.2-.6 1.8-1 .6-.4 1.2-.8 1.7-1.2-.7.7-1.4 1.3-2.1 1.9-.6.5-1.1.9-1.8 1.3-.8.4-1.7.8-2.6.9-1.9.4-3.8 0-5.5-.8-1.7-.8-3.2-2-4.5-3.4-1.3-1.4-2.3-3.1-2.9-4.9-.6-1.8-.9-3.8-.8-5.7.1-1.9.5-3.8 1.1-5.6.6-1.8 1.5-3.5 2.6-5.1 1.1-1.6 2.3-3 3.8-4.2 3-2.4 6.7-3.9 10.4-4.4 1.9-.2 3.8-.2 5.7.1.9.2 1.9.4 2.8.7.9.3 1.8.7 2.6 1.2 1.7.9 3.2 2.2 4.4 3.7 1.2 1.5 2.1 3.2 2.5 5.1.2 1 .2 1.9 0 2.9-.1 1.1-.4 2-.9 2.8z"/><path fill="#6B5B87" d="M64.8 8.2l-.2-.2c-1.4-.3-3.2-.6-4.3-.3.6 1.3.7 2.8.4 4.4l-.2 1.1-1.1.2c-1.6.2-3.1 0-4.4-.6-.5.8-.5 2.9-.3 4.3 4.3 10.1-20.9 24.1-7.9 37.4 7 7.1 19.2 1.4 25.3-8.9 5.2-9 6.6-23.6-7.3-37.4z"/><path fill="#fff" d="M66.2 44.5c-5.1 10-13.2 10.6-17.5 5.5-6.7-8 6.6-17 9.2-26.6.8-3 1.1-7 4-4.7 6.7 5.4 7.4 19.6 4.3 25.8z"/><path fill="#33B11A" d="M53.9 4.4c-1-.9-2.2-1.7-3.6-1.9-1-.1-2.6.1-4.1 1.6-.5.5-.5 1.3 0 1.7.5.5 1.2.4 1.7 0 .7-.7 1.3-1 2-.9.8.1 1.5.5 2.2 1.1-2.1 2.8-2 6.8.5 9.4 2.3 2.4-.5-1.9 1.5-5.4.1.1.1.2.2.2 1.2 1.3 3 1.8 4.8 1.5.4-1.8 0-3.6-1.3-4.9l-.2-.2c3.6-1.8 7.8 1.2 5.5-1.2-2.4-2.5-6.3-2.9-9.2-1z"/><g transform="translate(200)"><path fill="#FDE4A9" d="M14.1 53.5l-.2-8.9v-8.9l-3.4-2.7.9-4.6s2.1-.5 3-.5h13l6.2.2 5.3.9 4.1 1.6v2.7l-.5 2.7-1.4 1.6-2.1.5.2 16.9s0 1.4-1.1 1.4c-1.2.1-8.5.5-8.5.5l-8.7-.9-4.7-1.1-2.1-1.4z"/><path fill="#C77946" d="M52.1 30.8c-.5.5-1.2.9-1.9 1v14.3c0 1.1-.5 2.1-1.3 2.8l-9.3 8.5c-.7.6-1.6 1-2.6 1h-.3l-20.3-1.7c-2.2-.2-3.9-2-3.9-4.2v-16c-1.9-.4-3.3-2.1-3.3-4.1v-2.3c0-1.5.8-2.9 2.1-3.5l11.7-5.6c.2-.2.5-.3.8-.4.4-.1.7-.2 1.2-.2h.3l24.3 2c2 .2 3.5 1.8 3.5 3.8v2.1c.1 1-.3 1.9-1 2.5zm-10.4 1.8c0-.9-.7-1.7-1.6-1.8l-26.7-2.2c-.9-.1-1.6.6-1.6 1.5v2.3c0 .9.7 1.7 1.6 1.8 1 .1 1.6.8 1.6 1.8v16.5c0 .9.7 1.7 1.6 1.8l20.2 1.6c.9.1 1.6-.6 1.6-1.5v-16.5c0-1 .6-1.6 1.6-1.6.9.1 1.6-.6 1.6-1.5l.1-2.2zm-8.5 16.6c-.3 0-.6-.3-.6-.6s.3-.6.6-.6.6.3.6.6-.3.6-.6.6zm-3.4-8.2c-.7 0-1.2-.6-1.2-1.2 0-.7.6-1.2 1.2-1.2.7 0 1.2.6 1.2 1.2s-.5 1.2-1.2 1.2zm-2.2-7.2c-.5 0-.9-.4-.9-.9s.4-.9.9-.9.9.4.9.9-.4.9-.9.9zm-3.9 11c-.4 0-.8-.3-.8-.8 0-.4.3-.8.8-.8.4 0 .8.3.8.8-.1.4-.4.8-.8.8zm.1 5.8c0 .9-.7 1.6-1.6 1.6s-1.6-.7-1.6-1.6c0-.9.7-1.6 1.6-1.6.9 0 1.6.7 1.6 1.6zm-3.3-12.2c-.8 0-1.4-.6-1.4-1.4 0-.8.6-1.4 1.4-1.4s1.4.6 1.4 1.4c.1.8-.6 1.4-1.4 1.4z"/><path fill="#FFCB5A" d="M89.9 30.7c-2-3.8-7.3-5.3-13.8-4.5 1.3.6 2.6 1.3 3.8 2.3.7.5.8 1.5.3 2.1-.3.4-.7.6-1.2.6-.3 0-.6-.1-.9-.3-3.6-2.8-7.4-3.2-10.6-2.5-1.3.5-2.6 1.1-4 1.7-.2.1-.3.2-.4.3-.2.2-.4.2-.7.3h-.1c3.3.3 6.6 1.8 8.9 4.4.5.6.5 1.6-.1 2.1-.3.3-.6.4-1 .4s-.8-.2-1.1-.5c-3.2-3.6-8.8-4.5-13-2.4-2 1.5-3.7 3.1-5.2 4.7 4.8-1.2 10 .3 13.2 4.2.5.6.4 1.6-.2 2.1-.6.5-1.6.4-2.1-.2-3.5-4.2-9.9-4.7-14.5-1.1-1.7 3.3-2 6.4-.7 8.9 3.3 6.3 15.6 6.3 27.6 0s19.1-16.4 15.8-22.6z"/></g><g transform="translate(400)"><path fill="#2CB5F5" d="M19.8 20.1l6.2-9.3 7.7 5.2-13.9 4.1zm-8.9-19.4l13.9 3.2.2 4.3-14.1-4v-3.5zm7.1 19.6l-16.7-4.4 9-9.9 13.5 4.2-5.8 10.1zm-.1 40.3l-17.8-6.3-.1-36.7 17.7 5.1.2 37.9z"/><path fill="#72DAFC" d="M19.8 22.5l14.2-4.3-.1 35.7-14 6.5-.1-37.9z"/><path fill="#fff" d="M3.8 40.1l2.1 1.2v-7.3l2.1 6 2.1 1.2 2.2-5v7.8l2.1 1.2v-11l-3-1.1-2.4 4.2-2.3-6.4-3-1.2v10.4z"/><path fill="#95D34D" d="M51.6 28.9l5.2-7.8 6.4 4.4-11.6 3.4zm-7.4-16.2l11.7 2.7.2 3.6-11.8-3.4v-2.9zm5.9 16.4l-14-3.7 7.6-8.3 11.3 3.5-4.9 8.5zm-.1 33.9l-14.9-5.3v-30.8l14.8 4.3.1 31.8z"/><path fill="#CDF999" d="M51.6 30.9l12.2-3.6-.2 29.9-11.8 5.4-.2-31.7z"/><path fill="#fff" d="M39 36.9l2.6.8-.1 3.8 3-2.8 2.6.7-3.5 3.9 3.1 7.4-2.9-1.3-2.3-5.7.1 4.8-2.6-1.1v-10.5z"/></g><g transform="translate(600)"><path fill="#BF6D36" d="M33.1 13.7c-1.2-.7-5.9-4.2-7.4-4.2 1.6 1.8 2.3 4.1 2.3 4.1h-1.8s-2.5 0-6.9 1.1c.4.9 3.1.5 4.9 1.4-5.6 3.5-9.5 10.5-9.5 18.5 0 1.7.2 3.3.5 4.9.5-.7 1.2-1.3 1.9-1.8-.1-1-.2-2-.2-3.1 0-7 3.2-13.1 8-16.4-.4 1.1-.9 1.9-.9 1.9s2.7-3 4.6-3c1.4 0 1.3 1.2 1.2 1.9.3-.6 1-1.4 3.1-1.4 2.6 0 2.8 1.4 2.9 1.9l.2-3s3.2 1.2 3.7 2.3c.3.7 0-.4-.2-1.3 5.3 3 8.9 9.5 8.9 17 0 1.2-.1 2.3-.3 3.4.7.6 1.3 1.2 1.8 2 .4-1.7.6-3.5.6-5.4 0-6.6-2.6-12.5-6.7-16.4-.3-1.5-3.1-3.4-3.1-3.4s2.7-1.6 3.9-1.2c-1.6-.9-7.1.5-7.1.5l-.9-2-.6 2.1h-.1c-.4-.5-2.5-2.6-4.5-2.9-.2.7 2.4 1.2 2 2.6-.1-.1-.2-.1-.3-.1zm6.4 9.7c-2.3 0-4.1 2.3-4.1 5.1s1.8 5.1 4.1 5.1 4.1-2.3 4.1-5.1-1.8-5.1-4.1-5.1zm-.1 8.8c-1.3 0-2.4-1.1-2.4-2.4 0-1.3 1.1-2.4 2.4-2.4 1.3 0 2.4 1.1 2.4 2.4 0 1.3-1.1 2.4-2.4 2.4zm-13.9-9.1c-2.3 0-4.1 2.3-4.1 5.1s1.8 5.1 4.1 5.1 4.1-2.3 4.1-5.1-1.8-5.1-4.1-5.1zm.1 8.7c-1.3 0-2.4-1.1-2.4-2.4s1.1-2.4 2.4-2.4c1.3 0 2.4 1.1 2.4 2.4s-1.1 2.4-2.4 2.4zm4.1-12.7c-.1.3-.1.6-.1.6s.1-.3.1-.6zm6 .5v.2-.2zm7.2-7.7c1 0 1.8.2 2.3.5.6.3.8.9.7 1.5l2.2-1.3c0-3.4-1.5-6.7-4.3-8.9l-1.1-.9c-1.3-.6-2.3.3-1.4 1.4 2.3 2.8 2.6 5.2 1.6 7.7zm-23.9 1.4c1.4-.3 2.6-.6 3.6-.7-1.4-2.8-1.3-5.4 1.3-8.4.9-1.1-.1-1.9-1.4-1.4l-1.1.9c-2.8 2.2-4.2 5.4-4.3 8.7l1.8 1c-.1 0 0-.1.1-.1zm2.2 3.3c-5.9-4-15.9-9.4-18.7-3.1-3 6.3 5.7 9.2 13.7 9.3 1.3-2.4 3-4.5 5-6.2zm41.9-3c-2.8-6.5-13.1-.8-18.9 3.2 1.9 1.7 3.5 3.7 4.8 6.1 8.1-.1 17.1-3 14.1-9.3z"/><path fill="#FFCB5A" d="M32.6 56.7c-1 0-1.9-.1-2.8-.3l-1.2.4c1.3.4 2.7.6 4.1.6 1.3 0 2.6-.2 3.8-.5-.5-.1-.9-.2-1.3-.4-1 .1-1.8.2-2.6.2zm12.6-17.8c-2.6-1.9-7.4-3.1-12.9-3.1s-10.3 1.2-12.9 3.1c-3.1 1.7-5.2 4.7-5.2 8.1 0 5.3 5 9.6 11.3 9.6 2.6 0 4.9-.7 6.8-2 1.9 1.2 4.2 2 6.8 2 6.2 0 11.3-4.3 11.3-9.6 0-3.4-2.1-6.4-5.2-8.1zm-19.1 10.1c-.5 1.8-2.8 2.7-5 2-2.2-.7-3.6-2.7-3-4.5.5-1.8 2.8-2.7 5-2 2.2.7 3.6 2.7 3 4.5zm18.1 2c-2.2.7-4.5-.2-5-2s.8-3.8 3-4.5c2.2-.7 4.5.2 5 2 .6 1.8-.8 3.8-3 4.5z"/><path fill="#FD9652" d="M89 21.6s.4 3.4-2.4 5.5-4.7 2.7-6.7 2.8c-1.9.1-4.2-.4-5.7-1.4-1.5-.9-2.4-1.4-3.4-3.2s-1.1-2.4-1.4-4.2c-.3-1.8-.5-2.5-1.3-2.7-.8-.2-1.3.2-1.6.5-.3.3-.6 1.5-.6 1.5s-1.6.5-1.5 1.8c.1 1.3.8 1.6.8 1.6s-.9.7-.8 1.6c.1.9.8 1.5.8 1.5s-.8.6-.7 1.9c.1 1.3.4.7.7 1.3-.6.7-1 1.4-.8 2.2.3.8 1.4 1.3 1.4 1.3s.4 3.2 1 4.7c.7 1.5 3.1 5.1 5.3 6.3 2.2 1.2 3.9 1.8 6.2 1.9-.1.9.2 1.8.6 2.3.5.7 1 1.6 2.5 1.8.1.7.1 2.2.1 2.2s-1.6.2-1.7.6c-.2.4.2.6.5.6.4 0 1.6-.5 2.3-.5.7 0 2.8.3 3.2.4.5.1.6-.3.6-.3s-.1-.6-.3-.6c-.2 0-1.2-.2-1.2-.2l-1.1-.1h-.7l.1-2.3s.9-.3 1.7-1.1c.8-.8 1.2-1.9 1.1-3.1 1.1-.4 4.5-1.5 5.9-2.8 1.4-1.3 3-3.1 3.8-4.7.7-1.7 1.4-3.8 1.3-7l-.2-6.4 3.3-2.2-3.4-1.7s2.3-1.5 1.4-3c-.9-1.6-2.2-.8-2.2-.8s-.2-1.7-1.6-2c-1.4-.3-1.7.7-1.7.7s-1.4-1-2.3-.4c-1 .6-.9 1.7-.9 1.7s-1.4-.4-2.1.9c-.7 1.3.4 2.3.4 2.3l1.3.8z"/><path fill="#fff" d="M69.8 38.2s9 5.4 16.6 4.1c7.6-1.3 6.6-7.5 5.8-8.7-.8-1.3-3.7-3.7-7.6-2.8-3.9.9-6.5 1.7-8.5 3s-6.3 4.4-6.3 4.4zM94.4 20.7c-.6 0-1.1.5-1.1 1.1 0 .6.5 1.1 1.1 1.1.6 0 1.1-.5 1.1-1.1.1-.6-.4-1.1-1.1-1.1z"/></g></svg>