<svg baseProfile="tiny" xmlns="http://www.w3.org/2000/svg" preserveAspectRatio="xMinYMin meet" viewBox="0 0 120 700" width="120" height="700"><path fill="rgb( 210, 210, 210 )" d="M11.903 1.245c.327 0 .64.15.96.455.383.367.58.72.585 1.048.006.34-.187.713-.574 1.113-.34.35-2.995 2.977-7.893 7.8l-.372.37c-.56.175-.882-.51-1.9-.18.33-1.08-.302-1.27-.127-1.888 1.046-1.045 7.967-7.955 8.23-8.215.05-.05.52-.5 1.094-.5m0-1.218C10.89.026 10.15.68 9.95.88c-.286.282-8.364 8.35-8.364 8.35-.063.063-.11.142-.133.23-.22.808-1.316 3.898-1.327 3.934-.056.184-.005.384.13.518.097.098.227.15.36.15.052 0 .105-.01.157-.025.037-.012 3.742-.71 4.35-.892.082-.023.155-.067.215-.125.385-.38 7.81-7.69 8.41-8.31.622-.642.93-1.31.92-1.983-.012-.667-.336-1.308-.96-1.907-.55-.527-1.158-.794-1.805-.794z"/><g transform="translate(0 40)"><path fill="rgb( 255, 255, 255 )" d="M11.903 1.245c.327 0 .64.15.96.455.383.367.58.72.585 1.048.006.34-.187.713-.574 1.113-.34.35-2.995 2.977-7.893 7.8l-.372.37c-.56.175-.882-.51-1.9-.18.33-1.08-.302-1.27-.127-1.888 1.046-1.045 7.967-7.955 8.23-8.215.05-.05.52-.5 1.094-.5m0-1.218C10.89.026 10.15.68 9.95.88c-.286.282-8.364 8.35-8.364 8.35-.063.063-.11.142-.133.23-.22.808-1.316 3.898-1.327 3.934-.056.184-.005.384.13.518.097.098.227.15.36.15.052 0 .105-.01.157-.025.037-.012 3.742-.71 4.35-.892.082-.023.155-.067.215-.125.385-.38 7.81-7.69 8.41-8.31.622-.642.93-1.31.92-1.983-.012-.667-.336-1.308-.96-1.907-.55-.527-1.158-.794-1.805-.794z"/></g><g transform="translate(0 80)"><path fill="rgb( 102, 102, 102 )" d="M11.903 1.245c.327 0 .64.15.96.455.383.367.58.72.585 1.048.006.34-.187.713-.574 1.113-.34.35-2.995 2.977-7.893 7.8l-.372.37c-.56.175-.882-.51-1.9-.18.33-1.08-.302-1.27-.127-1.888 1.046-1.045 7.967-7.955 8.23-8.215.05-.05.52-.5 1.094-.5m0-1.218C10.89.026 10.15.68 9.95.88c-.286.282-8.364 8.35-8.364 8.35-.063.063-.11.142-.133.23-.22.808-1.316 3.898-1.327 3.934-.056.184-.005.384.13.518.097.098.227.15.36.15.052 0 .105-.01.157-.025.037-.012 3.742-.71 4.35-.892.082-.023.155-.067.215-.125.385-.38 7.81-7.69 8.41-8.31.622-.642.93-1.31.92-1.983-.012-.667-.336-1.308-.96-1.907-.55-.527-1.158-.794-1.805-.794z"/></g><g transform="translate(0 120)"><path fill="rgb( 210, 210, 210 )" d="M31.307 3.953c.845 0 1.66.386 2.486 1.18.988.946 1.497 1.858 1.51 2.708.016.88-.484 1.847-1.485 2.88-.878.907-7.744 7.69-20.41 20.17l-.97.955c-1.45.45-2.282-1.32-4.91-.473.847-2.793-.785-3.282-.332-4.88C9.903 23.787 27.8 5.918 28.48 5.247c.132-.132 1.34-1.293 2.827-1.293m0-3.15c-2.62 0-4.53 1.69-5.052 2.21C25.518 3.74 4.63 24.6 4.63 24.6c-.165.167-.285.37-.346.597-.566 2.09-3.402 10.08-3.43 10.172-.146.474-.015.992.335 1.34.25.25.584.384.93.384.134 0 .27-.02.404-.062.096-.032 9.676-1.836 11.253-2.306.207-.06.396-.174.55-.326.996-.98 20.197-19.883 21.75-21.49 1.608-1.656 2.407-3.38 2.376-5.124-.03-1.724-.868-3.383-2.482-4.93C34.553 1.493 32.983.8 31.308.8z"/></g><g transform="translate(0 180)"><path fill="rgb( 102, 102, 102 )" d="M31.307 3.953c.845 0 1.66.386 2.486 1.18.988.946 1.497 1.858 1.51 2.708.016.88-.484 1.847-1.485 2.88-.878.907-7.744 7.69-20.41 20.17l-.97.955c-1.45.45-2.282-1.32-4.91-.473.847-2.793-.785-3.282-.332-4.88C9.903 23.787 27.8 5.918 28.48 5.247c.132-.132 1.34-1.293 2.827-1.293m0-3.15c-2.62 0-4.53 1.69-5.052 2.21C25.518 3.74 4.63 24.6 4.63 24.6c-.165.167-.285.37-.346.597-.566 2.09-3.402 10.08-3.43 10.172-.146.474-.015.992.335 1.34.25.25.584.384.93.384.134 0 .27-.02.404-.062.096-.032 9.676-1.836 11.253-2.306.207-.06.396-.174.55-.326.996-.98 20.197-19.883 21.75-21.49 1.608-1.656 2.407-3.38 2.376-5.124-.03-1.724-.868-3.383-2.482-4.93C34.553 1.493 32.983.8 31.308.8z"/></g><g transform="translate(0 240)"><path fill="rgb( 17, 156, 221 )" d="M25.5 8C23.567 8 22 6.43 22 4.5 22 2.565 23.567 1 25.5 1S29 2.565 29 4.5C29 6.43 27.433 8 25.5 8zm-11 0C12.567 8 11 6.43 11 4.5 11 2.565 12.567 1 14.5 1S18 2.565 18 4.5C18 6.43 16.433 8 14.5 8zm-11 0C1.567 8 0 6.43 0 4.5 0 2.565 1.567 1 3.5 1S7 2.565 7 4.5C7 6.43 5.433 8 3.5 8z"/></g><g transform="translate(0 280)"><path fill="rgb( 241, 117, 4 )" d="M25.5 8C23.567 8 22 6.43 22 4.5 22 2.565 23.567 1 25.5 1S29 2.565 29 4.5C29 6.43 27.433 8 25.5 8zm-11 0C12.567 8 11 6.43 11 4.5 11 2.565 12.567 1 14.5 1S18 2.565 18 4.5C18 6.43 16.433 8 14.5 8zm-11 0C1.567 8 0 6.43 0 4.5 0 2.565 1.567 1 3.5 1S7 2.565 7 4.5C7 6.43 5.433 8 3.5 8z"/></g><g transform="translate(0 320)"><path fill="rgb( 255, 255, 255 )" d="M49.704 11.788c-10.493 0-19.995 4.255-26.874 11.133C15.952 29.8 11.697 39.3 11.697 49.8c0 10.493 4.255 19.995 11.133 26.873 6.88 6.88 16.38 11.134 26.874 11.134s19.996-4.26 26.876-11.14c6.877-6.877 11.132-16.38 11.132-26.872 0-10.494-4.255-19.995-11.133-26.874-6.88-6.873-16.386-11.13-26.88-11.13zm-34.62 3.386C23.944 6.312 36.184.83 49.704.83c13.52 0 25.76 5.482 34.62 14.344 8.86 8.86 14.344 21.102 14.344 34.62 0 13.52-5.483 25.76-14.344 34.622-8.86 8.862-21.103 14.343-34.622 14.343-13.518 0-25.76-5.486-34.62-14.348C6.22 75.552.74 63.312.74 49.792c0-13.52 5.482-25.76 14.343-34.62zm57.05 40.506c-3.63 3.016-25.814 19.313-25.814 19.313s-10.067 1.403-10.28-4.74c-.215-6.145-.02-38.442-.02-38.442s1.732-7.794 10.125-4.3C50.183 30.5 72.66 47.96 72.66 47.96s3.485 4.39-.53 7.725zM45.78 39.566l.204 23.7 15.374-11.78-15.578-11.92z"/></g><g transform="translate(0 440)"><path fill="rgb( 255, 255, 255 )" d="M12.017 7h-5v5.062H5V7H0V5h5V.015h2.017v4.983h5v2z"/></g><g transform="translate(0 480)"><path fill="rgb( 255, 255, 255 )" d="M84.326 84.416c-8.86 8.86-21.103 14.343-34.622 14.343-13.518 0-25.76-5.487-34.62-14.348C6.22 75.552.74 63.312.74 49.792c0-13.52 5.482-25.76 14.343-34.62C23.945 6.317 36.186.83 49.703.83c13.52 0 25.762 5.483 34.623 14.344 8.86 8.86 14.343 21.102 14.343 34.62 0 13.52-5.487 25.76-14.348 34.622zM76.58 22.92c-6.88-6.876-16.383-11.13-26.877-11.13-10.493 0-19.995 4.255-26.874 11.133-6.88 6.88-11.137 16.38-11.137 26.875 0 10.493 4.255 19.995 11.133 26.874C29.71 83.546 39.21 87.8 49.703 87.8S69.7 83.547 76.58 76.67c6.877-6.88 11.132-16.382 11.132-26.875 0-10.494-4.255-19.995-11.133-26.874zm-8.922 32.165H55.31v12.853c0 2.946-2.41 5.356-5.355 5.356h-.8c-2.947 0-5.356-2.41-5.356-5.356V55.085H30.98c-2.946 0-5.356-2.02-5.356-4.966v-.806c0-2.946 2.41-5.355 5.355-5.355h12.814V31.263c0-2.946 2.408-5.356 5.354-5.356h.8c2.946 0 5.355 2.41 5.355 5.355V43.96H67.65c2.947 0 5.356 2.41 5.356 5.355v.8c0 2.947-2.41 4.967-5.355 4.967z"/></g><g transform="translate(0 600)"><path fill="#73C869" d="M9.5 47.9c-3.8-.4-5.8-1.7-7.6-3.1-1.5 2.5-1.1 5-.2 6.5 0 0 .5 1 7.7.3l.1-3.7z"/><path fill="#64B9EB" d="M9.3 53.2c-3.1.3-4.6.6-7.4-.3-.8 2.6-.5 3.6.8 5.6 0 0 2.9 1.1 6.8-1l-.2-4.3z"/><path fill="#FF8232" d="M9.3 59.1c-2.5 1-3.8 1.6-6.4 1.2-.5 1.3-.9 3.4.5 5.1 1.3-.2 3.1.3 6.4-1.8l-.5-4.5z"/><path fill="#AA96D2" d="M10.6 65.3c-1.7 1.1-4.7 1.4-6.9 1.4-.8 2.4-.6 3.4 1 4.9 1.2-.2 2.9 0 6.3-2.5l-.4-3.8z"/><path fill="#FF8232" d="M30.6 27.3l11-5.3s.3 6.1-.7 10.4c-.9 3.5-10.3-5.1-10.3-5.1z"/><path fill="#FFD72C" d="M31.6 26.6l10-4.7-4.8 7.6z"/><path fill="#FFE641" d="M54.2 45.1c-.3-2.9-2.4-3.9-5.3-6.4-2.9-2.5-4.6-12.2-19.4-14.4-3.6-5.6-8.3-12.3-8.3-12.3l-1.3 13.2-7-10.8-1.2 15.4-8.9-3.3s-4.3 13 5.1 17c0 0-.1 33.4 0 36.5h17.5c0-4.9-.1-19.7-.1-19.7s6.7 4.9 15.2-2.1c4.3 1.4 7.6-.9 9.9-3.6 3.1-2.3 4.2-5.5 3.8-9.5"/><path fill="#C3640F" d="M7.6 5.1l5.8-2.2-.7 10.4zM17 2.7L22.8.2l-2 10.5z"/><path fill="#FF8232" fill-opacity=".502" d="M7.9 49.7l4.3 5.6-4.3 6.3zm.1 14l5.5 8.5-3.4 5c-1.8-1.1-2.2-3.8-2.2-3.8l.1-9.7zm3.2-.9l3-3.7 3.4 4.2-3.3 3.8z"/><path fill="#fff" d="M28.1 31c3.5 0 6.3 2.8 6.3 6.3s-2.8 6.3-6.3 6.3-6.3-2.8-6.3-6.3c.1-3.5 2.9-6.3 6.3-6.3z"/><circle fill="#333" cx="27.7" cy="35.9" r="3.9"/><path fill="#fff" d="M26.9 32.9c.9 0 1.6.7 1.6 1.6 0 .9-.7 1.6-1.6 1.6-.9 0-1.6-.7-1.6-1.6 0-.9.7-1.6 1.6-1.6z"/><path fill="#C3640F" d="M46.5 45.5c1.4 0 2.6 1.2 2.6 2.6 0 1.4-1.2 2.6-2.6 2.6-1.4 0-2.6-1.2-2.6-2.6 0-1.5 1.2-2.6 2.6-2.6z"/><path fill="#FF8232" d="M40.5 58.1l-5.3-3.8 2.5 5.9zM3 26.5l7.4 10.4S7.3 38 7.9 44.7C2.8 42.3-2.4 35.8 3 26.5z"/></g></svg>