<svg baseProfile="tiny" xmlns="http://www.w3.org/2000/svg" preserveAspectRatio="xMinYMin meet" viewBox="0 0 120 460" width="120" height="460"><path fill="rgb( 17, 156, 221 )" d="M25.5 8C23.567 8 22 6.43 22 4.5 22 2.565 23.567 1 25.5 1S29 2.565 29 4.5C29 6.43 27.433 8 25.5 8zm-11 0C12.567 8 11 6.43 11 4.5 11 2.565 12.567 1 14.5 1S18 2.565 18 4.5C18 6.43 16.433 8 14.5 8zm-11 0C1.567 8 0 6.43 0 4.5 0 2.565 1.567 1 3.5 1S7 2.565 7 4.5C7 6.43 5.433 8 3.5 8z"/><g transform="translate(0 40)"><path fill="rgb( 241, 117, 4 )" d="M25.5 8C23.567 8 22 6.43 22 4.5 22 2.565 23.567 1 25.5 1S29 2.565 29 4.5C29 6.43 27.433 8 25.5 8zm-11 0C12.567 8 11 6.43 11 4.5 11 2.565 12.567 1 14.5 1S18 2.565 18 4.5C18 6.43 16.433 8 14.5 8zm-11 0C1.567 8 0 6.43 0 4.5 0 2.565 1.567 1 3.5 1S7 2.565 7 4.5C7 6.43 5.433 8 3.5 8z"/></g><g transform="translate(0 80)"><path fill="rgb( 255, 255, 255 )" d="M49.704 11.788c-10.493 0-19.995 4.255-26.874 11.133-6.878 6.88-11.133 16.38-11.133 26.876 0 10.493 4.255 19.995 11.133 26.873 6.88 6.88 16.38 11.133 26.874 11.133S69.7 83.547 76.58 76.668c6.877-6.878 11.132-16.38 11.132-26.873 0-10.494-4.255-19.995-11.133-26.874-6.88-6.876-16.383-11.13-26.877-11.13zm-34.62 3.386C23.944 6.312 36.184.83 49.704.83c13.52 0 25.76 5.482 34.62 14.344 8.86 8.86 14.344 21.102 14.344 34.62 0 13.52-5.483 25.76-14.344 34.622-8.86 8.862-21.103 14.343-34.622 14.343-13.518 0-25.76-5.483-34.62-14.345C6.22 75.555.74 63.313.74 49.795c0-13.52 5.482-25.76 14.343-34.62zm57.05 40.506c-3.63 3.016-25.814 19.313-25.814 19.313s-10.067 1.403-10.28-4.74c-.215-6.145-.02-38.442-.02-38.442s1.732-7.797 10.125-4.3c4.038 2.987 26.514 20.447 26.514 20.447s3.486 4.39-.528 7.725zM45.78 39.566l.204 23.7 15.374-11.78-15.578-11.92z"/></g><g transform="translate(0 200)"><path fill="rgb( 255, 255, 255 )" d="M12.017 7h-5v5.062H5V7H0V5h5V.015h2.017V5h5v2z"/></g><g transform="translate(0 240)"><path fill="rgb( 255, 255, 255 )" d="M84.326 84.416c-8.86 8.86-21.103 14.343-34.622 14.343-13.518 0-25.76-5.484-34.62-14.345C6.22 75.555.74 63.313.74 49.795c0-13.52 5.482-25.76 14.343-34.62C23.945 6.314 36.186.83 49.703.83c13.52 0 25.762 5.483 34.623 14.344 8.86 8.86 14.343 21.102 14.343 34.62 0 13.52-5.484 25.76-14.345 34.622zM76.58 22.92c-6.88-6.876-16.383-11.13-26.877-11.13-10.493 0-19.995 4.255-26.874 11.133-6.88 6.88-11.134 16.38-11.134 26.875 0 10.493 4.255 19.995 11.133 26.874C29.71 83.546 39.21 87.8 49.703 87.8S69.7 83.547 76.58 76.67c6.877-6.88 11.132-16.382 11.132-26.875 0-10.494-4.255-19.995-11.133-26.874zm-8.922 32.165H55.31v12.853c0 2.946-2.41 5.356-5.355 5.356h-.8c-2.947 0-5.356-2.41-5.356-5.356V55.085H30.984c-2.946 0-5.356-2.02-5.356-4.966v-.803c0-2.946 2.41-5.355 5.355-5.355H43.8V31.266c0-2.946 2.408-5.356 5.354-5.356h.8c2.947 0 5.356 2.41 5.356 5.356v12.697h12.348c2.946 0 5.355 2.41 5.355 5.355v.8c0 2.947-2.41 4.967-5.355 4.967z"/></g><g transform="translate(0 360)"><path fill="#73C869" d="M9.5 47.9c-3.8-.4-5.8-1.7-7.6-3.1-1.5 2.5-1.1 5-.2 6.5 0 0 .5 1 7.7.3l.1-3.7z"/><path fill="#64B9EB" d="M9.3 53.2c-3.1.3-4.6.6-7.4-.3-.8 2.6-.5 3.6.8 5.6 0 0 2.9 1.1 6.8-1l-.2-4.3z"/><path fill="#FF8232" d="M9.3 59.1c-2.5 1-3.8 1.6-6.4 1.2-.5 1.3-.9 3.4.5 5.1 1.3-.2 3.1.3 6.4-1.8l-.5-4.5z"/><path fill="#AA96D2" d="M10.6 65.3c-1.7 1.1-4.7 1.4-6.9 1.4-.8 2.4-.6 3.4 1 4.9 1.2-.2 2.9 0 6.3-2.5l-.4-3.8z"/><path fill="#FF8232" d="M30.6 27.3l11-5.3s.3 6.1-.7 10.4c-.9 3.5-10.3-5.1-10.3-5.1z"/><path fill="#FFD72C" d="M31.6 26.6l10-4.7-4.8 7.6z"/><path fill="#FFE641" d="M54.2 45.1c-.3-2.9-2.4-3.9-5.3-6.4-2.9-2.5-4.6-12.2-19.4-14.4-3.6-5.6-8.3-12.3-8.3-12.3l-1.3 13.2-7-10.8-1.2 15.4-8.9-3.3s-4.3 13 5.1 17c0 0-.1 33.4 0 36.5h17.5c0-4.9-.1-19.7-.1-19.7s6.7 4.9 15.2-2.1c4.3 1.4 7.6-.9 9.9-3.6 3.1-2.3 4.2-5.5 3.8-9.5"/><path fill="#C3640F" d="M7.6 5.1l5.8-2.2-.7 10.4zM17 2.7L22.8.2l-2 10.5z"/><path fill="#FF8232" fill-opacity=".502" d="M7.9 49.7l4.3 5.6-4.3 6.3zm.1 14l5.5 8.5-3.4 5c-1.8-1.1-2.2-3.8-2.2-3.8l.1-9.7zm3.2-.9l3-3.7 3.4 4.2-3.3 3.8z"/><path fill="#fff" d="M28.1 31c3.5 0 6.3 2.8 6.3 6.3s-2.8 6.3-6.3 6.3-6.3-2.8-6.3-6.3c.1-3.5 2.9-6.3 6.3-6.3z"/><circle fill="#333" cx="27.7" cy="35.9" r="3.9"/><path fill="#fff" d="M26.9 32.9c.9 0 1.6.7 1.6 1.6 0 .9-.7 1.6-1.6 1.6-.9 0-1.6-.7-1.6-1.6 0-.9.7-1.6 1.6-1.6z"/><path fill="#C3640F" d="M46.5 45.5c1.4 0 2.6 1.2 2.6 2.6 0 1.4-1.2 2.6-2.6 2.6-1.4 0-2.6-1.2-2.6-2.6 0-1.5 1.2-2.6 2.6-2.6z"/><path fill="#FF8232" d="M40.5 58.1l-5.3-3.8 2.5 5.9zM3 26.5l7.4 10.4S7.3 38 7.9 44.7C2.8 42.3-2.4 35.8 3 26.5z"/></g></svg>