<svg baseProfile="tiny" xmlns="http://www.w3.org/2000/svg" preserveAspectRatio="xMinYMin meet" viewBox="0 0 120 320" width="120" height="320"><path fill="rgb( 17, 156, 221 )" d="M25.5 8C23.567 8 22 6.43 22 4.5 22 2.565 23.567 1 25.5 1S29 2.565 29 4.5C29 6.43 27.433 8 25.5 8zm-11 0C12.567 8 11 6.43 11 4.5 11 2.565 12.567 1 14.5 1S18 2.565 18 4.5C18 6.43 16.433 8 14.5 8zm-11 0C1.567 8 0 6.43 0 4.5 0 2.565 1.567 1 3.5 1S7 2.565 7 4.5C7 6.43 5.433 8 3.5 8z"/><g transform="translate(0 40)"><path fill="rgb( 255, 255, 255 )" d="M12.017 7h-5v5.062H5V7H0V5h5V.015h2.017V5h5v2z"/></g><g transform="translate(0 80)"><path fill="rgb( 255, 255, 255 )" d="M49.704 11.788c-10.493 0-19.995 4.255-26.874 11.133-6.878 6.88-11.133 16.38-11.133 26.875 0 10.493 4.255 19.995 11.133 26.873 6.88 6.88 16.38 11.134 26.874 11.134S69.7 83.547 76.58 76.668c6.877-6.878 11.132-16.38 11.132-26.873 0-10.494-4.255-19.995-11.133-26.874C69.7 16.044 60.197 11.79 49.703 11.79zm-34.62 3.386C23.943 6.312 36.185.83 49.703.83c13.52 0 25.76 5.482 34.622 14.344 8.86 8.86 14.343 21.102 14.343 34.62 0 13.52-5.483 25.76-14.344 34.622-8.86 8.862-21.103 14.343-34.622 14.343-13.518 0-25.76-5.482-34.62-14.344C6.22 75.554.74 63.313.74 49.796c0-13.52 5.482-25.76 14.343-34.622zM72.133 55.68c-3.63 3.016-25.813 19.313-25.813 19.313s-10.067 1.403-10.28-4.74c-.215-6.145-.02-38.442-.02-38.442s1.732-7.798 10.125-4.3c4.038 2.986 26.514 20.446 26.514 20.446s3.487 4.39-.527 7.725zM45.78 39.566l.204 23.7 15.374-11.78-15.578-11.92z"/></g><g transform="translate(0 200)"><path fill="rgb( 255, 255, 255 )" d="M84.326 84.416c-8.86 8.86-21.103 14.343-34.622 14.343-13.518 0-25.76-5.483-34.62-14.344C6.22 75.556.74 63.313.74 49.796c0-13.52 5.482-25.76 14.343-34.622C23.945 6.314 36.186.83 49.703.83c13.52 0 25.762 5.483 34.623 14.344 8.86 8.86 14.343 21.102 14.343 34.62 0 13.52-5.483 25.76-14.344 34.622zM76.58 22.92C69.7 16.044 60.197 11.79 49.703 11.79c-10.493 0-19.995 4.255-26.874 11.133-6.878 6.88-11.133 16.38-11.133 26.875 0 10.493 4.255 19.995 11.133 26.874C29.71 83.546 39.21 87.8 49.704 87.8S69.7 83.547 76.58 76.67c6.877-6.88 11.132-16.382 11.132-26.875 0-10.494-4.255-19.995-11.133-26.874zm-8.922 32.165H55.31v12.853c0 2.946-2.41 5.356-5.355 5.356h-.8c-2.947 0-5.356-2.41-5.356-5.356V55.085H30.985c-2.946 0-5.356-2.02-5.356-4.966v-.802c0-2.946 2.41-5.355 5.356-5.355H43.8V31.266c0-2.946 2.408-5.356 5.354-5.356h.8c2.947 0 5.356 2.41 5.356 5.356v12.697h12.348c2.946 0 5.355 2.41 5.355 5.355v.8c0 2.947-2.41 4.967-5.355 4.967z"/></g></svg>