<svg baseProfile="tiny" xmlns="http://www.w3.org/2000/svg" preserveAspectRatio="xMinYMin meet" viewBox="0 0 400 2400" width="400" height="2400"><path fill="rgb( 133, 131, 131 )" d="M6.004 4.308l3.8-3.8c.383-.382 1.002-.382 1.384 0l.346.345c.382.383.382 1.002 0 1.384L7.06 6.71c-.006.007-.01.016-.015.022l-.346.346c-.196.192-.447.287-.7.286-.25 0-.503-.094-.695-.286l-.345-.346c-.007-.006-.01-.016-.015-.023L.475 2.233c-.382-.382-.382-1 0-1.384L.82.51c.38-.382 1-.382 1.384 0l3.8 3.8z"/><path fill="#797979" d="M6.004 404.308l3.8-3.8c.383-.382 1.002-.382 1.384 0l.346.345c.382.383.382 1.002 0 1.384L7.06 406.71c-.006.007-.01.016-.015.022l-.346.346c-.196.192-.447.287-.7.286-.25 0-.503-.094-.695-.286l-.345-.346c-.007-.006-.01-.016-.015-.023l-4.47-4.476c-.382-.382-.382-1 0-1.384l.345-.342c.38-.382 1-.382 1.384 0l3.8 3.8z"/><path fill="#289fd7" d="M3.3 806l3.8 3.8c.4.4.4 1 0 1.4l-.4.3c-.4.4-1 .4-1.4 0l-4.5-4.4-.3-.4c-.2-.2-.3-.4-.3-.7 0-.3.1-.5.3-.7l.3-.3 4.5-4.5c.4-.4 1-.4 1.4 0l.3.3c.4.4.4 1 0 1.4L3.3 806z"/><path fill="#f17504" d="M3.3 1206l3.8 3.8c.4.4.4 1 0 1.4l-.4.3c-.4.4-1 .4-1.4 0l-4.5-4.4-.3-.4c-.2-.2-.3-.4-.3-.7 0-.3.1-.5.3-.7l.3-.3 4.5-4.5c.4-.4 1-.4 1.4 0l.3.3c.4.4.4 1 0 1.4l-3.7 3.8z"/><path fill="#289fd7" d="M4.6 1606l-3.8-3.8c-.4-.4-.4-1 0-1.4l.3-.3c.4-.4 1-.4 1.4 0L7 1605l.3.3c.2.2.3.4.3.7 0 .3-.1.5-.3.7l-.3.3-4.5 4.5c-.4.4-1 .4-1.4 0l-.3-.3c-.4-.4-.4-1 0-1.4l3.8-3.8z"/><path fill="#f17504" d="M4.6 2006l-3.8-3.8c-.4-.4-.4-1 0-1.4l.3-.3c.4-.4 1-.4 1.4 0L7 2005l.3.3c.2.2.3.4.3.7 0 .3-.1.5-.3.7l-.3.3-4.5 4.5c-.4.4-1 .4-1.4 0l-.3-.3c-.4-.4-.4-1 0-1.4l3.8-3.8z"/></svg>