<svg baseProfile="tiny" xmlns="http://www.w3.org/2000/svg" preserveAspectRatio="xMinYMin meet" viewBox="0 0 400 2400" width="400" height="2400"><path fill="rgb( 133, 131, 131 )" d="M6.004 4.308l3.801-3.8c.382-.382 1.001-.382 1.383 0l.346.345c.382.383.382 1.002 0 1.384l-4.474 4.472-.015.023-.346.346c-.192.192-.443.287-.695.286-.252.001-.504-.094-.696-.286l-.345-.346-.016-.023-4.472-4.472c-.382-.382-.382-1.001 0-1.384l.344-.345c.382-.382 1.002-.382 1.385 0l3.8 3.8z"/><g transform="translate(0 400)"><path fill="#797979" d="M6.004 4.308l3.801-3.8c.382-.382 1.001-.382 1.383 0l.346.345c.382.383.382 1.002 0 1.384l-4.474 4.472-.015.023-.346.346c-.192.192-.443.287-.695.286-.252.001-.504-.094-.696-.286l-.345-.346-.016-.023-4.472-4.472c-.382-.382-.382-1.001 0-1.384l.344-.345c.382-.382 1.002-.382 1.385 0l3.8 3.8z"/></g><g transform="translate(0 800)"><path fill="#858383" d="M3.3 6l3.8 3.8c.4.4.4 1 0 1.4l-.4.3c-.4.4-1 .4-1.4 0l-4.5-4.4-.3-.4c-.2-.2-.3-.4-.3-.7 0-.3.1-.5.3-.7l.3-.3 4.5-4.5c.4-.4 1-.4 1.4 0l.3.3c.4.4.4 1 0 1.4l-3.7 3.8z"/></g><g transform="translate(0 1200)"><path fill="#797979" d="M3.3 6l3.8 3.8c.4.4.4 1 0 1.4l-.4.3c-.4.4-1 .4-1.4 0l-4.5-4.4-.3-.4c-.2-.2-.3-.4-.3-.7 0-.3.1-.5.3-.7l.3-.3 4.5-4.5c.4-.4 1-.4 1.4 0l.3.3c.4.4.4 1 0 1.4l-3.7 3.8z"/></g><g transform="translate(0 1600)"><path fill="#858383" d="M4.6 6l-3.8-3.8c-.4-.4-.4-1 0-1.4l.3-.3c.4-.4 1-.4 1.4 0l4.5 4.5.3.3c.2.2.3.4.3.7 0 .3-.1.5-.3.7l-.3.3-4.5 4.5c-.4.4-1 .4-1.4 0l-.3-.3c-.4-.4-.4-1 0-1.4l3.8-3.8z"/></g><g transform="translate(0 2000)"><path fill="#797979" d="M4.6 6l-3.8-3.8c-.4-.4-.4-1 0-1.4l.3-.3c.4-.4 1-.4 1.4 0l4.5 4.5.3.3c.2.2.3.4.3.7 0 .3-.1.5-.3.7l-.3.3-4.5 4.5c-.4.4-1 .4-1.4 0l-.3-.3c-.4-.4-.4-1 0-1.4l3.8-3.8z"/></g></svg>