<svg baseProfile="tiny" xmlns="http://www.w3.org/2000/svg" preserveAspectRatio="xMinYMin meet" xmlns:xlink="http://www.w3.org/1999/xlink" viewBox="0 0 4000 200" width="4000" height="200"><path fill-rule="evenodd" clip-rule="evenodd" fill="#F5AE82" d="M52.3 45.9l-1.4-.4-8.9 13.9 1.2 1z"/><path fill-rule="evenodd" clip-rule="evenodd" fill="#FCC09A" d="M32.8 58.3h9.3c.8 0 1.4.6 1.4 1.4v5.4c0 .8-.6 1.4-1.4 1.4h-9.3c-.8 0-1.4-.6-1.4-1.4v-5.4c0-.7.7-1.4 1.4-1.4z"/><path fill-rule="evenodd" clip-rule="evenodd" fill="#F5AE82" d="M37.5 58.3h4.7c.8 0 1.4.6 1.4 1.4v5.4c0 .8-.6 1.4-1.4 1.4h-4.7v-8.2z"/><path fill-rule="evenodd" clip-rule="evenodd" fill="#FCC09A" d="M35.7 51.4h3.8c.5 0 .9.4.9.8v1.6c0 .4-.4.8-.9.8h-3.8c-.5 0-.9-.4-.9-.8v-1.6c0-.4.4-.8.9-.8z"/><path fill-rule="evenodd" clip-rule="evenodd" fill="#F5AE82" d="M37.6 51.4h1.9c.5 0 .9.4.9.8v1.6c0 .4-.4.8-.9.8h-1.9v-3.2z"/><path fill-rule="evenodd" clip-rule="evenodd" fill="#FCC09A" d="M22.9 46l1.2-.7 9.3 14.3-1.2.5z"/><path fill-rule="evenodd" clip-rule="evenodd" fill="#9ED3F2" d="M37.5 51.6c13.4 0 24.3-9.7 24.3-21.6 0-11.9-10.9-21.6-24.3-21.6s-24.3 9.7-24.3 21.6c0 11.9 10.9 21.6 24.3 21.6z"/><path fill-rule="evenodd" clip-rule="evenodd" fill="#85CA7D" d="M37.5 8.4c13.4 0 24.3 9.7 24.3 21.6 0 11.9-10.9 21.6-24.3 21.6v-43.2z"/><path fill-rule="evenodd" clip-rule="evenodd" fill="#FFEC96" d="M37.5 51.6c9.7 0 17.6-9.7 17.6-21.6 0-11.9-7.9-21.6-17.6-21.6-9.7 0-17.6 9.7-17.6 21.6 0 11.9 7.9 21.6 17.6 21.6z"/><path fill-rule="evenodd" clip-rule="evenodd" fill="#FC846A" d="M37.5 8.4c9.7 0 17.6 9.7 17.6 21.6 0 11.9-7.9 21.6-17.6 21.6v-43.2z"/><path fill-rule="evenodd" clip-rule="evenodd" fill="#C9BEED" d="M37.5 51.6c4.3 0 7.8-9.7 7.8-21.6 0-11.9-3.5-21.6-7.8-21.6s-7.8 9.7-7.8 21.6c0 11.9 3.5 21.6 7.8 21.6z"/><path fill="#FFE988" d="M24.4 27.2c1.7 0 3.1 1.3 3.1 2.8 0 1.6-1.4 2.8-3.1 2.8-1.7 0-3.1-1.3-3.1-2.8 0-1.5 1.4-2.8 3.1-2.8z"/><path fill-rule="evenodd" clip-rule="evenodd" fill="#C0B3E6" d="M37.6 8.4c4.3.1 7.7 9.7 7.7 21.6 0 11.9-3.5 21.5-7.7 21.6v-43.2z"/><g transform="translate(200)"><path opacity=".91" fill-rule="evenodd" clip-rule="evenodd" fill="#FCFCFC" d="M51.2 29l-8.5-19.5c-2.5-5.7-9-7.2-11.7.1l-7.3 19.9c-2 5.4-2.8 13.4.1 19l9.1 17.9c2.8 5.6 7.9 5.1 10.3-.2l8.3-18.3c2.5-5.3 2.2-13.2-.3-18.9z"/><path opacity=".91" fill-rule="evenodd" clip-rule="evenodd" fill="#BDB3E3" d="M21.9 38c-.5 4.7-.2 6.4 1.9 10.4l9.2 17.9c2.8 5.6 7.9 5.1 10.3-.2l8.3-18.3c1.7-3.7 2-5.2 1.6-9.9l-31.3.1z"/><path opacity=".91" fill-rule="evenodd" clip-rule="evenodd" fill="#F2F2F2" d="M37.3 4.7c2 0 3.8 1.4 5 4.2l8.3 18.3c1.7 3.7 3 6.5 2.7 11.2h-15.2l-.8-33.7z"/><path opacity=".91" fill-rule="evenodd" clip-rule="evenodd" fill="#fff" d="M37.3 35.3c2.5 0 4.6-2 4.6-4.5s-2-4.5-4.6-4.5-4.6 2-4.6 4.5 2.1 4.5 4.6 4.5zM37.3 23.3c2.5 0 4.6-2 4.6-4.5s-2-4.5-4.6-4.5-4.6 2-4.6 4.5c0 2.4 2.1 4.5 4.6 4.5z"/><path opacity=".91" fill-rule="evenodd" clip-rule="evenodd" fill="#B2A6DE" d="M37.9 70.3c2 0 4.3-1.4 5.5-4.2l8.2-18.3c1.7-3.7 2-5.2 1.6-9.9h-15.2l-.1 32.4z"/><path opacity=".91" fill-rule="evenodd" clip-rule="evenodd" fill="#FF91C8" d="M33.1 17.8h8.4c.2 0 .3.1.3.3v1.6c0 .1-.1.3-.3.3h-8.4c-.2 0-.3-.1-.3-.3v-1.6c0-.2.1-.3.3-.3zM33.1 30.1h8.4c.2 0 .3.1.3.3v1.6c0 .1-.1.3-.3.3h-8.4c-.2 0-.3-.1-.3-.3v-1.6c0-.2.1-.3.3-.3z"/></g><g transform="translate(400)"><path fill-rule="evenodd" clip-rule="evenodd" fill="#F7AD71" d="M32 53.5v9.8c0 2-1.2 3.9-3.1 3.9h-2.9c-1.9 0-3.4-1.9-3.4-3.9v-9.8h9.4z"/><path fill-rule="evenodd" clip-rule="evenodd" fill="#FEC699" d="M45.3 53.5v9.8c0 2-1.2 3.9-3.1 3.9h-2.9c-1.9 0-3.4-1.9-3.4-3.9v-9.8h9.4z"/><path fill-rule="evenodd" clip-rule="evenodd" fill="#F7AD71" d="M58.4 48.6l.1 14.8c0 2-1.2 3.9-3.1 3.9h-2.9c-1.9 0-3.4-1.9-3.4-3.9v-9.8l9.3-5z"/><path fill-rule="evenodd" clip-rule="evenodd" fill="#FEC699" d="M16.7 30.3l35.8-.1c3.3 0 6 2.7 6 6v12c0 3.3-2.7 6-6 6h-33.7v9.5c0 1.8-1.2 3.6-3.1 3.6h-2.9c-1.9 0-3.4-1.8-3.4-3.6v-46.7c0-1.8 1.5-3.3 3.4-3.3h.6c1.9 0 3.4 1.5 3.4 3.3l-.1 13.3z"/><path fill-rule="evenodd" clip-rule="evenodd" fill="#FFD2AD" d="M48.9 13.9c-1.6 0-3.2.2-4.6.7-1.9-2.1-5.8-6.2-7.5-6.7-2.2-.7-3.4 2.1-3.4 2.1l-.2 14.6c-.7 1.9-1.1 3.9-1.1 6.1 0 9.3 7.5 16.8 16.8 16.8s16.8-7.5 16.8-16.8c0-2.2-.4-4.4-1.2-6.3l-.2-14.3c-2-3.8-5-1.2-5-1.2l-6 5.5c-1.4-.3-2.9-.5-4.4-.5z"/><path fill-rule="evenodd" clip-rule="evenodd" fill="#1A8F0D" d="M41.5 30.2c1.8 0 3.2-1.5 3.2-3.2 0-1.8-1.5-3.2-3.2-3.2-1.8 0-3.2 1.5-3.2 3.2 0 1.7 1.5 3.2 3.2 3.2z"/><path fill-rule="evenodd" clip-rule="evenodd" fill="#FCC79C" d="M49 47.4c9.2 0 16.7-7.5 16.7-16.8 0-2.2-.4-4.4-1.2-6.3l-.2-14.3c-2-3.8-5-1.2-5-1.2l-6 5.5c-1.3-.4-2.8-.6-4.2-.6v33.7z"/><path fill-rule="evenodd" clip-rule="evenodd" fill="#1A8F0D" d="M56.4 30.2c1.8 0 3.2-1.5 3.2-3.2 0-1.8-1.5-3.2-3.2-3.2-1.8 0-3.2 1.5-3.2 3.2-.1 1.7 1.4 3.2 3.2 3.2z"/><path fill-rule="evenodd" clip-rule="evenodd" fill="#F7AD71" d="M21.3 30.2v18.4c0 1.3-1.3 2.2-2.3 2.2-1.3 0-2.3-.9-2.3-2.2v-18.4h4.6zM30.3 30.2v18.4c0 1.3-1.3 2.2-2.3 2.2-1.3 0-2.3-.9-2.3-2.2v-18.4h4.6z"/><path fill-rule="evenodd" clip-rule="evenodd" fill="#FFD6B5" d="M40.2 27.4c.9 0 1.6-.7 1.6-1.6 0-.9-.7-1.6-1.6-1.6-.9 0-1.6.7-1.6 1.6 0 .9.8 1.6 1.6 1.6zM55.2 27.7c1 0 1.8-.8 1.8-1.8s-.8-1.8-1.8-1.8-1.8.8-1.8 1.8.8 1.8 1.8 1.8z"/><path fill-rule="evenodd" clip-rule="evenodd" fill="#D84C2D" d="M36.4 19.4v-4.2s.5-1.6 1.7-1.1 2.6 2.1 2.6 2.1-2.6 1.1-4.3 3.2z"/><path fill-rule="evenodd" clip-rule="evenodd" fill="#C94426" d="M61.3 19.1v-4.2s-.5-1.6-1.7-1.1-2.6 2.1-2.6 2.1 2.6 1.1 4.3 3.2z"/><path fill="#F3775B" d="M41.9 40.3c-.2-.3-.2-.8.2-1.1.3-.2.8-.2 1.1.2 0 0 2.5 3.9 4.6.3l.3-2.9-2.4-2.6s0-.6.3-.8c.4-.1 4-1 6.3.1 0 0 .4.3.1.7-.4.4-1.8 2-2.4 2.6l.1 2.8c.7 2 4.2 1.7 5.1-.2.2-.4.6-.5 1-.4.4.2.5.6.4 1-2.1 3.2-5.1 3.2-7.6.8-4.1 4.6-7.1-.5-7.1-.5z"/><path fill="#D84C2D" d="M48.3 37l-2.5-2.8s0-.6.3-.8c.4-.1 4-1 6.3.1 0 0 .4.3.1.7-.3.3-1.9 2-2.5 2.7-.8.5-1.2.4-1.7.1z"/><path fill-rule="evenodd" clip-rule="evenodd" fill="#D48646" d="M35.6 40.4c4.3 8.2 13.8 9.7 18.8 8.7 1.2-.2 2.9-.8 4-1.5v-3.1c-.9.5-1.9 1.3-4 2-7.8 2.6-14.1-.7-18.8-6.1z"/><path fill-rule="evenodd" clip-rule="evenodd" fill="#F7AD71" d="M40.1 45.7v3c0 1.3-1.3 2.2-2.3 2.2-1.3 0-2.3-.9-2.3-2.2v-8.2l4.6 5.2z"/></g><g transform="translate(600)"><path fill-rule="evenodd" clip-rule="evenodd" fill="#BDB3E3" d="M38.8 68c5.3 0 9.4.5 9.4 1.1 0 .6-4.5 1.1-10.1 1.1s-10.1-.5-10.1-1.1c0-.6 3.9-1 9-1.1l-.5-15.8-.9-5.8h-1.6l-.3-4c-4.3-.1-7.8-.1-7.8-.1s.8-7.6 6.9-10.3l-1.2-7.1s-4.2-.4-3.2-5.2c-.8-.5-1.8-1-3-1.3 0 0 .8-6.8 7-5.2l1.2.3c1-.4 2.1-1.5 2-4.3l-2.5-.1s-.1-2.3 3.4-2.9c0 0 1.2-2.7 2.7-.1 0 0 3.4.5 3.4 2.9l-2.5.1s-.3 3.3 1.7 4.4c.7-.2.8-.2 1.5-.5s6.7-.9 6.8 5.4c-1.6.3-2.4.8-3.4 1.5-.4 3.2-1.2 4.4-3.3 5.3-.6 2.4-.7 5-.9 6.9 6.7 2.1 7.2 8.6 7.1 10.3-.8.2-3.8.2-7.3.2l-.7 4.2h-1.2l-1 5.7-.6 15.5z"/><path fill-rule="evenodd" clip-rule="evenodd" fill="#AB9FD6" d="M38.8 68c5.3 0 9.4.5 9.4 1.1 0 .6-4.5 1.1-10.1 1.1h-.1v-65.4c.4 0 .8.3 1.3 1.1 0 0 3.4.5 3.4 2.9l-2.5.1s-.3 3.3 1.7 4.4c.7-.2 1.2-.4 1.5-.5 1.2-.5 6.8-1 6.9 5.3-1.6.3-2.4.8-3.4 1.6-.4 3.2-1.2 4.4-3.3 5.3-.6 2.4-.7 5-.9 6.9 6.7 2.1 7.2 8.6 7.1 10.3-.8.2-3.8.2-7.3.2l-.7 4.2h-1.2l-1 5.7-.8 15.7z"/><g fill-rule="evenodd" clip-rule="evenodd"><path opacity=".76" fill="#FFDEEF" d="M10.5 49.3s6.6-14.7 22.2-17.4l-1.1-7.2s-3.4-.2-3.4-4l3.1-3.3s1.6-1.4 3-.1c1.4 1.3 3.5 2.7 3.5 2.7l2.5-2.6s1.6-1.5 3 0 3.3 3.4 3.3 3.4-.4 3.4-3.2 4l-.8 6.9c15.7 2.6 21.5 16.4 21.8 17.3 0 0-13.8 6.6-27.3 6-13.3-.3-22.7-3.6-26.6-5.7z"/><path opacity=".76" fill="#FFC7E4" d="M37.9 20l2.3-2.4s1.6-1.7 2.9-.4c1.3 1.3 3.5 3.7 3.5 3.7s-.4 3.4-3.2 4l-.7 6.9c15.7 2.6 21.5 16.4 21.8 17.3 0 0-13.2 6.3-26.4 6.1l-.2-35.2z"/></g><ellipse fill-rule="evenodd" clip-rule="evenodd" fill="#F3F3F3" cx="34.2" cy="13.6" rx=".7" ry=".7"/><ellipse fill-rule="evenodd" clip-rule="evenodd" fill="#F3F3F3" cx="35.4" cy="14.2" rx=".7" ry=".7"/><ellipse fill-rule="evenodd" clip-rule="evenodd" fill="#F3F3F3" cx="36.9" cy="14.6" rx=".7" ry=".7"/><ellipse fill-rule="evenodd" clip-rule="evenodd" fill="#F3F3F3" cx="38.6" cy="14.7" rx=".7" ry=".7"/><ellipse fill-rule="evenodd" clip-rule="evenodd" fill="#F3F3F3" cx="40.1" cy="14.2" rx=".7" ry=".7"/><ellipse fill-rule="evenodd" clip-rule="evenodd" fill="#F3F3F3" cx="41.3" cy="13.5" rx=".7" ry=".7"/><path fill-rule="evenodd" clip-rule="evenodd" fill="#fff" d="M37.8 23.8c1.1 0 2.1-.9 2.1-2.1 0-1.1-.9-2.1-2.1-2.1-1.1 0-2.1.9-2.1 2.1 0 1.1 1 2.1 2.1 2.1z"/><path fill-rule="evenodd" clip-rule="evenodd" fill="#F3F3F3" d="M37.9 23.8c1.1 0 2-.9 2-2.1s-.9-2-2-2.1v4.2z"/></g><g transform="translate(800)"><path fill-rule="evenodd" clip-rule="evenodd" fill="#D1EDFF" d="M24.3 22.9h26.4c3.5 0 6.3 2.8 6.3 6.3v28.2c0 3.5-2.8 6.3-6.3 6.3h-26.4c-3.5 0-6.3-2.8-6.3-6.3v-28.2c0-3.5 2.8-6.3 6.3-6.3z"/><path fill-rule="evenodd" clip-rule="evenodd" fill="#BDE6FF" d="M38 22.9h12.7c3.5 0 6.3 2.8 6.3 6.3v28.2c0 3.5-2.8 6.3-6.3 6.3h-12.7v-40.8z"/><path fill-rule="evenodd" clip-rule="evenodd" fill="#fff" d="M37.9 57.8c7.8 0 14.2-6.4 14.2-14.2 0-7.8-6.4-14.2-14.2-14.2-7.8 0-14.2 6.4-14.2 14.2 0 7.8 6.4 14.2 14.2 14.2z"/><path fill-rule="evenodd" clip-rule="evenodd" fill="#FAFAFA" d="M38 57.8c7.8 0 14.2-6.4 14.2-14.2 0-7.9-6.4-14.2-14.2-14.2v28.4z"/><path fill="#FA5732" d="M35.6 41.1v-7c0-1 1.1-1.6 2.3-1.6 1.2 0 2.3.5 2.3 1.6v7h6.8c1 0 1.6 1.1 1.6 2.3 0 1.2-.5 2.2-1.6 2.2h-6.8v7c0 1-1.1 1.6-2.3 1.6-1.2 0-2.3-.5-2.3-1.6v-7h-6.7c-1 0-1.6-1.1-1.6-2.2 0-1.2.5-2.3 1.6-2.3h6.7z"/><path fill-rule="evenodd" clip-rule="evenodd" fill="#FFC4E2" d="M22.7 11.3h29.4c1.8 0 1.7.5 1.7 1v8.4c0 .6.3 1-1.5 1h-29.6c-1.8 0-1.9-.5-1.9-1v-8.4c0-.5.1-1 1.9-1z"/><path fill-rule="evenodd" clip-rule="evenodd" fill="#FFB8DD" d="M38.1 11.3h14c1.8 0 1.7.5 1.7 1v8.4c0 .6.3 1-1.5 1h-14.2v-10.4z"/></g><g transform="translate(1000)"><path fill-rule="evenodd" clip-rule="evenodd" fill="#E89764" d="M36.5 9.4s4.2-5.6 12.1-1.9c1.6.7 2.8 2.3 3.4 6 .6 3.6 1.8 4.4 2.8 6.6.9 2.2.5 7.6-.6 9.6-1.1 1.9-3.2 5.8-3.2 5.8s-1.5 3.6-2.1 4.8c-.7 1.2-1.4 3-2.3 3.6-.9.6-2.3 1.7-3.7 2-1.4.3-9.4.6-10.4.4-1.1-.3-2.9-1-3.7-1.7-.8-.6-2.4-2.3-2.8-4.5-.4-2.2-.7-4.4-1.2-5.4s-3.9-5.1-3.9-8.7c.1-3.5 0-5.6 1.8-9.1 0 0 1.5-5.1 3.1-7 1.3-2 5.3-3.9 10.7-.5z"/><path fill-rule="evenodd" clip-rule="evenodd" fill="#C9EAFF" d="M39.7 43.3s15.5 2.5 14.8 23.4c0 0-16 4.7-34.7 0 0 0-2.1-19.3 14.3-23.4 0 0-1.9-2.4-.4-5.1.3-.4 1.7-1.4 3.3.5 0 0 1.6-2 3.1-.7s-.4 5.3-.4 5.3z"/><path fill-rule="evenodd" clip-rule="evenodd" fill="#BAE5FF" d="M39.7 43.3s15.5 2.5 14.8 23.4c0 0-7.2 2.1-17.7 2.1v-30.3c0 .1.1.1.2.2 0 0 1.6-2 3.1-.7s-.4 5.3-.4 5.3z"/><path fill-rule="evenodd" clip-rule="evenodd" fill="#A1DBFF" d="M36.7 47.4c7.4 5.5 11.7.8 11.7.8-12.4-11.9-23.4.3-23.4.3s5.2 4.4 11.7-1.1z"/><path fill-rule="evenodd" clip-rule="evenodd" fill="#FFF1E3" d="M24.9 22.7c-.6 0-1.1.5-1.1 1.1 0 .6.5 1.1 1.1 1.1.7 3.2 2.9 9 10.8 9.8v.9c-1.9.2-3.1 1.1-3.1 1.1-4 3.1.1 7 .1 7s.5.5.9.6c.2-.6.8-.8.8-.8s-.4-.3-1-.8-1.5-1.6-1.2-3.1c.4-1.5 1.7-1.8 1.7-1.8l2.8 2s2.4-1.9 3-1.8c.6.1 1.5 1.1 1.4 2.5-.1 1.3-2.2 2.9-2.2 2.9.9.2 1.1.6 1.1.6l.5-.4c4.5-4-.3-7.1-.3-7.1-.8-.4-1.6-.7-2.3-.8v-.9c8-.1 10.5-6.5 11.3-9.9l.3.1c.6 0 1.1-.5 1.1-1.1 0-.6-.5-1.1-1.1-1.1-.2 0-.3 0-.4.1-11.3-.6-12.5-8.1-12.5-8.1s-.8 7.3-11.5 8c0-.1-.1-.1-.2-.1z"/><path fill-rule="evenodd" clip-rule="evenodd" fill="#FFE7CF" d="M36.8 39.4v.3s2.5-1.9 3.1-1.8c.6.1 1.5 1.1 1.4 2.5-.1 1.3-2.2 2.9-2.2 2.9.9.2 1.1.6 1.1.6l.5-.4c4.5-4-.3-7.1-.3-7.1-.8-.4-1.6-.7-2.3-.8v-.9c8-.1 10.5-6.5 11.3-9.9l.3.1c.6 0 1.1-.5 1.1-1.1 0-.6-.5-1.1-1.1-1.1-.2 0-.3 0-.4.1-10.3-.5-12.3-6.6-12.6-7.9l.1 24.5z"/><circle fill="#469FD6" cx="42.1" cy="26" r="1.5"/><circle fill="#469FD6" cx="31.7" cy="25.7" r="1.5"/><path fill-rule="evenodd" clip-rule="evenodd" fill="#FCFEFF" d="M25.1 15.4v1.1c.5 2.1 3.3.4 1.1-.7 2.2.5 1.7-2.8-.4-1.3.4-1.1-.2-1.6-.7-1.6v2.5zm0 0v-2.5c-.6 0-1.1.5-.7 1.6-1.8-1.4-2.9 1.6-.5 1.2-1.8 1.2.6 2.9 1.2.8v-1.1z"/><path fill-rule="evenodd" clip-rule="evenodd" fill="#85CA7D" d="M25.1 14.7c.4 0 .8.4.8.8s-.4.8-.8.8-.8-.4-.8-.8c0-.5.3-.8.8-.8z"/><path fill-rule="evenodd" clip-rule="evenodd" fill="#FCFEFF" d="M29.7 14.9v1.1c.5 2.1 3.3.4 1.1-.7 2.2.5 1.7-2.8-.4-1.3.4-1.1-.2-1.6-.7-1.6v2.5zm0 0v-2.5c-.6 0-1.1.5-.7 1.6-1.8-1.4-2.9 1.6-.5 1.2-1.8 1.2.6 2.9 1.2.8v-1.1z"/><path fill-rule="evenodd" clip-rule="evenodd" fill="#85CA7D" d="M29.8 14.1c.4 0 .8.4.8.8s-.4.8-.8.8-.8-.4-.8-.8.3-.8.8-.8z"/><path fill-rule="evenodd" clip-rule="evenodd" fill="#FCFEFF" d="M34.4 13.9v1.1c.5 2.1 3.3.4 1.1-.7 2.2.5 1.7-2.8-.4-1.3.4-1.1-.2-1.6-.7-1.6v2.5zm0 0v-2.5c-.6 0-1.1.5-.7 1.6-1.8-1.4-2.9 1.6-.5 1.2-1.8 1.2.6 2.9 1.2.8v-1.1z"/><path fill-rule="evenodd" clip-rule="evenodd" fill="#85CA7D" d="M34.4 13.2c.4 0 .8.4.8.8s-.4.8-.8.8-.8-.4-.8-.8.3-.8.8-.8z"/><path fill-rule="evenodd" clip-rule="evenodd" fill="#FCFEFF" d="M39.6 14.2v1.1c.5 2.1 3.3.4 1.1-.7 2.2.5 1.7-2.8-.4-1.3.4-1.1-.2-1.6-.8-1.6v2.5zm0 0v-2.5c-.6 0-1.1.5-.7 1.6-1.8-1.4-2.9 1.6-.5 1.2-1.8 1.2.6 2.9 1.2.8v-1.1z"/><path fill-rule="evenodd" clip-rule="evenodd" fill="#85CA7D" d="M39.6 13.4c.4 0 .8.4.8.8s-.4.8-.8.8-.8-.4-.8-.8.4-.8.8-.8z"/><path fill-rule="evenodd" clip-rule="evenodd" fill="#FCFEFF" d="M44.6 15.1v1.1c.5 2.1 3.3.4 1.1-.7 2.2.5 1.7-2.8-.4-1.3.4-1.1-.2-1.6-.7-1.6v2.5zm0 0v-2.5c-.6 0-1.1.5-.7 1.6-1.8-1.4-2.9 1.6-.5 1.2-1.8 1.2.6 2.9 1.2.8v-1.1z"/><path fill-rule="evenodd" clip-rule="evenodd" fill="#85CA7D" d="M44.6 14.3c.4 0 .8.4.8.8s-.4.8-.8.8-.8-.4-.8-.8.4-.8.8-.8z"/><path fill-rule="evenodd" clip-rule="evenodd" fill="#FCFEFF" d="M49.9 15.4v1.1c.5 2.1 3.3.4 1.1-.7 2.2.5 1.7-2.8-.4-1.3.4-1.1-.2-1.6-.7-1.6v2.5zm-.1 0v-2.5c-.6 0-1.1.5-.7 1.6-1.8-1.4-2.9 1.6-.5 1.2-1.8 1.2.6 2.9 1.2.8v-1.1z"/><path fill-rule="evenodd" clip-rule="evenodd" fill="#85CA7D" d="M49.9 14.7c.4 0 .8.4.8.8s-.4.8-.8.8-.8-.4-.8-.8c0-.5.3-.8.8-.8z"/><path fill-rule="evenodd" clip-rule="evenodd" fill="#FF91C8" d="M36.9 32c.9 0 1.6-.3 1.6-.7 0-.4-.7-.7-1.6-.7-.9 0-1.6.3-1.6.7 0 .3.7.7 1.6.7z"/><path fill-rule="evenodd" clip-rule="evenodd" fill="#FCFEFF" d="M35.1 44.5v1.1c.5 2.1 3.3.4 1.1-.7 2.2.5 1.7-2.8-.4-1.3.4-1.1-.2-1.6-.7-1.6v2.5zm0 0v-2.5c-.6 0-1.1.5-.7 1.6-1.8-1.4-2.9 1.6-.5 1.2-1.8 1.2.6 2.9 1.2.8v-1.1z"/><path fill-rule="evenodd" clip-rule="evenodd" fill="#85CA7D" d="M35.1 43.7c.4 0 .8.4.8.8s-.4.8-.8.8-.8-.4-.8-.8.3-.8.8-.8z"/><path fill-rule="evenodd" clip-rule="evenodd" fill="#FCFEFF" d="M38.2 44.6v1.1c.5 2.1 3.3.4 1.1-.7 2.2.5 1.7-2.8-.4-1.3.4-1.1-.2-1.6-.7-1.6v2.5zm0 0v-2.5c-.6 0-1.1.5-.7 1.6-1.8-1.4-2.9 1.6-.5 1.2-1.8 1.2.6 2.9 1.2.8v-1.1z"/><path fill-rule="evenodd" clip-rule="evenodd" fill="#85CA7D" d="M38.2 43.8c.4 0 .8.4.8.8s-.4.8-.8.8-.8-.4-.8-.8.4-.8.8-.8z"/><path fill-rule="evenodd" clip-rule="evenodd" fill="#FCFEFF" d="M36.7 46.6v1.1c.5 2.1 3.3.4 1.1-.7 2.2.5 1.7-2.8-.4-1.3.4-1.1-.2-1.6-.7-1.6v2.5zm0 0v-2.5c-.6 0-1.1.5-.7 1.6-1.8-1.4-2.9 1.6-.5 1.2-1.8 1.2.6 2.9 1.2.8v-1.1z"/><path fill-rule="evenodd" clip-rule="evenodd" fill="#85CA7D" d="M36.7 45.8c.4 0 .8.4.8.8s-.4.8-.8.8-.8-.4-.8-.8.4-.8.8-.8z"/></g><g transform="translate(1200)"><path fill-rule="evenodd" clip-rule="evenodd" fill="#FFE3CC" d="M23.178 40.335l-3.76-.551.898-6.134 3.76.551z"/><circle fill-rule="evenodd" clip-rule="evenodd" fill="#FFE3CC" cx="22.2" cy="23.8" r="12.2"/><path fill-rule="evenodd" clip-rule="evenodd" fill="#C0B3E6" d="M28 39.1l-10.7-1.8c-2.4-.4-4.4 1.5-4.9 3.9l-3.5 16.8c-.5 2.4 1.5 4.7 3.9 4.9l13.2 1.2c2.4.2 4.7-1.5 4.9-3.9l1.1-16.2c.1-2.4-1.6-4.5-4-4.9z"/><path fill-rule="evenodd" clip-rule="evenodd" fill="#FADAC0" d="M17.2 34.7c1.3-.5 13.1-7.5 8.8-18.4l4.8-.9c0-1.1-8.7-6.9-15.8.1-7.1 7-2.2 18 2.2 19.2z"/><path fill-rule="evenodd" clip-rule="evenodd" fill="#AB7554" d="M14.2 33.5c1.4-.4 14-6.4 10.8-17.9l5.8-1.2c.1-1.1-8.8-7-16.8-.6-8 6.3-4.2 18 .2 19.7z"/><circle fill-rule="evenodd" clip-rule="evenodd" fill="#666" cx="30.1" cy="21.8" r="1.2"/><circle fill-rule="evenodd" clip-rule="evenodd" fill="#FFE3CC" cx="48.8" cy="23.9" r="12.2"/><path fill-rule="evenodd" clip-rule="evenodd" fill="#FFE3CC" d="M47.677 34.713l3.76-.551.898 6.134-3.76.551z"/><path fill-rule="evenodd" clip-rule="evenodd" fill="#FADAC0" d="M39.2 16.7s7.6 1.4 8.1 5.8c.5 4.5.2 9.1-2 12.7 0 0 3.9 0 6.7-4.5 0 0 1.1 1.9 4.3 2.5 0 0 2.1-2.6 2.5-3.1 0 0 .3 5.1 2.6 7.3 0 0-.5-5.2 1.4-8.3 0 0 4.5-3.3 3.1-7 0 0-1.2-6.2-6.6-4.1 0 0-2.2-4.2-5.4-5.2s-7.7-1.5-10.9.5c-3.2 2.2-3.8 3.4-3.8 3.4z"/><path fill-rule="evenodd" clip-rule="evenodd" fill="#FFE159" d="M39 15.5s7.8 1.3 8.3 5.7c.5 4.5.5 9.8-1.7 13.4 0 0 5-2 6.2-5.5 0 0 2.4 2.7 5.7 3.4 0 0 .9-1 1.4-1.4 0 0 .4 5 2.6 7.2 0 0 .5-5.3 2.4-8.5 0 0 3.3-5.1 1.8-8.7 0 0-1.2-6.2-6.6-4.1 0 0-2.2-4.2-5.4-5.2s-7.7-1.5-10.9.5-3.8 3.2-3.8 3.2z"/><circle fill-rule="evenodd" clip-rule="evenodd" fill="#469FD6" cx="39.9" cy="21.8" r="1.2"/><path fill-rule="evenodd" clip-rule="evenodd" fill="#FFC4E2" d="M44.3 39.5l10.8-1.1c2.4-.2 4.2 1.9 4.5 4.3l2.7 16.3c.4 2.4-1.9 4.5-4.3 4.6l-12.9.5c-2.4.1-4.4-1.9-4.5-4.3l-.7-15.7c-.1-2.5 1.9-4.4 4.4-4.6z"/><circle fill-rule="evenodd" clip-rule="evenodd" fill="#FFE3CC" cx="33.9" cy="25.5" r="1.7"/><circle fill-rule="evenodd" clip-rule="evenodd" fill="#FFE3CC" cx="37.3" cy="25.7" r="1.7"/><path fill-rule="evenodd" clip-rule="evenodd" fill="#FF7354" d="M31.1 30.1c-1.1-.1-2.3.2-2.9.7.4.7 1.7 1.2 3 1.3.7-.4 1.2-1.1 1.5-1.8-.6-.1-.6-.2-1.6-.2zM39.9 30.1c1.1-.1 2.3.2 2.9.7-.4.7-1.7 1.2-3 1.3-.7-.4-1.2-1.1-1.5-1.8.6-.1.5-.2 1.6-.2z"/><path fill-rule="evenodd" clip-rule="evenodd" fill="#B7A8E3" d="M28 39.1l-6.4-1.1-3.2 25.3 7.6.8c2.4.3 4.7-1.5 4.9-3.9l1.1-16.2c.1-2.4-1.6-4.5-4-4.9z"/><path fill-rule="evenodd" clip-rule="evenodd" fill="#FFB8DD" d="M49.9 39l5.2-.5c2.4-.2 4.2 1.9 4.5 4.3l2.7 16.2c.4 2.4-1.9 4.5-4.3 4.6l-5 .2-3.1-24.8z"/><circle fill-rule="evenodd" clip-rule="evenodd" fill="#FFE3CC" cx="34.9" cy="52.5" r="2.2"/><path fill-rule="evenodd" clip-rule="evenodd" fill="#D3C9F0" d="M19.7 40.7h3.4c.6 0 1.1.6 1.1 1.3v6.5l8 1.3c.7.1 1.3.5 1.3 1.1v2.6c0 .6-.6 1.1-1.3 1.1-4.2.2-8.2-.6-12.5-.6-.6 0-1.1-.6-1.1-1.3v-10.7c0-.7.5-1.3 1.1-1.3z"/><circle fill-rule="evenodd" clip-rule="evenodd" fill="#FFE3CC" cx="37.6" cy="52.7" r="2.2"/><path fill-rule="evenodd" clip-rule="evenodd" fill="#FFD6EB" d="M52.8 41.3h-3.4c-.6 0-1.1.6-1.1 1.3v6.5l-8 1.3c-.7.1-1.3.5-1.3 1.1v2.6c0 .6.6 1.1 1.3 1.1 4.2.2 8.3-.7 12.5-.7.6 0 1.1-.6 1.1-1.3v-10.5c0-.8-.5-1.4-1.1-1.4z"/></g><g transform="translate(1400)"><path opacity=".91" fill-rule="evenodd" clip-rule="evenodd" fill="#85CA7D" d="M50.7 10.5h2.5v6.7h-2.5z"/><path opacity=".91" fill-rule="evenodd" clip-rule="evenodd" fill="#FFE77D" d="M23 33.3h1.7v12h-2.2v-4.3h-4.8v-2.1h2.6v-5.7h2.7z"/><path opacity=".91" fill-rule="evenodd" clip-rule="evenodd" fill="#CCC4E6" d="M14.3 32.8l-2.7-12.7s0-4.6 4.1-4.8c4.1-.2 39.2-.1 39.2-.1s3.8.2 4.3 3.9c.5 3.7 1.7 27.1 1.7 27.1l.9 13.8s-1 4.4-4.4 4.5c-3.4.1-44.5-.1-44.5-.1s-3.5-1-3.7-3.7c-.2-2.7 0-8.3 0-8.3s1-3.8 4.3-3.9c3.3-.1 26.8-.1 26.8-.1l2.3-19.4h-11.8s-1.6 6.7-4.9 6.7h-7.7s-2 .3-3.9-2.9z"/><path opacity=".91" fill-rule="evenodd" clip-rule="evenodd" fill="#C0B3E6" d="M44.1 15.2h10.8s3.8.2 4.3 3.9c.5 3.7 1.7 27.1 1.7 27.1l.9 13.8s-2 4.5-4.4 4.5c-2.4 0-9.6-.2-18.9-.2l5.6-49.1z"/><path opacity=".91" fill-rule="evenodd" clip-rule="evenodd" fill="#fff" d="M52 56.1c3 0 5.5-2.4 5.5-5.3s-2.4-5.3-5.5-5.3c-3 0-5.5 2.4-5.5 5.3.1 2.9 2.5 5.3 5.5 5.3z"/><path opacity=".91" fill-rule="evenodd" clip-rule="evenodd" fill="#85CA7D" d="M52.2 53.8c1.8 0 3.2-1.4 3.2-3.1 0-1.7-1.4-3.1-3.2-3.1-1.8 0-3.2 1.4-3.2 3.1 0 1.7 1.4 3.1 3.2 3.1z"/><path opacity=".91" fill-rule="evenodd" clip-rule="evenodd" fill="#FFE77D" d="M62.8 16.7h1.4c.9 0 1.6.9 1.6 1.9v14.7c0 1-.7 1.9-1.6 1.9h-1.4c-.9 0-1.6-.9-1.6-1.9v-14.7c0-1 .8-1.9 1.6-1.9z"/><path opacity=".91" fill-rule="evenodd" clip-rule="evenodd" fill="#88D47F" d="M12.8 48.5l14.8 14.1 10.1-14z"/><circle opacity=".91" fill="#FCEFB3" cx="19.4" cy="50.8" r="1.9"/><path opacity=".91" fill="#FCEFB3" d="M26.7 51.1c1.6 0 2.9 1.3 2.9 2.9 0 1.6-1.3 2.9-2.9 2.9-1.6 0-2.9-1.3-2.9-2.9 0-1.6 1.3-2.9 2.9-2.9z"/><circle opacity=".91" fill="#FCEFB3" cx="32.2" cy="51" r="1.2"/></g><g transform="translate(1600)"><path fill-rule="evenodd" clip-rule="evenodd" fill="#FEC699" d="M54.2 62.1l-33.6-.1 1.6 10.2h30.7z"/><path fill-rule="evenodd" clip-rule="evenodd" fill="#6DCC56" d="M36.1 32.7h2.2l1.3 26.1h-4.6z"/><path fill-rule="evenodd" clip-rule="evenodd" fill="#87D973" d="M36.1 32.7l1.2.1.2 25.6h-2.5z"/><path fill-rule="evenodd" clip-rule="evenodd" fill="#FAC5E0" d="M37.3 26.2v10.4c4.7 20 31.2 3.9 10.7-6.8 21 4.6 16.2-26.6-3.7-11.8 3.9-9.9-1.6-15.1-7-15.2v23.4zm0 0l.1-23.4c-5.3-.1-10.4 4.7-6.5 14.8-17.2-13.3-26.9 15.2-4.5 11.5-16.6 11 5.6 27.5 10.9 7.3v.1-10.2-.1z"/><path fill-rule="evenodd" clip-rule="evenodd" fill="#87D973" d="M23 48.7c4.8-3 8.6-.7 11.8 5.4-6.1 4-10 2.7-11.8-5.4z"/><path fill-rule="evenodd" clip-rule="evenodd" fill="#FCB8DB" d="M44.3 18c3.7-9.2-1.1-15.1-7-15.1l-.1 33.7c5.3 20.2 30.8 3.7 10.7-6.7 21.1 4.5 16.3-26.7-3.6-11.9z"/><path fill-rule="evenodd" clip-rule="evenodd" fill="#6DCC56" d="M51.8 49.1c-4.4-3.1-8.2-1-11.4 4.6 5.5 4.2 9.3 3 11.4-4.6z"/><path fill-rule="evenodd" clip-rule="evenodd" fill="#FCDE5B" d="M37.3 16.4c5.4 0 9.9 4.5 9.9 10s-4.4 10-9.9 10c-5.4 0-9.9-4.5-9.9-10 .1-5.5 4.5-10 9.9-10z"/><path fill-rule="evenodd" clip-rule="evenodd" fill="#F7AD71" d="M54.3 62.1l-16.6.2.1 9.9h15.1z"/><path fill-rule="evenodd" clip-rule="evenodd" fill="#FFE985" d="M37.3 36.4c-5.4 0-9.9-4.5-9.9-10s4.4-10 9.9-10v20z"/><path fill-rule="evenodd" clip-rule="evenodd" fill="#FFD2AD" d="M18.4 58l37.8-.3-.4 4.4-36.8.3z"/><path fill-rule="evenodd" clip-rule="evenodd" fill="#FCC79C" d="M37.7 57.9l18.5-.2-.4 4.5-18.1.1z"/></g><g transform="translate(1800)"><path opacity=".91" fill-rule="evenodd" clip-rule="evenodd" fill="#999" d="M17.1 48h4.7c2 0 3.6 2 3.6 4.4v8.3c0 2.4-1.6 4.4-3.6 4.4h-4.7c-2 0-3.6-2-3.6-4.4v-8.3c0-2.4 1.6-4.4 3.6-4.4zM53.3 48h4.7c2 0 3.6 2 3.6 4.4v8.3c0 2.4-1.6 4.4-3.6 4.4h-4.7c-2 0-3.6-2-3.6-4.4v-8.3c.1-2.4 1.7-4.4 3.6-4.4z"/><path opacity=".91" fill-rule="evenodd" clip-rule="evenodd" fill="#A4DAFC" d="M37.7 10c4.3 0 8.4.1 10.7.4 4.9.7 8.6 3.4 9.9 9 1.3 5.6 2.8 10.5 2.8 10.5s4.5.2 5.3 5.6c0 0 2.6 6.1.2 14.6 0 0-1.2 3.3-4.9 4.1-3.7.8-17.4 1.7-23.6 1.8h-.3v-26h17.7s-2.5-8.4-3.4-11.1c-.9-2.7-3.7-2.8-3.7-2.8-3.3-.3-7.1-.5-10.7-.5v-5.6zm-23.9 19.9l4-14.1c.5-1.8 3.3-5 7.4-5.4 2.2-.2 7.4-.4 12.5-.4v5.6c-6 0-11.2.3-12.2.4-1.5.2-2.3 1.7-2.3 1.7l-3.2 12.2h17.7v26c-6.3.1-20.7-.7-24.4-1.9-3.8-1.2-4.8-3.1-5.5-6.1-.7-3-.3-10.1 1-13.2s2.4-4.2 5-4.8z"/><path opacity=".91" fill-rule="evenodd" clip-rule="evenodd" fill="#FFEA8C" d="M18.5 48.5c3 0 5.5-2.5 5.5-5.5s-2.5-5.5-5.5-5.5-5.5 2.5-5.5 5.5c0 3.1 2.5 5.5 5.5 5.5z"/><path opacity=".91" fill-rule="evenodd" clip-rule="evenodd" fill="#F7AD71" d="M45.3 38.8c4.1 0 7.4-3.3 7.4-7.4 0-4.1-3.3-7.4-7.4-7.4v2c3 0 5.4 2.4 5.4 5.4 0 3-2.4 5.4-5.4 5.4v2zm0-14.8c-4.1 0-7.4 3.3-7.4 7.4 0 4.1 3.3 7.4 7.4 7.4v-2c-3 0-5.4-2.4-5.4-5.4 0-3 2.4-5.4 5.4-5.4v-2z"/><path opacity=".91" fill-rule="evenodd" clip-rule="evenodd" fill="#8CD0FA" d="M37.9 10c4.2 0 8.3.1 10.5.4 4.9.7 8.6 3.4 9.9 9 1.3 5.6 2.8 10.5 2.8 10.5s4.5.2 5.3 5.6c0 0 2.6 6.1.2 14.6 0 0-1.2 3.3-4.9 4.1-3.7.8-17.4 1.7-23.6 1.8h-.2v-26h17.6s-2.5-8.4-3.4-11.1c-.9-2.7-3.7-2.8-3.7-2.8-3.3-.3-7-.5-10.5-.5v-5.6z"/><path opacity=".91" fill-rule="evenodd" clip-rule="evenodd" fill="#FFEA8C" d="M56.5 48.5c3 0 5.5-2.5 5.5-5.5s-2.5-5.5-5.5-5.5-5.5 2.5-5.5 5.5c.1 3.1 2.5 5.5 5.5 5.5z"/><path opacity=".91" fill-rule="evenodd" clip-rule="evenodd" fill="#DBF1FF" d="M33.1 37h8.6c2.5 0 4.6 2.1 4.6 4.6v3.9c0 2.5-2.1 4.6-4.6 4.6h-8.6c-2.5 0-4.6-2.1-4.6-4.6v-3.9c0-2.6 2.1-4.6 4.6-4.6z"/><path opacity=".91" fill-rule="evenodd" clip-rule="evenodd" fill="#999" d="M34.6 46v1.6c0 .6-.6 1-1 1-.6 0-1-.4-1-1v-7.6c0-.6.5-1 1-1 .4 0 1 .4 1 1v6zM38.7 46v1.6c0 .6-.6 1-1 1-.6 0-1-.4-1-1v-7.6c0-.6.5-1 1-1 .4 0 1 .4 1 1v6zM42.8 45.9v1.6c0 .6-.6 1-1 1-.6 0-1-.4-1-1v-7.6c0-.6.5-1 1-1 .4 0 1 .4 1 1v6z"/></g><g transform="translate(2000)"><path fill-rule="evenodd" clip-rule="evenodd" fill="#87D973" d="M37.5 6c9.2 0 25.5 17.6 25.5 32.7 0 15.1-10.7 21.9-25.5 21.9-14.9 0-25.5-6.9-25.5-21.9 0-15.1 16.3-32.7 25.5-32.7z"/><path fill-rule="evenodd" clip-rule="evenodd" fill="#6DCC56" d="M37.5 6c9.2 0 25.5 17.6 25.5 32.7s-10.6 21.9-25.5 21.9v-54.6z"/><path fill-rule="evenodd" clip-rule="evenodd" fill="#D48646" d="M37.4 21.7c2.2 0 4 1.8 4.1 4.1l.3 8.3 3.7-3.7c.7-.7 2-.7 2.7 0 .7.7.7 2 0 2.7l-6.2 6.2.2 5.8 3.3-3.3c.7-.7 2-.7 2.7 0 .7.7.7 2 0 2.7l-5.8 5.8.6 14.9c.1 2.9-3.2 4-5.6 3.8-2.2 0-5.7-1.6-5.6-3.8l.6-15.1-5.6-5.6c-.7-.7-.7-2 0-2.7.7-.7 2-.7 2.7 0l3.1 3.1.2-5.8-6-6c-.7-.7-.7-2 0-2.7.7-.7 2-.7 2.7 0l3.5 3.5.3-8.1c.1-2.3 1.9-4.1 4.1-4.1z"/><path fill-rule="evenodd" clip-rule="evenodd" fill="#DB9053" d="M37.4 21.7h.1v47.3h-.1c-2.2 0-5.7-1.6-5.6-3.8l.6-15.1-5.6-5.6c-.7-.7-.7-2 0-2.7.7-.7 2-.7 2.7 0l3.1 3.1.2-5.8-6-6c-.7-.7-.7-2 0-2.7.7-.7 2-.7 2.7 0l3.5 3.5.3-8.1c.1-2.3 1.9-4.1 4.1-4.1z"/><path fill-rule="evenodd" clip-rule="evenodd" fill="#FF91C8" d="M26.5 26.4c2.2 0 4-1.8 4-4s-1.8-4-4-4-4 1.8-4 4 1.8 4 4 4z"/><path fill-rule="evenodd" clip-rule="evenodd" fill="#F76C4D" d="M54.1 38.5c2.2 0 4-1.8 4-4s-1.8-4-4-4-4 1.8-4 4 1.8 4 4 4z"/><path fill-rule="evenodd" clip-rule="evenodd" fill="#FFD414" d="M19.5 47.5c2.2 0 4-1.8 4-4s-1.8-4-4-4-4 1.8-4 4c0 2.1 1.8 4 4 4z"/><path fill-rule="evenodd" clip-rule="evenodd" fill="#FFA1D0" d="M26.4 18.3c-2.2 0-4 1.8-4 4s1.8 4 4 4v-8z"/><path fill-rule="evenodd" clip-rule="evenodd" fill="#FA7B5F" d="M54 30.5c-2.2 0-4 1.8-4 4s1.8 4 4 4v-8z"/><path fill-rule="evenodd" clip-rule="evenodd" fill="#FFDE4A" d="M19.5 39.4c-2.2 0-4 1.8-4 4s1.8 4 4 4v-8z"/></g><g transform="translate(2200)"><path fill-rule="evenodd" clip-rule="evenodd" fill="#FFF1E3" d="M37.3 34.9c8.4 0 15.2-6.8 15.2-15.2 0-8.4-6.8-15.2-15.2-15.2-8.4 0-15.2 6.8-15.2 15.2 0 8.4 6.8 15.2 15.2 15.2z"/><path fill-rule="evenodd" clip-rule="evenodd" fill="#FFE7CF" d="M37.4 34.9c8.3-.1 15.1-6.9 15.1-15.2 0-8.4-6.7-15.1-15.1-15.2v30.4z"/><circle fill="#469FD6" cx="44" cy="17.6" r="1.8"/><path fill="#469FD6" d="M32.4 17.6c0 1-.7 1.8-1.7 1.8s-1.8-.7-1.8-1.7.7-1.8 1.7-1.8c.9 0 1.8.7 1.8 1.7z"/><path fill-rule="evenodd" clip-rule="evenodd" fill="#FFF1E3" d="M24.1 26.8c2.1 0 3.9-1.7 3.9-3.9 0-2.1-1.7-3.9-3.9-3.9s-3.9 1.7-3.9 3.9 1.8 3.9 3.9 3.9z"/><path fill-rule="evenodd" clip-rule="evenodd" fill="#FFE7CF" d="M50.8 26.2c2.1 0 3.9-1.7 3.9-3.9 0-2.1-1.7-3.9-3.9-3.9-2.1 0-3.9 1.7-3.9 3.9s1.7 3.9 3.9 3.9z"/><path fill="#F5AE82" d="M36.7 5.1c0-.3.3-.6.6-.6s.6.3.6.6l.1 5.6c0 .3-.3.6-.6.6s-.6-.3-.6-.6l-.1-5.6zM39 5.3c0-.3.3-.6.6-.6s.6.3.6.6l.1 4.4c0 .3-.3.6-.6.6s-.6-.3-.6-.6l-.1-4.4zM34.3 5.2c0-.3.3-.6.6-.6s.6.3.6.6l.1 4.4c0 .3-.3.6-.6.6s-.6-.3-.6-.6l-.1-4.4z"/><path fill="#F26748" d="M31.1 22c.8.4 4 1.9 6.2 1.9 2.3 0 4.9-1.3 5.8-1.9-.5 1.7-3.7 3.1-5.8 3.1-2 0-4.8-.8-6.2-3.1z"/><path fill-rule="evenodd" clip-rule="evenodd" fill="#A5E89D" d="M37.5 70.5c13.2 0 23.9-10 23.9-22.2s-10.7-22.2-23.9-22.2-23.9 10-23.9 22.2c0 12.3 10.7 22.2 23.9 22.2z"/><path fill-rule="evenodd" clip-rule="evenodd" fill="#9CDE95" d="M37.5 70.5c13.2 0 23.9-9.9 23.9-22.2 0-12.2-10.7-22.2-23.9-22.2v44.4z"/><path fill="#D1F5CC" d="M14.7 44.5c-.5 0-.9-.4-.9-.9s.4-.9.9-.9c.1 0 19-.2 28 26.2.2.5-.1 1-.6 1.1-.5.2-1-.1-1.1-.6-8.6-25.2-26.3-24.9-26.3-24.9zM60.8 44.6c-5.2.1-16.8-1.1-22.8 16.6-.2.5 0 1.1.5 1.3.5.2.9.2 1.1-.3 5.3-16.7 16.7-15.4 21.6-15.7.3-.4.5-1.3-.4-1.9zM22.9 32.4c-.5 0-.9-.4-.9-.9s.4-.9.9-.9c1.2 1.1 17.9-4.9 24.1 18.9.2.5-.2.9-.7 1-.5.2-.8-.1-.9-.6-7-22.1-21.7-16.3-22.5-17.5zM55 33.2c-5.8.8-7 0-13.1 6.1-.3.4-.3 1 .1 1.3.4.3 1 .3 1.3-.1 6-5.5 7.3-4.9 12.9-5.3.5-.3-.2-1.8-1.2-2z"/></g><g transform="translate(2400)"><path fill-rule="evenodd" clip-rule="evenodd" fill="#FFB76B" d="M23.7 35.7l-1 24.8 30 .7-4-25.5z"/><path fill-rule="evenodd" clip-rule="evenodd" fill="#FF8D73" d="M12.4 62.7c1.9-1.6 27-13.1 50.2.4-.7.4-7.6 4.3-24.9 4.3-17.3 0-25.4-4.8-25.3-4.7z"/><path fill-rule="evenodd" clip-rule="evenodd" fill="#B4DEF7" d="M14.5 42.1c3.1 3.9 6.4 0 6.4 0l.2-6.9 16-19.4-22.7 18.4.1 7.9z"/><path fill-rule="evenodd" clip-rule="evenodd" fill="#FFEC96" d="M21 42c3.1 3.9 6.3.5 6.6-.1v-6.1l9.5-20-16.1 19.4v6.8z"/><path fill-rule="evenodd" clip-rule="evenodd" fill="#C7BCE8" d="M27.6 41.8c3.1 3.9 6.6-.2 6.6-.2l-.1-5.5 3-20.2-9.4 19.9-.1 6z"/><path fill-rule="evenodd" clip-rule="evenodd" fill="#9EDB97" d="M34.2 41.7c3.1 3.9 6.4.1 6.4.1v-5.8l-3.6-20.5-3 20.6.2 5.6z"/><path fill-rule="evenodd" clip-rule="evenodd" fill="#FFEC96" d="M40.6 41.8c3.1 3.9 6.1.7 6.5.2v-7.9l-10-18.3 3.6 20.2-.1 5.8z"/><path fill-rule="evenodd" clip-rule="evenodd" fill="#C7BCE8" d="M47.2 42c3.1 3.9 5.7 1.1 6.2.4l.1-7.4-16.5-19.3 10 19.8.2 6.5z"/><path fill-rule="evenodd" clip-rule="evenodd" fill="#B4DEF7" d="M59.8 42.1c-3.1 3.9-6.4.3-6.4.3l-.1-7.4-16.2-19.3 22.8 18.5-.1 7.9z"/><path fill-rule="evenodd" clip-rule="evenodd" fill="#FF7354" d="M37.6 13.2v-5l10.6.1-2.9 2.5 2.9 2.5zM15.8 36.9l15.4.3-1.4 29.8s-15.3-1.3-19.8-5.3l5.6-22 .2-2.8z"/><path fill="#7F7F7F" d="M37.6 7.7l.1 8.5c-.3-.2-.7-.2-1 0l-.1-8.5c.3-.1.6-.1 1 0z"/><path fill-rule="evenodd" clip-rule="evenodd" fill="#FF7354" d="M58.6 36.9l-15.4.3 1.4 30.1s15.9-1.1 20.5-5.2l-6.2-22.4-.3-2.8z"/><path fill-rule="evenodd" clip-rule="evenodd" fill="#6E534A" d="M27.7 44.1v-1.7l.1-1.6c5.3.3 10.6.4 15.9.2 5.3-.3 10.6-.6 15.9-.8 0 .4.1.8.2 1.2.1.4.2.8.2 1.2-3 3-6.4.7-6.4.7v-.1.1c-.5.6-3.1 3.4-6.2.6v.1c-.5.5-3.4 4.2-6.6.6v-.1c-.2.3-3.5 4.2-6.5 0v-3 1.5 1.5c.1-.1-3.6 3.9-6.6-.4zm0-1.8l.1-1.5h-.1v1.5zm-6.5-.6c.1-.4.1-.9.1-1.3h-.1v1.3c.1-.5.1-.9.1-1.3 2.1.1 4.3.3 6.5.4v1.6l-.1 1.6c-.3.5-3.6 3-6.5-.6v-1.7zm6.5.7c0 .5-.1 1-.1 1.6l.1.1v-1.7zm-13.1.4c2.9 3.2 6.4.4 6.4.4l.1-1.4v-.1 1.6l-.1-.2.1-1.4v-1.4000000000000001c-2.1-.1-4.2-.2-6.3-.2 0 .4-.1.9-.2 1.3.1.5 0 1 0 1.4z"/><path fill-rule="evenodd" clip-rule="evenodd" fill="#9ED3F2" d="M13.6 41.9c3 3.9 7.4.7 7.5.5v-7.2l-6.7-1.1-.8 7.8z"/><path fill-rule="evenodd" clip-rule="evenodd" fill="#FFE159" d="M21.1 42.6c3 3.9 6.5.7 6.5.7v-7.3l-6.5-.7v7.3z"/><path fill-rule="evenodd" clip-rule="evenodd" fill="#77C46E" d="M34.1 43.5c3 3.9 6.7 0 6.7 0l-.2-7.5h-6.5v7.5z"/><path fill-rule="evenodd" clip-rule="evenodd" fill="#FFE159" d="M40.8 43.5c3 3.9 6.2-.4 6.3-.6v-7.3l-6.5.4.2 7.5z"/><path fill-rule="evenodd" clip-rule="evenodd" fill="#B0A0DE" d="M27.7 43.3c3 3.9 6.4.4 6.5.2l-.1-7.4-6.4-.2v7.4zM47.1 42.8c3 3.9 6.5-.5 6.5-.5l-.2-7.3-6.4.6.1 7.2z"/><path fill-rule="evenodd" clip-rule="evenodd" fill="#9ED3F2" d="M53.6 42.1c3 3.9 7.4 0 7.6-.4l-1.4-7.6-6.4.9.2 7.1z"/><path fill-rule="evenodd" clip-rule="evenodd" fill="#FFEC96" d="M23.4 48.6l1.9-1-.8 2.1 1.9 1.3-2.2.3-.8 2.1-1.1-2-2.2-.2 1.6-1.4-.3-2.3zM16.4 57.7l1.6-.9-.7 1.8 1.7 1.2-1.9.2-.7 1.8-1-1.7-1.9-.2 1.4-1.2-.2-2zM51.4 47.7l1.6-.9-.6 1.8 1.6 1.2-1.9.2-.6 1.8-1-1.7-1.9-.2 1.4-1.2-.3-2zM56.6 56.5l2.1-1.1-.9 2.3 2.2 1.5-2.5.3-.8 2.2-1.2-2.2-2.5-.2 1.8-1.5-.3-2.5z"/></g><g transform="translate(2600)"><path fill-rule="evenodd" clip-rule="evenodd" fill="#FFDEEF" d="M37.5 6.8c11 0 21.6 10.4 20 22.9l-2.5 19.7c-1.6 12.5-6.5 18.8-17.5 18.8s-16.5-6-17.8-18.3l-2.2-20.1c-1.3-12.6 9-23 20-23z"/><path fill-rule="evenodd" clip-rule="evenodd" fill="#FFF1E3" d="M37.7 41.4c8.3 0 15-6.7 15-15s-6.7-15-15-15-15 6.7-15 15c0 8.2 6.8 15 15 15z"/><path fill-rule="evenodd" clip-rule="evenodd" fill="#FFD4EA" d="M37.6 6.8c11 .1 21.4 10.4 19.9 22.9l-2.5 19.7c-1.6 12.4-6.5 18.7-17.4 18.8v-61.4z"/><path fill-rule="evenodd" clip-rule="evenodd" fill="#FFE7CF" d="M37.5 41.3c8-.3 14.4-6.9 14.4-15s-6.4-14.7-14.4-15v30z"/><path fill-rule="evenodd" clip-rule="evenodd" fill="#469FD6" d="M30.9 21.6c-.9 0-1.7.7-1.8 1.7 0 .9.7 1.7 1.6 1.7.9 0 1.7-.7 1.8-1.7 0-.9-.7-1.7-1.6-1.7zM44.1 21.6c-.9 0-1.7.7-1.8 1.7 0 .9.7 1.7 1.6 1.7.9 0 1.7-.7 1.8-1.7.1-.9-.6-1.7-1.6-1.7z"/><path fill-rule="evenodd" clip-rule="evenodd" fill="#FC6A49" d="M37.4 40.4c3.5 0 6.4-2.8 6.4-6.3s-2.9-6.3-6.4-6.3c-3.5 0-6.4 2.8-6.4 6.3s2.8 6.3 6.4 6.3z"/><path fill-rule="evenodd" clip-rule="evenodd" fill="#FFF5FA" d="M37.3 37.1c1.7 0 3.1-1.4 3.1-3 0-1.7-1.4-3-3.1-3-1.7 0-3.1 1.4-3.1 3 .1 1.7 1.4 3 3.1 3zM20.7 55.5l34.7-9.6-.1 1.7-34 9.6zM38.5 51.1l-19.5-7.3.2 1.9 17.2 6.2z"/><path fill-rule="evenodd" clip-rule="evenodd" fill="#F7AD71" d="M35.8 15.1v.8c0 .3-.3.5-.5.5-.3 0-.5-.2-.5-.5v-4c0-.3.2-.5.5-.5.2 0 .5.2.5.5v3.2zM38.1 14.9v.8c0 .3-.3.5-.5.5-.3 0-.5-.2-.5-.5v-4c0-.3.2-.5.5-.5.2 0 .5.2.5.5v3.2zM40.4 15v.8c0 .3-.3.5-.5.5-.3 0-.5-.2-.5-.5v-4c0-.3.2-.5.5-.5.2 0 .5.2.5.5v3.2z"/></g><g transform="translate(2800)"><path fill="#FCC09A" d="M28.4 18c.1 4.6-3.2 8.4-7.4 8.5-4.2.1-7.7-3.5-7.8-8.1-.1-4.6 3.2-8.4 7.4-8.5 4.2-.1 7.7 3.5 7.8 8.1z"/><ellipse transform="matrix(1 -.026 .026 1 -.486 .558)" fill="#FFDCC4" cx="20.8" cy="18.6" rx="4.1" ry="4.5"/><path fill="#F5AE82" d="M61.8 17.5c.1 4.6-3.2 8.4-7.4 8.5-4.2.1-7.7-3.5-7.8-8.1-.1-4.6 3.2-8.4 7.4-8.5 4.2-.1 7.7 3.5 7.8 8.1z"/><ellipse transform="matrix(1 -.026 .026 1 -.454 1.439)" fill="#FFDCC4" cx="54.1" cy="17.9" rx="4.1" ry="4.5"/><path fill="#FCC09A" d="M29.2 57.9c0 4.6-3.4 8.3-7.6 8.3-4.2 0-7.6-3.7-7.6-8.3 0-4.6 3.4-8.3 7.6-8.3 4.2 0 7.6 3.7 7.6 8.3z"/><ellipse fill="#F5AE82" cx="52.3" cy="57.9" rx="7.6" ry="8.3"/><path fill="#FCC09A" d="M50.9 47.4c0 7.7-6.2 14-13.9 14s-13.9-6.3-13.9-14 7.3-13.9 13.9-14c7.7 0 13.9 6.3 13.9 14z"/><path fill="#F5AE82" d="M51 48.3c4.3.7 7.2-1 7.6-3.6.5-2.6-1.6-6.3-10.7-6.2 1.4 3.4 2.7 4.5 3.1 9.8zM37.8 58.6s-.6 2.8-.5 2.8c7.7 0 13.9-6.3 13.9-14s-6.4-14.8-13.2-14.8c0 0 .3 9.5.2 9.5l-.4 16.5zM55.2 24.8c.2 8.8-7.7 16.1-17.4 16.7-9.8.3-17.9-6.7-18.1-15.8-.3-9.1 7.4-16.7 17.3-16.9 9.8-.3 17.9 6.9 18.2 16z"/><path fill="#F9CCAF" d="M48.5 32.6c.1 4.7-5 8.8-10.9 9-5.9.2-10.2-3.8-10.4-8.4-.1-4.7 4.5-8.6 10.4-8.7 5.9-.2 10.7 3.5 10.9 8.1z"/><ellipse fill="#FFDCC4" cx="20.5" cy="59.2" rx="4.6" ry="5.4"/><path fill="#FCC09A" d="M37.5 41.7c-9.8.2-17.6-6.8-17.9-15.9-.2-9.2 7.5-16.8 17.4-17h.8l-.3 32.9z"/><path fill="#FFDCC4" d="M38.1 41.6c-8.8.3-11.1-6.3-10.9-8.4-.2-5.7 5.8-8.8 10.6-8.7l.2 4.6.1 12.5z"/><ellipse fill="#FFDCC4" cx="53.5" cy="59.2" rx="4.6" ry="5.4"/><path fill="#875638" d="M31.9 23.1c0 1-.8 1.9-1.8 1.9s-1.9-.8-1.9-1.8.8-1.9 1.8-1.9c1-.1 1.8.7 1.9 1.8zM47.8 22.4c0 1-.8 1.9-1.8 1.9s-1.9-.8-1.9-1.8.8-1.9 1.8-1.9 1.9.8 1.9 1.8z"/><path fill="#FCC09A" d="M23.3 48.3c-4.3.7-7.7-1-8.1-3.6-.4-2.6 2-7.6 11.6-6.1-2 3.5-3.7 5.1-3.5 9.7z"/><ellipse fill="#FFDCC4" cx="18.3" cy="43.9" rx="2" ry="2.4"/><ellipse fill="#FFDCC4" cx="55.5" cy="43.9" rx="2" ry="2.4"/><path fill="#F54D27" d="M43.6 46.6c-2.7-.6-4.7 1.4-5.7 2.4-.5-1.4-2.3-4.1-5.1-4.6-3.6-.7-8.1 2.8-6.2 9.3 1.7 5.8 6.8 10 7.9 10.8 1.3-.3 7.6-2.2 11.4-6.9 4.1-5.3 1.3-10.3-2.3-11z"/><path fill="#FA6949" d="M37.9 48.8c-.7-.9-1.8-3.8-5.1-4.5-3.7-.9-8.2 2.8-6.3 9.3 1.7 5.8 6.8 9.9 7.8 10.7l3.6-15.5z"/><path fill="#DB834C" d="M32.6 36.2c-.3-.1-.4-.3-.3-.6.1-.3.3-.4.6-.3 0 0 3.8 1.4 4.5-2.6l.5-.2.6.2s.5 3.4 4.3 2.5c.3-.1.5 0 .6.3.1.3-.2.5-.4.6-3 .7-4.4-.7-5-2-1.6 3.2-5.4 2.1-5.4 2.1z"/><ellipse transform="matrix(1 -.026 .026 1 -.781 1.013)" fill="#AB7554" cx="37.9" cy="30.1" rx="3.5" ry="2.8"/></g><g transform="translate(3000)"><path fill-rule="evenodd" clip-rule="evenodd" fill="#FF8A70" d="M26.5 7.7h22.6c1.6 0 2.8 1.3 2.8 2.8v22.6c0 1.6-1.3 2.8-2.8 2.8h-22.6c-1.6 0-2.8-1.3-2.8-2.8v-22.5c0-1.6 1.2-2.9 2.8-2.9z"/><path fill-rule="evenodd" clip-rule="evenodd" fill="#86CCF7" d="M10.5 39h22.6c1.6 0 2.8 1.3 2.8 2.8v22.6c0 1.6-1.3 2.8-2.8 2.8h-22.6c-1.6 0-2.8-1.3-2.8-2.8v-22.6c0-1.5 1.3-2.8 2.8-2.8z"/><path fill-rule="evenodd" clip-rule="evenodd" fill="#FCE477" d="M41.9 39.1h22.6c1.6 0 2.8 1.3 2.8 2.8v22.6c0 1.6-1.3 2.8-2.8 2.8h-22.6c-1.6 0-2.8-1.3-2.8-2.8v-22.6c0-1.6 1.3-2.8 2.8-2.8z"/><path fill-rule="evenodd" clip-rule="evenodd" fill="#FF8063" d="M37.8 7.7h11.3c1.6 0 2.8 1.3 2.8 2.8v22.6c0 1.6-1.3 2.8-2.8 2.8h-11.3v-28.2z"/><path fill="#fff" d="M37.8 11.6c1.6 0 2.7.9 3.3 2.6l5 14.1c.2.6.3 1.1.3 1.4 0 .6-.2 1.1-.6 1.5-.4.4-1 .6-1.6.6-1.1 0-1.9-.7-2.4-2.1l-.7-2.3h-3.4v-4h2.2l-2.2-6.9h-.1v-4.9h.2zm-.2 15.7h-3.5l-.8 2.5c-.4 1.3-1.1 2-2.2 2-.6 0-1.1-.2-1.5-.6-.4-.4-.6-.9-.6-1.5 0-.5.1-.9.2-1.3l5.1-13.9c.7-1.9 1.8-2.8 3.3-2.9v4.9l-2.2 6.8h2.2v4z"/><path fill-rule="evenodd" clip-rule="evenodd" fill="#FADD5C" d="M53.2 39.1h11.3c1.6 0 2.8 1.3 2.8 2.8v22.6c0 1.6-1.3 2.8-2.8 2.8h-11.3v-28.2z"/><path fill="#fff" d="M53.8 43.2c1.6 0 3 .4 4.2 1.1 1.5.9 2.3 2.2 2.3 3.8 0 2.2-.8 3.6-2.3 4.4v.1c1.2.4 2 .9 2.5 1.6.5.7.8 1.7.8 2.9 0 2-.7 3.5-2.1 4.6-1.2.9-2.9 1.4-5 1.4h-.4v-3.9c.8 0 1.3-.2 1.7-.4.6-.3.9-1 .9-1.8 0-1-.3-1.7-.9-2.1-.4-.2-1-.3-1.8-.4v-3.6c.5 0 .9-.1 1.2-.3.5-.3.8-.8.8-1.6 0-1.1-.6-1.7-1.9-1.9v-3.9zm-4.1 19.9c-1.1 0-1.9-.2-2.4-.6-.5-.4-.7-1.1-.7-2.3v-13.8c0-1.2.2-2 .7-2.5.5-.5 1.3-.7 2.4-.7h4.1000000000000005v3.9h-2.7v3.9h2.7v3.6h-2.7v4.7h2.6999999999999997v3.9h-4.1z"/><path fill-rule="evenodd" clip-rule="evenodd" fill="#77C3F2" d="M21.8 39h11.3c1.6 0 2.8 1.3 2.8 2.8v22.6c0 1.6-1.3 2.8-2.8 2.8h-11.3v-28.2z"/><path fill="#fff" d="M22.3 58.3c1.6-.1 2.4-.9 2.4-2.4s-.8-2.3-2.4-2.5v-3.9h.5c2 0 3.6.6 4.8 1.7 1.2 1.1 1.7 2.7 1.7 4.7s-.6 3.6-1.9 4.7c-1.2 1.1-2.9 1.6-4.9 1.6h-.2v-3.9zm0-10.8v-4h3c2 0 3.1.7 3.1 2s-1 2-3.1 2h-3zm-2.4 5.9v4.9h2.3v4h-3.7c-1.1 0-1.9-.2-2.3-.7-.4-.4-.6-1.2-.6-2.3v-12.8c0-1.1.2-1.9.6-2.3.4-.4 1.2-.7 2.3-.7h3.7v4h-2.4v2h2.4v3.9h-2.3z"/></g><g transform="translate(3200)"><path fill-rule="evenodd" clip-rule="evenodd" fill="#78C2F0" d="M59.5 35.5h2.5c1.4 0 2.5 1.5 2.5 3.3v15.6c0 1.8-1.1 3.3-2.5 3.3h-2.5v-22.2z"/><path fill-rule="evenodd" clip-rule="evenodd" fill="#82C9F5" d="M15.5 35.5h-2.5c-1.4 0-2.5 1.5-2.5 3.3v15.6c0 1.8 1.1 3.3 2.5 3.3h2.5v-22.2z"/><path fill-rule="evenodd" clip-rule="evenodd" fill="#78C2F0" d="M37.9 10.3c4.6.1 8.3 3.6 8.3 8s-3.7 8-8.3 8v-2.7c3.1 0 4.9-2.4 4.9-5.4 0-3-1.8-4.7-4.9-4.8v-3.1zm-.1 0h.1v3.2c-3.1 0-4.9 1.9-4.9 4.8 0 3 1.7 5.3 4.9 5.3v2.7h-.1c-4.7 0-8.4-3.6-8.4-8s3.7-8 8.4-8z"/><path fill-rule="evenodd" clip-rule="evenodd" fill="#B6E1FC" d="M22.3 17.7h30.4c4 0 7.3 3.3 7.3 7.3v32.4c0 4-3.3 7.3-7.3 7.3h-30.4c-4 0-7.3-3.3-7.3-7.3v-32.4c0-4 3.3-7.3 7.3-7.3z"/><path fill-rule="evenodd" clip-rule="evenodd" fill="#A6DBFC" d="M37.8 17.7h14.9c4 0 7.3 3.3 7.3 7.3v32.4c0 4-3.3 7.3-7.3 7.3h-14.9v-47z"/><path fill-rule="evenodd" clip-rule="evenodd" fill="#93D3FA" d="M22.3 17.4h30.5c4 0 7.3 3.3 7.3 7.3v4.3c0 4-3.3 7.3-7.3 7.3h-30.5c-4 0-7.3-3.3-7.3-7.3v-4.4c0-3.9 3.2-7.2 7.3-7.2z"/><path fill-rule="evenodd" clip-rule="evenodd" fill="#78C2F0" d="M22.3 17.1h5.1v17.2h-5.1zM47.7 17.1h5.1v17.1h-5.1z"/><path fill-rule="evenodd" clip-rule="evenodd" fill="#FEEFB2" d="M33.8 30.6l7-7.1 2.7.8v9.9z"/><path fill-rule="evenodd" clip-rule="evenodd" fill="#FFE781" d="M38.5 32.4l3.7-8.4 1.3.4v9.8z"/><path fill-rule="evenodd" clip-rule="evenodd" fill="#F3775B" d="M26.3 49l7.5-18.4 4.8 1.7-6 15.8z"/><path fill-rule="evenodd" clip-rule="evenodd" fill="#F26748" d="M32.4 48.1l6.2-15.8 4.9 1.9-5.1 13.2zM40.7 23.6l2.8-2.8v3.8z"/><path fill-rule="evenodd" clip-rule="evenodd" fill="#83CAF7" d="M56.7 45.8v8.7c0 3.2-2.6 5.8-5.8 5.8h-27c-3.2 0-5.8-2.6-5.8-5.8v-8.7h38.6z"/><path fill-rule="evenodd" clip-rule="evenodd" fill="#FFF6D1" d="M22.5 33.5h4.6c.5 0 .9.4.9.9v2.8c0 .5-.4.9-.9.9h-4.6c-.5 0-.9-.4-.9-.9v-2.8c0-.4.4-.9.9-.9zM47.9 33.5h4.6c.5 0 .9.4.9.9v2.8c0 .5-.4.9-.9.9h-4.6c-.5 0-.9-.4-.9-.9v-2.8c-.1-.4.4-.9.9-.9z"/></g><g transform="translate(3400)"><path fill="#61C448" d="M40.4 16.8v-4.5c0-1.4-1.2-2.6-2.6-2.6-1.4 0-2.6 1.2-2.6 2.6v4.5c.8-.1 1.7-.1 2.5-.1l2.7.1z"/><path fill="#54B83B" d="M58.2 37.9c-.5-.5-.5-1.4 0-1.9l5.6-5.6c.2-.2.6-.4.9-.4h5.6c.7 0 1.3 1.3 1.3 2.1 0 .7-.6 2.1-1.4 2.1h-5.1l-5.1 5.3c-.3.3-.6.4-.9.4-.3 0-.6-1.7-.9-2z"/><path fill="#73D15C" d="M16.8 37.9c.5-.5.5-1.4 0-1.9l-5.6-5.6c-.2-.2-.6-.4-.9-.4h-5.8c-.7 0-1.3 1.3-1.3 2.1 0 .7.6 2.1 1.4 2.1h5.1l5.3 5.2c.3.3.6.4.9.4.3.1.6-1.6.9-1.9z"/><path fill="#54B83B" d="M40.4 16.8v-4.5c0-1.4-1.2-2.6-2.6-2.6h-.1v7l2.7.1z"/><path fill="#FF8063" d="M15.7 24.3h44.1c0-4.6-9.9-8.2-22.1-8.2-12.2 0-22 3.7-22 8.2z"/><path fill="#FC6A49" d="M37.7 24.1l22.1.2c0-4.5-10.1-8.2-22.1-8.2v8z"/><path fill="#FCD3CA" d="M25.7 19.4c-.1 1.6 1.2 2.9 2.7 3 1.6.1 2.9-1.2 3-2.7.1-1.4-.9-2.6-2.2-2.9l-2.1.3c-.9.5-1.4 1.3-1.4 2.3z"/><circle fill="#FCB4A4" cx="40.6" cy="19.7" r="2.9"/><path fill="#FCBAAB" d="M52.4 22c1.5-.1 2.6-1.3 2.7-2.8-1.4-.7-3.1-1.3-5.1-1.8-.4.5-.6 1.2-.6 1.9 0 1.6 1.4 2.8 3 2.7z"/><path fill="#FC6A49" d="M15.7 57.4c0 4.4 3.5 7.9 7.9 7.9h28.4c4.4 0 7.9-3.5 7.9-7.9v-29h-44.2v29z"/><path fill="#FF8063" d="M15.7 57.4c0 4.4 3.5 7.9 7.9 7.9h13.8l.4-37-22.1.1v29z"/><circle fill="#FCD3CA" cx="20.8" cy="33.4" r="2.9"/><circle fill="#FCBAAB" cx="33.8" cy="33.4" r="2.9"/><circle fill="#FCB4A4" cx="46.9" cy="33.4" r="2.9"/><circle fill="#FCD3CA" cx="27.5" cy="41.9" r="2.9"/><circle fill="#FCBAAB" cx="40.6" cy="41.9" r="2.9"/><circle fill="#FCBAAB" cx="53.6" cy="41.9" r="2.9"/><circle fill="#FCD3CA" cx="20.8" cy="50.8" r="2.9"/><circle fill="#FCBAAB" cx="33.8" cy="50.8" r="2.9"/><circle fill="#FCBAAB" cx="46.9" cy="50.8" r="2.9"/><circle fill="#FCD3CA" cx="27.5" cy="59.4" r="2.9"/><circle fill="#FCBAAB" cx="40.6" cy="59.4" r="2.9"/><circle fill="#FCBAAB" cx="53.6" cy="59.4" r="2.9"/><path fill-rule="evenodd" clip-rule="evenodd" fill="#61C448" d="M14.8 23.9h45.5c.8 0 1.4 1.2 1.4 2.6v.1c0 1.4-.6 2.6-1.4 2.6h-45.5c-.8 0-1.4-1.2-1.4-2.6v-.1c.1-1.4.7-2.6 1.4-2.6z"/><path fill="#FCBAAB" d="M56.3 33.7c.6 1.4 2.1 2.1 3.5 1.6v-5.4c-.6-.2-1.3-.2-2 .1-1.4.6-2.1 2.3-1.5 3.7zM56.3 51.9c.6 1.4 2.1 2.1 3.5 1.6v-5.4c-.6-.2-1.3-.2-2 .1-1.4.6-2.1 2.3-1.5 3.7z"/><path fill="#FCD3CA" d="M19.2 43c-.6 1.4-2.1 2.1-3.5 1.6v-5.4c.6-.2 1.3-.2 2 .1 1.5.6 2.1 2.3 1.5 3.7zM19.2 60.3c-.5 1-1.3 1.4-2.1 1.6-1.2-1.7-1.5-3.4-1.4-5.4.6-.2 1.3-.2 2 .1 1.4.5 2.1 2.2 1.5 3.7zM18.9 22.7c-.9-.2-1.6-.7-1.9-1.2 1.3-1.4 2.9-2.2 4.8-2.9.2.5.3.9.3 1.5-.2 1.5-1.6 2.7-3.2 2.6z"/><path fill-rule="evenodd" clip-rule="evenodd" fill="#54B83B" d="M37.7 23.9h22.6c.8 0 1.4 1.2 1.4 2.6v.1c0 1.4-.6 2.6-1.4 2.6h-22.6v-5.3z"/></g><g transform="translate(3600)"><path fill-rule="evenodd" clip-rule="evenodd" fill="#FFE46E" d="M17.1 28.8l-.1-21.3 3.1 2.2 2.6-2.3 2.2 2.3 2.9-2.3 2.2 2.3 2.6-2.2 2.6 2.3 2.3-2.4 2.5 2.4 2.7-2.4 2.5 2.4 2.4-2.4 2.3 2.4 2.3-2.3 2.9 2.3 2.8-2.3v21.2z"/><path fill-rule="evenodd" clip-rule="evenodd" fill="#FFDE4C" d="M37.6 7.4l2.4 2.4 2.7-2.4 2.5 2.4 2.4-2.4 2.3 2.4 2.3-2.3 2.9 2.3 2.8-2.3v21.1h-20.3z"/><path fill-rule="evenodd" clip-rule="evenodd" fill="#FFD2AD" d="M29.6 40.6h16.1v15.2h-16.1zM17 34.2h41v8.8c0 2.1-1.5 3.8-3.2 3.8h-34.5c-1.8 0-3.2-1.7-3.2-3.8v-8.8z"/><path fill-rule="evenodd" clip-rule="evenodd" fill="#FC6A49" d="M37.9 55.6h7.8v8c0 1.5-2.3 4-4 4h-3.8v-3.8c1.2 0 2.2-1 2.2-2.2 0-1.2-1-2.2-2.2-2.2v-3.8zm-8.3 0h8.3v3.9c-1.2 0-2.2 1-2.2 2.2 0 1.2 1 2.2 2.2 2.2v3.8h-4.3c-1.6 0-4-2.6-4-4v-8.1z"/><path fill-rule="evenodd" clip-rule="evenodd" fill="#F2F2F2" d="M17.1 28.7h40.9v5.6h-40.9z"/><path fill-rule="evenodd" clip-rule="evenodd" fill="#FCCAA1" d="M37.6 34.2h20.4v8.8c0 2.1-1.5 3.8-3.2 3.8h-17.2v-12.6z"/></g><g transform="translate(3800)"><path fill-rule="evenodd" clip-rule="evenodd" fill="#E2DBFC" d="M19 39.2l.1 23.2c0 1.1.9 3.3 3.9 3.3s29.3-.1 29.8-.1 2.9-.7 2.9-3 .1-23.4.1-23.4h-3.8c-1.5 0-3.8-1-4-4.2-.1-1.1-.1-3-.2-5.1h-20.7v4.9c0 1.8-1.9 4.4-4.5 4.4h-3.6z"/><path fill-rule="evenodd" clip-rule="evenodd" fill="#D8CFFC" d="M37.9 65.7h14.9c.5 0 2.9-.7 2.9-3s.1-23.4.1-23.4h-3.8c-1.5 0-3.8-1-4-4.2-.1-1.1-.1-3-.2-5.1h-10v35.7z"/><path fill="#B2A6DE" d="M4.2 30.2s3.7 2 6.7-.4c2.1-1.6 4.2-3 6.2-3.7 2-.7 4-.6 5.7 0 3.2 1.2 5.1 3.2 5.1 3.2l-.1 2.8s-3.4-2.5-6-3.5c-1.1-.4-2.5-.5-3.9 0-1.8.6-3.5 1.9-5.4 3.3-4.4 3.4-9.6.6-9.6.6l1.3-2.3z"/><path fill-rule="evenodd" clip-rule="evenodd" fill="#B2A6DE" d="M37 67.4c8.3 0 16.8-.1 17.1 0 .5 0 3.2-.8 3.2-3.4 0-2.6.1-26.8.1-26.8h-4.1c-1.6 0-4.2-1.2-4.4-4.9-.2-3.7-.3-15.4-.3-16 0-.6-1.5-8.8-11.2-8.8h-.3v3.4h.3c7.8 0 8.1 6.9 8.2 7.6 0 0 .1 11.9.3 14.9.3 5 3.5 6.7 8.2 6.7 0 0-.1 18.9-.1 21 0 2.1-1.7 2.9-2.5 2.7h-14.4v3.6zm-20.1-30.2l.1 26.5c0 1.3 1 3.7 4.3 3.7h15.7v-3.5h-13.7c-2.6 0-3.2-1.8-3.2-2.5l-.1-21.3c5.1.2 8.8-3.5 8.8-6.7l-.1-14.9c0-.8.8-7.4 8.2-7.6v-3.4c-9.4.2-11.2 8.2-11.2 8.8l.1 15.8c0 2.1-2.1 5.1-4.9 5.1h-4z"/><path fill-rule="evenodd" clip-rule="evenodd" fill="#73D15C" d="M27.7 42.2h19.4v12.4c0 1.7-1.2 3.1-2.6 3.1h-14.3c-1.4 0-2.6-1.4-2.6-3.1v-12.4z"/><path fill-rule="evenodd" clip-rule="evenodd" fill="#B2A6DE" d="M27.7 28h19.4v3.6h-19.4z"/><path fill="#B2A6DE" d="M70.8 30s-3.7 2-6.7-.4c-2.1-1.6-4.2-3-6.2-3.7-2-.7-4-.6-5.7 0-3.2 1.2-5.1 3.2-5.1 3.2l.1 2.8s3.4-2.5 6-3.5c1.1-.4 2.5-.5 3.9 0 1.8.6 3.5 1.9 5.4 3.3 4.4 3.4 9.6.6 9.6.6l-1.3-2.3z"/><path fill-rule="evenodd" clip-rule="evenodd" fill="#61C448" d="M37.9 42.2h9.2v12.4c0 1.7-1.2 3.1-2.6 3.1h-6.6v-15.5z"/><defs><path id="a" d="M27.6 42.4h19.4v12.4c0 1.7-1.2 3.1-2.6 3.1h-14.2c-1.4 0-2.6-1.4-2.6-3.1v-12.4z"/></defs><clipPath id="b"><use xlink:href="#a" overflow="visible"/></clipPath><g clip-path="url(#b)" fill="#FFE988"><circle opacity=".91" cx="30.5" cy="44.9" r="1.8"/><circle opacity=".91" cx="31.3" cy="49.5" r="1.2"/><circle opacity=".91" cx="38.2" cy="44.5" r="1.3"/><circle opacity=".91" cx="30.9" cy="55.5" r="1.8"/><circle opacity=".91" cx="37.6" cy="49.7" r="1.8"/><circle opacity=".91" cx="37.4" cy="55" r="1.3"/><circle opacity=".91" cx="44.3" cy="55.2" r="1.8"/><circle opacity=".91" cx="43.7" cy="49.9" r="1.1"/><circle opacity=".91" cx="44.7" cy="44.9" r="1.8"/></g><path fill-rule="evenodd" clip-rule="evenodd" fill="#AA9DD9" d="M27.6 42.1h19.5v1.4h-19.5z"/></g></svg>