<svg baseProfile="tiny" xmlns="http://www.w3.org/2000/svg" preserveAspectRatio="xMinYMin meet" viewBox="0 0 400 2800" width="400" height="2800"><path fill="rgb( 133, 131, 131 )" d="M6.004 4.308l3.8-3.8c.383-.382 1.002-.382 1.384 0l.346.345c.382.383.382 1.002 0 1.384L7.06 6.71c-.006.004-.01.013-.015.02l-.346.345c-.197.192-.448.287-.7.286-.25 0-.504-.092-.696-.284L4.96 6.73c-.007-.006-.01-.016-.015-.023L.473 2.234c-.382-.382-.382-1 0-1.384L.817.507c.38-.382 1-.382 1.384 0l3.8 3.8z"/><g transform="translate(0 400)"><path fill="rgb( 255,255,255 )" d="M6.004 4.308l3.8-3.8c.383-.382 1.002-.382 1.384 0l.346.345c.382.383.382 1.002 0 1.384L7.06 6.71c-.006.006-.01.015-.015.02l-.346.347c-.195.192-.446.287-.698.286-.252 0-.504-.094-.696-.286L4.96 6.73c-.007-.004-.01-.014-.015-.02L.475 2.234c-.383-.382-.383-1 0-1.384L.817.508c.38-.382 1-.382 1.384 0l3.8 3.8z"/></g><g transform="translate(0 800)"><path fill="#797979" d="M6.004 4.308l3.8-3.8c.383-.382 1.002-.382 1.384 0l.346.345c.382.383.382 1.002 0 1.384L7.06 6.71c-.006.004-.01.013-.015.02l-.346.345c-.197.192-.448.287-.7.286-.25 0-.504-.092-.696-.284L4.96 6.73c-.007-.006-.01-.016-.015-.023L.473 2.234c-.382-.382-.382-1 0-1.384L.817.507c.38-.382 1-.382 1.384 0l3.8 3.8z"/></g><g transform="translate(0 1200)"><path fill="#289fd7" d="M3.3 6l3.8 3.8c.4.4.4 1 0 1.4l-.4.3c-.4.4-1 .4-1.4 0L.8 7.1l-.3-.4C.3 6.5.2 6.3.2 6c0-.3.1-.5.3-.7L.8 5 5.3.5c.4-.4 1-.4 1.4 0l.3.3c.4.4.4 1 0 1.4L3.3 6z"/></g><g transform="translate(0 1600)"><path fill="#f17504" d="M3.3 6l3.8 3.8c.4.4.4 1 0 1.4l-.4.3c-.4.4-1 .4-1.4 0L.8 7.1l-.3-.4C.3 6.5.2 6.3.2 6c0-.3.1-.5.3-.7L.8 5 5.3.5c.4-.4 1-.4 1.4 0l.3.3c.4.4.4 1 0 1.4L3.3 6z"/></g><g transform="translate(0 2000)"><path fill="#289fd7" d="M4.6 6L.8 2.2C.4 1.8.4 1.2.8.8l.3-.3c.4-.4 1-.4 1.4 0L7 5l.3.3c.2.2.3.4.3.7 0 .3-.1.5-.3.7L7 7l-4.5 4.5c-.4.4-1 .4-1.4 0l-.3-.3c-.4-.4-.4-1 0-1.4L4.6 6z"/></g><g transform="translate(0 2400)"><path fill="#f17504" d="M4.6 6L.8 2.2C.4 1.8.4 1.2.8.8l.3-.3c.4-.4 1-.4 1.4 0L7 5l.3.3c.2.2.3.4.3.7 0 .3-.1.5-.3.7L7 7l-4.5 4.5c-.4.4-1 .4-1.4 0l-.3-.3c-.4-.4-.4-1 0-1.4L4.6 6z"/></g></svg>