<svg baseProfile="tiny" xmlns="http://www.w3.org/2000/svg" preserveAspectRatio="xMinYMin meet" viewBox="0 0 120 460" width="120" height="460"><path fill="rgb( 17, 156, 221 )" d="M25.5 8C23.567 8 22 6.43 22 4.5 22 2.565 23.567 1 25.5 1S29 2.565 29 4.5C29 6.43 27.433 8 25.5 8zm-11 0C12.567 8 11 6.43 11 4.5 11 2.565 12.567 1 14.5 1S18 2.565 18 4.5C18 6.43 16.433 8 14.5 8zm-11 0C1.567 8 0 6.43 0 4.5 0 2.565 1.567 1 3.5 1S7 2.565 7 4.5C7 6.43 5.433 8 3.5 8z"/><g transform="translate(0 40)"><path fill="rgb( 241, 117, 4 )" d="M25.5 8C23.567 8 22 6.43 22 4.5 22 2.565 23.567 1 25.5 1S29 2.565 29 4.5C29 6.43 27.433 8 25.5 8zm-11 0C12.567 8 11 6.43 11 4.5 11 2.565 12.567 1 14.5 1S18 2.565 18 4.5C18 6.43 16.433 8 14.5 8zm-11 0C1.567 8 0 6.43 0 4.5 0 2.565 1.567 1 3.5 1S7 2.565 7 4.5C7 6.43 5.433 8 3.5 8z"/></g><g transform="translate(0 80)"><path fill="rgb( 255, 255, 255 )" d="M49.704 11.788c-10.493 0-19.995 4.255-26.874 11.133-6.878 6.88-11.133 16.38-11.133 26.876 0 10.493 4.255 19.995 11.133 26.873 6.88 6.88 16.38 11.133 26.874 11.133S69.7 83.547 76.58 76.668c6.877-6.878 11.132-16.38 11.132-26.873 0-10.494-4.255-19.995-11.133-26.874-6.88-6.876-16.383-11.13-26.877-11.13zm-34.62 3.386C23.944 6.312 36.184.83 49.704.83c13.52 0 25.76 5.482 34.62 14.344 8.86 8.86 14.344 21.102 14.344 34.62 0 13.52-5.483 25.76-14.344 34.622-8.86 8.862-21.103 14.343-34.622 14.343-13.518 0-25.76-5.483-34.62-14.345C6.22 75.555.74 63.313.74 49.795c0-13.52 5.482-25.76 14.343-34.62zm57.05 40.506c-3.63 3.016-25.814 19.313-25.814 19.313s-10.067 1.403-10.28-4.74c-.215-6.145-.02-38.442-.02-38.442s1.732-7.797 10.125-4.3c4.038 2.987 26.514 20.447 26.514 20.447s3.486 4.39-.528 7.725zM45.78 39.566l.204 23.7 15.374-11.78-15.578-11.92z"/></g><g transform="translate(0 200)"><path fill="rgb( 255, 255, 255 )" d="M12.017 7h-5v5.062H5V7H0V5h5V.015h2.017V5h5v2z"/></g><g transform="translate(0 240)"><path fill="rgb( 255, 255, 255 )" d="M84.326 84.416c-8.86 8.86-21.103 14.343-34.622 14.343-13.518 0-25.76-5.484-34.62-14.345C6.22 75.555.74 63.313.74 49.795c0-13.52 5.482-25.76 14.343-34.62C23.945 6.314 36.186.83 49.703.83c13.52 0 25.762 5.483 34.623 14.344 8.86 8.86 14.343 21.102 14.343 34.62 0 13.52-5.484 25.76-14.345 34.622zM76.58 22.92c-6.88-6.876-16.383-11.13-26.877-11.13-10.493 0-19.995 4.255-26.874 11.133-6.88 6.88-11.134 16.38-11.134 26.875 0 10.493 4.255 19.995 11.133 26.874C29.71 83.546 39.21 87.8 49.703 87.8S69.7 83.547 76.58 76.67c6.877-6.88 11.132-16.382 11.132-26.875 0-10.494-4.255-19.995-11.133-26.874zm-8.922 32.165H55.31v12.853c0 2.946-2.41 5.356-5.355 5.356h-.8c-2.947 0-5.356-2.41-5.356-5.356V55.085H30.984c-2.946 0-5.356-2.02-5.356-4.966v-.803c0-2.946 2.41-5.355 5.355-5.355H43.8V31.266c0-2.946 2.408-5.356 5.354-5.356h.8c2.947 0 5.356 2.41 5.356 5.356v12.697h12.348c2.946 0 5.355 2.41 5.355 5.355v.8c0 2.947-2.41 4.967-5.355 4.967z"/></g><g transform="translate(0 360)"><g fill-rule="evenodd" clip-rule="evenodd"><path fill="#73C869" d="M9 48.2c-3.8-.4-5.8-1.7-7.6-3.1-1.5 2.5-1.1 5-.2 6.5 0 0 .5 1 7.8.3v-3.7z"/><path fill="#64B9EB" d="M8.7 53.5c-3.2.3-4.7.6-7.5-.3-.8 2.6-.5 3.7.8 5.7 0 0 2.9 1.1 6.9-1l-.2-4.4z"/><path fill="#FF8232" d="M8.8 59.5c-2.5 1.1-3.9 1.6-6.5 1.2-.5 1.3-.9 3.4.5 5.2 1.4-.2 3.2.3 6.4-1.8l-.4-4.6z"/><path fill="#AA96D2" d="M10.1 65.8c-1.8 1.1-4.7 1.4-7 1.4-.9 2.4-.6 3.4 1 4.9 1.2-.2 2.9 0 6.4-2.6l-.4-3.7z"/><path fill="#FF8232" d="M30.2 27.4l11.1-5.3s.3 6.1-.8 10.5c-.8 3.6-10.3-5.2-10.3-5.2z"/><path fill="#FFD72C" d="M31.2 26.8l10.1-4.7-4.8 7.6z"/><path fill="#FFE641" d="M7.4 43.8v29.7C7.5 81.7 25 82 25 73.4V60.6s6.7 4.9 15.3-2.1c4.3 1.4 7.7-.9 9.9-3.6 3.2-2.3 4.3-5.6 3.9-9.6-.3-2.9-2.4-4-5.4-6.5-2.9-2.5-4.7-12.3-19.5-14.5-3.7-5.5-8.5-12.3-8.5-12.3l-1.3 13.3-7-10.9L11.2 30l-9-3.4c.1.1-4.3 13.2 5.2 17.2z"/><path fill="#C3640F" d="M7.1 5.1l5.8-2.2-.7 10.4zm9.4-2.5L22.4.2l-2 10.5z"/><path opacity=".5" fill="#FF8232" d="M7.4 50l4.2 5.6L7.4 62zm0 14.2l5.5 8.5-3.4 5c-1.8-1.2-2.2-3.8-2.2-3.8l.1-9.7zm3.3-.9l3-3.8 3.5 4.3-3.4 3.8z"/><circle fill="#fff" cx="27.7" cy="37.5" r="6.3"/><path fill="#333" d="M27.3 40.1c2.2 0 3.9-1.8 3.9-3.9 0-2.2-1.8-3.9-3.9-3.9-2.2 0-3.9 1.8-3.9 3.9 0 2.1 1.7 3.9 3.9 3.9z"/><circle fill="#fff" cx="26.5" cy="34.7" r="1.6"/><circle fill="#C3640F" cx="46.3" cy="48.4" r="2.6"/><path fill="#FF8232" d="M40.2 58.5l-5.3-3.8 2.5 5.9zM2.4 26.7l7.5 10.5s-3.2 1.1-2.5 7.9C2.2 42.6-3 36 2.4 26.7z"/></g></g></svg>