<svg baseProfile="tiny" xmlns="http://www.w3.org/2000/svg" preserveAspectRatio="xMinYMin meet" viewBox="0 0 120 360" width="120" height="360"><path fill="rgb( 17, 156, 221 )" d="M25.5 8C23.567 8 22 6.43 22 4.5 22 2.565 23.567 1 25.5 1S29 2.565 29 4.5C29 6.43 27.433 8 25.5 8zm-11 0C12.567 8 11 6.43 11 4.5 11 2.565 12.567 1 14.5 1S18 2.565 18 4.5C18 6.43 16.433 8 14.5 8zm-11 0C1.567 8 0 6.43 0 4.5 0 2.565 1.567 1 3.5 1S7 2.565 7 4.5C7 6.43 5.433 8 3.5 8z"/><path fill="rgb( 241, 117, 4 )" d="M25.5 48c-1.933 0-3.5-1.57-3.5-3.5 0-1.935 1.567-3.5 3.5-3.5s3.5 1.565 3.5 3.5c0 1.93-1.567 3.5-3.5 3.5zm-11 0c-1.933 0-3.5-1.57-3.5-3.5 0-1.935 1.567-3.5 3.5-3.5s3.5 1.565 3.5 3.5c0 1.93-1.567 3.5-3.5 3.5zm-11 0C1.567 48 0 46.43 0 44.5 0 42.565 1.567 41 3.5 41S7 42.565 7 44.5C7 46.43 5.433 48 3.5 48z"/><path fill="rgb( 255, 255, 255 )" d="M49.704 91.788c-10.493 0-19.995 4.255-26.874 11.133-6.878 6.88-11.133 16.38-11.133 26.878 0 10.493 4.255 19.995 11.133 26.873 6.88 6.88 16.38 11.134 26.874 11.134S69.7 163.548 76.58 156.67c6.877-6.88 11.132-16.38 11.132-26.874S83.457 109.8 76.58 102.922C69.7 96.046 60.194 91.79 49.7 91.79zm-34.62 3.386c8.86-8.862 21.1-14.344 34.62-14.344 13.52 0 25.76 5.482 34.62 14.344 8.86 8.86 14.344 21.102 14.344 34.62 0 13.52-5.483 25.76-14.344 34.622-8.86 8.862-21.103 14.343-34.622 14.343-13.518 0-25.76-5.485-34.62-14.347C6.22 155.553.74 143.313.74 129.793c0-13.52 5.482-25.76 14.343-34.62zm57.05 40.506c-3.63 3.016-25.814 19.313-25.814 19.313s-10.067 1.403-10.28-4.74c-.215-6.145-.02-38.442-.02-38.442s1.732-7.795 10.125-4.3c4.038 2.99 26.515 20.45 26.515 20.45s3.485 4.39-.53 7.725zM45.78 119.566l.204 23.7 15.374-11.78-15.578-11.92zM12.017 207h-5v5.062H5V207H0v-2h5v-4.985h2.017V205h5v2zm72.31 117.416c-8.86 8.86-21.104 14.343-34.623 14.343-13.518 0-25.76-5.486-34.62-14.347C6.22 315.553.74 303.313.74 289.793c0-13.52 5.482-25.76 14.343-34.62 8.862-8.86 21.103-14.343 34.62-14.343 13.52 0 25.762 5.483 34.623 14.344 8.86 8.86 14.343 21.102 14.343 34.62 0 13.52-5.486 25.76-14.347 34.622zM76.58 262.92c-6.88-6.876-16.383-11.13-26.877-11.13-10.493 0-19.995 4.255-26.874 11.133-6.88 6.88-11.136 16.38-11.136 26.875 0 10.493 4.255 19.995 11.133 26.874C29.71 323.546 39.21 327.8 49.703 327.8s19.997-4.253 26.877-11.13c6.877-6.88 11.132-16.382 11.132-26.875 0-10.494-4.255-19.995-11.133-26.874zm-8.922 32.165H55.31v12.853c0 2.946-2.41 5.356-5.355 5.356h-.8c-2.947 0-5.356-2.41-5.356-5.356v-12.853H30.982c-2.946 0-5.356-2.02-5.356-4.966v-.805c0-2.946 2.41-5.355 5.355-5.355H43.8v-12.694c0-2.946 2.408-5.356 5.354-5.356h.8c2.947 0 5.356 2.41 5.356 5.356v12.697h12.348c2.946 0 5.355 2.41 5.355 5.355v.8c0 2.947-2.41 4.967-5.355 4.967z"/></svg>