<svg baseProfile="tiny" xmlns="http://www.w3.org/2000/svg" preserveAspectRatio="xMinYMin meet" xmlns:xlink="http://www.w3.org/1999/xlink" viewBox="0 0 3200 200" width="3200" height="200"><g><g><g><path fill-rule="evenodd" clip-rule="evenodd" fill="#C77946" d="M23 58.7c-.6.3-1.3.5-1.9.6-.6.1-1.3 0-1.8-.3-1.1-.5-2-1.6-2.7-2.7-.7-1.1-1.1-2.4-1.4-3.7-.4-2.6-.1-5.3.9-7.8s2.6-4.7 4.7-6.3c2.1-1.7 4.6-2.8 7.2-3.2 2.6-.4 5.4-.2 7.8.9 1.2.5 2.3 1.3 3.2 2.3.4.5.8 1 1.1 1.6.3.6.4 1.2.3 1.8-.1.6-.3 1.2-.6 1.8-.3.6-.7 1.1-1.2 1.7-.4.5-.9 1.1-1.4 1.6l-1.5 1.5c1.1-.8 2.2-1.7 3.3-2.7.4-.3.7-.7 1-1.1.5-.5.9-1.1 1.3-1.7.5-.8.8-1.7 1-2.7.2-.9.2-1.9 0-2.9-.3-1.9-1.3-3.6-2.5-5.1-1.2-1.5-2.7-2.7-4.4-3.7-.8-.5-1.7-.9-2.6-1.2-.9-.3-1.8-.5-2.8-.7-1.9-.3-3.8-.4-5.7-.1-3.8.5-7.5 1.9-10.5 4.4-1.5 1.2-2.8 2.7-3.8 4.2-1.1 1.6-2 3.3-2.6 5.1-.6 1.8-1 3.7-1.1 5.6-.1 1.9.1 3.9.8 5.7.6 1.8 1.6 3.5 2.9 4.9 1.3 1.4 2.8 2.6 4.5 3.4 1.7.8 3.7 1.2 5.5.8.9-.2 1.8-.5 2.6-.9.6-.4 1.2-.8 1.8-1.3.8-.6 1.4-1.2 2.1-1.9-.6.4-1.1.8-1.7 1.2l-1.8.9zm19-8c-3.4-2-7 1.9-12-5.1.1-.1.2-.2.3-.2.2-.2.5-.4.8-.5.6-.3 1.2-.5 1.9-.6 1.3-.3 2.7-.2 4.1 0-1.3-.4-2.7-.7-4.2-.7-.7 0-1.5.1-2.2.4-.4.1-.7.3-1.1.5-.1.1-.2.1-.3.2-.3-.2-.6-.3-.9-.4V44c0-.2 0-.3-.1-.5v-1c.1-.6.2-1.3.5-1.9.3-.6.6-1.2 1.1-1.7.5-.5 1-.9 1.6-1.3-.6.3-1.3.6-1.8 1-.6.4-1.1 1-1.5 1.6-.4.6-.7 1.3-.9 2-.1.4-.2.7-.2 1.1v1c-.4.1-.8.4-1.1.6-.3-.3-.7-.6-1-.8-.5-.4-1-.7-1.6-1-1.1-.6-2.2-1.2-3.3-1.6 1.1.6 2 1.3 2.9 2.1.4.4.9.8 1.3 1.3.3.3.6.7.8 1-.7.9-1.1 2.1-.9 3.3-.1 0-.2.1-.3.1-.3.1-.6.3-.9.4-.6.3-1.1.7-1.6 1.2s-.9 1-1.2 1.6c-.3.6-.5 1.2-.6 1.8.2-.6.5-1.1.9-1.6s.8-.9 1.3-1.2c.5-.3 1-.6 1.6-.8.3-.1.6-.2.9-.2.1 0 .2 0 .3-.1 1.6 4.4 5.1 8 10.4 10.3 2.9 1.3 6.8 1.3 8.8-1.8 1.9-2.9.9-6.6-1.8-8.2zm-.1 6.8c-1.1 1.6-2.7 1.9-3.9 1.9-1 0-2.1-.2-3-.7-5-2.3-8.2-5.6-9.5-9.8-.4-1.3.1-2.3.5-2.8.6-.8 1.5-1.3 2-1.2.3 0 .4.1.4.2 3.2 4.8 6.1 5.5 8.7 5.5h1.5c.9 0 1.6.1 2.2.5 1 .6 1.7 1.6 1.9 2.7.2 1.3-.1 2.6-.8 3.7z"/><path fill-rule="evenodd" clip-rule="evenodd" fill="#6B5B87" d="M70.6 13.6l-.2-.2c-1.4-.3-3.2-.6-4.3-.3.6 1.3.7 2.8.4 4.4l-.2 1.1-1.1.2c-1.6.2-3.1 0-4.4-.6-.5.8-.5 2.9-.3 4.3 4.3 10.1-20.9 24.1-7.9 37.4 7 7.1 19.2 1.4 25.3-8.9 5.2-9 6.5-23.6-7.3-37.4z"/><path fill-rule="evenodd" clip-rule="evenodd" fill="#fff" d="M67.6 24.1c-2.9-2.3-3.2 1.7-4 4.7-2.6 9.6-15.9 18.6-9.1 26.6 4.2 5.1 12.4 4.5 17.5-5.6 3.1-6.1 2.4-20.3-4.4-25.7z"/><path fill-rule="evenodd" clip-rule="evenodd" fill="#33B11A" d="M68.9 10.8c-2.4-2.6-6.3-3-9.2-1.1-1-.9-2.2-1.7-3.6-1.9-1-.1-2.6.1-4.1 1.6-.5.5-.5 1.3 0 1.7.5.5 1.2.4 1.7 0 .7-.7 1.3-1 2-.9.7.1 1.5.5 2.1 1.1-2.1 2.8-2 6.8.5 9.4 2.3 2.4-.5-1.9 1.5-5.4.1.1.1.2.2.2 1.2 1.3 3 1.8 4.8 1.5.4-1.8 0-3.6-1.3-4.9l-.2-.2c3.6-1.6 7.9 1.3 5.6-1.1z"/></g></g></g><g transform="translate(200)"><g><g><g><path fill-rule="evenodd" clip-rule="evenodd" fill="#FAD450" d="M79.5 18.1c-.4-.5-2.2-1.3-2.7-.9 0 0-.8.4-1.5 1L55 30.6h5.4l18.9-10.8c.5-.4.6-1.1.2-1.7z"/><path fill-rule="evenodd" clip-rule="evenodd" fill="#B78ECA" d="M55.7 57.7H33c-1 0-1.7.8-1.7 1.7 0 1 .8 2.2 1.7 2.2h22.7c1 0 1.7-1.2 1.7-2.2 0-.9-.8-1.7-1.7-1.7zm-38.5-26c0 1.9.2 4.2.6 6.1h46.6c.4 0 .7.4.7.8s-.3.1-.7.1H18.1c2 7.4 7.1 14.5 13.9 17.9h24.7c8.8-4.5 14.8-14.5 14.8-24.9H17.2z"/></g></g></g></g><g transform="translate(400)"><g><g><g><g><path fill-rule="evenodd" clip-rule="evenodd" fill="#61BDF7" d="M55.9 22.1c.1-.1.2-.1.2-.2s-.1-.3-.6-.4l-.3.4h.2c-1.4.3-5.9.7-12.7.7-6.8 0-11.3-.4-12.7-.7 1.4-.3 5.9-.7 12.7-.7 4.3 0 7.7.2 9.9.4l.1-.8c-2.4-.2-6-.5-10-.5-7.4 0-14.2.9-14.2 1.5 0 .1.2.2.5.3h-.3s6.6 16.6 4.2 36.1c-.1.4-.1.8-.2 1.3-.1.4-.1.8-.2 1.1v.3c0 .3-.1.6-.2.9 0 .1 0 .2-.1.3-.1.4-.1.8-.2 1.2v.1s0 .1.1.1l.1.1s.1.1.2.1.1.1.2.1.2.1.3.1c1.3.5 3.8.8 6.7.9v-5.6c-2.2-.1-4.1-.3-5.2-.6 1.8-18.6-4.1-34.8-4.9-36.8 2.2.6 7.5 1.2 13.2 1.2 6.4 0 11.7-.7 13-1.2-4.3 13.4-6.1 25.9-5.6 36.8-1.2.3-3.3.6-5.9.7v5.6H47.9c.2 0 .4 0 .6-.1h.1c.2 0 .4 0 .5-.1.2 0 .3 0 .5-.1.3-.1.6-.1.9-.2.1 0 .3-.1.4-.1.1 0 .2-.1.3-.1.1 0 .2-.1.2-.1.1 0 .1-.1.2-.1s.1-.1.1-.1l.1-.1v-.1l-.3-2.7-.3-2.7c-.8-10.9 1.3-25.7 4.7-36 .2.1.1-.1 0-.2z"/><path fill-rule="evenodd" clip-rule="evenodd" fill="#7FDC75" d="M49.1 54.8c0-7.2.9-14.9 2.9-23.1-2.9-.6-6.1-.8-9.7-.8-2.9 0-6.5.3-8.7.8 1.2 5.1 2.3 11.9 2.3 19.4 0 1.9 0 3.9-.2 5.9 0 .4-.1.7-.1 1.1 1.6.3 4 .5 6.7.5 2.8 0 5.3-.2 6.9-.5v-1c-.1-.8-.1-1.6-.1-2.3zm-4.7-13.6c0 .4-.3.7-.7.7-.4 0-.7-.3-.7-.7 0-.4.3-.7.7-.7.3-.1.7.3.7.7zm-1.7 6.7c.3 0 .5.2.5.5s-.2.5-.5.5-.5-.2-.5-.5c.1-.3.3-.5.5-.5zm-.9-3.1c-.3 0-.6-.3-.6-.6s.3-.6.6-.6.6.3.6.6-.3.6-.6.6zm.3-9.1c.6 0 1 .5 1 1 0 .6-.5 1-1 1-.6 0-1-.5-1-1 0-.6.5-1 1-1zm-5 1.2c.4 0 .7.3.7.7 0 .4-.3.7-.7.7-.4 0-.7-.3-.7-.7 0-.4.3-.7.7-.7zm-.5 8c0-.6.5-1.2 1.2-1.2.6 0 1.2.5 1.2 1.2 0 .6-.5 1.2-1.2 1.2-.7-.1-1.2-.6-1.2-1.2zm2.2 3c0 .1-.1.3-.3.3-.1 0-.3-.1-.3-.3 0-.1.1-.3.3-.3.2.1.3.2.3.3zm-.5 6.5c-.3 0-.6-.3-.6-.6s.3-.6.6-.6.6.3.6.6-.3.6-.6.6zm1.8-12.7c-.4 0-.8-.3-.8-.8 0-.4.3-.8.8-.8.4 0 .8.3.8.8 0 .4-.3.8-.8.8zm.6 9c0-.3.3-.6.6-.6s.6.3.6.6-.3.6-.6.6-.6-.3-.6-.6zm1.7 4.4c-.5 0-.8-.4-.8-.8 0-.5.4-.8.8-.8.5 0 .8.4.8.8.1.4-.3.8-.8.8zm1.7-3.5c-.3 0-.6-.3-.6-.6s.3-.6.6-.6.6.3.6.6-.3.6-.6.6zm.9-3.8c0-.5.4-.9.9-.9s.9.4.9.9-.4.9-.9.9-.9-.4-.9-.9zm1.4 6.3c-.3 0-.5-.2-.5-.5s.2-.5.5-.5.5.2.5.5c.1.3-.2.5-.5.5zm.7-9.1c-.2 0-.3-.1-.3-.3 0-.2.1-.3.3-.3.2 0 .3.1.3.3 0 .1-.1.3-.3.3zm.3-6.9c-.4 0-.8-.3-.8-.8 0-.4.3-.8.8-.8.4 0 .8.3.8.8 0 .4-.4.8-.8.8z"/><path fill-rule="evenodd" clip-rule="evenodd" fill="#FE9652" d="M59.5 14.7l11.1-8.1-1-1.4-11.2 8.2-.1-.1c-.1-.1-.3-.2-.3-.1-.1.1 0 .3 0 .4l.1.1-.8.6-.1-.3c-.1-.1-.3-.2-.3-.1-.1.1 0 .3 0 .4l.1.1-1.2.9-.1-.1c-.1-.1-.3-.1-.4 0-.1.1 0 .3.1.3l.1.1-.5 1.2-.2-.1c-.1 0-.3 0-.4.1 0 .1.1.3.2.3l.2.1-.5 1.1-.2-.1c-.1 0-.3 0-.4.1 0 .1.1.3.2.3l.2.1-6.2 15 1.9-.1 5.9-14.2.1.1c.1 0 .3 0 .3-.1s-.1-.3-.2-.3l.1-.1.5-1.1.2.1c.1 0 .3 0 .3-.1s-.1-.3-.2-.3l-.2-.1.4-.9.1.1c.1.1.3.1.4 0 .1-.1 0-.3-.1-.3h-.1l.8-.6.1.1c.1.1.2.2.3.1.1-.1 0-.3 0-.4l-.1-.1.8-.6.1.1c.1.1.2.2.3.1.1-.1 0-.3 0-.4h-.1z"/></g></g></g></g></g><g transform="translate(600)"><g><g><g><g><path fill-rule="evenodd" clip-rule="evenodd" fill="#FE802C" d="M39.8 15.9H33l-9.6 11.3v36.4h24.2V27.5l-7.8-11.6zm2.6-5.3H30.6v4.1h11.9v-4.1z"/><path fill-rule="evenodd" clip-rule="evenodd" fill="#fff" d="M35.5 36.6h12.2v18H35.5z"/><path fill-rule="evenodd" clip-rule="evenodd" fill="#FFB943" d="M59.8 28.6h-5l-7.3 8.2v26.8h19V37l-6.7-8.4zm1.7-5h-7.9v4.1h7.9v-4.1z"/><path fill-rule="evenodd" clip-rule="evenodd" fill="#fff" d="M56.4 43.7h10.1v13H56.4z"/></g></g></g></g></g><g transform="translate(800)"><g><g><g><g><path fill-rule="evenodd" clip-rule="evenodd" fill="#FDE4A9" d="M33.7 30.2l-5.3-.9-6.2-.3h-13c-.9 0-3 .5-3 .5l-.9 4.6 3.4 2.7v8.9l.3 8.9 2.1 1.4 4.8 1.1 8.7.9s7.3-.5 8.4-.5 1.1-1.4 1.1-1.4l-.2-16.9 2.1-.5 1.4-1.6.5-2.7v-2.7l-4.2-1.5z"/><path fill-rule="evenodd" clip-rule="evenodd" fill="#C77946" d="M44.6 23.5l-24.3-2H20c-.4 0-.8.1-1.2.2-.3.1-.5.2-.8.4L6.3 27.7c-1.3.6-2.1 2-2.1 3.5v2.3c0 2 1.4 3.7 3.3 4.1v16c0 2.2 1.7 4 3.9 4.2l20.2 1.7h.3c1 0 1.9-.4 2.6-1l9.3-8.5c.8-.7 1.3-1.6 1.3-2.8V32.9c.7-.1 1.4-.5 1.9-1 .7-.7 1-1.6 1-2.5v-2.1c.1-1.9-1.5-3.6-3.4-3.8zm-8 12.5c0 .9-.7 1.6-1.6 1.5-1-.1-1.6.5-1.6 1.6v16.5c0 .9-.7 1.6-1.6 1.5l-20.2-1.7c-.9-.1-1.6-.9-1.6-1.8V37.1c0-1-.6-1.7-1.6-1.8-.9-.1-1.6-.9-1.6-1.8v-2.3c0-.9.7-1.6 1.6-1.5L35 31.9c.9.1 1.6.9 1.6 1.8V36zm-19.8 2.1c0-.8-.6-1.4-1.4-1.4-.8 0-1.4.6-1.4 1.4 0 .8.6 1.4 1.4 1.4.8 0 1.4-.6 1.4-1.4zm7.9 1.5c-.7 0-1.2.6-1.2 1.2 0 .7.6 1.2 1.2 1.2.7 0 1.2-.6 1.2-1.2 0-.7-.5-1.2-1.2-1.2zm-6.1 4.8c-.4 0-.8.3-.8.8 0 .4.3.8.8.8.4 0 .8-.3.8-.8-.1-.5-.4-.8-.8-.8zm9.5 4.7c-.3 0-.6.3-.6.6s.3.6.6.6.6-.3.6-.6-.3-.6-.6-.6zm-5.6-16c-.5 0-.9.4-.9.9s.4.9.9.9.9-.4.9-.9-.4-.9-.9-.9zm-5.4 17c-.9 0-1.6.7-1.6 1.6s.7 1.6 1.6 1.6c.9 0 1.6-.7 1.6-1.6s-.7-1.6-1.6-1.6z"/><image overflow="visible" width="59" height="45" xlink:href="E34FA4E5.png" transform="translate(34.493 21)"/></g></g></g></g></g><g transform="translate(1000)"><g><g><g><g><path fill-rule="evenodd" clip-rule="evenodd" fill="#FE802C" d="M61.7 33.1c.1-1.4-4.8-1.8-10.6-4.1-7.4-2.9-5.5-2.7-10.7-.4-3.8 1.7-9.1 1.2-10.2 3.6-.2.1-.3.2-.5.3-2.6 2-1 7.5-.3 10.4.8 3.8 2.4 10 3.4 13.8.5 2.2 1.5 4.2 3.6 5 2.1.8 4.2 1.1 9.2 1.1 5 .1 7.5-.7 9.3-1.2 1.8-.5 2.9-2.7 3.4-4.9 1-3.8 2.6-10 3.4-13.8.4-2.6 1.3-7.9 0-9.8zm-16-9.8c5.5-.1 7.3-4.5 5.5-8.4-1.8-3.9-7.4-5.6-7.4-5.6 2.2 1.7-1.9 4.6-3.2 6.5-1.2 1.9-.4 7.6 5.1 7.5z"/><path fill-rule="evenodd" clip-rule="evenodd" fill="#FADD17" d="M55 26.3c-7.4-2.9-14.8-2-20 .3-5.2 2.4-12.5 6.2-9.1 13.2 3.3 6.9 9.7-1.4 9.7-1.4s1.2 5.9 6 5.3c4.8-.5 5.5-3.7 5.5-3.7s1.6 3.7 6.4 3.4c4.8-.3 4.7-3.6 4.7-3.6s3.5 4.1 6.7 1.7c4-2.7-2.5-12.3-9.9-15.2z"/><path fill-rule="evenodd" clip-rule="evenodd" fill="#fff" d="M55.4 38.1c-2.7 3.3-7.2 2.2-9.8-.2-4.1 3.7-8.6 1.8-10.2 0-1.7 2.9-6.6 3.5-6.6 3.5s.1 2.5.5 2.8c2.4 0 4.6-1.7 6.2-2.9 3.3 3.1 7.2 2.8 10.2.9 3.8 3.7 8.3 1.2 9.4-.1 3 3.6 7.1-.4 7.1-1.4-3.1 1.3-4.7-.9-6.8-2.6z"/><path fill-rule="evenodd" clip-rule="evenodd" fill="#fff" d="M38.9 46.4l-3.9.1 5.3 12.6z"/><path fill-rule="evenodd" clip-rule="evenodd" fill="#fff" d="M43.1 46.8l2 13.9 3.1-13.8z"/><path fill-rule="evenodd" clip-rule="evenodd" fill="#fff" d="M52.4 47l-2 11 5.9-11.1z"/><path fill-rule="evenodd" clip-rule="evenodd" fill="#fff" d="M45 14.2c-3.5 3.5-.3 6.9-.3 6.9l.9-.3s-.1-4.8-.6-6.6z"/></g></g></g></g></g><g transform="translate(1200)"><g><g><g><g><g><ellipse fill-rule="evenodd" clip-rule="evenodd" fill="#60C93F" cx="33.5" cy="55" rx="6.9" ry="2.5"/><ellipse transform="matrix(.603 -.798 .798 .603 -30.563 37.81)" fill-rule="evenodd" clip-rule="evenodd" fill="#60C93F" cx="22.7" cy="49.6" rx="6.9" ry="2.5"/><ellipse transform="matrix(.575 -.818 .818 .575 -22.565 52.14)" fill-rule="evenodd" clip-rule="evenodd" fill="#60C93F" cx="38.9" cy="47.8" rx="2.5" ry="6.9"/><circle fill-rule="evenodd" clip-rule="evenodd" fill="#60C93F" cx="30.1" cy="47.8" r="3.8"/><circle fill-rule="evenodd" clip-rule="evenodd" fill="#60C93F" cx="22.9" cy="40.6" r="3.8"/><circle fill-rule="evenodd" clip-rule="evenodd" fill="#F35321" cx="31.9" cy="38.8" r="3.8"/><circle fill-rule="evenodd" clip-rule="evenodd" fill="#60C93F" cx="40.9" cy="38.8" r="3.8"/><circle fill-rule="evenodd" clip-rule="evenodd" fill="#F35321" cx="40.9" cy="46" r="3.8"/><circle fill-rule="evenodd" clip-rule="evenodd" fill="#60C93F" cx="39.1" cy="53.2" r="3.8"/><circle fill-rule="evenodd" clip-rule="evenodd" fill="#F35321" cx="31.9" cy="56.8" r="3.8"/><circle fill-rule="evenodd" clip-rule="evenodd" fill="#60C93F" cx="24.7" cy="53.2" r="3.8"/><circle fill-rule="evenodd" clip-rule="evenodd" fill="#60C93F" cx="24.7" cy="44.2" r="3.8"/><circle fill-rule="evenodd" clip-rule="evenodd" fill="#F35321" cx="31.9" cy="40.6" r="3.8"/><circle fill-rule="evenodd" clip-rule="evenodd" fill="#60C93F" cx="39.1" cy="55" r="3.8"/><circle fill-rule="evenodd" clip-rule="evenodd" fill="#60C93F" cx="24.7" cy="55" r="3.8"/><circle fill-rule="evenodd" clip-rule="evenodd" fill="#60C93F" cx="35.5" cy="42.4" r="3.8"/><path fill-rule="evenodd" clip-rule="evenodd" fill="#75C6F9" d="M19.7 25.6h24.9v1.9H19.7z"/><path fill-rule="evenodd" clip-rule="evenodd" fill="#61BDF7" d="M45 24.3c-1.1-1.5-2.8-2.6-4.6-3.1-.3-.1-.5-.2-.6-.4-.1-.2-.2-.4-.2-.7v-.8c0-.8-.6-1.4-1.4-1.4-.8 0-1.4.6-1.4 1.4v.8c0 .9.3 1.7.8 2.4s1.2 1.2 2.1 1.4c1.3.3 2.4 1.1 3.1 2.1.8 1 1.2 2.2 1.2 3.6v23.6c0 1.6-.7 3.1-1.7 4.1-1.1 1.1-2.5 1.7-4.1 1.7H25.3c-1.6 0-3.1-.7-4.1-1.7-1.1-1.1-1.7-2.5-1.7-4.1V29.6c0-1.3.5-2.6 1.2-3.6.8-1 1.9-1.8 3.1-2.1.9-.2 1.6-.7 2.1-1.4s.8-1.5.8-2.4v-.8c0-.8-.6-1.4-1.4-1.4-.8 0-1.4.6-1.4 1.4v.8c0 .3-.1.5-.2.7-.1.2-.4.3-.6.4-1.9.5-3.5 1.6-4.6 3.1-1.1 1.5-1.8 3.3-1.8 5.2v23.6c0 2.4 1 4.5 2.5 6.1 1.6 1.6 3.7 2.5 6.1 2.5h12.8c2.4 0 4.5-1 6.1-2.5 1.6-1.6 2.5-3.7 2.5-6.1V29.6c0-2-.6-3.8-1.7-5.3zm-21.3-7.4h16c.8 0 1.4-.6 1.4-1.4 0-.8-.6-1.4-1.4-1.4h-16c-.8 0-1.4.6-1.4 1.4 0 .8.6 1.4 1.4 1.4z"/></g><circle fill-rule="evenodd" clip-rule="evenodd" fill="#FADD17" cx="56.9" cy="47.9" r="3.3"/><circle fill-rule="evenodd" clip-rule="evenodd" fill="#ED9707" cx="60.2" cy="39.6" r="3.3"/><circle fill-rule="evenodd" clip-rule="evenodd" fill="#FECC1E" cx="60.2" cy="46.9" r="3.3"/><circle fill-rule="evenodd" clip-rule="evenodd" fill="#FECC1E" cx="65.6" cy="37.8" r="3.3"/><circle fill-rule="evenodd" clip-rule="evenodd" fill="#FEE488" cx="72.8" cy="45" r="3.3"/><circle fill-rule="evenodd" clip-rule="evenodd" fill="#FECC1E" cx="65.6" cy="45" r="3.3"/><circle fill-rule="evenodd" clip-rule="evenodd" fill="#FC8526" cx="67.4" cy="52.3" r="3.3"/><circle fill-rule="evenodd" clip-rule="evenodd" fill="#FECD21" cx="58.4" cy="52.3" r="3.3"/><circle fill-rule="evenodd" clip-rule="evenodd" fill="#F35321" cx="53" cy="48.7" r="3.3"/><circle fill-rule="evenodd" clip-rule="evenodd" fill="#ED9707" cx="62" cy="57.7" r="3.3"/><circle fill-rule="evenodd" clip-rule="evenodd" fill="#FECC1E" cx="65.2" cy="46.2" r="3.3"/><circle fill-rule="evenodd" clip-rule="evenodd" fill="#ED9707" cx="70.1" cy="39.6" r="3.3"/><circle fill-rule="evenodd" clip-rule="evenodd" fill="#FECC1E" cx="71.8" cy="49.5" r="3.3"/><circle fill-rule="evenodd" clip-rule="evenodd" fill="#FECC1E" cx="70.1" cy="57.8" r="3.3"/><circle fill-rule="evenodd" clip-rule="evenodd" fill="#FECC1E" cx="63.5" cy="54.5" r="3.3"/><circle fill-rule="evenodd" clip-rule="evenodd" fill="#ED9707" cx="55.3" cy="56.1" r="3.3"/><circle fill-rule="evenodd" clip-rule="evenodd" fill="#ED9707" cx="53.6" cy="41.3" r="3.3"/><path fill-rule="evenodd" clip-rule="evenodd" fill="#37B4DD" d="M75.4 27.8c-1-1.4-2.5-2.4-4.2-2.8-.2-.1-.4-.2-.6-.4-.1-.2-.2-.4-.2-.6v-.7c0-.7-.6-1.3-1.3-1.3-.7 0-1.3.6-1.3 1.3v.7c0 .8.3 1.6.7 2.2.5.6 1.1 1.1 1.9 1.3 1.1.3 2.1 1 2.8 1.9.7.9 1.1 2 1.1 3.2V54c0 1.5-.6 2.8-1.6 3.8s-2.3 1.6-3.8 1.6H57.5c-1.5 0-2.8-.6-3.8-1.6s-1.6-2.3-1.6-3.8V32.5c0-1.2.4-2.3 1.1-3.2.7-.9 1.7-1.6 2.8-1.9.8-.2 1.4-.7 1.9-1.3.5-.6.7-1.4.7-2.2v-.7c0-.7-.6-1.3-1.3-1.3-.7 0-1.3.6-1.3 1.3v.7c0 .2-.1.5-.2.6-.1.2-.3.3-.6.4-1.7.5-3.1 1.5-4.2 2.8-1 1.3-1.6 3-1.6 4.8V54c0 2.2.9 4.1 2.3 5.5 1.4 1.4 3.4 2.3 5.5 2.3h11.6c2.2 0 4.1-.9 5.5-2.3 1.4-1.4 2.3-3.4 2.3-5.5V32.5c.4-1.7-.2-3.4-1.2-4.7zM56 21h14.6c.7 0 1.3-.6 1.3-1.3 0-.7-.6-1.3-1.3-1.3H56c-.7 0-1.3.6-1.3 1.3.1.7.6 1.3 1.3 1.3z"/><path fill-rule="evenodd" clip-rule="evenodd" fill="#69C3FD" d="M54.7 27.5h16.9v1.2H54.7z"/></g></g></g></g></g><g transform="translate(1400)"><g><g><path fill-rule="evenodd" clip-rule="evenodd" fill="#F86F14" d="M57.4 51.4c-3.6 3.2-5.7 6.8-4.7 7.9 1 1.1 4.7-.6 8.4-3.8 3.6-3.2 5.7-6.8 4.7-7.9-1.1-1.2-4.8.5-8.4 3.8zm2.6 2.9c-1.6 1.4-3.2 2.2-3.7 1.7-.4-.5.5-2 2.1-3.4s3.2-2.2 3.7-1.7c.4.4-.5 2-2.1 3.4zM34.1 20.8l-7.7-8.6.1-.1c2.3-2.1 2.5-5.6.4-7.9-2.1-2.3-5.6-2.5-7.9-.4-.9.8-1.4 1.7-1.7 2.8-1.1.1-2.1.6-3 1.4-2.3 2.1-2.5 5.6-.4 7.9 2.1 2.3 5.6 2.5 7.9.4l.1-.1 7.7 8.6c3.4 4-4.9 21.4 14.3 42.9-2.4-2.7 2.7-11.1 11.3-18.8 8.6-7.7 17.5-11.8 19.9-9.1-20.9-23.4-36.7-14.4-41-19zm-5.5.5L22.1 14l-1.2 1-.1.1c-1.7 1.5-4.2 1.3-5.7-.3-1.5-1.7-1.3-4.2.3-5.7.5-.5 1.1-.8 1.7-.9.5-.1 1.1-.1 1.6-.1 0-.5.1-1.1.2-1.6.2-.6.6-1.2 1.1-1.6 1.7-1.5 4.2-1.3 5.7.3 1.5 1.7 1.3 4.2-.3 5.7l-.1.1-1.2 1.1 6.5 7.3-2 1.9zm37.2 16.3c-.3.3-.6.4-1 .4-.5 0-.9-.1-1.3-.5-4-4.4-10.8-7.7-15.4-8.6-.9-.2-1.4-1-1.2-1.9.2-.9 1-1.4 1.9-1.2 5 1 12.5 4.5 17.1 9.6.6.6.6 1.6-.1 2.2z"/></g></g></g><g transform="translate(1600)"><g><g><g><g><path fill-rule="evenodd" clip-rule="evenodd" fill="#2EAF22" d="M77.2 19.8c-.2 1.5-4.5 4.2-7.1 4.1 0 0 3.2-1.3 1.9-3.7-2 1.9-4.7 1.5-5.4 2.9-.4-1.8-1.4-3.4-2.6-3.8-1.2.4-2.2 2-2.6 3.8-.6-1.3-3.3-1-5.4-2.9-1.3 2.4 1.9 3.7 1.9 3.7-2.6.2-6.8-2.5-7.1-4.1-1.2 2.9 1.7 5.7 5.3 6.9 2.2-.8 4.9-1.2 7.8-1.2 3 0 5.6.4 7.8 1.2 3.7-1.1 6.7-4 5.5-6.9z"/><path fill-rule="evenodd" clip-rule="evenodd" fill="#EE6911" d="M64.1 26.9c-8.7 0-15.7 3.6-15.7 12.3 0 8.7 11.6 20 15.7 20 4.3 0 15.7-11.4 15.7-20 0-8.7-7.1-12.3-15.7-12.3zm-14.6 9.7c.1-.9.6-1.3 1.2-1.2.6.1 1 .5.9 1.5-.1.9-1 2.1-1.3 2-.3 0-.9-1.3-.8-2.3zm3.3 9.9c-.2.1-1.5-.6-2-1.4-.4-.8-.2-1.4.3-1.7.5-.3 1.1-.1 1.6.7.4.8.3 2.2.1 2.4zm1.5-14.6c-.2-.1-.3-1.4.1-2.1.4-.7.9-.8 1.4-.6.4.3.6.8.2 1.5-.4.7-1.5 1.3-1.7 1.2zm3.2 8.1c-.3 0-1.5-1.3-1.6-2.4-.1-1.1.4-1.7 1.1-1.8.7-.1 1.3.3 1.5 1.4.1 1.2-.6 2.8-1 2.8zm1.6 11.8c-.3 0-1.2-1.1-1.3-2-.1-.9.3-1.4.9-1.5.6-.1 1.1.3 1.2 1.2.1.9-.5 2.2-.8 2.3zm5.3 4.7c-.3 0-1.1-1.2-1.1-2.2 0-.9.5-1.3 1.1-1.3.6 0 1.1.4 1.1 1.3 0 1-.8 2.2-1.1 2.2zm0-11.1c-.3 0-1.3-1.5-1.3-2.7 0-1.2.6-1.7 1.3-1.7.7 0 1.3.5 1.3 1.7s-.9 2.7-1.3 2.7zm0-12.2c-.4 0-1.4-1-1.4-1.8s.6-1.1 1.4-1.1c.8 0 1.4.3 1.4 1.1s-1 1.8-1.4 1.8zM69 51.8c-.3 0-.9-1.4-.8-2.3.1-.9.6-1.3 1.2-1.2.6.1 1 .5.9 1.5-.1.9-1 2-1.3 2zm3.3-14.2c-.2 1.2-1.3 2.6-1.7 2.5-.4 0-1.1-1.7-1-2.9.2-1.2.8-1.6 1.5-1.5.8.2 1.3.7 1.2 1.9zm1.5-5.7c-.2.1-1.3-.5-1.7-1.2-.4-.7-.2-1.2.2-1.5.4-.3 1-.2 1.4.6.4.7.3 1.9.1 2.1zM77.3 45c-.4.8-1.7 1.6-2 1.4-.3-.1-.4-1.6.1-2.4.4-.8 1-1 1.6-.7.5.3.7.9.3 1.7zm.5-6.1c-.3 0-1.2-1.1-1.3-2-.1-.9.3-1.4.9-1.5.6-.1 1.1.3 1.2 1.2.1 1-.5 2.3-.8 2.3z"/><path fill-rule="evenodd" clip-rule="evenodd" fill="#42B037" d="M39.6 22.6c.8.8 1.6 1.8 2.4 3 1.4 2.1 2.9 5.1 3.6 8.9 3.8 1 7.9.9 9.3.8-1.5-4.8-3.2-17.2-15.3-12.7zm-4.3-1.4c-.3-.2-.7-.1-.9.2-.2.3-.1.7.2.9.1.1 10.1 6.7 8.1 20.6 0 .3.2.6.5.7h.1c.4.1.7-.2.7-.5 1.1-7.7-1.3-13.2-3.5-16.5-2.5-3.6-5.1-5.3-5.2-5.4zm1.5 5.9C27.6 30.7 24.6 38.6 24.5 39c-.1.3.1.7.4.8h.1c.3.1.6-.1.8-.4 0-.1 2.9-7.7 11.5-11.1.3-.1.5-.5.4-.8-.2-.4-.5-.6-.9-.4z"/><path fill-rule="evenodd" clip-rule="evenodd" fill="#CA2020" d="M24.5 40.9c-1.9-1.7-4.5-2.3-6.9-1.4-3.5 1.4-5.1 5.8-3.5 9.8.9 2.3 2.7 4 4.6 4.8 1.9 1 4.3 1.1 6.7.2 4-1.6 6.2-5.7 4.8-9.2-.9-2.4-3.2-3.9-5.7-4.2zm-4.7 4.4c-1.8.8-3.7.5-4.3-.8-.6-1.3.3-3 2.1-3.8 1.8-.8 3.7-.5 4.3.8.6 1.3-.3 3-2.1 3.8zm30.1 2c-1.7-1.9-4.3-2.5-6.8-1.9-2.4-.9-5.1-.6-6.9 1.1-2.8 2.5-2.8 7.2.1 10.4 1.7 1.9 3.9 2.8 6 2.9 2.1.2 4.4-.5 6.3-2.1 3.3-3 3.8-7.6 1.3-10.4zm-4.6 4.2c-1.2-1.5-1.2-3.5-.1-4.4 1.1-.9 3-.3 4.2 1.2 1.2 1.5 1.2 3.5.1 4.4-1.1.8-3 .3-4.2-1.2z"/></g></g></g></g></g><g transform="translate(1800)"><g><g><path fill-rule="evenodd" clip-rule="evenodd" fill="#F8DD60" d="M59.9 42.6h-1v3.3c-3.2 2.6-6.6-.1-9.8 3.5-.9 1-1.5 2-1.9 3v-5.2c3.7.2 6.9-.5 9.6-3.5 2.3-2.6 3.4-6 3.2-9.3V30h-1v3.3c-3.2 2.6-6.6-.1-9.8 3.5-.9 1-1.5 2-1.9 3v-5.2c3.7.2 6.9-.5 9.6-3.5 2.3-2.6 3.3-5.8 3.2-9v-7.9h-1v6.6c-3.2 2.6-6.6-.1-9.9 3.5-.9 1-1.5 2-1.9 3v-3.4c2.9-1.9 4.8-3.2 4.8-7 0-5-3.8-7.6-5.3-10.3V1.9h-1v4.6c-1.4 2.6-5.3 5-5.3 10.4 0 3.7 1.9 5.1 4.8 7v3.4c-.4-1-1-2-1.9-3-3.2-3.6-6.7-.9-9.9-3.5v-6.6h-1v8.1c-.1 3.1 1 6.3 3.2 8.8 2.7 3 5.9 3.8 9.6 3.5v5.2c-.4-1-1-2-1.9-3-3.2-3.6-6.7-.9-9.9-3.5V30h-1v4.5c-.2 3.2.9 6.5 3.2 9.1 2.7 3 5.9 3.8 9.6 3.5v5.2c-.4-1-1-2-1.9-3-3.2-3.6-6.7-.9-9.9-3.5v-3.3h-1V47c-.2 3.2.9 6.5 3.2 9.1 2.7 3 5.9 3.8 9.6 3.5v3.1h2v-3.1c3.7.2 6.9-.5 9.6-3.5 2.3-2.6 3.4-6 3.2-9.3v-4.2z"/></g></g></g><g transform="translate(2000)"><g><g><g><path fill-rule="evenodd" clip-rule="evenodd" fill="#7BC9FE" d="M39.3 16.3c-12.6 0-21.5 7-26.9 17.5l3.9 2.9-2.5 4.1c2.9 5.5 2.9 7.6 8.4 10.6C25.8 47.8 31.3 40 32.4 35c-.1 5.3-2 14.4-5 18.6 4 1.8 7.2 4 11.8 3.7C58.9 56 68.3 39.2 68.3 39.2l.1-4.5c.1 0-11.6-18.4-29.1-18.4zm-18 19.2c-1.7 0-4.6-3.8-4.6-5.4 0-1.7 4.7-4.6 6.3-4.6 1.7 0 3.2 2.2 3.2 3.9 0 1.6-3.3 6.1-4.9 6.1zm14.1 17.9c3.4-4.4 5.4-10.3 5.4-16.7 0-6.4-2-12.3-5.4-16.7 5.1 3.8 8.4 9.9 8.4 16.7 0 6.8-3.3 12.9-8.4 16.7zm14.5-2.6c2.8-3.7 4.5-8.5 4.5-13.8 0-5.3-1.7-10.2-4.5-13.8 4.2 3.2 6.9 8.2 6.9 13.8 0 5.7-2.7 10.7-6.9 13.8z"/><path fill-rule="evenodd" clip-rule="evenodd" fill="#F5741E" d="M55 54.8l8.7.4-3.5-3.8c-1.6 1.3-3.3 2.4-5.2 3.4zM60.5 17l-8 .5c1.7.7 3.4 1.6 4.9 2.6l3.1-3.1zm22.7 7.3c-8 .9-14.7 10.4-14.7 10.4l-.1 4.5s6.6 9.7 14.8 10.6c-.4-5.4-3.1-10-5.9-12.7 2.8-2.9 5.5-7.4 5.9-12.8z"/><path fill-rule="evenodd" clip-rule="evenodd" fill="#C1C1C1" d="M29.8 17.6C19.7 19.7 16.5 23 9.9 33.2l3.5 3.6-3.5 3.5c2.9 5.5 8.2 9.8 13.6 12.8 3.7-3.6 6.3-8.2 7.4-13.3-.1 5.3-1.8 10.4-4.8 14.6 4 1.8 6.3-5 9-8.9 4.7-9.2-1.7-24.3-5.3-27.9zm-9 15.2c-1.7 0-3-1.3-3-3s1.3-3 3-3 3 1.3 3 3-1.3 3-3 3z"/></g></g></g></g><g transform="translate(2200)"><g><g><g><path fill-rule="evenodd" clip-rule="evenodd" fill="#107DC2" d="M20.1 56.3c2.5 2.2 5.4 4.7 8.5 6.1h27.6c3.1-1.4 5.9-3.9 8.5-6.1H20.1z"/><path fill-rule="evenodd" clip-rule="evenodd" fill="#61BDF7" d="M70.4 34.4v6.5c0 1-.8 1.8-1.8 1.8s-1.8-.8-1.8-1.8v-6.5H31.2c.3.3.7.9 1 1 3.8 2 2.6 5.6 1.9 7.8-.4 1.2-.8 2.4-.6 3.3.2 1-.4 1.9-1.3 2.1h-.4c-.8 0-1.5-.6-1.7-1.4-.4-1.8.2-3.6.7-5.2.9-2.7.8-3.1-.1-3.6-2.2-1.2-4-3.7-4.2-4v-.2H8.7c.7 7.5 3.9 14.6 8.6 19.8h50.1c4.8-5.3 7.9-12.4 8.6-19.8h-5.6z"/><path fill-rule="evenodd" clip-rule="evenodd" fill="#FFD542" d="M59.6 32.1c-2.4.8-4-.2-6.5-1.8-2.4-1.6-5.4-3.6-9.5-2.2-2.9.9-4.3 2.9-5.3 4.9h4.1c.6-.7 1.3-1.2 2.2-1.5 2.2-.7 3.8.1 6 1.5h11c-.3-.8-1.2-1.2-2-.9zM45.1 21.3c0-1-.8-1.7-1.8-1.7s-1.7.8-1.7 1.8c.1 2.5-1.4 3.8-3.7 5.6-1.8 1.4-3.9 3.2-4.6 5.9H37c.6-1.1 1.7-2 3.1-3.2 2.3-1.8 5.1-4.1 5-8.4zm41.1 18.6c-2.4-.5-3.3-2.2-4.6-4.9-1.2-2.6-2.8-5.9-7-6.8-2.4-.5-4.3 0-5.9.8-.3-.4-.6-.8-1-1.1-3.2-3-6.7-2.4-9.6-2-2.9.4-4.8.6-6.6-1.1-.7-.7-1.8-.6-2.5.1s-.6 1.8.1 2.5c3.2 3 6.7 2.4 9.6 2 2.9-.5 4.8-.6 6.6 1.1.2.2.4.4.5.6-.2.1-.3.3-.5.4-.7.6-1.4 1.1-2 1.5h6.9c0-.2-.1-.4-.1-.7 1.1-.6 2.2-.9 3.7-.6 2.4.5 3.3 2.2 4.6 4.9 1.2 2.6 2.8 5.9 7 6.8 1 .2 1.9-.4 2.1-1.3.3-1.1-.3-2-1.3-2.2zm-56.8-7h.1c-.2-.1-.4-.3-.5-.4 1.1-1.2 2.3-1.9 4-1.9 1 0 1.8-.8 1.8-1.8S34 27 33 27c-3.1 0-5.1 1.4-6.6 3.1-2-1.7-4.4-3.3-8-2.8-2.8.5-4.5 2-5.8 3.7-1.7-2-3.8-4-7.4-4-1 0-1.8.8-1.8 1.8s.8 1.8 1.8 1.8c1.9 0 3.1.8 4.3 2.3h.6c-.8 2.2-3.4 5.4-4 5.5-1 .2-1.6 1.1-1.5 2 .2 1 1.1 1.5 2 1.5 1.6-.1 4.7-3.4 7-8.6 0-.2-.1-.3-.2-.4h2.2c.8-1.1 1.8-1.8 3.3-2 2.1-.3 3.5.5 5.2 2h4.7c-1.1.1-2.6-.1-3.6.1.2.5 5.3 6 5.4 6.6.1 1-1.6 8.3 1 8.6 3.1.4 3-7.8 2.9-8.7-.1-.7-4.6-5.7-5.1-6.6zm40.8 0c-1.2.3-3.3 0-4.5.1.2.5.7 6.1.7 6.7.1 1-1 5.7 1.5 6 3.1.4 2.6-5.4 2.5-6.4 0-.6 0-5.8-.2-6.4z"/></g></g></g></g><g transform="translate(2400)"><g><g><g><path fill-rule="evenodd" clip-rule="evenodd" fill="#59BC4F" d="M71 29.9c.2-2 1.3-5 5-9l-.6-.8c-4.9 2.8-8.3 3.4-10.2 2.6-.1-.1-.3-.1-.4-.1-3.4-1.4-7.5-1-10.6 1.4-1.2.9-2.1 2-2.7 3.3l-2.7 2.1c-1.7.3-3.4 1-4.9 2.2-1.5 1.2-2.6 2.7-3.3 4.3l-3.8 3c-1.3.4-2.6 1-3.8 1.9-2.1 1.7-3.4 4-3.9 6.5-.2.6-.3 1.3-.3 2v.3c.1.5.2 1.2.2 2.1-.2 2-1.3 5-5 9l.6.8c4.9-2.8 8.3-3.4 10.2-2.6.8.3 1.6.5 2.5.5 3 .7 6.2 0 8.8-2 1.2-.9 2.1-2.1 2.8-3.4l3.6-2.8c1.8-.3 3.5-1 5-2.2 1.5-1.2 2.6-2.7 3.3-4.4l2.5-2c1.4-.3 2.7-1 3.9-1.9 3.3-2.6 4.6-6.7 3.8-10.5v-.3z"/><path fill-rule="evenodd" clip-rule="evenodd" fill="#86DE7C" d="M58.9 20c-.2-1.5-.7-2.9-1.6-4.2 0-.1 0-.1-.1-.2-.5-1.9-.6-5.2 1.5-10.2l-.7-.5c-3.7 4.3-6.6 6.1-8.6 6H49c-3.7-.1-7.4 1.7-9.4 5-.8 1.3-1.2 2.6-1.4 4l-1.8 2.9c-1.5.9-2.9 2.2-3.9 3.8-1 1.6-1.5 3.4-1.6 5.2L28.3 36c-1.1.8-2.1 1.8-2.9 3.1-1.4 2.3-1.8 5-1.4 7.4.1.7.2 1.3.4 1.9 0 .1.1.2.1.3.3.4.6 1 .9 1.9.3 1.1.4 2.6.1 4.6 1-1.7 1.3-3 1.4-3.9.1-.7 0-1.2-.1-1.4l-.1-.3v-.7c.1-.7.2-1.5.4-2.2.5-3 2.1-5.7 4.5-7.6 1.2-1 2.6-1.7 4.1-2.1l.6-.5c-2.6-2.1-3.3-5.8-1.5-8.7 1.9-3.2 6-4.1 9.2-2.2 1 .6 1.7 1.4 2.3 2.3.5-.2 1-.3 1.6-.4l1.9-1.5c-1.7.4-3.5.2-5.1-.7-3.1-1.9-4.1-5.9-2.2-9 1.9-3.1 5.9-4.1 9-2.2 2.6 1.6 3.7 4.6 2.9 7.4 1.5-.8 3-1.3 4.5-1.5zm-15.3 6.6c-2.4-1.5-5.1-1.4-6 .2-.9 1.5.2 4 2.6 5.4.1 0 .2.1.2.1.6-.8 1.4-1.5 2.2-2.2.9-.7 1.9-1.3 3-1.7-.5-.7-1.2-1.3-2-1.8zM51.1 15c-2.3-1.4-5-1.4-5.9.2-.9 1.5.2 3.9 2.6 5.3 2.3 1.4 5 1.4 5.9-.2.9-1.5-.3-3.9-2.6-5.3z"/></g></g></g></g><g transform="translate(2600)"><g><g><g><path fill-rule="evenodd" clip-rule="evenodd" fill="#EE6911" d="M64.5 32c1.3-1.6 3.1-2.5 4.8-3-1.7-2.7-5.9-3.9-9.4-2.8.2 1.2.4 2.3.6 3.3 1.8.6 3.2 1.6 4 2.5zm-13.9-.3c.8-.8 6-1.6 7.6-2.1-.1-1-.9-2-1.2-3.1-2.9-.7-9.1-.6-11.5 2.3 1.8.4 3.7 1.3 5.1 2.9zm21.1-1.2c-2.3.3-5.5 1.3-6.7 4.3-.1.2-.2.3-.4.4 3.7 1.6 6 4 6 4 .3.4.3.9 0 1.3-.4.3-.9.3-1.3 0-.2-.2-3.1-3.2-7.5-4.4-1.3.2-2.8.4-4.5.4-1.5 0-2.8-.1-4-.3-2.4.7-4.9 2.1-7.6 4.4-.2.2-.4.2-.6.2-.3 0-.5-.1-.7-.3-.3-.4-.3-.9.1-1.3 2.1-1.8 4.1-3.1 6-3.9-.7-.4-1.1-.9-1.1-1.6v-.3c-1.6-2.6-4.7-3.1-6.8-3.1-6.2 2.8-8.7 8.8-8.7 14.9 0 2.4.6 4.7 1.6 6.8C37 55.9 41.1 63.3 50 65.2c0 0 20.9 4 28.1-12.8 1.1-2.2 1.8-4.6 1.8-7.2.2-6-2.9-12.7-8.2-14.7zM45.3 57.1c-.4.6-1.1.8-1.7.6-.2-.1-.5-.2-.7-.4-4.7-4.4-5-11.6-5.1-11.9 0-1 .7-1.9 1.6-2 .9-.1 1.7.6 1.8 1.6 0 .1.3 5.9 4 9.4.7.8.8 2 .1 2.7z"/><image overflow="visible" width="31" height="25" xlink:href="89BE6CE0.png" transform="translate(43.667 19.667)"/><path fill-rule="evenodd" clip-rule="evenodd" fill="#42B037" d="M20.2 65.3c.1.4.4.8.9 1 .7.3 1.5-.1 1.8-.8.1-.1.1-.3.1-.4-.2.1-.4.1-.5.2-.8.1-1.5.2-2.3 0zm23-53.5c.3-.3.4-.8.3-1.2-.2-.8-.9-1.2-1.7-1.1-.1 0-.3.1-.4.2.2.1.3.2.4.3.6.5 1.1 1.1 1.4 1.8zm-13 .3C18.7 23.8 12.7 39.9 13.8 56.3c.4 5.7 4.7 9.4 8.5 8.4 3.8-1.1 6-5.2 5.7-9.3C27.2 43 31.7 30.9 40.4 22c2.8-2.9 3.9-7.5 1.7-10.8-2.2-3.2-7.9-3.2-11.9.9zM20 35c1 0 1.8.8 1.8 1.8s-.8 1.8-1.8 1.8-1.8-.8-1.8-1.8c-.1-.9.7-1.8 1.8-1.8zm-2.2 8.7c1 0 1.8.8 1.8 1.8s-.8 1.8-1.8 1.8-1.8-.8-1.8-1.8c-.1-1 .8-1.8 1.8-1.8zm0 12.4c-1 0-1.8-.8-1.8-1.8s.8-1.8 1.8-1.8 1.8.8 1.8 1.8-.8 1.8-1.8 1.8zm2.2-4.3c-1 0-1.8-.8-1.8-1.8s.8-1.8 1.8-1.8 1.8.8 1.8 1.8c0 .9-.8 1.8-1.8 1.8zm2.1-8.7c-1 0-1.8-.8-1.8-1.8s.8-1.8 1.8-1.8 1.8.8 1.8 1.8c.1.9-.8 1.8-1.8 1.8zm2.2-8.7c-1 0-1.8-.8-1.8-1.8s.8-1.8 1.8-1.8 1.8.8 1.8 1.8-.8 1.8-1.8 1.8zm0-6.5c-1 0-1.8-.8-1.8-1.8s.8-1.8 1.8-1.8 1.8.8 1.8 1.8-.8 1.8-1.8 1.8zm2.2-6.5c-1 0-1.8-.8-1.8-1.8s.8-1.8 1.8-1.8 1.8.8 1.8 1.8-.8 1.8-1.8 1.8zm4.3 2.1c-1 0-1.8-.8-1.8-1.8s.8-1.8 1.8-1.8 1.8.8 1.8 1.8-.8 1.8-1.8 1.8zm0-6.5c-1 0-1.8-.8-1.8-1.8s.8-1.8 1.8-1.8 1.8.8 1.8 1.8-.8 1.8-1.8 1.8z"/></g></g></g></g><g transform="translate(2800)"><g><g><g><path fill-rule="evenodd" clip-rule="evenodd" fill="#FCC65E" d="M66.7 51.1c.1-.2.2-.4.2-.7 0-.4-.2-.9-.4-1.3-.2-.3-.5 0-.6.2v.1l-.1.1-.1-.1c-.2-.3-.3-.7-.6-.9-.2-.2-.5-.1-.6.1-.2.2-.2.4-.3.7l-.1.1-.2-.1h-.2c-.3 0-.5.2-.5.5 0 .2.1.5.1.7 0 .1-.4.1-.5.1-.4.1-.5.3-.5.7 0 .1 0 .3-.1.4v.1c-.1-.1-.2-.2-.3-.2-.2.1-.4.4-.5.6-.3.4-.5.9-.7 1.4-.2-.5-.5-.9-.9-1.2-.8-.5-1.9-.8-2.9-.6-3.3.7-6.6 1.7-9 3.3-.5.3-1 .6-1.4 1.1-.2.3-.4.5-.5.9.1.2.3.3.4.4 1.3.7 3 1 4.4 1.2 1.8.2 3.6.4 5.5.2 1.4-.2 3.2-.6 4.1-1.9.3-.4.5-.9.5-1.4.4.4.9.8 1 1.4 0 .2-.1.6.2.7h.5v.1c.1.3.1 1 .6 1.1.2 0 .3-.1.5-.2.3-.2.8-.2 1.2-.3.2-.1.2-.4.2-.6v-.1h.4c.2-.1.4-.2.3-.5-.1-.3-.4-.4-.7-.5H65l.1-.2.1-.5v-.1c0-.2-.1-.4-.3-.4-.4-.1-.6.1-1 .1l-.1-.1c-.1-.2-.3-.5-.6-.5-.2 0-.4.1-.5 0 0 0-.1 0-.1-.1.3 0 .6-.1.7-.4v-.4h.1c.4 0 1 .2 1.1-.3 0-.1 0-.2.1-.3h.1c.3.2.8.5 1.1.1.1-.1 0-.3 0-.4v-.1c.2-.1.6 0 .7-.2.2-.3.1-.8.1-1.1.1-.2.1-.5.1-.7zm-4.8.7zm.3-.1zm3.1 5.2zm-.6.9zm-1-8zm.5-.4zm-17.4 5.4c.1.1.3 0 .4-.1 1.2-1.7 1.8-3.8.6-5.7-.6-1.1-2.1-2.6-3.9-3.2-2.5-.8-4.9-.6-6.6.9-1.1.9-1.9 3-1.4 4.5 0 .1.1.1.2.2h.1c1.3-.1 2.2-.2 3.5 0-.7 1-1.6 2.3-1.7 3.5 0 .5-.3 2.6.2 2.9.7.4 2.2.9 3 1 .5.1 1.8-1.6 2-2 .8-1.1.8-2.6.9-3.9 1 .6 1.7 1.1 2.5 1.9h.2zm-11.4-3.2c-.7-.4-2.2-.7-3.3-.4-1.8.4-2.9 1.6-3 3.4-.1.7.2 1.6.8 2H30.2c.7-.5 1.1-.8 1.9-1.2 0 .8 0 1.8.4 2.5.2.3.7 1.5 1.1 1.5.5 0 1.5-.2 2-.4.3-.1.4-1.5.4-1.8 0-.9-.5-1.7-.9-2.5.8 0 1.3.1 2.1.2h.1c.1 0 .2-.1.2-.2-.3-1.3-.8-2.5-2.1-3.1zm17-2.1c2.6.7 5 .4 6.6-1.1 1.1-1 1.8-3.1 1.3-4.5 0-.1-.1-.1-.2-.1H60c-1.3.2-2.2.2-3.5.1.7-1 1.5-2.4 1.5-3.6 0-.5.2-2.6-.3-2.9-.7-.4-2.2-.8-3.1-.9-.5 0-1.7 1.7-1.9 2.1-.7 1.1-.7 2.6-.7 4-1-.5-1.7-1-2.6-1.8l-.1-.1c-.1-.1-.3 0-.4.1-1.1 1.8-1.6 3.9-.4 5.7.5 1.1 2 2.5 3.9 3zm8.3-6c.7.4 2.2.6 3.4.3 1.8-.5 2.8-1.7 2.9-3.5 0-.7-.3-1.6-.9-2H65.8c-.6.5-1.1.9-1.8 1.2 0-.8 0-1.8-.5-2.5-.2-.3-.8-1.5-1.2-1.5-.5 0-1.5.3-2 .5-.3.2-.3 1.5-.3 1.8 0 .9.6 1.7 1 2.4-.8 0-1.3 0-2.1-.1h-.1c-.1 0-.2.1-.2.2.3 1.5.8 2.6 2.1 3.2zm-25.5 4.9c1.1-1 1.8-3.1 1.3-4.5 0-.1-.1-.1-.2-.1h-.1c-1.3.2-2.2.2-3.5.1.7-1 1.5-2.4 1.5-3.6 0-.5.2-2.6-.3-2.9-.7-.4-2.2-.8-3.1-.9-.5 0-1.7 1.7-1.9 2.1-.7 1.1-.7 2.6-.7 4-1-.5-1.7-1-2.6-1.8l-.1-.1c-.1-.1-.3 0-.4.1-1.1 1.8-1.6 3.9-.4 5.7.6 1.1 2.2 2.5 4 3 2.4.8 4.8.4 6.5-1.1zm1.7-4.9c.7.4 2.2.6 3.4.3 1.8-.5 2.8-1.7 2.9-3.5 0-.7-.3-1.6-.9-2H42c-.6.5-1.1.9-1.8 1.2 0-.8 0-1.8-.5-2.5-.2-.3-.8-1.5-1.2-1.5-.5 0-1.5.3-2 .5-.3.2-.3 1.5-.3 1.8 0 .9.6 1.7 1 2.4-.8 0-1.3 0-2.1-.1H35c-.1 0-.2.1-.2.2.3 1.5.8 2.6 2.1 3.2z"/><path fill-rule="evenodd" clip-rule="evenodd" fill="#4DABEA" d="M70 28.3c-1.9-3.2-5.1-5.9-9.2-7.7-2.8-1.3-5.9-2.1-9.3-2.5.3-.6.5-1.4.5-2.1 0-1.3-.5-2.5-1.4-3.4-.9-.9-2.1-1.4-3.4-1.4s-2.5.5-3.4 1.4c-.9.9-1.4 2.1-1.4 3.4 0 .8.2 1.5.5 2.1-3.3.4-6.5 1.3-9.3 2.5-4 1.8-7.3 4.5-9.2 7.7-.4.7-.2 1.6.5 2 .7.4 1.6.2 2-.5 16.6 0 24.7-.1 40.4 0 .4.7 1.3.9 2 .5.9-.4 1.2-1.3.7-2zM48.6 17.2c-.3.3-.8.5-1.3.5s-1-.2-1.3-.5c-.3-.3-.5-.8-.5-1.3s.2-1 .5-1.3c.3-.3.8-.5 1.3-.5s1 .2 1.3.5c.3.3.5.8.5 1.3s-.2 1-.5 1.3z"/><path fill-rule="evenodd" clip-rule="evenodd" fill="#7BC9FE" d="M77.8 38.9c-.7-.7-1.7-1.1-2.8-1.1h-4.7v-2.5c0-.3.1-.5.3-.7.2-.2.4-.3.7-.3h.7c.8 0 1.5-.7 1.5-1.5s-.7-1.5-1.5-1.5h-.7c-1.1 0-2.1.4-2.8 1.2-.7.7-1.2 1.7-1.2 2.8v19.8c0 1.2-.5 2.4-1.3 3.2-.8.8-1.9 1.3-3.2 1.3H31.7c-1.2 0-2.4-.5-3.2-1.3-.8-.8-1.3-1.9-1.3-3.2V35.2c0-1.1-.4-2.1-1.2-2.8-.7-.7-1.7-1.2-2.8-1.2h-.7c-.8 0-1.5.7-1.5 1.5s.7 1.5 1.5 1.5h.7c.3 0 .5.1.7.3.2.2.3.4.3.7v2.5h-4.7c-1.1 0-2 .4-2.8 1.1-.7.7-1.1 1.7-1.1 2.8v.4c0 1.1.4 2 1.1 2.8.7.7 1.7 1.1 2.8 1.1h4.7V55c0 2.1.8 3.9 2.2 5.3 1.4 1.4 3.2 2.2 5.3 2.2h31.2c2.1 0 3.9-.8 5.3-2.2 1.4-1.4 2.2-3.2 2.2-5.3v-9.1H75c1.1 0 2-.4 2.8-1.1.7-.7 1.1-1.7 1.1-2.8v-.4c0-1-.4-2-1.1-2.7zM24.2 43h-4.7c-.3 0-.5-.1-.6-.3-.2-.2-.3-.4-.3-.6v-.4c0-.3.1-.5.3-.6.2-.2.4-.3.6-.3h4.7V43zm51.7-1c0 .3-.1.5-.3.6-.1.3-.3.4-.6.4h-4.7v-2.2H75c.2 0 .5.1.6.3.2.2.3.4.3.6v.3zm-11.7 7.4zm.5 8.4zm-1-8zm.4-.4z"/></g></g></g></g><g transform="translate(3000)"><g><g><g><path fill-rule="evenodd" clip-rule="evenodd" fill="#FCDB43" d="M11.6 57.6h57v3.6h-57z"/><path fill-rule="evenodd" clip-rule="evenodd" fill="#ED9707" d="M75.2 19.6c-.6-.7-1.5-1.1-2.3-1.2-.2-.8-.6-1.6-1.2-2.3-1.7-1.7-4.6-1.7-6.3 0-1.7 1.7-1.7 4.6 0 6.3l.1.1-5 5C58.8 26.5 57 26 55 26c-2.7 0-5.3 1.1-7.3 3-4 4-4 10.5 0 14.5.4.4.4 1.1 0 1.5-.2.2-.5.3-.7.3-.3 0-.5-.1-.7-.3-4.8-4.8-4.8-12.7 0-17.5 2.3-2.3 5.4-3.6 8.7-3.6.7 0 1.5.1 2.2.2-2.9-1.6-6.3-2.6-9.8-2.6-7.3 0-13.8 3.9-17.3 9.8-1.8 3-2.8 6.5-2.8 10.2 0 .6-.5 1.1-1.1 1.1-.6 0-1-.5-1-1.1 0-2.9.6-5.7 1.6-8.3-5.2 2.7-8.8 8.2-8.8 14.5 0 .9.1 1.8.2 2.6H16c-.7 0-1.3.6-1.3 1.3v2.7c0 .7.6 1.3 1.3 1.3h46c3.5-3.6 5.7-8.3 5.7-13.7 0-4.2-1.3-8.1-3.4-11.3l4.6-4.6v.1c1.7 1.7 4.6 1.7 6.3 0 1.7-1.9 1.7-4.7 0-6.5zm-.9 5.5c-1.3 1.3-3.3 1.3-4.6 0V25l-.9-.9-1.8 1.7-1.6-1.6 1.7-1.7-.9-.9h-.1c-1.3-1.3-1.3-3.3 0-4.6 1.3-1.3 3.3-1.3 4.6 0 .4.4.7.8.8 1.3.1.4.2.8.1 1.3.4 0 .8 0 1.3.1s1 .4 1.3.8c1.3 1.3 1.3 3.3.1 4.6z"/></g></g></g></g></svg>