<svg baseProfile="tiny" xmlns="http://www.w3.org/2000/svg" preserveAspectRatio="xMinYMin meet" viewBox="0 0 4800 400" width="4800" height="400"><path fill="#C14127" d="M103.8 79.2c0-1.5.3-3 .7-4.1.2-.5.4-1 .5-1.3.1-.3.2-.4.2-.4l-5.6-3c-.1.2-1.8 3.4-2.1 7.8 1.6 1.2 4.2 1.1 6.4 1.8-.1-.2-.1-.5-.1-.8z"/><path fill="#E64434" d="M107.6 85.6v.4-.4c-2.9-1.6-3.5-3.5-3.7-5.5-2.1-.7-4.7-.6-6.4-1.8l-.1.9c-.2 5 3.1 11.6 11.9 13.9l1.8-6.1c-1.5-.4-2.6-.9-3.5-1.4z"/><path fill="#C14127" d="M147.3 85.2l.3-.9c1.3-4.5 1.5-8.1 1.5-8.3l-6.3-.2s0 .7-.2 1.9c-.2 1.5-.6 3.5-1.3 5.6 2.6-.2 4.5.5 6 1.9z"/><path fill="#E64434" d="M141.3 83.3c-1.2 3.3-3.1 6.8-6.2 8.4l3.1 5.5c5.2-2.9 7.7-7.9 9.2-12.1-1.6-1.3-3.5-2-6.1-1.8z"/><circle fill="#E64434" cx="107.5" cy="56" r="20.1"/><path fill="#C14127" d="M107.5 35.8l-2.4.1c10.5.2 18.9 8.8 18.9 19.3 0 10.7-8.6 19.3-19.3 19.3-3.2 0-6.2-.8-8.9-2.2 3.3 2.3 7.3 3.7 11.6 3.7 11.1 0 20.1-9 20.1-20.1.1-11-8.9-20.1-20-20.1z"/><path fill="#fff" d="M106.4 73.2c-8 0-14.5-6.5-14.5-14.4s6.5-14.4 14.5-14.4 14.5 6.5 14.5 14.4-6.5 14.4-14.5 14.4z"/><path fill="#ECF4F8" d="M106.4 44.4c-5 0-9.4 2.5-12 6.3 2.4-1.6 5.2-2.6 8.3-2.6 8 0 14.5 6.5 14.5 14.4 0 3-.9 5.8-2.5 8.1 3.8-2.6 6.2-6.9 6.2-11.8 0-7.9-6.5-14.4-14.5-14.4z"/><circle fill="#1A171B" cx="108.1" cy="58.4" r="4.3"/><circle fill="#E64434" cx="146.9" cy="56.4" r="24.5"/><path fill="#C14127" d="M148.3 32c10 2.3 17.5 11.2 17.5 21.9 0 12.4-10.1 22.5-22.5 22.5-7.7 0-14.6-3.9-18.6-9.9 3.9 8.5 12.4 14.3 22.3 14.3 13.5 0 24.5-11 24.5-24.5-.1-12.9-10.4-23.6-23.2-24.3z"/><path fill="#fff" d="M146.2 78.6c-11 0-20-8.4-20-18.7 0-10.3 9-18.7 20-18.7s20 8.4 20 18.7c0 10.4-9 18.7-20 18.7z"/><path fill="#ECF4F8" d="M146.2 41.3c-6.2 0-11.8 2.7-15.5 6.9 3.2-2 7.1-3.2 11.2-3.2 11 0 20 8.4 20 18.7 0 4.5-1.7 8.6-4.5 11.8 5.3-3.4 8.8-9 8.8-15.5 0-10.3-9-18.7-20-18.7z"/><path fill="#1A171B" d="M145.1 60.5c0 3.3-2.6 5.9-5.9 5.9-3.3 0-5.9-2.6-5.9-5.9 0-3.2 2.6-5.9 5.9-5.9 3.3 0 5.9 2.6 5.9 5.9z"/><path fill="#E64434" d="M75.5 166.4s-22.1-2.7-25.2-28.3c0 0 17.3-14.6 12.8-31.8-4.4-17.3-24.8-22.2-24.8-22.2s3.1 7.1-4.4 14.2-4 8.4 3.5 15.9 9.3 11.5 6.6 16.4c-2.7 4.9 3.5 6.6 3.5 6.6s-7.5 2.2-8.4-4.4c-.9-6.6 5.3-6.6-1.8-14.6s-14.2-8.4-11.1-14.6c3.1-6.2 6.6-13.7 5.7-16.8-.9-3.1-15.2 3.6-16.3 26.2-.8 16 15 28.2 27.8 29.6 0 0 8 24.8 26.5 31.4 13.6 4.7 5.6-7.6 5.6-7.6z"/><path fill="#C4422E" d="M97.1 221.8c.3-7.3 9.2-10.3 9.2-10.4l1.2 2.9s-1.9.7-3.7 2.1c-1.9 1.4-3.5 3.3-3.5 5.4 0 1.4.6 3.1 2.9 5.4l-2.2 2.2c-2.7-2.6-3.9-5.2-3.9-7.6zM133.8 226.2c2.5-1.9 3.1-3.3 3.1-4.6 0-1.6-1.2-3.4-2.7-4.8-1.4-1.3-2.8-2.1-2.9-2.2l1.6-2.7c0 .2 6.9 3.6 7.1 9.7 0 2.4-1.4 5-4.4 7.1l-1.8-2.5zm-2.4-11.5zM180.6 218.3c2.2-2.1 2.8-3.6 2.8-4.5.1-1.2-1.1-2.3-2.8-3.1-1.6-.8-3.3-1.2-3.3-1.1l.6-3.1c.1 0 2 .4 4.1 1.4 2 1 4.5 2.8 4.6 6 0 2.2-1.2 4.4-3.8 6.8l-2.2-2.4zM204.5 198.1c.4-1.1.6-1.9.5-2.5 0-1-.3-1.2-.8-1.6-.6-.3-1.6-.5-2.7-.5-1.8 0-3.6.4-3.6.4l-.8-3.1c.1 0 2.1-.5 4.4-.5 1.4 0 2.9.2 4.2.9 1.4.7 2.5 2.4 2.4 4.3 0 1.1-.3 2.2-.8 3.6l-2.8-1z"/><ellipse fill="#C4422E" cx="95.7" cy="228.5" rx="8.2" ry="3.5"/><ellipse fill="#C4422E" cx="140.4" cy="228.3" rx="8.2" ry="3.5"/><path fill="#C4422E" d="M194.5 219.5c0 1.7-3.3 3.2-7.3 3.2s-7.3-1.4-7.3-3.2c0-1.7 3.3-3.2 7.3-3.2 4.1.1 7.3 1.5 7.3 3.2z"/><ellipse fill="#C4422E" cx="210" cy="198.9" rx="6.9" ry="3"/><path fill="#E64434" d="M86 145.3s-26.1-.5-23-11.9c3-11.4 36-51.7 56.7-49.6 20.8 2 55.5 43.6 54.2 53.4-1.3 9.8-52.4 12.1-87.9 8.1z"/><path fill="#1A171B" d="M149.2 113s28.9-9.2 27.7-41.6c0 0-5.1 31.1-30.9 37.6 0-.1-3.2 4.6 3.2 4z"/><path fill="#EA6762" d="M112.2 89.4s-18.1 6.2-31.8 26.1c-13.7 19.9 33.1 20.8 54.9 17.7 18.2-2.6-7.2-47.7-23.1-43.8z"/><path fill="#1A171B" d="M93.6 110.2s-28.4-10.8-25.4-43.1c0 0 3.4 31.3 28.9 39.1-.1.1 2.8 4.9-3.5 4z"/><path fill="#D84832" d="M86 145.3s-9.1-.2-16-2.7c-.2 1 0 2.6 2 4.7 3.5 3.8 18.7 17.2 46.6 17.5 25.9.2 45.4-15 43.8-21.1-17.3 4.1-50.9 4.5-76.4 1.6z"/><path fill="#E64434" d="M160.2 149.2c-5.8 6.9-21.8 15.8-41.6 15.6-22.9-.2-37.3-9.3-43.6-14.7-4.2 6.8-6.7 14.7-6.7 23.2 0 25.5 22.2 46.2 49.5 46.2 27.4 0 49.5-20.7 49.5-46.2.2-8.9-2.5-17.1-7.1-24.1zM166.7 165.1c.5 2.7.8 5.4.8 8.2 0 19.9-13.4 36.8-32.2 43.3 4.8 2.1 10.2 3.3 16 3.3 19 0 34.4-13 34.4-29-.1-11.3-7.8-21-19-25.8zM177.5 167.7c-1.7 0-3.4.2-5 .5 8 5.3 13.2 13.5 13.2 22.8 0 6.3-2.4 12.2-6.5 17 12.4-.7 22.3-9.4 22.3-20.1-.1-11.2-10.8-20.2-24-20.2zM212 175c-1.7-7.2-10-11.5-18.5-9.5-2.8.7-5.3 1.9-7.3 3.5 8.9 2.9 15.2 10.2 15.2 18.7 0 1.2-.1 2.3-.4 3.5 7.7-2.3 12.6-9.4 11-16.2zM236 164.2c-2.7-11.5-16.4-7.5-16.4-7.5.4-13.3-15.5-21.2-19.9-4-1.3 5.2-1.2 9.3-.5 12.5 6.2.6 11.4 4.3 12.7 9.9.3 1.2.4 2.5.2 3.7 10.1 2.2 26.1-5.3 23.9-14.6z"/><path fill="#C64328" d="M86 145.3s-6.6-.1-12.7-1.7c7.7 2.8 23.5 7.8 40.3 7.8 22.8 0 10.5 11.7-4.4 12.8 3 .4 6.2.6 9.6.6 25.9.2 45.4-15 43.8-21.1-17.5 4.1-51.1 4.5-76.6 1.6z"/><path fill="#D24630" d="M68.5 170.6c2.7-6.2 7.6-11.5 14-15.3-3.1-1.8-5.6-3.7-7.4-5.2-3.8 6.1-6.1 13.1-6.6 20.5zm91.7-21.4c-3.8 4.6-12.3 10.1-23.4 13.2 4.8 5.3 7.6 11.9 7.6 19.1 0 17.8-17.5 32.3-39.1 32.3-5.8 0-11.4-1.1-16.3-3 8.1 5.5 18.1 8.7 29 8.7 27.4 0 49.5-20.7 49.5-46.2 0-8.9-2.7-17.1-7.3-24.1z"/><ellipse fill="#EA6762" cx="96.9" cy="183.4" rx="21.5" ry="18.8"/><path fill="#EA6762" d="M92 199.6c0 1.4-1.3 2.6-3 2.6-1.6 0-3-1.2-3-2.6 0-1.4 1.3-2.6 3-2.6 1.7.1 3 1.2 3 2.6z"/><path fill="#D24630" d="M236 164.2c-2.7-11.5-16.4-7.5-16.4-7.5.2-4.9-1.9-9.1-4.8-11.5-4.5-2.1-10.8 2.7-11.7 8.8-1.1 7.5 2.2 12.8 2.3 13 3.3 1.7 5.7 4.5 6.5 8.1.3 1.2.4 2.5.2 3.7 10.1 2.2 26.1-5.3 23.9-14.6zM208.2 179.8c1.8-3.6 1.8-7.2.5-10.6-.9-.9-2-1.7-3.2-2.3v.1c3.2 6-11.5 6.3-11.5 6.3 4.2 3.4 6.9 8.1 7.3 13.4 3.5-1 5.2-5.2 6.9-6.9z"/><path fill="#C4422E" d="M212 175c-.5-2.2-1.7-4.2-3.3-5.8 1.3 3.3 1.3 6.9-.5 10.6-1.7 1.7-3.3 5.9-6.9 6.9l.1 1.1c0 1.2-.1 2.3-.4 3.5 7.7-2.4 12.6-9.5 11-16.3zM185.5 193.3c-.5 5.4-2.8 10.4-6.4 14.6 11.4-.6 20.6-8 22.1-17.5-4.1 5.7-10.1 8.6-15.7 2.9z"/><path fill="#D24630" d="M201.1 190.4c.1-.8.2-1.7.2-2.6 0-5.7-2.8-10.9-7.4-14.5 1.7 6.9-12.6 3.6-12.6 3.6v.1c2.7 4.1 4.2 8.8 4.2 13.8 0 .8 0 1.6-.1 2.3 5.7 5.9 11.7 3 15.7-2.7z"/><path fill="#C4422E" d="M203.9 185.6c-1.1-5.4-4.7-9.6-9.5-12.3h-.4c4.5 3.7 7.4 8.8 7.4 14.5 0 1.2-.1 2.3-.4 3.5 1.2-.4 2.2-.8 3.3-1.4 0-1.4-.1-2.8-.4-4.3z"/><path fill="#D24630" d="M184.9 197c.5-1.9.8-4 .8-6 0-5-1.5-9.8-4.2-13.9 1.4 11.6-12.9 7.9-15.3 7.2-2 7.6-6 14.5-11.5 20.2 12.1 6.1 24.4 1.7 30.2-7.5z"/><path fill="#C4422E" d="M154.5 204.4c-5.3 5.4-11.8 9.6-19.3 12.2 4.8 2.1 10.2 3.3 16 3.3 16.5 0 30.3-9.8 33.6-22.9-5.7 9.2-18 13.6-30.3 7.4zM186.8 186c-.8-3.3-2.3-6.2-4.3-8.8-.7-.1-1.2-.2-1.2-.2v.1c2.7 4.1 4.2 8.8 4.2 13.8 0 6.3-2.4 12.2-6.5 17 1.3-.1 2.5-.2 3.7-.5 4.4-6.4 6.1-14 4.1-21.4zM166.6 184.4l-.6-.2c-3.9 14.9-15.6 27.1-30.8 32.4 4.1 1.8 8.6 2.9 13.4 3.2 11-8.4 18-21.2 18-35.4z"/><path fill="#EA6762" d="M171.3 174.4s-4.5-4.7-1-5.3c3.5-.6 8.6 5.2 7.3 6.6-1.2 1.3-4.4.6-6.3-1.3zM183 169.4s5.2.5 6.3 2.3c1.1 1.8-3.5 1.5-6 .1-2.6-1.4-2-2.5-.3-2.4zM201.5 167.5s-4.7-1.4-6.5-.3c-1.8 1.1 3 2.5 5.5 2.5s2.9-1.4 1-2.2z"/><path fill="#E64434" d="M192.7 126.6s-18.1-23.4-2.2-42.9c15.9-19.5 38.9-11.5 38.9-11.5s.4 17.3-10.2 23.4c-10.6 6.2-13.3 6.2-13.3 6.2l3.5 6.5s-5.3 8.6-10.2 8.6c-4.9 0-3.1 6.2-3.1 6.2s14.2.4 20.3-4.9c6.2-5.3.4-12.8.4-12.8s21.7-10.2 22.1-25.2c0 0 7.5 14.2-.9 34.9-8.4 20.8-38.5 15-38.5 15s-14.6 31.9-38.9 35.4c-4.1.2-7.3-4-.9-6.6.3 0 22.8-8.4 33-32.3z"/><ellipse fill="#E64434" cx="94.4" cy="227.4" rx="5.2" ry="1.8"/><path fill="#E64434" d="M147.3 227.3c0 1-2.3 1.8-5.2 1.8-2.9 0-5.2-.8-5.2-1.8s2.3-1.8 5.2-1.8c2.9 0 5.2.8 5.2 1.8z"/><ellipse fill="#E64434" cx="189.5" cy="218.5" rx="4" ry="1.4"/><path fill="#E64434" d="M215.2 198c0 .8-1.8 1.4-4 1.4s-4-.6-4-1.4c0-.8 1.8-1.4 4-1.4 2.3 0 4 .6 4 1.4z"/><path fill="#C64328" d="M160.9 165.5c-1.6.1-3.1-.5-3.9-1.5.1.2.1.5.2.8 1.2 3 7.5 4.4 10.2 4.9-.2-1.9-.4-3.8-.8-5.6-1.9.7-3.8 1.1-5.7 1.4z"/><path fill="#C14127" d="M219.2 95.6c-10.6 6.2-13.3 6.2-13.3 6.2l3.5 6.5s-5.3 8.6-10.2 8.6c-4.9 0-3.1 6.2-3.1 6.2s14.2.4 20.3-4.9c6.2-5.3.4-12.8.4-12.8s21.7-10.2 22.1-25.2c-1.6-5-8-1.3-10.6.5-.9 5.2-3.4 11.6-9.1 14.9z"/><path fill="#EA6762" d="M189 100.2s-1.5-13 8.4-20.5 20.8-7.2 23.7-4c2.8 3.1-10.3 16.7-14.5 20.1-7 5.4-17.1 13.2-17.6 4.4z"/><path fill="#C64328" d="M26.4 103.6c-3.1 6.2 4 6.6 11.1 14.6s.9 8 1.8 14.6 8.4 4.4 8.4 4.4-6.2-1.8-3.5-6.6c2.7-4.9.9-8.8-6.6-16.4-7.5-7.5-11.1-8.8-3.5-15.9 7.5-7.1 4.4-14.2 4.4-14.2-1.8-.8-4.3 1.7-6.1 3.9-.2 3.6-3.3 10.1-6 15.6z"/><path fill="#EA6762" d="M26.4 97.5s2.3-4.8.9-6.1c-1.4-1.4-4.3 1.7-5.7 4.9-1.5 3.2 2 5.7 4.8 1.2z"/><circle fill="#D84832" cx="135.8" cy="189.1" r="5.1"/><path fill="#D84832" d="M54 120.6c0 1.3-1.1 2.3-2.3 2.3-1.3 0-2.3-1.1-2.3-2.3 0-1.3 1.1-2.3 2.3-2.3 1.3-.1 2.3 1 2.3 2.3z"/><circle fill="#D84832" cx="46.7" cy="114.2" r="2.7"/><circle fill="#D84832" cx="231.7" cy="105.6" r="2.7"/><circle fill="#D84832" cx="151.2" cy="127.9" r="2.7"/><circle fill="#D84832" cx="142.8" cy="136.8" r="2.7"/><circle fill="#D84832" cx="21.2" cy="117.7" r="2.7"/><circle fill="#D84832" cx="222.2" cy="121.7" r="2.7"/><circle fill="#D84832" cx="41.5" cy="104.8" r="1.6"/><circle fill="#D84832" cx="51.6" cy="97.6" r=".9"/><circle fill="#D84832" cx="117.1" cy="140.4" r="1.1"/><circle fill="#D84832" cx="42.2" cy="100.5" r="3.8"/><circle fill="#D84832" cx="154" cy="118.9" r="4.8"/><circle fill="#D84832" cx="52.5" cy="106.5" r="3.5"/><path fill="#D84832" d="M235.7 115c0 1.9-1.6 3.5-3.5 3.5s-3.5-1.6-3.5-3.5 1.6-3.5 3.5-3.5 3.5 1.6 3.5 3.5zM127.1 181.8c0 1.4-1.2 2.6-2.6 2.6-1.4 0-2.6-1.2-2.6-2.6 0-1.4 1.2-2.6 2.6-2.6 1.5 0 2.6 1.1 2.6 2.6zM124.8 202.7c0 2.4-1.9 4.3-4.3 4.3s-4.3-1.9-4.3-4.3 1.9-4.3 4.3-4.3c2.3-.1 4.3 1.9 4.3 4.3z"/><circle fill="#D84832" cx="75" cy="164.7" r="4.3"/><circle fill="#D84832" cx="141" cy="172.6" r="4.3"/><circle fill="#D84832" cx="136.5" cy="202.2" r="4.3"/><circle fill="#D84832" cx="103.7" cy="209.1" r="2.5"/><circle fill="#C4422E" cx="178.6" cy="194.9" r="2.7"/><circle fill="#C4422E" cx="168.2" cy="201.9" r="1.9"/><circle fill="#C4422E" cx="173.5" cy="191.6" r="1.9"/><circle fill="#C4422E" cx="206.5" cy="177.6" r="1.9"/><circle fill="#C4422E" cx="196.4" cy="194.4" r="1.9"/><circle fill="#C4422E" cx="188.6" cy="185.4" r="1.2"/><circle fill="#C4422E" cx="195.3" cy="183.1" r="1.7"/><circle fill="#ED7D72" cx="102.4" cy="97.6" r="1.5"/><circle fill="#ED7D72" cx="103.3" cy="103.9" r="3.2"/><circle fill="#ED7D72" cx="88.3" cy="113.5" r="1.5"/><circle fill="#ED7D72" cx="111.4" cy="124.3" r="1.9"/><circle fill="#ED7D72" cx="86.5" cy="178.4" r="2.8"/><circle fill="#ED7D72" cx="92.2" cy="174.2" r="1.5"/><circle fill="#ED7D72" cx="92.8" cy="121.6" r="2.8"/><circle fill="#ED7D72" cx="105.1" cy="116.8" r="1.5"/><g transform="translate(400)"><path fill="#F7F1C1" d="M189.9 150.9c-4.3-16.2-12.1-26.7-18.8-33.1-.7.8-1.7 1.6-3 2.3-9.2 4.9-13.5-.6-13.5-.6s-.6 8.6-10.4 11.1-13.5-2.5-13.5-2.5-1.8 9.8-11.1 11.7c-9.2 1.8-13.5-7.4-13.5-7.4s-4.3 14.1-13.5 11.7c-9.2-2.5-3.7-14.7-3.7-14.7s-11.4-.5-15.2-7.8c-7.9 5.7-21.5 16.4-24.5 25.7-4.2 13.3 4.2 24.3 12.1 26.7 7.9 2.4 15.2-12.7 15.2-12.7l1.8 8.5s-6.1 4.2-5.5 14.6c.6 10.3 9.1 7.9 9.1 7.9 7.3 15.8 32.4 38.2 45.1 41.9 12.7 3.6 11.8-1.9 11.8-1.9s2.3 2.4 24.5 5c25.6 2.9 32.7-18 32.7-18s2.4-36.2-6.1-68.4z"/><path fill="#E7E0A5" d="M171.1 117.8c-.7.8-1.7 1.6-3 2.3-9.2 4.9-13.5-.6-13.5-.6s-.6 8.6-10.4 11.1-13.5-2.5-13.5-2.5-1.8 9.8-11.1 11.7c-9.2 1.8-13.5-7.4-13.5-7.4s-4.3 14.1-13.5 11.7c-9.2-2.5-3.7-14.7-3.7-14.7s-11.4-.5-15.2-7.8c-1.4 1-2.9 2.1-4.5 3.4.2.3.6.5 1.1.6 4.4.7 4.8 13.2 6.6 19.1 1.8 5.9 7 9.2 15.4 9.2 8.5 0 14.7-7 14.7-7s-.4 4 4.8 7.4c5.1 3.3 20.6-10.7 20.6-10.7s10.3 5.5 18.8.7 10.7-15.1 10.7-15.1 3.3 2.6 9.2-4.4c1.3-1.5 1.9-3.2 2.1-4.9-.8-.8-1.5-1.4-2.1-2.1z"/><path fill="#FBF7DE" d="M186.9 146.1s8.5 46.8 3.4 56.4c-5.1 9.6-14.1 7.3-20.3 11.8-6.2 4.5-28.2-4.5-37.8-13.5-9.6-9 1.1-28.8 8.5-32.7 7.3-4 25.3-63.7 46.2-22z"/><path fill="#E7E7E8" d="M116.5 81.4s0-11.7 11.7-13.5c11.7-1.8 12.9 9.8 12.9 9.8s2.5-11.7 13.5-9.2c11.1 2.5 8.6 12.3 8.6 12.3s15.4-.1 15.4 11.7c0 6.8-8 12.9-8 12.9s6.8 9.8-2.5 14.7c-9.2 4.9-13.5-.6-13.5-.6s-.6 8.6-10.4 11.1-13.5-2.5-13.5-2.5-1.8 9.8-11.1 11.7c-9.2 1.8-13.5-7.4-13.5-7.4s-4.3 14.1-13.5 11.7c-9.2-2.5-3.7-14.7-3.7-14.7s-13.5-.6-16-9.8c-2.5-9.2 10.4-14.7 10.4-14.7s-8-4.3-4.3-14.1 17.8-1.8 17.8-1.8-4.9-10.4 3.7-14.7c8.6-4.5 16 7.1 16 7.1z"/><path fill="#9A7000" d="M215.9 43.3c-29.6-2.3-48 17.6-55.5 28 4.3 3.8 2.8 9.5 2.8 9.5s13.7-.1 15.2 9.9c15-20.4 31.5-25.3 38.7-25.3 8.2 0 18.3 10.1 13.3 26.6-5.1 16.4-18.3 13.9-18.3 13.9-5.1-8.2-3.2-20.9-3.2-20.9s-10.1 6.3-10.8 15.8c-.6 9.5 17.1 34.1 43 12.6 26-21.4 14.6-67-25.2-70.1zM56.5 67.3c8.6 2.7 17.6 17.2 22 25.2.1-.6.3-1.2.6-1.8 3.6-9.6 17.1-2.3 17.8-1.9-.3-.6-4.6-10.5 3.7-14.7 1.7-.8 3.3-1.1 4.8-.9-6.5-13.3-22-37-49.4-35.6-38.1 1.9-60.9 41.7-46.9 66.4 13.9 24.7 35.4 30.4 50 17.7 14.5-12.6-7-28.5-7-28.5s3.8 14.5-1.9 19.6c0 0-22.1 3.8-24.7-20.2-2.5-24 19-29.1 31-25.3z"/><path fill="#F7F1C1" d="M200.6 125.8c-2.8-8.8-19.7-17.6-28.5-21.7-.9.8-1.5 1.3-1.5 1.3s5 7.3.5 12.4c4.5 4.4 9.6 10.6 13.7 19.2 6.4-.4 18.6-2.3 15.8-11.2z"/><path fill="#6A3A09" d="M51.8 110.7c-.4.8-1 1.6-1.6 2.2 0 0-22.1 3.8-24.7-20.2-2.5-23.7 18.2-29 30.3-25.6-3.2-1.6-7.6-2.8-13.8-2.8-20.9 0-35 15.8-31.6 32.1 3.4 16.4 20.3 29.9 30.4 28.2 6-.9 9.6-7.7 11-13.9zM244.4 66.6c-8.4-7.5-23.5-5.7-34.7.1 3-.9 5.6-1.2 7.5-1.2 8.2 0 18.3 10.1 13.3 26.6-5.1 16.4-18.3 13.9-18.3 13.9 5.3 10.9 17.1 12 27.2 3.6 10.1-8.6 16.3-32.9 5-43z"/><path fill="#F3A69E" d="M88.8 129.4s-4.8-.2-9.2-2.4c-6.9 5.8-18.2 16.8-20.2 28.3-3 16.8 9.2 17.5 15.8 4.4 0 0 4.6-22.7 13.6-30.3z"/><path fill="#DC9790" d="M195.2 131.5c1.4-3.1-10-8.6-19.7-9 3 3.5 6 7.9 8.6 13.1 2-.1 9.8-1 11.1-4.1z"/><path fill="#FBFBFB" d="M140.4 82.5s-2.8-13.2-10.7-11.9c-8 1.2-11.3 13.8-11 14.7.3.9-8.6-6.1-14.1 1.5s.9 11.9.9 11.9-13.2 7.3-9.5 16.5c3.3 8.3 17.1 3.4 17.1 3.4s2.8 10.7 9.8 8.9c7-1.8 7-8.6 7-8.6s1.5 8.9 11 6.1c9.5-2.8 8.3-11.9 8.3-11.9s7 3.4 11.9-1.2-.3-10.4-.3-10.4 12.9-1.5 13.5-8c.6-6.4-12.2-9.2-12.2-9.2s1.2-11-6.7-11.9c-7.9-.9-15 10.1-15 10.1z"/><path fill="#DC9790" d="M88.8 129.4s-4.8-.2-9.2-2.4c-6.9 5.8-18.2 16.8-20.2 28.3-1.1 6.2-.1 10.3 1.9 12.2.9 0 1.6-.6 1.6-1.5 0-2.9 4-17.6 9.6-22.8 5.3-5 6.2 3.4 6.2 4 2.3-6.6 5.7-14.1 10.1-17.8z"/><path fill="#E7E0A5" d="M172.1 104.1c-.9.8-1.5 1.3-1.5 1.3s5 7.3.5 12.4l1.9 1.9c1.3-5.5 10.3-7.9 12.7-8.4-4.9-3-9.9-5.6-13.6-7.2z"/><path fill="#FBF7DE" d="M101.6 172.6s-9-7.9-17.1-4.3c-8.1 3.6-4.5 6.7 1.1 6.5 5.6-.2 12.6.2 14.6 3.6 2.1 3.5 6.4-1.3 1.4-5.8z"/><path fill="#E7E0A5" d="M180.9 154.2c0 10.4-8.4 18.9-18.9 18.9-10.4 0-18.9-8.4-18.9-18.9 0-10.4 8.4-18.9 18.9-18.9 10.5 0 18.9 8.4 18.9 18.9z"/><circle fill="#E7E0A5" cx="130.7" cy="165.8" r="25.1"/><circle fill="#ECF4F8" cx="163.8" cy="150.3" r="18.9"/><path fill="#fff" d="M177.2 136.6c-.1-.1-.2-.2-.4-.3l-.6-.5c-1.2-1-2.6-1.8-4-2.5-2.1-.9-4.5-1.5-7-1.5-9.3 0-16.9 7.2-16.9 16.2 0 8.9 7.5 16.2 16.9 16.2 9.3 0 16.9-7.2 16.9-16.2 0-4.5-1.9-8.5-4.9-11.4z"/><circle fill="#ECF4F8" cx="133.5" cy="163.1" r="23.2"/><path fill="#fff" d="M134.6 140c-11 .6-19.8 9.7-19.8 20.8 0 11.5 9.4 20.9 20.9 20.9 11.2 0 20.3-8.8 20.8-19.8-.5-11.8-10-21.4-21.9-21.9z"/><circle fill="#6A3A09" cx="142.6" cy="164.3" r="5.1"/><circle fill="#6A3A09" cx="166.5" cy="156.1" r="3.9"/><path fill="#F0EABB" d="M175.4 216.4s-3.6 7.9-16.8 9.4c-11.3 1.3-38.9-11.7-47.2-21.8-8.1-9.9-17.3-20.3-13.1-10.9 11.3 25.8 40.6 39.1 40.6 39.1s2.3 2.4 24.5 5c2.9.3 5.5.3 7.9.1 4-1.5 6.6-3.7 7.4-5.5 2.3-4.9 3.8-15.1-3.3-15.4z"/><path fill="#F3A69E" d="M161.6 241.1s-8.8-13.3 11.3-24.1c13.4-7.2 24-3 27.7 6.1 0 0-9.6 3-6.5 10.3-1 1.4-7.3 7.9-16.4 9.1 0 0-7-7.5-16.1-1.4z"/><path fill="#FBDBD5" d="M171.9 221s3.5-3.8 9.2-5.2c5.7-1.4 11.4-1.6 12.4.4s-3.9 3.9-10.6 6c-6.8 2-12.9 1.9-11-1.2z"/><path fill="#DC9790" d="M200.6 223.1c-.7-1.8-1.7-3.3-2.9-4.7.2 4.4-5.6 9.7-14 11.8-9 2.3-16.2.8-16.9-5.3-.2-1.8.4-3.5 1.5-5.1-13.9 10.2-6.6 21.2-6.6 21.2 9-6.1 16.1 1.4 16.1 1.4 9.1-1.2 15.4-7.7 16.4-9.1-3.3-7.2 6.4-10.2 6.4-10.2zM138.9 232.2s-34.2-16.4-45.7-47.7c0 0 1.7-1.9 4.7.1 0 0-2.1-5.3-7.5-2.9s-2.9 7-2.9 7 1-3 3.4-3c0-.1 8 30.5 48 46.5z"/><path fill="#B99749" d="M250.8 65.6c-5.9-11.8-17.8-21-34.9-22.4-29.3-2.3-47.7 17.2-55.3 27.7l.1.6c3.8 3.8 2.5 9.2 2.5 9.2s7.2 0 11.7 3.7c5.9-8 13.6-19 31.7-26.2 18.3-7.1 36.6-3 44.2 7.4zM100.5 74.1c1.7-.8 3.3-1.1 4.8-.9-6.5-13.3-22-37-49.4-35.6-27.4 1.3-46.9 22.5-50.4 43.4 6.6-16.7 25.2-28.9 47.8-25.2 18.6 3 29.3 22.9 32.3 30 5-.4 10.8 2.7 11.2 3-.3-.6-4.6-10.6 3.7-14.7z"/></g><g transform="translate(800)"><path fill="#F1989A" d="M8.9 171.6l56.1-113c14.4-3.8 82.3 17.7 87.9 29.4l-23.3 124s-5.4 20.3-67.9 3.3l-.3-.1-.3-.1c-60.1-24.1-52.2-43.5-52.2-43.5zM154.1 90.6c1.4-.7 2-2.3 1.3-3.7-2-3.8-6.5-6.7-12.6-10-6.1-3.2-13.9-6.5-22.3-9.5-16.8-6-35.6-10.9-47.5-11.9-3.5-.3-6.3-.2-8.7.4-1.5.4-2.4 1.9-2 3.4.4 1.5 1.9 2.4 3.4 2 1.2-.4 3.7-.5 6.9-.2 16.4 1.2 50.3 11.6 67.6 20.7 5.8 2.9 9.7 6.2 10.2 7.4.4.9 1.3 1.5 2.3 1.6.4.1.9 0 1.4-.2z"/><path fill="#EBF6FC" d="M135.8 144.5c-2.5 7.5 1.5 15.6 9 18.1 7.5 2.5 15.6-1.5 18.1-9 2.5-7.5-1.5-15.6-9-18.1-7.5-2.5-15.6 1.5-18.1 9z"/><path fill="#F1989A" d="M130.4 196.4s31.3-45.8 57.4-52c0 0 7 .3 10.7 6.5 3.7 6.2 5.7-7.2 2.1-16.3-3.6-9.1-15.2-18-19.8-16.6-4.6 1.4 7 7.7-2.3 15.4-9.2 7.7-28.2 15.5-44.3 31.3-15.9 15.8-3.8 31.7-3.8 31.7z"/><path fill="#DF8286" d="M100.1 145.9c-3.5 10.4 2.1 21.7 12.5 25.2s21.7-2.1 25.2-12.5-2.1-21.7-12.5-25.2c-10.5-3.5-21.7 2.1-25.2 12.5z"/><path fill="#fff" d="M106.2 144.1c-3.2 9.7 2 20.2 11.7 23.4 9.7 3.2 20.2-2 23.4-11.7 3.2-9.7-2-20.2-11.7-23.4-9.7-3.2-20.2 2-23.4 11.7z"/><path fill="#EFF8FD" d="M106.2 144.1c3.2-9.7 13.7-14.9 23.4-11.7.3.1.6.2.8.3-8.5-2.4-17.4 2.3-20.3 10.8-2.9 8.7 1.8 18.2 10.5 21.1 8.5 2.8 17.6-1.5 20.8-9.7-.1.3-.2.6-.2.9-3.2 9.7-13.7 14.9-23.4 11.7-9.7-3.2-14.9-13.7-11.6-23.4z"/><path fill="#1A171B" d="M143.8 145.7c-.6 1.8.4 3.7 2.1 4.3 1.8.6 3.7-.4 4.3-2.1.6-1.8-.4-3.7-2.1-4.3-1.8-.6-3.7.3-4.3 2.1zM116.5 148.3c-.8 2.5.5 5.2 3 6.1 2.5.8 5.2-.5 6.1-3 .8-2.5-.5-5.2-3-6.1-2.5-.8-5.2.5-6.1 3z"/><path fill="#F5B5B5" d="M201.4 141.5s-1-7.8-6.2-14c-5.2-6.3-12.1-9.6-13.4-8.4-1.2 1.2 4.3 1.6 9.6 8.4 5.3 6.8 7.6 11.4 8.7 17.8 1.1 6.5 1.5 1.3 1.3-3.8z"/><path fill="#DF8286" d="M136.7 179.1c7.2-10.4 40.3-33.6 45.6-37.6 3.9-3 2.5-6 1.6-7.5-1.6-1.4-4.1-1-2.3-2.7 3.5-3.2.5-9.1.5-9.1.2-1.9 8.2 6.4 12.2 13.2 4 6.8 5.8 15.6 4 13.4-1.8-2.3-7.3-5-7.3-5-2.5-1.2-5.9-2.3-23.4 10.8-17.9 13.3-34.9 36.8-34.9 36.8s-3.2-1.9 4-12.3z"/><path fill="#F5B5B5" d="M180.2 139.2s4.6-4.1 1.5-4.5c-3.1-.4-29.9 17.1-35.1 23-5.2 6 .7 4.1 10.8-2.7 10.1-6.8 22.8-15.8 22.8-15.8z"/><path fill="#DC6D7C" d="M132.7 193.2s-35.3 14.8-65.3-21.9l-3.1 3.1s27.2 39 68.4 18.8zM75 170.9s-11.3-2.1-13.1 13.1c0 0-3.9-20.8 13.1-13.1z"/><path fill="#DF8286" d="M56.6 92.2c11.4-22.6 10.2-27.9 5.9-28.5l1.3-2.6c.6.3 1.3.4 2 .2 1.2-.4 3.7-.5 6.9-.2 16.4 1.2 50.3 11.6 67.6 20.7 1.9 1 3.7 2 5.1 3 1.7 1.4 3.4 2.9 5 4.5 0 0-40.8-20.6-49.1-7.1-8.3 13.5-29.7 74.3-29.7 74.3s-12.4-.5-16.3 15.7c-3.9 16.2-8 37.1 5.8 42.9-29.4-11.8-42.5-22.4-48.3-30.3 1.8-3.8 32.4-70.1 43.8-92.6z"/><path fill="#F5B5B5" d="M81.6 166.7s-4.1-7.5-10.6-7.8c-6.5-.3-11.1 6.5-6.6 6.9 4.5.4 7.8-2.3 11.9 3 4 5.2 7.1 2.6 5.3-2.1zM139.7 133.8s7.9-37 7.7-40.9c-.2-4-16.6-8.7-24.6-8.4-7.9.4-15.9 44.7-16.1 47.7-.2 2.9 6.9-5.7 18.6-3.8 11.7 1.9 14.4 5.4 14.4 5.4z"/><path fill="#F1989A" d="M114.6 68.3c-6.4-6.3-14.3-11.3-23.4-14.4-32.1-10.7-66.9 6.6-77.6 38.7-6.3 18.9-2.9 38.9 7.6 54.2l-3.5 6.9c-13.4-17.4-18.1-40.9-10.6-63.3 12-35.7 50.6-55 86.3-43 14.4 4.8 26.2 14 34.2 25.6-4.1-1.6-8.5-3.2-13-4.7zM17.7 153.7l2.4-4.7c-11.6-17-15.4-39.1-8.4-60.1 6.7-20.1 21.9-35 40.3-42-20.4 6.1-37.6 21.8-44.9 43.5-7.5 22.4-2.8 45.9 10.6 63.3z"/><path fill="#DF8286" d="M7.1 90.4c5.7-17 17.4-30.2 32-38.2-3.2 2.5-10.1 6.1-17.6 15.8-8.6 11.2-14.7 25.7-15.3 41.3-.6 15.6 6.4 31.8 9.6 35.8 2.4 3 4.1 1.6 4.7.8l.6.9-3.5 6.9c-13.3-17.4-18-40.9-10.5-63.3z"/><path fill="#F5B5B5" d="M117.4 62.3s1.8 1.9.1 2.2c-1.8.4-14.5-16.2-40.5-19.7 0 0 21.3 0 40.4 17.5z"/><path fill="#67C7EE" d="M204.5 139.7s17.9-5 24.3 18.5c6.4 23.5-24 52.9-12.4 58.9 11.5 6 22.5-22.2 20.8-48.1-1.6-26-24.3-36.5-32.7-29.3zM202.1 129.8s18.5-7.3 27.9 7.7c9.4 15 14.8 33.9 9.3 57.8-5.6 24 9.7 11.4 12.4-17.4 2.8-28.8-15.5-65.7-49.6-48.1zM193.7 119.9s18.8-16.5 36.8-11.4c18 5.1 29.3 25.3 25.1 31.9-4.2 6.6-10.7-21.6-30.2-25.4-19.5-3.8-31.7 4.9-31.7 4.9z"/></g><g transform="translate(1200)"><path fill="#EBF6FC" d="M205.8 119c0 10.8 8.8 19.6 19.6 19.6s19.6-8.8 19.6-19.6-8.8-19.5-19.6-19.5c-10.9 0-19.6 8.7-19.6 19.5z"/><path fill="#DFEAF0" d="M216.5 101.6c-2.3 3.2-3.7 7.1-3.7 11.4 0 10.8 8.8 19.6 19.6 19.6 3.2 0 6.2-.8 8.8-2.1-3.5 4.9-9.3 8.2-15.9 8.2-10.8 0-19.6-8.8-19.6-19.6.1-7.7 4.4-14.3 10.8-17.5z"/><path fill="#FFE200" d="M123.2 88.2c27.5-13.8 69.3-7.6 84.5 19.1 15.3 26.7 19.7 32.4 34.3 36.9 14.6 4.5 8.9 19.7-16.5 34.3-25.4 14.6-29.2 10.2-29.2 10.2s7.6 3.2-2.5 7c-10.2 3.8-38.8 12.7-74.4-5.7-35.6-18.4-69.9-57.2-69.9-57.2s41.9-28.8 73.7-44.6z"/><path fill="#FFEB75" d="M173 100.6c5.9-3.4-8.3-7.9-25.4-5.7-37.1 4.8-68.1 20.2-86.8 34.3-18.7 14.1 56.5 2 73.7 2 17.2 0 21.4.6 24.1-7.9 4.7-14.4 10.2-20.2 14.4-22.7z"/><path fill="#EECF00" d="M161.9 127.3c0 16.4 13.3 29.6 29.6 29.6 16.4 0 29.6-13.3 29.6-29.6 0-16.4-13.3-29.6-29.6-29.6s-29.6 13.3-29.6 29.6z"/><circle fill="#fff" cx="193.9" cy="125.1" r="26.9"/><path fill="#EBF6FC" d="M181.9 101c-5.4 4.6-8.8 11.4-8.8 19 0 13.7 11.1 24.8 24.8 24.8 9.6 0 17.9-5.4 22-13.4-2.9 11.7-13.4 20.4-26 20.4-14.8 0-26.9-12-26.9-26.9 0-10.4 6.1-19.5 14.9-23.9z"/><path fill="#1A171B" d="M184.5 133.6c0 4.2 3.4 7.6 7.6 7.6 4.2 0 7.6-3.4 7.6-7.6 0-4.2-3.4-7.6-7.6-7.6-4.2 0-7.6 3.4-7.6 7.6zM222.3 125c0 2.5 2 4.5 4.5 4.5s4.5-2 4.5-4.5-2-4.5-4.5-4.5-4.5 2-4.5 4.5z"/><path fill="#73B220" d="M132.1 125.5c-.3 36.2 26.3 65.4 36.7 75.4 3.9-.2 7.5-.7 10.7-1.3-32.5-28.5-33.5-59.5-29.1-86.2 3-18.3 15.9-26.4 24.1-29.8-11.9-3.2-24.9-3.3-36.8-.6-2.8 8.5-5.4 22-5.6 42.5zm-33.4-23.9c-4.8 41.8 16.7 76.6 28 91.7 5.9 2.5 11.6 4.3 17 5.6-22.5-20.7-26.8-43.2-30.4-72.1-1.9-15.7 1.1-27.8 4.5-35.8-6.2 3.2-12.7 6.8-19.1 10.6zm-33.1 20.4c.9 13.3 5.6 26.5 10.6 36.9 5.1 4.5 10.7 9.2 16.6 13.7-16.5-31.4-15.1-50.7-12.6-59.9-5.3 3.4-10.3 6.5-14.6 9.3z"/><path fill="#009036" d="M30.3 135.6c-22.2-4-20.2-27.6-20.2-27.6 20.4-14.1 47.4 6.9 55.5 14-9.7 6.2-16.1 10.6-16.1 10.6s5.4 6.1 14.2 14.7c-13.3 28.6-53.6 16.6-53.6 16.6 1.3-20.9 20.2-28.3 20.2-28.3zM185.5 93.9s-15.9-35.6-41.9-35c0 0-41.9 15.9-71.2 43.2 0 0 4.5 3 2.5 13.8 23.5-13.3 53.9-33.1 110.6-22zM139.3 159.4c2.4 5.5 5.2 10.7 8.1 15.4-7.3.1-38.6 5.7-35.8-14.2 1.6-10.6 16.9-5.6 27.7-1.2z"/><path fill="#CFAC00" d="M198.1 189.6s-30-10.7-34.9-29.3c0 0-2.7 1.1-2.7 3.6 0-.1 8.9 19.7 37.6 25.7zM166.3 159.4s-6 0-6.4 9.8c-.1-.1-3.2-12.5 6.4-9.8z"/><path fill="#008333" d="M185.5 93.9c-56.7-11.1-87.1 8.7-110.6 22 .1-.4.1-.8.2-1.3 2-1 3.1-3.3 3.1-7.3 0-5.3 2.2-.6 8.7-1.2 6.5-.6-.3-4 1.2-8.7 1.6-4.7 8.4 4.4 11.8 1.9 3.4-2.5-1.9-8.1.3-10.9 2.2-2.8 5 4 12.4 4 7.5 0 1.2-8.1.9-14-.3-5.9 18.3 12.1 21.4 6.5 3.1-5.6-7.8-14.6-1.2-14.6 6.5 0 30.8 22.4 32 14.6 1.1-6.6-9-20.5-11.9-24.4 20 7.1 31.7 33.4 31.7 33.4zM125.4 168.7c-1.2-2.8 5.3-5 11.8-5.3 2.3-.1 3-.8 3.1-1.7 2.1 4.6 4.5 9 7.1 13h-.6c-4-2.8-20.3-3.6-21.4-6zM31.9 156.2c-1.6-5 20.5-12.7 18.3-16.8-2.2-4-14.3-.3-14.3-3.7 0-3.4 11.2-1.6 13.4-5.6 2.2-4-22.1-10.9-19.6-12.7 2.5-1.9 20.5 5.9 30.2 5.9 3 0 4.3-.9 4.7-2.1.4.3.7.6 1 .9-9.7 6.2-16.1 10.6-16.1 10.6s5.4 6.1 14.2 14.7l-.7 1.4v-.2c-.4-6.7-29.6 12.6-31.1 7.6z"/><path fill="#FFEB75" d="M245.5 157s7.1-7.6-2-10.6-17.7-8.1-20.7-10.6-2 16.6 4.5 24.7c6.6 8.1 12.2 3.6 18.2-3.5z"/><path fill="#A4C96A" d="M98.2 108.3c-.5 9.1.3 17.8 1.8 26 4.9-.5 9.7-1 14.2-1.4-.3-2-.5-4-.8-6.1-1.2-9.5-.5-17.6.9-24.4-5.7 1.8-11 3.7-16.1 5.9zm-32.2 17.3c.4 3.5 1 7 1.9 10.4 3.4.1 7.4 0 11.8-.2-1.2-7.7-1.1-13.8-.4-18.4-4.9 2.7-9.3 5.5-13.3 8.2zm68.3-28.4c-1.2 7.4-2.1 16.8-2.2 28.3 0 2 .1 3.9.2 5.8.8 0 1.6-.1 2.3-.1 6.2 0 10.7.1 14-.2.2-6 .9-11.9 1.8-17.6 1.4-8.2 4.7-14.4 8.8-19-3.5-.1-7.4 0-11.5.5-4.6.6-9 1.4-13.4 2.3z"/></g><g transform="translate(1600)"><path fill="#B47D43" d="M175.9 125s-12.4-12.6-24.4-16.2c-12-3.7-24.5-13.8-18.7-20.7 0 0-6.1-.6-8.3 8.7 0 0-13.6-6.7-4.6-17.7 0 0-24.7 3.1-28.4 21.3 0 0-19-11.5-37.2 3-18.2 14.4-21.6 39.7-16.8 48.6 0 0 14.9.2 25.4-7.2 10.4-7.4 18.8-26.7 22.2-19.5 3.4 7.3-2.2 33.7-7 41-4.7 7.3-5.4 52.1 15.4 66 0 0-.9 11 28.7 14.4 29.6 3.5 45-14.2 48.3-28.8 3.2-14.6-15.6-33.6-2.1-64.6 0 0 7.2 1 11.5 13.5 4.3 12.6 19.5 17.9 26.2 18.7 6.6.8 9.1-29.7 2.4-42.4-6.8-12.7-22.1-19.9-32.6-18.1z"/><path fill="#6A3A09" d="M91.5 100.3c2.1-10.4 11.1-15.9 18.4-18.6-.4-3-.1-6 1.2-8.8 8.2-17.5 38.6-36.9 20.7-58.1 0 0-5.5-5.3-4.1 1.6 1.5 6.9 1.3 16.9-12.7 22.6-12.2 5-45.3 25.4-30.4 58.5 4.2 1.2 6.9 2.8 6.9 2.8z"/><path fill="#7C440A" d="M91.5 100.3c1.3-6.4 5.2-10.9 9.7-14.1-.2-1.7-.5-3.4-.6-5.2-.8-13 13.3-27.8 24-37.5s9.3-22.6 6-26.5c-3.3-3.9-2.9-.6-2.9-.6 1.5 6.9 1.3 16.9-12.7 22.6-12.2 5-45.3 25.4-30.4 58.5 4.2 1.2 6.9 2.8 6.9 2.8z"/><path fill="#8B5308" d="M88.7 99c1.7.8 2.7 1.4 2.7 1.4.6-2.7 1.6-5.1 3-7.2-1.3-4-2.9-9.4-2.6-15.8.8-14.6 5.8-21.5 16.7-28.5 0 0 13.7-8.9 13.1-9.9-.4-.7-3.1 0-16.2 8-13 7.9-21 19.2-21.4 31.8-.2 8.5 1.5 16.4 4.7 20.2z"/><path fill="#A2703C" d="M185.8 139.4c-9.6-5.8-8.8-19.1-31.5-28.6-11-4.6-21.6-3.2-21.6-3.2-10-2.2-25.1-13-25.1-13s2.4 5.3 14.3 12.8c3 1.9-2.5 2-17.9-3.2 1.9 11 25 19.4 26.6 22.4 4.8 9.6 13.2 18.6 16.6 26 6 13-.7 40.3-7.6 48.5-6.8 8.1-32.9 13.6-51.4 16.5-2.3.4-4 1.1-5.1 2.2 2.7 5.2 6.1 9.6 10.6 12.6 0 0-.9 11 28.7 14.4 29.6 3.5 45-14.2 48.3-28.8 3.2-14.6-15.6-33.6-2.1-64.6 0 0 7.2 1 11.5 13.5.7 1.9 1.6 3.7 2.7 5.3 7.5 9.3 14.7 11.1 19 12.4 1.7.5 3.2.8 4.4.9 3.2-5.8 1-33.3-20.4-46.1z"/><path fill="#6A3A09" d="M145 106.2c2.1 1 4.3 1.9 6.4 2.6 12 3.7 24.4 16.2 24.4 16.2 1.3-.2 2.8-.3 4.2-.2 44.4-17 25.9-58.5 17.9-70.6-8.3-12.6-2.9-21 2.2-25.8 5.1-4.9-2.5-3.6-2.5-3.6-26.7 7.6-12.5 40.6-15.5 59.8-2.1 14.3-25.6 19.8-37.1 21.6z"/><circle fill="#A2703C" cx="108.7" cy="133.3" r="17.7"/><circle fill="#A2703C" cx="139.1" cy="140.4" r="23.5"/><path fill="#ECF4F8" d="M91 132.8c1.2 9.7 10 16.5 19.7 15.3 9.7-1.2 16.5-10 15.3-19.7-1.2-9.7-10-16.5-19.7-15.3-9.6 1.2-16.5 10-15.3 19.7z"/><path fill="#fff" d="M94.5 119.3c.1-.1.2-.2.3-.4.1-.2.3-.4.5-.5 1-1.1 2.2-2 3.5-2.8 1.9-1.1 4-1.9 6.3-2.2 8.6-1.1 16.5 4.8 17.5 13.1s-5.1 15.9-13.8 17c-8.6 1.1-16.5-4.8-17.5-13.1-.5-4.1.7-8 3.2-11.1z"/><path fill="#ECF4F8" d="M116.7 141.6c1.5 11.9 12.3 20.3 24.2 18.8 11.9-1.5 20.3-12.3 18.8-24.2-1.5-11.9-12.3-20.3-24.2-18.8-11.9 1.5-20.3 12.3-18.8 24.2z"/><path fill="#fff" d="M134.5 117.5c10.3-.7 19.5 6.7 20.8 17.1 1.3 10.7-6.3 20.5-17 21.8-10.4 1.3-19.8-5.8-21.7-15.9-.8-11.1 6.9-21 17.9-23z"/><path fill="#6A3A09" d="M129 142.2c.4 3.4 3.5 5.7 6.8 5.3 3.3-.4 5.7-3.5 5.3-6.8-.4-3.4-3.5-5.7-6.8-5.3-3.4.4-5.8 3.4-5.3 6.8zM103.1 133.8c.3 2.3 2.3 3.8 4.6 3.6 2.2-.3 3.8-2.3 3.6-4.6-.3-2.3-2.3-3.8-4.6-3.6-2.3.2-3.9 2.3-3.6 4.6z"/><path fill="#F3A69E" d="M83.6 171.6s35.8-7.2 59.9 14.1c0 0 7.6-18.5 20.3-9.4 10 7.1 3.3 19.5-4.3 23.6-7.6 4-2.6 9.7-3.8 18-1.5 10.5-13.7 29.4-48.6 20.4-34.9-9-43.1-21.9-42.4-35.6.7-13.7 6-19.6 6-19.6s-17-8.7-12.4-20c4.7-11.4 21.6-11.8 25.3 8.5z"/><path fill="#7C440A" d="M189.1 58.6c-4-17.2 2.4-25.3 6.2-30.1 1.4-1.8 1.4-2.8.9-3.3-24.5 8.4-10.9 40.5-13.9 59.2-2.3 14.4-25.8 19.9-37.3 21.7 2.1 1 4.3 1.9 6.4 2.6 2.4.7 4.9 1.9 7.2 3.1 9-.1 15.6-4.8 23-10.8 11.2-8.9 11.5-25.1 7.5-42.4z"/><path fill="#8B5308" d="M189.2 32.7s-6.3 6.2-3.2 24.7c3.1 18.5 5.3 33.8-9.6 43.6-16.1 10.6-19.4 8-17.7 5.8 2.3-3 17.5-5 23.1-15.1 5.6-10.2 4.7-17.3 2.4-29.3-2.4-11.9-.8-24.2 5-29.7z"/><path fill="#DC9790" d="M148.3 194.8s2.6 1.7 3.4 5.1c.8 3.4 1.6-.9 6.5-3.4 4.8-2.6 9.2-8 5.3-11.4-3.9-3.5-9.9 2.7-15.2 9.7zM76.1 176.7s-4-12.3-11-12.8-4.4 7.8 0 11.9c4.5 4 6.7 5.3 6.7 5.3s1.9-3.9 4.3-4.4z"/><path fill="#FBDBD5" d="M161.3 176.2s4.4 2.2 3.4 4.9c-1 2.7-5.1-2-10.1 2.2s-6.9-.7-3.4-4.9c3.6-4.2 7.4-3.4 10.1-2.2zM72.4 163.1s-3.2-3.4-8.2-2.3c-5 1.1-.8-4 3.5-4.1 4.3-.2 8.8 1.6 9.3 4.7.6 3.1-2 4.4-4.6 1.7z"/><path fill="#6A3A09" d="M137 238.6s18.5-3.4 26.9-25.4c0 0 1.7-.5 3.1 1.1 0 0-2.6-5.7-8.3-2.1 0 0 2.3-.4 2.8.4-.1 0-1.1 16-24.5 26z"/><path fill="#FBDBD5" d="M88 176.1s6.1-4.3 20.6-1.3c14.4 3 19.6 6.7 21.4 12 1.3 4-12.7 6.9-29.8 1.6-17.3-5.3-15-10.8-12.2-12.3z"/><path fill="#A2703C" d="M87.1 125.7s2.1-6.9-1.2-8.8c0 0 3.4-1.3 4.7-1 1.3.2-.5-5.1-.5-5.1l3.5-2.1s-1.2-6.1-19.2-5c-16.2 1-33.8 21.5-38.4 43.7.3 1.8.8 3.4 1.5 4.7 0 0 14.9.2 25.4-7.2 10.4-7.4 18.8-26.7 22.2-19.5.2.4.4.9.5 1.5.9-.8 1.5-1.2 1.5-1.2z"/><path fill="#DC9790" d="M174.2 137.6s21 3.9 26.1 24c5.1 20 4.9 20.9-3.1 18.1-7.9-2.7-14-12.4-16.8-19.5-2.8-7.1-10.3-11.3-10.3-11.3s2.7-7.9 7.8-5.1c0 0-2.7-4.6-5.1-2.8 0 0 2-1.6 4.3-.9l-2.9-2.5zM87.5 109.1s-18.9-8.6-35.5 11.6c-13.2 16.2-12.3 28.8-12.3 28.8s17.9-1.4 23.2-8.5c5.3-7.1 17.4-22.2 20.9-21.1 0 0-2.8-4.3-8.8.1 0 0 4.6-6.7 10-5.1 0 0-4.6-.5-6.7-2.7 0 0 4.7 1.1 6.2 0 1.6-1.1-2.4-2.3-2.4-2.3l5.4-.8z"/><path fill="#CE8E4B" d="M83.6 171.6s22.2-4.5 43.4 4.1c3.5-2 7.2-7-.7-12.4-10.6-7.2-9.7-10.3-19.5-8.7-9.8 1.5-14.8-6.6-16.8-11s-5.4 10.5-5.4 10.5-2.1 5.9-2.8 11.3c.7 1.7 1.4 3.8 1.8 6.2z"/></g><g transform="translate(2000)"><path fill="#F9C7A6" d="M216.6 137.7c-17.3-12.2-23.2-26.4-25.2-34.2-2.2-1.8-3.6-3.3-3.6-3.3s2 16.3-7.4 17.9c-9.4 1.5-7.6-10.6-7.6-10.6s-9.2 22.7-16.9 18.6c-7.7-4.1-4-18.2-4-18.2s-7.6 30-18.1 31.7c-10.4 1.6-7-9.6-7-9.6s-8.2-4-13.2 4.3c-1 1.7-1.9 2.7-2.7 3.2-4.3 7.5-6 18.4.8 25.2 11 11 24.1 5.4 24.1 5.4 8.7 44.8 50 61.3 64.9 62.1 14.8.7 18.1-4.8 19.9-12.5 1.8-7.7 8.6-4.5 8.2-10.7-.4-6.2-10.1-12.1-10.1-12.1s4.3-3.1 5.1-5.5c.8-2.4-1.8-2.4-5.7-7.4-3.9-5-3.4-12.8-3.4-12.8s17.6-4.7 23.6-11.1c5.9-6.3 3.5-2.7-21.7-20.4z"/><path fill="#CC6511" d="M212.2 82.9s17.7 8.7 16.3 14.5c-1.4 5.8-21.4 2.6-21.4 2.6s4.4 7-3 8.6c-7.3 1.6-16.4-8.3-16.4-8.3s2 16.3-7.4 17.9c-9.4 1.5-7.6-10.6-7.6-10.6s-9.2 22.7-16.9 18.6c-7.7-4.1-4-18.2-4-18.2s-7.6 30-18.1 31.7c-10.4 1.6-7-9.6-7-9.6s-8.2-4-13.2 4.3c-5.1 8.3-7 0-3-6.1 0 0-8.4 8.4-12.6 3.2-4.2-5.2 14.3-20.7 14.3-20.7s-19.3 10.6-23.2.9c-3.9-9.7 27.8-15.9 27.8-15.9s-22.7.4-19.8-11.1c2.9-11.4 34-5.7 34-5.7s-25.2-6.1-19.9-14.4c5.3-8.3 36.1 3.6 36.1 3.6s-13.7-19-5.8-25.5c7.8-6.5 26.9 11.8 26.9 11.8s-4.7-24.8 4.9-26.1c9.7-1.3 20 24.5 20 24.5s5.5-20.5 15.6-16.2c10 4.3 2.3 21 2.3 21s19.8-15.6 24.4-8.6c4.6 7-13 18.2-13 18.2s18.2-1.4 19.1 6.5c.7 7.9-29.4 9.1-29.4 9.1z"/><path fill="#E2AF8E" d="M203.1 125.5c-7.3-8.5-10.4-16.7-11.8-22-2.2-1.8-3.6-3.3-3.6-3.3s2 16.3-7.4 17.9c-9.4 1.5-7.6-10.6-7.6-10.6s-8.1 19.9-15.4 19.1c2.8 11.1 13.5 18.8 25.3 17.5 10.4-1.1 18.5-8.8 20.5-18.6zM218.6 194.9s-8.8 5.6-28.2 2.3c0 0 19 5 35.1 3.4-3-3.3-6.9-5.7-6.9-5.7zm-5.1 20.6c.1 3.9 3.9 4.6 4.8 8.4 1.1-1.8 1.7-3.9 2.3-6.2.7-3.3 2.4-4.6 4-5.5-6 0-11.2-.5-11.1 3.3zm5-53.6c-16.4 2.2-16.9-2.7-15.8-7.8 0 0-9.7 12.1 13.4 24.8-1.9-4.6-1.6-9.6-1.6-9.6s17.6-4.7 23.6-11.1c1.9-2 2.9-3 2.7-4-4.2 2.6-12 6.3-22.3 7.7z"/><path fill="#CF5E64" d="M218.6 194.9s-8.4 5.8-27.6 2.3c-14.9-2.7-25.3-10.8-29.3-18.3l2.3-2.1s4.3 11.6 23.5 17.6c16.3 5.1 31.1.5 31.1.5zM160 183.5s2.1-6.3 9.5-6.7c0 0-10.8-3.4-9.5 6.7z"/><path fill="#CC6511" d="M212.2 82.9s17.7 8.7 16.3 14.5c-1.4 5.8-21.4 2.6-21.4 2.6s4.4 7-3 8.6c-7.3 1.6-16.4-8.3-16.4-8.3s2 16.3-7.4 17.9c-9.4 1.5-7.6-10.6-7.6-10.6s-9.2 22.7-16.9 18.6c-7.7-4.1-4-18.2-4-18.2s-7.6 30-18.1 31.7c-10.4 1.6-7-9.6-7-9.6s-8.2-4-13.2 4.3c-5.1 8.3-7 0-3-6.1 0 0-8.4 8.4-12.6 3.2-4.2-5.2 14.3-20.7 14.3-20.7s-19.3 10.6-23.2.9c-3.9-9.7 27.8-15.9 27.8-15.9s-22.7.4-19.8-11.1c2.9-11.4 34-5.7 34-5.7s-25.2-6.1-19.9-14.4c5.3-8.3 36.1 3.6 36.1 3.6s-13.7-19-5.8-25.5c7.8-6.5 26.9 11.8 26.9 11.8s-4.7-24.8 4.9-26.1c9.7-1.3 20 24.5 20 24.5s5.5-20.5 15.6-16.2c10 4.3 2.3 21 2.3 21s19.8-15.6 24.4-8.6c4.6 7-13 18.2-13 18.2s18.2-1.4 19.1 6.5c.7 7.9-29.4 9.1-29.4 9.1z"/><path fill="#B65A11" d="M212.2 82.9s17.7 8.7 16.3 14.5c-1.4 5.8-21.4 2.6-21.4 2.6s4.4 7-3 8.6c-7.3 1.6-16.4-8.3-16.4-8.3s2 16.3-7.4 17.9c-9.4 1.5-7.6-10.6-7.6-10.6s-9.2 22.7-16.9 18.6c-7.7-4.1-4-18.2-4-18.2s-7.6 30-18.1 31.7c-10.4 1.6-7-9.6-7-9.6s-8.2-4-13.2 4.3c-5.1 8.3-7 0-3-6.1 0 0-8.4 8.4-12.6 3.2-4.2-5.2 14.3-20.7 14.3-20.7s-19.3 10.6-23.2.9c-3.9-9.7 27.8-15.9 27.8-15.9s-22.7.4-19.8-11.1c2.9-11.4 34-5.7 34-5.7s-25.2-6.1-19.9-14.4c5.3-8.3 36.1 3.6 36.1 3.6s-13.7-19-5.8-25.5c7.8-6.5 26.9 11.8 26.9 11.8s-4.7-24.8 4.9-26.1c9.7-1.3 20 24.5 20 24.5s5.5-20.5 15.6-16.2c10 4.3 2.3 21 2.3 21s19.8-15.6 24.4-8.6c4.6 7-13 18.2-13 18.2s18.2-1.4 19.1 6.5c.7 7.9-29.4 9.1-29.4 9.1z"/><path fill="#8F4810" d="M241.5 73.8s-2.8 7.2-29.9 6.9c0 0 2 6.6-5.8 8.7-7.8 2.1-16.2-9.6-16.2-9.6s-1.1 14-13.4 13.4c-11.6-.6-5.1-12.4-4.2-13.9-1.3 2.3-18.3 30.5-28.8 22.7-10.9-8.2 15.3-20.1 15.3-20.1s-25.1 6.9-25.4-4.4c-.2-11.3 14.3-9.3 14.3-9.3s-30.8-11.9-36.1-3.6c-5.3 8.3 19.9 14.4 19.9 14.4s-31.1-5.7-34 5.7c-2.9 11.4 19.8 11.1 19.8 11.1s-31.6 6.3-27.8 15.9c3.9 9.7 23.2-.9 23.2-.9s-18.6 15.3-14.4 20.6c4.2 5.2 12.6-3.2 12.6-3.2-4 6.1-2.1 14.4 3 6.1s13.2-4.3 13.2-4.3-3.4 11.2 7 9.6c10.4-1.6 18.1-31.7 18.1-31.7s-3.7 14.1 4 18.2 16.9-18.6 16.9-18.6-1.8 12.1 7.6 10.6 7.4-17.9 7.4-17.9 9.1 9.9 16.4 8.3c7.3-1.6 3-8.6 3-8.6s20 3.3 21.4-2.6c1.4-5.8-16.3-14.5-16.3-14.5s30-1.1 29.2-9z"/><path fill="#E2AF8E" d="M155.9 126.2c-7.7-4.1-4-18.2-4-18.2s-7.6 30-18.1 31.7c-10.4 1.6-7-9.6-7-9.6s-8.2-4-13.2 4.3c-1 1.7-1.9 2.7-2.7 3.2-1.1 2-2.1 4.3-2.8 6.6 7.1-10 13.2-2.9 13.2-2.9.6-.2 1.1-.3 1.6-.3h-.3s-5.4.3-5.1 7.6c.2 7.4 5.1 10.5 10.6 9.1 0 0-7.3-2-7.1-5.8.2-3.7 5.9-.6 5.9-.6s-2.3-3.2-5.7-3.1c0 0 2.5-4.9 5.2-4.4 1.3 3.1 2.1 6.9 9.2 2.9 11.7-6.7 14.6-19 14.6-19s.5 4.5 7.5 3.8c3.9-.4 5.6-4.9 6.3-8.6-2.7 2.9-5.5 4.7-8.1 3.3z"/><path fill="#F1F9FD" d="M199.7 95.3c-4.5.5-8.3 2.8-10.9 6.1.6.6 1.5 1.4 2.5 2.2 1.4 5.5 4.9 14.3 12.9 23.3 8.2-1.5 13.9-9 13-17.4-.9-8.8-8.7-15.2-17.5-14.2z"/><path fill="#1A171B" d="M211.5 116.8c.2 2.1-1.3 3.9-3.4 4.2-2.1.2-3.9-1.3-4.2-3.4-.2-2.1 1.3-4 3.4-4.2 2.1-.2 3.9 1.3 4.2 3.4z"/><path fill="#DAE9F1" d="M199.7 95.3c-4.5.5-8.3 2.8-10.9 6.1.6.6 1.5 1.4 2.5 2.2 1.4 5.5 4.9 14.3 12.9 23.3 4.7-.8 8.5-3.7 10.8-7.5-3 2-10.8 5.6-16.3-3.9-6.9-12 1-20.2 1-20.2z"/><circle fill="#F1F9FD" cx="180.8" cy="116.4" r="21.3"/><path fill="#DAE9F1" d="M186.4 130.4c-10.2 1.1-19.4-6.3-20.5-16.5-.8-7.4 2.9-14.3 8.9-17.9-9.7 2.8-16.3 12.3-15.2 22.7 1.3 11.7 11.7 20.1 23.4 18.9 10.4-1.1 18.2-9.6 18.9-19.6-2.2 6.5-8.1 11.6-15.5 12.4z"/><path fill="#1A171B" d="M189 121.6c.4 3.5-2.2 6.7-5.7 7.1-3.5.4-6.7-2.2-7.1-5.7-.4-3.5 2.2-6.7 5.7-7.1 3.5-.4 6.7 2.1 7.1 5.7z"/><path fill="#FACCAE" d="M141.4 142.1c-17-15-21.7-30.8-23-39.3-2.1-2.1-3.5-4-3.5-4s.3 17.6-9.9 18.2c-10.2.5-6.9-12.1-6.9-12.1s-12.4 23.1-20.1 17.9c-7.7-5.2-2.2-19.8-2.2-19.8s-11.5 31.1-22.8 31.7c-11.3.6-6.3-11-6.3-11s-8.3-5.2-14.6 3c-1.3 1.7-2.4 2.6-3.2 3-5.4 7.5-8.5 18.9-2 27 10.5 12.9 25.1 8.5 25.1 8.5 4.1 48.7 46.3 71 62 73.5 15.7 2.5 19.8-3 22.6-11 2.8-8 9.6-3.9 9.9-10.5.3-6.6-9.4-14-9.4-14s5-2.8 6.1-5.2c1.1-2.5-1.6-2.8-5.2-8.5-3.6-5.8-2.2-14-2.2-14s19.3-3 26.4-9.1c7-6.1 4-2.6-20.8-24.3z"/><path fill="#CC6511" d="M143 83.2s17.9 11.3 15.7 17.3c-2.2 6.1-23.1.3-23.1.3s3.9 8-4.1 8.8c-8 .8-16.5-10.7-16.5-10.7s.3 17.6-9.9 18.2c-10.2.5-6.9-12.1-6.9-12.1s-12.4 23.1-20.1 17.9c-7.7-5.2-2.2-19.8-2.2-19.8s-11.6 31-22.9 31.6c-11.3.6-6.3-11-6.3-11s-8.3-5.2-14.6 3c-6.3 8.3-7.4-.8-2.5-6.9 0 0-9.9 8-13.8 1.9-3.9-6.1 17.6-20.4 17.6-20.4s-21.8 9.1-24.8-1.7c-3-10.6 31.5-13.7 31.5-13.7s-24.2-2.2-19.8-14c4.4-11.8 36.9-2.2 36.9-2.2s-26.2-9.4-19.6-17.6c6.6-8.3 38 8 38 8s-12.4-21.8-3.3-27.8c9.1-6.1 27.3 15.7 27.3 15.7s-2.2-27 8.3-27.3c10.5-.3 18.4 28.4 18.4 28.4s8.3-21.2 18.4-15.4c10.2 5.8 0 22.6 0 22.6s22.9-14.3 27-6.3c4.1 8-16 17.9-16 17.9s19.6.6 19.6 9.1c0 8.4-32.3 6.2-32.3 6.2z"/><path fill="#F0B791" d="M128.5 127.6c-6.7-9.9-9.2-19-10-24.7-2.1-2.1-3.5-4-3.5-4s.3 17.6-9.9 18.2c-10.2.5-6.9-12.1-6.9-12.1s-10.9 20.3-18.6 18.6c1.8 12.2 12.2 21.6 24.9 21.6 11.2-.2 20.7-7.5 24-17.6zM137 203.2s-10 5-30.3-.7c0 0 19.7 7.5 36.9 7.6-2.7-3.9-6.6-6.9-6.6-6.9zm-7.8 21.4c-.3 4.2 3.7 5.3 4.1 9.5 1.3-1.8 2.3-4 3.1-6.3 1.2-3.4 3.1-4.6 4.9-5.4-6.3-.8-11.7-1.9-12.1 2.2zm11.5-56.6c-17.7.4-17.7-4.9-15.9-10.2 0 0-11.7 11.8 11.4 27.9-1.5-5.1-.6-10.4-.6-10.4s19.3-3 26.4-9.1c2.2-1.9 3.5-2.8 3.4-3.9-4.9 2.4-13.5 5.4-24.7 5.7z"/><path fill="#EA6A70" d="M137 203.2s-9.7 5.6-29.7-.7-31.1-23.8-34.6-32.2l2.7-2s4.5 18.7 28.4 30.8c16.5 8.3 33.2 4.1 33.2 4.1zM69.9 174.2s3-6.5 10.9-6.1c0 0-11.1-4.8-10.9 6.1z"/><path fill="#CC6511" d="M143 83.2s17.9 11.3 15.7 17.3c-2.2 6.1-23.1.3-23.1.3s3.9 8-4.1 8.8c-8 .8-16.5-10.7-16.5-10.7s.3 17.6-9.9 18.2c-10.2.5-6.9-12.1-6.9-12.1s-12.4 23.1-20.1 17.9c-7.7-5.2-2.2-19.8-2.2-19.8s-11.6 31-22.9 31.6c-11.3.6-6.3-11-6.3-11s-8.3-5.2-14.6 3c-6.3 8.3-7.4-.8-2.5-6.9 0 0-9.9 8-13.8 1.9-3.9-6.1 17.6-20.4 17.6-20.4s-21.8 9.1-24.8-1.7c-3-10.6 31.5-13.7 31.5-13.7s-24.2-2.2-19.8-14c4.4-11.8 36.9-2.2 36.9-2.2s-26.2-9.4-19.6-17.6c6.6-8.3 38 8 38 8s-12.4-21.8-3.3-27.8c9.1-6.1 27.3 15.7 27.3 15.7s-2.2-27 8.3-27.3c10.5-.3 18.4 28.4 18.4 28.4s8.3-21.2 18.4-15.4c10.2 5.8 0 22.6 0 22.6s22.9-14.3 27-6.3c4.1 8-16 17.9-16 17.9s19.6.6 19.6 9.1c0 8.4-32.3 6.2-32.3 6.2zM143 83.2s17.9 11.3 15.7 17.3c-2.2 6.1-23.1.3-23.1.3s3.9 8-4.1 8.8c-8 .8-16.5-10.7-16.5-10.7s.3 17.6-9.9 18.2c-10.2.5-6.9-12.1-6.9-12.1s-12.4 23.1-20.1 17.9c-7.7-5.2-2.2-19.8-2.2-19.8s-11.6 31-22.9 31.6c-11.3.6-6.3-11-6.3-11s-8.3-5.2-14.6 3c-6.3 8.3-7.4-.8-2.5-6.9 0 0-9.9 8-13.8 1.9-3.9-6.1 17.6-20.4 17.6-20.4s-21.8 9.1-24.8-1.7c-3-10.6 31.5-13.7 31.5-13.7s-24.2-2.2-19.8-14c4.4-11.8 36.9-2.2 36.9-2.2s-26.2-9.4-19.6-17.6c6.6-8.3 38 8 38 8s-12.4-21.8-3.3-27.8c9.1-6.1 27.3 15.7 27.3 15.7s-2.2-27 8.3-27.3c10.5-.3 18.4 28.4 18.4 28.4s8.3-21.2 18.4-15.4c10.2 5.8 0 22.6 0 22.6s22.9-14.3 27-6.3c4.1 8-16 17.9-16 17.9s19.6.6 19.6 9.1c0 8.4-32.3 6.2-32.3 6.2z"/><path fill="#AB5511" d="M175.3 76.8s-3.8 7.3-32.7 3.9c0 0 1.4 7.2-7.2 8.6-8.6 1.4-16.2-12-16.2-12s-2.8 14.8-15.8 12.7c-12.2-1.9-4-13.8-2.9-15.3-1.7 2.3-23 30.4-33.3 20.8-10.7-10 18.6-19.6 18.6-19.6s-27.5 4.5-26.5-7.6c1-12 16.3-8.3 16.3-8.3s-31.4-16.2-38-8c-6.6 8.3 19.5 17.7 19.5 17.7s-32.4-9.7-36.9 2.2c-4.4 11.8 19.8 14 19.8 14s-34.4 3.1-31.3 13.8c3 10.7 24.8 1.7 24.8 1.7s-21.5 14.3-17.7 20.3c3.9 6.1 13.8-1.9 13.8-1.9-5 6.1-3.9 15.1 2.5 6.9 6.3-8.3 14.6-3 14.6-3s-5 11.6 6.3 11c11.3-.5 22.9-31.7 22.9-31.7s-5.5 14.6 2.2 19.8c7.7 5.2 20.1-17.9 20.1-17.9s-3.3 12.7 6.9 12.1c10.2-.6 9.9-18.2 9.9-18.2s8.5 11.6 16.5 10.7c8-.8 4.1-8.8 4.1-8.8s20.9 5.8 23.1-.3c2.2-6.1-15.7-17.3-15.7-17.3s32.3 2.3 32.3-6.3z"/><path fill="#F0B791" d="M78.1 122.8c-7.7-5.2-2.2-19.8-2.2-19.8s-11.6 31.1-22.9 31.7c-11.3.6-6.3-11-6.3-11s-8.3-5.2-14.6 3c-1.3 1.7-2.4 2.6-3.2 3-1.5 2-2.7 4.3-3.7 6.8 8.7-9.9 14.4-1.6 14.4-1.6.7-.1 1.3-.1 1.8-.1h-.3s-5.7-.3-6.3 7.6c-.6 7.9 4.2 11.8 10.3 10.9 0 0-7.6-3-6.9-6.9.6-3.9 6.3 0 6.3 0s-2.1-3.6-5.7-3.9c0 0 3.2-4.9 6-4.1 1.1 3.4 1.4 7.6 9.5 4.1 13.3-5.7 17.7-18.6 17.7-18.6s0 4.9 7.5 4.9c4.2 0 6.5-4.5 7.7-8.5-3.3 2.8-6.5 4.3-9.1 2.5z"/><path fill="#fff" d="M128.3 95c-4.8 0-9.2 2-12.3 5.2.6.7 1.4 1.6 2.4 2.6.9 6 3.5 15.7 11.1 26.2 8.9-.6 15.9-8 15.9-17 0-9.4-7.7-17-17.1-17z"/><path fill="#1A171B" d="M138.4 119.2c0 2.2-1.8 4.1-4.1 4.1-2.2 0-4.1-1.8-4.1-4.1 0-2.2 1.8-4.1 4.1-4.1 2.2 0 4.1 1.9 4.1 4.1z"/><path fill="#ECF4F8" d="M128.3 95c-4.8 0-9.2 2-12.3 5.2.6.7 1.4 1.6 2.4 2.6.9 6 3.5 15.7 11.1 26.2 5.1-.4 9.5-2.9 12.4-6.7-3.5 1.7-12.2 4.8-16.9-6-6.1-13.5 3.3-21.3 3.3-21.3z"/><path fill="#fff" d="M128.5 115.3c0 12.6-10.2 22.8-22.8 22.8-12.5-.1-22.7-10.2-22.7-22.8 0-12.6 10.2-22.8 22.8-22.8 12.5 0 22.7 10.2 22.7 22.8z"/><path fill="#ECF4F8" d="M110.1 130.8c-11 0-19.9-8.9-19.9-19.9 0-8 4.7-14.8 11.5-18-10.6 1.9-18.7 11.2-18.7 22.4 0 12.6 10.2 22.8 22.8 22.8 11.2 0 20.5-8.1 22.4-18.7-3.2 6.7-10.1 11.4-18.1 11.4z"/><circle fill="#1A171B" cx="106.7" cy="121.9" r="6.9"/></g><g transform="translate(2400)"><path fill="#7B7C7E" d="M107.6 61.2s13.6-1.9 20.6 3.2c0 0 12.1-9.5 29.7.2 17.5 9.7 16 14.2 16 14.2s24.1 1.7 28 23.3c3.9 21.7-12.8 31.6-21.8 30.1-9-1.6-7.5-6.6-7.5-6.6s-3.1 9-10.3 38.7c-7.2 29.6-20.9 48.7-31 50.1-10.1 1.4-23.1-7.7-28.6-19.3-5.5-11.6-16.3-44.4-20.2-60.5-3.9-16.1-3.4-24.2-3.4-24.2s-7.1 11-17.7 7.9c-10.5-3.1-10.3-44.4 22.4-43.6.1-.1 10.7-11.1 23.8-13.5z"/><path fill="#666769" d="M194.7 88c1.8 3 2.6 6.5-.3 8.1-3.6 2.1-5.7-3.9-13.6-6-7.9-2.1-9.2 1.9-9.2 1.9-5.6 3.7-15 27.7-15 27.7s8 12.7 4.8 27.5c-1.7 7.9-20.2 36.3-16.6 45 3.6 8.8-11.2 16-11.2 16 5.4 2.6-1.2 5-5.4 6.2 1 .1 2 0 3-.1 10.1-1.4 23.8-20.5 31-50.1 7.2-29.6 10.3-38.7 10.3-38.7s-1.5 5 7.5 6.6c9.1 1.6 25.7-8.4 21.8-30.1-1-6.1-3.7-10.6-7.1-14z"/><path fill="#CDCFD0" d="M162.3 164.2c.7-3 1.4-5.8 2.1-8.4.3-3.5.2-10.3-5.6-10.2-7.6.2-15.3 35.2-25.9 41.2-10.6 6-16.6-.1-22.8-9.4-6.2-9.3-14.9-28.2-19.4-26.2-2.1.9-1.6 4.9-.1 11.1 4.3 13.1 9 26.2 12.1 32.7 5.5 11.6 18.5 20.8 28.6 19.3 10-1.4 23.7-20.4 31-50.1z"/><path fill="#DBDCDD" d="M126.4 209.3c2.4-10.5 1.1-15.3-3.5-17.7-1.1-.5-1.9-1.9-2.5-3.6-3.8-1.8-7-5.8-10.3-10.6-6-8.8-14.1-26.5-18.8-26.3-.6 3.1.8 10.7 3.2 17.9 3 9.1 10.7 29.8 18 36 7.3 6.2 14.8 7.5 15.1 6.1.4-1.5-1.2-1.8-1.2-1.8z"/><path fill="#C0C1C2" d="M163.4 159.6c.3-1.3.6-2.6.9-3.8.2-2.7.2-7.3-2.4-9.3-.1.1-3 17.2-10.6 37.1-8.9 19.5-17.6 24.7-17.6 24.7 5.4 2.6-1.2 5-5.4 6.2h1.4c.5 0 1 0 1.6-.1 10.1-1.4 23.8-20.5 31-50.1.3-1.4.7-2.7 1-4 0-.3.1-.5.1-.7z"/><circle fill="#4E4E50" cx="105.8" cy="99.8" r="20.4"/><path fill="#4E4E50" d="M170.2 97.7c0 15-12.2 27.2-27.2 27.2s-27.2-12.2-27.2-27.2 12.2-27.2 27.2-27.2 27.2 12.2 27.2 27.2z"/><path fill="#1A171B" d="M129.3 205.9c-.8-4 .2-9.4.4-9.4 7.3-.2 13.1-17.5 10.6-18.3-2.5-.8-5 4.6-13.1 4.8-8.1.2-10.8-1.9-13.7-2.9-2.9-1-.2 4-.2 4 1.7 3.7 6.8 10.5 12.5 12.6.2 1.1 1.3 3.9.9 9.5-.2 2.9-9-2.5-9-2.5s2.3 5.6 10.8 5.6 10.4-5.8 10.4-5.8-8.8 6.8-9.6 2.4zM157.4 64.4c10.9 5.9 14.5 9.9 15.6 12.1 14.6-51.5 82-73 82-73-70.9-7.4-102 43.1-109.1 57 3.5.4 7.4 1.6 11.5 3.9zM85.8 72.7c3.8-3.4 11.9-9.6 21.3-11.4 0 0 3.1-.5 7.2-.4-6.6-12.9-37.5-64.9-109.4-57.4 0 0 64.2 20.5 80.9 69.2z"/><path fill="#4E4E50" d="M78.9 107.5s1-12.5 3.5-16.9c2.5-4.4-1.3-4.5-5.2-2-3.9 2.5-14.5 14-11 20.9 3.6 6.9 10.5 1.6 12.7-2zM171.7 92s5.5 4.9 3.5 14.4c-2 9.4-2.1 15.5-2.1 15.5s1.6 5.9 8.2 3.9c6.6-2 13.7-19.4 6.9-27.8-6.8-8.2-16.5-6-16.5-6z"/><path fill="#EFF8FD" d="M123.9 96.8c0 10.8-8.8 19.6-19.6 19.6s-19.6-8.8-19.6-19.6 8.8-19.6 19.6-19.6 19.6 8.8 19.6 19.6z"/><path fill="#D4E7F0" d="M108.8 77.8c5.6 3.2 9.5 9.3 9.5 16.2 0 10.3-8.3 18.6-18.6 18.6-3.7 0-7.1-1.1-9.9-2.9 3.6 4.1 8.8 6.6 14.7 6.6 10.8 0 19.6-8.8 19.6-19.6-.2-9.2-6.7-16.9-15.3-18.9z"/><circle fill="#1A171B" cx="106.1" cy="102.6" r="4.3"/><circle fill="#fff" cx="141.6" cy="95.8" r="25.3"/><path fill="#EFF8FD" d="M142.3 70.6c10 2.4 17.4 11.4 17.4 22.1 0 12.6-10.2 22.7-22.7 22.7-7.7 0-14.6-3.9-18.7-9.8 3.8 9.1 12.8 15.4 23.3 15.4 14 0 25.3-11.3 25.3-25.3-.1-13.6-11-24.7-24.6-25.1z"/><circle fill="#1A171B" cx="140.1" cy="102.9" r="7.5"/><path fill="#7B7C7E" d="M142.4 207.1c-3.9 4.3-7.7 6.8-11.1 7.3-5.5.8-11.9-1.6-17.4-5.8-2.1 4.6-3.6 15.4.9 25.6 5.8 13.3 17.5 9.7 10.8 22.7 0 0 11.7 3.1 16.8-8.3 5-11.1-8.6-22.6 0-41.5z"/><path fill="#434345" d="M117.3 185.4s-3.5-1.8-1.8-2.9c1.7-1.1 3.9 2.5 14.2 1.2 0 0 3.6-.2 6.7-2.5s.4 1.3-1.5 2.4c-2 1.1-8.7 4.8-17.6 1.8z"/><path fill="#666769" d="M142.4 207.1c-3.9 4.3-7.7 6.8-11.1 7.3-5.5.8-11.9-1.6-17.4-5.8-.5 1.1-.9 2.4-1.3 4.1 1.6-.8 4.6-1.2 6.3 4.2 2.4 7.7-1.2 15.4 5.5 24.3 0 0-4.3-19.1.2-21.1s1.2 7.1 4.3 16c3 8.9 3.4 12.4 3 13.6 0 0 2.8-4.9 1.4-10.3-1.4-5.5-3.6-13.6-.6-14.4 3-.8 4.9 5.1 6.5 13.2 1.6 8.1-.1 17.7-13.6 18.8 0 0 11.7 3.1 16.8-8.3 5-11.2-8.6-22.7 0-41.6z"/><path fill="#969799" d="M78.5 77.1s-9.9.1-15.4 9.3c-5.5 9.1 1.9 9.5 5 5 4.2-5.9 5.5-7.8 11.9-8.2 6.4-.5 3.2-6.3-1.5-6.1zM124.7 64.3s-13.1-4.3-23.5.7c-10.4 4.9-14 9.5-13.6 12.8.4 3.3 13.1-5.8 21.3-3 8.2 2.8 11.3 1.1 17.6-2.6 6.3-3.7 10.6-7.4 18.7-6.3 8.1 1.1 3.3-4.9-3.6-4.3-6.9.7-11.8 3.7-12.8 4.5-2.1-.9-4.1-1.8-4.1-1.8z"/><path fill="#666769" d="M113.1 179.8s.2.2.6.4c2.8 1.1 5.6 3 13.4 2.8 6.5-.2 9.4-3.7 11.6-4.7-.4-3.4-4.4-38 4.2-53.5-9.1 0-17.2-4.5-22.1-11.4-3.7 4.1-9.1 6.7-15.1 6.7-1 0-2-.1-3-.2 1.8 5.7 11.8 42 10.4 59.9z"/><path fill="#3E3D40" d="M153.1 53.8s-2.1 4.3 3.6 6.3c5 1.7 8.3-.8 11.7-3.7 3.5-2.9 18.6-29.8 42.7-42 15.2-7.7 23.6-8.3 20.1-8.9-3.5-.6-32.1 3.8-50 17.8-17.8 14-24.9 23.8-28.1 30.5zM82.6 60.6s2.1 4.6 6.1 4.3c4-.3 8.2-6.4.9-15.8-7.3-9.4-28-27.4-58.7-36.2 0 0 36.8 18.3 51.7 47.7z"/></g><g transform="translate(2800)"><path fill="#FBDC9A" d="M102.7 222.5s-.8 15.6 7.8 18.7c8.6 3.1 34.3 4.2 38.1-2.9 3.9-7 3.9-14.3 3.9-14.3l-49.8-1.5z"/><path fill="#F8C550" d="M167.1 216.7c2.4-3.1 5.3-7.4 8.6-13.5 12.1-22.3-4.4-79.7-3.3-91.7 1.1-12 12-9.8 18.6-16.4 6.5-6.5-10.4-18.6-19.6-12.5-9.3 6-3.8 12.5-9.3 13.1-5.1.5-12-5.6-13-6.4 1 .9 7.9 7.6-1.8 8.6-10.3 1.1-16.3-9.9-16.3-9.9s5.5 12.5-3.3 12.5c-8.7 0-8.7-7.1-8.7-7.1s-1.1 7.6-10.9 7.1-4.9-8.2-4.9-8.2c-2-4.5-13.5-10.4-24.4-3.5-10.9 6.9-4.5 22.4 3.1 20.9s8.7 1.6 8.7 1.6l4 15.1c4 15.1 1.8 40-2.9 58.9s1.4 25.8 1.4 25.8 4.4 12.3 16.6 15.4c9.4 2.4 16-.9 16-.9s2.7 2.6 13.7 2.2c11.1-.4 12.3-1.3 17.8-3.4 2.4-.7 6.2-3.8 9.9-7.7z"/><path fill="#F3AB4D" d="M187.8 90.6c-8-5.5-10.2-2.2-15.3 2.9-5.1 5.1-6.5 29.1-10.5 18.9-4-10.2-12.4-6.9-13.8-7.6-1.5-.7-4 4.4-10.2 4.4-6.2 0-20.7-4-20.7-4s-5.1 3.6-13.8-.7c-5.8-2.9-3.3-9.2-.9-13.2l-.5-.6c-22 25.3 41.1 46.9 41.1 46.9s17.8-4.7 22.9 19.3c5.1 24-5.1 31.3-5.1 31.3l14.9 3.6s2.2-1.4 4.1-4.8c2.2-26.5-8.3-65.7-7.4-75.3 1-11.5 11.1-10 17.7-15.6.3-2.1-.3-4-2.5-5.5z"/><path fill="#FBDC9A" d="M180.2 182.1l-.2-.6c-5.6-17.8-28.1 7.3-28.1 7.3-7.3 8.4-37.8 11.3-42 9.8-6.4-2.1-5.6-11.7-13.4-14.5-1.9-.7-3.6.3-5 2.3-4.3 18.3 1.6 25 1.6 25s4.4 12.3 16.6 15.4c9.4 2.4 16-.9 16-.9s2.7 2.6 13.7 2.2c10.1-.3 12-1.1 16.5-2.9 1.8-.9 3.6-1.9 5.3-3 1.8-1.4 3.9-3.3 5.9-5.5 2.4-3.1 5.3-7.4 8.6-13.5 3-5.4 4.2-12.8 4.5-21.1z"/><path fill="#E7CA8F" d="M180.2 182.1l-.2-.6c-2.3-7.3-7.4-7.4-12.7-5-.3.4-.5.7-.5.7s.3 30.7-18.8 40.8c-19.1 10.1-23.5 3.3-23.5 3.3s-15.5 6.9-28.6-4.8l-.1-.1c2.5 3.8 6.9 8.5 13.9 10.3 9.4 2.4 16-.9 16-.9s2.7 2.6 13.7 2.2c10.1-.3 12-1.1 16.5-2.9 1.8-.9 3.6-1.9 5.3-3 1.8-1.4 3.9-3.3 5.9-5.5 2.4-3.1 5.3-7.4 8.6-13.5 3-5.3 4.2-12.7 4.5-21z"/><path fill="#F2D495" d="M139.4 228.1c-11.1.4-13.7-2.2-13.7-2.2s-6.6 3.3-16 .9c-2.7-.7-5-1.8-7-3.2 0 3.5.6 15 7.8 17.6 8.6 3.1 34.3 4.2 38.1-2.9 2.5-4.5 3.4-9.1 3.7-11.8-2.7.9-5.7 1.3-12.9 1.6z"/><path fill="#F09C2C" d="M143.8 133.5s-.7 23.3 6.5 53.1c0 0-30.4-11.5-50.1 1.5 0 0 17.3-28.4 11.9-47.7-5.4-19.3 21.5-19.3 31.7-6.9zM163.9 124.3c-2.7 9.2-12.3 14.5-21.5 11.9-9.2-2.7-14.5-12.3-11.9-21.5 2.7-9.2 12.3-14.5 21.5-11.9 9.3 2.7 14.6 12.3 11.9 21.5zM139.9 128.6c-3.3 11.4-15.2 18-26.7 14.7-11.4-3.3-18-15.2-14.7-26.7 3.3-11.4 15.2-18 26.7-14.7 11.4 3.3 18 15.3 14.7 26.7z"/><path fill="#ECF4F8" d="M130.1 122.5c2.5 8.6 11.5 13.6 20.1 11.1 8.6-2.5 13.6-11.5 11.1-20.1-2.5-8.6-11.5-13.6-20.1-11.1-8.6 2.5-13.6 11.5-11.1 20.1z"/><path fill="#fff" d="M131.3 109.9l.2-.4c.1-.2.2-.4.3-.5.8-1.1 1.7-2.1 2.7-3 1.5-1.3 3.4-2.3 5.4-2.9 7.7-2.2 15.6 2 17.8 9.3 2.1 7.4-2.4 15.1-10.1 17.4-7.7 2.2-15.6-2-17.8-9.3-.8-3.8-.3-7.5 1.5-10.6z"/><path fill="#ECF4F8" d="M98.5 126.8c3 10.6 14.1 16.6 24.6 13.6 10.6-3 16.6-14.1 13.6-24.6-3-10.6-14.1-16.6-24.6-13.6-10.5 3-16.6 14.1-13.6 24.6z"/><path fill="#fff" d="M111.2 102.5c9.2-2.1 18.6 3.3 21.3 12.5 2.7 9.5-2.7 19.5-12.3 22.2-9.2 2.7-18.8-2.4-21.9-11.4-2.4-9.9 3.2-20 12.9-23.3z"/><path fill="#6A3A09" d="M126.8 129.4c-.9 3.2-4.2 5-7.4 4.1-3.2-.9-5-4.2-4.1-7.4.9-3.2 4.2-5 7.4-4.1 3.2.9 5 4.3 4.1 7.4zM151.5 126c-.7 2.3-3 3.6-5.3 2.9-2.3-.7-3.6-3-2.9-5.3.6-2.3 3-3.6 5.3-2.9 2.3.7 3.6 3.1 2.9 5.3z"/><path fill="#EC7007" d="M103.2 92.4s-4.9 7.6 4.9 8.2c9.8.5 10.9-7.1 10.9-7.1s0 7.1 8.7 7.1 3.3-12.5 3.3-12.5 6 10.9 16.4 9.8c10.4-1.1 1.6-8.7 1.6-8.7s7.6 7.1 13.1 6.5c5.5-.5 0-7.1 9.3-13.1s26.2 6 19.6 12.5c-6.5 6.5-17.5 4.4-18.6 16.4-1.1 12 15.1 69.2 3.3 91.7-8 15.2-16.2 20.5-18.6 21.5 0 0 2.3 11.4 11 9.8 8.7-1.6 3.4-10.4 3.4-10.4s8.2 10.1 14.2 7c5.9-3.2-.6-9.9-.6-9.9s9.4 9.4 14 6.1c4.5-3.3-1-9.8-1-9.8s14 9.6 19.7 3.2c5.7-6.4-6.1-15.6-6.1-15.6s11.4 6.3 16.1 1.7c4.7-4.7-10.5-22.5-10.5-22.5s15.6 3.5 20-2.3c4.3-5.8-14.4-21.4-14.4-21.4s18.5 2.4 22.4-6.9c3.9-9.3-17.3-23.4-17.3-23.4s14.1-.1 14.7-8.4c.6-8.2-18.4-11-18.4-11s10.8-3.5 10.4-8.9c-.4-5.4-12.8-8.3-12.8-8.3s14.2-4.9 10.9-14.6c-3.3-9.7-20.7-8.2-20.7-8.2s15.4-5.7 12.7-11.4c-2.7-5.7-30.7-4.2-30.7-4.2s11.8-17.3 5.3-21.7c-6.6-4.3-26 5.9-26 5.9s19.1-23.8 2.4-20.7c-16.7 3.1-24.6 18.9-24.6 18.9s3.1-20-4.8-19.2c-7.8.7-9.8 24.3-9.8 24.3s1.2-19.6-3.7-20c-4.9-.4-6.3 13-6.3 13s-3.4-22-13.1-19-2.9 20.5-2.9 20.5-13.3-17.8-19.4-14.6c-6 3.3-.1 21-.1 21s-24.2-7.4-26.5-1.5c-2.3 5.9 9 12.4 9 12.4s-22.1-5.6-24.8 4.1c-2.8 9.8 7.6 12.3 7.6 12.3s-18.6-2-19.8 1.5c-1.2 3.5 14.2 17.5 14.2 17.5s-25.1-3.9-26.8 5.8c-1.7 9.7 18.6 15.4 18.6 15.4s-21-1.5-22 6.2 14.6 13.3 14.6 13.3-23 6.7-20.8 13.7c2.2 7.1 23.4 4.5 23.4 4.5s-17.4 9.4-12.7 16.9c4.8 7.5 20.1 3.8 20.1 3.8s-17.9 13.5-12.8 21c5.1 7.5 20.3-.4 20.3-.4s-13.4 10.7-8.6 15c4.9 4.3 14.9-4.9 14.9-4.9s-11.8 20.4-4.5 22.9c7.3 2.5 20.8-14.8 20.8-14.8s-8.1 17.3-.2 19.8c7.9 2.4 18.1-17.1 18.1-17.1s-6.1-6.9-1.4-25.8c4.7-18.9 6.9-43.8 2.9-58.9l-4-15.1s-1.1-3.1-8.7-1.6-14-14-3.1-20.9c10.9-6.8 22.3-.9 24.3 3.6z"/><path fill="#1A171B" d="M104.1 199s-7.8-5.8-3.9-10.8c3.9-5.1 20.5-8.8 37.8-6.9 17.3 1.8 15.9 10.8 9.7 16.6 0 0-2.5-3.7-6.7-1.8-4.2 1.8-.5 6.7-.5 6.7s-13.1 10.1-15.7 11.1c0 0-2.5 10.1 5.5 12.9 8.1 2.8 18.7.2 18.7.2s-14.5 3.7-23.5 0c0 0-9.5 2.8-16.8-.5 0 0 7.8 2.5 14.1-1.6 0 0-1.6-5.3-1.4-11.3l-11.8-9s2.8-2.5.2-5.1c-2.4-2.6-5.7-.5-5.7-.5z"/><path fill="#5A5B5D" d="M118.8 183.8s17-2.2 25.6.9c8.5 3.1-9.4 4-19.3 4.5-9.9.4-13.9-4.1-6.3-5.4z"/><path fill="#D98E2A" d="M169.6 99.5s3.2-13.6 12.1-11.2c8.9 2.2-12.4 20.7-12.1 11.2zM93.7 100.3s-13.3-7.8-16.4-2.3c-3.2 5.5 2.9 6.1 7.5 6.1s12.1.8 8.9-3.8z"/><path fill="#DE5726" d="M227.9 130.3s14.1-.1 14.7-8.4c.6-8.2-18.4-11-18.4-11s10.8-3.5 10.4-8.9c-.4-5.4-12.8-8.3-12.8-8.3s14.2-4.9 10.9-14.6c-3.3-9.7-20.7-8.2-20.7-8.2s15.4-5.7 12.7-11.4c-2.7-5.7-30.7-4.2-30.7-4.2s11.8-17.3 5.3-21.7c-6-4-22.8 4.3-25.6 5.7l-2.3 2.8s15.6-.3 14.6 10.5-19.4 10.8-19.4 10.8 15.9 7.3 8.6 11.1c-7.3 3.8-27.4-7-27.4-7s9.2 11.5 1.3 13.4c-8 1.9-17.2-11.5-17.2-11.5s8 15.3-4.5 15.3c-8 0-9.6-5.1-9.6-5.1s.3 7.6-6.4 7.6-10.2-6.7-10.2-6.7 1.9 6.4-6.4 4.5c-8.3-1.9-16.6-1-16.6-1s4.5 1.6-1.6 6c-4 2.9-7.5 1.2-9.5-.4 2.2 2.3 5.7 6.5 2.5 8.3-4.5 2.5-8 2.2-8 2.2s18.2 6 11.5 11.8c-6.7 5.7-5.1 5.4-5.1 5.4s19.6 2.7 17.7 10.7c-1.8 7.4-13.2 2.1-14.8 1.4 2 1 19.9 10.1 15.1 15.2-5.1 5.4-11.8 2.9-11.8 2.9s14 7 10.8 16.9c-3 9.2-9.6 7.9-10.4 7.7.9.3 12.3 3.4 10.7 9.5-1.6 6.4-4.5 7.6-4.5 7.6s5.7-.5 9.4 3.3c.3-2.1.7-4.4 1.3-6.9 4.7-18.9 6.9-43.8 2.9-58.9l-4-15.1s-1.1-3.1-8.7-1.6-14-14-3.1-20.9c10.9-6.9 22.4-1.1 24.4 3.5 0 0-4.9 7.6 4.9 8.2 9.8.5 10.9-7.1 10.9-7.1s0 7.1 8.7 7.1 3.3-12.5 3.3-12.5 6 10.9 16.4 9.8c9.7-1 2.7-7.7 1.7-8.6.9.8 7.9 7 13 6.4 5.5-.5 0-7.1 9.3-13.1s26.2 6 19.6 12.5c-6.5 6.5-17.5 4.4-18.6 16.4-1.1 12 15.1 69.2 3.3 91.7-8 15.2-16.2 20.5-18.6 21.5 0 0 2.3 11.4 11 9.8 8.7-1.6 3.4-10.4 3.4-10.4s8.2 10.1 14.2 7c5.9-3.2-.6-9.9-.6-9.9s9.4 9.4 14 6.1c4.5-3.3-1-9.8-1-9.8s14 9.6 19.7 3.2c5.7-6.4-6.1-15.6-6.1-15.6s11.4 6.3 16.1 1.7c4.7-4.7-10.5-22.5-10.5-22.5s15.6 3.5 20-2.3c4.3-5.8-14.4-21.4-14.4-21.4s18.5 2.4 22.4-6.9c4.1-9.6-17.2-23.6-17.2-23.6zm-160.6-40.6c-.9-.9-1.6-1.5-1.6-1.5s.6.7 1.6 1.5z"/><path fill="#FBDA95" d="M98.2 90.6s-6.4-4.8-13.3-2.5-1.4 3.2 4.3 6c5.6 2.8 13.6.2 9-3.5zM169.6 85.1s-4.6 4.3-2.8 6.6c1.8 2.3 5.3-6.2 10.1-6.2s7.4-1.4 3.4-3c-4.1-1.7-8.4.8-10.7 2.6z"/><path fill="#F3A949" d="M114.7 144.8s-.5 20.2-7.1 31.1c-6.5 10.9 8.7 2.7 15.8 2.7 7.1 0 14.2.5 11.5-10.9-2.7-11.5-4.4-25.6-4.4-25.6s-3.8 2.7-15.8 2.7z"/><path fill="#E7CA8F" d="M139.4 228.1c-11.1.4-13.7-2.2-13.7-2.2s-6.6 3.3-16 .9c-2.7-.7-5-1.8-7-3.2v1.7c1.8 2.1 8.3 8 21.2 6.8 15.5-1.5 18.2 6.9 13.1 10.7l-.5.4c5.8-.6 10.6-2.1 12.1-4.9 2.5-4.5 3.4-9.1 3.7-11.8-2.7.9-5.7 1.3-12.9 1.6z"/><path fill="#D3BA84" d="M139.4 228.1c-11.1.4-13.7-2.2-13.7-2.2s-6.6 3.3-16 .9c-2.7-.7-5-1.8-7-3.2v1.2c1.7 1.7 5.2 4.3 11.3 5 9.7 1.2 13.3-.3 13.3-.3s12.5.3 14.8 4c2.2 3.7.2 6.9-.3 7.5-.6.6 3.7-.1 5.8-4.6 1.7-3.6 2.2-7.7 2.3-9.2-2.3.4-5.3.7-10.5.9zM99 208.2c0 .7-.6 1.3-1.3 1.3-.7 0-1.3-.6-1.3-1.3 0-.7.6-1.3 1.3-1.3.8.1 1.3.6 1.3 1.3zM107.6 209.2c0 .7-.6 1.3-1.3 1.3-.7 0-1.3-.6-1.3-1.3 0-.7.6-1.3 1.3-1.3.7 0 1.3.5 1.3 1.3zM102.9 201.9c0 .7-.6 1.3-1.3 1.3-.7 0-1.3-.6-1.3-1.3 0-.7.6-1.3 1.3-1.3.7 0 1.3.6 1.3 1.3z"/><circle fill="#D3BA84" cx="145.2" cy="207" r="1.3"/><path fill="#D3BA84" d="M156 212.8c0 .7-.6 1.3-1.3 1.3-.7 0-1.3-.6-1.3-1.3 0-.7.6-1.3 1.3-1.3.7 0 1.3.6 1.3 1.3zM164 203c0 .7-.6 1.3-1.3 1.3-.7 0-1.3-.6-1.3-1.3 0-.7.6-1.3 1.3-1.3.7 0 1.3.6 1.3 1.3z"/><circle fill="#D3BA84" cx="153.2" cy="202.8" r="1.3"/><path fill="#D3BA84" d="M162.5 207.9c0 .7-.6 1.3-1.3 1.3-.7 0-1.3-.6-1.3-1.3s.6-1.3 1.3-1.3c.7 0 1.3.6 1.3 1.3zM139.2 218.4c0 .7-.6 1.3-1.3 1.3-.7 0-1.3-.6-1.3-1.3 0-.7.6-1.3 1.3-1.3.8 0 1.3.6 1.3 1.3z"/><circle fill="#D3BA84" cx="107.8" cy="217.3" r="1.3"/><circle fill="#D3BA84" cx="137.9" cy="209.5" r="1.3"/><path fill="#D3BA84" d="M148.7 218.8c0 .7-.6 1.3-1.3 1.3-.7 0-1.3-.6-1.3-1.3 0-.7.6-1.3 1.3-1.3.7 0 1.3.6 1.3 1.3zM115.6 215.9c0 .7-.6 1.3-1.3 1.3-.7 0-1.3-.6-1.3-1.3 0-.7.6-1.3 1.3-1.3.7 0 1.3.6 1.3 1.3z"/><circle fill="#D3BA84" cx="144.9" cy="214.1" r="1.3"/></g><g transform="translate(3200)"><path fill="#A74C58" d="M110.2 36.7s-38.4 2.2-53.6 21.7c-15.2 19.5 6.5 44.9 6.5 44.9s75.4-14.5 47.1-66.6z"/><path fill="#F7FCFE" d="M66.8 109c0 9.2-7.4 16.6-16.6 16.6-9.2 0-16.6-7.4-16.6-16.6 0-9.2 7.4-16.6 16.6-16.6 9.2 0 16.6 7.4 16.6 16.6z"/><path fill="#ECF4F8" d="M53.2 92.7c3.9 2.9 6.4 7.5 6.4 12.7 0 8.8-7.1 15.9-15.9 15.9-2 0-3.9-.4-5.7-1.1 3 3.3 7.4 5.4 12.3 5.4 9.2 0 16.6-7.4 16.6-16.6-.1-8.2-5.9-14.9-13.7-16.3z"/><path fill="#FACCAE" d="M70.4 79.1s-10.4 11-11.9 30-12.2 34.7-22.9 40.7c0 0-2.1 1.5 3 5.3 5 3.9 16 6.2 15.7 9.2-.3 3-7.4 51.9 3.6 57.3 11 5.3 28.8-18.1 44.2-25.2 15.4-7.1 31.8-7.7 31.8-7.7s70.7-26.1 60-77.5c-10.7-51.4-91.8-67.4-123.5-32.1z"/><path fill="#EBB38E" d="M72.1 77.3c4.1 6.5 26 42.7 17.4 49.5-9.5 7.5-24 8-31-8 0 0 3.5 15.6 18 16.6 14.5 1 22-3.1 28-9.1s17.5 16 18 33.5c.3 10.2-4.1 23-7.9 32 10.7-2.9 19.3-3.2 19.3-3.2s70.7-26.1 60-77.5c-10.5-50.4-88.9-66.7-121.8-33.8z"/><path fill="#C1CCE4" d="M36.5 99.6c2.4 3.2 8.5 8.4 20.4 4.2 0 0 3.3 3.3 9.8 6v-.8c0-9.2-7.4-16.6-16.6-16.6-5.6 0-10.6 2.8-13.6 7.2z"/><circle fill="#6A3A09" cx="50.2" cy="118.8" r="3.4"/><path fill="#AEBDDB" d="M61.5 96.8c-3-2.7-6.9-4.4-11.2-4.4-1 0-1.9.1-2.8.3 2.3 1.5 8.2 6.1 3 11.7l6.3-.5h.1l1.2-.1c.1-.1-.2-3 3.4-7z"/><path fill="#fff" d="M99.6 111c0 12-9.7 21.8-21.8 21.8-12 0-21.7-9.7-21.7-21.8 0-12 9.7-21.8 21.7-21.8 12.1.1 21.8 9.8 21.8 21.8z"/><path fill="#ECF4F8" d="M78.7 89.3c7.1 3.6 12 10.9 12 19.4 0 12-9.7 21.8-21.8 21.8h-.8c2.9 1.5 6.2 2.3 9.7 2.3 12 0 21.8-9.7 21.8-21.8 0-11.7-9.3-21.2-20.9-21.7z"/><path fill="#C1CCE4" d="M99.6 110.8c-.1-11.9-9.8-21.5-21.7-21.5-9.6 0-17.7 6.2-20.6 14.8 2.2 2 16.3 13.6 42.3 6.7z"/><path fill="#6A3A09" d="M85.6 123.9c0 2.8-2.3 5.1-5.1 5.1s-5.1-2.3-5.1-5.1 2.3-5.1 5.1-5.1c2.8-.1 5.1 2.2 5.1 5.1z"/><path fill="#AEBDDB" d="M99.5 109.7c-.7-11.4-10.1-20.4-21.7-20.4-2.3 0-4.6.4-6.7 1.1 6.2-1.6 12.2 1.8 14.9 8.6 3.6 8.9-.3 14-.3 14s7.3-1.3 13.8-3.3z"/><path fill="#6A3A09" d="M35.2 97.5s5.3 12.1 21.8 6.3c0 0 18.9 19.4 56.6 1.9 0 0-30 10.6-55.2-3.9 0 0-10.1 3.6-17.3-.6-7.1-4.2-6.8-7.7-6.8-7.7s-.2 1.9.9 4z"/><path fill="#D7515E" d="M94.9 178.2s-7.1 8.3-16.2 6.8c-9.1-1.5-13.3-11.8-17.7-15-4.4-3.2-8.5 2.9-8.5 2.9s-2.1-1.5-5.6-1.5c-3.5 0-4.7 6.8.6 15.6 0 0 2.1 2.1 3.5 2.1l4.4 2.4c1.5 0 1.8-2.9 5.6-2.7 3.8.3 14.7 2.9 23.6-1.2 8.8-4.1 11.2-8.3 11.2-8.3s1.8 0 1.5 2.4c0 0 2.9-5.3-4.4-8-.1 0 2.9 3 2 4.5z"/><path fill="#EA6A70" d="M61 188.8c-3.8-.3-4.1 2.7-5.6 2.7l-4.4-2.4c-1.1 0-2.6-1.2-3.2-1.8-2.2 2.8-3.9 8.6-2.9 15.3 1.2 8.8 7.4 10.9 14.7 7.1 6.4-3.3 18.3-17.3 21.2-20.7-8 2-16.5 0-19.8-.2z"/><path fill="#EBB38E" d="M59.5 209.7c-2.4 1.3-4.7 1.9-6.7 1.8l.2 1c1.4 1.9 3.7 2.1 6.5 1.1 4.3-1.7 15.3-17.5 15.3-17.5s-.2 0-.4.1c-4.7 5.2-10.8 11.4-14.9 13.5z"/><path fill="#ED7E80" d="M52.3 201.7s-1.5-12.5-4.7-10.4c-3.2 2.1-1.8 15 .3 16.6 2.1 1.6 5.1-.9 4.4-6.2zM63.9 193.1s-6.9 1.3-9 8c-2.1 6.7-.2 8.6 3.8 6.8 4-1.8 10.9-10.2 9.9-12.6-1-2.3-4.7-2.2-4.7-2.2z"/><path fill="#F29EA1" d="M46.8 195.9s-.7 4.6.7 6.6c1.3 2 .9-9.8-.7-6.6z"/><path fill="#F29E9B" d="M60.4 171.9s-2.6-.7-4 1.9c-1.4 2.5-3.5.9-2.7-1.2.8-2.2 6.2-4.5 6.7-.7zM50.4 173.3s-2.8-2.1-4.9-.1c-2 2-.3 8.7.7 9.1 1 .5-1.4-6.7.7-7.4 2.1-.6 5.2.2 3.5-1.6z"/><path fill="#C25965" d="M137 36.7s-50-8-64.4 21.7c-14.5 29.7 16.7 34.7 46.3 76.7 29.7 42-2.9 83.3-2.9 83.3s14.5-8.7 21.7-18.8c0 0-6.5 16.6-15.2 24.6 0 0 66.6 6.5 97-64.4 30.5-71-49.2-123.1-82.5-123.1z"/><path fill="#EBB38E" d="M64.4 162.3c4.9-3 2.6-8 2.6-8 0 3-4.7 2.6-4.7 2.6-12.2.2-25.7-5.5-27.1-6.1 0 .8.7 2.2 3.4 4.3 5 3.9 16 6.2 15.7 9.2 0 .5-.3 2.2-.6 4.8 2-3.3 6.3-4.1 10.7-6.8z"/><path fill="#CB9B7D" d="M51.7 157.9s9.9.7 8.6 3.2c-1.4 2.5-8.6-3.2-8.6-3.2z"/><path fill="#D4898D" d="M117.5 38.8s-35.5-.7-42 23.2 47.8 45.6 60.1 90.5c0 0 10.9-8 2.2-29s18.8-16.6 29 7.2c10.1 23.9 2.2-19.5-9.4-34-11.6-14.5 0-19.5 13-10.1s7.2-17.4-1.5-23.9 26.8 10.9 26.8 10.9-11.6-15.9-34-24.6c-22.4-8.7 0 9.2 4.5 19.9s-4 2.4-15 .3-19.6 3-19.6 3 21.8 26.7 14.3 30.4c-7.5 3.7-21.3-9.1-24.3-8.7-3 .3 16.9 34.2-.7 17.5-17.6-16.9-62.2-58.7-3.4-72.6z"/><path fill="#B0515C" d="M219.6 159.7c12.3-28.7 6.6-54.4-6.8-74.7-7.8-3.2-21.4-8.6-26.9-9.6-8-1.3 7.4 22.8 6 28.1-1.3 5.4-19.4-12.7-22.8-8-3.3 4.7 20.1 15.4 10.7 49.5-9.4 34.1-12.7-19.4-26.1-20.1-13.4-.7 1.3 17.4-3.3 32.1-3.8 12-1 21.8-12.9 42.8.1-.1.2-.2.3-.4 0 0-6.5 16.6-15.2 24.6 0 .2 66.6 6.7 97-64.3z"/></g><g transform="translate(3600)"><path fill="#73B7D4" d="M43.2 55.8c-1.7-.8-3.5-2.6-3.6-5.4v-.4c0-3 1.7-4.9 3.3-5.7 1.6-.8 3-.9 3.1-.9.8 0 1.5.6 1.6 1.4 0 .8-.6 1.5-1.4 1.6 0 0-.2 0-.5.1-.4.1-.9.2-1.3.5-.9.5-1.6 1.2-1.7 3v.3c.1 1.7.8 2.2 1.8 2.8 1.1.5 2.5.7 3.3.6h.8l78.7-4c.8 0 1.5.6 1.6 1.4 0 .8-.6 1.5-1.4 1.6l-78.6 4h-1c-1.1 0-2.9-.1-4.7-.9zM125.9 51.2c0-.8.6-1.5 1.4-1.6l83-3.9h.2c.1 0 1.7 0 3.1-.6 1.4-.6 2.4-1.3 2.4-3.2v-.2c-.1-1.9-.8-2.5-1.7-3-.8-.4-1.9-.5-2.1-.5-.8.1-1.6-.5-1.6-1.4-.1-.8.5-1.6 1.4-1.6h.2c.5 0 2 0 3.6.9 1.6.8 3.2 2.7 3.3 5.6v.3c0 3.3-2.4 5.3-4.4 6-1.9.7-3.7.8-4.1.8l-83.1 3.9h-.1c-.8 0-1.5-.7-1.5-1.5zM178.5 121.1c-.8-.3-1.1-1.2-.8-2l31.3-72.5c.3-.8 1.2-1.1 2-.8.8.3 1.1 1.2.8 2l-31.4 72.5c-.2.6-.8.9-1.4.9-.2 0-.4 0-.5-.1zM240.6 120.3l-31.4-72.5c-.3-.8 0-1.7.8-2 .8-.3 1.6 0 2 .8l31.4 72.5c.3.8 0 1.6-.8 2-.2.1-.4.1-.6.1-.6 0-1.1-.3-1.4-.9zM244 120.5c0 3-14.9 5.4-33.3 5.4s-33.3-2.4-33.3-5.4c0-3 14.9-5.4 33.3-5.4 18.3 0 33.3 2.4 33.3 5.4z"/><path fill="#4C7D91" d="M210.6 125.9c-18.4 0-33.3-2.4-33.3-5.4 0 3 14.9 20.6 33.3 20.6s33.3-17.6 33.3-20.6c.1 2.9-14.9 5.4-33.3 5.4z"/><path fill="#73B7D4" d="M17.1 129.3c-.8-.3-1.1-1.2-.8-2l31.4-72.5c.3-.8 1.2-1.1 2-.8.8.3 1.1 1.2.8 2l-31.4 72.5c-.2.6-.8.9-1.4.9-.2.1-.4 0-.6-.1zM79.3 128.6l-31.4-72.5c-.3-.8 0-1.7.8-2 .8-.3 1.7 0 2 .8l31.3 72.5c.3.8 0 1.7-.8 2-.2.1-.4.1-.6.1-.5 0-1.1-.4-1.3-.9zM82.5 128.7c0 3-14.9 5.4-33.2 5.4-18.4 0-33.2-2.4-33.2-5.4 0-3 14.9-5.4 33.2-5.4 18.3 0 33.2 2.4 33.2 5.4z"/><path fill="#4C7D91" d="M49.3 134.1c-18.4 0-33.2-2.4-33.2-5.4 0 3 14.9 20.5 33.2 20.5 18.4 0 33.2-17.5 33.2-20.5 0 3-14.9 5.4-33.2 5.4z"/><path fill="#E0381C" d="M210.6 125.9c8.3 0 15.9-.5 21.8-1.3 9.1-17.8-5.1-27.9-19-23.4-9.1 2.9-11.6-5.6-20.6.4-9 6-6.9 18.1-2.9 23.2 5.8.6 12.9 1.1 20.7 1.1z"/><path fill="#FED300" d="M30.4 133.1c5.4.6 11.8.9 18.8.9 7.2 0 13.9-.4 19.4-1 .2-.2.4-.3.4-.3s4.9-8.7-1.8-15.4c-6.7-6.7-8.7-2.3-13.8-13.6-5.1-11.2-10.3-13-15.4-9.1-4.5 3.4.3 13.1-6.1 19.2-6.4 6.1-4.7 15-1.5 19.3z"/><path fill="#862514" d="M40 93.4l1-.4c-.4-2.4-1.7-4.2-1.7-4.2-1.6 0-1.3 1.2-1.3 1.2 1 .4 1.7 2.3 2 3.4z"/><path fill="#82CFF0" d="M171.8 228.3c0 8.2-20 14.9-44.7 14.9-24.7 0-44.7-6.7-44.7-14.9s20-14.9 44.7-14.9c24.7 0 44.7 6.7 44.7 14.9z"/><path fill="#7AC3E2" d="M146.4 217.9c-7.2-.6-50.1 3.6-39.9 11 0 0 9.7 4.9 28.7 5.2 15.6.3 19.8 2 18 6.2 11.2-2.7 18.6-7.1 18.6-12.1 0-3.9-4.5-7.4-11.8-10.1h-1.3s-5.2.4-12.3-.2z"/><path fill="#73B7D4" d="M127.2 213.4c-3.3 0-6.5.1-9.7.4 2.5-.1 5.1-.2 7.7-.2 23 0 41.7 5.6 41.7 12.6s-18.6 12.6-41.7 12.6c-23 0-41.7-5.7-41.7-12.6 0-.5.1-1 .3-1.4-.8 1.1-1.3 2.3-1.3 3.6 0 8.2 20 14.9 44.7 14.9 24.7 0 44.7-6.7 44.7-14.9-.1-8.3-20.1-15-44.7-15zM151.4 87.8c0 8.3-6.7 15-15 15s-15-6.7-15-15 6.7-15 15-15 15 6.7 15 15z"/><path fill="#82CFF0" d="M135.9 35.6c0 4.8-3.9 8.8-8.8 8.8-4.8 0-8.8-3.9-8.8-8.8 0-4.8 3.9-8.8 8.8-8.8s8.8 4 8.8 8.8z"/><path fill="#A0D9F3" d="M146.4 217.9c-19.5-16.4-16.6-159.6-16.1-174.1-1 .4-2 .6-3.1.6s-2.1-.2-3.1-.6c.4 14.5 3.4 157.7-16.1 174.1 0 0-7.1 3.3-7.1 6.6s14 8.1 26.3 7.7c12.3.5 26.3-4.4 26.3-7.7s-7.1-6.6-7.1-6.6z"/><path fill="#73B7D4" d="M153.5 224.5c0-3.3-7.1-6.6-7.1-6.6-19.5-16.4-16.6-159.6-16.1-174.1-1 .4-2 .6-3.1.6s-2.1-.2-3.1-.6c0 .7 0 1.6.1 2.7 1.7.6 4.1 2.5 4.1 8.2 0 8.5-.3 49.8-.3 49.8s-.8 51.6-.8 68.3c0 16.7 5 44.1 10.1 51.6 5.1 7.4-26.6 6.1-33.5 1.3-1.3-.9-2.2-1.6-2.7-2.2-.2.4-.3.8-.3 1.1 0 3.3 14 8.1 26.3 7.7 12.3.4 26.4-4.5 26.4-7.8z"/><circle fill="#EDF7FD" cx="135.6" cy="87.3" r="13.3"/><path fill="#82CFF0" d="M129.9 88.8s2.5 19.5 11.3 24.8c8.9 5.3-3.2 13.1-10.6 5.3-7.4-7.8-.7-30.1-.7-30.1z"/><path fill="#fff" d="M144.4 83.4c0 4.7-3.8 8.5-8.5 8.5s-8.5-3.8-8.5-8.5 3.8-8.5 8.5-8.5c4.6 0 8.5 3.8 8.5 8.5z"/><path fill="#73B7D4" d="M131.4 28c1.1 1.4 1.8 3.1 1.8 5 0 4.4-3.6 8.1-8.1 8.1-2.6 0-4.9-1.3-6.4-3.2 1 3.8 4.4 6.6 8.5 6.6 4.8 0 8.8-3.9 8.8-8.8-.1-3.4-1.9-6.3-4.6-7.7z"/><path fill="#C8E8F8" d="M128.3 32.6c0 1.8-1.5 3.3-3.3 3.3-1.8 0-3.3-1.5-3.3-3.3 0-1.8 1.5-3.3 3.3-3.3 1.8 0 3.3 1.5 3.3 3.3zM124.6 149s-1.8 45.3-7.7 59.6c-6 14.4-8.5 12.2-10.9 13.9-2.4 1.7 5.9 4.1 12.7 4.8 6.8.7 12.9.4 10.8-2.7-2.1-3.1-3.7-7.1-4.5-21.6-.9-14.4-.4-54-.4-54z"/><path fill="#82CFF0" d="M134.5 88.6c0 10.1-8.2 18.3-18.3 18.3-10.1 0-18.3-8.2-18.3-18.3 0-10.1 8.2-18.3 18.3-18.3 10.2 0 18.3 8.2 18.3 18.3z"/><circle fill="#EDF7FD" cx="116.9" cy="87.5" r="15.5"/><path fill="#fff" d="M126.1 85.6c0 6.1-5 11.1-11.1 11.1s-11.1-5-11.1-11.1 5-11.1 11.1-11.1c6.1-.1 11.1 4.9 11.1 11.1z"/><circle fill="#1A171B" cx="124.8" cy="93.2" r="4.3"/><path fill="#1A171B" d="M142.7 90.8c0 1.8-1.5 3.3-3.3 3.3-1.8 0-3.3-1.5-3.3-3.3 0-1.8 1.5-3.3 3.3-3.3 1.8 0 3.3 1.5 3.3 3.3z"/><path fill="#C8E8F8" d="M133.9 106.1s-.8-1.6-2.3-.6c-1.4 1-.2 9 3.3 12.1 3.5 3.1 8 2.1 8-.2 0-2.3-4.6-3.7-6.6-6.8-1.6-2.7-2.4-4.5-2.4-4.5zM128.7 237.8c-21.8 0-39.5-5.1-39.5-11.5 0-4.3 8.2-8.1 20.3-10-14.7 1.7-25.2 5.9-25.2 10.9 0 6.4 17.5 11.7 39.2 11.7 8.7 0 16.7-.8 23.2-2.3-5.4.7-11.5 1.2-18 1.2z"/><path fill="#65A3BD" d="M40.1 147.8l2 .6c-4.7-2.2-12.3-7-15-15.6-1.8-.3-3.4-.6-4.9-.9 1.1 2.1 5.8 10.6 17.9 15.9z"/><path fill="#3C6577" d="M48.9 149.2c5.9-1.5 21.8-6.4 29.3-17.8-3.9 1.1-10.2 2-17.7 2.4-.8 2.9-3.9 11.6-12.4 15.4.2-.1.5 0 .8 0z"/><path fill="#65A3BD" d="M191.4 124.9c-2.5-.3-4.7-.6-6.6-1 1.4 3.2 5.8 10.8 15.9 15.5 1.9.6 3.9 1.1 5.9 1.3-3-1.8-12.1-7.6-15.2-15.8zm8.7.7c-1-.1-2-.1-2.9-.2 1.1 4.1 3.8 10 10 15.4.3 0 .7 0 1 .1-2.2-2.6-6.6-8.4-8.1-15.3z"/><path fill="#3C6577" d="M220.7 125.6c-.5 3.2-2.3 10.7-8.9 15.4.3 0 .6 0 .9-.1 5.4-2.2 21.4-9.1 26.6-17.7-4.1 1.1-10.7 2-18.6 2.4z"/><path fill="#E55D34" d="M219.8 120.4c.5-.3 1-.7 1.7-1.4 7.9-7.8 3.7-16 3.7-16-.4-.9-1.1-1.6-2.6-2 0 0-3.3-1-6.5.3-3.3 1.3 1 5-3.3 5.8-.3.1-.5.1-.7.2-1.7.2-4 .2-6.7-1.2-4.9-2.5-3.8-7.1-9.8-5.4-5.9 1.7-9.9 11-4.4 18 5.1 6.4 21.5 5.9 28.2 1.9 0 0 .1 0 .1-.1.2-.1.2-.1.3-.1z"/><path fill="#CE351A" d="M214.5 125.8c6-.1 11.5-.5 16.1-1 1.8-3.3 2.6-7.3 2.6-11.3 0-5.6-2.6-9.3-5-11.4-.8-.4-1.7-.8-2.6-1.1 1.6 3.2 5.9 13.2-.1 19.1-3.1 3-6.9 4.8-11 5.7zM210.6 105.4s-6-.5-6-2.7c0-2.1 3.1 0 3.1 0s.2 1.6 2.9 2.7z"/><path fill="#862514" d="M208.7 104.2s-.1-9.7 6.4-10.1c0 0 .9-1.7-1.3-2.7-.1.1-7.5 3.6-5.1 12.8z"/><path fill="#74B320" d="M209.9 95.3s-8.9 0-9-9.6c-.1 0 8.8-2 9 9.6z"/><path fill="#639C1E" d="M200.8 85.8c.2 8.6 7.5 9.4 8.8 9.5-2.5-5.7-7.1-8.6-8.8-9.5z"/><path fill="#ED8A5B" d="M205.8 107.8s-4.4-1.9-6.5-5.5c-1-1.8-6.7-.8-7.1 3.9-.5 4.7 9.6 7.8 13.9 6.7 4.3-1.2 1.8-4.1-.3-5.1z"/><path fill="#E2BD00" d="M51.7 134c5.7-.1 11-.4 15.6-.8 1-2.6 3.9-11.8-4.1-16.6-9.5-5.6-9.7-4.2-10.7-8.9-1-4.6-1.6-9.7-9.1-14.1 0 0 5.3 3.4 5.9 10.9.6 7.5-3.2 8.7 1.8 10.1 4.7 1.3 10 14.1.6 19.4z"/><path fill="#FFE16C" d="M50.4 122.3c0 4.4-4.6 8-10.3 8-5.7 0-10.3-3.6-10.3-8s4.6-8 10.3-8c5.7 0 10.3 3.6 10.3 8zM43.8 103.7c0 4.2-1.6 7.6-3.6 7.6s-3.6-3.4-3.6-7.6c0-4.2 1.6-7.6 3.6-7.6 1.9.1 3.6 3.5 3.6 7.6z"/></g><g transform="translate(4000)"><path fill="#4B6774" d="M177.5 155.8s9.8 1.8 8.2 5.9c-1.7 4.1-5.6 13-5.6 13s8.6-7.4 15.5-1.4c0 0 1.8 2.1-3.8 3.8-5.7 1.8-14.5 1.3-14.1-1.6.5-2.9 6.9-13.7 5.8-14.7-1.1-1.1-6.7 1.1-9-2-2.8-3.6 3-3 3-3zM85.8 163.7s-13-6.1-22.9 4.3c0 0-30.6-15.4-33 43.5 0 0 19.4-37.4 27.4-28.7 8 8.6-18.5 36.3-18.5 36.3s46.5-21.4 28.7-45.2c0 0 8.1-8.6 14.9-5.8 0 0 2.9.9 3.9-.9 1.1-2-.5-3.5-.5-3.5z"/><path fill="#5D7F8E" d="M95.2 133.9s22.1-20.3 51.1-14.7c0 0 42.1 1.6 32.9 36.7 0 0-23.6 44.3-81.6 47.7-29.5 1.8-19.6-25.5-19.6-25.5s-11-11.5 17.2-44.2z"/><path fill="#708E9D" d="M144 38.8s13.6 12.6 19.3 29c0 0-34.8 8-49.1 29.8 0-.1 4.6-35.4 29.8-58.8z"/><path fill="#4B6774" d="M114.2 97.5c16.1-18.1 48.3-23.8 48.3-23.8l.8-5.9s-34.8 8-49.1 29.7z"/><path fill="#5D7F8E" d="M220.4 59.3c-5.3-24-43.3-27.7-43.3-27.7-5.4-2.5-9.6.3-9.6.3-5.7 4.6-29.2 25.6-20.4 24.8 8.8-.8 30.8-12.4 30.8-12.4 3.3 14.2 16.6 17.9 16.6 17.9-4.1 5.7-3.1 21.1-3.1 21.1-7.7 7.5-13.6 24.5-13.6 24.5-12.6.7-26.4 8.2-31.9 11.4.1 0 .2 0 .3.1 0 0 42.1 1.6 32.9 36.7l-.3.6c25.3-5.2 33.1-24.8 33.1-24.8 14.6-15.4 8.1-44.8 8.1-44.8 11.4-17.7.4-27.7.4-27.7z"/><path fill="#4B6774" d="M111.3 151.5c-.9 9-9 15.5-17.9 14.6-9-.9-15.5-9-14.6-17.9.9-9 9-15.5 17.9-14.6 9.1.9 15.6 8.9 14.6 17.9z"/><path fill="#F5FBFE" d="M110.1 148.4c-.9 9-9 15.5-17.9 14.6-9-.9-15.5-9-14.6-17.9.9-9 9-15.5 17.9-14.6 9 .9 15.5 9 14.6 17.9z"/><path fill="#D2E0E7" d="M99.6 131.5c4.7 3 7.6 8.5 7 14.5-.9 8.4-8.4 14.5-16.8 13.7-4.5-.5-8.3-2.8-10.8-6.2 2.3 5.1 7.2 8.9 13.2 9.6 9 .9 17-5.6 17.9-14.6.8-7.6-3.7-14.5-10.5-17z"/><circle fill="#4B6774" cx="120.9" cy="148.5" r="20.3"/><path fill="#F9FCFE" d="M137.3 148.7c-1 10.1-10.1 17.4-20.1 16.3-10.1-1-17.4-10.1-16.3-20.1 1-10.1 10.1-17.4 20.1-16.3 10 1 17.3 10 16.3 20.1z"/><path fill="#D2E0E7" d="M124.5 129.3c5.4 3.3 8.7 9.5 8 16.2-1 9.3-9.3 16.1-18.7 15.2-4.6-.5-8.6-2.8-11.3-6.1 2.6 5.6 8.1 9.8 14.7 10.4 10.1 1 19.1-6.3 20.1-16.3.9-8.9-4.6-16.9-12.8-19.4z"/><circle fill="#1A171B" cx="115" cy="152.4" r="5.3"/><circle fill="#1A171B" cx="93.4" cy="151.5" r="3.8"/><path fill="#4B6774" d="M122.2 199.3c40-11.9 56.9-43.4 56.9-43.4 7.8-29.6-20.8-35.4-30.1-36.5 5.4 1.8 12.4 6.1 11.3 16.6-1.7 16.6-14.1 42.1-51.8 45.9-17.3 1.7-26.4-1.1-31.2-4.8.4.7.7 1 .7 1s5.4 6.3 17.5 7.7c27.9 3.4 29.9-1.9 32.5 3.6 2.2 4.8-3.9 8.8-5.8 9.9zM220 86.9c11.5-17.6.4-27.6.4-27.6-3.1-13.9-17.1-21-28.3-24.5 16.6 7.5 22.2 24.9 16.4 24.3-6.2-.6-9.4 3.2-9.4 3.2s3.3-1.7 9.7.7c6.4 2.4 5.7 22.6-.5 21.9-6.2-.6-9.8 0-9.8 0 18.6 1.9 6.1 35.2-2.3 29.1-8.4-6.1-12.8-4.5-12.8-4.5 6.1 1.3 8.9 5.5 8.9 5.5 3.1 10.4-9.2 14.8-16.8 16.6 4.4 5.4 6.7 13.2 3.7 24.3l-.3.6c25.3-5.2 33.1-24.8 33.1-24.8 14.5-15.5 8-44.8 8-44.8zM145.3 56.2c.2.4.8.6 1.8.5 8-.8 27.3-10.6 30.4-12.2-.4-2.1-.5-4.7.5-7.4 0 0-17.3 16.5-32.7 19.1z"/><path fill="#1B3A47" d="M133.6 178.6s.4.1.9.6c-3.3 1.4-30.1 12-56.5-1.1 0 0 19.7 15.1 57.5 3 .1.6.1 1.4-.1 2.4 0-.1 3.2-4.5-1.8-4.9z"/><path fill="#4B6774" d="M156.8 174.5s11.1 9.1 6 22.5c0 0 27.1 20.9-25 48.5 0 0 25.3-33.6 14.1-37.1-11.3-3.5-24.7 32.3-24.7 32.3s-.7-51.2 28.4-45.4c0 0 4.3-11.1-1.1-15.9 0 0-2.1-2.2-.9-3.9 1.2-1.8 3.2-1 3.2-1z"/><path fill="#708E9D" d="M78.3 165.3s-3.3 7 2 11.2c5.3 4.2 29.5 4.2 35.8-.7 6.3-4.9-8.6-4.1-19.6-4.1-11.1 0-10-8.6-13.4-9.1-3.5-.6-4.5 2-4.8 2.7zM78.3 192.4s-1.5-6.1 5.2-5.2c6.7.9 21.2 5.9 17.9 10.4-3.1 4.5-17.7 5.8-23.1-5.2zM161.8 113s11.2-5.9 21.2-2.3c10 3.6-1.1 11.9-8.7 12.3-7.6.2-21.3-6.3-12.5-10zM183.9 101.9s4.2-14.4 11.6-12.9c7.4 1.5 5.9 16-.6 16.8-6.6.7-12-.9-11-3.9zM194.2 78.1s-1.4-11.2 2.6-12.9c4-1.7 9.7 5.3 8.9 11.4-.8 6.1-10.4 6.1-11.5 1.5zM180 43.1c-.3-.6-1.7-6.1 5.7-4.8 7.4 1.4 17.6 11.7 13.4 15.8-4.2 4.1-15.3-3.1-19.1-11zM170.5 32.9s-6.5 4.3-12.3 10.2c-5.7 5.9-1.1 3.1 6.8-1 7.9-4 10.7-10 5.5-9.2z"/><path fill="#4B6774" d="M199.6 142.2s9.1 1.7 7.5 5.4c-1.5 3.7-5.1 12-5.1 12s7.9-6.8 14.3-1.3c0 0 1.7 1.9-3.5 3.5s-13.4 1.2-13-1.5c.4-2.7 6.4-12.6 5.3-13.6-1.1-1-6.2 1-8.3-1.9-2.5-3.2 2.8-2.6 2.8-2.6zM210.7 131.1s8.2 1.5 6.8 4.9c-1.4 3.4-4.7 10.9-4.7 10.9s7.2-6.2 12.9-1.1c0 0 1.5 1.7-3.2 3.2-4.7 1.5-12.1 1.1-11.8-1.3.4-2.4 5.8-11.4 4.8-12.3-1-.9-5.6 1-7.5-1.7-2.1-3.1 2.7-2.6 2.7-2.6z"/><path fill="#1B3A47" d="M208.1 133.6c-.5-.6-.6-1.1-.5-1.4 0 0-1.3 3.6.8 5.6.7-1 1.4-2 1.9-2.9-.9-.2-1.7-.6-2.2-1.3zM196.7 144.9c-.4-.6-.6-1.1-.6-1.4-.2.8-1 3.7.5 5.7 1.3-.9 2.5-1.8 3.6-2.7-1.4-.1-2.7-.5-3.5-1.6z"/><path fill="#4B6774" d="M177.5 155.8s9.8 1.8 8.2 5.9c-1.7 4.1-5.6 13-5.6 13s8.6-7.4 15.5-1.4c0 0 1.8 2.1-3.8 3.8-5.7 1.8-14.5 1.3-14.1-1.6.5-2.9 6.9-13.7 5.8-14.7-1.1-1.1-6.7 1.1-9-2-2.8-3.6 3-3 3-3z"/><path fill="#1B3A47" d="M174.3 158.8c-.6-.9-.8-1.5-.6-1.9 0 0-1.1 3.3.6 6.3.8-1.1 1.5-2.1 2.1-3-.8-.2-1.5-.7-2.1-1.4zM154.5 179.3s-1.2-1.3-1.2-2.6c-.4 1.3-1.8 5.1-1.2 8 1.4-1 2.8-2.1 4.1-3.1-.4-.8-1-1.6-1.7-2.3z"/><path fill="#5D7F8E" d="M159.6 178.4s-2.5-3.7-4.5-2.6c-2 1 3.1 2.8 4.4 6.5 1.2 3.7 2.6 3.9 2.3 1.7-.4-2.2-1.4-4.4-2.2-5.6zM176.1 156.3s-1.3-.1-1.3.9c0 .9 5.5 2.1 7.3 1.8 1.8-.3-1.9-2.5-6-2.7zM197.4 143.5s-.5-1.2 2.2-.7c2.6.5 5.7 1.6 4.8 1.9-.9.4-6.1.9-7-1.2zM208.2 132.2s.2-.9 1.7-.8c1.6.1 5.2 1.3 4.6 1.8-.6.5-5.7.8-6.3-1zM184.5 172.4s-3.3 1.9-1.8 2.9c1.6 1 11.7-.2 11-2-.8-1.9-5-2.8-9.2-.9zM205.2 158.4s1.7-1.9 4.7-1.9c2.5-.1 5.4 1.1 3.4 2.3-1.9 1.1-9.8 1.5-8.1-.4zM215.7 145.9s2.3-1.9 5.6-1.7c3.3.2 4 1.7 1 2.4-2.9.7-8.2 1-6.6-.7zM130.8 218.8s3.1-12.6 8.8-18.2c5.7-5.6 14.8-5.6 17.5-2.3 2.7 3.3 8.4 12.6-2.9 25.8 0 0-1.2 1 .8-4.1s2.2-14.2-5.3-14.5c-7.6-.3-14.1 5.5-17.2 14.3-3.2 8.9-3.2 4.1-1.7-1z"/><path fill="#708E9D" d="M152.1 197.5s-4.5-1.9-10.2 2c-5.7 4-8.5 12.4-7.8 13.1.7.7 4-7.9 8.5-10.2 4.5-2.3 8.5-2 10.8-.8 2.3 1.3 3.6-2.7-1.3-4.1z"/><path fill="#5D7F8E" d="M34.1 189.9s3.1-12.6 8.8-18.2c5.7-5.6 14.3-5.1 17.5-2.3 3.5 3 9.7 12.6-1.6 25.9 0 0-1.2 1 .8-4.1s.9-14.3-6.6-14.6c-7.6-.3-14.1 5.5-17.2 14.3-3.2 8.9-3.2 4.2-1.7-1z"/><path fill="#708E9D" d="M55.5 168.7s-4.5-1.9-10.2 2c-5.7 4-8.5 12.4-7.8 13.1.7.7 4-7.9 8.5-10.2 4.5-2.3 8.5-2 10.8-.8 2.2 1.2 3.6-2.8-1.3-4.1z"/></g><g transform="translate(4400)"><path fill="#B77900" d="M136.7 245.8zm-2.1-1.8l94.5-103.3-56.1-123.7 2.5-1.1 56.9 125.3-95.7 104.7-2.1-1.9z"/><path fill="#D9E7EE" d="M55.1 102.9c-.7 4.7-5.1 7.8-9.8 7.1-4.7-.7-7.8-5.1-7.1-9.8.7-4.7 5.1-7.8 9.8-7.1 4.7.7 7.9 5.1 7.1 9.8z"/><path fill="#C3D9E4" d="M51.3 94.4c1 1.6 1.4 3.5 1.1 5.5-.7 4.4-4.8 7.4-9.3 6.7-1.9-.3-3.5-1.3-4.7-2.6.9 3 3.5 5.4 6.8 6 4.7.7 9-2.4 9.8-7.1.7-3.5-.9-6.7-3.7-8.5z"/><path fill="#C34613" d="M228.6 143.1l-159.7-25.5c-1.2-.2-2-1.3-1.9-2.6.2-1.2 1.3-2 2.6-1.9l159.7 25.5c1.2.2 2 1.3 1.8 2.6-.2 1.1-1.1 1.9-2.2 1.9h-.3z"/><path fill="#AC3514" d="M68.4 117.4c.2.1.3.2.5.2l159.7 25.5h.4c1.1 0 2-.8 2.2-1.9v-.3l-162.8-25.3v1.8z"/><path fill="#C34613" d="M238.5 150.7l-12.7-8.4c-.7-.5-1.1-1.3-1-2.1.1-.9.7-1.6 1.5-1.9l13.6-4.8c1.2-.4 2.4.2 2.8 1.4.4 1.2-.2 2.4-1.4 2.8l-9.2 3.2 8.7 5.9c1 .6 1.4 2 .7 3.1-.4.7-1.2 1.1-1.9 1.1-.3 0-.7-.1-1.1-.3z"/><path fill="#AC3514" d="M232.7 144.2l-.3-3-7.6-1.2c0 .1 0 .1-.1.2-.1.9.3 1.7 1 2.1l12.7 8.4c.4.2.8.3 1.2.3.8 0 1.5-.4 1.9-1.1 0 0 0-.1.1-.1l-8.9-5.6z"/><path fill="#B77900" d="M232.2 141l-3.1-.4-2.2 2.5 2.4 1.5 3.1-3.4z"/><path fill="#C34613" d="M76.8 116.9l2 11.1-65.6-21.7 69 .2z"/><path fill="#1A171B" d="M50.8 100.7c-.2 1.3-1.4 2.1-2.7 1.9-1.3-.2-2.1-1.4-1.9-2.7.2-1.3 1.4-2.1 2.7-1.9 1.2.2 2.1 1.4 1.9 2.7z"/><path fill="#AC3514" d="M14.2 106.6l64.6 21.4-2-11.1zM62.1 119.4c6.7 1.1 12.9-3.5 14-10.1.1-.9.2-1.8.1-2.7l-24.4-.1c-.4 6.2 4 11.9 10.3 12.9z"/><path fill="#862B11" d="M72.4 116.2l-19.1-3.1c1.7 3.3 4.9 5.7 8.8 6.3 3.9.6 7.7-.7 10.3-3.2z"/><path fill="#EDF7FD" d="M75.5 106.9c-1.1 6.7-7.4 11.3-14.1 10.2-6.7-1.1-11.3-7.4-10.2-14.1 1.1-6.7 7.4-11.3 14.1-10.2 6.7 1.1 11.3 7.4 10.2 14.1z"/><path fill="#D7E8F1" d="M68.4 93.8c3.4 2.4 5.3 6.6 4.6 11-1 6.2-6.8 10.4-12.9 9.4-4.4-.7-7.7-3.9-9-7.8.6 5.4 4.7 9.9 10.3 10.8 6.7 1.1 13-3.5 14.1-10.2.9-5.7-2.2-11-7.1-13.2z"/><path fill="#1A171B" d="M71 104.3c-.3 2.1-2.3 3.5-4.4 3.2-2.1-.3-3.5-2.3-3.2-4.4.3-2.1 2.3-3.5 4.4-3.2 2.1.3 3.5 2.3 3.2 4.4z"/><path fill="#F5A000" d="M175.5 6.9c-2.9-1.4-5.7-1.6-6.2-1.6h-.2c-.1 0-.2 0-.5.1-.2.1-.8.6-.8 1.3 0 .3.1.6.2.8 1.4 2 2 4 2 6.1.1 6.8-7.5 15-17.7 22.8-10 7.8-22.3 15.6-31.1 22.7-13.4 10.3-19.2 23.5-19.2 34.6 0 5.9 1.6 11.2 4.7 15.1 4.6 6 5.4 10.2 5.4 12.7v.6c-.1.2-.2.5-.2.8v.6c-.1.4-.2.5-.2.5-.1.3-.2.5-.1.8-.7 2.3-2.7 6.2-9.6 10.7-7 4.4-11.6 13.7-11.7 24.9 0 8.2 2.5 17.5 8.4 26.7 10.4 17.4 31.1 41.2 30.9 55.4 0 3.8-1.3 6.7-4.6 9.1-.6.4-.8 1.3-.3 1.9.6.7.5.4.6.5.5.2 2.3.7 5 .7 2.2 0 5-.4 7.3-2.3 2.3-1.8 3.8-5 3.8-9.7v-.1c-.3-14.9-16.3-41.4-26-56.6-6-8.7-9.8-17.7-9.8-24.9 0-4.8 1.6-8.7 5.5-11.5 12.9-9.4 15.6-20.2 16.2-23.5.2-1 .4-2.6.4-4.9 0-5.2-1.3-13.4-7.6-22.7-1.6-2.3-2.2-4.7-2.2-7.2-.1-8.1 7.8-17.7 18.7-25.5 14.4-11 38.5-30.4 43.9-44.3.8-2.1 1.1-3.9 1.1-5.6-.1-4.9-3.2-7.7-6.1-9z"/><path fill="#D38B00" d="M181.4 15.9c0-4.8-3.1-7.7-6-9-1.2-.5-2.3-.9-3.3-1.2 1 1.7 4.4 8.4.9 10.6-4 2.5-4.3 4-4.3 4s-1.2 2.7 1.5 4.7-23.2 26.2-39.8 38.4c-16.5 12.2-24.4 23.1-15.7 41.1s7 22.2 1.8 29.7-17.4 11.5-18 24.4c-.7 12.9 11.2 28.1 21.6 46.1 10.4 18 16.5 33.9 12.9 35.3-3.7 1.3-3.2 2.6-3.2 2.6s-1.3 5 2.2 6.6c3.5 1.7-4.2.5-4.2.5s2.5.8 3.3 2.3c.7 1.2-2.7 2.1-4 2.4.8.1 1.8.2 3 .3 2.2 0 5-.4 7.3-2.3 2.3-1.8 3.8-5 3.8-9.7v-.1c-.3-14.9-16.3-41.4-26-56.6-6-8.7-9.8-17.7-9.8-24.9 0-4.8 1.6-8.7 5.5-11.5 12.9-9.4 15.6-20.2 16.2-23.5.2-1 .4-2.6.4-4.9 0-5.2-1.3-13.4-7.6-22.7-1.6-2.3-2.2-4.7-2.2-7.2-.1-8.1 7.8-17.7 18.7-25.5 14.4-11 38.5-30.4 43.9-44.3.8-2.1 1.1-4 1.1-5.6z"/><g fill="#B77900"><path d="M178.8 25.7c-9.3-2-11.7-6.9-11.8-7.2-.3-.7 0-1.5.7-1.8.7-.3 1.5 0 1.8.7v.1c0 .1.1.2.3.4.3.4.7.9 1.4 1.5 1.4 1.2 3.9 2.7 8.1 3.6.8.2 1.2.9 1.1 1.7-.1.7-.7 1.1-1.4 1.1 0-.1-.1-.1-.2-.1zM179.5 25c-7.8-2.6-11.5-10.8-11.6-10.9-.3-.7 0-1.5.7-1.9.7-.3 1.5 0 1.9.7 0 0 .9 1.8 2.6 4 1.7 2.1 4.2 4.5 7.4 5.5.7.2 1.1 1 .9 1.8-.2.6-.7 1-1.3 1-.3-.1-.5-.1-.6-.2zM168.6 14.1c-.6-.5-.7-1.3-.3-1.9.5-.6 1.3-.7 2-.3 0 0 1.2.9 3.1 1.8 1.8.9 4.3 1.8 6.6 1.8.5 0 1 0 1.5-.1.8-.1 1.5.4 1.6 1.1.1.8-.4 1.5-1.1 1.6-.7.1-1.4.2-2 .2-6-.1-11.3-4.2-11.4-4.2zM127.4 240.2c-.5-.6-.5-1.4.1-2 .6-.5 1.5-.5 2 .1 1.2 1.3 2.8 1.8 4.6 1.8 1.8 0 3.6-.5 5-1s2.3-1 2.3-1c.7-.4 1.5-.1 1.9.6.4.7.1 1.5-.6 1.9-.1 0-4.1 2.2-8.6 2.3h-.1c-2.2 0-4.7-.7-6.6-2.7zM127.8 244.5c-.5-.6-.5-1.5.1-2s1.5-.5 2 .1c.9 1 1.9 1.3 3.1 1.3 1.8 0 3.9-.9 5.6-1.9 1.7-1 2.8-1.9 2.8-1.9.6-.5 1.5-.4 2 .2.5.6.4 1.5-.2 2-.1 0-5 4.4-10.2 4.5h-.1c-1.8 0-3.7-.7-5.1-2.3zM131.8 250.4c-3.1 0-5.2-1-5.3-1.1-.7-.3-1-1.2-.6-1.9.3-.7 1.2-1 1.9-.6 0 0 .3.2 1.1.4.7.2 1.8.4 3 .4 2.5 0 5.6-.8 8.9-4.3.5-.6 1.4-.6 2-.1.6.5.6 1.4.1 2-3.8 4-7.9 5.2-11.1 5.2z"/></g><path fill="#FDCE58" d="M164.8 26.9s1.5-2.1 2.5-1.2c1 .8-6.7 11.9-22.5 22.9-19.9 13.8-27.2 18.4-31.8 27.6-4.6 9.2-5.6 15.6-7.3 13.7-3.8-4.2 3.3-17.5 10.8-25 7.5-7.5 14.2-10.9 25.4-18.7 12.5-8.7 20-16 22.9-19.3zM102.8 143s3.7-4 7.7-6c4-2.1 1.7-5.8-2.9-3.7-4.6 2.1-12.1 7.9-14.6 18.5s.4 22.1 4.8 30.6c4.4 8.5 16.7 25.4 18.1 25.4 1.5 0-6.2-12.7-11.5-21.2-5.2-8.6-13.5-31.3-1.6-43.6z"/></g></svg>