<svg baseProfile="tiny" xmlns="http://www.w3.org/2000/svg" preserveAspectRatio="xMinYMin meet" viewBox="0 0 1800 200" width="1800" height="200"><path fill="#9EA59D" d="M47.2 48.5V38.3H28.1v10.3c0 4.7 3.8 8.5 8.5 8.6v10.3h-5.4c-.5 0-1 .4-1 1V68c0 .5.4 1 1 1h12.9c.5 0 1-.4 1-1v.4c0-.5-.4-1-1-1h-5.4V57.1c4.7 0 8.5-3.9 8.5-8.6zm-17.7 0v-8.8h16.2v8.8c0 3.9-3.2 7.2-7.2 7.2h-1.8c-4 0-7.2-3.2-7.2-7.2z"/><path fill="#E22E2E" d="M36.7 54.7c-3.4 0-6.2-2.8-6.2-6.2v-4.4h14.3v4.4c0 3.4-2.8 6.2-6.2 6.2h-1.9z"/><path fill="#349627" d="M64 22c-1.6-1.3-1.7-2.7-1.7-4.4V7h.1c.3 0 .6-.3.6-.6V4.5c0-.3-.3-.6-.6-.6h-.1V2.7h-1.5v-.1h-2.4v.1h-1.5v1.2h-.1c-.3 0-.6.3-.6.6v1.9c0 .3.3.6.6.6h.1v10.6c0 1.6-.1 3.1-1.7 4.4-1.8 1.4-3.3 2.8-3.3 7.2v37.3c0 2.1 2.6 2.8 5.3 2.8h4.7c2.7 0 5.3-.7 5.3-2.8V29.2c0-4.4-1.5-5.8-3.2-7.2zm1.2 41.4c0 .7-.6 1.3-1.3 1.3-.7 0-1.3-.6-1.3-1.3v-32c0-.7.6-1.3 1.3-1.3.7 0 1.3.6 1.3 1.3v32zm-1.4-35.3c-.9 0-1.6-.9-1.6-2s.7-2 1.6-2 1.6.9 1.6 2-.7 2-1.6 2z"/><g transform="translate(200)"><path fill="#A9E267" d="M30.3 48l1.8 14.9h10.6l1.7-15-14.1.1z"/><path fill="#FDA0C3" d="M25.2 29.5s7.7-1.1 9.4 1.7c1.7 2.8 3.7 16.7 3.7 16.7l-3 .1s-1.5-12.5-3.4-14.9c-1.9-1.9-7-1-7-1l.3-2.6z"/><path fill="#FD9652" d="M62.3 12.5c5.3 0 9.7 4.3 9.7 9.7v40.5c0 5.3-4.3 4.3-9.7 4.3S53 68 53 62.7V22.2c0-5.4 3.9-9.7 9.3-9.7z"/><path fill="#FFE17B" d="M55 19.9v44h15.1l.1-44.1-15.2.1z"/><path fill="#85BA7F" d="M59 6.9h7v4.2h-7V6.9z"/><path fill="#7DBDFE" d="M46.4 63.8s-.6 3.1-2.9 3.1H30.9s-2.5.7-2.9-3.3c-.4-3.9-2.3-27.7-2.3-27.7h22.8l-2.1 27.9zm-15.7.2h13.4l2.8-26.9H27.5L30.7 64z"/><path fill="#fff" d="M54.8 20.1l5.3-5.7 4.4.1 5.9 5.6H54.8z"/></g><g transform="translate(400)"><path fill="#F86F24" d="M80.8 51.4l-2.6 5.7-9.2-4.9-10 2.2v7.5h26V51.1h-2.4l-1.8.3z"/><path fill="#FD9652" d="M79.9 49.3l-2.5 5.4-8.4-4.6-14.7 3.3 4.7-11 .4.1L73.5 48h.9L85 42.7l.6-.3 4.5 6.8-10.2.1zM85 66.1H59v-3h26v3z"/><path fill="#C56E35" d="M77 38v-6h8v6h-8zm0-13.1h6.7c.7 0 1.3.6 1.3 1.3V31h-8v-6.1zm-3.5 20l-5.5-2V39h8.1v5l-1.7.8h-.9v.1zM68 32.1h8.1v6H68v-6zm0-7.2h8.1v6H68v-6zM67 39v3.3L60.1 39H67zm-8-6.9h8v6h-8v-6zm0-5.9c0-.7.6-1.3 1.3-1.3H67v6h-8v-4.7zm18 17.1V39h7.6L77 43.3z"/><path fill="#FFCB5A" d="M51.9 44.7c-5.1-9-11.7-10.6-12.8-10.8-.2-.2-.5-.5-.7-.6 0 0-1.9-1.3.5-4 1.4-1.7 2.3-3.9 2.3-6.4 0-5.5-4.5-10-10-10s-10 4.5-10 10c0 2.6 1 4.9 2.6 6.7 1.7 2.1.6 3.3.3 3.6-.1 0-.1.1-.1.1l-.6.6s-7.4 1-13 10.9c0 0-1.7 2.8.2 4.8 0 0 2.4 2.4 4.2 1.3 0 0 2.9-2.6 3.9-4.1-.1 1-.1 2-.1 3.2 0 0-3 15.6 3 16.4 0 0 4.9 1.2 5.5-5.1 0 0 1-7.7 4-7.7s4 7.7 4 7.7c.7 6.3 5.5 5.1 5.5 5.1 6-.8 3-16.4 3-16.4 0-1 0-2-.1-2.9 1.2 1.5 3.7 3.9 3.7 3.9 1.8 1.1 4.2-1.3 4.2-1.3 2.2-2.2.5-5 .5-5zM27.8 17.9c1 0 1.9.8 1.9 1.9 0 1-.8 1.9-1.9 1.9-1 0-1.9-.8-1.9-1.9 0-1 .9-1.9 1.9-1.9zm3.3 31.3c-.9 0-1.7-.8-1.7-1.7s.8-1.7 1.7-1.7c.9 0 1.7.8 1.7 1.7.1.9-.7 1.7-1.7 1.7zm0-5.6c-.9 0-1.7-.8-1.7-1.7 0-1 .8-1.7 1.7-1.7.9 0 1.7.8 1.7 1.7.1.9-.7 1.7-1.7 1.7zm0-5.6c-.9 0-1.7-.8-1.7-1.7 0-.9.8-1.7 1.7-1.7.9 0 1.7.8 1.7 1.7.1.9-.7 1.7-1.7 1.7zM37 25.6c-1.9 1.9-3.9 2.8-6 2.8h-.1c-3.2 0-5.5-2.4-5.6-2.5-.4-.4-.4-1.1 0-1.5s1.1-.4 1.5 0c0 0 1.7 1.8 4.1 1.8 1.6 0 3.2-.8 4.6-2.2.4-.4 1.1-.4 1.5 0 .4.5.4 1.2 0 1.6zm-2.5-3.9c-1 0-1.9-.8-1.9-1.9 0-1 .8-1.9 1.9-1.9 1 0 1.9.8 1.9 1.9-.1 1-.9 1.9-1.9 1.9z"/></g><g transform="translate(600)"><path fill="#F86F24" d="M31 16.1h12v5H31v-5zM41.6 24L48 48.2V69H25.1V48.3L32 24h9.6z"/><path fill="#fff" d="M35 51h14.1v10.1H35V51z"/><path fill="#FFCB5A" d="M49.9 21H79v48H49.9V21z"/><path fill="#FF7D27" d="M60.5 19.1l1.6-9h5.5l1.5 8.9-8.6.1z"/></g><g transform="translate(800)"><path fill="#2CB5F5" d="M42.8 28.1l6.2-9.3 7.7 5.2-13.9 4.1zM33.9 8.7l13.9 3.2.2 4.3-14.1-4V8.7zM41 28.3l-16.7-4.4 9-9.9 13.5 4.2L41 28.3zm-.1 40.3l-17.8-6.3-.1-36.7 17.7 5.1.2 37.9z"/><path fill="#72DAFC" d="M42.8 30.5L57 26.2l-.1 35.7-14 6.5-.1-37.9z"/><path fill="#fff" d="M26.8 48.1l2.1 1.2V42l2.1 6 2.1 1.2 2.2-5V52l2.1 1.2v-11l-3-1.1-2.4 4.2-2.3-6.4-3-1.2.1 10.4z"/><path fill="#95D34D" d="M74.6 36.9l5.2-7.8 6.4 4.4-11.6 3.4zm-7.4-16.2l11.7 2.7.2 3.6-11.8-3.4v-2.9h-.1zm5.9 16.4l-14-3.7 7.6-8.3L78 28.6l-4.9 8.5zM73 71l-14.9-5.3V34.9l14.8 4.3L73 71z"/><path fill="#CDF999" d="M74.6 38.9l12.2-3.6-.2 29.9-11.8 5.4-.2-31.7z"/><path fill="#fff" d="M62 44.9l2.6.8-.1 3.8 3-2.8 2.6.7-3.5 3.9 3.1 7.4-2.9-1.3-2.3-5.7.1 4.8-2.6-1.1V44.9z"/></g><g transform="translate(1000)"><path fill="#BF6D36" d="M33 27.7c-1.2-.7-5.9-4.2-7.4-4.2 1.6 1.8 2.3 4.1 2.3 4.1h-1.8s-2.5 0-6.9 1.1c.4.9 3.1.5 4.9 1.4-5.6 3.5-9.5 10.5-9.5 18.5 0 1.7.2 3.3.5 4.9.5-.7 1.2-1.3 1.9-1.8-.1-1-.2-2-.2-3.1 0-7 3.2-13.1 8-16.4-.4 1.1-.9 1.9-.9 1.9s2.7-3 4.6-3c1.4 0 1.3 1.2 1.2 1.9.3-.6 1-1.4 3.1-1.4 2.6 0 2.8 1.4 2.9 1.9l.2-3s3.2 1.2 3.7 2.3c.3.7 0-.4-.2-1.3 5.3 3 8.9 9.5 8.9 17 0 1.2-.1 2.3-.3 3.4.7.6 1.3 1.2 1.8 2 .4-1.7.6-3.5.6-5.4 0-6.6-2.6-12.5-6.7-16.4-.3-1.5-3.1-3.4-3.1-3.4s2.7-1.6 3.9-1.2c-1.6-.9-7.1.5-7.1.5l-.9-2-.6 2.1h-.1c-.4-.5-2.5-2.6-4.5-2.9-.2.7 2.4 1.2 2 2.6-.1-.1-.2-.1-.3-.1zm6.4 9.7c-2.3 0-4.1 2.3-4.1 5.1s1.8 5.1 4.1 5.1 4.1-2.3 4.1-5.1-1.8-5.1-4.1-5.1zm-.1 8.8c-1.3 0-2.4-1.1-2.4-2.4 0-1.3 1.1-2.4 2.4-2.4 1.3 0 2.4 1.1 2.4 2.4 0 1.3-1.1 2.4-2.4 2.4zm-13.9-9.1c-2.3 0-4.1 2.3-4.1 5.1s1.8 5.1 4.1 5.1 4.1-2.3 4.1-5.1-1.8-5.1-4.1-5.1zm.1 8.7c-1.3 0-2.4-1.1-2.4-2.4 0-1.3 1.1-2.4 2.4-2.4s2.4 1.1 2.4 2.4c0 1.3-1.1 2.4-2.4 2.4zm4.1-12.7c-.1.3-.1.6-.1.6s.1-.3.1-.6zm6 .5v.2c-.1.1 0 0 0-.2zm7.2-7.7c1 0 1.8.2 2.3.5.6.3.8.9.7 1.5.7-.4 1.5-.9 2.2-1.3 0-3.4-1.5-6.7-4.3-8.9l-1.1-.9c-1.3-.6-2.3.3-1.4 1.4 2.3 2.8 2.6 5.2 1.6 7.7zm-23.9 1.4c1.4-.3 2.6-.6 3.6-.7-1.4-2.8-1.3-5.4 1.3-8.4.9-1.1-.1-1.9-1.4-1.4l-1.1.9c-2.8 2.2-4.2 5.4-4.3 8.7.6.3 1.2.7 1.8 1-.1 0 0-.1.1-.1zm2.2 3.3c-5.9-4-15.9-9.4-18.7-3.1-3 6.3 5.7 9.2 13.7 9.3 1.3-2.4 3-4.5 5-6.2zm41.9-3c-2.8-6.5-13.1-.8-18.9 3.2 1.9 1.7 3.5 3.7 4.8 6.1 8.1-.1 17.1-3 14.1-9.3z"/><path fill="#FFCB5A" d="M32.5 70.7c-1 0-1.9-.1-2.8-.3-.4.1-.8.3-1.2.4 1.3.4 2.7.6 4.1.6 1.3 0 2.6-.2 3.8-.5-.5-.1-.9-.2-1.3-.4-1 .1-1.8.2-2.6.2zm12.6-17.8c-2.6-1.9-7.4-3.1-12.9-3.1S21.9 51 19.3 52.9c-3.1 1.7-5.2 4.7-5.2 8.1 0 5.3 5 9.6 11.3 9.6 2.6 0 4.9-.7 6.8-2 1.9 1.2 4.2 2 6.8 2 6.2 0 11.3-4.3 11.3-9.6 0-3.4-2.1-6.4-5.2-8.1zM26 63c-.5 1.8-2.8 2.7-5 2s-3.6-2.7-3-4.5c.5-1.8 2.8-2.7 5-2s3.6 2.7 3 4.5zm18.1 2c-2.2.7-4.5-.2-5-2s.8-3.8 3-4.5 4.5.2 5 2c.6 1.8-.8 3.8-3 4.5z"/><path fill="#FD9652" d="M88.9 35.6s.4 3.4-2.4 5.5-4.7 2.7-6.7 2.8c-1.9.1-4.2-.4-5.7-1.4-1.5-.9-2.4-1.4-3.4-3.2s-1.1-2.4-1.4-4.2c-.3-1.8-.5-2.5-1.3-2.7s-1.3.2-1.6.5c-.3.3-.6 1.5-.6 1.5s-1.6.5-1.5 1.8.8 1.6.8 1.6-.9.7-.8 1.6.8 1.5.8 1.5-.8.6-.7 1.9c.1 1.3.4.7.7 1.3-.6.7-1 1.4-.8 2.2.3.8 1.4 1.3 1.4 1.3s.4 3.2 1 4.7c.7 1.5 3.1 5.1 5.3 6.3 2.2 1.2 3.9 1.8 6.2 1.9-.1.9.2 1.8.6 2.3.5.7 1 1.6 2.5 1.8.1.7.1 2.2.1 2.2s-1.6.2-1.7.6c-.2.4.2.6.5.6.4 0 1.6-.5 2.3-.5.7 0 2.8.3 3.2.4.5.1.6-.3.6-.3s-.1-.6-.3-.6c-.2 0-1.2-.2-1.2-.2l-1.1-.1H83l.1-2.3s.9-.3 1.7-1.1c.8-.8 1.2-1.9 1.1-3.1 1.1-.4 4.5-1.5 5.9-2.8s3-3.1 3.8-4.7c.7-1.7 1.4-3.8 1.3-7l-.2-6.4 3.3-2.2-3.4-1.7s2.3-1.5 1.4-3c-.9-1.6-2.2-.8-2.2-.8s-.2-1.7-1.6-2-1.7.7-1.7.7-1.4-1-2.3-.4c-1 .6-.9 1.7-.9 1.7s-1.4-.4-2.1.9c-.7 1.3.4 2.3.4 2.3l1.3.8z"/><path fill="#fff" d="M69.7 52.2s9 5.4 16.6 4.1c7.6-1.3 6.6-7.5 5.8-8.7-.8-1.3-3.7-3.7-7.6-2.8-3.9.9-6.5 1.7-8.5 3s-6.3 4.4-6.3 4.4zM94.3 34.7c-.6 0-1.1.5-1.1 1.1 0 .6.5 1.1 1.1 1.1s1.1-.5 1.1-1.1c.1-.6-.4-1.1-1.1-1.1z"/></g><g transform="translate(1200)"><path fill="#73CEF8" d="M83.9 37.6c-7.4.8-11.7 6.4-13.6 9.6-4.9-10-15.1-17-27-17-11.7 0-21.8 6.7-26.7 16.4l4.2 2.9-4 2.7c2.7 5.1 6.8 9.3 11.8 12.1 3.5-3.3 5.9-7.6 6.9-12.3-.1 4.9-1.6 9.6-4.4 13.5 3.7 1.7 7.8 2.6 12.2 2.6 11.8 0 22-6.8 26.9-16.7 1.8 3.1 6.1 9 13.7 9.8-.4-5-2.9-9.2-5.5-11.8 2.6-2.6 5.1-6.8 5.5-11.8zm-57.7 7.9c-1.5 0-2.8-1.2-2.8-2.8 0-1.5 1.2-2.8 2.8-2.8 1.6 0 2.8 1.2 2.8 2.8 0 1.6-1.3 2.8-2.8 2.8zm13.5 19c3.1-4.1 5-9.5 5-15.5s-1.9-11.4-5-15.5c4.7 3.5 7.7 9.1 7.7 15.5s-3 12-7.7 15.5zm13.4-2.4c2.6-3.4 4.1-7.9 4.1-12.8s-1.6-9.3-4.1-12.7c3.9 2.9 6.4 7.6 6.4 12.8s-2.5 9.8-6.4 12.7z"/><path fill="#FF6900" d="M55.6 31.3s6-1.2 7.6-1.3c-.3.9-1.9 3.8-3.2 4.2-.9-.7-1.9-1.9-4.4-2.9z"/><path fill="#FF7D27" d="M58.1 65.8s3.4-1.8 4.5-3.1c.9.5 3.7 3.7 3.7 3.7s-4.2.8-8.2-.6zM70.9 46.7s3.4-7.2 12.7-9.5c1.5 4.2-3 11-5.1 12.1 2.2 1.1 6.4 8.3 5.2 12-5-.4-11.2-4.4-13.1-9.6-.3-1.3-1.1-3.3.3-5z"/><path fill="#D2D2D2" d="M28.9 64.2c-3.5-.6-11.3-8-11.9-11.6l4.2-3.4-4.5-3.4s5.1-9.1 13.5-12.2c5.4 5.4 9.5 18.1-1.3 30.6zm-2.1-23.7c-1.2 0-2.1 1-2.1 2.1s1 2.1 2.1 2.1c1.2 0 2.1-1 2.1-2.1s-.9-2.1-2.1-2.1z"/></g><g transform="translate(1400)"><path fill="#C77946" d="M49.9 64.7c-2 3-5.9 3.1-8.8 1.8-5.3-2.4-8.8-5.9-10.4-10.3-.1 0-.2 0-.3.1-.3.1-.6.1-.9.2-.6.2-1.1.5-1.6.8s-1 .8-1.3 1.2c-.4.5-.7 1-.9 1.6.1-.6.3-1.2.6-1.8.3-.6.7-1.1 1.2-1.6s1-.9 1.6-1.2c.3-.2.6-.3.9-.4.1 0 .2-.1.3-.1-.2-1.3.2-2.5.9-3.3-.3-.3-.6-.7-.8-1-.4-.4-.8-.9-1.3-1.3-.9-.8-1.9-1.5-2.9-2.1 1.2.4 2.3.9 3.3 1.6.5.3 1.1.7 1.6 1 .4.3.7.5 1 .8.4-.3.7-.5 1.1-.6v-1c0-.4.1-.7.2-1.1.2-.7.5-1.4.9-2s.9-1.1 1.5-1.6c.6-.4 1.2-.8 1.8-1-.6.4-1.1.8-1.6 1.3s-.8 1.1-1.1 1.6c-.3.6-.4 1.2-.5 1.9v1c0 .2 0 .3.1.5v.3c.3 0 .6.2.9.4.1-.1.2-.2.3-.2.3-.2.7-.4 1.1-.5.7-.2 1.5-.3 2.2-.4 1.5 0 2.9.3 4.2.7-1.4-.2-2.8-.2-4.1 0-.7.1-1.3.3-1.9.6-.3.1-.5.3-.8.5-.1.1-.2.2-.3.2 5 7 8.6 3.1 12 5.1 2.9 1.5 3.9 5.3 1.8 8.3zm-1-5.2c-.2-1.1-.9-2.1-1.9-2.7-.6-.4-1.3-.5-2.2-.5h-1.5c-2.7 0-5.6-.7-8.7-5.5-.1-.1-.2-.2-.4-.2-.5 0-1.4.4-2 1.2-.4.5-.9 1.5-.5 2.8 1.3 4.2 4.5 7.5 9.5 9.8 1 .4 2 .7 3 .7 1.2 0 2.9-.3 3.9-1.9.8-1.2 1-2.5.8-3.7zm-1.5-11c-.4.6-.8 1.2-1.3 1.7-.3.4-.6.8-1 1.1-1 1-2.1 1.9-3.3 2.7l1.5-1.5s1-1 1.4-1.6c.4-.5.8-1.1 1.2-1.7.3-.6.6-1.2.6-1.8.1-.6 0-1.2-.3-1.8s-.6-1.1-1.1-1.6c-.9-1-2-1.7-3.2-2.3-2.4-1.1-5.2-1.3-7.8-.9-2.6.4-5.1 1.6-7.2 3.2-2.1 1.7-3.7 3.8-4.7 6.3s-1.4 5.2-.9 7.8c.2 1.3.7 2.6 1.4 3.7s1.6 2.2 2.7 2.7c.6.3 1.2.3 1.8.3.6-.1 1.3-.3 1.9-.6.6-.3 1.2-.6 1.8-1 .6-.4 1.2-.8 1.7-1.2-.7.7-1.4 1.3-2.1 1.9-.6.5-1.1.9-1.8 1.3-.8.4-1.7.8-2.6.9-1.9.4-3.8 0-5.5-.8-1.7-.8-3.2-2-4.5-3.4s-2.3-3.1-2.9-4.9c-.6-1.8-.9-3.8-.8-5.7.1-1.9.5-3.8 1.1-5.6s1.5-3.5 2.6-5.1 2.3-3 3.8-4.2c3-2.4 6.7-3.9 10.4-4.4 1.9-.2 3.8-.2 5.7.1.9.2 1.9.4 2.8.7.9.3 1.8.7 2.6 1.2 1.7.9 3.2 2.2 4.4 3.7s2.1 3.2 2.5 5.1c.2 1 .2 1.9 0 2.9-.1 1.1-.4 2-.9 2.8z"/><path fill="#6B5B87" d="M76.8 19.2l-.2-.2c-1.4-.3-3.2-.6-4.3-.3.6 1.3.7 2.8.4 4.4l-.2 1.1-1.1.2c-1.6.2-3.1 0-4.4-.6-.5.8-.5 2.9-.3 4.3 4.3 10.1-20.9 24.1-7.9 37.4 7 7.1 19.2 1.4 25.3-8.9 5.2-9 6.6-23.6-7.3-37.4z"/><path fill="#fff" d="M78.2 55.5C73.1 65.5 65 66.1 60.7 61c-6.7-8 6.6-17 9.2-26.6.8-3 1.1-7 4-4.7 6.7 5.4 7.4 19.6 4.3 25.8z"/><path fill="#33B11A" d="M65.9 15.4c-1-.9-2.2-1.7-3.6-1.9-1-.1-2.6.1-4.1 1.6-.5.5-.5 1.3 0 1.7.5.5 1.2.4 1.7 0 .7-.7 1.3-1 2-.9.8.1 1.5.5 2.2 1.1-2.1 2.8-2 6.8.5 9.4 2.3 2.4-.5-1.9 1.5-5.4.1.1.1.2.2.2 1.2 1.3 3 1.8 4.8 1.5.4-1.8 0-3.6-1.3-4.9l-.2-.2c3.6-1.8 7.8 1.2 5.5-1.2-2.4-2.5-6.3-2.9-9.2-1z"/></g><g transform="translate(1600)"><path fill="#FDE4A9" d="M16.1 62.5l-.2-8.9v-8.9L12.5 42l.9-4.6s2.1-.5 3-.5h13l6.2.2 5.3.9 4.1 1.6v2.7l-.5 2.7-1.4 1.6-2.1.5.2 16.9s0 1.4-1.1 1.4c-1.2.1-8.5.5-8.5.5l-8.7-.9-4.7-1.1-2.1-1.4z"/><path fill="#C77946" d="M54.1 39.8c-.5.5-1.2.9-1.9 1v14.3c0 1.1-.5 2.1-1.3 2.8l-9.3 8.5c-.7.6-1.6 1-2.6 1h-.3l-20.3-1.7c-2.2-.2-3.9-2-3.9-4.2v-16c-1.9-.4-3.3-2.1-3.3-4.1v-2.3c0-1.5.8-2.9 2.1-3.5L25 30c.2-.2.5-.3.8-.4.4-.1.7-.2 1.2-.2h.3l24.3 2c2 .2 3.5 1.8 3.5 3.8v2.1c.1 1-.3 1.9-1 2.5zm-10.4 1.8c0-.9-.7-1.7-1.6-1.8l-26.7-2.2c-.9-.1-1.6.6-1.6 1.5v2.3c0 .9.7 1.7 1.6 1.8 1 .1 1.6.8 1.6 1.8v16.5c0 .9.7 1.7 1.6 1.8l20.2 1.6c.9.1 1.6-.6 1.6-1.5V46.9c0-1 .6-1.6 1.6-1.6.9.1 1.6-.6 1.6-1.5l.1-2.2zm-8.5 16.6c-.3 0-.6-.3-.6-.6s.3-.6.6-.6.6.3.6.6-.3.6-.6.6zM31.8 50c-.7 0-1.2-.6-1.2-1.2 0-.7.6-1.2 1.2-1.2.7 0 1.2.6 1.2 1.2s-.5 1.2-1.2 1.2zm-2.2-7.2c-.5 0-.9-.4-.9-.9s.4-.9.9-.9.9.4.9.9-.4.9-.9.9zm-3.9 11c-.4 0-.8-.3-.8-.8 0-.4.3-.8.8-.8.4 0 .8.3.8.8-.1.4-.4.8-.8.8zm.1 5.8c0 .9-.7 1.6-1.6 1.6s-1.6-.7-1.6-1.6c0-.9.7-1.6 1.6-1.6.9 0 1.6.7 1.6 1.6zm-3.3-12.2c-.8 0-1.4-.6-1.4-1.4 0-.8.6-1.4 1.4-1.4s1.4.6 1.4 1.4c.1.8-.6 1.4-1.4 1.4z"/><path fill="#FFCB5A" d="M91.9 39.7c-2-3.8-7.3-5.3-13.8-4.5 1.3.6 2.6 1.3 3.8 2.3.7.5.8 1.5.3 2.1-.3.4-.7.6-1.2.6-.3 0-.6-.1-.9-.3-3.6-2.8-7.4-3.2-10.6-2.5-1.3.5-2.6 1.1-4 1.7-.2.1-.3.2-.4.3-.2.2-.4.2-.7.3h-.1c3.3.3 6.6 1.8 8.9 4.4.5.6.5 1.6-.1 2.1-.3.3-.6.4-1 .4s-.8-.2-1.1-.5c-3.2-3.6-8.8-4.5-13-2.4-2 1.5-3.7 3.1-5.2 4.7 4.8-1.2 10 .3 13.2 4.2.5.6.4 1.6-.2 2.1s-1.6.4-2.1-.2c-3.5-4.2-9.9-4.7-14.5-1.1-1.7 3.3-2 6.4-.7 8.9 3.3 6.3 15.6 6.3 27.6 0s19.1-16.4 15.8-22.6z"/></g></svg>