<svg baseProfile="tiny" xmlns="http://www.w3.org/2000/svg" preserveAspectRatio="xMinYMin meet" viewBox="0 0 25 60" width="25" height="60"><path fill="rgb( 227, 227, 227 )" d="M14.985 10.998h-4.022l-6.21 3.104.283-3.104h-2.046c-1.104 0-2-.896-2-2.001v-6.067c0-1.105.896-2 2-2h11.995c1.104 0 2 .895 2 2v6.067c0 1.105-.896 2.001-2 2.001z"/><path fill="rgb( 253, 219, 101 )" d="M14.985 30.998h-4.022l-6.21 3.104.283-3.104h-2.046c-1.104 0-2-.896-2-2.001v-6.067c0-1.105.896-2 2-2h11.995c1.104 0 2 .895 2 2v6.067c0 1.105-.896 2.001-2 2.001z"/><path stroke="rgb( 213, 96, 77 )" stroke-width=".62" fill="rgb( 127, 127, 127 )" d="M0 20l17 15m0-15l-17 15"/><path fill="rgb( 220, 220, 220 )" d="M5.752 45.591c0-1.816 1.472-3.287 3.287-3.287 1.816 0 3.287 1.471 3.287 3.287 0 1.816-1.471 3.1-3.287 3.1-1.815 0-3.287-1.284-3.287-3.1zm11.917 0c-2.094-2.617-4.634-4.614-8.424-4.614-3.791 0-6.331 1.997-8.424 4.614h.017c2.09 2.617 4.623 4.429 8.407 4.429 3.783 0 6.316-1.812 8.406-4.429h.018zm-10.274 0c0 .908.736 1.645 1.644 1.645.908 0 1.644-.737 1.644-1.645s-.736-1.644-1.644-1.644c-.908 0-1.644.736-1.644 1.644z"/></svg>