<svg baseProfile="tiny" xmlns="http://www.w3.org/2000/svg" preserveAspectRatio="xMinYMin meet" viewBox="0 0 1200 200" width="1200" height="200"><path fill="#5D92CE" d="M31.7 5.1c14.4 0 26 11.6 26 26s-11.6 26-26 26-26-11.6-26-26 11.6-26 26-26z"/><path fill="#fff" d="M31.8 9.3c12 0 21.7 9.7 21.7 21.7s-9.7 21.7-21.7 21.7S10.1 43 10.1 31 19.8 9.3 31.8 9.3z"/><path fill="#7F817F" d="M32.7 32.1c0 .6-.5 1-1 1H20.6c-.6 0-1-.4-1-1s.5-1 1-1h11.1c.5-.1 1 .4 1 1z"/><path fill="#818181" d="M31.9 14.5c.6 0 1 .5 1 1v15.6c0 .6-.5 1-1 1-.6 0-.9-.5-.9-1V15.5c0-.6.4-1 .9-1z"/><path fill="#FF6B22" d="M31.9 29.4c1.6 0 2.9 1.3 2.9 2.9s-1.3 2.9-2.9 2.9-2.9-1.4-2.9-2.9 1.3-2.9 2.9-2.9z"/><path fill="#fff" d="M31.9 30.6c.9 0 1.6.7 1.6 1.6 0 .9-.7 1.6-1.6 1.6s-1.6-.7-1.6-1.6c0-.8.7-1.6 1.6-1.6z"/><path fill="#5D92CE" d="M231.7 5.1c14.4 0 26 11.6 26 26s-11.6 26-26 26-26-11.6-26-26 11.6-26 26-26z"/><path fill="#fff" d="M231.8 9.3c12 0 21.7 9.7 21.7 21.7s-9.7 21.7-21.7 21.7S210.1 43 210.1 31s9.7-21.7 21.7-21.7z"/><path fill="#7F817F" d="M232.7 32.1c0 .6-.5 1-1 1h-11.1c-.6 0-1-.4-1-1s.5-1 1-1h11.1c.5-.1 1 .4 1 1z"/><path fill="#818181" d="M231.9 14.5c.6 0 1 .5 1 1v15.6c0 .6-.5 1-1 1-.6 0-.9-.5-.9-1V15.5c0-.6.4-1 .9-1z"/><path fill="#FF6B22" d="M231.9 29.4c1.6 0 2.9 1.3 2.9 2.9s-1.3 2.9-2.9 2.9-2.9-1.4-2.9-2.9 1.3-2.9 2.9-2.9z"/><path fill="#fff" d="M231.9 30.6c.9 0 1.6.7 1.6 1.6 0 .9-.7 1.6-1.6 1.6s-1.6-.7-1.6-1.6c0-.8.7-1.6 1.6-1.6z"/><path fill="#FBA328" d="M431.7 5.1c14.4 0 26 11.6 26 26s-11.6 26-26 26-26-11.6-26-26 11.6-26 26-26z"/><path fill="#fff" d="M431.8 9.3c12 0 21.7 9.7 21.7 21.7s-9.7 21.7-21.7 21.7S410.1 43 410.1 31s9.7-21.7 21.7-21.7z"/><path fill="#7F817F" d="M449.7 32.1c0 .6-.5 1-1 1h-16.4c-.6 0-1-.4-1-1s.5-1 1-1h16.3c.6-.1 1.1.4 1.1 1z"/><path fill="#818181" d="M431.9 19.5c.6 0 1 .5 1 1V32c0 .6-.5 1-1 1-.6 0-.9-.5-.9-1V20.5c0-.6.4-1 .9-1z"/><path fill="#18A9FF" d="M431.9 29.4c1.6 0 2.9 1.3 2.9 2.9s-1.3 2.9-2.9 2.9-2.9-1.4-2.9-2.9 1.3-2.9 2.9-2.9z"/><path fill="#fff" d="M431.9 30.6c.9 0 1.6.7 1.6 1.6 0 .9-.7 1.6-1.6 1.6s-1.6-.7-1.6-1.6c0-.8.7-1.6 1.6-1.6z"/><path fill="#FBA328" d="M631.7 5.1c14.4 0 26 11.6 26 26s-11.6 26-26 26-26-11.6-26-26 11.6-26 26-26z"/><path fill="#fff" d="M631.8 9.3c12 0 21.7 9.7 21.7 21.7s-9.7 21.7-21.7 21.7S610.1 43 610.1 31s9.7-21.7 21.7-21.7z"/><path fill="#7F817F" d="M649.7 32.1c0 .6-.5 1-1 1h-16.4c-.6 0-1-.4-1-1s.5-1 1-1h16.3c.6-.1 1.1.4 1.1 1z"/><path fill="#818181" d="M631.9 19.5c.6 0 1 .5 1 1V32c0 .6-.5 1-1 1-.6 0-.9-.5-.9-1V20.5c0-.6.4-1 .9-1z"/><path fill="#18A9FF" d="M631.9 29.4c1.6 0 2.9 1.3 2.9 2.9s-1.3 2.9-2.9 2.9-2.9-1.4-2.9-2.9 1.3-2.9 2.9-2.9z"/><path fill="#fff" d="M631.9 30.6c.9 0 1.6.7 1.6 1.6 0 .9-.7 1.6-1.6 1.6s-1.6-.7-1.6-1.6c0-.8.7-1.6 1.6-1.6z"/><path fill="#8B65A1" d="M831.7 5.1c14.4 0 26 11.6 26 26s-11.6 26-26 26-26-11.6-26-26 11.6-26 26-26z"/><path fill="#fff" d="M831.8 9.3c12 0 21.7 9.7 21.7 21.7s-9.7 21.7-21.7 21.7S810.1 43 810.1 31s9.7-21.7 21.7-21.7z"/><path fill="#7F817F" d="M832.7 32.1c0 .6-.5 1-1 1h-11.1c-.6 0-1-.4-1-1s.5-1 1-1h11.1c.5-.1 1 .4 1 1z"/><path fill="#818181" d="M831.9 14.5c.6 0 1 .5 1 1v15.6c0 .6-.5 1-1 1-.6 0-.9-.5-.9-1V15.5c0-.6.4-1 .9-1z"/><path fill="#FE6978" d="M831.9 29.4c1.6 0 2.9 1.3 2.9 2.9s-1.3 2.9-2.9 2.9-2.9-1.4-2.9-2.9 1.3-2.9 2.9-2.9z"/><path fill="#fff" d="M831.9 30.6c.9 0 1.6.7 1.6 1.6 0 .9-.7 1.6-1.6 1.6s-1.6-.7-1.6-1.6c0-.8.7-1.6 1.6-1.6z"/><path fill="#8B65A1" d="M1031.7 5.1c14.4 0 26 11.6 26 26s-11.6 26-26 26-26-11.6-26-26 11.6-26 26-26z"/><path fill="#fff" d="M1031.8 9.3c12 0 21.7 9.7 21.7 21.7s-9.7 21.7-21.7 21.7-21.7-9.7-21.7-21.7 9.7-21.7 21.7-21.7z"/><path fill="#7F817F" d="M1032.7 32.1c0 .6-.5 1-1 1h-11.1c-.6 0-1-.4-1-1s.5-1 1-1h11.1c.5-.1 1 .4 1 1z"/><path fill="#818181" d="M1031.9 14.5c.6 0 1 .5 1 1v15.6c0 .6-.5 1-1 1-.6 0-.9-.5-.9-1V15.5c0-.6.4-1 .9-1z"/><path fill="#FE6978" d="M1031.9 29.4c1.6 0 2.9 1.3 2.9 2.9s-1.3 2.9-2.9 2.9-2.9-1.4-2.9-2.9 1.3-2.9 2.9-2.9z"/><path fill="#fff" d="M1031.9 30.6c.9 0 1.6.7 1.6 1.6 0 .9-.7 1.6-1.6 1.6s-1.6-.7-1.6-1.6c0-.8.7-1.6 1.6-1.6z"/></svg>