<svg baseProfile="tiny" xmlns="http://www.w3.org/2000/svg" preserveAspectRatio="xMinYMin meet" viewBox="0 0 600 200" width="600" height="200"><path fill="rgb( 136, 207, 252 )" d="M1.68.012h59.69c.928 0 1.68.752 1.68 1.68V59.32c0 .928-.752 1.68-1.68 1.68H1.68C.752 61 0 60.248 0 59.32V1.692C0 .764.752.012 1.68.012z"/><path fill="rgb( 93, 146, 206 )" d="M31.678 5.086c14.362 0 26.005 11.642 26.005 26.004 0 14.362-11.643 26.005-26.005 26.005-14.362 0-26.005-11.643-26.005-26.005 0-14.362 11.643-26.004 26.005-26.004z"/><path fill="rgb( 255, 255, 255 )" d="M31.803 9.286c11.973 0 21.68 9.706 21.68 21.678 0 11.973-9.707 21.678-21.68 21.678-11.972 0-21.678-9.705-21.678-21.678 0-11.972 9.706-21.678 21.678-21.678z"/><path fill="rgb( 127, 129, 127 )" d="M32.678 32.056c0 .556-.45.97-1.008.97H20.58c-.556 0-1.007-.414-1.007-.97 0-.557.45-1.046 1.008-1.046h11.09c.557 0 1.008.49 1.008 1.046z"/><path fill="rgb( 129, 129, 129 )" d="M31.922 14.46c.557 0 1.008.452 1.008 1.01v15.624c0 .557-.45 1.008-1.008 1.008-.557 0-.878-.45-.878-1.008V15.47c0-.558.32-1.01.878-1.01z"/><path fill="rgb( 255, 107, 34 )" d="M31.854 29.396c1.576 0 2.854 1.278 2.854 2.854s-1.278 2.854-2.854 2.854S29 33.826 29 32.25s1.278-2.854 2.854-2.854z"/><path fill="rgb( 255, 255, 255 )" d="M31.868 30.636c.883 0 1.6.716 1.6 1.6 0 .882-.717 1.598-1.6 1.598-.883 0-1.6-.716-1.6-1.6 0-.882.717-1.598 1.6-1.598z"/><g transform="translate(200)"><path fill="rgb( 255, 190, 99 )" d="M1.68.012h59.69c.928 0 1.68.752 1.68 1.68V59.32c0 .928-.752 1.68-1.68 1.68H1.68C.752 61 0 60.248 0 59.32V1.692C0 .764.752.012 1.68.012z"/><path fill="rgb( 251, 163, 40 )" d="M31.678 5.086c14.362 0 26.005 11.642 26.005 26.004 0 14.362-11.643 26.005-26.005 26.005-14.362 0-26.005-11.643-26.005-26.005 0-14.362 11.643-26.004 26.005-26.004z"/><path fill="rgb( 255, 255, 255 )" d="M31.803 9.286c11.973 0 21.68 9.705 21.68 21.678s-9.707 21.678-21.68 21.678c-11.972 0-21.678-9.705-21.678-21.678S19.83 9.286 31.803 9.286z"/><path fill="rgb( 127, 129, 127 )" d="M49.678 32.056c0 .557-.45.97-1.008.97H32.34c-.557 0-1.008-.413-1.008-.97 0-.557.45-1.047 1.008-1.047h16.33c.557 0 1.008.49 1.008 1.046z"/><path fill="rgb( 129, 129, 129 )" d="M31.922 19.46c.557 0 1.008.452 1.008 1.01v11.514c0 .557-.45 1.008-1.008 1.008-.557 0-.878-.45-.878-1.008V20.47c0-.558.32-1.01.878-1.01z"/><path fill="rgb( 24, 169, 255 )" d="M31.854 29.396c1.576 0 2.854 1.278 2.854 2.854s-1.278 2.853-2.854 2.853S29 33.826 29 32.25c0-1.576 1.278-2.854 2.854-2.854z"/><path fill="rgb( 255, 255, 255 )" d="M31.868 30.636c.883 0 1.6.716 1.6 1.6 0 .882-.717 1.598-1.6 1.598-.883 0-1.6-.716-1.6-1.6 0-.882.717-1.598 1.6-1.598z"/></g><g transform="translate(400)"><path fill="rgb( 200, 160, 225 )" d="M1.68.012h59.69c.928 0 1.68.752 1.68 1.68V59.32c0 .928-.752 1.68-1.68 1.68H1.68C.752 61 0 60.248 0 59.32V1.692C0 .764.752.012 1.68.012z"/><path fill="rgb( 139, 101, 161 )" d="M31.678 5.086c14.362 0 26.005 11.642 26.005 26.004 0 14.362-11.643 26.005-26.005 26.005-14.362 0-26.005-11.643-26.005-26.005 0-14.362 11.643-26.004 26.005-26.004z"/><path fill="rgb( 255, 255, 255 )" d="M31.803 9.286c11.973 0 21.68 9.705 21.68 21.678s-9.707 21.678-21.68 21.678c-11.972 0-21.678-9.705-21.678-21.678S19.83 9.286 31.803 9.286z"/><path fill="rgb( 127, 129, 127 )" d="M32.678 32.056c0 .557-.45.97-1.008.97H20.58c-.556 0-1.007-.413-1.007-.97 0-.557.45-1.047 1.008-1.047h11.09c.557 0 1.008.49 1.008 1.046z"/><path fill="rgb( 129, 129, 129 )" d="M31.922 14.46c.557 0 1.008.452 1.008 1.01v15.624c0 .557-.45 1.008-1.008 1.008-.557 0-.878-.45-.878-1.008V15.47c0-.558.32-1.01.878-1.01z"/><path fill="rgb( 254, 105, 120 )" d="M31.854 29.396c1.576 0 2.854 1.278 2.854 2.854s-1.278 2.853-2.854 2.853S29 33.826 29 32.25c0-1.576 1.278-2.854 2.854-2.854z"/><path fill="rgb( 255, 255, 255 )" d="M31.868 30.636c.883 0 1.6.716 1.6 1.6 0 .882-.717 1.598-1.6 1.598-.883 0-1.6-.716-1.6-1.6 0-.882.717-1.598 1.6-1.598z"/></g></svg>