<?xml version="1.0" encoding="utf-8"?>
<!-- Generator: Adobe Illustrator 17.1.0, SVG Export Plug-In . SVG Version: 6.00 Build 0)  -->
<!DOCTYPE svg PUBLIC "-//W3C//DTD SVG 1.1//EN" "http://www.w3.org/Graphics/SVG/1.1/DTD/svg11.dtd">
<svg version="1.1" id="Слой_1" xmlns:ev="http://www.w3.org/2001/xml-events"
	 xmlns="http://www.w3.org/2000/svg" xmlns:xlink="http://www.w3.org/1999/xlink" x="0px" y="0px" width="126.7px" height="100px"
	 viewBox="-44.3 -35 126.7 100" enable-background="new -44.3 -35 126.7 100" xml:space="preserve">
<path fill="#E5E3E3" d="M72.6,54.4h-7.8v-7.8h6.5c1.9,0,3.5-1.5,3.5-3.5v-66c0-1.9-1.5-3.5-3.5-3.5h-89.9c-1.9,0-3.5,1.5-3.5,3.5
	v3.4h-6.8v-4.7c0-4.8,4-8.8,8.9-8.8l92.9,0c4.8,0,8.6,3.9,8.6,8.8v69.8C81.5,50.4,77.4,54.4,72.6,54.4z"/>
<path fill="#E5E3E3" d="M68.2-10.7v65.8c0,4.8-4.1,8.8-8.9,8.8l-93.2,0c-4.8,0-8.7-3.9-8.6-8.7v-65.9c0-4.8,4-8.8,8.9-8.8l93.2,0
	C64.4-19.4,68.2-15.5,68.2-10.7z M61.4,20.1V-8.6c0-2.4-2-4.4-4.4-4.4h-88.3c-2.4,0-4.4,2-4.4,4.4l0,56.1c8.2-8,19.8-20.6,24.6-24.2
	c4.1-3.2,5.7-1.8,7.3-0.2c2.9,2.8,27.5,27.1,27.5,27.1c0.4,0.4,0.8,0.5,1.3,0.5c0.5,0,1-0.2,1.4-0.6c0.7-0.7,0.7-1.9,0-2.7
	L11.6,32.9C19.4,26.8,39.7,10.8,41,9.8c1.8-1.4,3.7-2.5,7.4,0.1C51.3,11.9,56.2,16.1,61.4,20.1z"/>
<path fill="#E5E3E3" d="M15.7,5c0,6.2-4.8,10.5-10.7,10.5C-0.9,15.5-5.7,11.2-5.7,5C-5.7-1.2-0.9-6.2,5-6.2
	C10.9-6.2,15.7-1.2,15.7,5z"/>
</svg>
