<?xml version="1.0" encoding="utf-8"?>
<!DOCTYPE svg PUBLIC "-//W3C//DTD SVG 1.1//EN" "http://www.w3.org/Graphics/SVG/1.1/DTD/svg11.dtd">
<svg version="1.1" baseProfile="full"
 xmlns="http://www.w3.org/2000/svg"
 xmlns:xlink="http://www.w3.org/1999/xlink"
 xmlns:ev="http://www.w3.org/2001/xml-events" 
  height="111px" 
  width="136px" 
>
<path fill="rgb( 255, 255, 255 )"
 d="M8.54599999999999,18.208 C8.54599999999999,18.208 114.545,18.565 114.545,18.565 C116.202,18.57 117.541,19.918 117.535,21.575 C117.535,21.575 117.269,100.575 117.269,100.575 C117.264,102.231 115.916,103.57 114.259,103.564 C114.259,103.564 8.25999999999999,103.208 8.25999999999999,103.208 C6.60300000000001,103.202 5.26499999999999,101.854 5.27000000000001,100.197 C5.27000000000001,100.197 5.536,21.198 5.536,21.198 C5.542,19.541 6.88900000000001,18.202 8.54599999999999,18.208 Z "/>
<path fill="rgb( 239, 239, 239 )"
 d="M71.418,42.206 C71.435,49.628 64.929,55.679 56.877,55.696 C48.83,55.717 42.254,49.707 42.247,42.28 C42.233,34.868 48.739,28.806 56.775,28.784 C64.844,28.802 71.398,34.775 71.418,42.206 ZM121.952,23.336 C121.952,23.336 122.009,100.579 122.009,100.579 C121.998,105.761 118.176,110.023 112.991,110.037 C112.991,110.037 10.354,110.04 10.354,110.04 C5.15700000000001,110.054 1.00899999999999,105.817 1.01900000000001,100.637 C1.01900000000001,100.637 0.81,23.383 0.81,23.383 C0.804,18.192 5.13900000000001,13.94 10.336,13.926 C10.336,13.926 113.034,13.928 113.034,13.928 C118.206,13.927 121.954,18.148 121.952,23.336 ZM114.097,60.865 C114.097,60.865 114.004,26.616 114.004,26.616 C113.997,24.017 112.378,21.911 109.772,21.918 C109.772,21.918 13.569,21.918 13.569,21.918 C10.974,21.925 8.86199999999999,24.042 8.86699999999999,26.641 C8.86699999999999,26.641 9.02600000000001,90.512 9.02600000000001,90.512 C17.881,81.851 31.322,68.535 36.436,64.571 C40.877,61.131 42.57,62.624 44.331,64.287 C47.495,67.317 74.076,93.396 74.076,93.396 C74.478,93.792 74.986,93.983 75.493,93.982 C76.017,93.98 76.54,93.779 76.945,93.372 C77.713,92.563 77.696,91.275 76.903,90.487 C76.903,90.487 61.04,74.865 61.04,74.865 C69.402,68.249 91.27,50.944 92.598,49.872 C94.552,48.31 96.555,47.112 100.529,49.918 C103.683,52.087 108.576,56.621 114.097,60.865 Z "/>
<path fill="rgb( 239, 239, 239 )"
 d="M127.137,96.955 C127.137,96.955 127.137,19.721 127.137,19.721 C127.137,19.721 127.021,19.619 127.021,19.619 C127.021,19.619 127.004,13.616 127.004,13.616 C126.997,11.017 125.378,8.911 122.772,8.91800000000001 C122.772,8.91800000000001 26.569,8.91800000000001 26.569,8.91800000000001 C26.299,8.91900000000001 26.037,8.95500000000001 25.779,9 C25.779,9 13.925,9 13.925,9 C14.61,4.459 18.61,0.93899999999999 23.336,0.92599999999999 C23.336,0.92599999999999 126.034,0.928 126.034,0.928 C131.206,0.92699999999999 134.954,5.148 134.952,10.336 C134.952,10.336 135.009,87.579 135.009,87.579 C134.999,92.371 131.728,96.367 127.137,96.955 Z "/>
</svg>
