<?xml version="1.0" encoding="UTF-8"?>
<!DOCTYPE svg PUBLIC "-//W3C//DTD SVG 1.1//EN" "http://www.w3.org/Graphics/SVG/1.1/DTD/svg11.dtd">
<!-- Creator: CorelDRAW -->
<svg xmlns="http://www.w3.org/2000/svg" xml:space="preserve" width="58px" height="58px" style="shape-rendering:geometricPrecision; text-rendering:geometricPrecision; image-rendering:optimizeQuality; fill-rule:evenodd; clip-rule:evenodd"
viewBox="0 0 4.21321 4.21321"
 xmlns:xlink="http://www.w3.org/1999/xlink">
 <defs>
  <style type="text/css">
   <![CDATA[
    .fil1 {fill:#7FCEFF}
    .fil0 {fill:#A3DCFF}
   ]]>
  </style>
 </defs>
 <g id="Слой_x0020_1">
  <metadata id="CorelCorpID_0Corel-Layer"/>
  <g id="_390733792">
   <path id="_390733936" class="fil0" d="M1.73769 0.49517c-0.18329,0.0418212 -0.35499,0.114119 -0.509479,0.211273l-0.350329 -0.350309 -0.521743 0.521743 0.350288 0.350309c-0.0971536,0.154489 -0.169411,0.326189 -0.211232,0.509499l-0.495191 0 0 0.73786 0.495191 0c0.0418212,0.18329 0.114078,0.35501 0.211232,0.509499l-0.350288 0.350288 0.521743 0.521743 0.350329 -0.350309c0.15451,0.0971536 0.326189,0.169472 0.509479,0.211293l0 0.49515 0.73786 0 0 -0.49515c0.18329,-0.0418212 0.35499,-0.114119 0.509479,-0.211273l0.350309 0.350288 0.521743 -0.521743 -0.350288 -0.350288c0.0971536,-0.154489 0.169431,-0.326209 0.211252,-0.509499l0.49517 0 0 -0.73786 -0.49517 0c-0.0418212,-0.18331 -0.114099,-0.35501 -0.211252,-0.509499l0.350288 -0.350309 -0.521743 -0.521743 -0.350329 0.350309c-0.154489,-0.0971536 -0.326189,-0.169431 -0.509458,-0.211273l0 -0.49517 -0.73786 0 0 0.49517zm0.36891 0.61162c-0.552097,0 -0.999805,0.447708 -0.999805,0.999825 0,0.552097 0.447708,0.999805 0.999805,0.999805 0.552118,0 0.999825,-0.447708 0.999825,-0.999805 0,-0.552118 -0.447708,-0.999825 -0.999825,-0.999825z"/>
   <path id="_390733840" class="fil1" d="M2.08693 4.21321l0.388614 0 0 -0.49515c0.18329,-0.0418212 0.35499,-0.114119 0.509479,-0.211273l0.350309 0.350288 0.521743 -0.521743 -0.350288 -0.350288c0.0971536,-0.154489 0.169431,-0.326209 0.211252,-0.509499l0.49517 0 0 -0.73786 -0.49517 0c-0.0418212,-0.18331 -0.114099,-0.35501 -0.211252,-0.509499l0.350288 -0.350309 -0.521743 -0.521743 -0.350329 0.350309c-0.154489,-0.0971536 -0.326189,-0.169431 -0.509458,-0.211273l0 -0.49517 -0.388614 0 0 1.10704c0.00654095,-0.000122643 0.0131023,-0.000245286 0.0196637,-0.000245286 0.552118,0 0.999825,0.447708 0.999825,0.999825 0,0.552097 -0.447708,0.999805 -0.999825,0.999805 -0.00656139,0 -0.0131228,-0.000122643 -0.0196637,-0.000245286l0 1.10704z"/>
  </g>
 </g>
</svg>
