<?xml version="1.0" encoding="UTF-8"?>
<!DOCTYPE svg PUBLIC "-//W3C//DTD SVG 1.1//EN" "http://www.w3.org/Graphics/SVG/1.1/DTD/svg11.dtd">
<!-- Creator: CorelDRAW -->
<svg xmlns="http://www.w3.org/2000/svg" xml:space="preserve" width="51px" height="38px" style="shape-rendering:geometricPrecision; text-rendering:geometricPrecision; image-rendering:optimizeQuality; fill-rule:evenodd; clip-rule:evenodd"
viewBox="0 0 2.00627 1.49279"
 xmlns:xlink="http://www.w3.org/1999/xlink">
 <defs>
  <style type="text/css">
   <![CDATA[
    .fil6 {fill:#83C9F7}
    .fil10 {fill:#84D67B}
    .fil5 {fill:#8CDB83}
    .fil1 {fill:#8DD0FC}
    .fil0 {fill:#8ED3FC}
    .fil9 {fill:#B49EDB}
    .fil4 {fill:#BBA6E0}
    .fil8 {fill:#FF9B3D}
    .fil3 {fill:#FFA44F}
    .fil7 {fill:#FFE641}
    .fil2 {fill:#FFED7A}
    .fil11 {fill:#76C8F7;fill-rule:nonzero}
   ]]>
  </style>
 </defs>
 <g id="Слой_x0020_1">
  <metadata id="CorelCorpID_0Corel-Layer"/>
  <g id="_357191392">
   <path id="_357192472" class="fil0" d="M1.79976 0.331975l0 1.03026c-0.000332796,0.0717287 -0.0608574,0.130567 -0.132642,0.130567l-1.53823 -0.000133119c-0.0719173,0 -0.129225,-0.0588384 -0.128892,-0.130567l0 -1.03047c0.000133119,-0.0718618 0.0603138,-0.130556 0.132242,-0.130556l1.53904 0.000266237c0.0716511,0.000199678 0.128681,0.0587718 0.128482,0.130634zm-0.124588 0.96623l-0.000133119 -0.913304c0,-0.0360308 -0.038316,-0.065217 -0.0744133,-0.065217l-1.40207 0c-0.0358976,0 -0.065217,0.0291973 -0.0652836,0.065217l0.00220755 0.907159c0.0021188,0.0489876 0.0256253,0.0735924 0.0705528,0.0738475l1.40215 -0.000499195c0.0476121,-0.000965109 0.0670141,-0.0233623 0.0669919,-0.0672027z"/>
   <rect id="_357192376" class="fil1" x="0.278762" y="0.417322" width="0.371112" height="0.371112" rx="0.0444505" ry="0.0444505"/>
   <rect id="_357192280" class="fil2" x="0.718657" y="0.417322" width="0.371112" height="0.371112" rx="0.0444505" ry="0.0444505"/>
   <rect id="_357192184" class="fil3" x="1.16325" y="0.417322" width="0.371112" height="0.371112" rx="0.0444505" ry="0.0444505"/>
   <rect id="_357192088" class="fil4" x="0.276655" y="0.901474" width="0.371112" height="0.371112" rx="0.0444172" ry="0.0444172"/>
   <rect id="_357191992" class="fil5" x="0.71655" y="0.901474" width="0.371112" height="0.371112" rx="0.0444172" ry="0.0444172"/>
   <path id="_357191896" class="fil6" d="M0.63157 0.426678c0.0104831,0.00815351 0.0172499,0.0208663 0.0172499,0.0350989l0 0.282211c0,0.0244494 -0.0200011,0.0444505 -0.0444505,0.0444505l-0.282211 0c-0.019757,0 -0.0366298,-0.0130678 -0.042365,-0.0310055l0.351777 -0.330755z"/>
   <path id="_357191800" class="fil7" d="M1.07177 0.426678c0.010472,0.00815351 0.0172389,0.0208663 0.0172389,0.0350989l0 0.282211c0,0.0244494 -0.01999,0.0444505 -0.0444505,0.0444505l-0.282211 0c-0.019757,0 -0.0366298,-0.0130678 -0.042365,-0.0310055l0.351788 -0.330755z"/>
   <path id="_357191704" class="fil8" d="M1.51796 0.426678c0.010472,0.00815351 0.0172389,0.0208663 0.0172389,0.0350989l0 0.282211c0,0.0244494 -0.01999,0.0444505 -0.0444505,0.0444505l-0.282211 0c-0.0197459,0 -0.0366298,-0.0130678 -0.042365,-0.0310055l0.351788 -0.330755z"/>
   <path id="_357191608" class="fil9" d="M0.630949 0.911285c0.010472,0.00814242 0.0172389,0.0208663 0.0172389,0.0350878l0 0.282211c0,0.0244605 -0.0200011,0.0444505 -0.0444505,0.0444505l-0.282211 0c-0.019757,0 -0.0366298,-0.0130678 -0.042365,-0.0309944l0.351788 -0.330755z"/>
   <path id="_357191512" class="fil10" d="M1.07116 0.911285c0.010472,0.00814242 0.0172389,0.0208663 0.0172389,0.0350878l0 0.282211c0,0.0244605 -0.01999,0.0444505 -0.0444505,0.0444505l-0.282211 0c-0.0197459,0 -0.0366298,-0.0130678 -0.0423539,-0.0309944l0.351777 -0.330755z"/>
   <path id="_357191464" class="fil11" d="M0.314437 0l1.49082 0c0.114083,0 0.201009,0.0869375 0.201009,0.201009l0 0.988161c-0.000632313,0.059859 -0.0857505,0.122602 -0.133008,0.124122l0 -1.09499c0,-0.0414775 -0.0361639,-0.0853179 -0.0815018,-0.0853179l-1.59596 0c0.00360529,-0.0635752 0.037373,-0.129114 0.118642,-0.132985z"/>
  </g>
 </g>
</svg>
