<?xml version="1.0" encoding="utf-8"?>
<!-- Generator: Adobe Illustrator 17.1.0, SVG Export Plug-In . SVG Version: 6.00 Build 0)  -->
<!DOCTYPE svg PUBLIC "-//W3C//DTD SVG 1.1//EN" "http://www.w3.org/Graphics/SVG/1.1/DTD/svg11.dtd">
<svg version="1.1" id="Layer_1" xmlns="http://www.w3.org/2000/svg" xmlns:xlink="http://www.w3.org/1999/xlink" x="0px" y="0px"
	 width="260px" height="260px" viewBox="0 0 260 260" enable-background="new 0 0 260 260" xml:space="preserve">
<g>
	<path fill="#A74C58" d="M110.2,36.7c0,0-38.4,2.2-53.6,21.7c-15.2,19.5,6.5,44.9,6.5,44.9S138.5,88.8,110.2,36.7z"/>
	<path fill="#F7FCFE" d="M66.8,109c0,9.2-7.4,16.6-16.6,16.6c-9.2,0-16.6-7.4-16.6-16.6c0-9.2,7.4-16.6,16.6-16.6
		C59.4,92.4,66.8,99.8,66.8,109z"/>
	<path fill="#ECF4F8" d="M53.2,92.7c3.9,2.9,6.4,7.5,6.4,12.7c0,8.8-7.1,15.9-15.9,15.9c-2,0-3.9-0.4-5.7-1.1
		c3,3.3,7.4,5.4,12.3,5.4c9.2,0,16.6-7.4,16.6-16.6C66.8,100.8,61,94.1,53.2,92.7z"/>
	<path fill="#FACCAE" d="M70.4,79.1c0,0-10.4,11-11.9,30c-1.5,19-12.2,34.7-22.9,40.7c0,0-2.1,1.5,3,5.3c5,3.9,16,6.2,15.7,9.2
		c-0.3,3-7.4,51.9,3.6,57.3c11,5.3,28.8-18.1,44.2-25.2c15.4-7.1,31.8-7.7,31.8-7.7s70.7-26.1,60-77.5
		C183.2,59.8,102.1,43.8,70.4,79.1z"/>
	<path fill="#EBB38E" d="M72.1,77.3c4.1,6.5,26,42.7,17.4,49.5c-9.5,7.5-24,8-31-8c0,0,3.5,15.6,18,16.6c14.5,1,22-3.1,28-9.1
		c6-6,17.5,16,18,33.5c0.3,10.2-4.1,23-7.9,32c10.7-2.9,19.3-3.2,19.3-3.2s70.7-26.1,60-77.5C183.4,60.7,105,44.4,72.1,77.3z"/>
	<path fill="#C1CCE4" d="M36.5,99.6c2.4,3.2,8.5,8.4,20.4,4.2c0,0,3.3,3.3,9.8,6c0-0.3,0-0.5,0-0.8c0-9.2-7.4-16.6-16.6-16.6
		C44.5,92.4,39.5,95.2,36.5,99.6z"/>
	<circle fill="#6A3A09" cx="50.2" cy="118.8" r="3.4"/>
	<path fill="#AEBDDB" d="M61.5,96.8c-3-2.7-6.9-4.4-11.2-4.4c-1,0-1.9,0.1-2.8,0.3c2.3,1.5,8.2,6.1,3,11.7l6.3-0.5
		c0.1,0,0.1,0,0.1,0c0,0,0,0,0,0l1.2-0.1C58.2,103.7,57.9,100.8,61.5,96.8z"/>
	<path fill="#FFFFFF" d="M99.6,111c0,12-9.7,21.8-21.8,21.8c-12,0-21.7-9.7-21.7-21.8c0-12,9.7-21.8,21.7-21.8
		C89.9,89.3,99.6,99,99.6,111z"/>
	<path fill="#ECF4F8" d="M78.7,89.3c7.1,3.6,12,10.9,12,19.4c0,12-9.7,21.8-21.8,21.8c-0.3,0-0.5,0-0.8,0c2.9,1.5,6.2,2.3,9.7,2.3
		c12,0,21.8-9.7,21.8-21.8C99.6,99.3,90.3,89.8,78.7,89.3z"/>
	<path fill="#C1CCE4" d="M99.6,110.8c-0.1-11.9-9.8-21.5-21.7-21.5c-9.6,0-17.7,6.2-20.6,14.8C59.5,106.1,73.6,117.7,99.6,110.8z"/>
	<path fill="#6A3A09" d="M85.6,123.9c0,2.8-2.3,5.1-5.1,5.1c-2.8,0-5.1-2.3-5.1-5.1c0-2.8,2.3-5.1,5.1-5.1
		C83.3,118.7,85.6,121,85.6,123.9z"/>
	<path fill="#AEBDDB" d="M99.5,109.7c-0.7-11.4-10.1-20.4-21.7-20.4c-2.3,0-4.6,0.4-6.7,1.1c6.2-1.6,12.2,1.8,14.9,8.6
		c3.6,8.9-0.3,14-0.3,14S93,111.7,99.5,109.7z"/>
	<path fill="#6A3A09" d="M35.2,97.5c0,0,5.3,12.1,21.8,6.3c0,0,18.9,19.4,56.6,1.9c0,0-30,10.6-55.2-3.9c0,0-10.1,3.6-17.3-0.6
		c-7.1-4.2-6.8-7.7-6.8-7.7S34.1,95.4,35.2,97.5z"/>
	<path fill="#D7515E" d="M94.9,178.2c0,0-7.1,8.3-16.2,6.8c-9.1-1.5-13.3-11.8-17.7-15c-4.4-3.2-8.5,2.9-8.5,2.9s-2.1-1.5-5.6-1.5
		c-3.5,0-4.7,6.8,0.6,15.6c0,0,2.1,2.1,3.5,2.1c1.5,0,2.9,2.4,4.4,2.4c1.5,0,1.8-2.9,5.6-2.7c3.8,0.3,14.7,2.9,23.6-1.2
		c8.8-4.1,11.2-8.3,11.2-8.3s1.8,0,1.5,2.4c0,0,2.9-5.3-4.4-8C92.8,173.7,95.8,176.7,94.9,178.2z"/>
	<path fill="#EA6A70" d="M61,188.8c-3.8-0.3-4.1,2.7-5.6,2.7c-1.5,0-2.9-2.4-4.4-2.4c-1.1,0-2.6-1.2-3.2-1.8
		c-2.2,2.8-3.9,8.6-2.9,15.3c1.2,8.8,7.4,10.9,14.7,7.1c6.4-3.3,18.3-17.3,21.2-20.7C72.8,191,64.3,189,61,188.8z"/>
	<path fill="#EBB38E" d="M59.5,209.7c-2.4,1.3-4.7,1.9-6.7,1.8c0.1,0.3,0.1,0.7,0.2,1c1.4,1.9,3.7,2.1,6.5,1.1
		c4.3-1.7,15.3-17.5,15.3-17.5s-0.2,0-0.4,0.1C69.7,201.4,63.6,207.6,59.5,209.7z"/>
	<path fill="#ED7E80" d="M52.3,201.7c0,0-1.5-12.5-4.7-10.4c-3.2,2.1-1.8,15,0.3,16.6C50,209.5,53,207,52.3,201.7z"/>
	<path fill="#ED7E80" d="M63.9,193.1c0,0-6.9,1.3-9,8c-2.1,6.7-0.2,8.6,3.8,6.8c4-1.8,10.9-10.2,9.9-12.6
		C67.6,193,63.9,193.1,63.9,193.1z"/>
	<path fill="#F29EA1" d="M46.8,195.9c0,0-0.7,4.6,0.7,6.6C48.8,204.5,48.4,192.7,46.8,195.9z"/>
	<path fill="#F29E9B" d="M60.4,171.9c0,0-2.6-0.7-4,1.9c-1.4,2.5-3.5,0.9-2.7-1.2C54.5,170.4,59.9,168.1,60.4,171.9z"/>
	<path fill="#F29E9B" d="M50.4,173.3c0,0-2.8-2.1-4.9-0.1c-2,2-0.3,8.7,0.7,9.1c1,0.5-1.4-6.7,0.7-7.4
		C49,174.3,52.1,175.1,50.4,173.3z"/>
	<path fill="#C25965" d="M137,36.7c0,0-50-8-64.4,21.7c-14.5,29.7,16.7,34.7,46.3,76.7c29.7,42-2.9,83.3-2.9,83.3
		s14.5-8.7,21.7-18.8c0,0-6.5,16.6-15.2,24.6c0,0,66.6,6.5,97-64.4C250,88.8,170.3,36.7,137,36.7z"/>
	<path fill="#EBB38E" d="M64.4,162.3c4.9-3,2.6-8,2.6-8c0,3-4.7,2.6-4.7,2.6c-12.2,0.2-25.7-5.5-27.1-6.1c0,0.8,0.7,2.2,3.4,4.3
		c5,3.9,16,6.2,15.7,9.2c0,0.5-0.3,2.2-0.6,4.8C55.7,165.8,60,165,64.4,162.3z"/>
	<path fill="#CB9B7D" d="M51.7,157.9c0,0,9.9,0.7,8.6,3.2C58.9,163.6,51.7,157.9,51.7,157.9z"/>
	<path fill="#D4898D" d="M117.5,38.8c0,0-35.5-0.7-42,23.2c-6.5,23.9,47.8,45.6,60.1,90.5c0,0,10.9-8,2.2-29
		c-8.7-21,18.8-16.6,29,7.2c10.1,23.9,2.2-19.5-9.4-34c-11.6-14.5,0-19.5,13-10.1c13,9.4,7.2-17.4-1.5-23.9
		c-8.7-6.5,26.8,10.9,26.8,10.9s-11.6-15.9-34-24.6c-22.4-8.7,0,9.2,4.5,19.9c4.5,10.7-4,2.4-15,0.3c-11-2.1-19.6,3-19.6,3
		s21.8,26.7,14.3,30.4c-7.5,3.7-21.3-9.1-24.3-8.7c-3,0.3,16.9,34.2-0.7,17.5C103.3,94.5,58.7,52.7,117.5,38.8z"/>
	<path fill="#B0515C" d="M219.6,159.7c12.3-28.7,6.6-54.4-6.8-74.7c-7.8-3.2-21.4-8.6-26.9-9.6c-8-1.3,7.4,22.8,6,28.1
		c-1.3,5.4-19.4-12.7-22.8-8c-3.3,4.7,20.1,15.4,10.7,49.5c-9.4,34.1-12.7-19.4-26.1-20.1c-13.4-0.7,1.3,17.4-3.3,32.1
		c-3.8,12-1,21.8-12.9,42.8c0.1-0.1,0.2-0.2,0.3-0.4c0,0-6.5,16.6-15.2,24.6C122.6,224.2,189.2,230.7,219.6,159.7z"/>
</g>
</svg>
