<?xml version="1.0" encoding="utf-8"?>
<!-- Generator: Adobe Illustrator 17.1.0, SVG Export Plug-In . SVG Version: 6.00 Build 0)  -->
<!DOCTYPE svg PUBLIC "-//W3C//DTD SVG 1.1//EN" "http://www.w3.org/Graphics/SVG/1.1/DTD/svg11.dtd">
<svg version="1.1" id="Layer_1" xmlns="http://www.w3.org/2000/svg" xmlns:xlink="http://www.w3.org/1999/xlink" x="0px" y="0px"
	 width="260px" height="260px" viewBox="0 0 260 260" enable-background="new 0 0 260 260" xml:space="preserve">
<g>
	<path fill="#F1989A" d="M8.9,171.6L65,58.6c14.4-3.8,82.3,17.7,87.9,29.4l-23.3,124c0,0-5.4,20.3-67.9,3.3l0,0
		c-0.1,0-0.2-0.1-0.3-0.1c-0.1,0-0.2-0.1-0.3-0.1l0,0C1,191,8.9,171.6,8.9,171.6z"/>
	<path fill="#F1989A" d="M154.1,90.6c1.4-0.7,2-2.3,1.3-3.7l0,0c-2-3.8-6.5-6.7-12.6-10l0,0c-6.1-3.2-13.9-6.5-22.3-9.5l0,0
		c-16.8-6-35.6-10.9-47.5-11.9l0,0c-3.5-0.3-6.3-0.2-8.7,0.4l0,0v0c-1.5,0.4-2.4,1.9-2,3.4l0,0c0.4,1.5,1.9,2.4,3.4,2l0,0
		c1.2-0.4,3.7-0.5,6.9-0.2l0,0c16.4,1.2,50.3,11.6,67.6,20.7l0,0c5.8,2.9,9.7,6.2,10.2,7.4l0,0c0.4,0.9,1.3,1.5,2.3,1.6l0,0
		C153.1,90.9,153.6,90.8,154.1,90.6L154.1,90.6z"/>
	<path fill="#EBF6FC" d="M135.8,144.5c-2.5,7.5,1.5,15.6,9,18.1c7.5,2.5,15.6-1.5,18.1-9c2.5-7.5-1.5-15.6-9-18.1
		C146.4,133,138.3,137,135.8,144.5z"/>
	<path fill="#F1989A" d="M130.4,196.4c0,0,31.3-45.8,57.4-52c0,0,7,0.3,10.7,6.5c3.7,6.2,5.7-7.2,2.1-16.3
		c-3.6-9.1-15.2-18-19.8-16.6c-4.6,1.4,7,7.7-2.3,15.4c-9.2,7.7-28.2,15.5-44.3,31.3C118.3,180.5,130.4,196.4,130.4,196.4z"/>
	<path fill="#DF8286" d="M100.1,145.9c-3.5,10.4,2.1,21.7,12.5,25.2c10.4,3.5,21.7-2.1,25.2-12.5c3.5-10.4-2.1-21.7-12.5-25.2
		C114.8,129.9,103.6,135.5,100.1,145.9z"/>
	<path fill="#FFFFFF" d="M106.2,144.1c-3.2,9.7,2,20.2,11.7,23.4c9.7,3.2,20.2-2,23.4-11.7c3.2-9.7-2-20.2-11.7-23.4
		C119.9,129.2,109.4,134.4,106.2,144.1z"/>
	<path fill="#EFF8FD" d="M106.2,144.1c3.2-9.7,13.7-14.9,23.4-11.7c0.3,0.1,0.6,0.2,0.8,0.3c-8.5-2.4-17.4,2.3-20.3,10.8
		c-2.9,8.7,1.8,18.2,10.5,21.1c8.5,2.8,17.6-1.5,20.8-9.7c-0.1,0.3-0.2,0.6-0.2,0.9c-3.2,9.7-13.7,14.9-23.4,11.7
		C108.1,164.3,102.9,153.8,106.2,144.1z"/>
	<path fill="#1A171B" d="M143.8,145.7c-0.6,1.8,0.4,3.7,2.1,4.3c1.8,0.6,3.7-0.4,4.3-2.1c0.6-1.8-0.4-3.7-2.1-4.3
		C146.3,143,144.4,143.9,143.8,145.7z"/>
	<path fill="#1A171B" d="M116.5,148.3c-0.8,2.5,0.5,5.2,3,6.1c2.5,0.8,5.2-0.5,6.1-3c0.8-2.5-0.5-5.2-3-6.1
		C120.1,144.5,117.4,145.8,116.5,148.3z"/>
	<path fill="#F5B5B5" d="M201.4,141.5c0,0-1-7.8-6.2-14c-5.2-6.3-12.1-9.6-13.4-8.4c-1.2,1.2,4.3,1.6,9.6,8.4
		c5.3,6.8,7.6,11.4,8.7,17.8C201.2,151.8,201.6,146.6,201.4,141.5z"/>
	<path fill="#DF8286" d="M136.7,179.1c7.2-10.4,40.3-33.6,45.6-37.6c3.9-3,2.5-6,1.6-7.5c-1.6-1.4-4.1-1-2.3-2.7
		c3.5-3.2,0.5-9.1,0.5-9.1c0.2-1.9,8.2,6.4,12.2,13.2c4,6.8,5.8,15.6,4,13.4c-1.8-2.3-7.3-5-7.3-5s0,0,0,0
		c-2.5-1.2-5.9-2.3-23.4,10.8c-17.9,13.3-34.9,36.8-34.9,36.8S129.5,189.5,136.7,179.1z"/>
	<path fill="#F5B5B5" d="M180.2,139.2c0,0,4.6-4.1,1.5-4.5c-3.1-0.4-29.9,17.1-35.1,23c-5.2,6,0.7,4.1,10.8-2.7
		C167.5,148.2,180.2,139.2,180.2,139.2z"/>
	<path fill="#DC6D7C" d="M132.7,193.2c0,0-35.3,14.8-65.3-21.9l-3.1,3.1C64.3,174.4,91.5,213.4,132.7,193.2z"/>
	<path fill="#DC6D7C" d="M75,170.9c0,0-11.3-2.1-13.1,13.1C61.9,184,58,163.2,75,170.9z"/>
	<path fill="#DF8286" d="M56.6,92.2C68,69.6,66.8,64.3,62.5,63.7l1.3-2.6c0.6,0.3,1.3,0.4,2,0.2c1.2-0.4,3.7-0.5,6.9-0.2
		c16.4,1.2,50.3,11.6,67.6,20.7c1.9,1,3.7,2,5.1,3c1.7,1.4,3.4,2.9,5,4.5c0,0-40.8-20.6-49.1-7.1c-8.3,13.5-29.7,74.3-29.7,74.3
		s-12.4-0.5-16.3,15.7c-3.9,16.2-8,37.1,5.8,42.9c-29.4-11.8-42.5-22.4-48.3-30.3C14.6,181,45.2,114.7,56.6,92.2z"/>
	<path fill="#F5B5B5" d="M81.6,166.7c0,0-4.1-7.5-10.6-7.8c-6.5-0.3-11.1,6.5-6.6,6.9c4.5,0.4,7.8-2.3,11.9,3
		C80.3,174,83.4,171.4,81.6,166.7z"/>
	<path fill="#F5B5B5" d="M139.7,133.8c0,0,7.9-37,7.7-40.9c-0.2-4-16.6-8.7-24.6-8.4c-7.9,0.4-15.9,44.7-16.1,47.7
		c-0.2,2.9,6.9-5.7,18.6-3.8C137,130.3,139.7,133.8,139.7,133.8z"/>
	<path fill="#F1989A" d="M114.6,68.3C108.2,62,100.3,57,91.2,53.9c-32.1-10.7-66.9,6.6-77.6,38.7c-6.3,18.9-2.9,38.9,7.6,54.2
		l-3.5,6.9C4.3,136.3-0.4,112.8,7.1,90.4c12-35.7,50.6-55,86.3-43c14.4,4.8,26.2,14,34.2,25.6C123.5,71.4,119.1,69.8,114.6,68.3z"/>
	<path fill="#F1989A" d="M17.7,153.7l2.4-4.7c-11.6-17-15.4-39.1-8.4-60.1c6.7-20.1,21.9-35,40.3-42C31.6,53,14.4,68.7,7.1,90.4
		C-0.4,112.8,4.3,136.3,17.7,153.7z"/>
	<path fill="#DF8286" d="M7.1,90.4c5.7-17,17.4-30.2,32-38.2c-3.2,2.5-10.1,6.1-17.6,15.8C12.9,79.2,6.8,93.7,6.2,109.3
		c-0.6,15.6,6.4,31.8,9.6,35.8c2.4,3,4.1,1.6,4.7,0.8c0.2,0.3,0.4,0.6,0.6,0.9l-3.5,6.9C4.3,136.3-0.4,112.8,7.1,90.4z"/>
	<path fill="#F5B5B5" d="M117.4,62.3c0,0,1.8,1.9,0.1,2.2c-1.8,0.4-14.5-16.2-40.5-19.7C77,44.8,98.3,44.8,117.4,62.3z"/>
	<path fill="#67C7EE" d="M204.5,139.7c0,0,17.9-5,24.3,18.5c6.4,23.5-24,52.9-12.4,58.9c11.5,6,22.5-22.2,20.8-48.1
		C235.6,143,212.9,132.5,204.5,139.7z"/>
	<path fill="#67C7EE" d="M202.1,129.8c0,0,18.5-7.3,27.9,7.7c9.4,15,14.8,33.9,9.3,57.8c-5.6,24,9.7,11.4,12.4-17.4
		C254.5,149.1,236.2,112.2,202.1,129.8z"/>
	<path fill="#67C7EE" d="M193.7,119.9c0,0,18.8-16.5,36.8-11.4c18,5.1,29.3,25.3,25.1,31.9c-4.2,6.6-10.7-21.6-30.2-25.4
		C205.9,111.2,193.7,119.9,193.7,119.9z"/>
</g>
</svg>
