<?xml version="1.0" encoding="utf-8"?><svg xmlns="http://www.w3.org/2000/svg" width="260" height="260" viewBox="0 0 260 260"><path fill="#B47D43" d="M175.9 125s-12.4-12.6-24.4-16.2c-12-3.7-24.5-13.8-18.7-20.7 0 0-6.1-.6-8.3 8.7 0 0-13.6-6.7-4.6-17.7 0 0-24.7 3.1-28.4 21.3 0 0-19-11.5-37.2 3-18.2 14.4-21.6 39.7-16.8 48.6 0 0 14.9.2 25.4-7.2 10.4-7.4 18.8-26.7 22.2-19.5 3.4 7.3-2.2 33.7-7 41-4.7 7.3-5.4 52.1 15.4 66 0 0-.9 11 28.7 14.4 29.6 3.5 45-14.2 48.3-28.8 3.2-14.6-15.6-33.6-2.1-64.6 0 0 7.2 1 11.5 13.5 4.3 12.6 19.5 17.9 26.2 18.7 6.6.8 9.1-29.7 2.4-42.4-6.8-12.7-22.1-19.9-32.6-18.1z"/><path fill="#6A3A09" d="M91.5 100.3c2.1-10.4 11.1-15.9 18.4-18.6-.4-3-.1-6 1.2-8.8 8.2-17.5 38.6-36.9 20.7-58.1 0 0-5.5-5.3-4.1 1.6 1.5 6.9 1.3 16.9-12.7 22.6-12.2 5-45.3 25.4-30.4 58.5 4.2 1.2 6.9 2.8 6.9 2.8z"/><path fill="#7C440A" d="M91.5 100.3c1.3-6.4 5.2-10.9 9.7-14.1-.2-1.7-.5-3.4-.6-5.2-.8-13 13.3-27.8 24-37.5s9.3-22.6 6-26.5c-3.3-3.9-2.9-.6-2.9-.6 1.5 6.9 1.3 16.9-12.7 22.6-12.2 5-45.3 25.4-30.4 58.5 4.2 1.2 6.9 2.8 6.9 2.8z"/><path fill="#8B5308" d="M88.7 99c1.7.8 2.7 1.4 2.7 1.4.6-2.7 1.6-5.1 3-7.2-1.3-4-2.9-9.4-2.6-15.8.8-14.6 5.8-21.5 16.7-28.5 0 0 13.7-8.9 13.1-9.9-.4-.7-3.1 0-16.2 8-13 7.9-21 19.2-21.4 31.8-.2 8.5 1.5 16.4 4.7 20.2z"/><path fill="#A2703C" d="M185.8 139.4c-9.6-5.8-8.8-19.1-31.5-28.6-11-4.6-21.6-3.2-21.6-3.2-10-2.2-25.1-13-25.1-13s2.4 5.3 14.3 12.8c3 1.9-2.5 2-17.9-3.2 1.9 11 25 19.4 26.6 22.4 4.8 9.6 13.2 18.6 16.6 26 6 13-.7 40.3-7.6 48.5-6.8 8.1-32.9 13.6-51.4 16.5-2.3.4-4 1.1-5.1 2.2 2.7 5.2 6.1 9.6 10.6 12.6 0 0-.9 11 28.7 14.4 29.6 3.5 45-14.2 48.3-28.8 3.2-14.6-15.6-33.6-2.1-64.6 0 0 7.2 1 11.5 13.5.7 1.9 1.6 3.7 2.7 5.3 7.5 9.3 14.7 11.1 19 12.4 1.7.5 3.2.8 4.4.9 3.2-5.8 1-33.3-20.4-46.1z"/><path fill="#6A3A09" d="M145 106.2c2.1 1 4.3 1.9 6.4 2.6 12 3.7 24.4 16.2 24.4 16.2 1.3-.2 2.8-.3 4.2-.2 44.4-17 25.9-58.5 17.9-70.6-8.3-12.6-2.9-21 2.2-25.8 5.1-4.9-2.5-3.6-2.5-3.6-26.7 7.6-12.5 40.6-15.5 59.8-2.1 14.3-25.6 19.8-37.1 21.6z"/><circle fill="#A2703C" cx="108.7" cy="133.3" r="17.7"/><circle fill="#A2703C" cx="139.1" cy="140.4" r="23.5"/><path fill="#ECF4F8" d="M91 132.8c1.2 9.7 10 16.5 19.7 15.3 9.7-1.2 16.5-10 15.3-19.7-1.2-9.7-10-16.5-19.7-15.3-9.6 1.2-16.5 10-15.3 19.7z"/><path fill="#fff" d="M94.5 119.3c.1-.1.2-.2.3-.4.1-.2.3-.4.5-.5 1-1.1 2.2-2 3.5-2.8 1.9-1.1 4-1.9 6.3-2.2 8.6-1.1 16.5 4.8 17.5 13.1s-5.1 15.9-13.8 17c-8.6 1.1-16.5-4.8-17.5-13.1-.5-4.1.7-8 3.2-11.1z"/><path fill="#ECF4F8" d="M116.7 141.6c1.5 11.9 12.3 20.3 24.2 18.8 11.9-1.5 20.3-12.3 18.8-24.2-1.5-11.9-12.3-20.3-24.2-18.8-11.9 1.5-20.3 12.3-18.8 24.2z"/><path fill="#fff" d="M134.5 117.5c10.3-.7 19.5 6.7 20.8 17.1 1.3 10.7-6.3 20.5-17 21.8-10.4 1.3-19.8-5.8-21.7-15.9-.8-11.1 6.9-21 17.9-23z"/><path fill="#6A3A09" d="M129 142.2c.4 3.4 3.5 5.7 6.8 5.3 3.3-.4 5.7-3.5 5.3-6.8-.4-3.4-3.5-5.7-6.8-5.3-3.4.4-5.8 3.4-5.3 6.8zm-25.9-8.4c.3 2.3 2.3 3.8 4.6 3.6 2.2-.3 3.8-2.3 3.6-4.6-.3-2.3-2.3-3.8-4.6-3.6-2.3.2-3.9 2.3-3.6 4.6z"/><path fill="#F3A69E" d="M83.6 171.6s35.8-7.2 59.9 14.1c0 0 7.6-18.5 20.3-9.4 10 7.1 3.3 19.5-4.3 23.6-7.6 4-2.6 9.7-3.8 18-1.5 10.5-13.7 29.4-48.6 20.4-34.9-9-43.1-21.9-42.4-35.6.7-13.7 6-19.6 6-19.6s-17-8.7-12.4-20c4.7-11.4 21.6-11.8 25.3 8.5z"/><path fill="#7C440A" d="M189.1 58.6c-4-17.2 2.4-25.3 6.2-30.1 1.4-1.8 1.4-2.8.9-3.3-24.5 8.4-10.9 40.5-13.9 59.2-2.3 14.4-25.8 19.9-37.3 21.7 2.1 1 4.3 1.9 6.4 2.6 2.4.7 4.9 1.9 7.2 3.1 9-.1 15.6-4.8 23-10.8 11.2-8.9 11.5-25.1 7.5-42.4z"/><path fill="#8B5308" d="M189.2 32.7s-6.3 6.2-3.2 24.7c3.1 18.5 5.3 33.8-9.6 43.6-16.1 10.6-19.4 8-17.7 5.8 2.3-3 17.5-5 23.1-15.1 5.6-10.2 4.7-17.3 2.4-29.3-2.4-11.9-.8-24.2 5-29.7z"/><path fill="#DC9790" d="M148.3 194.8s2.6 1.7 3.4 5.1c.8 3.4 1.6-.9 6.5-3.4 4.8-2.6 9.2-8 5.3-11.4-3.9-3.5-9.9 2.7-15.2 9.7zm-72.2-18.1s-4-12.3-11-12.8-4.4 7.8 0 11.9c4.5 4 6.7 5.3 6.7 5.3s1.9-3.9 4.3-4.4z"/><path fill="#FBDBD5" d="M161.3 176.2s4.4 2.2 3.4 4.9c-1 2.7-5.1-2-10.1 2.2s-6.9-.7-3.4-4.9c3.6-4.2 7.4-3.4 10.1-2.2zm-88.9-13.1s-3.2-3.4-8.2-2.3c-5 1.1-.8-4 3.5-4.1 4.3-.2 8.8 1.6 9.3 4.7.6 3.1-2 4.4-4.6 1.7z"/><path fill="#6A3A09" d="M137 238.6s18.5-3.4 26.9-25.4c0 0 1.7-.5 3.1 1.1 0 0-2.6-5.7-8.3-2.1 0 0 2.3-.4 2.8.4-.1 0-1.1 16-24.5 26z"/><path fill="#FBDBD5" d="M88 176.1s6.1-4.3 20.6-1.3c14.4 3 19.6 6.7 21.4 12 1.3 4-12.7 6.9-29.8 1.6-17.3-5.3-15-10.8-12.2-12.3z"/><path fill="#A2703C" d="M87.1 125.7s2.1-6.9-1.2-8.8c0 0 3.4-1.3 4.7-1 1.3.2-.5-5.1-.5-5.1l3.5-2.1s-1.2-6.1-19.2-5c-16.2 1-33.8 21.5-38.4 43.7.3 1.8.8 3.4 1.5 4.7 0 0 14.9.2 25.4-7.2 10.4-7.4 18.8-26.7 22.2-19.5.2.4.4.9.5 1.5.9-.8 1.5-1.2 1.5-1.2z"/><path fill="#DC9790" d="M174.2 137.6s21 3.9 26.1 24c5.1 20 4.9 20.9-3.1 18.1-7.9-2.7-14-12.4-16.8-19.5-2.8-7.1-10.3-11.3-10.3-11.3s2.7-7.9 7.8-5.1c0 0-2.7-4.6-5.1-2.8 0 0 2-1.6 4.3-.9l-2.9-2.5zm-86.7-28.5s-18.9-8.6-35.5 11.6c-13.2 16.2-12.3 28.8-12.3 28.8s17.9-1.4 23.2-8.5c5.3-7.1 17.4-22.2 20.9-21.1 0 0-2.8-4.3-8.8.1 0 0 4.6-6.7 10-5.1 0 0-4.6-.5-6.7-2.7 0 0 4.7 1.1 6.2 0 1.6-1.1-2.4-2.3-2.4-2.3l5.4-.8z"/><path fill="#CE8E4B" d="M83.6 171.6s22.2-4.5 43.4 4.1c3.5-2 7.2-7-.7-12.4-10.6-7.2-9.7-10.3-19.5-8.7-9.8 1.5-14.8-6.6-16.8-11s-5.4 10.5-5.4 10.5-2.1 5.9-2.8 11.3c.7 1.7 1.4 3.8 1.8 6.2z"/></svg>