<?xml version="1.0" encoding="utf-8"?><svg xmlns="http://www.w3.org/2000/svg" width="260" height="260" viewBox="0 0 260 260"><path fill="#73B7D4" d="M43.2 55.8c-1.7-.8-3.5-2.6-3.6-5.4 0-.1 0-.3 0-.4 0-3 1.7-4.9 3.3-5.7 1.6-.8 3-.9 3.1-.9.8 0 1.5.6 1.6 1.4 0 .8-.6 1.5-1.4 1.6 0 0-.2 0-.5.1-.4.1-.9.2-1.3.5-.9.5-1.6 1.2-1.7 3 0 .1 0 .2 0 .3.1 1.7.8 2.2 1.8 2.8 1.1.5 2.5.7 3.3.6.4 0 .7 0 .8 0l78.7-4c.8 0 1.5.6 1.6 1.4 0 .8-.6 1.5-1.4 1.6l-78.6 4s-.4 0-1 0c-1.1 0-2.9-.1-4.7-.9zm82.7-4.6c0-.8.6-1.5 1.4-1.6l83-3.9s.1 0 .2 0 1.7 0 3.1-.6c1.4-.6 2.4-1.3 2.4-3.2 0-.1 0-.2 0-.2-.1-1.9-.8-2.5-1.7-3-.8-.4-1.9-.5-2.1-.5-.8.1-1.6-.5-1.6-1.4-.1-.8.5-1.6 1.4-1.6 0 0 .1 0 .2 0 .5 0 2 0 3.6.9 1.6.8 3.2 2.7 3.3 5.6 0 .1 0 .2 0 .3 0 3.3-2.4 5.3-4.4 6-1.9.7-3.7.8-4.1.8l-83.1 3.9s0 0-.1 0c-.8 0-1.5-.7-1.5-1.5zm52.6 69.9c-.8-.3-1.1-1.2-.8-2L209 46.6c.3-.8 1.2-1.1 2-.8.8.3 1.1 1.2.8 2l-31.4 72.5c-.2.6-.8.9-1.4.9-.2 0-.4 0-.5-.1zm62.1-.8l-31.4-72.5c-.3-.8 0-1.7.8-2 .8-.3 1.6 0 2 .8l31.4 72.5c.3.8 0 1.6-.8 2-.2.1-.4.1-.6.1-.6 0-1.1-.3-1.4-.9zm3.4.2c0 3-14.9 5.4-33.3 5.4s-33.3-2.4-33.3-5.4c0-3 14.9-5.4 33.3-5.4 18.3 0 33.3 2.4 33.3 5.4z"/><path fill="#4C7D91" d="M210.6 125.9c-18.4 0-33.3-2.4-33.3-5.4 0 3 14.9 20.6 33.3 20.6s33.3-17.6 33.3-20.6c.1 2.9-14.9 5.4-33.3 5.4z"/><path fill="#73B7D4" d="M17.1 129.3c-.8-.3-1.1-1.2-.8-2l31.4-72.5c.3-.8 1.2-1.1 2-.8.8.3 1.1 1.2.8 2l-31.4 72.5c-.2.6-.8.9-1.4.9-.2.1-.4 0-.6-.1zm62.2-.7L47.9 56.1c-.3-.8 0-1.7.8-2 .8-.3 1.7 0 2 .8L82 127.4c.3.8 0 1.7-.8 2-.2.1-.4.1-.6.1-.5 0-1.1-.4-1.3-.9zm3.2.1c0 3-14.9 5.4-33.2 5.4-18.4 0-33.2-2.4-33.2-5.4 0-3 14.9-5.4 33.2-5.4 18.3 0 33.2 2.4 33.2 5.4z"/><path fill="#4C7D91" d="M49.3 134.1c-18.4 0-33.2-2.4-33.2-5.4 0 3 14.9 20.5 33.2 20.5 18.4 0 33.2-17.5 33.2-20.5 0 3-14.9 5.4-33.2 5.4z"/><path fill="#E0381C" d="M210.6 125.9c8.3 0 15.9-.5 21.8-1.3 9.1-17.8-5.1-27.9-19-23.4-9.1 2.9-11.6-5.6-20.6.4-9 6-6.9 18.1-2.9 23.2 5.8.6 12.9 1.1 20.7 1.1z"/><path fill="#FED300" d="M30.4 133.1c5.4.6 11.8.9 18.8.9 7.2 0 13.9-.4 19.4-1 .2-.2.4-.3.4-.3s4.9-8.7-1.8-15.4c-6.7-6.7-8.7-2.3-13.8-13.6-5.1-11.2-10.3-13-15.4-9.1-4.5 3.4.3 13.1-6.1 19.2-6.4 6.1-4.7 15-1.5 19.3z"/><path fill="#862514" d="M40 93.4c.3-.1.7-.3 1-.4-.4-2.4-1.7-4.2-1.7-4.2-1.6 0-1.3 1.2-1.3 1.2 1 .4 1.7 2.3 2 3.4z"/><path fill="#82CFF0" d="M171.8 228.3c0 8.2-20 14.9-44.7 14.9-24.7 0-44.7-6.7-44.7-14.9s20-14.9 44.7-14.9c24.7 0 44.7 6.7 44.7 14.9z"/><path fill="#7AC3E2" d="M146.4 217.9c-7.2-.6-50.1 3.6-39.9 11 0 0 9.7 4.9 28.7 5.2 15.6.3 19.8 2 18 6.2 11.2-2.7 18.6-7.1 18.6-12.1 0-3.9-4.5-7.4-11.8-10.1-.8 0-1.3 0-1.3 0s-5.2.4-12.3-.2z"/><path fill="#73B7D4" d="M127.2 213.4c-3.3 0-6.5.1-9.7.4 2.5-.1 5.1-.2 7.7-.2 23 0 41.7 5.6 41.7 12.6s-18.6 12.6-41.7 12.6c-23 0-41.7-5.7-41.7-12.6 0-.5.1-1 .3-1.4-.8 1.1-1.3 2.3-1.3 3.6 0 8.2 20 14.9 44.7 14.9 24.7 0 44.7-6.7 44.7-14.9-.1-8.3-20.1-15-44.7-15zm24.2-125.6c0 8.3-6.7 15-15 15s-15-6.7-15-15 6.7-15 15-15 15 6.7 15 15z"/><path fill="#82CFF0" d="M135.9 35.6c0 4.8-3.9 8.8-8.8 8.8-4.8 0-8.8-3.9-8.8-8.8 0-4.8 3.9-8.8 8.8-8.8s8.8 4 8.8 8.8z"/><path fill="#A0D9F3" d="M146.4 217.9c-19.5-16.4-16.6-159.6-16.1-174.1-1 .4-2 .6-3.1.6s-2.1-.2-3.1-.6c.4 14.5 3.4 157.7-16.1 174.1 0 0-7.1 3.3-7.1 6.6s14 8.1 26.3 7.7c12.3.5 26.3-4.4 26.3-7.7s-7.1-6.6-7.1-6.6z"/><path fill="#73B7D4" d="M153.5 224.5c0-3.3-7.1-6.6-7.1-6.6-19.5-16.4-16.6-159.6-16.1-174.1-1 .4-2 .6-3.1.6s-2.1-.2-3.1-.6c0 .7 0 1.6.1 2.7 1.7.6 4.1 2.5 4.1 8.2 0 8.5-.3 49.8-.3 49.8s-.8 51.6-.8 68.3c0 16.7 5 44.1 10.1 51.6 5.1 7.4-26.6 6.1-33.5 1.3-1.3-.9-2.2-1.6-2.7-2.2-.2.4-.3.8-.3 1.1 0 3.3 14 8.1 26.3 7.7 12.3.4 26.4-4.5 26.4-7.8z"/><circle fill="#EDF7FD" cx="135.6" cy="87.3" r="13.3"/><path fill="#82CFF0" d="M129.9 88.8s2.5 19.5 11.3 24.8c8.9 5.3-3.2 13.1-10.6 5.3-7.4-7.8-.7-30.1-.7-30.1z"/><path fill="#fff" d="M144.4 83.4c0 4.7-3.8 8.5-8.5 8.5s-8.5-3.8-8.5-8.5 3.8-8.5 8.5-8.5c4.6 0 8.5 3.8 8.5 8.5z"/><path fill="#73B7D4" d="M131.4 28c1.1 1.4 1.8 3.1 1.8 5 0 4.4-3.6 8.1-8.1 8.1-2.6 0-4.9-1.3-6.4-3.2 1 3.8 4.4 6.6 8.5 6.6 4.8 0 8.8-3.9 8.8-8.8-.1-3.4-1.9-6.3-4.6-7.7z"/><path fill="#C8E8F8" d="M128.3 32.6c0 1.8-1.5 3.3-3.3 3.3-1.8 0-3.3-1.5-3.3-3.3 0-1.8 1.5-3.3 3.3-3.3 1.8 0 3.3 1.5 3.3 3.3zM124.6 149s-1.8 45.3-7.7 59.6c-6 14.4-8.5 12.2-10.9 13.9-2.4 1.7 5.9 4.1 12.7 4.8 6.8.7 12.9.4 10.8-2.7-2.1-3.1-3.7-7.1-4.5-21.6-.9-14.4-.4-54-.4-54z"/><path fill="#82CFF0" d="M134.5 88.6c0 10.1-8.2 18.3-18.3 18.3-10.1 0-18.3-8.2-18.3-18.3 0-10.1 8.2-18.3 18.3-18.3 10.2 0 18.3 8.2 18.3 18.3z"/><circle fill="#EDF7FD" cx="116.9" cy="87.5" r="15.5"/><path fill="#fff" d="M126.1 85.6c0 6.1-5 11.1-11.1 11.1s-11.1-5-11.1-11.1 5-11.1 11.1-11.1c6.1-.1 11.1 4.9 11.1 11.1z"/><circle fill="#1A171B" cx="124.8" cy="93.2" r="4.3"/><path fill="#1A171B" d="M142.7 90.8c0 1.8-1.5 3.3-3.3 3.3-1.8 0-3.3-1.5-3.3-3.3 0-1.8 1.5-3.3 3.3-3.3 1.8 0 3.3 1.5 3.3 3.3z"/><path fill="#C8E8F8" d="M133.9 106.1s-.8-1.6-2.3-.6c-1.4 1-.2 9 3.3 12.1 3.5 3.1 8 2.1 8-.2 0-2.3-4.6-3.7-6.6-6.8-1.6-2.7-2.4-4.5-2.4-4.5zm-5.2 131.7c-21.8 0-39.5-5.1-39.5-11.5 0-4.3 8.2-8.1 20.3-10-14.7 1.7-25.2 5.9-25.2 10.9 0 6.4 17.5 11.7 39.2 11.7 8.7 0 16.7-.8 23.2-2.3-5.4.7-11.5 1.2-18 1.2z"/><path fill="#65A3BD" d="M40.1 147.8c.7.2 1.3.4 2 .6-4.7-2.2-12.3-7-15-15.6-1.8-.3-3.4-.6-4.9-.9 1.1 2.1 5.8 10.6 17.9 15.9z"/><path fill="#3C6577" d="M48.9 149.2c5.9-1.5 21.8-6.4 29.3-17.8-3.9 1.1-10.2 2-17.7 2.4-.8 2.9-3.9 11.6-12.4 15.4.2-.1.5 0 .8 0z"/><path fill="#65A3BD" d="M191.4 124.9c-2.5-.3-4.7-.6-6.6-1 1.4 3.2 5.8 10.8 15.9 15.5 1.9.6 3.9 1.1 5.9 1.3-3-1.8-12.1-7.6-15.2-15.8zm8.7.7c-1-.1-2-.1-2.9-.2 1.1 4.1 3.8 10 10 15.4.3 0 .7 0 1 .1-2.2-2.6-6.6-8.4-8.1-15.3z"/><path fill="#3C6577" d="M220.7 125.6c-.5 3.2-2.3 10.7-8.9 15.4.3 0 .6 0 .9-.1 5.4-2.2 21.4-9.1 26.6-17.7-4.1 1.1-10.7 2-18.6 2.4z"/><path fill="#E55D34" d="M219.8 120.4c.5-.3 1-.7 1.7-1.4 7.9-7.8 3.7-16 3.7-16-.4-.9-1.1-1.6-2.6-2 0 0-3.3-1-6.5.3-3.3 1.3 1 5-3.3 5.8-.3.1-.5.1-.7.2-1.7.2-4 .2-6.7-1.2-4.9-2.5-3.8-7.1-9.8-5.4-5.9 1.7-9.9 11-4.4 18 5.1 6.4 21.5 5.9 28.2 1.9 0 0 .1 0 .1-.1.2-.1.2-.1.3-.1z"/><path fill="#CE351A" d="M214.5 125.8c6-.1 11.5-.5 16.1-1 1.8-3.3 2.6-7.3 2.6-11.3 0-5.6-2.6-9.3-5-11.4-.8-.4-1.7-.8-2.6-1.1 1.6 3.2 5.9 13.2-.1 19.1-3.1 3-6.9 4.8-11 5.7zm-3.9-20.4s-6-.5-6-2.7c0-2.1 3.1 0 3.1 0s.2 1.6 2.9 2.7z"/><path fill="#862514" d="M208.7 104.2s-.1-9.7 6.4-10.1c0 0 .9-1.7-1.3-2.7-.1.1-7.5 3.6-5.1 12.8z"/><path fill="#74B320" d="M209.9 95.3s-8.9 0-9-9.6c-.1 0 8.8-2 9 9.6z"/><path fill="#639C1E" d="M200.8 85.8c.2 8.6 7.5 9.4 8.8 9.5-2.5-5.7-7.1-8.6-8.8-9.5z"/><path fill="#ED8A5B" d="M205.8 107.8s-4.4-1.9-6.5-5.5c-1-1.8-6.7-.8-7.1 3.9-.5 4.7 9.6 7.8 13.9 6.7 4.3-1.2 1.8-4.1-.3-5.1z"/><path fill="#E2BD00" d="M51.7 134c5.7-.1 11-.4 15.6-.8 1-2.6 3.9-11.8-4.1-16.6-9.5-5.6-9.7-4.2-10.7-8.9-1-4.6-1.6-9.7-9.1-14.1 0 0 5.3 3.4 5.9 10.9.6 7.5-3.2 8.7 1.8 10.1 4.7 1.3 10 14.1.6 19.4z"/><path fill="#FFE16C" d="M50.4 122.3c0 4.4-4.6 8-10.3 8-5.7 0-10.3-3.6-10.3-8s4.6-8 10.3-8c5.7 0 10.3 3.6 10.3 8zm-6.6-18.6c0 4.2-1.6 7.6-3.6 7.6s-3.6-3.4-3.6-7.6c0-4.2 1.6-7.6 3.6-7.6 1.9.1 3.6 3.5 3.6 7.6z"/></svg>