<?xml version="1.0" encoding="utf-8"?>
<!-- Generator: Adobe Illustrator 17.1.0, SVG Export Plug-In . SVG Version: 6.00 Build 0)  -->
<!DOCTYPE svg PUBLIC "-//W3C//DTD SVG 1.1//EN" "http://www.w3.org/Graphics/SVG/1.1/DTD/svg11.dtd">
<svg version="1.1" id="Layer_1" xmlns="http://www.w3.org/2000/svg" xmlns:xlink="http://www.w3.org/1999/xlink" x="0px" y="0px"
	 width="260px" height="260px" viewBox="0 0 260 260" enable-background="new 0 0 260 260" xml:space="preserve">
<g>
	<path fill="#FBDC9A" d="M102.7,222.5c0,0-0.8,15.6,7.8,18.7c8.6,3.1,34.3,4.2,38.1-2.9c3.9-7,3.9-14.3,3.9-14.3L102.7,222.5z"/>
	<path fill="#F8C550" d="M167.1,216.7c2.4-3.1,5.3-7.4,8.6-13.5c12.1-22.3-4.4-79.7-3.3-91.7c1.1-12,12-9.8,18.6-16.4
		c6.5-6.5-10.4-18.6-19.6-12.5c-9.3,6-3.8,12.5-9.3,13.1c-5.1,0.5-12-5.6-13-6.4c1,0.9,7.9,7.6-1.8,8.6C137,99,131,88,131,88
		s5.5,12.5-3.3,12.5c-8.7,0-8.7-7.1-8.7-7.1s-1.1,7.6-10.9,7.1c-9.8-0.5-4.9-8.2-4.9-8.2c-2-4.5-13.5-10.4-24.4-3.5
		c-10.9,6.9-4.5,22.4,3.1,20.9c7.6-1.5,8.7,1.6,8.7,1.6s0,0,4,15.1c4,15.1,1.8,40-2.9,58.9c-4.7,18.9,1.4,25.8,1.4,25.8
		s4.4,12.3,16.6,15.4c9.4,2.4,16-0.9,16-0.9s2.7,2.6,13.7,2.2c11.1-0.4,12.3-1.3,17.8-3.4C159.6,223.7,163.4,220.6,167.1,216.7z"/>
	<path fill="#F3AB4D" d="M187.8,90.6c-8-5.5-10.2-2.2-15.3,2.9c-5.1,5.1-6.5,29.1-10.5,18.9c-4-10.2-12.4-6.9-13.8-7.6
		c-1.5-0.7-4,4.4-10.2,4.4c-6.2,0-20.7-4-20.7-4s-5.1,3.6-13.8-0.7c-5.8-2.9-3.3-9.2-0.9-13.2c-0.2-0.2-0.3-0.4-0.5-0.6
		c-22,25.3,41.1,46.9,41.1,46.9s17.8-4.7,22.9,19.3c5.1,24-5.1,31.3-5.1,31.3l14.9,3.6c0,0,2.2-1.4,4.1-4.8
		c2.2-26.5-8.3-65.7-7.4-75.3c1-11.5,11.1-10,17.7-15.6C190.6,94,190,92.1,187.8,90.6z"/>
	<path fill="#FBDC9A" d="M180.2,182.1c-0.1-0.2-0.1-0.4-0.2-0.6c-5.6-17.8-28.1,7.3-28.1,7.3c-7.3,8.4-37.8,11.3-42,9.8
		c-6.4-2.1-5.6-11.7-13.4-14.5c-1.9-0.7-3.6,0.3-5,2.3c-4.3,18.3,1.6,25,1.6,25s4.4,12.3,16.6,15.4c9.4,2.4,16-0.9,16-0.9
		s2.7,2.6,13.7,2.2c10.1-0.3,12-1.1,16.5-2.9c1.8-0.9,3.6-1.9,5.3-3c1.8-1.4,3.9-3.3,5.9-5.5c2.4-3.1,5.3-7.4,8.6-13.5
		C178.7,197.8,179.9,190.4,180.2,182.1z"/>
	<path fill="#E7CA8F" d="M180.2,182.1c-0.1-0.2-0.1-0.4-0.2-0.6c-2.3-7.3-7.4-7.4-12.7-5c-0.3,0.4-0.5,0.7-0.5,0.7
		s0.3,30.7-18.8,40.8c-19.1,10.1-23.5,3.3-23.5,3.3s-15.5,6.9-28.6-4.8c0,0-0.1-0.1-0.1-0.1c2.5,3.8,6.9,8.5,13.9,10.3
		c9.4,2.4,16-0.9,16-0.9s2.7,2.6,13.7,2.2c10.1-0.3,12-1.1,16.5-2.9c1.8-0.9,3.6-1.9,5.3-3c1.8-1.4,3.9-3.3,5.9-5.5
		c2.4-3.1,5.3-7.4,8.6-13.5C178.7,197.8,179.9,190.4,180.2,182.1z"/>
	<path fill="#F2D495" d="M139.4,228.1c-11.1,0.4-13.7-2.2-13.7-2.2s-6.6,3.3-16,0.9c-2.7-0.7-5-1.8-7-3.2c0,3.5,0.6,15,7.8,17.6
		c8.6,3.1,34.3,4.2,38.1-2.9c2.5-4.5,3.4-9.1,3.7-11.8C149.6,227.4,146.6,227.8,139.4,228.1z"/>
	<path fill="#F09C2C" d="M143.8,133.5c0,0-0.7,23.3,6.5,53.1c0,0-30.4-11.5-50.1,1.5c0,0,17.3-28.4,11.9-47.7
		C106.7,121.1,133.6,121.1,143.8,133.5z"/>
	<path fill="#F09C2C" d="M163.9,124.3c-2.7,9.2-12.3,14.5-21.5,11.9c-9.2-2.7-14.5-12.3-11.9-21.5c2.7-9.2,12.3-14.5,21.5-11.9
		C161.3,105.5,166.6,115.1,163.9,124.3z"/>
	<path fill="#F09C2C" d="M139.9,128.6c-3.3,11.4-15.2,18-26.7,14.7c-11.4-3.3-18-15.2-14.7-26.7c3.3-11.4,15.2-18,26.7-14.7
		C136.6,105.2,143.2,117.2,139.9,128.6z"/>
	<path fill="#ECF4F8" d="M130.1,122.5c2.5,8.6,11.5,13.6,20.1,11.1c8.6-2.5,13.6-11.5,11.1-20.1c-2.5-8.6-11.5-13.6-20.1-11.1
		C132.6,104.9,127.6,113.9,130.1,122.5z"/>
	<path fill="#FFFFFF" d="M131.3,109.9c0.1-0.1,0.1-0.3,0.2-0.4c0.1-0.2,0.2-0.4,0.3-0.5c0.8-1.1,1.7-2.1,2.7-3
		c1.5-1.3,3.4-2.3,5.4-2.9c7.7-2.2,15.6,2,17.8,9.3c2.1,7.4-2.4,15.1-10.1,17.4c-7.7,2.2-15.6-2-17.8-9.3
		C129,116.7,129.5,113,131.3,109.9z"/>
	<path fill="#ECF4F8" d="M98.5,126.8c3,10.6,14.1,16.6,24.6,13.6c10.6-3,16.6-14.1,13.6-24.6c-3-10.6-14.1-16.6-24.6-13.6
		C101.6,105.2,95.5,116.3,98.5,126.8z"/>
	<path fill="#FFFFFF" d="M111.2,102.5c9.2-2.1,18.6,3.3,21.3,12.5c2.7,9.5-2.7,19.5-12.3,22.2c-9.2,2.7-18.8-2.4-21.9-11.4
		C95.9,115.9,101.5,105.8,111.2,102.5z"/>
	<path fill="#6A3A09" d="M126.8,129.4c-0.9,3.2-4.2,5-7.4,4.1c-3.2-0.9-5-4.2-4.1-7.4c0.9-3.2,4.2-5,7.4-4.1
		C125.9,122.9,127.7,126.3,126.8,129.4z"/>
	<path fill="#6A3A09" d="M151.5,126c-0.7,2.3-3,3.6-5.3,2.9c-2.3-0.7-3.6-3-2.9-5.3c0.6-2.3,3-3.6,5.3-2.9
		C150.9,121.4,152.2,123.8,151.5,126z"/>
	<path fill="#EC7007" d="M103.2,92.4c0,0-4.9,7.6,4.9,8.2c9.8,0.5,10.9-7.1,10.9-7.1s0,7.1,8.7,7.1c8.7,0,3.3-12.5,3.3-12.5
		s6,10.9,16.4,9.8c10.4-1.1,1.6-8.7,1.6-8.7s7.6,7.1,13.1,6.5c5.5-0.5,0-7.1,9.3-13.1c9.3-6,26.2,6,19.6,12.5
		c-6.5,6.5-17.5,4.4-18.6,16.4c-1.1,12,15.1,69.2,3.3,91.7c-8,15.2-16.2,20.5-18.6,21.5c0,0,2.3,11.4,11,9.8
		c8.7-1.6,3.4-10.4,3.4-10.4s8.2,10.1,14.2,7c5.9-3.2-0.6-9.9-0.6-9.9s9.4,9.4,14,6.1c4.5-3.3-1-9.8-1-9.8s14,9.6,19.7,3.2
		c5.7-6.4-6.1-15.6-6.1-15.6s11.4,6.3,16.1,1.7c4.7-4.7-10.5-22.5-10.5-22.5s15.6,3.5,20-2.3c4.3-5.8-14.4-21.4-14.4-21.4
		s18.5,2.4,22.4-6.9c3.9-9.3-17.3-23.4-17.3-23.4s14.1-0.1,14.7-8.4c0.6-8.2-18.4-11-18.4-11s10.8-3.5,10.4-8.9
		c-0.4-5.4-12.8-8.3-12.8-8.3s14.2-4.9,10.9-14.6c-3.3-9.7-20.7-8.2-20.7-8.2s15.4-5.7,12.7-11.4c-2.7-5.7-30.7-4.2-30.7-4.2
		s11.8-17.3,5.3-21.7c-6.6-4.3-26,5.9-26,5.9s19.1-23.8,2.4-20.7c-16.7,3.1-24.6,18.9-24.6,18.9s3.1-20-4.8-19.2
		c-7.8,0.7-9.8,24.3-9.8,24.3s1.2-19.6-3.7-20c-4.9-0.4-6.3,13-6.3,13s-3.4-22-13.1-19c-9.7,3-2.9,20.5-2.9,20.5
		S97.3,19.5,91.2,22.7c-6,3.3-0.1,21-0.1,21s-24.2-7.4-26.5-1.5c-2.3,5.9,9,12.4,9,12.4s-22.1-5.6-24.8,4.1C46,68.5,56.4,71,56.4,71
		S37.8,69,36.6,72.5C35.4,76,50.8,90,50.8,90S25.7,86.1,24,95.8c-1.7,9.7,18.6,15.4,18.6,15.4s-21-1.5-22,6.2
		c-1,7.7,14.6,13.3,14.6,13.3s-23,6.7-20.8,13.7c2.2,7.1,23.4,4.5,23.4,4.5s-17.4,9.4-12.7,16.9c4.8,7.5,20.1,3.8,20.1,3.8
		s-17.9,13.5-12.8,21c5.1,7.5,20.3-0.4,20.3-0.4s-13.4,10.7-8.6,15c4.9,4.3,14.9-4.9,14.9-4.9s-11.8,20.4-4.5,22.9
		c7.3,2.5,20.8-14.8,20.8-14.8s-8.1,17.3-0.2,19.8c7.9,2.4,18.1-17.1,18.1-17.1s-6.1-6.9-1.4-25.8c4.7-18.9,6.9-43.8,2.9-58.9
		c-4-15.1-4-15.1-4-15.1s-1.1-3.1-8.7-1.6c-7.6,1.5-14-14-3.1-20.9C89.8,82,101.2,87.9,103.2,92.4z"/>
	<path fill="#1A171B" d="M104.1,199c0,0-7.8-5.8-3.9-10.8c3.9-5.1,20.5-8.8,37.8-6.9c17.3,1.8,15.9,10.8,9.7,16.6
		c0,0-2.5-3.7-6.7-1.8c-4.2,1.8-0.5,6.7-0.5,6.7s-13.1,10.1-15.7,11.1c0,0-2.5,10.1,5.5,12.9c8.1,2.8,18.7,0.2,18.7,0.2
		s-14.5,3.7-23.5,0c0,0-9.5,2.8-16.8-0.5c0,0,7.8,2.5,14.1-1.6c0,0-1.6-5.3-1.4-11.3l-11.8-9c0,0,2.8-2.5,0.2-5.1
		C107.4,196.9,104.1,199,104.1,199z"/>
	<path fill="#5A5B5D" d="M118.8,183.8c0,0,17-2.2,25.6,0.9c8.5,3.1-9.4,4-19.3,4.5C115.2,189.6,111.2,185.1,118.8,183.8z"/>
	<path fill="#D98E2A" d="M169.6,99.5c0,0,3.2-13.6,12.1-11.2C190.6,90.5,169.3,109,169.6,99.5z"/>
	<path fill="#D98E2A" d="M93.7,100.3c0,0-13.3-7.8-16.4-2.3c-3.2,5.5,2.9,6.1,7.5,6.1C89.4,104.1,96.9,104.9,93.7,100.3z"/>
	<path fill="#DE5726" d="M227.9,130.3c0,0,14.1-0.1,14.7-8.4c0.6-8.2-18.4-11-18.4-11s10.8-3.5,10.4-8.9c-0.4-5.4-12.8-8.3-12.8-8.3
		s14.2-4.9,10.9-14.6c-3.3-9.7-20.7-8.2-20.7-8.2s15.4-5.7,12.7-11.4c-2.7-5.7-30.7-4.2-30.7-4.2s11.8-17.3,5.3-21.7
		c-6-4-22.8,4.3-25.6,5.7l-2.3,2.8c0,0,15.6-0.3,14.6,10.5c-1,10.8-19.4,10.8-19.4,10.8s15.9,7.3,8.6,11.1c-7.3,3.8-27.4-7-27.4-7
		s9.2,11.5,1.3,13.4c-8,1.9-17.2-11.5-17.2-11.5s8,15.3-4.5,15.3c-8,0-9.6-5.1-9.6-5.1s0.3,7.6-6.4,7.6c-6.7,0-10.2-6.7-10.2-6.7
		s1.9,6.4-6.4,4.5c-8.3-1.9-16.6-1-16.6-1s4.5,1.6-1.6,6c-4,2.9-7.5,1.2-9.5-0.4c2.2,2.3,5.7,6.5,2.5,8.3c-4.5,2.5-8,2.2-8,2.2
		s18.2,6,11.5,11.8c-6.7,5.7-5.1,5.4-5.1,5.4S87.6,120,85.7,128c-1.8,7.4-13.2,2.1-14.8,1.4c2,1,19.9,10.1,15.1,15.2
		c-5.1,5.4-11.8,2.9-11.8,2.9s14,7,10.8,16.9c-3,9.2-9.6,7.9-10.4,7.7c0.9,0.3,12.3,3.4,10.7,9.5c-1.6,6.4-4.5,7.6-4.5,7.6
		s5.7-0.5,9.4,3.3c0.3-2.1,0.7-4.4,1.3-6.9c4.7-18.9,6.9-43.8,2.9-58.9c-4-15.1-4-15.1-4-15.1s-1.1-3.1-8.7-1.6
		c-7.6,1.5-14-14-3.1-20.9c10.9-6.9,22.4-1.1,24.4,3.5c0,0-4.9,7.6,4.9,8.2c9.8,0.5,10.9-7.1,10.9-7.1s0,7.1,8.7,7.1
		c8.7,0,3.3-12.5,3.3-12.5s6,10.9,16.4,9.8c9.7-1,2.7-7.7,1.7-8.6c0.9,0.8,7.9,7,13,6.4c5.5-0.5,0-7.1,9.3-13.1
		c9.3-6,26.2,6,19.6,12.5c-6.5,6.5-17.5,4.4-18.6,16.4c-1.1,12,15.1,69.2,3.3,91.7c-8,15.2-16.2,20.5-18.6,21.5c0,0,2.3,11.4,11,9.8
		c8.7-1.6,3.4-10.4,3.4-10.4s8.2,10.1,14.2,7c5.9-3.2-0.6-9.9-0.6-9.9s9.4,9.4,14,6.1c4.5-3.3-1-9.8-1-9.8s14,9.6,19.7,3.2
		c5.7-6.4-6.1-15.6-6.1-15.6s11.4,6.3,16.1,1.7c4.7-4.7-10.5-22.5-10.5-22.5s15.6,3.5,20-2.3c4.3-5.8-14.4-21.4-14.4-21.4
		s18.5,2.4,22.4-6.9C249.2,144.3,227.9,130.3,227.9,130.3z M67.3,89.7c-0.9-0.9-1.6-1.5-1.6-1.5S66.3,88.9,67.3,89.7z"/>
	<path fill="#FBDA95" d="M98.2,90.6c0,0-6.4-4.8-13.3-2.5c-6.9,2.3-1.4,3.2,4.3,6C94.8,96.9,102.8,94.3,98.2,90.6z"/>
	<path fill="#FBDA95" d="M169.6,85.1c0,0-4.6,4.3-2.8,6.6c1.8,2.3,5.3-6.2,10.1-6.2c4.8,0,7.4-1.4,3.4-3
		C176.2,80.8,171.9,83.3,169.6,85.1z"/>
	<path fill="#F3A949" d="M114.7,144.8c0,0-0.5,20.2-7.1,31.1c-6.5,10.9,8.7,2.7,15.8,2.7c7.1,0,14.2,0.5,11.5-10.9
		c-2.7-11.5-4.4-25.6-4.4-25.6S126.7,144.8,114.7,144.8z"/>
	<path fill="#E7CA8F" d="M139.4,228.1c-11.1,0.4-13.7-2.2-13.7-2.2s-6.6,3.3-16,0.9c-2.7-0.7-5-1.8-7-3.2c0,0.5,0,1,0,1.7
		c1.8,2.1,8.3,8,21.2,6.8c15.5-1.5,18.2,6.9,13.1,10.7c-0.2,0.1-0.3,0.3-0.5,0.4c5.8-0.6,10.6-2.1,12.1-4.9
		c2.5-4.5,3.4-9.1,3.7-11.8C149.6,227.4,146.6,227.8,139.4,228.1z"/>
	<path fill="#D3BA84" d="M139.4,228.1c-11.1,0.4-13.7-2.2-13.7-2.2s-6.6,3.3-16,0.9c-2.7-0.7-5-1.8-7-3.2c0,0.3,0,0.7,0,1.2
		c1.7,1.7,5.2,4.3,11.3,5c9.7,1.2,13.3-0.3,13.3-0.3s12.5,0.3,14.8,4c2.2,3.7,0.2,6.9-0.3,7.5c-0.6,0.6,3.7-0.1,5.8-4.6
		c1.7-3.6,2.2-7.7,2.3-9.2C147.6,227.6,144.6,227.9,139.4,228.1z"/>
	<path fill="#D3BA84" d="M99,208.2c0,0.7-0.6,1.3-1.3,1.3c-0.7,0-1.3-0.6-1.3-1.3c0-0.7,0.6-1.3,1.3-1.3C98.5,207,99,207.5,99,208.2
		z"/>
	<path fill="#D3BA84" d="M107.6,209.2c0,0.7-0.6,1.3-1.3,1.3c-0.7,0-1.3-0.6-1.3-1.3c0-0.7,0.6-1.3,1.3-1.3
		C107,207.9,107.6,208.4,107.6,209.2z"/>
	<path fill="#D3BA84" d="M102.9,201.9c0,0.7-0.6,1.3-1.3,1.3c-0.7,0-1.3-0.6-1.3-1.3c0-0.7,0.6-1.3,1.3-1.3
		C102.3,200.6,102.9,201.2,102.9,201.9z"/>
	<circle fill="#D3BA84" cx="145.2" cy="207" r="1.3"/>
	<path fill="#D3BA84" d="M156,212.8c0,0.7-0.6,1.3-1.3,1.3c-0.7,0-1.3-0.6-1.3-1.3c0-0.7,0.6-1.3,1.3-1.3
		C155.4,211.5,156,212.1,156,212.8z"/>
	<path fill="#D3BA84" d="M164,203c0,0.7-0.6,1.3-1.3,1.3c-0.7,0-1.3-0.6-1.3-1.3c0-0.7,0.6-1.3,1.3-1.3
		C163.4,201.7,164,202.3,164,203z"/>
	<circle fill="#D3BA84" cx="153.2" cy="202.8" r="1.3"/>
	<path fill="#D3BA84" d="M162.5,207.9c0,0.7-0.6,1.3-1.3,1.3c-0.7,0-1.3-0.6-1.3-1.3s0.6-1.3,1.3-1.3
		C161.9,206.6,162.5,207.2,162.5,207.9z"/>
	<path fill="#D3BA84" d="M139.2,218.4c0,0.7-0.6,1.3-1.3,1.3c-0.7,0-1.3-0.6-1.3-1.3c0-0.7,0.6-1.3,1.3-1.3
		C138.7,217.1,139.2,217.7,139.2,218.4z"/>
	<circle fill="#D3BA84" cx="107.8" cy="217.3" r="1.3"/>
	<circle fill="#D3BA84" cx="137.9" cy="209.5" r="1.3"/>
	<path fill="#D3BA84" d="M148.7,218.8c0,0.7-0.6,1.3-1.3,1.3c-0.7,0-1.3-0.6-1.3-1.3c0-0.7,0.6-1.3,1.3-1.3
		C148.1,217.5,148.7,218.1,148.7,218.8z"/>
	<path fill="#D3BA84" d="M115.6,215.9c0,0.7-0.6,1.3-1.3,1.3c-0.7,0-1.3-0.6-1.3-1.3c0-0.7,0.6-1.3,1.3-1.3
		C115,214.6,115.6,215.2,115.6,215.9z"/>
	<circle fill="#D3BA84" cx="144.9" cy="214.1" r="1.3"/>
</g>
</svg>
