<?xml version="1.0" encoding="utf-8"?><svg xmlns="http://www.w3.org/2000/svg" width="260" height="260" viewBox="0 0 260 260"><path fill="#EBF6FC" d="M205.8 119c0 10.8 8.8 19.6 19.6 19.6S245 129.8 245 119s-8.8-19.5-19.6-19.5c-10.9 0-19.6 8.7-19.6 19.5z"/><path fill="#DFEAF0" d="M216.5 101.6c-2.3 3.2-3.7 7.1-3.7 11.4 0 10.8 8.8 19.6 19.6 19.6 3.2 0 6.2-.8 8.8-2.1-3.5 4.9-9.3 8.2-15.9 8.2-10.8 0-19.6-8.8-19.6-19.6.1-7.7 4.4-14.3 10.8-17.5z"/><path fill="#FFE200" d="M123.2 88.2c27.5-13.8 69.3-7.6 84.5 19.1 15.3 26.7 19.7 32.4 34.3 36.9 14.6 4.5 8.9 19.7-16.5 34.3-25.4 14.6-29.2 10.2-29.2 10.2s7.6 3.2-2.5 7c-10.2 3.8-38.8 12.7-74.4-5.7-35.6-18.4-69.9-57.2-69.9-57.2s41.9-28.8 73.7-44.6z"/><path fill="#FFEB75" d="M173 100.6c5.9-3.4-8.3-7.9-25.4-5.7-37.1 4.8-68.1 20.2-86.8 34.3-18.7 14.1 56.5 2 73.7 2 17.2 0 21.4.6 24.1-7.9 4.7-14.4 10.2-20.2 14.4-22.7z"/><path fill="#EECF00" d="M161.9 127.3c0 16.4 13.3 29.6 29.6 29.6 16.4 0 29.6-13.3 29.6-29.6 0-16.4-13.3-29.6-29.6-29.6s-29.6 13.3-29.6 29.6z"/><circle fill="#fff" cx="193.9" cy="125.1" r="26.9"/><path fill="#EBF6FC" d="M181.9 101c-5.4 4.6-8.8 11.4-8.8 19 0 13.7 11.1 24.8 24.8 24.8 9.6 0 17.9-5.4 22-13.4-2.9 11.7-13.4 20.4-26 20.4-14.8 0-26.9-12-26.9-26.9 0-10.4 6.1-19.5 14.9-23.9z"/><path fill="#1A171B" d="M184.5 133.6c0 4.2 3.4 7.6 7.6 7.6 4.2 0 7.6-3.4 7.6-7.6 0-4.2-3.4-7.6-7.6-7.6-4.2 0-7.6 3.4-7.6 7.6zm37.8-8.6c0 2.5 2 4.5 4.5 4.5s4.5-2 4.5-4.5-2-4.5-4.5-4.5-4.5 2-4.5 4.5z"/><path fill="#73B220" d="M132.1 125.5c-.3 36.2 26.3 65.4 36.7 75.4 3.9-.2 7.5-.7 10.7-1.3-32.5-28.5-33.5-59.5-29.1-86.2 3-18.3 15.9-26.4 24.1-29.8-11.9-3.2-24.9-3.3-36.8-.6-2.8 8.5-5.4 22-5.6 42.5zm-33.4-23.9c-4.8 41.8 16.7 76.6 28 91.7 5.9 2.5 11.6 4.3 17 5.6-22.5-20.7-26.8-43.2-30.4-72.1-1.9-15.7 1.1-27.8 4.5-35.8-6.2 3.2-12.7 6.8-19.1 10.6zM65.6 122c.9 13.3 5.6 26.5 10.6 36.9 5.1 4.5 10.7 9.2 16.6 13.7-16.5-31.4-15.1-50.7-12.6-59.9-5.3 3.4-10.3 6.5-14.6 9.3z"/><path fill="#009036" d="M30.3 135.6c-22.2-4-20.2-27.6-20.2-27.6 20.4-14.1 47.4 6.9 55.5 14-9.7 6.2-16.1 10.6-16.1 10.6s5.4 6.1 14.2 14.7c-13.3 28.6-53.6 16.6-53.6 16.6 1.3-20.9 20.2-28.3 20.2-28.3zm155.2-41.7s-15.9-35.6-41.9-35c0 0-41.9 15.9-71.2 43.2 0 0 4.5 3 2.5 13.8 23.5-13.3 53.9-33.1 110.6-22zm-46.2 65.5c2.4 5.5 5.2 10.7 8.1 15.4-7.3.1-38.6 5.7-35.8-14.2 1.6-10.6 16.9-5.6 27.7-1.2z"/><path fill="#CFAC00" d="M198.1 189.6s-30-10.7-34.9-29.3c0 0-2.7 1.1-2.7 3.6 0-.1 8.9 19.7 37.6 25.7zm-31.8-30.2s-6 0-6.4 9.8c-.1-.1-3.2-12.5 6.4-9.8z"/><path fill="#008333" d="M185.5 93.9c-56.7-11.1-87.1 8.7-110.6 22 .1-.4.1-.8.2-1.3 2-1 3.1-3.3 3.1-7.3 0-5.3 2.2-.6 8.7-1.2 6.5-.6-.3-4 1.2-8.7 1.6-4.7 8.4 4.4 11.8 1.9 3.4-2.5-1.9-8.1.3-10.9 2.2-2.8 5 4 12.4 4 7.5 0 1.2-8.1.9-14-.3-5.9 18.3 12.1 21.4 6.5 3.1-5.6-7.8-14.6-1.2-14.6 6.5 0 30.8 22.4 32 14.6 1.1-6.6-9-20.5-11.9-24.4 20 7.1 31.7 33.4 31.7 33.4zm-60.1 74.8c-1.2-2.8 5.3-5 11.8-5.3 2.3-.1 3-.8 3.1-1.7 2.1 4.6 4.5 9 7.1 13-.2 0-.4 0-.6 0-4-2.8-20.3-3.6-21.4-6zm-93.5-12.5c-1.6-5 20.5-12.7 18.3-16.8-2.2-4-14.3-.3-14.3-3.7 0-3.4 11.2-1.6 13.4-5.6 2.2-4-22.1-10.9-19.6-12.7 2.5-1.9 20.5 5.9 30.2 5.9 3 0 4.3-.9 4.7-2.1.4.3.7.6 1 .9-9.7 6.2-16.1 10.6-16.1 10.6s5.4 6.1 14.2 14.7c-.2.5-.5.9-.7 1.4 0-.1 0-.1 0-.2-.4-6.7-29.6 12.6-31.1 7.6z"/><path fill="#FFEB75" d="M245.5 157s7.1-7.6-2-10.6-17.7-8.1-20.7-10.6-2 16.6 4.5 24.7c6.6 8.1 12.2 3.6 18.2-3.5z"/><path fill="#A4C96A" d="M98.2 108.3c-.5 9.1.3 17.8 1.8 26 4.9-.5 9.7-1 14.2-1.4-.3-2-.5-4-.8-6.1-1.2-9.5-.5-17.6.9-24.4-5.7 1.8-11 3.7-16.1 5.9zM66 125.6c.4 3.5 1 7 1.9 10.4 3.4.1 7.4 0 11.8-.2-1.2-7.7-1.1-13.8-.4-18.4-4.9 2.7-9.3 5.5-13.3 8.2zm68.3-28.4c-1.2 7.4-2.1 16.8-2.2 28.3 0 2 .1 3.9.2 5.8.8 0 1.6-.1 2.3-.1 6.2 0 10.7.1 14-.2.2-6 .9-11.9 1.8-17.6 1.4-8.2 4.7-14.4 8.8-19-3.5-.1-7.4 0-11.5.5-4.6.6-9 1.4-13.4 2.3z"/></svg>