<?xml version="1.0" encoding="utf-8"?><svg xmlns="http://www.w3.org/2000/svg" width="260" height="260" viewBox="0 0 260 260"><path fill="#4B6774" d="M177.5 155.8s9.8 1.8 8.2 5.9c-1.7 4.1-5.6 13-5.6 13s8.6-7.4 15.5-1.4c0 0 1.8 2.1-3.8 3.8-5.7 1.8-14.5 1.3-14.1-1.6.5-2.9 6.9-13.7 5.8-14.7-1.1-1.1-6.7 1.1-9-2-2.8-3.6 3-3 3-3zm-91.7 7.9s-13-6.1-22.9 4.3c0 0-30.6-15.4-33 43.5 0 0 19.4-37.4 27.4-28.7 8 8.6-18.5 36.3-18.5 36.3s46.5-21.4 28.7-45.2c0 0 8.1-8.6 14.9-5.8 0 0 2.9.9 3.9-.9 1.1-2-.5-3.5-.5-3.5z"/><path fill="#5D7F8E" d="M95.2 133.9s22.1-20.3 51.1-14.7c0 0 42.1 1.6 32.9 36.7 0 0-23.6 44.3-81.6 47.7-29.5 1.8-19.6-25.5-19.6-25.5s-11-11.5 17.2-44.2z"/><path fill="#708E9D" d="M144 38.8s13.6 12.6 19.3 29c0 0-34.8 8-49.1 29.8 0-.1 4.6-35.4 29.8-58.8z"/><path fill="#4B6774" d="M114.2 97.5c16.1-18.1 48.3-23.8 48.3-23.8l.8-5.9s-34.8 8-49.1 29.7z"/><path fill="#5D7F8E" d="M220.4 59.3c-5.3-24-43.3-27.7-43.3-27.7-5.4-2.5-9.6.3-9.6.3-5.7 4.6-29.2 25.6-20.4 24.8 8.8-.8 30.8-12.4 30.8-12.4 3.3 14.2 16.6 17.9 16.6 17.9-4.1 5.7-3.1 21.1-3.1 21.1-7.7 7.5-13.6 24.5-13.6 24.5-12.6.7-26.4 8.2-31.9 11.4.1 0 .2 0 .3.1 0 0 42.1 1.6 32.9 36.7 0 0-.1.2-.3.6 25.3-5.2 33.1-24.8 33.1-24.8C226.5 116.4 220 87 220 87c11.4-17.7.4-27.7.4-27.7z"/><path fill="#4B6774" d="M111.3 151.5c-.9 9-9 15.5-17.9 14.6-9-.9-15.5-9-14.6-17.9.9-9 9-15.5 17.9-14.6 9.1.9 15.6 8.9 14.6 17.9z"/><path fill="#F5FBFE" d="M110.1 148.4c-.9 9-9 15.5-17.9 14.6-9-.9-15.5-9-14.6-17.9.9-9 9-15.5 17.9-14.6 9 .9 15.5 9 14.6 17.9z"/><path fill="#D2E0E7" d="M99.6 131.5c4.7 3 7.6 8.5 7 14.5-.9 8.4-8.4 14.5-16.8 13.7-4.5-.5-8.3-2.8-10.8-6.2 2.3 5.1 7.2 8.9 13.2 9.6 9 .9 17-5.6 17.9-14.6.8-7.6-3.7-14.5-10.5-17z"/><circle fill="#4B6774" cx="120.9" cy="148.5" r="20.3"/><path fill="#F9FCFE" d="M137.3 148.7c-1 10.1-10.1 17.4-20.1 16.3-10.1-1-17.4-10.1-16.3-20.1 1-10.1 10.1-17.4 20.1-16.3 10 1 17.3 10 16.3 20.1z"/><path fill="#D2E0E7" d="M124.5 129.3c5.4 3.3 8.7 9.5 8 16.2-1 9.3-9.3 16.1-18.7 15.2-4.6-.5-8.6-2.8-11.3-6.1 2.6 5.6 8.1 9.8 14.7 10.4 10.1 1 19.1-6.3 20.1-16.3.9-8.9-4.6-16.9-12.8-19.4z"/><circle fill="#1A171B" cx="115" cy="152.4" r="5.3"/><circle fill="#1A171B" cx="93.4" cy="151.5" r="3.8"/><path fill="#4B6774" d="M122.2 199.3c40-11.9 56.9-43.4 56.9-43.4 7.8-29.6-20.8-35.4-30.1-36.5 5.4 1.8 12.4 6.1 11.3 16.6-1.7 16.6-14.1 42.1-51.8 45.9-17.3 1.7-26.4-1.1-31.2-4.8.4.7.7 1 .7 1s5.4 6.3 17.5 7.7c27.9 3.4 29.9-1.9 32.5 3.6 2.2 4.8-3.9 8.8-5.8 9.9zM220 86.9c11.5-17.6.4-27.6.4-27.6-3.1-13.9-17.1-21-28.3-24.5 16.6 7.5 22.2 24.9 16.4 24.3-6.2-.6-9.4 3.2-9.4 3.2s3.3-1.7 9.7.7c6.4 2.4 5.7 22.6-.5 21.9-6.2-.6-9.8 0-9.8 0 18.6 1.9 6.1 35.2-2.3 29.1-8.4-6.1-12.8-4.5-12.8-4.5 6.1 1.3 8.9 5.5 8.9 5.5 3.1 10.4-9.2 14.8-16.8 16.6 4.4 5.4 6.7 13.2 3.7 24.3 0 0-.1.2-.3.6 25.3-5.2 33.1-24.8 33.1-24.8 14.5-15.5 8-44.8 8-44.8zm-74.7-30.7c.2.4.8.6 1.8.5 8-.8 27.3-10.6 30.4-12.2-.4-2.1-.5-4.7.5-7.4 0 0-17.3 16.5-32.7 19.1z"/><path fill="#1B3A47" d="M133.6 178.6s.4.1.9.6c-3.3 1.4-30.1 12-56.5-1.1 0 0 19.7 15.1 57.5 3 .1.6.1 1.4-.1 2.4 0-.1 3.2-4.5-1.8-4.9z"/><path fill="#4B6774" d="M156.8 174.5s11.1 9.1 6 22.5c0 0 27.1 20.9-25 48.5 0 0 25.3-33.6 14.1-37.1-11.3-3.5-24.7 32.3-24.7 32.3s-.7-51.2 28.4-45.4c0 0 4.3-11.1-1.1-15.9 0 0-2.1-2.2-.9-3.9 1.2-1.8 3.2-1 3.2-1z"/><path fill="#708E9D" d="M78.3 165.3s-3.3 7 2 11.2c5.3 4.2 29.5 4.2 35.8-.7 6.3-4.9-8.6-4.1-19.6-4.1-11.1 0-10-8.6-13.4-9.1-3.5-.6-4.5 2-4.8 2.7zm0 27.1s-1.5-6.1 5.2-5.2c6.7.9 21.2 5.9 17.9 10.4-3.1 4.5-17.7 5.8-23.1-5.2zm83.5-79.4s11.2-5.9 21.2-2.3c10 3.6-1.1 11.9-8.7 12.3-7.6.2-21.3-6.3-12.5-10zm22.1-11.1s4.2-14.4 11.6-12.9c7.4 1.5 5.9 16-.6 16.8-6.6.7-12-.9-11-3.9zm10.3-23.8s-1.4-11.2 2.6-12.9c4-1.7 9.7 5.3 8.9 11.4-.8 6.1-10.4 6.1-11.5 1.5zm-14.2-35c-.3-.6-1.7-6.1 5.7-4.8 7.4 1.4 17.6 11.7 13.4 15.8-4.2 4.1-15.3-3.1-19.1-11zm-9.5-10.2s-6.5 4.3-12.3 10.2c-5.7 5.9-1.1 3.1 6.8-1 7.9-4 10.7-10 5.5-9.2z"/><path fill="#4B6774" d="M199.6 142.2s9.1 1.7 7.5 5.4c-1.5 3.7-5.1 12-5.1 12s7.9-6.8 14.3-1.3c0 0 1.7 1.9-3.5 3.5s-13.4 1.2-13-1.5c.4-2.7 6.4-12.6 5.3-13.6-1.1-1-6.2 1-8.3-1.9-2.5-3.2 2.8-2.6 2.8-2.6zm11.1-11.1s8.2 1.5 6.8 4.9c-1.4 3.4-4.7 10.9-4.7 10.9s7.2-6.2 12.9-1.1c0 0 1.5 1.7-3.2 3.2-4.7 1.5-12.1 1.1-11.8-1.3.4-2.4 5.8-11.4 4.8-12.3-1-.9-5.6 1-7.5-1.7-2.1-3.1 2.7-2.6 2.7-2.6z"/><path fill="#1B3A47" d="M208.1 133.6c-.5-.6-.6-1.1-.5-1.4 0 0-1.3 3.6.8 5.6.7-1 1.4-2 1.9-2.9-.9-.2-1.7-.6-2.2-1.3zm-11.4 11.3c-.4-.6-.6-1.1-.6-1.4-.2.8-1 3.7.5 5.7 1.3-.9 2.5-1.8 3.6-2.7-1.4-.1-2.7-.5-3.5-1.6z"/><path fill="#4B6774" d="M177.5 155.8s9.8 1.8 8.2 5.9c-1.7 4.1-5.6 13-5.6 13s8.6-7.4 15.5-1.4c0 0 1.8 2.1-3.8 3.8-5.7 1.8-14.5 1.3-14.1-1.6.5-2.9 6.9-13.7 5.8-14.7-1.1-1.1-6.7 1.1-9-2-2.8-3.6 3-3 3-3z"/><path fill="#1B3A47" d="M174.3 158.8c-.6-.9-.8-1.5-.6-1.9 0 0-1.1 3.3.6 6.3.8-1.1 1.5-2.1 2.1-3-.8-.2-1.5-.7-2.1-1.4zm-19.8 20.5s-1.2-1.3-1.2-2.6c-.4 1.3-1.8 5.1-1.2 8 1.4-1 2.8-2.1 4.1-3.1-.4-.8-1-1.6-1.7-2.3z"/><path fill="#5D7F8E" d="M159.6 178.4s-2.5-3.7-4.5-2.6c-2 1 3.1 2.8 4.4 6.5 1.2 3.7 2.6 3.9 2.3 1.7-.4-2.2-1.4-4.4-2.2-5.6zm16.5-22.1s-1.3-.1-1.3.9c0 .9 5.5 2.1 7.3 1.8 1.8-.3-1.9-2.5-6-2.7zm21.3-12.8s-.5-1.2 2.2-.7c2.6.5 5.7 1.6 4.8 1.9-.9.4-6.1.9-7-1.2zm10.8-11.3s.2-.9 1.7-.8c1.6.1 5.2 1.3 4.6 1.8-.6.5-5.7.8-6.3-1zm-23.7 40.2s-3.3 1.9-1.8 2.9c1.6 1 11.7-.2 11-2-.8-1.9-5-2.8-9.2-.9zm20.7-14s1.7-1.9 4.7-1.9c2.5-.1 5.4 1.1 3.4 2.3-1.9 1.1-9.8 1.5-8.1-.4zm10.5-12.5s2.3-1.9 5.6-1.7c3.3.2 4 1.7 1 2.4-2.9.7-8.2 1-6.6-.7zm-84.9 72.9s3.1-12.6 8.8-18.2c5.7-5.6 14.8-5.6 17.5-2.3 2.7 3.3 8.4 12.6-2.9 25.8 0 0-1.2 1 .8-4.1s2.2-14.2-5.3-14.5c-7.6-.3-14.1 5.5-17.2 14.3-3.2 8.9-3.2 4.1-1.7-1z"/><path fill="#708E9D" d="M152.1 197.5s-4.5-1.9-10.2 2c-5.7 4-8.5 12.4-7.8 13.1.7.7 4-7.9 8.5-10.2 4.5-2.3 8.5-2 10.8-.8 2.3 1.3 3.6-2.7-1.3-4.1z"/><path fill="#5D7F8E" d="M34.1 189.9s3.1-12.6 8.8-18.2c5.7-5.6 14.3-5.1 17.5-2.3 3.5 3 9.7 12.6-1.6 25.9 0 0-1.2 1 .8-4.1s.9-14.3-6.6-14.6c-7.6-.3-14.1 5.5-17.2 14.3-3.2 8.9-3.2 4.2-1.7-1z"/><path fill="#708E9D" d="M55.5 168.7s-4.5-1.9-10.2 2c-5.7 4-8.5 12.4-7.8 13.1.7.7 4-7.9 8.5-10.2 4.5-2.3 8.5-2 10.8-.8 2.2 1.2 3.6-2.8-1.3-4.1z"/></svg>