<?xml version="1.0" encoding="utf-8"?><svg xmlns="http://www.w3.org/2000/svg" width="260" height="260" viewBox="0 0 260 260"><path fill="#B77900" d="M136.7 245.8zm-2.1-1.8l94.5-103.3L173 17l2.5-1.1 56.9 125.3-95.7 104.7-2.1-1.9z"/><path fill="#D9E7EE" d="M55.1 102.9c-.7 4.7-5.1 7.8-9.8 7.1-4.7-.7-7.8-5.1-7.1-9.8.7-4.7 5.1-7.8 9.8-7.1 4.7.7 7.9 5.1 7.1 9.8z"/><path fill="#C3D9E4" d="M51.3 94.4c1 1.6 1.4 3.5 1.1 5.5-.7 4.4-4.8 7.4-9.3 6.7-1.9-.3-3.5-1.3-4.7-2.6.9 3 3.5 5.4 6.8 6 4.7.7 9-2.4 9.8-7.1.7-3.5-.9-6.7-3.7-8.5z"/><path fill="#C34613" d="M228.6 143.1L68.9 117.6c-1.2-.2-2-1.3-1.9-2.6.2-1.2 1.3-2 2.6-1.9l159.7 25.5c1.2.2 2 1.3 1.8 2.6-.2 1.1-1.1 1.9-2.2 1.9 0 0-.1 0-.3 0z"/><path fill="#AC3514" d="M68.4 117.4c.2.1.3.2.5.2l159.7 25.5c.1 0 .2 0 .4 0 1.1 0 2-.8 2.2-1.9 0-.1 0-.2 0-.3L68.4 115.6v1.8z"/><path fill="#C34613" d="M238.5 150.7l-12.7-8.4c-.7-.5-1.1-1.3-1-2.1.1-.9.7-1.6 1.5-1.9l13.6-4.8c1.2-.4 2.4.2 2.8 1.4.4 1.2-.2 2.4-1.4 2.8l-9.2 3.2 8.7 5.9c1 .6 1.4 2 .7 3.1-.4.7-1.2 1.1-1.9 1.1-.3 0-.7-.1-1.1-.3z"/><path fill="#AC3514" d="M232.7 144.2l-.3-3-7.6-1.2c0 .1 0 .1-.1.2-.1.9.3 1.7 1 2.1l12.7 8.4c.4.2.8.3 1.2.3.8 0 1.5-.4 1.9-1.1 0 0 0-.1.1-.1l-8.9-5.6z"/><path fill="#B77900" d="M232.2 141l-3.1-.4-2.2 2.5 2.4 1.5 3.1-3.4z"/><path fill="#C34613" d="M76.8 116.9l2 11.1-65.6-21.7 69 .2z"/><path fill="#1A171B" d="M50.8 100.7c-.2 1.3-1.4 2.1-2.7 1.9-1.3-.2-2.1-1.4-1.9-2.7.2-1.3 1.4-2.1 2.7-1.9 1.2.2 2.1 1.4 1.9 2.7z"/><path fill="#AC3514" d="M14.2 106.6L78.8 128l-2-11.1zm47.9 12.8c6.7 1.1 12.9-3.5 14-10.1.1-.9.2-1.8.1-2.7l-24.4-.1c-.4 6.2 4 11.9 10.3 12.9z"/><path fill="#862B11" d="M72.4 116.2l-19.1-3.1c1.7 3.3 4.9 5.7 8.8 6.3 3.9.6 7.7-.7 10.3-3.2z"/><path fill="#EDF7FD" d="M75.5 106.9c-1.1 6.7-7.4 11.3-14.1 10.2-6.7-1.1-11.3-7.4-10.2-14.1 1.1-6.7 7.4-11.3 14.1-10.2 6.7 1.1 11.3 7.4 10.2 14.1z"/><path fill="#D7E8F1" d="M68.4 93.8c3.4 2.4 5.3 6.6 4.6 11-1 6.2-6.8 10.4-12.9 9.4-4.4-.7-7.7-3.9-9-7.8.6 5.4 4.7 9.9 10.3 10.8 6.7 1.1 13-3.5 14.1-10.2.9-5.7-2.2-11-7.1-13.2z"/><path fill="#1A171B" d="M71 104.3c-.3 2.1-2.3 3.5-4.4 3.2-2.1-.3-3.5-2.3-3.2-4.4.3-2.1 2.3-3.5 4.4-3.2 2.1.3 3.5 2.3 3.2 4.4z"/><path fill="#F5A000" d="M175.5 6.9c-2.9-1.4-5.7-1.6-6.2-1.6 0 0 0 0-.2 0-.1 0-.2 0-.5.1-.2.1-.8.6-.8 1.3 0 .3.1.6.2.8 1.4 2 2 4 2 6.1.1 6.8-7.5 15-17.7 22.8-10 7.8-22.3 15.6-31.1 22.7C107.8 69.4 102 82.6 102 93.7c0 5.9 1.6 11.2 4.7 15.1 4.6 6 5.4 10.2 5.4 12.7 0 .2 0 .4 0 .6-.1.2-.2.5-.2.8 0 0 0 0 0 .1s0 .3 0 .5c-.1.4-.2.5-.2.5-.1.3-.2.5-.1.8-.7 2.3-2.7 6.2-9.6 10.7-7 4.4-11.6 13.7-11.7 24.9 0 8.2 2.5 17.5 8.4 26.7 10.4 17.4 31.1 41.2 30.9 55.4 0 3.8-1.3 6.7-4.6 9.1-.6.4-.8 1.3-.3 1.9.6.7.5.4.6.5.5.2 2.3.7 5 .7 2.2 0 5-.4 7.3-2.3 2.3-1.8 3.8-5 3.8-9.7v-.1c-.3-14.9-16.3-41.4-26-56.6-6-8.7-9.8-17.7-9.8-24.9 0-4.8 1.6-8.7 5.5-11.5 12.9-9.4 15.6-20.2 16.2-23.5.2-1 .4-2.6.4-4.9 0-5.2-1.3-13.4-7.6-22.7-1.6-2.3-2.2-4.7-2.2-7.2-.1-8.1 7.8-17.7 18.7-25.5 14.4-11 38.5-30.4 43.9-44.3.8-2.1 1.1-3.9 1.1-5.6-.1-4.9-3.2-7.7-6.1-9z"/><path fill="#D38B00" d="M181.4 15.9c0-4.8-3.1-7.7-6-9-1.2-.5-2.3-.9-3.3-1.2 1 1.7 4.4 8.4.9 10.6-4 2.5-4.3 4-4.3 4s-1.2 2.7 1.5 4.7-23.2 26.2-39.8 38.4c-16.5 12.2-24.4 23.1-15.7 41.1s7 22.2 1.8 29.7-17.4 11.5-18 24.4c-.7 12.9 11.2 28.1 21.6 46.1 10.4 18 16.5 33.9 12.9 35.3-3.7 1.3-3.2 2.6-3.2 2.6s-1.3 5 2.2 6.6c3.5 1.7-4.2.5-4.2.5s2.5.8 3.3 2.3c.7 1.2-2.7 2.1-4 2.4.8.1 1.8.2 3 .3 2.2 0 5-.4 7.3-2.3 2.3-1.8 3.8-5 3.8-9.7v-.1c-.3-14.9-16.3-41.4-26-56.6-6-8.7-9.8-17.7-9.8-24.9 0-4.8 1.6-8.7 5.5-11.5 12.9-9.4 15.6-20.2 16.2-23.5.2-1 .4-2.6.4-4.9 0-5.2-1.3-13.4-7.6-22.7-1.6-2.3-2.2-4.7-2.2-7.2-.1-8.1 7.8-17.7 18.7-25.5 14.4-11 38.5-30.4 43.9-44.3.8-2.1 1.1-4 1.1-5.6z"/><path d="M178.8 25.7c-9.3-2-11.7-6.9-11.8-7.2-.3-.7 0-1.5.7-1.8.7-.3 1.5 0 1.8.7 0 0 0 0 0 .1s.1.2.3.4c.3.4.7.9 1.4 1.5 1.4 1.2 3.9 2.7 8.1 3.6.8.2 1.2.9 1.1 1.7-.1.7-.7 1.1-1.4 1.1 0-.1-.1-.1-.2-.1zm.7-.7c-7.8-2.6-11.5-10.8-11.6-10.9-.3-.7 0-1.5.7-1.9.7-.3 1.5 0 1.9.7 0 0 .9 1.8 2.6 4 1.7 2.1 4.2 4.5 7.4 5.5.7.2 1.1 1 .9 1.8-.2.6-.7 1-1.3 1-.3-.1-.5-.1-.6-.2zm-10.9-10.9c-.6-.5-.7-1.3-.3-1.9.5-.6 1.3-.7 2-.3 0 0 1.2.9 3.1 1.8 1.8.9 4.3 1.8 6.6 1.8.5 0 1 0 1.5-.1.8-.1 1.5.4 1.6 1.1.1.8-.4 1.5-1.1 1.6-.7.1-1.4.2-2 .2-6-.1-11.3-4.2-11.4-4.2zm-41.2 226.1c-.5-.6-.5-1.4.1-2 .6-.5 1.5-.5 2 .1 1.2 1.3 2.8 1.8 4.6 1.8 1.8 0 3.6-.5 5-1s2.3-1 2.3-1c.7-.4 1.5-.1 1.9.6.4.7.1 1.5-.6 1.9-.1 0-4.1 2.2-8.6 2.3 0 0 0 0-.1 0-2.2 0-4.7-.7-6.6-2.7zm.4 4.3c-.5-.6-.5-1.5.1-2s1.5-.5 2 .1c.9 1 1.9 1.3 3.1 1.3 1.8 0 3.9-.9 5.6-1.9 1.7-1 2.8-1.9 2.8-1.9.6-.5 1.5-.4 2 .2.5.6.4 1.5-.2 2-.1 0-5 4.4-10.2 4.5 0 0 0 0-.1 0-1.8 0-3.7-.7-5.1-2.3zm4 5.9c-3.1 0-5.2-1-5.3-1.1-.7-.3-1-1.2-.6-1.9.3-.7 1.2-1 1.9-.6 0 0 .3.2 1.1.4.7.2 1.8.4 3 .4 2.5 0 5.6-.8 8.9-4.3.5-.6 1.4-.6 2-.1.6.5.6 1.4.1 2-3.8 4-7.9 5.2-11.1 5.2.1 0 .1 0 0 0z" fill="#B77900"/><path fill="#FDCE58" d="M164.8 26.9s1.5-2.1 2.5-1.2c1 .8-6.7 11.9-22.5 22.9C124.9 62.4 117.6 67 113 76.2c-4.6 9.2-5.6 15.6-7.3 13.7-3.8-4.2 3.3-17.5 10.8-25 7.5-7.5 14.2-10.9 25.4-18.7 12.5-8.7 20-16 22.9-19.3zm-62 116.1s3.7-4 7.7-6c4-2.1 1.7-5.8-2.9-3.7-4.6 2.1-12.1 7.9-14.6 18.5s.4 22.1 4.8 30.6c4.4 8.5 16.7 25.4 18.1 25.4 1.5 0-6.2-12.7-11.5-21.2-5.2-8.6-13.5-31.3-1.6-43.6z"/></svg>