<?xml version="1.0" encoding="utf-8"?><svg xmlns="http://www.w3.org/2000/svg" width="260" height="260" viewBox="0 0 260 260"><path fill="#7B7C7E" d="M107.6 61.2s13.6-1.9 20.6 3.2c0 0 12.1-9.5 29.7.2 17.5 9.7 16 14.2 16 14.2s24.1 1.7 28 23.3c3.9 21.7-12.8 31.6-21.8 30.1-9-1.6-7.5-6.6-7.5-6.6s-3.1 9-10.3 38.7c-7.2 29.6-20.9 48.7-31 50.1-10.1 1.4-23.1-7.7-28.6-19.3-5.5-11.6-16.3-44.4-20.2-60.5-3.9-16.1-3.4-24.2-3.4-24.2s-7.1 11-17.7 7.9c-10.5-3.1-10.3-44.4 22.4-43.6.1-.1 10.7-11.1 23.8-13.5z"/><path fill="#666769" d="M194.7 88c1.8 3 2.6 6.5-.3 8.1-3.6 2.1-5.7-3.9-13.6-6-7.9-2.1-9.2 1.9-9.2 1.9-5.6 3.7-15 27.7-15 27.7s8 12.7 4.8 27.5c-1.7 7.9-20.2 36.3-16.6 45 3.6 8.8-11.2 16-11.2 16 5.4 2.6-1.2 5-5.4 6.2 1 .1 2 0 3-.1 10.1-1.4 23.8-20.5 31-50.1 7.2-29.6 10.3-38.7 10.3-38.7s-1.5 5 7.5 6.6c9.1 1.6 25.7-8.4 21.8-30.1-1-6.1-3.7-10.6-7.1-14z"/><path fill="#CDCFD0" d="M162.3 164.2c.7-3 1.4-5.8 2.1-8.4.3-3.5.2-10.3-5.6-10.2-7.6.2-15.3 35.2-25.9 41.2-10.6 6-16.6-.1-22.8-9.4-6.2-9.3-14.9-28.2-19.4-26.2-2.1.9-1.6 4.9-.1 11.1 4.3 13.1 9 26.2 12.1 32.7 5.5 11.6 18.5 20.8 28.6 19.3 10-1.4 23.7-20.4 31-50.1z"/><path fill="#DBDCDD" d="M126.4 209.3c2.4-10.5 1.1-15.3-3.5-17.7-1.1-.5-1.9-1.9-2.5-3.6-3.8-1.8-7-5.8-10.3-10.6-6-8.8-14.1-26.5-18.8-26.3-.6 3.1.8 10.7 3.2 17.9 3 9.1 10.7 29.8 18 36 7.3 6.2 14.8 7.5 15.1 6.1.4-1.5-1.2-1.8-1.2-1.8z"/><path fill="#C0C1C2" d="M163.4 159.6c.3-1.3.6-2.6.9-3.8.2-2.7.2-7.3-2.4-9.3-.1.1-3 17.2-10.6 37.1-8.9 19.5-17.6 24.7-17.6 24.7 5.4 2.6-1.2 5-5.4 6.2.5 0 1 0 1.4 0 .5 0 1 0 1.6-.1 10.1-1.4 23.8-20.5 31-50.1.3-1.4.7-2.7 1-4 0-.3.1-.5.1-.7z"/><circle fill="#4E4E50" cx="105.8" cy="99.8" r="20.4"/><path fill="#4E4E50" d="M170.2 97.7c0 15-12.2 27.2-27.2 27.2s-27.2-12.2-27.2-27.2S128 70.5 143 70.5s27.2 12.2 27.2 27.2z"/><path fill="#1A171B" d="M129.3 205.9c-.8-4 .2-9.4.4-9.4 7.3-.2 13.1-17.5 10.6-18.3-2.5-.8-5 4.6-13.1 4.8-8.1.2-10.8-1.9-13.7-2.9-2.9-1-.2 4-.2 4 1.7 3.7 6.8 10.5 12.5 12.6.2 1.1 1.3 3.9.9 9.5-.2 2.9-9-2.5-9-2.5s2.3 5.6 10.8 5.6 10.4-5.8 10.4-5.8-8.8 6.8-9.6 2.4zm28.1-141.5c10.9 5.9 14.5 9.9 15.6 12.1 14.6-51.5 82-73 82-73-70.9-7.4-102 43.1-109.1 57 3.5.4 7.4 1.6 11.5 3.9zm-71.6 8.3c3.8-3.4 11.9-9.6 21.3-11.4 0 0 3.1-.5 7.2-.4C107.7 48 76.8-4 4.9 3.5c0 0 64.2 20.5 80.9 69.2z"/><path fill="#4E4E50" d="M78.9 107.5s1-12.5 3.5-16.9c2.5-4.4-1.3-4.5-5.2-2-3.9 2.5-14.5 14-11 20.9 3.6 6.9 10.5 1.6 12.7-2zM171.7 92s5.5 4.9 3.5 14.4c-2 9.4-2.1 15.5-2.1 15.5s1.6 5.9 8.2 3.9c6.6-2 13.7-19.4 6.9-27.8-6.8-8.2-16.5-6-16.5-6z"/><path fill="#EFF8FD" d="M123.9 96.8c0 10.8-8.8 19.6-19.6 19.6s-19.6-8.8-19.6-19.6 8.8-19.6 19.6-19.6 19.6 8.8 19.6 19.6z"/><path fill="#D4E7F0" d="M108.8 77.8c5.6 3.2 9.5 9.3 9.5 16.2 0 10.3-8.3 18.6-18.6 18.6-3.7 0-7.1-1.1-9.9-2.9 3.6 4.1 8.8 6.6 14.7 6.6 10.8 0 19.6-8.8 19.6-19.6-.2-9.2-6.7-16.9-15.3-18.9z"/><circle fill="#1A171B" cx="106.1" cy="102.6" r="4.3"/><circle fill="#fff" cx="141.6" cy="95.8" r="25.3"/><path fill="#EFF8FD" d="M142.3 70.6c10 2.4 17.4 11.4 17.4 22.1 0 12.6-10.2 22.7-22.7 22.7-7.7 0-14.6-3.9-18.7-9.8 3.8 9.1 12.8 15.4 23.3 15.4 14 0 25.3-11.3 25.3-25.3-.1-13.6-11-24.7-24.6-25.1z"/><circle fill="#1A171B" cx="140.1" cy="102.9" r="7.5"/><path fill="#7B7C7E" d="M142.4 207.1c-3.9 4.3-7.7 6.8-11.1 7.3-5.5.8-11.9-1.6-17.4-5.8-2.1 4.6-3.6 15.4.9 25.6 5.8 13.3 17.5 9.7 10.8 22.7 0 0 11.7 3.1 16.8-8.3 5-11.1-8.6-22.6 0-41.5z"/><path fill="#434345" d="M117.3 185.4s-3.5-1.8-1.8-2.9c1.7-1.1 3.9 2.5 14.2 1.2 0 0 3.6-.2 6.7-2.5s.4 1.3-1.5 2.4c-2 1.1-8.7 4.8-17.6 1.8z"/><path fill="#666769" d="M142.4 207.1c-3.9 4.3-7.7 6.8-11.1 7.3-5.5.8-11.9-1.6-17.4-5.8-.5 1.1-.9 2.4-1.3 4.1 1.6-.8 4.6-1.2 6.3 4.2 2.4 7.7-1.2 15.4 5.5 24.3 0 0-4.3-19.1.2-21.1s1.2 7.1 4.3 16c3 8.9 3.4 12.4 3 13.6 0 0 2.8-4.9 1.4-10.3-1.4-5.5-3.6-13.6-.6-14.4 3-.8 4.9 5.1 6.5 13.2 1.6 8.1-.1 17.7-13.6 18.8 0 0 11.7 3.1 16.8-8.3 5-11.2-8.6-22.7 0-41.6z"/><path fill="#969799" d="M78.5 77.1s-9.9.1-15.4 9.3c-5.5 9.1 1.9 9.5 5 5 4.2-5.9 5.5-7.8 11.9-8.2 6.4-.5 3.2-6.3-1.5-6.1zm46.2-12.8s-13.1-4.3-23.5.7c-10.4 4.9-14 9.5-13.6 12.8.4 3.3 13.1-5.8 21.3-3 8.2 2.8 11.3 1.1 17.6-2.6 6.3-3.7 10.6-7.4 18.7-6.3 8.1 1.1 3.3-4.9-3.6-4.3-6.9.7-11.8 3.7-12.8 4.5-2.1-.9-4.1-1.8-4.1-1.8z"/><path fill="#666769" d="M113.1 179.8s.2.2.6.4c2.8 1.1 5.6 3 13.4 2.8 6.5-.2 9.4-3.7 11.6-4.7-.4-3.4-4.4-38 4.2-53.5-9.1 0-17.2-4.5-22.1-11.4-3.7 4.1-9.1 6.7-15.1 6.7-1 0-2-.1-3-.2 1.8 5.7 11.8 42 10.4 59.9z"/><path fill="#3E3D40" d="M153.1 53.8s-2.1 4.3 3.6 6.3c5 1.7 8.3-.8 11.7-3.7 3.5-2.9 18.6-29.8 42.7-42 15.2-7.7 23.6-8.3 20.1-8.9-3.5-.6-32.1 3.8-50 17.8-17.8 14-24.9 23.8-28.1 30.5zm-70.5 6.8s2.1 4.6 6.1 4.3c4-.3 8.2-6.4.9-15.8-7.3-9.4-28-27.4-58.7-36.2 0 0 36.8 18.3 51.7 47.7z"/></svg>