<?xml version="1.0" encoding="utf-8"?>
<!-- Generator: Adobe Illustrator 17.1.0, SVG Export Plug-In . SVG Version: 6.00 Build 0)  -->
<!DOCTYPE svg PUBLIC "-//W3C//DTD SVG 1.1//EN" "http://www.w3.org/Graphics/SVG/1.1/DTD/svg11.dtd">
<svg version="1.1" id="Layer_1" xmlns="http://www.w3.org/2000/svg" xmlns:xlink="http://www.w3.org/1999/xlink" x="0px" y="0px"
	 width="260px" height="260px" viewBox="0 0 260 260" enable-background="new 0 0 260 260" xml:space="preserve">
<g>
	<path fill="#C14127" d="M103.8,79.2c0-1.5,0.3-3,0.7-4.1c0.2-0.5,0.4-1,0.5-1.3c0.1-0.3,0.2-0.4,0.2-0.4l-5.6-3
		c-0.1,0.2-1.8,3.4-2.1,7.8c1.6,1.2,4.2,1.1,6.4,1.8C103.8,79.8,103.8,79.5,103.8,79.2z"/>
	<path fill="#E64434" d="M107.6,85.6c0,0.1,0,0.2,0,0.4C107.6,85.8,107.6,85.7,107.6,85.6c-2.9-1.6-3.5-3.5-3.7-5.5
		c-2.1-0.7-4.7-0.6-6.4-1.8c0,0.3-0.1,0.6-0.1,0.9c-0.2,5,3.1,11.6,11.9,13.9l1.8-6.1C109.6,86.6,108.5,86.1,107.6,85.6z"/>
	<path fill="#C14127" d="M147.3,85.2c0.1-0.3,0.2-0.6,0.3-0.9c1.3-4.5,1.5-8.1,1.5-8.3l-6.3-0.2c0,0,0,0.7-0.2,1.9
		c-0.2,1.5-0.6,3.5-1.3,5.6C143.9,83.1,145.8,83.8,147.3,85.2z"/>
	<path fill="#E64434" d="M141.3,83.3c-1.2,3.3-3.1,6.8-6.2,8.4l3.1,5.5c5.2-2.9,7.7-7.9,9.2-12.1C145.8,83.8,143.9,83.1,141.3,83.3z
		"/>
	<circle fill="#E64434" cx="107.5" cy="56" r="20.1"/>
	<path fill="#C14127" d="M107.5,35.8c-0.8,0-1.6,0.1-2.4,0.1c10.5,0.2,18.9,8.8,18.9,19.3c0,10.7-8.6,19.3-19.3,19.3
		c-3.2,0-6.2-0.8-8.9-2.2c3.3,2.3,7.3,3.7,11.6,3.7c11.1,0,20.1-9,20.1-20.1C127.6,44.9,118.6,35.8,107.5,35.8z"/>
	<path fill="#FFFFFF" d="M106.4,73.2c-8,0-14.5-6.5-14.5-14.4c0-7.9,6.5-14.4,14.5-14.4c8,0,14.5,6.5,14.5,14.4
		C120.9,66.7,114.4,73.2,106.4,73.2L106.4,73.2z"/>
	<path fill="#ECF4F8" d="M106.4,44.4c-5,0-9.4,2.5-12,6.3c2.4-1.6,5.2-2.6,8.3-2.6c8,0,14.5,6.5,14.5,14.4c0,3-0.9,5.8-2.5,8.1
		c3.8-2.6,6.2-6.9,6.2-11.8C120.9,50.9,114.4,44.4,106.4,44.4z"/>
	<circle fill="#1A171B" cx="108.1" cy="58.4" r="4.3"/>
	<circle fill="#E64434" cx="146.9" cy="56.4" r="24.5"/>
	<path fill="#C14127" d="M148.3,32c10,2.3,17.5,11.2,17.5,21.9c0,12.4-10.1,22.5-22.5,22.5c-7.7,0-14.6-3.9-18.6-9.9
		c3.9,8.5,12.4,14.3,22.3,14.3c13.5,0,24.5-11,24.5-24.5C171.4,43.4,161.1,32.7,148.3,32z"/>
	<path fill="#FFFFFF" d="M146.2,78.6c-11,0-20-8.4-20-18.7c0-10.3,9-18.7,20-18.7c11,0,20,8.4,20,18.7
		C166.2,70.3,157.2,78.6,146.2,78.6L146.2,78.6z"/>
	<path fill="#ECF4F8" d="M146.2,41.3c-6.2,0-11.8,2.7-15.5,6.9c3.2-2,7.1-3.2,11.2-3.2c11,0,20,8.4,20,18.7c0,4.5-1.7,8.6-4.5,11.8
		c5.3-3.4,8.8-9,8.8-15.5C166.2,49.7,157.2,41.3,146.2,41.3z"/>
	<path fill="#1A171B" d="M145.1,60.5c0,3.3-2.6,5.9-5.9,5.9c-3.3,0-5.9-2.6-5.9-5.9c0-3.2,2.6-5.9,5.9-5.9
		C142.5,54.6,145.1,57.2,145.1,60.5z"/>
	<path fill="#E64434" d="M75.5,166.4c0,0-22.1-2.7-25.2-28.3c0,0,17.3-14.6,12.8-31.8C58.7,89,38.3,84.1,38.3,84.1s3.1,7.1-4.4,14.2
		c-7.5,7.1-4,8.4,3.5,15.9c7.5,7.5,9.3,11.5,6.6,16.4c-2.7,4.9,3.5,6.6,3.5,6.6s-7.5,2.2-8.4-4.4c-0.9-6.6,5.3-6.6-1.8-14.6
		c-7.1-8-14.2-8.4-11.1-14.6c3.1-6.2,6.6-13.7,5.7-16.8c-0.9-3.1-15.2,3.6-16.3,26.2c-0.8,16,15,28.2,27.8,29.6
		c0,0,8,24.8,26.5,31.4C83.5,178.7,75.5,166.4,75.5,166.4z"/>
	<path fill="#C4422E" d="M97.1,221.8c0.3-7.3,9.2-10.3,9.2-10.4l0,0l1.2,2.9c0,0-1.9,0.7-3.7,2.1l0,0c-1.9,1.4-3.5,3.3-3.5,5.4l0,0
		c0,1.4,0.6,3.1,2.9,5.4l0,0l-2.2,2.2C98.3,226.8,97.1,224.2,97.1,221.8L97.1,221.8z"/>
	<path fill="#C4422E" d="M133.8,226.2c2.5-1.9,3.1-3.3,3.1-4.6l0,0c0-1.6-1.2-3.4-2.7-4.8l0,0c-1.4-1.3-2.8-2.1-2.9-2.2l0,0l1.6-2.7
		c0,0.2,6.9,3.6,7.1,9.7l0,0c0,2.4-1.4,5-4.4,7.1l0,0L133.8,226.2L133.8,226.2z M131.4,214.7C131.4,214.7,131.4,214.7,131.4,214.7
		L131.4,214.7L131.4,214.7L131.4,214.7L131.4,214.7z"/>
	<path fill="#C4422E" d="M180.6,218.3c2.2-2.1,2.8-3.6,2.8-4.5l0,0c0.1-1.2-1.1-2.3-2.8-3.1l0,0c-1.6-0.8-3.3-1.2-3.3-1.1l0,0
		l0.6-3.1c0.1,0,2,0.4,4.1,1.4l0,0c2,1,4.5,2.8,4.6,6l0,0c0,2.2-1.2,4.4-3.8,6.8l0,0L180.6,218.3L180.6,218.3z"/>
	<path fill="#C4422E" d="M204.5,198.1c0.4-1.1,0.6-1.9,0.5-2.5l0,0c0-1-0.3-1.2-0.8-1.6l0,0c-0.6-0.3-1.6-0.5-2.7-0.5l0,0
		c-1.8,0-3.6,0.4-3.6,0.4l0,0v0l-0.8-3.1c0.1,0,2.1-0.5,4.4-0.5l0,0c1.4,0,2.9,0.2,4.2,0.9l0,0c1.4,0.7,2.5,2.4,2.4,4.3l0,0
		c0,1.1-0.3,2.2-0.8,3.6l0,0L204.5,198.1L204.5,198.1z"/>
	<ellipse fill="#C4422E" cx="95.7" cy="228.5" rx="8.2" ry="3.5"/>
	<ellipse fill="#C4422E" cx="140.4" cy="228.3" rx="8.2" ry="3.5"/>
	<path fill="#C4422E" d="M194.5,219.5c0,1.7-3.3,3.2-7.3,3.2c-4,0-7.3-1.4-7.3-3.2c0-1.7,3.3-3.2,7.3-3.2
		C191.3,216.4,194.5,217.8,194.5,219.5z"/>
	<ellipse fill="#C4422E" cx="210" cy="198.9" rx="6.9" ry="3"/>
	<path fill="#E64434" d="M86,145.3c0,0-26.1-0.5-23-11.9c3-11.4,36-51.7,56.7-49.6c20.8,2,55.5,43.6,54.2,53.4
		C172.6,147,121.5,149.3,86,145.3z"/>
	<path fill="#1A171B" d="M149.2,113c0,0,28.9-9.2,27.7-41.6c0,0-5.1,31.1-30.9,37.6C146,108.9,142.8,113.6,149.2,113z"/>
	<path fill="#EA6762" d="M112.2,89.4c0,0-18.1,6.2-31.8,26.1c-13.7,19.9,33.1,20.8,54.9,17.7C153.5,130.6,128.1,85.5,112.2,89.4z"/>
	<path fill="#1A171B" d="M93.6,110.2c0,0-28.4-10.8-25.4-43.1c0,0,3.4,31.3,28.9,39.1C97,106.3,99.9,111.1,93.6,110.2z"/>
	<path fill="#D84832" d="M86,145.3c0,0-9.1-0.2-16-2.7c-0.2,1,0,2.6,2,4.7c3.5,3.8,18.7,17.2,46.6,17.5c25.9,0.2,45.4-15,43.8-21.1
		C145.1,147.8,111.5,148.2,86,145.3z"/>
	<path fill="#E64434" d="M160.2,149.2c-5.8,6.9-21.8,15.8-41.6,15.6c-22.9-0.2-37.3-9.3-43.6-14.7c-4.2,6.8-6.7,14.7-6.7,23.2
		c0,25.5,22.2,46.2,49.5,46.2c27.4,0,49.5-20.7,49.5-46.2C167.5,164.4,164.8,156.2,160.2,149.2z"/>
	<path fill="#E64434" d="M166.7,165.1c0.5,2.7,0.8,5.4,0.8,8.2c0,19.9-13.4,36.8-32.2,43.3c4.8,2.1,10.2,3.3,16,3.3
		c19,0,34.4-13,34.4-29C185.6,179.6,177.9,169.9,166.7,165.1z"/>
	<path fill="#E64434" d="M177.5,167.7c-1.7,0-3.4,0.2-5,0.5c8,5.3,13.2,13.5,13.2,22.8c0,6.3-2.4,12.2-6.5,17
		c12.4-0.7,22.3-9.4,22.3-20.1C201.4,176.7,190.7,167.7,177.5,167.7z"/>
	<path fill="#E64434" d="M212,175c-1.7-7.2-10-11.5-18.5-9.5c-2.8,0.7-5.3,1.9-7.3,3.5c8.9,2.9,15.2,10.2,15.2,18.7
		c0,1.2-0.1,2.3-0.4,3.5C208.7,188.9,213.6,181.8,212,175z"/>
	<path fill="#E64434" d="M236,164.2c-2.7-11.5-16.4-7.5-16.4-7.5c0.4-13.3-15.5-21.2-19.9-4c-1.3,5.2-1.2,9.3-0.5,12.5
		c6.2,0.6,11.4,4.3,12.7,9.9c0.3,1.2,0.4,2.5,0.2,3.7C222.2,181,238.2,173.5,236,164.2z"/>
	<path fill="#C64328" d="M86,145.3c0,0-6.6-0.1-12.7-1.7c7.7,2.8,23.5,7.8,40.3,7.8c22.8,0,10.5,11.7-4.4,12.8
		c3,0.4,6.2,0.6,9.6,0.6c25.9,0.2,45.4-15,43.8-21.1C145.1,147.8,111.5,148.2,86,145.3z"/>
	<path fill="#D24630" d="M68.5,170.6c2.7-6.2,7.6-11.5,14-15.3c-3.1-1.8-5.6-3.7-7.4-5.2C71.3,156.2,69,163.2,68.5,170.6z
		 M160.2,149.2c-3.8,4.6-12.3,10.1-23.4,13.2c4.8,5.3,7.6,11.9,7.6,19.1c0,17.8-17.5,32.3-39.1,32.3c-5.8,0-11.4-1.1-16.3-3
		c8.1,5.5,18.1,8.7,29,8.7c27.4,0,49.5-20.7,49.5-46.2C167.5,164.4,164.8,156.2,160.2,149.2z"/>
	<ellipse fill="#EA6762" cx="96.9" cy="183.4" rx="21.5" ry="18.8"/>
	<path fill="#EA6762" d="M92,199.6c0,1.4-1.3,2.6-3,2.6c-1.6,0-3-1.2-3-2.6c0-1.4,1.3-2.6,3-2.6C90.7,197.1,92,198.2,92,199.6z"/>
	<path fill="#D24630" d="M236,164.2c-2.7-11.5-16.4-7.5-16.4-7.5c0.2-4.9-1.9-9.1-4.8-11.5c-4.5-2.1-10.8,2.7-11.7,8.8
		c-1.1,7.5,2.2,12.8,2.3,13c3.3,1.7,5.7,4.5,6.5,8.1c0.3,1.2,0.4,2.5,0.2,3.7C222.2,181,238.2,173.5,236,164.2z"/>
	<path fill="#D24630" d="M208.2,179.8c1.8-3.6,1.8-7.2,0.5-10.6c-0.9-0.9-2-1.7-3.2-2.3c0,0,0,0.1,0,0.1c3.2,6-11.5,6.3-11.5,6.3
		c0,0,0,0,0,0c4.2,3.4,6.9,8.1,7.3,13.4C204.8,185.7,206.5,181.5,208.2,179.8z"/>
	<path fill="#C4422E" d="M212,175c-0.5-2.2-1.7-4.2-3.3-5.8c1.3,3.3,1.3,6.9-0.5,10.6c-1.7,1.7-3.3,5.9-6.9,6.9
		c0,0.4,0.1,0.7,0.1,1.1c0,1.2-0.1,2.3-0.4,3.5C208.7,188.9,213.6,181.8,212,175z"/>
	<path fill="#C4422E" d="M185.5,193.3c-0.5,5.4-2.8,10.4-6.4,14.6c11.4-0.6,20.6-8,22.1-17.5C197.1,196.1,191.1,199,185.5,193.3z"/>
	<path fill="#D24630" d="M201.1,190.4c0.1-0.8,0.2-1.7,0.2-2.6c0-5.7-2.8-10.9-7.4-14.5c1.7,6.9-12.6,3.6-12.6,3.6
		c0,0.1,0,0.1,0,0.1c2.7,4.1,4.2,8.8,4.2,13.8c0,0.8,0,1.6-0.1,2.3C191.1,199,197.1,196.1,201.1,190.4z"/>
	<path fill="#C4422E" d="M203.9,185.6c-1.1-5.4-4.7-9.6-9.5-12.3c-0.2,0-0.4,0-0.4,0c0,0,0,0,0,0c4.5,3.7,7.4,8.8,7.4,14.5
		c0,1.2-0.1,2.3-0.4,3.5c1.2-0.4,2.2-0.8,3.3-1.4C204.3,188.5,204.2,187.1,203.9,185.6z"/>
	<path fill="#D24630" d="M184.9,197c0.5-1.9,0.8-4,0.8-6c0-5-1.5-9.8-4.2-13.9c1.4,11.6-12.9,7.9-15.3,7.2c-2,7.6-6,14.5-11.5,20.2
		c0,0,0,0,0,0C166.8,210.6,179.1,206.2,184.9,197z"/>
	<path fill="#C4422E" d="M154.5,204.4C154.5,204.4,154.5,204.4,154.5,204.4c-5.3,5.4-11.8,9.6-19.3,12.2c4.8,2.1,10.2,3.3,16,3.3
		c16.5,0,30.3-9.8,33.6-22.9C179.1,206.2,166.8,210.6,154.5,204.4z"/>
	<path fill="#C4422E" d="M186.8,186c-0.8-3.3-2.3-6.2-4.3-8.8c-0.7-0.1-1.2-0.2-1.2-0.2c0,0.1,0,0.1,0,0.1c2.7,4.1,4.2,8.8,4.2,13.8
		c0,6.3-2.4,12.2-6.5,17c1.3-0.1,2.5-0.2,3.7-0.5C187.1,201,188.8,193.4,186.8,186z"/>
	<path fill="#C4422E" d="M166.6,184.4c-0.2-0.1-0.4-0.1-0.6-0.2c-3.9,14.9-15.6,27.1-30.8,32.4c4.1,1.8,8.6,2.9,13.4,3.2
		C159.6,211.4,166.6,198.6,166.6,184.4z"/>
	<path fill="#EA6762" d="M171.3,174.4c0,0-4.5-4.7-1-5.3c3.5-0.6,8.6,5.2,7.3,6.6C176.4,177,173.2,176.3,171.3,174.4z"/>
	<path fill="#EA6762" d="M183,169.4c0,0,5.2,0.5,6.3,2.3c1.1,1.8-3.5,1.5-6,0.1C180.7,170.4,181.3,169.3,183,169.4z"/>
	<path fill="#EA6762" d="M201.5,167.5c0,0-4.7-1.4-6.5-0.3c-1.8,1.1,3,2.5,5.5,2.5C203,169.7,203.4,168.3,201.5,167.5z"/>
	<path fill="#E64434" d="M192.7,126.6c0,0-18.1-23.4-2.2-42.9c15.9-19.5,38.9-11.5,38.9-11.5s0.4,17.3-10.2,23.4
		c-10.6,6.2-13.3,6.2-13.3,6.2l3.5,6.5c0,0-5.3,8.6-10.2,8.6c-4.9,0-3.1,6.2-3.1,6.2s14.2,0.4,20.3-4.9c6.2-5.3,0.4-12.8,0.4-12.8
		s21.7-10.2,22.1-25.2c0,0,7.5,14.2-0.9,34.9c-8.4,20.8-38.5,15-38.5,15s-14.6,31.9-38.9,35.4c-4.1,0.2-7.3-4-0.9-6.6
		C160,158.9,182.5,150.5,192.7,126.6z"/>
	<ellipse fill="#E64434" cx="94.4" cy="227.4" rx="5.2" ry="1.8"/>
	<path fill="#E64434" d="M147.3,227.3c0,1-2.3,1.8-5.2,1.8c-2.9,0-5.2-0.8-5.2-1.8c0-1,2.3-1.8,5.2-1.8
		C145,225.5,147.3,226.3,147.3,227.3z"/>
	<ellipse fill="#E64434" cx="189.5" cy="218.5" rx="4" ry="1.4"/>
	<path fill="#E64434" d="M215.2,198c0,0.8-1.8,1.4-4,1.4c-2.2,0-4-0.6-4-1.4c0-0.8,1.8-1.4,4-1.4C213.5,196.6,215.2,197.2,215.2,198
		z"/>
	<path fill="#C64328" d="M160.9,165.5c-1.6,0.1-3.1-0.5-3.9-1.5c0.1,0.2,0.1,0.5,0.2,0.8c1.2,3,7.5,4.4,10.2,4.9
		c-0.2-1.9-0.4-3.8-0.8-5.6C164.7,164.8,162.8,165.2,160.9,165.5z"/>
	<path fill="#C14127" d="M219.2,95.6c-10.6,6.2-13.3,6.2-13.3,6.2l3.5,6.5c0,0-5.3,8.6-10.2,8.6c-4.9,0-3.1,6.2-3.1,6.2
		s14.2,0.4,20.3-4.9c6.2-5.3,0.4-12.8,0.4-12.8s21.7-10.2,22.1-25.2c-1.6-5-8-1.3-10.6,0.5C227.4,85.9,224.9,92.3,219.2,95.6z"/>
	<path fill="#EA6762" d="M189,100.2c0,0-1.5-13,8.4-20.5c9.9-7.5,20.8-7.2,23.7-4c2.8,3.1-10.3,16.7-14.5,20.1
		C199.6,101.2,189.5,109,189,100.2z"/>
	<path fill="#C64328" d="M26.4,103.6c-3.1,6.2,4,6.6,11.1,14.6c7.1,8,0.9,8,1.8,14.6c0.9,6.6,8.4,4.4,8.4,4.4s-6.2-1.8-3.5-6.6
		c2.7-4.9,0.9-8.8-6.6-16.4c-7.5-7.5-11.1-8.8-3.5-15.9c7.5-7.1,4.4-14.2,4.4-14.2c-1.8-0.8-4.3,1.7-6.1,3.9
		C32.2,91.6,29.1,98.1,26.4,103.6z"/>
	<path fill="#EA6762" d="M26.4,97.5c0,0,2.3-4.8,0.9-6.1c-1.4-1.4-4.3,1.7-5.7,4.9C20.1,99.5,23.6,102,26.4,97.5z"/>
	<circle fill="#D84832" cx="135.8" cy="189.1" r="5.1"/>
	<path fill="#D84832" d="M54,120.6c0,1.3-1.1,2.3-2.3,2.3c-1.3,0-2.3-1.1-2.3-2.3c0-1.3,1.1-2.3,2.3-2.3C53,118.2,54,119.3,54,120.6
		z"/>
	<circle fill="#D84832" cx="46.7" cy="114.2" r="2.7"/>
	<circle fill="#D84832" cx="231.7" cy="105.6" r="2.7"/>
	<circle fill="#D84832" cx="151.2" cy="127.9" r="2.7"/>
	<circle fill="#D84832" cx="142.8" cy="136.8" r="2.7"/>
	<circle fill="#D84832" cx="21.2" cy="117.7" r="2.7"/>
	<circle fill="#D84832" cx="222.2" cy="121.7" r="2.7"/>
	<circle fill="#D84832" cx="41.5" cy="104.8" r="1.6"/>
	<circle fill="#D84832" cx="51.6" cy="97.6" r="0.9"/>
	<circle fill="#D84832" cx="117.1" cy="140.4" r="1.1"/>
	<circle fill="#D84832" cx="42.2" cy="100.5" r="3.8"/>
	<circle fill="#D84832" cx="154" cy="118.9" r="4.8"/>
	<circle fill="#D84832" cx="52.5" cy="106.5" r="3.5"/>
	<path fill="#D84832" d="M235.7,115c0,1.9-1.6,3.5-3.5,3.5c-1.9,0-3.5-1.6-3.5-3.5c0-1.9,1.6-3.5,3.5-3.5
		C234.1,111.5,235.7,113.1,235.7,115z"/>
	<path fill="#D84832" d="M127.1,181.8c0,1.4-1.2,2.6-2.6,2.6c-1.4,0-2.6-1.2-2.6-2.6c0-1.4,1.2-2.6,2.6-2.6
		C126,179.2,127.1,180.3,127.1,181.8z"/>
	<path fill="#D84832" d="M124.8,202.7c0,2.4-1.9,4.3-4.3,4.3c-2.4,0-4.3-1.9-4.3-4.3c0-2.4,1.9-4.3,4.3-4.3
		C122.8,198.3,124.8,200.3,124.8,202.7z"/>
	<circle fill="#D84832" cx="75" cy="164.7" r="4.3"/>
	<circle fill="#D84832" cx="141" cy="172.6" r="4.3"/>
	<circle fill="#D84832" cx="136.5" cy="202.2" r="4.3"/>
	<circle fill="#D84832" cx="103.7" cy="209.1" r="2.5"/>
	<circle fill="#C4422E" cx="178.6" cy="194.9" r="2.7"/>
	<circle fill="#C4422E" cx="168.2" cy="201.9" r="1.9"/>
	<circle fill="#C4422E" cx="173.5" cy="191.6" r="1.9"/>
	<circle fill="#C4422E" cx="206.5" cy="177.6" r="1.9"/>
	<circle fill="#C4422E" cx="196.4" cy="194.4" r="1.9"/>
	<circle fill="#C4422E" cx="188.6" cy="185.4" r="1.2"/>
	<circle fill="#C4422E" cx="195.3" cy="183.1" r="1.7"/>
	<circle fill="#ED7D72" cx="102.4" cy="97.6" r="1.5"/>
	<circle fill="#ED7D72" cx="103.3" cy="103.9" r="3.2"/>
	<circle fill="#ED7D72" cx="88.3" cy="113.5" r="1.5"/>
	<circle fill="#ED7D72" cx="111.4" cy="124.3" r="1.9"/>
	<circle fill="#ED7D72" cx="86.5" cy="178.4" r="2.8"/>
	<circle fill="#ED7D72" cx="92.2" cy="174.2" r="1.5"/>
	<circle fill="#ED7D72" cx="92.8" cy="121.6" r="2.8"/>
	<circle fill="#ED7D72" cx="105.1" cy="116.8" r="1.5"/>
</g>
</svg>
