<?xml version="1.0" encoding="utf-8"?><svg xmlns="http://www.w3.org/2000/svg" width="260" height="260" viewBox="0 0 260 260"><path fill="#A74C58" d="M110.2 36.7s-38.4 2.2-53.6 21.7c-15.2 19.5 6.5 44.9 6.5 44.9s75.4-14.5 47.1-66.6z"/><path fill="#F7FCFE" d="M66.8 109c0 9.2-7.4 16.6-16.6 16.6-9.2 0-16.6-7.4-16.6-16.6 0-9.2 7.4-16.6 16.6-16.6 9.2 0 16.6 7.4 16.6 16.6z"/><path fill="#ECF4F8" d="M53.2 92.7c3.9 2.9 6.4 7.5 6.4 12.7 0 8.8-7.1 15.9-15.9 15.9-2 0-3.9-.4-5.7-1.1 3 3.3 7.4 5.4 12.3 5.4 9.2 0 16.6-7.4 16.6-16.6-.1-8.2-5.9-14.9-13.7-16.3z"/><path fill="#FACCAE" d="M70.4 79.1s-10.4 11-11.9 30-12.2 34.7-22.9 40.7c0 0-2.1 1.5 3 5.3 5 3.9 16 6.2 15.7 9.2-.3 3-7.4 51.9 3.6 57.3 11 5.3 28.8-18.1 44.2-25.2 15.4-7.1 31.8-7.7 31.8-7.7s70.7-26.1 60-77.5c-10.7-51.4-91.8-67.4-123.5-32.1z"/><path fill="#EBB38E" d="M72.1 77.3c4.1 6.5 26 42.7 17.4 49.5-9.5 7.5-24 8-31-8 0 0 3.5 15.6 18 16.6 14.5 1 22-3.1 28-9.1s17.5 16 18 33.5c.3 10.2-4.1 23-7.9 32 10.7-2.9 19.3-3.2 19.3-3.2s70.7-26.1 60-77.5C183.4 60.7 105 44.4 72.1 77.3z"/><path fill="#C1CCE4" d="M36.5 99.6c2.4 3.2 8.5 8.4 20.4 4.2 0 0 3.3 3.3 9.8 6 0-.3 0-.5 0-.8 0-9.2-7.4-16.6-16.6-16.6-5.6 0-10.6 2.8-13.6 7.2z"/><circle fill="#6A3A09" cx="50.2" cy="118.8" r="3.4"/><path fill="#AEBDDB" d="M61.5 96.8c-3-2.7-6.9-4.4-11.2-4.4-1 0-1.9.1-2.8.3 2.3 1.5 8.2 6.1 3 11.7l6.3-.5c.1 0 .1 0 .1 0l1.2-.1c.1-.1-.2-3 3.4-7z"/><path fill="#fff" d="M99.6 111c0 12-9.7 21.8-21.8 21.8-12 0-21.7-9.7-21.7-21.8 0-12 9.7-21.8 21.7-21.8 12.1.1 21.8 9.8 21.8 21.8z"/><path fill="#ECF4F8" d="M78.7 89.3c7.1 3.6 12 10.9 12 19.4 0 12-9.7 21.8-21.8 21.8-.3 0-.5 0-.8 0 2.9 1.5 6.2 2.3 9.7 2.3 12 0 21.8-9.7 21.8-21.8 0-11.7-9.3-21.2-20.9-21.7z"/><path fill="#C1CCE4" d="M99.6 110.8c-.1-11.9-9.8-21.5-21.7-21.5-9.6 0-17.7 6.2-20.6 14.8 2.2 2 16.3 13.6 42.3 6.7z"/><path fill="#6A3A09" d="M85.6 123.9c0 2.8-2.3 5.1-5.1 5.1s-5.1-2.3-5.1-5.1 2.3-5.1 5.1-5.1c2.8-.1 5.1 2.2 5.1 5.1z"/><path fill="#AEBDDB" d="M99.5 109.7c-.7-11.4-10.1-20.4-21.7-20.4-2.3 0-4.6.4-6.7 1.1 6.2-1.6 12.2 1.8 14.9 8.6 3.6 8.9-.3 14-.3 14s7.3-1.3 13.8-3.3z"/><path fill="#6A3A09" d="M35.2 97.5s5.3 12.1 21.8 6.3c0 0 18.9 19.4 56.6 1.9 0 0-30 10.6-55.2-3.9 0 0-10.1 3.6-17.3-.6-7.1-4.2-6.8-7.7-6.8-7.7s-.2 1.9.9 4z"/><path fill="#D7515E" d="M94.9 178.2s-7.1 8.3-16.2 6.8c-9.1-1.5-13.3-11.8-17.7-15-4.4-3.2-8.5 2.9-8.5 2.9s-2.1-1.5-5.6-1.5c-3.5 0-4.7 6.8.6 15.6 0 0 2.1 2.1 3.5 2.1 1.5 0 2.9 2.4 4.4 2.4 1.5 0 1.8-2.9 5.6-2.7 3.8.3 14.7 2.9 23.6-1.2 8.8-4.1 11.2-8.3 11.2-8.3s1.8 0 1.5 2.4c0 0 2.9-5.3-4.4-8-.1 0 2.9 3 2 4.5z"/><path fill="#EA6A70" d="M61 188.8c-3.8-.3-4.1 2.7-5.6 2.7s-2.9-2.4-4.4-2.4c-1.1 0-2.6-1.2-3.2-1.8-2.2 2.8-3.9 8.6-2.9 15.3 1.2 8.8 7.4 10.9 14.7 7.1 6.4-3.3 18.3-17.3 21.2-20.7-8 2-16.5 0-19.8-.2z"/><path fill="#EBB38E" d="M59.5 209.7c-2.4 1.3-4.7 1.9-6.7 1.8.1.3.1.7.2 1 1.4 1.9 3.7 2.1 6.5 1.1 4.3-1.7 15.3-17.5 15.3-17.5s-.2 0-.4.1c-4.7 5.2-10.8 11.4-14.9 13.5z"/><path fill="#ED7E80" d="M52.3 201.7s-1.5-12.5-4.7-10.4c-3.2 2.1-1.8 15 .3 16.6 2.1 1.6 5.1-.9 4.4-6.2zm11.6-8.6s-6.9 1.3-9 8c-2.1 6.7-.2 8.6 3.8 6.8 4-1.8 10.9-10.2 9.9-12.6-1-2.3-4.7-2.2-4.7-2.2z"/><path fill="#F29EA1" d="M46.8 195.9s-.7 4.6.7 6.6c1.3 2 .9-9.8-.7-6.6z"/><path fill="#F29E9B" d="M60.4 171.9s-2.6-.7-4 1.9c-1.4 2.5-3.5.9-2.7-1.2.8-2.2 6.2-4.5 6.7-.7zm-10 1.4s-2.8-2.1-4.9-.1c-2 2-.3 8.7.7 9.1 1 .5-1.4-6.7.7-7.4 2.1-.6 5.2.2 3.5-1.6z"/><path fill="#C25965" d="M137 36.7s-50-8-64.4 21.7c-14.5 29.7 16.7 34.7 46.3 76.7 29.7 42-2.9 83.3-2.9 83.3s14.5-8.7 21.7-18.8c0 0-6.5 16.6-15.2 24.6 0 0 66.6 6.5 97-64.4C250 88.8 170.3 36.7 137 36.7z"/><path fill="#EBB38E" d="M64.4 162.3c4.9-3 2.6-8 2.6-8 0 3-4.7 2.6-4.7 2.6-12.2.2-25.7-5.5-27.1-6.1 0 .8.7 2.2 3.4 4.3 5 3.9 16 6.2 15.7 9.2 0 .5-.3 2.2-.6 4.8 2-3.3 6.3-4.1 10.7-6.8z"/><path fill="#CB9B7D" d="M51.7 157.9s9.9.7 8.6 3.2c-1.4 2.5-8.6-3.2-8.6-3.2z"/><path fill="#D4898D" d="M117.5 38.8S82 38.1 75.5 62s47.8 45.6 60.1 90.5c0 0 10.9-8 2.2-29s18.8-16.6 29 7.2c10.1 23.9 2.2-19.5-9.4-34-11.6-14.5 0-19.5 13-10.1s7.2-17.4-1.5-23.9 26.8 10.9 26.8 10.9-11.6-15.9-34-24.6c-22.4-8.7 0 9.2 4.5 19.9s-4 2.4-15 .3-19.6 3-19.6 3 21.8 26.7 14.3 30.4c-7.5 3.7-21.3-9.1-24.3-8.7-3 .3 16.9 34.2-.7 17.5-17.6-16.9-62.2-58.7-3.4-72.6z"/><path fill="#B0515C" d="M219.6 159.7c12.3-28.7 6.6-54.4-6.8-74.7-7.8-3.2-21.4-8.6-26.9-9.6-8-1.3 7.4 22.8 6 28.1-1.3 5.4-19.4-12.7-22.8-8-3.3 4.7 20.1 15.4 10.7 49.5-9.4 34.1-12.7-19.4-26.1-20.1-13.4-.7 1.3 17.4-3.3 32.1-3.8 12-1 21.8-12.9 42.8.1-.1.2-.2.3-.4 0 0-6.5 16.6-15.2 24.6 0 .2 66.6 6.7 97-64.3z"/></svg>