<?xml version="1.0" encoding="utf-8"?>
<!-- Generator: Adobe Illustrator 17.1.0, SVG Export Plug-In . SVG Version: 6.00 Build 0)  -->
<!DOCTYPE svg PUBLIC "-//W3C//DTD SVG 1.1//EN" "http://www.w3.org/Graphics/SVG/1.1/DTD/svg11.dtd">
<svg version="1.1" id="Layer_1" xmlns="http://www.w3.org/2000/svg" xmlns:xlink="http://www.w3.org/1999/xlink" x="0px" y="0px"
	 width="260px" height="260px" viewBox="0 0 260 260" enable-background="new 0 0 260 260" xml:space="preserve">
<g>
	<g>
		<path fill="#F9C7A6" d="M216.6,137.7c-17.3-12.2-23.2-26.4-25.2-34.2c-2.2-1.8-3.6-3.3-3.6-3.3s2,16.3-7.4,17.9
			c-9.4,1.5-7.6-10.6-7.6-10.6s-9.2,22.7-16.9,18.6c-7.7-4.1-4-18.2-4-18.2s-7.6,30-18.1,31.7c-10.4,1.6-7-9.6-7-9.6
			s-8.2-4-13.2,4.3c-1,1.7-1.9,2.7-2.7,3.2c-4.3,7.5-6,18.4,0.8,25.2c11,11,24.1,5.4,24.1,5.4c8.7,44.8,50,61.3,64.9,62.1
			c14.8,0.7,18.1-4.8,19.9-12.5c1.8-7.7,8.6-4.5,8.2-10.7c-0.4-6.2-10.1-12.1-10.1-12.1s4.3-3.1,5.1-5.5c0.8-2.4-1.8-2.4-5.7-7.4
			c-3.9-5-3.4-12.8-3.4-12.8s17.6-4.7,23.6-11.1C244.2,151.8,241.8,155.4,216.6,137.7z"/>
		<path fill="#CC6511" d="M212.2,82.9c0,0,17.7,8.7,16.3,14.5c-1.4,5.8-21.4,2.6-21.4,2.6s4.4,7-3,8.6c-7.3,1.6-16.4-8.3-16.4-8.3
			s2,16.3-7.4,17.9c-9.4,1.5-7.6-10.6-7.6-10.6s-9.2,22.7-16.9,18.6c-7.7-4.1-4-18.2-4-18.2s-7.6,30-18.1,31.7
			c-10.4,1.6-7-9.6-7-9.6s-8.2-4-13.2,4.3c-5.1,8.3-7,0-3-6.1c0,0-8.4,8.4-12.6,3.2c-4.2-5.2,14.3-20.7,14.3-20.7
			s-19.3,10.6-23.2,0.9c-3.9-9.7,27.8-15.9,27.8-15.9s-22.7,0.4-19.8-11.1c2.9-11.4,34-5.7,34-5.7s-25.2-6.1-19.9-14.4
			c5.3-8.3,36.1,3.6,36.1,3.6s-13.7-19-5.8-25.5c7.8-6.5,26.9,11.8,26.9,11.8s-4.7-24.8,4.9-26.1c9.7-1.3,20,24.5,20,24.5
			s5.5-20.5,15.6-16.2c10,4.3,2.3,21,2.3,21s19.8-15.6,24.4-8.6c4.6,7-13,18.2-13,18.2s18.2-1.4,19.1,6.5
			C242.3,81.7,212.2,82.9,212.2,82.9z"/>
		<path fill="#E2AF8E" d="M203.1,125.5c-7.3-8.5-10.4-16.7-11.8-22c-2.2-1.8-3.6-3.3-3.6-3.3s2,16.3-7.4,17.9
			c-9.4,1.5-7.6-10.6-7.6-10.6s-8.1,19.9-15.4,19.1c2.8,11.1,13.5,18.8,25.3,17.5C193,143,201.1,135.3,203.1,125.5z"/>
		<path fill="#E2AF8E" d="M218.6,194.9c0,0-8.8,5.6-28.2,2.3c0,0,19,5,35.1,3.4C222.5,197.3,218.6,194.9,218.6,194.9z M213.5,215.5
			c0.1,3.9,3.9,4.6,4.8,8.4c1.1-1.8,1.7-3.9,2.3-6.2c0.7-3.3,2.4-4.6,4-5.5C218.6,212.2,213.4,211.7,213.5,215.5z M218.5,161.9
			c-16.4,2.2-16.9-2.7-15.8-7.8c0,0-9.7,12.1,13.4,24.8c-1.9-4.6-1.6-9.6-1.6-9.6s17.6-4.7,23.6-11.1c1.9-2,2.9-3,2.7-4
			C236.6,156.8,228.8,160.5,218.5,161.9z"/>
		<path fill="#CF5E64" d="M218.6,194.9c0,0-8.4,5.8-27.6,2.3c-14.9-2.7-25.3-10.8-29.3-18.3l2.3-2.1c0,0,4.3,11.6,23.5,17.6
			C203.8,199.5,218.6,194.9,218.6,194.9z"/>
		<path fill="#CF5E64" d="M160,183.5c0,0,2.1-6.3,9.5-6.7C169.5,176.8,158.7,173.4,160,183.5z"/>
		<path fill="#CC6511" d="M212.2,82.9c0,0,17.7,8.7,16.3,14.5c-1.4,5.8-21.4,2.6-21.4,2.6s4.4,7-3,8.6c-7.3,1.6-16.4-8.3-16.4-8.3
			s2,16.3-7.4,17.9c-9.4,1.5-7.6-10.6-7.6-10.6s-9.2,22.7-16.9,18.6c-7.7-4.1-4-18.2-4-18.2s-7.6,30-18.1,31.7
			c-10.4,1.6-7-9.6-7-9.6s-8.2-4-13.2,4.3c-5.1,8.3-7,0-3-6.1c0,0-8.4,8.4-12.6,3.2c-4.2-5.2,14.3-20.7,14.3-20.7
			s-19.3,10.6-23.2,0.9c-3.9-9.7,27.8-15.9,27.8-15.9s-22.7,0.4-19.8-11.1c2.9-11.4,34-5.7,34-5.7s-25.2-6.1-19.9-14.4
			c5.3-8.3,36.1,3.6,36.1,3.6s-13.7-19-5.8-25.5c7.8-6.5,26.9,11.8,26.9,11.8s-4.7-24.8,4.9-26.1c9.7-1.3,20,24.5,20,24.5
			s5.5-20.5,15.6-16.2c10,4.3,2.3,21,2.3,21s19.8-15.6,24.4-8.6c4.6,7-13,18.2-13,18.2s18.2-1.4,19.1,6.5
			C242.3,81.7,212.2,82.9,212.2,82.9z"/>
		<path fill="#B65A11" d="M212.2,82.9c0,0,17.7,8.7,16.3,14.5c-1.4,5.8-21.4,2.6-21.4,2.6s4.4,7-3,8.6c-7.3,1.6-16.4-8.3-16.4-8.3
			s2,16.3-7.4,17.9c-9.4,1.5-7.6-10.6-7.6-10.6s-9.2,22.7-16.9,18.6c-7.7-4.1-4-18.2-4-18.2s-7.6,30-18.1,31.7
			c-10.4,1.6-7-9.6-7-9.6s-8.2-4-13.2,4.3c-5.1,8.3-7,0-3-6.1c0,0-8.4,8.4-12.6,3.2c-4.2-5.2,14.3-20.7,14.3-20.7
			s-19.3,10.6-23.2,0.9c-3.9-9.7,27.8-15.9,27.8-15.9s-22.7,0.4-19.8-11.1c2.9-11.4,34-5.7,34-5.7s-25.2-6.1-19.9-14.4
			c5.3-8.3,36.1,3.6,36.1,3.6s-13.7-19-5.8-25.5c7.8-6.5,26.9,11.8,26.9,11.8s-4.7-24.8,4.9-26.1c9.7-1.3,20,24.5,20,24.5
			s5.5-20.5,15.6-16.2c10,4.3,2.3,21,2.3,21s19.8-15.6,24.4-8.6c4.6,7-13,18.2-13,18.2s18.2-1.4,19.1,6.5
			C242.3,81.7,212.2,82.9,212.2,82.9z"/>
		<path fill="#8F4810" d="M241.5,73.8c0,0-2.8,7.2-29.9,6.9c0,0,2,6.6-5.8,8.7c-7.8,2.1-16.2-9.6-16.2-9.6s-1.1,14-13.4,13.4
			c-11.6-0.6-5.1-12.4-4.2-13.9c-1.3,2.3-18.3,30.5-28.8,22.7c-10.9-8.2,15.3-20.1,15.3-20.1s-25.1,6.9-25.4-4.4
			c-0.2-11.3,14.3-9.3,14.3-9.3s-30.8-11.9-36.1-3.6c-5.3,8.3,19.9,14.4,19.9,14.4s-31.1-5.7-34,5.7c-2.9,11.4,19.8,11.1,19.8,11.1
			s-31.6,6.3-27.8,15.9c3.9,9.7,23.2-0.9,23.2-0.9S93.8,126.1,98,131.4c4.2,5.2,12.6-3.2,12.6-3.2c-4,6.1-2.1,14.4,3,6.1
			c5.1-8.3,13.2-4.3,13.2-4.3s-3.4,11.2,7,9.6c10.4-1.6,18.1-31.7,18.1-31.7s-3.7,14.1,4,18.2c7.7,4.1,16.9-18.6,16.9-18.6
			s-1.8,12.1,7.6,10.6c9.4-1.5,7.4-17.9,7.4-17.9s9.1,9.9,16.4,8.3c7.3-1.6,3-8.6,3-8.6s20,3.3,21.4-2.6
			c1.4-5.8-16.3-14.5-16.3-14.5S242.3,81.7,241.5,73.8z"/>
		<path fill="#E2AF8E" d="M155.9,126.2c-7.7-4.1-4-18.2-4-18.2s-7.6,30-18.1,31.7c-10.4,1.6-7-9.6-7-9.6s-8.2-4-13.2,4.3
			c-1,1.7-1.9,2.7-2.7,3.2c-1.1,2-2.1,4.3-2.8,6.6c7.1-10,13.2-2.9,13.2-2.9c0.6-0.2,1.1-0.3,1.6-0.3c-0.1,0-0.2,0-0.3,0
			c0,0-5.4,0.3-5.1,7.6c0.2,7.4,5.1,10.5,10.6,9.1c0,0-7.3-2-7.1-5.8c0.2-3.7,5.9-0.6,5.9-0.6s-2.3-3.2-5.7-3.1c0,0,2.5-4.9,5.2-4.4
			c1.3,3.1,2.1,6.9,9.2,2.9c11.7-6.7,14.6-19,14.6-19s0.5,4.5,7.5,3.8c3.9-0.4,5.6-4.9,6.3-8.6C161.3,125.8,158.5,127.6,155.9,126.2
			z"/>
		<g>
			<path fill="#F1F9FD" d="M199.7,95.3c-4.5,0.5-8.3,2.8-10.9,6.1c0.6,0.6,1.5,1.4,2.5,2.2c1.4,5.5,4.9,14.3,12.9,23.3
				c8.2-1.5,13.9-9,13-17.4C216.3,100.7,208.5,94.3,199.7,95.3z"/>
			<path fill="#1A171B" d="M211.5,116.8c0.2,2.1-1.3,3.9-3.4,4.2c-2.1,0.2-3.9-1.3-4.2-3.4c-0.2-2.1,1.3-4,3.4-4.2
				C209.4,113.2,211.2,114.7,211.5,116.8z"/>
			<path fill="#DAE9F1" d="M199.7,95.3c-4.5,0.5-8.3,2.8-10.9,6.1c0.6,0.6,1.5,1.4,2.5,2.2c1.4,5.5,4.9,14.3,12.9,23.3
				c4.7-0.8,8.5-3.7,10.8-7.5c-3,2-10.8,5.6-16.3-3.9C191.8,103.5,199.7,95.3,199.7,95.3z"/>
			<circle fill="#F1F9FD" cx="180.8" cy="116.4" r="21.3"/>
			<path fill="#DAE9F1" d="M186.4,130.4c-10.2,1.1-19.4-6.3-20.5-16.5c-0.8-7.4,2.9-14.3,8.9-17.9c-9.7,2.8-16.3,12.3-15.2,22.7
				c1.3,11.7,11.7,20.1,23.4,18.9c10.4-1.1,18.2-9.6,18.9-19.6C199.7,124.5,193.8,129.6,186.4,130.4z"/>
			<path fill="#1A171B" d="M189,121.6c0.4,3.5-2.2,6.7-5.7,7.1c-3.5,0.4-6.7-2.2-7.1-5.7c-0.4-3.5,2.2-6.7,5.7-7.1
				C185.4,115.5,188.6,118,189,121.6z"/>
		</g>
	</g>
	<g>
		<path fill="#FACCAE" d="M141.4,142.1c-17-15-21.7-30.8-23-39.3c-2.1-2.1-3.5-4-3.5-4s0.3,17.6-9.9,18.2
			c-10.2,0.5-6.9-12.1-6.9-12.1s-12.4,23.1-20.1,17.9c-7.7-5.2-2.2-19.8-2.2-19.8S64.3,134.1,53,134.7c-11.3,0.6-6.3-11-6.3-11
			s-8.3-5.2-14.6,3c-1.3,1.7-2.4,2.6-3.2,3c-5.4,7.5-8.5,18.9-2,27c10.5,12.9,25.1,8.5,25.1,8.5c4.1,48.7,46.3,71,62,73.5
			c15.7,2.5,19.8-3,22.6-11c2.8-8,9.6-3.9,9.9-10.5c0.3-6.6-9.4-14-9.4-14s5-2.8,6.1-5.2c1.1-2.5-1.6-2.8-5.2-8.5
			c-3.6-5.8-2.2-14-2.2-14s19.3-3,26.4-9.1C169.2,160.3,166.2,163.8,141.4,142.1z"/>
		<path fill="#CC6511" d="M143,83.2c0,0,17.9,11.3,15.7,17.3c-2.2,6.1-23.1,0.3-23.1,0.3s3.9,8-4.1,8.8c-8,0.8-16.5-10.7-16.5-10.7
			s0.3,17.6-9.9,18.2c-10.2,0.5-6.9-12.1-6.9-12.1s-12.4,23.1-20.1,17.9c-7.7-5.2-2.2-19.8-2.2-19.8S64.3,134.1,53,134.7
			c-11.3,0.6-6.3-11-6.3-11s-8.3-5.2-14.6,3c-6.3,8.3-7.4-0.8-2.5-6.9c0,0-9.9,8-13.8,1.9c-3.9-6.1,17.6-20.4,17.6-20.4
			s-21.8,9.1-24.8-1.7C5.6,89,40.1,85.9,40.1,85.9s-24.2-2.2-19.8-14c4.4-11.8,36.9-2.2,36.9-2.2S31,60.3,37.6,52.1
			c6.6-8.3,38,8,38,8s-12.4-21.8-3.3-27.8c9.1-6.1,27.3,15.7,27.3,15.7s-2.2-27,8.3-27.3c10.5-0.3,18.4,28.4,18.4,28.4
			s8.3-21.2,18.4-15.4c10.2,5.8,0,22.6,0,22.6s22.9-14.3,27-6.3c4.1,8-16,17.9-16,17.9s19.6,0.6,19.6,9.1
			C175.3,85.4,143,83.2,143,83.2z"/>
		<path fill="#F0B791" d="M128.5,127.6c-6.7-9.9-9.2-19-10-24.7c-2.1-2.1-3.5-4-3.5-4s0.3,17.6-9.9,18.2
			c-10.2,0.5-6.9-12.1-6.9-12.1s-10.9,20.3-18.6,18.6c1.8,12.2,12.2,21.6,24.9,21.6C115.7,145,125.2,137.7,128.5,127.6z"/>
		<path fill="#F0B791" d="M137,203.2c0,0-10,5-30.3-0.7c0,0,19.7,7.5,36.9,7.6C140.9,206.2,137,203.2,137,203.2z M129.2,224.6
			c-0.3,4.2,3.7,5.3,4.1,9.5c1.3-1.8,2.3-4,3.1-6.3c1.2-3.4,3.1-4.6,4.9-5.4C135,221.6,129.6,220.5,129.2,224.6z M140.7,168
			c-17.7,0.4-17.7-4.9-15.9-10.2c0,0-11.7,11.8,11.4,27.9c-1.5-5.1-0.6-10.4-0.6-10.4s19.3-3,26.4-9.1c2.2-1.9,3.5-2.8,3.4-3.9
			C160.5,164.7,151.9,167.7,140.7,168z"/>
		<path fill="#EA6A70" d="M137,203.2c0,0-9.7,5.6-29.7-0.7c-20-6.3-31.1-23.8-34.6-32.2l2.7-2c0,0,4.5,18.7,28.4,30.8
			C120.3,207.4,137,203.2,137,203.2z"/>
		<path fill="#EA6A70" d="M69.9,174.2c0,0,3-6.5,10.9-6.1C80.8,168.1,69.7,163.3,69.9,174.2z"/>
		<path fill="#CC6511" d="M143,83.2c0,0,17.9,11.3,15.7,17.3c-2.2,6.1-23.1,0.3-23.1,0.3s3.9,8-4.1,8.8c-8,0.8-16.5-10.7-16.5-10.7
			s0.3,17.6-9.9,18.2c-10.2,0.5-6.9-12.1-6.9-12.1s-12.4,23.1-20.1,17.9c-7.7-5.2-2.2-19.8-2.2-19.8S64.3,134.1,53,134.7
			c-11.3,0.6-6.3-11-6.3-11s-8.3-5.2-14.6,3c-6.3,8.3-7.4-0.8-2.5-6.9c0,0-9.9,8-13.8,1.9c-3.9-6.1,17.6-20.4,17.6-20.4
			s-21.8,9.1-24.8-1.7C5.6,89,40.1,85.9,40.1,85.9s-24.2-2.2-19.8-14c4.4-11.8,36.9-2.2,36.9-2.2S31,60.3,37.6,52.1
			c6.6-8.3,38,8,38,8s-12.4-21.8-3.3-27.8c9.1-6.1,27.3,15.7,27.3,15.7s-2.2-27,8.3-27.3c10.5-0.3,18.4,28.4,18.4,28.4
			s8.3-21.2,18.4-15.4c10.2,5.8,0,22.6,0,22.6s22.9-14.3,27-6.3c4.1,8-16,17.9-16,17.9s19.6,0.6,19.6,9.1
			C175.3,85.4,143,83.2,143,83.2z"/>
		<path fill="#CC6511" d="M143,83.2c0,0,17.9,11.3,15.7,17.3c-2.2,6.1-23.1,0.3-23.1,0.3s3.9,8-4.1,8.8c-8,0.8-16.5-10.7-16.5-10.7
			s0.3,17.6-9.9,18.2c-10.2,0.5-6.9-12.1-6.9-12.1s-12.4,23.1-20.1,17.9c-7.7-5.2-2.2-19.8-2.2-19.8S64.3,134.1,53,134.7
			c-11.3,0.6-6.3-11-6.3-11s-8.3-5.2-14.6,3c-6.3,8.3-7.4-0.8-2.5-6.9c0,0-9.9,8-13.8,1.9c-3.9-6.1,17.6-20.4,17.6-20.4
			s-21.8,9.1-24.8-1.7C5.6,89,40.1,85.9,40.1,85.9s-24.2-2.2-19.8-14c4.4-11.8,36.9-2.2,36.9-2.2S31,60.3,37.6,52.1
			c6.6-8.3,38,8,38,8s-12.4-21.8-3.3-27.8c9.1-6.1,27.3,15.7,27.3,15.7s-2.2-27,8.3-27.3c10.5-0.3,18.4,28.4,18.4,28.4
			s8.3-21.2,18.4-15.4c10.2,5.8,0,22.6,0,22.6s22.9-14.3,27-6.3c4.1,8-16,17.9-16,17.9s19.6,0.6,19.6,9.1
			C175.3,85.4,143,83.2,143,83.2z"/>
		<path fill="#AB5511" d="M175.3,76.8c0,0-3.8,7.3-32.7,3.9c0,0,1.4,7.2-7.2,8.6c-8.6,1.4-16.2-12-16.2-12s-2.8,14.8-15.8,12.7
			c-12.2-1.9-4-13.8-2.9-15.3c-1.7,2.3-23,30.4-33.3,20.8c-10.7-10,18.6-19.6,18.6-19.6s-27.5,4.5-26.5-7.6c1-12,16.3-8.3,16.3-8.3
			s-31.4-16.2-38-8C31,60.3,57.1,69.7,57.1,69.7S24.7,60,20.2,71.9c-4.4,11.8,19.8,14,19.8,14S5.6,89,8.7,99.7
			c3,10.7,24.8,1.7,24.8,1.7S12,115.7,15.8,121.7c3.9,6.1,13.8-1.9,13.8-1.9c-5,6.1-3.9,15.1,2.5,6.9c6.3-8.3,14.6-3,14.6-3
			s-5,11.6,6.3,11c11.3-0.5,22.9-31.7,22.9-31.7s-5.5,14.6,2.2,19.8c7.7,5.2,20.1-17.9,20.1-17.9s-3.3,12.7,6.9,12.1
			c10.2-0.6,9.9-18.2,9.9-18.2s8.5,11.6,16.5,10.7c8-0.8,4.1-8.8,4.1-8.8s20.9,5.8,23.1-0.3c2.2-6.1-15.7-17.3-15.7-17.3
			S175.3,85.4,175.3,76.8z"/>
		<path fill="#F0B791" d="M78.1,122.8c-7.7-5.2-2.2-19.8-2.2-19.8S64.3,134.1,53,134.7c-11.3,0.6-6.3-11-6.3-11s-8.3-5.2-14.6,3
			c-1.3,1.7-2.4,2.6-3.2,3c-1.5,2-2.7,4.3-3.7,6.8c8.7-9.9,14.4-1.6,14.4-1.6c0.7-0.1,1.3-0.1,1.8-0.1c-0.1,0-0.2,0-0.3,0
			c0,0-5.7-0.3-6.3,7.6c-0.6,7.9,4.2,11.8,10.3,10.9c0,0-7.6-3-6.9-6.9c0.6-3.9,6.3,0,6.3,0s-2.1-3.6-5.7-3.9c0,0,3.2-4.9,6-4.1
			c1.1,3.4,1.4,7.6,9.5,4.1c13.3-5.7,17.7-18.6,17.7-18.6s0,4.9,7.5,4.9c4.2,0,6.5-4.5,7.7-8.5C83.9,123.1,80.7,124.6,78.1,122.8z"
			/>
		<g>
			<path fill="#FFFFFF" d="M128.3,95c-4.8,0-9.2,2-12.3,5.2c0.6,0.7,1.4,1.6,2.4,2.6c0.9,6,3.5,15.7,11.1,26.2
				c8.9-0.6,15.9-8,15.9-17C145.4,102.6,137.7,95,128.3,95z"/>
			<path fill="#1A171B" d="M138.4,119.2c0,2.2-1.8,4.1-4.1,4.1c-2.2,0-4.1-1.8-4.1-4.1c0-2.2,1.8-4.1,4.1-4.1
				C136.5,115.1,138.4,117,138.4,119.2z"/>
			<path fill="#ECF4F8" d="M128.3,95c-4.8,0-9.2,2-12.3,5.2c0.6,0.7,1.4,1.6,2.4,2.6c0.9,6,3.5,15.7,11.1,26.2
				c5.1-0.4,9.5-2.9,12.4-6.7c-3.5,1.7-12.2,4.8-16.9-6C118.9,102.8,128.3,95,128.3,95z"/>
			<path fill="#FFFFFF" d="M128.5,115.3c0,12.6-10.2,22.8-22.8,22.8C93.2,138,83,127.9,83,115.3c0-12.6,10.2-22.8,22.8-22.8
				C118.3,92.5,128.5,102.7,128.5,115.3z"/>
			<path fill="#ECF4F8" d="M110.1,130.8c-11,0-19.9-8.9-19.9-19.9c0-8,4.7-14.8,11.5-18C91.1,94.8,83,104.1,83,115.3
				c0,12.6,10.2,22.8,22.8,22.8c11.2,0,20.5-8.1,22.4-18.7C125,126.1,118.1,130.8,110.1,130.8z"/>
			<circle fill="#1A171B" cx="106.7" cy="121.9" r="6.9"/>
		</g>
	</g>
</g>
</svg>
