<?xml version="1.0" encoding="utf-8"?><svg xmlns="http://www.w3.org/2000/svg" width="260" height="260" viewBox="0 0 260 260"><path fill="#C14127" d="M103.8 79.2c0-1.5.3-3 .7-4.1.2-.5.4-1 .5-1.3.1-.3.2-.4.2-.4l-5.6-3c-.1.2-1.8 3.4-2.1 7.8 1.6 1.2 4.2 1.1 6.4 1.8-.1-.2-.1-.5-.1-.8z"/><path fill="#E64434" d="M107.6 85.6c0 .1 0 .2 0 .4 0-.2 0-.3 0-.4-2.9-1.6-3.5-3.5-3.7-5.5-2.1-.7-4.7-.6-6.4-1.8 0 .3-.1.6-.1.9-.2 5 3.1 11.6 11.9 13.9l1.8-6.1c-1.5-.4-2.6-.9-3.5-1.4z"/><path fill="#C14127" d="M147.3 85.2c.1-.3.2-.6.3-.9 1.3-4.5 1.5-8.1 1.5-8.3l-6.3-.2s0 .7-.2 1.9c-.2 1.5-.6 3.5-1.3 5.6 2.6-.2 4.5.5 6 1.9z"/><path fill="#E64434" d="M141.3 83.3c-1.2 3.3-3.1 6.8-6.2 8.4l3.1 5.5c5.2-2.9 7.7-7.9 9.2-12.1-1.6-1.3-3.5-2-6.1-1.8z"/><circle fill="#E64434" cx="107.5" cy="56" r="20.1"/><path fill="#C14127" d="M107.5 35.8c-.8 0-1.6.1-2.4.1 10.5.2 18.9 8.8 18.9 19.3 0 10.7-8.6 19.3-19.3 19.3-3.2 0-6.2-.8-8.9-2.2 3.3 2.3 7.3 3.7 11.6 3.7 11.1 0 20.1-9 20.1-20.1.1-11-8.9-20.1-20-20.1z"/><path fill="#fff" d="M106.4 73.2c-8 0-14.5-6.5-14.5-14.4s6.5-14.4 14.5-14.4 14.5 6.5 14.5 14.4-6.5 14.4-14.5 14.4z"/><path fill="#ECF4F8" d="M106.4 44.4c-5 0-9.4 2.5-12 6.3 2.4-1.6 5.2-2.6 8.3-2.6 8 0 14.5 6.5 14.5 14.4 0 3-.9 5.8-2.5 8.1 3.8-2.6 6.2-6.9 6.2-11.8 0-7.9-6.5-14.4-14.5-14.4z"/><circle fill="#1A171B" cx="108.1" cy="58.4" r="4.3"/><circle fill="#E64434" cx="146.9" cy="56.4" r="24.5"/><path fill="#C14127" d="M148.3 32c10 2.3 17.5 11.2 17.5 21.9 0 12.4-10.1 22.5-22.5 22.5-7.7 0-14.6-3.9-18.6-9.9 3.9 8.5 12.4 14.3 22.3 14.3 13.5 0 24.5-11 24.5-24.5-.1-12.9-10.4-23.6-23.2-24.3z"/><path fill="#fff" d="M146.2 78.6c-11 0-20-8.4-20-18.7 0-10.3 9-18.7 20-18.7s20 8.4 20 18.7c0 10.4-9 18.7-20 18.7z"/><path fill="#ECF4F8" d="M146.2 41.3c-6.2 0-11.8 2.7-15.5 6.9 3.2-2 7.1-3.2 11.2-3.2 11 0 20 8.4 20 18.7 0 4.5-1.7 8.6-4.5 11.8 5.3-3.4 8.8-9 8.8-15.5 0-10.3-9-18.7-20-18.7z"/><path fill="#1A171B" d="M145.1 60.5c0 3.3-2.6 5.9-5.9 5.9-3.3 0-5.9-2.6-5.9-5.9 0-3.2 2.6-5.9 5.9-5.9 3.3 0 5.9 2.6 5.9 5.9z"/><path fill="#E64434" d="M75.5 166.4s-22.1-2.7-25.2-28.3c0 0 17.3-14.6 12.8-31.8C58.7 89 38.3 84.1 38.3 84.1s3.1 7.1-4.4 14.2-4 8.4 3.5 15.9 9.3 11.5 6.6 16.4c-2.7 4.9 3.5 6.6 3.5 6.6s-7.5 2.2-8.4-4.4c-.9-6.6 5.3-6.6-1.8-14.6s-14.2-8.4-11.1-14.6c3.1-6.2 6.6-13.7 5.7-16.8-.9-3.1-15.2 3.6-16.3 26.2-.8 16 15 28.2 27.8 29.6 0 0 8 24.8 26.5 31.4 13.6 4.7 5.6-7.6 5.6-7.6z"/><path fill="#C4422E" d="M97.1 221.8c.3-7.3 9.2-10.3 9.2-10.4l1.2 2.9s-1.9.7-3.7 2.1c-1.9 1.4-3.5 3.3-3.5 5.4 0 1.4.6 3.1 2.9 5.4l-2.2 2.2c-2.7-2.6-3.9-5.2-3.9-7.6zm36.7 4.4c2.5-1.9 3.1-3.3 3.1-4.6 0-1.6-1.2-3.4-2.7-4.8-1.4-1.3-2.8-2.1-2.9-2.2l1.6-2.7c0 .2 6.9 3.6 7.1 9.7 0 2.4-1.4 5-4.4 7.1l-1.8-2.5zm-2.4-11.5zm49.2 3.6c2.2-2.1 2.8-3.6 2.8-4.5.1-1.2-1.1-2.3-2.8-3.1-1.6-.8-3.3-1.2-3.3-1.1l.6-3.1c.1 0 2 .4 4.1 1.4 2 1 4.5 2.8 4.6 6 0 2.2-1.2 4.4-3.8 6.8l-2.2-2.4zm23.9-20.2c.4-1.1.6-1.9.5-2.5 0-1-.3-1.2-.8-1.6-.6-.3-1.6-.5-2.7-.5-1.8 0-3.6.4-3.6.4l-.8-3.1c.1 0 2.1-.5 4.4-.5 1.4 0 2.9.2 4.2.9 1.4.7 2.5 2.4 2.4 4.3 0 1.1-.3 2.2-.8 3.6l-2.8-1z"/><ellipse fill="#C4422E" cx="95.7" cy="228.5" rx="8.2" ry="3.5"/><ellipse fill="#C4422E" cx="140.4" cy="228.3" rx="8.2" ry="3.5"/><path fill="#C4422E" d="M194.5 219.5c0 1.7-3.3 3.2-7.3 3.2s-7.3-1.4-7.3-3.2c0-1.7 3.3-3.2 7.3-3.2 4.1.1 7.3 1.5 7.3 3.2z"/><ellipse fill="#C4422E" cx="210" cy="198.9" rx="6.9" ry="3"/><path fill="#E64434" d="M86 145.3s-26.1-.5-23-11.9c3-11.4 36-51.7 56.7-49.6 20.8 2 55.5 43.6 54.2 53.4-1.3 9.8-52.4 12.1-87.9 8.1z"/><path fill="#1A171B" d="M149.2 113s28.9-9.2 27.7-41.6c0 0-5.1 31.1-30.9 37.6 0-.1-3.2 4.6 3.2 4z"/><path fill="#EA6762" d="M112.2 89.4s-18.1 6.2-31.8 26.1c-13.7 19.9 33.1 20.8 54.9 17.7 18.2-2.6-7.2-47.7-23.1-43.8z"/><path fill="#1A171B" d="M93.6 110.2S65.2 99.4 68.2 67.1c0 0 3.4 31.3 28.9 39.1-.1.1 2.8 4.9-3.5 4z"/><path fill="#D84832" d="M86 145.3s-9.1-.2-16-2.7c-.2 1 0 2.6 2 4.7 3.5 3.8 18.7 17.2 46.6 17.5 25.9.2 45.4-15 43.8-21.1-17.3 4.1-50.9 4.5-76.4 1.6z"/><path fill="#E64434" d="M160.2 149.2c-5.8 6.9-21.8 15.8-41.6 15.6-22.9-.2-37.3-9.3-43.6-14.7-4.2 6.8-6.7 14.7-6.7 23.2 0 25.5 22.2 46.2 49.5 46.2 27.4 0 49.5-20.7 49.5-46.2.2-8.9-2.5-17.1-7.1-24.1zm6.5 15.9c.5 2.7.8 5.4.8 8.2 0 19.9-13.4 36.8-32.2 43.3 4.8 2.1 10.2 3.3 16 3.3 19 0 34.4-13 34.4-29-.1-11.3-7.8-21-19-25.8zm10.8 2.6c-1.7 0-3.4.2-5 .5 8 5.3 13.2 13.5 13.2 22.8 0 6.3-2.4 12.2-6.5 17 12.4-.7 22.3-9.4 22.3-20.1-.1-11.2-10.8-20.2-24-20.2zM212 175c-1.7-7.2-10-11.5-18.5-9.5-2.8.7-5.3 1.9-7.3 3.5 8.9 2.9 15.2 10.2 15.2 18.7 0 1.2-.1 2.3-.4 3.5 7.7-2.3 12.6-9.4 11-16.2zm24-10.8c-2.7-11.5-16.4-7.5-16.4-7.5.4-13.3-15.5-21.2-19.9-4-1.3 5.2-1.2 9.3-.5 12.5 6.2.6 11.4 4.3 12.7 9.9.3 1.2.4 2.5.2 3.7 10.1 2.2 26.1-5.3 23.9-14.6z"/><path fill="#C64328" d="M86 145.3s-6.6-.1-12.7-1.7c7.7 2.8 23.5 7.8 40.3 7.8 22.8 0 10.5 11.7-4.4 12.8 3 .4 6.2.6 9.6.6 25.9.2 45.4-15 43.8-21.1-17.5 4.1-51.1 4.5-76.6 1.6z"/><path fill="#D24630" d="M68.5 170.6c2.7-6.2 7.6-11.5 14-15.3-3.1-1.8-5.6-3.7-7.4-5.2-3.8 6.1-6.1 13.1-6.6 20.5zm91.7-21.4c-3.8 4.6-12.3 10.1-23.4 13.2 4.8 5.3 7.6 11.9 7.6 19.1 0 17.8-17.5 32.3-39.1 32.3-5.8 0-11.4-1.1-16.3-3 8.1 5.5 18.1 8.7 29 8.7 27.4 0 49.5-20.7 49.5-46.2 0-8.9-2.7-17.1-7.3-24.1z"/><ellipse fill="#EA6762" cx="96.9" cy="183.4" rx="21.5" ry="18.8"/><path fill="#EA6762" d="M92 199.6c0 1.4-1.3 2.6-3 2.6-1.6 0-3-1.2-3-2.6 0-1.4 1.3-2.6 3-2.6 1.7.1 3 1.2 3 2.6z"/><path fill="#D24630" d="M236 164.2c-2.7-11.5-16.4-7.5-16.4-7.5.2-4.9-1.9-9.1-4.8-11.5-4.5-2.1-10.8 2.7-11.7 8.8-1.1 7.5 2.2 12.8 2.3 13 3.3 1.7 5.7 4.5 6.5 8.1.3 1.2.4 2.5.2 3.7 10.1 2.2 26.1-5.3 23.9-14.6zm-27.8 15.6c1.8-3.6 1.8-7.2.5-10.6-.9-.9-2-1.7-3.2-2.3 0 0 0 .1 0 .1 3.2 6-11.5 6.3-11.5 6.3 4.2 3.4 6.9 8.1 7.3 13.4 3.5-1 5.2-5.2 6.9-6.9z"/><path fill="#C4422E" d="M212 175c-.5-2.2-1.7-4.2-3.3-5.8 1.3 3.3 1.3 6.9-.5 10.6-1.7 1.7-3.3 5.9-6.9 6.9 0 .4.1.7.1 1.1 0 1.2-.1 2.3-.4 3.5 7.7-2.4 12.6-9.5 11-16.3zm-26.5 18.3c-.5 5.4-2.8 10.4-6.4 14.6 11.4-.6 20.6-8 22.1-17.5-4.1 5.7-10.1 8.6-15.7 2.9z"/><path fill="#D24630" d="M201.1 190.4c.1-.8.2-1.7.2-2.6 0-5.7-2.8-10.9-7.4-14.5 1.7 6.9-12.6 3.6-12.6 3.6 0 .1 0 .1 0 .1 2.7 4.1 4.2 8.8 4.2 13.8 0 .8 0 1.6-.1 2.3 5.7 5.9 11.7 3 15.7-2.7z"/><path fill="#C4422E" d="M203.9 185.6c-1.1-5.4-4.7-9.6-9.5-12.3-.2 0-.4 0-.4 0 4.5 3.7 7.4 8.8 7.4 14.5 0 1.2-.1 2.3-.4 3.5 1.2-.4 2.2-.8 3.3-1.4 0-1.4-.1-2.8-.4-4.3z"/><path fill="#D24630" d="M184.9 197c.5-1.9.8-4 .8-6 0-5-1.5-9.8-4.2-13.9 1.4 11.6-12.9 7.9-15.3 7.2-2 7.6-6 14.5-11.5 20.2 12.1 6.1 24.4 1.7 30.2-7.5z"/><path fill="#C4422E" d="M154.5 204.4c-5.3 5.4-11.8 9.6-19.3 12.2 4.8 2.1 10.2 3.3 16 3.3 16.5 0 30.3-9.8 33.6-22.9-5.7 9.2-18 13.6-30.3 7.4zm32.3-18.4c-.8-3.3-2.3-6.2-4.3-8.8-.7-.1-1.2-.2-1.2-.2 0 .1 0 .1 0 .1 2.7 4.1 4.2 8.8 4.2 13.8 0 6.3-2.4 12.2-6.5 17 1.3-.1 2.5-.2 3.7-.5 4.4-6.4 6.1-14 4.1-21.4zm-20.2-1.6c-.2-.1-.4-.1-.6-.2-3.9 14.9-15.6 27.1-30.8 32.4 4.1 1.8 8.6 2.9 13.4 3.2 11-8.4 18-21.2 18-35.4z"/><path fill="#EA6762" d="M171.3 174.4s-4.5-4.7-1-5.3c3.5-.6 8.6 5.2 7.3 6.6-1.2 1.3-4.4.6-6.3-1.3zm11.7-5s5.2.5 6.3 2.3c1.1 1.8-3.5 1.5-6 .1-2.6-1.4-2-2.5-.3-2.4zm18.5-1.9s-4.7-1.4-6.5-.3c-1.8 1.1 3 2.5 5.5 2.5s2.9-1.4 1-2.2z"/><path fill="#E64434" d="M192.7 126.6s-18.1-23.4-2.2-42.9c15.9-19.5 38.9-11.5 38.9-11.5s.4 17.3-10.2 23.4c-10.6 6.2-13.3 6.2-13.3 6.2l3.5 6.5s-5.3 8.6-10.2 8.6c-4.9 0-3.1 6.2-3.1 6.2s14.2.4 20.3-4.9c6.2-5.3.4-12.8.4-12.8s21.7-10.2 22.1-25.2c0 0 7.5 14.2-.9 34.9-8.4 20.8-38.5 15-38.5 15s-14.6 31.9-38.9 35.4c-4.1.2-7.3-4-.9-6.6.3 0 22.8-8.4 33-32.3z"/><ellipse fill="#E64434" cx="94.4" cy="227.4" rx="5.2" ry="1.8"/><path fill="#E64434" d="M147.3 227.3c0 1-2.3 1.8-5.2 1.8-2.9 0-5.2-.8-5.2-1.8s2.3-1.8 5.2-1.8c2.9 0 5.2.8 5.2 1.8z"/><ellipse fill="#E64434" cx="189.5" cy="218.5" rx="4" ry="1.4"/><path fill="#E64434" d="M215.2 198c0 .8-1.8 1.4-4 1.4s-4-.6-4-1.4c0-.8 1.8-1.4 4-1.4 2.3 0 4 .6 4 1.4z"/><path fill="#C64328" d="M160.9 165.5c-1.6.1-3.1-.5-3.9-1.5.1.2.1.5.2.8 1.2 3 7.5 4.4 10.2 4.9-.2-1.9-.4-3.8-.8-5.6-1.9.7-3.8 1.1-5.7 1.4z"/><path fill="#C14127" d="M219.2 95.6c-10.6 6.2-13.3 6.2-13.3 6.2l3.5 6.5s-5.3 8.6-10.2 8.6c-4.9 0-3.1 6.2-3.1 6.2s14.2.4 20.3-4.9c6.2-5.3.4-12.8.4-12.8s21.7-10.2 22.1-25.2c-1.6-5-8-1.3-10.6.5-.9 5.2-3.4 11.6-9.1 14.9z"/><path fill="#EA6762" d="M189 100.2s-1.5-13 8.4-20.5 20.8-7.2 23.7-4c2.8 3.1-10.3 16.7-14.5 20.1-7 5.4-17.1 13.2-17.6 4.4z"/><path fill="#C64328" d="M26.4 103.6c-3.1 6.2 4 6.6 11.1 14.6s.9 8 1.8 14.6 8.4 4.4 8.4 4.4-6.2-1.8-3.5-6.6c2.7-4.9.9-8.8-6.6-16.4-7.5-7.5-11.1-8.8-3.5-15.9 7.5-7.1 4.4-14.2 4.4-14.2-1.8-.8-4.3 1.7-6.1 3.9-.2 3.6-3.3 10.1-6 15.6z"/><path fill="#EA6762" d="M26.4 97.5s2.3-4.8.9-6.1c-1.4-1.4-4.3 1.7-5.7 4.9-1.5 3.2 2 5.7 4.8 1.2z"/><circle fill="#D84832" cx="135.8" cy="189.1" r="5.1"/><path fill="#D84832" d="M54 120.6c0 1.3-1.1 2.3-2.3 2.3-1.3 0-2.3-1.1-2.3-2.3 0-1.3 1.1-2.3 2.3-2.3 1.3-.1 2.3 1 2.3 2.3z"/><circle fill="#D84832" cx="46.7" cy="114.2" r="2.7"/><circle fill="#D84832" cx="231.7" cy="105.6" r="2.7"/><circle fill="#D84832" cx="151.2" cy="127.9" r="2.7"/><circle fill="#D84832" cx="142.8" cy="136.8" r="2.7"/><circle fill="#D84832" cx="21.2" cy="117.7" r="2.7"/><circle fill="#D84832" cx="222.2" cy="121.7" r="2.7"/><circle fill="#D84832" cx="41.5" cy="104.8" r="1.6"/><circle fill="#D84832" cx="51.6" cy="97.6" r=".9"/><circle fill="#D84832" cx="117.1" cy="140.4" r="1.1"/><circle fill="#D84832" cx="42.2" cy="100.5" r="3.8"/><circle fill="#D84832" cx="154" cy="118.9" r="4.8"/><circle fill="#D84832" cx="52.5" cy="106.5" r="3.5"/><path fill="#D84832" d="M235.7 115c0 1.9-1.6 3.5-3.5 3.5s-3.5-1.6-3.5-3.5 1.6-3.5 3.5-3.5 3.5 1.6 3.5 3.5zm-108.6 66.8c0 1.4-1.2 2.6-2.6 2.6-1.4 0-2.6-1.2-2.6-2.6 0-1.4 1.2-2.6 2.6-2.6 1.5 0 2.6 1.1 2.6 2.6zm-2.3 20.9c0 2.4-1.9 4.3-4.3 4.3s-4.3-1.9-4.3-4.3 1.9-4.3 4.3-4.3c2.3-.1 4.3 1.9 4.3 4.3z"/><circle fill="#D84832" cx="75" cy="164.7" r="4.3"/><circle fill="#D84832" cx="141" cy="172.6" r="4.3"/><circle fill="#D84832" cx="136.5" cy="202.2" r="4.3"/><circle fill="#D84832" cx="103.7" cy="209.1" r="2.5"/><circle fill="#C4422E" cx="178.6" cy="194.9" r="2.7"/><circle fill="#C4422E" cx="168.2" cy="201.9" r="1.9"/><circle fill="#C4422E" cx="173.5" cy="191.6" r="1.9"/><circle fill="#C4422E" cx="206.5" cy="177.6" r="1.9"/><circle fill="#C4422E" cx="196.4" cy="194.4" r="1.9"/><circle fill="#C4422E" cx="188.6" cy="185.4" r="1.2"/><circle fill="#C4422E" cx="195.3" cy="183.1" r="1.7"/><circle fill="#ED7D72" cx="102.4" cy="97.6" r="1.5"/><circle fill="#ED7D72" cx="103.3" cy="103.9" r="3.2"/><circle fill="#ED7D72" cx="88.3" cy="113.5" r="1.5"/><circle fill="#ED7D72" cx="111.4" cy="124.3" r="1.9"/><circle fill="#ED7D72" cx="86.5" cy="178.4" r="2.8"/><circle fill="#ED7D72" cx="92.2" cy="174.2" r="1.5"/><circle fill="#ED7D72" cx="92.8" cy="121.6" r="2.8"/><circle fill="#ED7D72" cx="105.1" cy="116.8" r="1.5"/></svg>