<?xml version="1.0" encoding="utf-8"?><svg xmlns="http://www.w3.org/2000/svg" width="260" height="260" viewBox="0 0 260 260"><path fill="#F7F1C1" d="M189.9 150.9c-4.3-16.2-12.1-26.7-18.8-33.1-.7.8-1.7 1.6-3 2.3-9.2 4.9-13.5-.6-13.5-.6s-.6 8.6-10.4 11.1-13.5-2.5-13.5-2.5-1.8 9.8-11.1 11.7c-9.2 1.8-13.5-7.4-13.5-7.4s-4.3 14.1-13.5 11.7c-9.2-2.5-3.7-14.7-3.7-14.7s-11.4-.5-15.2-7.8c-7.9 5.7-21.5 16.4-24.5 25.7-4.2 13.3 4.2 24.3 12.1 26.7 7.9 2.4 15.2-12.7 15.2-12.7l1.8 8.5s-6.1 4.2-5.5 14.6c.6 10.3 9.1 7.9 9.1 7.9 7.3 15.8 32.4 38.2 45.1 41.9 12.7 3.6 11.8-1.9 11.8-1.9s2.3 2.4 24.5 5c25.6 2.9 32.7-18 32.7-18s2.4-36.2-6.1-68.4z"/><path fill="#E7E0A5" d="M171.1 117.8c-.7.8-1.7 1.6-3 2.3-9.2 4.9-13.5-.6-13.5-.6s-.6 8.6-10.4 11.1-13.5-2.5-13.5-2.5-1.8 9.8-11.1 11.7c-9.2 1.8-13.5-7.4-13.5-7.4s-4.3 14.1-13.5 11.7c-9.2-2.5-3.7-14.7-3.7-14.7s-11.4-.5-15.2-7.8c-1.4 1-2.9 2.1-4.5 3.4.2.3.6.5 1.1.6 4.4.7 4.8 13.2 6.6 19.1 1.8 5.9 7 9.2 15.4 9.2 8.5 0 14.7-7 14.7-7s-.4 4 4.8 7.4c5.1 3.3 20.6-10.7 20.6-10.7s10.3 5.5 18.8.7 10.7-15.1 10.7-15.1 3.3 2.6 9.2-4.4c1.3-1.5 1.9-3.2 2.1-4.9-.8-.8-1.5-1.4-2.1-2.1z"/><path fill="#FBF7DE" d="M186.9 146.1s8.5 46.8 3.4 56.4c-5.1 9.6-14.1 7.3-20.3 11.8-6.2 4.5-28.2-4.5-37.8-13.5-9.6-9 1.1-28.8 8.5-32.7 7.3-4 25.3-63.7 46.2-22z"/><path fill="#E7E7E8" d="M116.5 81.4s0-11.7 11.7-13.5c11.7-1.8 12.9 9.8 12.9 9.8s2.5-11.7 13.5-9.2c11.1 2.5 8.6 12.3 8.6 12.3s15.4-.1 15.4 11.7c0 6.8-8 12.9-8 12.9s6.8 9.8-2.5 14.7c-9.2 4.9-13.5-.6-13.5-.6s-.6 8.6-10.4 11.1-13.5-2.5-13.5-2.5-1.8 9.8-11.1 11.7c-9.2 1.8-13.5-7.4-13.5-7.4s-4.3 14.1-13.5 11.7c-9.2-2.5-3.7-14.7-3.7-14.7s-13.5-.6-16-9.8c-2.5-9.2 10.4-14.7 10.4-14.7s-8-4.3-4.3-14.1S96.8 89 96.8 89s-4.9-10.4 3.7-14.7c8.6-4.5 16 7.1 16 7.1z"/><path fill="#9A7000" d="M215.9 43.3c-29.6-2.3-48 17.6-55.5 28 4.3 3.8 2.8 9.5 2.8 9.5s13.7-.1 15.2 9.9c15-20.4 31.5-25.3 38.7-25.3 8.2 0 18.3 10.1 13.3 26.6-5.1 16.4-18.3 13.9-18.3 13.9-5.1-8.2-3.2-20.9-3.2-20.9s-10.1 6.3-10.8 15.8c-.6 9.5 17.1 34.1 43 12.6 26-21.4 14.6-67-25.2-70.1zm-159.4 24c8.6 2.7 17.6 17.2 22 25.2.1-.6.3-1.2.6-1.8 3.6-9.6 17.1-2.3 17.8-1.9-.3-.6-4.6-10.5 3.7-14.7 1.7-.8 3.3-1.1 4.8-.9-6.5-13.3-22-37-49.4-35.6C17.9 39.5-4.9 79.3 9.1 104c13.9 24.7 35.4 30.4 50 17.7 14.5-12.6-7-28.5-7-28.5s3.8 14.5-1.9 19.6c0 0-22.1 3.8-24.7-20.2-2.5-24 19-29.1 31-25.3z"/><path fill="#F7F1C1" d="M200.6 125.8c-2.8-8.8-19.7-17.6-28.5-21.7-.9.8-1.5 1.3-1.5 1.3s5 7.3.5 12.4c4.5 4.4 9.6 10.6 13.7 19.2 6.4-.4 18.6-2.3 15.8-11.2z"/><path fill="#6A3A09" d="M51.8 110.7c-.4.8-1 1.6-1.6 2.2 0 0-22.1 3.8-24.7-20.2C23 69 43.7 63.7 55.8 67.1c-3.2-1.6-7.6-2.8-13.8-2.8-20.9 0-35 15.8-31.6 32.1 3.4 16.4 20.3 29.9 30.4 28.2 6-.9 9.6-7.7 11-13.9zm192.6-44.1c-8.4-7.5-23.5-5.7-34.7.1 3-.9 5.6-1.2 7.5-1.2 8.2 0 18.3 10.1 13.3 26.6-5.1 16.4-18.3 13.9-18.3 13.9 5.3 10.9 17.1 12 27.2 3.6 10.1-8.6 16.3-32.9 5-43z"/><path fill="#F3A69E" d="M88.8 129.4s-4.8-.2-9.2-2.4c-6.9 5.8-18.2 16.8-20.2 28.3-3 16.8 9.2 17.5 15.8 4.4 0 0 4.6-22.7 13.6-30.3z"/><path fill="#DC9790" d="M195.2 131.5c1.4-3.1-10-8.6-19.7-9 3 3.5 6 7.9 8.6 13.1 2-.1 9.8-1 11.1-4.1z"/><path fill="#FBFBFB" d="M140.4 82.5s-2.8-13.2-10.7-11.9c-8 1.2-11.3 13.8-11 14.7.3.9-8.6-6.1-14.1 1.5s.9 11.9.9 11.9-13.2 7.3-9.5 16.5c3.3 8.3 17.1 3.4 17.1 3.4s2.8 10.7 9.8 8.9c7-1.8 7-8.6 7-8.6s1.5 8.9 11 6.1c9.5-2.8 8.3-11.9 8.3-11.9s7 3.4 11.9-1.2-.3-10.4-.3-10.4 12.9-1.5 13.5-8c.6-6.4-12.2-9.2-12.2-9.2s1.2-11-6.7-11.9c-7.9-.9-15 10.1-15 10.1z"/><path fill="#DC9790" d="M88.8 129.4s-4.8-.2-9.2-2.4c-6.9 5.8-18.2 16.8-20.2 28.3-1.1 6.2-.1 10.3 1.9 12.2.9 0 1.6-.6 1.6-1.5 0-2.9 4-17.6 9.6-22.8 5.3-5 6.2 3.4 6.2 4 2.3-6.6 5.7-14.1 10.1-17.8z"/><path fill="#E7E0A5" d="M172.1 104.1c-.9.8-1.5 1.3-1.5 1.3s5 7.3.5 12.4c.6.6 1.2 1.2 1.9 1.9 1.3-5.5 10.3-7.9 12.7-8.4-4.9-3-9.9-5.6-13.6-7.2z"/><path fill="#FBF7DE" d="M101.6 172.6s-9-7.9-17.1-4.3c-8.1 3.6-4.5 6.7 1.1 6.5 5.6-.2 12.6.2 14.6 3.6 2.1 3.5 6.4-1.3 1.4-5.8z"/><path fill="#E7E0A5" d="M180.9 154.2c0 10.4-8.4 18.9-18.9 18.9-10.4 0-18.9-8.4-18.9-18.9 0-10.4 8.4-18.9 18.9-18.9 10.5 0 18.9 8.4 18.9 18.9z"/><circle fill="#E7E0A5" cx="130.7" cy="165.8" r="25.1"/><circle fill="#ECF4F8" cx="163.8" cy="150.3" r="18.9"/><path fill="#fff" d="M177.2 136.6c-.1-.1-.2-.2-.4-.3-.2-.2-.4-.3-.6-.5-1.2-1-2.6-1.8-4-2.5-2.1-.9-4.5-1.5-7-1.5-9.3 0-16.9 7.2-16.9 16.2 0 8.9 7.5 16.2 16.9 16.2 9.3 0 16.9-7.2 16.9-16.2 0-4.5-1.9-8.5-4.9-11.4z"/><circle fill="#ECF4F8" cx="133.5" cy="163.1" r="23.2"/><path fill="#fff" d="M134.6 140c-11 .6-19.8 9.7-19.8 20.8 0 11.5 9.4 20.9 20.9 20.9 11.2 0 20.3-8.8 20.8-19.8-.5-11.8-10-21.4-21.9-21.9z"/><circle fill="#6A3A09" cx="142.6" cy="164.3" r="5.1"/><circle fill="#6A3A09" cx="166.5" cy="156.1" r="3.9"/><path fill="#F0EABB" d="M175.4 216.4s-3.6 7.9-16.8 9.4c-11.3 1.3-38.9-11.7-47.2-21.8-8.1-9.9-17.3-20.3-13.1-10.9 11.3 25.8 40.6 39.1 40.6 39.1s2.3 2.4 24.5 5c2.9.3 5.5.3 7.9.1 4-1.5 6.6-3.7 7.4-5.5 2.3-4.9 3.8-15.1-3.3-15.4z"/><path fill="#F3A69E" d="M161.6 241.1s-8.8-13.3 11.3-24.1c13.4-7.2 24-3 27.7 6.1 0 0-9.6 3-6.5 10.3-1 1.4-7.3 7.9-16.4 9.1 0 0-7-7.5-16.1-1.4z"/><path fill="#FBDBD5" d="M171.9 221s3.5-3.8 9.2-5.2c5.7-1.4 11.4-1.6 12.4.4s-3.9 3.9-10.6 6c-6.8 2-12.9 1.9-11-1.2z"/><path fill="#DC9790" d="M200.6 223.1c-.7-1.8-1.7-3.3-2.9-4.7.2 4.4-5.6 9.7-14 11.8-9 2.3-16.2.8-16.9-5.3-.2-1.8.4-3.5 1.5-5.1-13.9 10.2-6.6 21.2-6.6 21.2 9-6.1 16.1 1.4 16.1 1.4 9.1-1.2 15.4-7.7 16.4-9.1-3.3-7.2 6.4-10.2 6.4-10.2zm-61.7 9.1s-34.2-16.4-45.7-47.7c0 0 1.7-1.9 4.7.1 0 0-2.1-5.3-7.5-2.9s-2.9 7-2.9 7 1-3 3.4-3c0-.1 8 30.5 48 46.5z"/><path fill="#B99749" d="M250.8 65.6c-5.9-11.8-17.8-21-34.9-22.4-29.3-2.3-47.7 17.2-55.3 27.7l.1.6c3.8 3.8 2.5 9.2 2.5 9.2s7.2 0 11.7 3.7c5.9-8 13.6-19 31.7-26.2 18.3-7.1 36.6-3 44.2 7.4zm-150.3 8.5c1.7-.8 3.3-1.1 4.8-.9-6.5-13.3-22-37-49.4-35.6C28.5 38.9 9 60.1 5.5 81c6.6-16.7 25.2-28.9 47.8-25.2 18.6 3 29.3 22.9 32.3 30 5-.4 10.8 2.7 11.2 3-.3-.6-4.6-10.6 3.7-14.7z"/></svg>