<?xml version="1.0" encoding="utf-8"?>
<!-- Generator: Adobe Illustrator 17.1.0, SVG Export Plug-In . SVG Version: 6.00 Build 0)  -->
<!DOCTYPE svg PUBLIC "-//W3C//DTD SVG 1.1//EN" "http://www.w3.org/Graphics/SVG/1.1/DTD/svg11.dtd">
<svg version="1.1" id="Layer_1" xmlns="http://www.w3.org/2000/svg" xmlns:xlink="http://www.w3.org/1999/xlink" x="0px" y="0px"
	 width="260px" height="260px" viewBox="0 0 260 260" enable-background="new 0 0 260 260" xml:space="preserve">
<g>
	<path fill="#B77900" d="M136.7,245.8L136.7,245.8L136.7,245.8L136.7,245.8L136.7,245.8z M134.6,244l94.5-103.3L173,17l2.5-1.1
		l56.9,125.3l-95.7,104.7L134.6,244L134.6,244z"/>
	<path fill="#D9E7EE" d="M55.1,102.9c-0.7,4.7-5.1,7.8-9.8,7.1c-4.7-0.7-7.8-5.1-7.1-9.8c0.7-4.7,5.1-7.8,9.8-7.1
		C52.7,93.8,55.9,98.2,55.1,102.9z"/>
	<path fill="#C3D9E4" d="M51.3,94.4c1,1.6,1.4,3.5,1.1,5.5c-0.7,4.4-4.8,7.4-9.3,6.7c-1.9-0.3-3.5-1.3-4.7-2.6c0.9,3,3.5,5.4,6.8,6
		c4.7,0.7,9-2.4,9.8-7.1C55.7,99.4,54.1,96.2,51.3,94.4z"/>
	<path fill="#C34613" d="M228.6,143.1L68.9,117.6c-1.2-0.2-2-1.3-1.9-2.6l0,0c0.2-1.2,1.3-2,2.6-1.9l0,0l159.7,25.5
		c1.2,0.2,2,1.3,1.8,2.6l0,0c-0.2,1.1-1.1,1.9-2.2,1.9l0,0C228.9,143.1,228.8,143.1,228.6,143.1L228.6,143.1z"/>
	<path fill="#AC3514" d="M68.4,117.4c0.2,0.1,0.3,0.2,0.5,0.2l159.7,25.5c0.1,0,0.2,0,0.4,0c1.1,0,2-0.8,2.2-1.9c0-0.1,0-0.2,0-0.3
		L68.4,115.6L68.4,117.4z"/>
	<path fill="#C34613" d="M238.5,150.7l-12.7-8.4c-0.7-0.5-1.1-1.3-1-2.1l0,0c0.1-0.9,0.7-1.6,1.5-1.9l0,0l13.6-4.8
		c1.2-0.4,2.4,0.2,2.8,1.4l0,0c0.4,1.2-0.2,2.4-1.4,2.8l0,0l-9.2,3.2l8.7,5.9l0,0c1,0.6,1.4,2,0.7,3.1l0,0c-0.4,0.7-1.2,1.1-1.9,1.1
		l0,0C239.3,151,238.9,150.9,238.5,150.7L238.5,150.7z"/>
	<path fill="#AC3514" d="M232.7,144.2l-0.3-3l0,0l-7.6-1.2c0,0.1,0,0.1-0.1,0.2c-0.1,0.9,0.3,1.7,1,2.1l12.7,8.4
		c0.4,0.2,0.8,0.3,1.2,0.3c0.8,0,1.5-0.4,1.9-1.1c0,0,0-0.1,0.1-0.1L232.7,144.2z"/>
	<polygon fill="#B77900" points="232.2,141 229.1,140.6 226.9,143.1 229.3,144.6 232.4,141.2 	"/>
	<polygon fill="#C34613" points="76.8,116.9 78.8,128 13.2,106.3 82.2,106.5 	"/>
	<path fill="#1A171B" d="M50.8,100.7c-0.2,1.3-1.4,2.1-2.7,1.9c-1.3-0.2-2.1-1.4-1.9-2.7c0.2-1.3,1.4-2.1,2.7-1.9
		C50.1,98.2,51,99.4,50.8,100.7z"/>
	<polygon fill="#AC3514" points="14.2,106.6 78.8,128 76.8,116.9 	"/>
	<path fill="#AC3514" d="M62.1,119.4c6.7,1.1,12.9-3.5,14-10.1c0.1-0.9,0.2-1.8,0.1-2.7l-24.4-0.1C51.4,112.7,55.8,118.4,62.1,119.4
		z"/>
	<path fill="#862B11" d="M72.4,116.2l-19.1-3.1c1.7,3.3,4.9,5.7,8.8,6.3C66,120,69.8,118.7,72.4,116.2z"/>
	<path fill="#EDF7FD" d="M75.5,106.9c-1.1,6.7-7.4,11.3-14.1,10.2c-6.7-1.1-11.3-7.4-10.2-14.1c1.1-6.7,7.4-11.3,14.1-10.2
		C72,93.9,76.6,100.2,75.5,106.9z"/>
	<path fill="#D7E8F1" d="M68.4,93.8c3.4,2.4,5.3,6.6,4.6,11c-1,6.2-6.8,10.4-12.9,9.4c-4.4-0.7-7.7-3.9-9-7.8
		c0.6,5.4,4.7,9.9,10.3,10.8c6.7,1.1,13-3.5,14.1-10.2C76.4,101.3,73.3,96,68.4,93.8z"/>
	<path fill="#1A171B" d="M71,104.3c-0.3,2.1-2.3,3.5-4.4,3.2c-2.1-0.3-3.5-2.3-3.2-4.4c0.3-2.1,2.3-3.5,4.4-3.2
		C69.9,100.2,71.3,102.2,71,104.3z"/>
	<path fill="#F5A000" d="M175.5,6.9c-2.9-1.4-5.7-1.6-6.2-1.6c0,0,0,0-0.2,0c-0.1,0-0.2,0-0.5,0.1c-0.2,0.1-0.8,0.6-0.8,1.3
		c0,0.3,0.1,0.6,0.2,0.8c1.4,2,2,4,2,6.1c0.1,6.8-7.5,15-17.7,22.8C142.3,44.2,130,52,121.2,59.1C107.8,69.4,102,82.6,102,93.7
		c0,5.9,1.6,11.2,4.7,15.1c4.6,6,5.4,10.2,5.4,12.7c0,0.2,0,0.4,0,0.6c-0.1,0.2-0.2,0.5-0.2,0.8c0,0,0,0,0,0.1c0,0.1,0,0.3,0,0.5
		c-0.1,0.4-0.2,0.5-0.2,0.5c-0.1,0.3-0.2,0.5-0.1,0.8c-0.7,2.3-2.7,6.2-9.6,10.7c-7,4.4-11.6,13.7-11.7,24.9
		c0,8.2,2.5,17.5,8.4,26.7c10.4,17.4,31.1,41.2,30.9,55.4c0,3.8-1.3,6.7-4.6,9.1c-0.6,0.4-0.8,1.3-0.3,1.9c0.6,0.7,0.5,0.4,0.6,0.5
		c0.5,0.2,2.3,0.7,5,0.7c2.2,0,5-0.4,7.3-2.3c2.3-1.8,3.8-5,3.8-9.7h0l0-0.1c-0.3-14.9-16.3-41.4-26-56.6c-6-8.7-9.8-17.7-9.8-24.9
		c0-4.8,1.6-8.7,5.5-11.5c12.9-9.4,15.6-20.2,16.2-23.5c0.2-1,0.4-2.6,0.4-4.9c0-5.2-1.3-13.4-7.6-22.7c-1.6-2.3-2.2-4.7-2.2-7.2
		c-0.1-8.1,7.8-17.7,18.7-25.5c14.4-11,38.5-30.4,43.9-44.3c0.8-2.1,1.1-3.9,1.1-5.6C181.5,11,178.4,8.2,175.5,6.9z"/>
	<path fill="#D38B00" d="M181.4,15.9c0-4.8-3.1-7.7-6-9c-1.2-0.5-2.3-0.9-3.3-1.2c1,1.7,4.4,8.4,0.9,10.6c-4,2.5-4.3,4-4.3,4
		s-1.2,2.7,1.5,4.7c2.7,2-23.2,26.2-39.8,38.4c-16.5,12.2-24.4,23.1-15.7,41.1c8.7,18,7,22.2,1.8,29.7c-5.2,7.5-17.4,11.5-18,24.4
		c-0.7,12.9,11.2,28.1,21.6,46.1c10.4,18,16.5,33.9,12.9,35.3c-3.7,1.3-3.2,2.6-3.2,2.6s-1.3,5,2.2,6.6c3.5,1.7-4.2,0.5-4.2,0.5
		s2.5,0.8,3.3,2.3c0.7,1.2-2.7,2.1-4,2.4c0.8,0.1,1.8,0.2,3,0.3c2.2,0,5-0.4,7.3-2.3c2.3-1.8,3.8-5,3.8-9.7h0l0-0.1
		c-0.3-14.9-16.3-41.4-26-56.6c-6-8.7-9.8-17.7-9.8-24.9c0-4.8,1.6-8.7,5.5-11.5c12.9-9.4,15.6-20.2,16.2-23.5
		c0.2-1,0.4-2.6,0.4-4.9c0-5.2-1.3-13.4-7.6-22.7c-1.6-2.3-2.2-4.7-2.2-7.2c-0.1-8.1,7.8-17.7,18.7-25.5
		c14.4-11,38.5-30.4,43.9-44.3C181.1,19.4,181.4,17.5,181.4,15.9z"/>
	<g>
		<path fill="#B77900" d="M178.8,25.7c-9.3-2-11.7-6.9-11.8-7.2l0,0v0c-0.3-0.7,0-1.5,0.7-1.8l0,0c0.7-0.3,1.5,0,1.8,0.7l0,0
			c0,0,0,0,0,0.1l0,0c0,0.1,0.1,0.2,0.3,0.4l0,0c0.3,0.4,0.7,0.9,1.4,1.5l0,0c1.4,1.2,3.9,2.7,8.1,3.6l0,0c0.8,0.2,1.2,0.9,1.1,1.7
			l0,0c-0.1,0.7-0.7,1.1-1.4,1.1l0,0C179,25.7,178.9,25.7,178.8,25.7L178.8,25.7z"/>
		<path fill="#B77900" d="M179.5,25c-7.8-2.6-11.5-10.8-11.6-10.9l0,0l0,0c-0.3-0.7,0-1.5,0.7-1.9l0,0c0.7-0.3,1.5,0,1.9,0.7l0,0
			c0,0,0.9,1.8,2.6,4l0,0c1.7,2.1,4.2,4.5,7.4,5.5l0,0c0.7,0.2,1.1,1,0.9,1.8l0,0c-0.2,0.6-0.7,1-1.3,1l0,0
			C179.8,25.1,179.6,25.1,179.5,25L179.5,25z"/>
		<path fill="#B77900" d="M168.6,14.1c-0.6-0.5-0.7-1.3-0.3-1.9l0,0c0.5-0.6,1.3-0.7,2-0.3l0,0c0,0,1.2,0.9,3.1,1.8l0,0
			c1.8,0.9,4.3,1.8,6.6,1.8l0,0c0.5,0,1,0,1.5-0.1l0,0c0.8-0.1,1.5,0.4,1.6,1.1l0,0c0.1,0.8-0.4,1.5-1.1,1.6l0,0
			c-0.7,0.1-1.4,0.2-2,0.2l0,0C174,18.2,168.7,14.1,168.6,14.1L168.6,14.1z"/>
		<path fill="#B77900" d="M127.4,240.2c-0.5-0.6-0.5-1.4,0.1-2l0,0c0.6-0.5,1.5-0.5,2,0.1l0,0c1.2,1.3,2.8,1.8,4.6,1.8l0,0
			c1.8,0,3.6-0.5,5-1l0,0c1.4-0.5,2.3-1,2.3-1l0,0c0.7-0.4,1.5-0.1,1.9,0.6l0,0c0.4,0.7,0.1,1.5-0.6,1.9l0,0c-0.1,0-4.1,2.2-8.6,2.3
			l0,0c0,0,0,0-0.1,0l0,0C131.8,242.9,129.3,242.2,127.4,240.2L127.4,240.2z"/>
		<path fill="#B77900" d="M127.8,244.5c-0.5-0.6-0.5-1.5,0.1-2l0,0c0.6-0.5,1.5-0.5,2,0.1l0,0c0.9,1,1.9,1.3,3.1,1.3l0,0
			c1.8,0,3.9-0.9,5.6-1.9l0,0c1.7-1,2.8-1.9,2.8-1.9l0,0c0.6-0.5,1.5-0.4,2,0.2l0,0c0.5,0.6,0.4,1.5-0.2,2l0,0
			c-0.1,0-5,4.4-10.2,4.5l0,0c0,0,0,0-0.1,0l0,0C131.1,246.8,129.2,246.1,127.8,244.5L127.8,244.5z"/>
		<path fill="#B77900" d="M131.8,250.4c-3.1,0-5.2-1-5.3-1.1l0,0c-0.7-0.3-1-1.2-0.6-1.9l0,0c0.3-0.7,1.2-1,1.9-0.6l0,0
			c0,0,0.3,0.2,1.1,0.4l0,0c0.7,0.2,1.8,0.4,3,0.4l0,0c2.5,0,5.6-0.8,8.9-4.3l0,0c0.5-0.6,1.4-0.6,2-0.1l0,0c0.6,0.5,0.6,1.4,0.1,2
			l0,0C139.1,249.2,135,250.4,131.8,250.4L131.8,250.4C131.9,250.4,131.9,250.4,131.8,250.4L131.8,250.4z"/>
	</g>
	<path fill="#FDCE58" d="M164.8,26.9c0,0,1.5-2.1,2.5-1.2c1,0.8-6.7,11.9-22.5,22.9C124.9,62.4,117.6,67,113,76.2
		c-4.6,9.2-5.6,15.6-7.3,13.7c-3.8-4.2,3.3-17.5,10.8-25c7.5-7.5,14.2-10.9,25.4-18.7C154.4,37.5,161.9,30.2,164.8,26.9z"/>
	<path fill="#FDCE58" d="M102.8,143c0,0,3.7-4,7.7-6c4-2.1,1.7-5.8-2.9-3.7c-4.6,2.1-12.1,7.9-14.6,18.5
		c-2.5,10.6,0.4,22.1,4.8,30.6c4.4,8.5,16.7,25.4,18.1,25.4c1.5,0-6.2-12.7-11.5-21.2C99.2,178,90.9,155.3,102.8,143z"/>
</g>
</svg>
