<?xml version="1.0" encoding="utf-8"?>
<!-- Generator: Adobe Illustrator 17.1.0, SVG Export Plug-In . SVG Version: 6.00 Build 0)  -->
<!DOCTYPE svg PUBLIC "-//W3C//DTD SVG 1.1//EN" "http://www.w3.org/Graphics/SVG/1.1/DTD/svg11.dtd">
<svg version="1.1" id="Layer_1" xmlns="http://www.w3.org/2000/svg" xmlns:xlink="http://www.w3.org/1999/xlink" x="0px" y="0px"
	 width="260px" height="260px" viewBox="0 0 260 260" enable-background="new 0 0 260 260" xml:space="preserve">
<g>
	<path fill="#4B6774" d="M177.5,155.8c0,0,9.8,1.8,8.2,5.9c-1.7,4.1-5.6,13-5.6,13s8.6-7.4,15.5-1.4c0,0,1.8,2.1-3.8,3.8
		c-5.7,1.8-14.5,1.3-14.1-1.6c0.5-2.9,6.9-13.7,5.8-14.7c-1.1-1.1-6.7,1.1-9-2C171.7,155.2,177.5,155.8,177.5,155.8z"/>
	<path fill="#4B6774" d="M85.8,163.7c0,0-13-6.1-22.9,4.3c0,0-30.6-15.4-33,43.5c0,0,19.4-37.4,27.4-28.7c8,8.6-18.5,36.3-18.5,36.3
		s46.5-21.4,28.7-45.2c0,0,8.1-8.6,14.9-5.8c0,0,2.9,0.9,3.9-0.9C87.4,165.2,85.8,163.7,85.8,163.7z"/>
	<path fill="#5D7F8E" d="M95.2,133.9c0,0,22.1-20.3,51.1-14.7c0,0,42.1,1.6,32.9,36.7c0,0-23.6,44.3-81.6,47.7
		C68.1,205.4,78,178.1,78,178.1S67,166.6,95.2,133.9z"/>
	<path fill="#708E9D" d="M144,38.8c0,0,13.6,12.6,19.3,29c0,0-34.8,8-49.1,29.8C114.2,97.5,118.8,62.2,144,38.8z"/>
	<path fill="#4B6774" d="M114.2,97.5c16.1-18.1,48.3-23.8,48.3-23.8l0.8-5.9C163.3,67.8,128.5,75.8,114.2,97.5z"/>
	<path fill="#5D7F8E" d="M220.4,59.3c-5.3-24-43.3-27.7-43.3-27.7c-5.4-2.5-9.6,0.3-9.6,0.3c-5.7,4.6-29.2,25.6-20.4,24.8
		c8.8-0.8,30.8-12.4,30.8-12.4c3.3,14.2,16.6,17.9,16.6,17.9c-4.1,5.7-3.1,21.1-3.1,21.1c-7.7,7.5-13.6,24.5-13.6,24.5
		c-12.6,0.7-26.4,8.2-31.9,11.4c0.1,0,0.2,0,0.3,0.1c0,0,42.1,1.6,32.9,36.7c0,0-0.1,0.2-0.3,0.6c25.3-5.2,33.1-24.8,33.1-24.8
		c14.6-15.4,8.1-44.8,8.1-44.8C231.4,69.3,220.4,59.3,220.4,59.3z"/>
	<path fill="#4B6774" d="M111.3,151.5c-0.9,9-9,15.5-17.9,14.6c-9-0.9-15.5-9-14.6-17.9c0.9-9,9-15.5,17.9-14.6
		C105.8,134.5,112.3,142.5,111.3,151.5z"/>
	<path fill="#F5FBFE" d="M110.1,148.4c-0.9,9-9,15.5-17.9,14.6c-9-0.9-15.5-9-14.6-17.9c0.9-9,9-15.5,17.9-14.6
		C104.5,131.4,111,139.5,110.1,148.4z"/>
	<path fill="#D2E0E7" d="M99.6,131.5c4.7,3,7.6,8.5,7,14.5c-0.9,8.4-8.4,14.5-16.8,13.7c-4.5-0.5-8.3-2.8-10.8-6.2
		c2.3,5.1,7.2,8.9,13.2,9.6c9,0.9,17-5.6,17.9-14.6C110.9,140.9,106.4,134,99.6,131.5z"/>
	<circle fill="#4B6774" cx="120.9" cy="148.5" r="20.3"/>
	<path fill="#F9FCFE" d="M137.3,148.7c-1,10.1-10.1,17.4-20.1,16.3c-10.1-1-17.4-10.1-16.3-20.1c1-10.1,10.1-17.4,20.1-16.3
		C131,129.6,138.3,138.6,137.3,148.7z"/>
	<path fill="#D2E0E7" d="M124.5,129.3c5.4,3.3,8.7,9.5,8,16.2c-1,9.3-9.3,16.1-18.7,15.2c-4.6-0.5-8.6-2.8-11.3-6.1
		c2.6,5.6,8.1,9.8,14.7,10.4c10.1,1,19.1-6.3,20.1-16.3C138.2,139.8,132.7,131.8,124.5,129.3z"/>
	<circle fill="#1A171B" cx="115" cy="152.4" r="5.3"/>
	<circle fill="#1A171B" cx="93.4" cy="151.5" r="3.8"/>
	<path fill="#4B6774" d="M122.2,199.3c40-11.9,56.9-43.4,56.9-43.4c7.8-29.6-20.8-35.4-30.1-36.5c5.4,1.8,12.4,6.1,11.3,16.6
		c-1.7,16.6-14.1,42.1-51.8,45.9c-17.3,1.7-26.4-1.1-31.2-4.8c0.4,0.7,0.7,1,0.7,1s5.4,6.3,17.5,7.7c27.9,3.4,29.9-1.9,32.5,3.6
		C130.2,194.2,124.1,198.2,122.2,199.3z"/>
	<path fill="#4B6774" d="M220,86.9c11.5-17.6,0.4-27.6,0.4-27.6c-3.1-13.9-17.1-21-28.3-24.5c16.6,7.5,22.2,24.9,16.4,24.3
		c-6.2-0.6-9.4,3.2-9.4,3.2s3.3-1.7,9.7,0.7c6.4,2.4,5.7,22.6-0.5,21.9c-6.2-0.6-9.8,0-9.8,0c18.6,1.9,6.1,35.2-2.3,29.1
		c-8.4-6.1-12.8-4.5-12.8-4.5c6.1,1.3,8.9,5.5,8.9,5.5c3.1,10.4-9.2,14.8-16.8,16.6c4.4,5.4,6.7,13.2,3.7,24.3c0,0-0.1,0.2-0.3,0.6
		c25.3-5.2,33.1-24.8,33.1-24.8C226.5,116.2,220,86.9,220,86.9z"/>
	<path fill="#4B6774" d="M145.3,56.2c0.2,0.4,0.8,0.6,1.8,0.5c8-0.8,27.3-10.6,30.4-12.2c-0.4-2.1-0.5-4.7,0.5-7.4
		C178,37.1,160.7,53.6,145.3,56.2z"/>
	<path fill="#1B3A47" d="M133.6,178.6c0,0,0.4,0.1,0.9,0.6c-3.3,1.4-30.1,12-56.5-1.1c0,0,19.7,15.1,57.5,3c0.1,0.6,0.1,1.4-0.1,2.4
		C135.4,183.4,138.6,179,133.6,178.6z"/>
	<path fill="#4B6774" d="M156.8,174.5c0,0,11.1,9.1,6,22.5c0,0,27.1,20.9-25,48.5c0,0,25.3-33.6,14.1-37.1
		c-11.3-3.5-24.7,32.3-24.7,32.3s-0.7-51.2,28.4-45.4c0,0,4.3-11.1-1.1-15.9c0,0-2.1-2.2-0.9-3.9
		C154.8,173.7,156.8,174.5,156.8,174.5z"/>
	<path fill="#708E9D" d="M78.3,165.3c0,0-3.3,7,2,11.2c5.3,4.2,29.5,4.2,35.8-0.7c6.3-4.9-8.6-4.1-19.6-4.1c-11.1,0-10-8.6-13.4-9.1
		C79.6,162,78.6,164.6,78.3,165.3z"/>
	<path fill="#708E9D" d="M78.3,192.4c0,0-1.5-6.1,5.2-5.2c6.7,0.9,21.2,5.9,17.9,10.4C98.3,202.1,83.7,203.4,78.3,192.4z"/>
	<path fill="#708E9D" d="M161.8,113c0,0,11.2-5.9,21.2-2.3c10,3.6-1.1,11.9-8.7,12.3C166.7,123.2,153,116.7,161.8,113z"/>
	<path fill="#708E9D" d="M183.9,101.9c0,0,4.2-14.4,11.6-12.9c7.4,1.5,5.9,16-0.6,16.8C188.3,106.5,182.9,104.9,183.9,101.9z"/>
	<path fill="#708E9D" d="M194.2,78.1c0,0-1.4-11.2,2.6-12.9c4-1.7,9.7,5.3,8.9,11.4C204.9,82.7,195.3,82.7,194.2,78.1z"/>
	<path fill="#708E9D" d="M180,43.1c-0.3-0.6-1.7-6.1,5.7-4.8c7.4,1.4,17.6,11.7,13.4,15.8C194.9,58.2,183.8,51,180,43.1z"/>
	<path fill="#708E9D" d="M170.5,32.9c0,0-6.5,4.3-12.3,10.2c-5.7,5.9-1.1,3.1,6.8-1C172.9,38.1,175.7,32.1,170.5,32.9z"/>
	<path fill="#4B6774" d="M199.6,142.2c0,0,9.1,1.7,7.5,5.4c-1.5,3.7-5.1,12-5.1,12s7.9-6.8,14.3-1.3c0,0,1.7,1.9-3.5,3.5
		c-5.2,1.6-13.4,1.2-13-1.5c0.4-2.7,6.4-12.6,5.3-13.6c-1.1-1-6.2,1-8.3-1.9C194.3,141.6,199.6,142.2,199.6,142.2z"/>
	<path fill="#4B6774" d="M210.7,131.1c0,0,8.2,1.5,6.8,4.9c-1.4,3.4-4.7,10.9-4.7,10.9s7.2-6.2,12.9-1.1c0,0,1.5,1.7-3.2,3.2
		c-4.7,1.5-12.1,1.1-11.8-1.3c0.4-2.4,5.8-11.4,4.8-12.3c-1-0.9-5.6,1-7.5-1.7C205.9,130.6,210.7,131.1,210.7,131.1z"/>
	<path fill="#1B3A47" d="M208.1,133.6c-0.5-0.6-0.6-1.1-0.5-1.4l0,0c0,0-1.3,3.6,0.8,5.6c0.7-1,1.4-2,1.9-2.9
		C209.4,134.7,208.6,134.3,208.1,133.6z"/>
	<path fill="#1B3A47" d="M196.7,144.9c-0.4-0.6-0.6-1.1-0.6-1.4c-0.2,0.8-1,3.7,0.5,5.7c1.3-0.9,2.5-1.8,3.6-2.7
		C198.8,146.4,197.5,146,196.7,144.9z"/>
	<path fill="#4B6774" d="M177.5,155.8c0,0,9.8,1.8,8.2,5.9c-1.7,4.1-5.6,13-5.6,13s8.6-7.4,15.5-1.4c0,0,1.8,2.1-3.8,3.8
		c-5.7,1.8-14.5,1.3-14.1-1.6c0.5-2.9,6.9-13.7,5.8-14.7c-1.1-1.1-6.7,1.1-9-2C171.7,155.2,177.5,155.8,177.5,155.8z"/>
	<path fill="#1B3A47" d="M174.3,158.8c-0.6-0.9-0.8-1.5-0.6-1.9c0,0,0,0,0,0c0,0-1.1,3.3,0.6,6.3c0.8-1.1,1.5-2.1,2.1-3
		C175.6,160,174.9,159.5,174.3,158.8z"/>
	<path fill="#1B3A47" d="M154.5,179.3c0,0-1.2-1.3-1.2-2.6c-0.4,1.3-1.8,5.1-1.2,8c1.4-1,2.8-2.1,4.1-3.1
		C155.8,180.8,155.2,180,154.5,179.3z"/>
	<path fill="#5D7F8E" d="M159.6,178.4c0,0-2.5-3.7-4.5-2.6c-2,1,3.1,2.8,4.4,6.5c1.2,3.7,2.6,3.9,2.3,1.7
		C161.4,181.8,160.4,179.6,159.6,178.4z"/>
	<path fill="#5D7F8E" d="M176.1,156.3c0,0-1.3-0.1-1.3,0.9c0,0.9,5.5,2.1,7.3,1.8C183.9,158.7,180.2,156.5,176.1,156.3z"/>
	<path fill="#5D7F8E" d="M197.4,143.5c0,0-0.5-1.2,2.2-0.7c2.6,0.5,5.7,1.6,4.8,1.9C203.5,145.1,198.3,145.6,197.4,143.5z"/>
	<path fill="#5D7F8E" d="M208.2,132.2c0,0,0.2-0.9,1.7-0.8c1.6,0.1,5.2,1.3,4.6,1.8C213.9,133.7,208.8,134,208.2,132.2z"/>
	<path fill="#5D7F8E" d="M184.5,172.4c0,0-3.3,1.9-1.8,2.9c1.6,1,11.7-0.2,11-2C192.9,171.4,188.7,170.5,184.5,172.4z"/>
	<path fill="#5D7F8E" d="M205.2,158.4c0,0,1.7-1.9,4.7-1.9c2.5-0.1,5.4,1.1,3.4,2.3C211.4,159.9,203.5,160.3,205.2,158.4z"/>
	<path fill="#5D7F8E" d="M215.7,145.9c0,0,2.3-1.9,5.6-1.7c3.3,0.2,4,1.7,1,2.4C219.4,147.3,214.1,147.6,215.7,145.9z"/>
	<path fill="#5D7F8E" d="M130.8,218.8c0,0,3.1-12.6,8.8-18.2c5.7-5.6,14.8-5.6,17.5-2.3c2.7,3.3,8.4,12.6-2.9,25.8
		c0,0-1.2,1,0.8-4.1c2-5.1,2.2-14.2-5.3-14.5c-7.6-0.3-14.1,5.5-17.2,14.3C129.3,228.7,129.3,223.9,130.8,218.8z"/>
	<path fill="#708E9D" d="M152.1,197.5c0,0-4.5-1.9-10.2,2c-5.7,4-8.5,12.4-7.8,13.1c0.7,0.7,4-7.9,8.5-10.2c4.5-2.3,8.5-2,10.8-0.8
		C155.7,202.9,157,198.9,152.1,197.5z"/>
	<path fill="#5D7F8E" d="M34.1,189.9c0,0,3.1-12.6,8.8-18.2c5.7-5.6,14.3-5.1,17.5-2.3c3.5,3,9.7,12.6-1.6,25.9c0,0-1.2,1,0.8-4.1
		c2-5.1,0.9-14.3-6.6-14.6c-7.6-0.3-14.1,5.5-17.2,14.3C32.6,199.8,32.6,195.1,34.1,189.9z"/>
	<path fill="#708E9D" d="M55.5,168.7c0,0-4.5-1.9-10.2,2c-5.7,4-8.5,12.4-7.8,13.1c0.7,0.7,4-7.9,8.5-10.2c4.5-2.3,8.5-2,10.8-0.8
		C59,174,60.4,170,55.5,168.7z"/>
</g>
</svg>
