<?xml version="1.0" encoding="utf-8"?>
<!-- Generator: Adobe Illustrator 17.1.0, SVG Export Plug-In . SVG Version: 6.00 Build 0)  -->
<!DOCTYPE svg PUBLIC "-//W3C//DTD SVG 1.1//EN" "http://www.w3.org/Graphics/SVG/1.1/DTD/svg11.dtd">
<svg version="1.1" id="Layer_1" xmlns="http://www.w3.org/2000/svg" xmlns:xlink="http://www.w3.org/1999/xlink" x="0px" y="0px"
	 width="260px" height="260px" viewBox="0 0 260 260" enable-background="new 0 0 260 260" xml:space="preserve">
<g>
	<path fill="#B47D43" d="M175.9,125c0,0-12.4-12.6-24.4-16.2c-12-3.7-24.5-13.8-18.7-20.7c0,0-6.1-0.6-8.3,8.7
		c0,0-13.6-6.7-4.6-17.7c0,0-24.7,3.1-28.4,21.3c0,0-19-11.5-37.2,3c-18.2,14.4-21.6,39.7-16.8,48.6c0,0,14.9,0.2,25.4-7.2
		c10.4-7.4,18.8-26.7,22.2-19.5c3.4,7.3-2.2,33.7-7,41c-4.7,7.3-5.4,52.1,15.4,66c0,0-0.9,11,28.7,14.4c29.6,3.5,45-14.2,48.3-28.8
		c3.2-14.6-15.6-33.6-2.1-64.6c0,0,7.2,1,11.5,13.5c4.3,12.6,19.5,17.9,26.2,18.7c6.6,0.8,9.1-29.7,2.4-42.4
		C201.7,130.4,186.4,123.2,175.9,125z"/>
	<path fill="#6A3A09" d="M91.5,100.3c2.1-10.4,11.1-15.9,18.4-18.6c-0.4-3-0.1-6,1.2-8.8c8.2-17.5,38.6-36.9,20.7-58.1
		c0,0-5.5-5.3-4.1,1.6c1.5,6.9,1.3,16.9-12.7,22.6c-12.2,5-45.3,25.4-30.4,58.5C88.8,98.7,91.5,100.3,91.5,100.3z"/>
	<path fill="#7C440A" d="M91.5,100.3c1.3-6.4,5.2-10.9,9.7-14.1c-0.2-1.7-0.5-3.4-0.6-5.2c-0.8-13,13.3-27.8,24-37.5
		c10.7-9.7,9.3-22.6,6-26.5c-3.3-3.9-2.9-0.6-2.9-0.6c1.5,6.9,1.3,16.9-12.7,22.6c-12.2,5-45.3,25.4-30.4,58.5
		C88.8,98.7,91.5,100.3,91.5,100.3z"/>
	<path fill="#8B5308" d="M88.7,99c1.7,0.8,2.7,1.4,2.7,1.4c0.6-2.7,1.6-5.1,3-7.2c-1.3-4-2.9-9.4-2.6-15.8
		c0.8-14.6,5.8-21.5,16.7-28.5c0,0,13.7-8.9,13.1-9.9c-0.4-0.7-3.1,0-16.2,8c-13,7.9-21,19.2-21.4,31.8C83.8,87.3,85.5,95.2,88.7,99
		z"/>
	<path fill="#A2703C" d="M185.8,139.4c-9.6-5.8-8.8-19.1-31.5-28.6c-11-4.6-21.6-3.2-21.6-3.2c-10-2.2-25.1-13-25.1-13
		s2.4,5.3,14.3,12.8c3,1.9-2.5,2-17.9-3.2c1.9,11,25,19.4,26.6,22.4c4.8,9.6,13.2,18.6,16.6,26c6,13-0.7,40.3-7.6,48.5
		c-6.8,8.1-32.9,13.6-51.4,16.5c-2.3,0.4-4,1.1-5.1,2.2c2.7,5.2,6.1,9.6,10.6,12.6c0,0-0.9,11,28.7,14.4c29.6,3.5,45-14.2,48.3-28.8
		c3.2-14.6-15.6-33.6-2.1-64.6c0,0,7.2,1,11.5,13.5c0.7,1.9,1.6,3.7,2.7,5.3c7.5,9.3,14.7,11.1,19,12.4c1.7,0.5,3.2,0.8,4.4,0.9
		C209.4,179.7,207.2,152.2,185.8,139.4z"/>
	<path fill="#6A3A09" d="M145,106.2c2.1,1,4.3,1.9,6.4,2.6c12,3.7,24.4,16.2,24.4,16.2c1.3-0.2,2.8-0.3,4.2-0.2
		c44.4-17,25.9-58.5,17.9-70.6c-8.3-12.6-2.9-21,2.2-25.8c5.1-4.9-2.5-3.6-2.5-3.6c-26.7,7.6-12.5,40.6-15.5,59.8
		C180,98.9,156.5,104.4,145,106.2z"/>
	<circle fill="#A2703C" cx="108.7" cy="133.3" r="17.7"/>
	<circle fill="#A2703C" cx="139.1" cy="140.4" r="23.5"/>
	<path fill="#ECF4F8" d="M91,132.8c1.2,9.7,10,16.5,19.7,15.3c9.7-1.2,16.5-10,15.3-19.7c-1.2-9.7-10-16.5-19.7-15.3
		C96.7,114.3,89.8,123.1,91,132.8z"/>
	<path fill="#FFFFFF" d="M94.5,119.3c0.1-0.1,0.2-0.2,0.3-0.4c0.1-0.2,0.3-0.4,0.5-0.5c1-1.1,2.2-2,3.5-2.8c1.9-1.1,4-1.9,6.3-2.2
		c8.6-1.1,16.5,4.8,17.5,13.1c1,8.3-5.1,15.9-13.8,17c-8.6,1.1-16.5-4.8-17.5-13.1C90.8,126.3,92,122.4,94.5,119.3z"/>
	<path fill="#ECF4F8" d="M116.7,141.6c1.5,11.9,12.3,20.3,24.2,18.8c11.9-1.5,20.3-12.3,18.8-24.2c-1.5-11.9-12.3-20.3-24.2-18.8
		C123.6,118.9,115.2,129.7,116.7,141.6z"/>
	<path fill="#FFFFFF" d="M134.5,117.5c10.3-0.7,19.5,6.7,20.8,17.1c1.3,10.7-6.3,20.5-17,21.8c-10.4,1.3-19.8-5.8-21.7-15.9
		C115.8,129.4,123.5,119.5,134.5,117.5z"/>
	<path fill="#6A3A09" d="M129,142.2c0.4,3.4,3.5,5.7,6.8,5.3c3.3-0.4,5.7-3.5,5.3-6.8c-0.4-3.4-3.5-5.7-6.8-5.3
		C130.9,135.8,128.5,138.8,129,142.2z"/>
	<path fill="#6A3A09" d="M103.1,133.8c0.3,2.3,2.3,3.8,4.6,3.6c2.2-0.3,3.8-2.3,3.6-4.6c-0.3-2.3-2.3-3.8-4.6-3.6
		C104.4,129.4,102.8,131.5,103.1,133.8z"/>
	<path fill="#F3A69E" d="M83.6,171.6c0,0,35.8-7.2,59.9,14.1c0,0,7.6-18.5,20.3-9.4c10,7.1,3.3,19.5-4.3,23.6c-7.6,4-2.6,9.7-3.8,18
		c-1.5,10.5-13.7,29.4-48.6,20.4c-34.9-9-43.1-21.9-42.4-35.6c0.7-13.7,6-19.6,6-19.6s-17-8.7-12.4-20
		C63,151.7,79.9,151.3,83.6,171.6z"/>
	<path fill="#7C440A" d="M189.1,58.6c-4-17.2,2.4-25.3,6.2-30.1c1.4-1.8,1.4-2.8,0.9-3.3c-24.5,8.4-10.9,40.5-13.9,59.2
		c-2.3,14.4-25.8,19.9-37.3,21.7c2.1,1,4.3,1.9,6.4,2.6c2.4,0.7,4.9,1.9,7.2,3.1c9-0.1,15.6-4.8,23-10.8
		C192.8,92.1,193.1,75.9,189.1,58.6z"/>
	<path fill="#8B5308" d="M189.2,32.7c0,0-6.3,6.2-3.2,24.7c3.1,18.5,5.3,33.8-9.6,43.6c-16.1,10.6-19.4,8-17.7,5.8
		c2.3-3,17.5-5,23.1-15.1c5.6-10.2,4.7-17.3,2.4-29.3C181.8,50.5,183.4,38.2,189.2,32.7z"/>
	<path fill="#DC9790" d="M148.3,194.8c0,0,2.6,1.7,3.4,5.1c0.8,3.4,1.6-0.9,6.5-3.4c4.8-2.6,9.2-8,5.3-11.4
		C159.6,181.6,153.6,187.8,148.3,194.8z"/>
	<path fill="#DC9790" d="M76.1,176.7c0,0-4-12.3-11-12.8c-7-0.5-4.4,7.8,0,11.9c4.5,4,6.7,5.3,6.7,5.3S73.7,177.2,76.1,176.7z"/>
	<path fill="#FBDBD5" d="M161.3,176.2c0,0,4.4,2.2,3.4,4.9c-1,2.7-5.1-2-10.1,2.2c-5,4.2-6.9-0.7-3.4-4.9
		C154.8,174.2,158.6,175,161.3,176.2z"/>
	<path fill="#FBDBD5" d="M72.4,163.1c0,0-3.2-3.4-8.2-2.3c-5,1.1-0.8-4,3.5-4.1c4.3-0.2,8.8,1.6,9.3,4.7
		C77.6,164.5,75,165.8,72.4,163.1z"/>
	<path fill="#6A3A09" d="M137,238.6c0,0,18.5-3.4,26.9-25.4c0,0,1.7-0.5,3.1,1.1c0,0-2.6-5.7-8.3-2.1c0,0,2.3-0.4,2.8,0.4
		C161.4,212.6,160.4,228.6,137,238.6z"/>
	<path fill="#FBDBD5" d="M88,176.1c0,0,6.1-4.3,20.6-1.3c14.4,3,19.6,6.7,21.4,12c1.3,4-12.7,6.9-29.8,1.6
		C82.9,183.1,85.2,177.6,88,176.1z"/>
	<path fill="#A2703C" d="M87.1,125.7c0,0,2.1-6.9-1.2-8.8c0,0,3.4-1.3,4.7-1c1.3,0.2-0.5-5.1-0.5-5.1l3.5-2.1c0,0-1.2-6.1-19.2-5
		c-16.2,1-33.8,21.5-38.4,43.7c0.3,1.8,0.8,3.4,1.5,4.7c0,0,14.9,0.2,25.4-7.2c10.4-7.4,18.8-26.7,22.2-19.5
		c0.2,0.4,0.4,0.9,0.5,1.5C86.5,126.1,87.1,125.7,87.1,125.7z"/>
	<path fill="#DC9790" d="M174.2,137.6c0,0,21,3.9,26.1,24c5.1,20,4.9,20.9-3.1,18.1c-7.9-2.7-14-12.4-16.8-19.5
		c-2.8-7.1-10.3-11.3-10.3-11.3s2.7-7.9,7.8-5.1c0,0-2.7-4.6-5.1-2.8c0,0,2-1.6,4.3-0.9L174.2,137.6z"/>
	<path fill="#DC9790" d="M87.5,109.1c0,0-18.9-8.6-35.5,11.6c-13.2,16.2-12.3,28.8-12.3,28.8s17.9-1.4,23.2-8.5
		c5.3-7.1,17.4-22.2,20.9-21.1c0,0-2.8-4.3-8.8,0.1c0,0,4.6-6.7,10-5.1c0,0-4.6-0.5-6.7-2.7c0,0,4.7,1.1,6.2,0
		c1.6-1.1-2.4-2.3-2.4-2.3L87.5,109.1z"/>
	<path fill="#CE8E4B" d="M83.6,171.6c0,0,22.2-4.5,43.4,4.1c3.5-2,7.2-7-0.7-12.4c-10.6-7.2-9.7-10.3-19.5-8.7
		c-9.8,1.5-14.8-6.6-16.8-11c-2-4.4-5.4,10.5-5.4,10.5s-2.1,5.9-2.8,11.3C82.5,167.1,83.2,169.2,83.6,171.6z"/>
</g>
</svg>
