<?xml version="1.0" encoding="utf-8"?>
<!-- Generator: Adobe Illustrator 17.1.0, SVG Export Plug-In . SVG Version: 6.00 Build 0)  -->
<!DOCTYPE svg PUBLIC "-//W3C//DTD SVG 1.1//EN" "http://www.w3.org/Graphics/SVG/1.1/DTD/svg11.dtd">
<svg version="1.1" id="Layer_1" xmlns="http://www.w3.org/2000/svg" xmlns:xlink="http://www.w3.org/1999/xlink" x="0px" y="0px"
	 width="260px" height="260px" viewBox="0 0 260 260" enable-background="new 0 0 260 260" xml:space="preserve">
<g>
	<path fill="#EBF6FC" d="M205.8,119c0,10.8,8.8,19.6,19.6,19.6c10.8,0,19.6-8.8,19.6-19.6c0-10.8-8.8-19.5-19.6-19.5
		C214.5,99.5,205.8,108.2,205.8,119z"/>
	<path fill="#DFEAF0" d="M216.5,101.6c-2.3,3.2-3.7,7.1-3.7,11.4c0,10.8,8.8,19.6,19.6,19.6c3.2,0,6.2-0.8,8.8-2.1
		c-3.5,4.9-9.3,8.2-15.9,8.2c-10.8,0-19.6-8.8-19.6-19.6C205.8,111.4,210.1,104.8,216.5,101.6z"/>
	<path fill="#FFE200" d="M123.2,88.2c27.5-13.8,69.3-7.6,84.5,19.1c15.3,26.7,19.7,32.4,34.3,36.9c14.6,4.5,8.9,19.7-16.5,34.3
		c-25.4,14.6-29.2,10.2-29.2,10.2s7.6,3.2-2.5,7c-10.2,3.8-38.8,12.7-74.4-5.7c-35.6-18.4-69.9-57.2-69.9-57.2S91.4,104,123.2,88.2z
		"/>
	<path fill="#FFEB75" d="M173,100.6c5.9-3.4-8.3-7.9-25.4-5.7c-37.1,4.8-68.1,20.2-86.8,34.3c-18.7,14.1,56.5,2,73.7,2
		c17.2,0,21.4,0.6,24.1-7.9C163.3,108.9,168.8,103.1,173,100.6z"/>
	<path fill="#EECF00" d="M161.9,127.3c0,16.4,13.3,29.6,29.6,29.6c16.4,0,29.6-13.3,29.6-29.6c0-16.4-13.3-29.6-29.6-29.6
		C175.2,97.7,161.9,111,161.9,127.3z"/>
	<circle fill="#FFFFFF" cx="193.9" cy="125.1" r="26.9"/>
	<path fill="#EBF6FC" d="M181.9,101c-5.4,4.6-8.8,11.4-8.8,19c0,13.7,11.1,24.8,24.8,24.8c9.6,0,17.9-5.4,22-13.4
		c-2.9,11.7-13.4,20.4-26,20.4c-14.8,0-26.9-12-26.9-26.9C167,114.5,173.1,105.4,181.9,101z"/>
	<path fill="#1A171B" d="M184.5,133.6c0,4.2,3.4,7.6,7.6,7.6c4.2,0,7.6-3.4,7.6-7.6c0-4.2-3.4-7.6-7.6-7.6
		C187.9,126,184.5,129.4,184.5,133.6z"/>
	<path fill="#1A171B" d="M222.3,125c0,2.5,2,4.5,4.5,4.5c2.5,0,4.5-2,4.5-4.5c0-2.5-2-4.5-4.5-4.5
		C224.3,120.5,222.3,122.5,222.3,125z"/>
	<path fill="#73B220" d="M132.1,125.5c-0.3,36.2,26.3,65.4,36.7,75.4c3.9-0.2,7.5-0.7,10.7-1.3c-32.5-28.5-33.5-59.5-29.1-86.2
		c3-18.3,15.9-26.4,24.1-29.8c-11.9-3.2-24.9-3.3-36.8-0.6C134.9,91.5,132.3,105,132.1,125.5z M98.7,101.6
		c-4.8,41.8,16.7,76.6,28,91.7c5.9,2.5,11.6,4.3,17,5.6c-22.5-20.7-26.8-43.2-30.4-72.1c-1.9-15.7,1.1-27.8,4.5-35.8
		C111.6,94.2,105.1,97.8,98.7,101.6z M65.6,122c0.9,13.3,5.6,26.5,10.6,36.9c5.1,4.5,10.7,9.2,16.6,13.7
		c-16.5-31.4-15.1-50.7-12.6-59.9C74.9,116.1,69.9,119.2,65.6,122z"/>
	<path fill="#009036" d="M30.3,135.6c-22.2-4-20.2-27.6-20.2-27.6c20.4-14.1,47.4,6.9,55.5,14c-9.7,6.2-16.1,10.6-16.1,10.6
		s5.4,6.1,14.2,14.7c-13.3,28.6-53.6,16.6-53.6,16.6C11.4,143,30.3,135.6,30.3,135.6z"/>
	<path fill="#009036" d="M185.5,93.9c0,0-15.9-35.6-41.9-35c0,0-41.9,15.9-71.2,43.2c0,0,4.5,3,2.5,13.8
		C98.4,102.6,128.8,82.8,185.5,93.9z"/>
	<path fill="#009036" d="M139.3,159.4c2.4,5.5,5.2,10.7,8.1,15.4c-7.3,0.1-38.6,5.7-35.8-14.2C113.2,150,128.5,155,139.3,159.4z"/>
	<path fill="#CFAC00" d="M198.1,189.6c0,0-30-10.7-34.9-29.3c0,0-2.7,1.1-2.7,3.6C160.5,163.8,169.4,183.6,198.1,189.6z"/>
	<path fill="#CFAC00" d="M166.3,159.4c0,0-6,0-6.4,9.8C159.8,169.1,156.7,156.7,166.3,159.4z"/>
	<path fill="#008333" d="M185.5,93.9c-56.7-11.1-87.1,8.7-110.6,22c0.1-0.4,0.1-0.8,0.2-1.3c2-1,3.1-3.3,3.1-7.3
		c0-5.3,2.2-0.6,8.7-1.2c6.5-0.6-0.3-4,1.2-8.7c1.6-4.7,8.4,4.4,11.8,1.9c3.4-2.5-1.9-8.1,0.3-10.9c2.2-2.8,5,4,12.4,4
		c7.5,0,1.2-8.1,0.9-14c-0.3-5.9,18.3,12.1,21.4,6.5c3.1-5.6-7.8-14.6-1.2-14.6c6.5,0,30.8,22.4,32,14.6c1.1-6.6-9-20.5-11.9-24.4
		C173.8,67.6,185.5,93.9,185.5,93.9z"/>
	<path fill="#008333" d="M125.4,168.7c-1.2-2.8,5.3-5,11.8-5.3c2.3-0.1,3-0.8,3.1-1.7c2.1,4.6,4.5,9,7.1,13c-0.2,0-0.4,0-0.6,0
		C142.8,171.9,126.5,171.1,125.4,168.7z"/>
	<path fill="#008333" d="M31.9,156.2c-1.6-5,20.5-12.7,18.3-16.8c-2.2-4-14.3-0.3-14.3-3.7c0-3.4,11.2-1.6,13.4-5.6
		c2.2-4-22.1-10.9-19.6-12.7c2.5-1.9,20.5,5.9,30.2,5.9c3,0,4.3-0.9,4.7-2.1c0.4,0.3,0.7,0.6,1,0.9c-9.7,6.2-16.1,10.6-16.1,10.6
		s5.4,6.1,14.2,14.7c-0.2,0.5-0.5,0.9-0.7,1.4c0-0.1,0-0.1,0-0.2C62.6,141.9,33.4,161.2,31.9,156.2z"/>
	<path fill="#FFEB75" d="M245.5,157c0,0,7.1-7.6-2-10.6c-9.1-3-17.7-8.1-20.7-10.6c-3-2.5-2,16.6,4.5,24.7
		C233.9,168.6,239.5,164.1,245.5,157z"/>
	<path fill="#A4C96A" d="M98.2,108.3c-0.5,9.1,0.3,17.8,1.8,26c4.9-0.5,9.7-1,14.2-1.4c-0.3-2-0.5-4-0.8-6.1
		c-1.2-9.5-0.5-17.6,0.9-24.4C108.6,104.2,103.3,106.1,98.2,108.3z M66,125.6c0.4,3.5,1,7,1.9,10.4c3.4,0.1,7.4,0,11.8-0.2
		c-1.2-7.7-1.1-13.8-0.4-18.4C74.4,120.1,70,122.9,66,125.6z M134.3,97.2c-1.2,7.4-2.1,16.8-2.2,28.3c0,2,0.1,3.9,0.2,5.8
		c0.8,0,1.6-0.1,2.3-0.1c6.2,0,10.7,0.1,14-0.2c0.2-6,0.9-11.9,1.8-17.6c1.4-8.2,4.7-14.4,8.8-19c-3.5-0.1-7.4,0-11.5,0.5
		C143.1,95.5,138.7,96.3,134.3,97.2z"/>
</g>
</svg>
