<?xml version="1.0" encoding="utf-8"?>
<!-- Generator: Adobe Illustrator 17.1.0, SVG Export Plug-In . SVG Version: 6.00 Build 0)  -->
<!DOCTYPE svg PUBLIC "-//W3C//DTD SVG 1.1//EN" "http://www.w3.org/Graphics/SVG/1.1/DTD/svg11.dtd">
<svg version="1.1" id="Layer_1" xmlns="http://www.w3.org/2000/svg" xmlns:xlink="http://www.w3.org/1999/xlink" x="0px" y="0px"
	 width="260px" height="260px" viewBox="0 0 260 260" enable-background="new 0 0 260 260" xml:space="preserve">
<g>
	<path fill="#73B7D4" d="M43.2,55.8c-1.7-0.8-3.5-2.6-3.6-5.4l0,0c0-0.1,0-0.3,0-0.4l0,0c0-3,1.7-4.9,3.3-5.7l0,0
		c1.6-0.8,3-0.9,3.1-0.9l0,0c0.8,0,1.5,0.6,1.6,1.4l0,0c0,0.8-0.6,1.5-1.4,1.6l0,0c0,0-0.2,0-0.5,0.1l0,0c-0.4,0.1-0.9,0.2-1.3,0.5
		l0,0c-0.9,0.5-1.6,1.2-1.7,3l0,0c0,0.1,0,0.2,0,0.3l0,0c0.1,1.7,0.8,2.2,1.8,2.8l0,0c1.1,0.5,2.5,0.7,3.3,0.6l0,0
		c0.4,0,0.7,0,0.8,0l0,0l78.7-4v0c0.8,0,1.5,0.6,1.6,1.4l0,0c0,0.8-0.6,1.5-1.4,1.6l0,0l-78.6,4c0,0-0.4,0-1,0l0,0
		C46.8,56.7,45,56.6,43.2,55.8L43.2,55.8z"/>
	<path fill="#73B7D4" d="M125.9,51.2c0-0.8,0.6-1.5,1.4-1.6l0,0l83-3.9c0,0,0.1,0,0.2,0l0,0c0.1,0,1.7,0,3.1-0.6l0,0
		c1.4-0.6,2.4-1.3,2.4-3.2l0,0c0-0.1,0-0.2,0-0.2l0,0c-0.1-1.9-0.8-2.5-1.7-3l0,0c-0.8-0.4-1.9-0.5-2.1-0.5l0,0l0,0
		c-0.8,0.1-1.6-0.5-1.6-1.4l0,0c-0.1-0.8,0.5-1.6,1.4-1.6l0,0c0,0,0.1,0,0.2,0l0,0c0.5,0,2,0,3.6,0.9l0,0c1.6,0.8,3.2,2.7,3.3,5.6
		l0,0c0,0.1,0,0.2,0,0.3l0,0c0,3.3-2.4,5.3-4.4,6l0,0c-1.9,0.7-3.7,0.8-4.1,0.8l0,0h0l-83.1,3.9l0,0c0,0,0,0-0.1,0l0,0
		C126.6,52.7,125.9,52,125.9,51.2L125.9,51.2z"/>
	<path fill="#73B7D4" d="M178.5,121.1c-0.8-0.3-1.1-1.2-0.8-2l0,0L209,46.6c0.3-0.8,1.2-1.1,2-0.8l0,0c0.8,0.3,1.1,1.2,0.8,2l0,0
		l-31.4,72.5c-0.2,0.6-0.8,0.9-1.4,0.9l0,0C178.8,121.2,178.6,121.2,178.5,121.1L178.5,121.1z"/>
	<path fill="#73B7D4" d="M240.6,120.3l-31.4-72.5c-0.3-0.8,0-1.7,0.8-2l0,0c0.8-0.3,1.6,0,2,0.8l0,0l31.4,72.5c0.3,0.8,0,1.6-0.8,2
		l0,0c-0.2,0.1-0.4,0.1-0.6,0.1l0,0C241.4,121.2,240.9,120.9,240.6,120.3L240.6,120.3z"/>
	<path fill="#73B7D4" d="M244,120.5c0,3-14.9,5.4-33.3,5.4c-18.4,0-33.3-2.4-33.3-5.4c0-3,14.9-5.4,33.3-5.4
		C229,115.1,244,117.5,244,120.5z"/>
	<path fill="#4C7D91" d="M210.6,125.9c-18.4,0-33.3-2.4-33.3-5.4c0,3,14.9,20.6,33.3,20.6c18.4,0,33.3-17.6,33.3-20.6
		C244,123.4,229,125.9,210.6,125.9z"/>
	<path fill="#73B7D4" d="M17.1,129.3c-0.8-0.3-1.1-1.2-0.8-2l0,0l31.4-72.5c0.3-0.8,1.2-1.1,2-0.8l0,0c0.8,0.3,1.1,1.2,0.8,2l0,0
		l-31.4,72.5c-0.2,0.6-0.8,0.9-1.4,0.9l0,0C17.5,129.5,17.3,129.4,17.1,129.3L17.1,129.3z"/>
	<path fill="#73B7D4" d="M79.3,128.6L47.9,56.1c-0.3-0.8,0-1.7,0.8-2l0,0c0.8-0.3,1.7,0,2,0.8l0,0L82,127.4c0.3,0.8,0,1.7-0.8,2l0,0
		c-0.2,0.1-0.4,0.1-0.6,0.1l0,0C80.1,129.5,79.5,129.1,79.3,128.6L79.3,128.6z"/>
	<path fill="#73B7D4" d="M82.5,128.7c0,3-14.9,5.4-33.2,5.4c-18.4,0-33.2-2.4-33.2-5.4c0-3,14.9-5.4,33.2-5.4
		C67.6,123.3,82.5,125.7,82.5,128.7z"/>
	<path fill="#4C7D91" d="M49.3,134.1c-18.4,0-33.2-2.4-33.2-5.4c0,3,14.9,20.5,33.2,20.5c18.4,0,33.2-17.5,33.2-20.5
		C82.5,131.7,67.6,134.1,49.3,134.1z"/>
	<path fill="#E0381C" d="M210.6,125.9c8.3,0,15.9-0.5,21.8-1.3c9.1-17.8-5.1-27.9-19-23.4c-9.1,2.9-11.6-5.6-20.6,0.4
		c-9,6-6.9,18.1-2.9,23.2C195.7,125.4,202.8,125.9,210.6,125.9z"/>
	<path fill="#FED300" d="M30.4,133.1c5.4,0.6,11.8,0.9,18.8,0.9c7.2,0,13.9-0.4,19.4-1c0.2-0.2,0.4-0.3,0.4-0.3s4.9-8.7-1.8-15.4
		c-6.7-6.7-8.7-2.3-13.8-13.6C48.3,92.5,43.1,90.7,38,94.6c-4.5,3.4,0.3,13.1-6.1,19.2C25.5,119.9,27.2,128.8,30.4,133.1z"/>
	<path fill="#862514" d="M40,93.4c0.3-0.1,0.7-0.3,1-0.4c-0.4-2.4-1.7-4.2-1.7-4.2C37.7,88.8,38,90,38,90C39,90.4,39.7,92.3,40,93.4
		z"/>
	<path fill="#82CFF0" d="M171.8,228.3c0,8.2-20,14.9-44.7,14.9c-24.7,0-44.7-6.7-44.7-14.9c0-8.2,20-14.9,44.7-14.9
		C151.8,213.4,171.8,220.1,171.8,228.3z"/>
	<path fill="#7AC3E2" d="M146.4,217.9c-7.2-0.6-50.1,3.6-39.9,11c0,0,9.7,4.9,28.7,5.2c15.6,0.3,19.8,2,18,6.2
		c11.2-2.7,18.6-7.1,18.6-12.1c0-3.9-4.5-7.4-11.8-10.1c-0.8,0-1.3,0-1.3,0S153.5,218.5,146.4,217.9z"/>
	<path fill="#73B7D4" d="M127.2,213.4c-3.3,0-6.5,0.1-9.7,0.4c2.5-0.1,5.1-0.2,7.7-0.2c23,0,41.7,5.6,41.7,12.6
		c0,7-18.6,12.6-41.7,12.6c-23,0-41.7-5.7-41.7-12.6c0-0.5,0.1-1,0.3-1.4c-0.8,1.1-1.3,2.3-1.3,3.6c0,8.2,20,14.9,44.7,14.9
		c24.7,0,44.7-6.7,44.7-14.9C171.8,220.1,151.8,213.4,127.2,213.4z"/>
	<path fill="#73B7D4" d="M151.4,87.8c0,8.3-6.7,15-15,15c-8.3,0-15-6.7-15-15c0-8.3,6.7-15,15-15C144.7,72.8,151.4,79.5,151.4,87.8z
		"/>
	<path fill="#82CFF0" d="M135.9,35.6c0,4.8-3.9,8.8-8.8,8.8c-4.8,0-8.8-3.9-8.8-8.8c0-4.8,3.9-8.8,8.8-8.8
		C132,26.8,135.9,30.8,135.9,35.6z"/>
	<path fill="#A0D9F3" d="M146.4,217.9c-19.5-16.4-16.6-159.6-16.1-174.1c-1,0.4-2,0.6-3.1,0.6c-1.1,0-2.1-0.2-3.1-0.6
		c0.4,14.5,3.4,157.7-16.1,174.1c0,0-7.1,3.3-7.1,6.6c0,3.3,14,8.1,26.3,7.7c12.3,0.5,26.3-4.4,26.3-7.7
		C153.5,221.2,146.4,217.9,146.4,217.9z"/>
	<path fill="#73B7D4" d="M153.5,224.5c0-3.3-7.1-6.6-7.1-6.6c-19.5-16.4-16.6-159.6-16.1-174.1c-1,0.4-2,0.6-3.1,0.6
		c-1.1,0-2.1-0.2-3.1-0.6c0,0.7,0,1.6,0.1,2.7c1.7,0.6,4.1,2.5,4.1,8.2c0,8.5-0.3,49.8-0.3,49.8s-0.8,51.6-0.8,68.3
		c0,16.7,5,44.1,10.1,51.6c5.1,7.4-26.6,6.1-33.5,1.3c-1.3-0.9-2.2-1.6-2.7-2.2c-0.2,0.4-0.3,0.8-0.3,1.1c0,3.3,14,8.1,26.3,7.7
		C139.4,232.7,153.5,227.8,153.5,224.5z"/>
	<circle fill="#EDF7FD" cx="135.6" cy="87.3" r="13.3"/>
	<path fill="#82CFF0" d="M129.9,88.8c0,0,2.5,19.5,11.3,24.8c8.9,5.3-3.2,13.1-10.6,5.3C123.2,111.1,129.9,88.8,129.9,88.8z"/>
	<path fill="#FFFFFF" d="M144.4,83.4c0,4.7-3.8,8.5-8.5,8.5c-4.7,0-8.5-3.8-8.5-8.5c0-4.7,3.8-8.5,8.5-8.5
		C140.5,74.9,144.4,78.7,144.4,83.4z"/>
	<path fill="#73B7D4" d="M131.4,28c1.1,1.4,1.8,3.1,1.8,5c0,4.4-3.6,8.1-8.1,8.1c-2.6,0-4.9-1.3-6.4-3.2c1,3.8,4.4,6.6,8.5,6.6
		c4.8,0,8.8-3.9,8.8-8.8C135.9,32.3,134.1,29.4,131.4,28z"/>
	<path fill="#C8E8F8" d="M128.3,32.6c0,1.8-1.5,3.3-3.3,3.3c-1.8,0-3.3-1.5-3.3-3.3c0-1.8,1.5-3.3,3.3-3.3
		C126.8,29.3,128.3,30.8,128.3,32.6z"/>
	<path fill="#C8E8F8" d="M124.6,149c0,0-1.8,45.3-7.7,59.6c-6,14.4-8.5,12.2-10.9,13.9c-2.4,1.7,5.9,4.1,12.7,4.8
		c6.8,0.7,12.9,0.4,10.8-2.7c-2.1-3.1-3.7-7.1-4.5-21.6C124.1,188.6,124.6,149,124.6,149z"/>
	<path fill="#82CFF0" d="M134.5,88.6c0,10.1-8.2,18.3-18.3,18.3c-10.1,0-18.3-8.2-18.3-18.3c0-10.1,8.2-18.3,18.3-18.3
		C126.4,70.3,134.5,78.5,134.5,88.6z"/>
	<circle fill="#EDF7FD" cx="116.9" cy="87.5" r="15.5"/>
	<path fill="#FFFFFF" d="M126.1,85.6c0,6.1-5,11.1-11.1,11.1c-6.1,0-11.1-5-11.1-11.1c0-6.1,5-11.1,11.1-11.1
		C121.1,74.4,126.1,79.4,126.1,85.6z"/>
	<circle fill="#1A171B" cx="124.8" cy="93.2" r="4.3"/>
	<path fill="#1A171B" d="M142.7,90.8c0,1.8-1.5,3.3-3.3,3.3c-1.8,0-3.3-1.5-3.3-3.3c0-1.8,1.5-3.3,3.3-3.3
		C141.2,87.5,142.7,89,142.7,90.8z"/>
	<path fill="#C8E8F8" d="M133.9,106.1c0,0-0.8-1.6-2.3-0.6c-1.4,1-0.2,9,3.3,12.1c3.5,3.1,8,2.1,8-0.2c0-2.3-4.6-3.7-6.6-6.8
		C134.7,107.9,133.9,106.1,133.9,106.1z"/>
	<path fill="#C8E8F8" d="M128.7,237.8c-21.8,0-39.5-5.1-39.5-11.5c0-4.3,8.2-8.1,20.3-10c-14.7,1.7-25.2,5.9-25.2,10.9
		c0,6.4,17.5,11.7,39.2,11.7c8.7,0,16.7-0.8,23.2-2.3C141.3,237.3,135.2,237.8,128.7,237.8z"/>
	<path fill="#65A3BD" d="M40.1,147.8c0.7,0.2,1.3,0.4,2,0.6c-4.7-2.2-12.3-7-15-15.6c-1.8-0.3-3.4-0.6-4.9-0.9
		C23.3,134,28,142.5,40.1,147.8z"/>
	<path fill="#3C6577" d="M48.9,149.2c5.9-1.5,21.8-6.4,29.3-17.8c-3.9,1.1-10.2,2-17.7,2.4c-0.8,2.9-3.9,11.6-12.4,15.4
		C48.3,149.1,48.6,149.2,48.9,149.2z"/>
	<path fill="#65A3BD" d="M191.4,124.9c-2.5-0.3-4.7-0.6-6.6-1c1.4,3.2,5.8,10.8,15.9,15.5c1.9,0.6,3.9,1.1,5.9,1.3
		C203.6,138.9,194.5,133.1,191.4,124.9z M200.1,125.6c-1-0.1-2-0.1-2.9-0.2c1.1,4.1,3.8,10,10,15.4c0.3,0,0.7,0,1,0.1
		C206,138.3,201.6,132.5,200.1,125.6z"/>
	<path fill="#3C6577" d="M220.7,125.6c-0.5,3.2-2.3,10.7-8.9,15.4c0.3,0,0.6,0,0.9-0.1c5.4-2.2,21.4-9.1,26.6-17.7
		C235.2,124.3,228.6,125.2,220.7,125.6z"/>
	<path fill="#E55D34" d="M219.8,120.4c0.5-0.3,1-0.7,1.7-1.4c7.9-7.8,3.7-16,3.7-16s0,0,0,0c-0.4-0.9-1.1-1.6-2.6-2
		c0,0-3.3-1-6.5,0.3c-3.3,1.3,1,5-3.3,5.8c-0.3,0.1-0.5,0.1-0.7,0.2c-1.7,0.2-4,0.2-6.7-1.2c-4.9-2.5-3.8-7.1-9.8-5.4
		c-5.9,1.7-9.9,11-4.4,18c5.1,6.4,21.5,5.9,28.2,1.9c0,0,0.1,0,0.1-0.1C219.7,120.4,219.7,120.4,219.8,120.4z"/>
	<path fill="#CE351A" d="M214.5,125.8c6-0.1,11.5-0.5,16.1-1c1.8-3.3,2.6-7.3,2.6-11.3c0-5.6-2.6-9.3-5-11.4
		c-0.8-0.4-1.7-0.8-2.6-1.1c1.6,3.2,5.9,13.2-0.1,19.1C222.4,123.1,218.6,124.9,214.5,125.8z"/>
	<path fill="#CE351A" d="M210.6,105.4c0,0-6-0.5-6-2.7c0-2.1,3.1,0,3.1,0S207.9,104.3,210.6,105.4z"/>
	<path fill="#862514" d="M208.7,104.2c0,0-0.1-9.7,6.4-10.1c0,0,0.9-1.7-1.3-2.7C213.7,91.5,206.3,95,208.7,104.2z"/>
	<path fill="#74B320" d="M209.9,95.3c0,0-8.9,0-9-9.6C200.8,85.7,209.7,83.7,209.9,95.3z"/>
	<path fill="#639C1E" d="M200.8,85.8c0.2,8.6,7.5,9.4,8.8,9.5C207.1,89.6,202.5,86.7,200.8,85.8z"/>
	<path fill="#ED8A5B" d="M205.8,107.8c0,0-4.4-1.9-6.5-5.5c-1-1.8-6.7-0.8-7.1,3.9c-0.5,4.7,9.6,7.8,13.9,6.7
		C210.4,111.7,207.9,108.8,205.8,107.8z"/>
	<path fill="#E2BD00" d="M51.7,134c5.7-0.1,11-0.4,15.6-0.8c1-2.6,3.9-11.8-4.1-16.6c-9.5-5.6-9.7-4.2-10.7-8.9
		c-1-4.6-1.6-9.7-9.1-14.1c0,0,5.3,3.4,5.9,10.9c0.6,7.5-3.2,8.7,1.8,10.1C55.8,115.9,61.1,128.7,51.7,134z"/>
	<path fill="#FFE16C" d="M50.4,122.3c0,4.4-4.6,8-10.3,8c-5.7,0-10.3-3.6-10.3-8c0-4.4,4.6-8,10.3-8
		C45.8,114.3,50.4,117.9,50.4,122.3z"/>
	<path fill="#FFE16C" d="M43.8,103.7c0,4.2-1.6,7.6-3.6,7.6c-2,0-3.6-3.4-3.6-7.6c0-4.2,1.6-7.6,3.6-7.6
		C42.1,96.2,43.8,99.6,43.8,103.7z"/>
</g>
</svg>
