<?xml version="1.0" encoding="utf-8"?>
<!-- Generator: Adobe Illustrator 17.1.0, SVG Export Plug-In . SVG Version: 6.00 Build 0)  -->
<!DOCTYPE svg PUBLIC "-//W3C//DTD SVG 1.1//EN" "http://www.w3.org/Graphics/SVG/1.1/DTD/svg11.dtd">
<svg version="1.1" id="Layer_1" xmlns="http://www.w3.org/2000/svg" xmlns:xlink="http://www.w3.org/1999/xlink" x="0px" y="0px"
	 width="260px" height="260px" viewBox="0 0 260 260" enable-background="new 0 0 260 260" xml:space="preserve">
<g>
	<path fill="#7B7C7E" d="M107.6,61.2c0,0,13.6-1.9,20.6,3.2c0,0,12.1-9.5,29.7,0.2c17.5,9.7,16,14.2,16,14.2s24.1,1.7,28,23.3
		c3.9,21.7-12.8,31.6-21.8,30.1c-9-1.6-7.5-6.6-7.5-6.6s-3.1,9-10.3,38.7c-7.2,29.6-20.9,48.7-31,50.1c-10.1,1.4-23.1-7.7-28.6-19.3
		c-5.5-11.6-16.3-44.4-20.2-60.5c-3.9-16.1-3.4-24.2-3.4-24.2s-7.1,11-17.7,7.9c-10.5-3.1-10.3-44.4,22.4-43.6
		C83.9,74.6,94.5,63.6,107.6,61.2z"/>
	<path fill="#666769" d="M194.7,88c1.8,3,2.6,6.5-0.3,8.1c-3.6,2.1-5.7-3.9-13.6-6c-7.9-2.1-9.2,1.9-9.2,1.9
		c-5.6,3.7-15,27.7-15,27.7s8,12.7,4.8,27.5c-1.7,7.9-20.2,36.3-16.6,45c3.6,8.8-11.2,16-11.2,16c5.4,2.6-1.2,5-5.4,6.2
		c1,0.1,2,0,3-0.1c10.1-1.4,23.8-20.5,31-50.1c7.2-29.6,10.3-38.7,10.3-38.7s-1.5,5,7.5,6.6c9.1,1.6,25.7-8.4,21.8-30.1
		C200.8,95.9,198.1,91.4,194.7,88z"/>
	<path fill="#CDCFD0" d="M162.3,164.2c0.7-3,1.4-5.8,2.1-8.4c0.3-3.5,0.2-10.3-5.6-10.2c-7.6,0.2-15.3,35.2-25.9,41.2
		c-10.6,6-16.6-0.1-22.8-9.4c-6.2-9.3-14.9-28.2-19.4-26.2c-2.1,0.9-1.6,4.9-0.1,11.1c4.3,13.1,9,26.2,12.1,32.7
		c5.5,11.6,18.5,20.8,28.6,19.3C141.3,212.9,155,193.9,162.3,164.2z"/>
	<path fill="#DBDCDD" d="M126.4,209.3c2.4-10.5,1.1-15.3-3.5-17.7c-1.1-0.5-1.9-1.9-2.5-3.6c-3.8-1.8-7-5.8-10.3-10.6
		c-6-8.8-14.1-26.5-18.8-26.3c-0.6,3.1,0.8,10.7,3.2,17.9c3,9.1,10.7,29.8,18,36c7.3,6.2,14.8,7.5,15.1,6.1
		C128,209.6,126.4,209.3,126.4,209.3z"/>
	<path fill="#C0C1C2" d="M163.4,159.6c0.3-1.3,0.6-2.6,0.9-3.8c0.2-2.7,0.2-7.3-2.4-9.3c-0.1,0.1-3,17.2-10.6,37.1
		c-8.9,19.5-17.6,24.7-17.6,24.7c5.4,2.6-1.2,5-5.4,6.2c0.5,0,1,0,1.4,0c0.5,0,1,0,1.6-0.1c10.1-1.4,23.8-20.5,31-50.1
		c0.3-1.4,0.7-2.7,1-4C163.3,160,163.4,159.8,163.4,159.6z"/>
	<circle fill="#4E4E50" cx="105.8" cy="99.8" r="20.4"/>
	<path fill="#4E4E50" d="M170.2,97.7c0,15-12.2,27.2-27.2,27.2c-15,0-27.2-12.2-27.2-27.2c0-15,12.2-27.2,27.2-27.2
		C158,70.5,170.2,82.7,170.2,97.7z"/>
	<path fill="#1A171B" d="M129.3,205.9c-0.8-4,0.2-9.4,0.4-9.4c7.3-0.2,13.1-17.5,10.6-18.3c-2.5-0.8-5,4.6-13.1,4.8
		c-8.1,0.2-10.8-1.9-13.7-2.9c-2.9-1-0.2,4-0.2,4c1.7,3.7,6.8,10.5,12.5,12.6c0.2,1.1,1.3,3.9,0.9,9.5c-0.2,2.9-9-2.5-9-2.5
		s2.3,5.6,10.8,5.6c8.5,0,10.4-5.8,10.4-5.8S130.1,210.3,129.3,205.9z"/>
	<path fill="#1A171B" d="M157.4,64.4c10.9,5.9,14.5,9.9,15.6,12.1c14.6-51.5,82-73,82-73c-70.9-7.4-102,43.1-109.1,57
		C149.4,60.9,153.3,62.1,157.4,64.4z"/>
	<path fill="#1A171B" d="M85.8,72.7c3.8-3.4,11.9-9.6,21.3-11.4c0,0,3.1-0.5,7.2-0.4C107.7,48,76.8-4,4.9,3.5
		C4.9,3.5,69.1,24,85.8,72.7z"/>
	<path fill="#4E4E50" d="M78.9,107.5c0,0,1-12.5,3.5-16.9c2.5-4.4-1.3-4.5-5.2-2c-3.9,2.5-14.5,14-11,20.9
		C69.8,116.4,76.7,111.1,78.9,107.5z"/>
	<path fill="#4E4E50" d="M171.7,92c0,0,5.5,4.9,3.5,14.4c-2,9.4-2.1,15.5-2.1,15.5s1.6,5.9,8.2,3.9c6.6-2,13.7-19.4,6.9-27.8
		C181.4,89.8,171.7,92,171.7,92z"/>
	<path fill="#EFF8FD" d="M123.9,96.8c0,10.8-8.8,19.6-19.6,19.6c-10.8,0-19.6-8.8-19.6-19.6c0-10.8,8.8-19.6,19.6-19.6
		C115.1,77.2,123.9,86,123.9,96.8z"/>
	<path fill="#D4E7F0" d="M108.8,77.8c5.6,3.2,9.5,9.3,9.5,16.2c0,10.3-8.3,18.6-18.6,18.6c-3.7,0-7.1-1.1-9.9-2.9
		c3.6,4.1,8.8,6.6,14.7,6.6c10.8,0,19.6-8.8,19.6-19.6C123.9,87.5,117.4,79.8,108.8,77.8z"/>
	<circle fill="#1A171B" cx="106.1" cy="102.6" r="4.3"/>
	<circle fill="#FFFFFF" cx="141.6" cy="95.8" r="25.3"/>
	<path fill="#EFF8FD" d="M142.3,70.6c10,2.4,17.4,11.4,17.4,22.1c0,12.6-10.2,22.7-22.7,22.7c-7.7,0-14.6-3.9-18.7-9.8
		c3.8,9.1,12.8,15.4,23.3,15.4c14,0,25.3-11.3,25.3-25.3C166.8,82.1,155.9,71,142.3,70.6z"/>
	<circle fill="#1A171B" cx="140.1" cy="102.9" r="7.5"/>
	<path fill="#7B7C7E" d="M142.4,207.1c-3.9,4.3-7.7,6.8-11.1,7.3c-5.5,0.8-11.9-1.6-17.4-5.8c-2.1,4.6-3.6,15.4,0.9,25.6
		c5.8,13.3,17.5,9.7,10.8,22.7c0,0,11.7,3.1,16.8-8.3C147.4,237.5,133.8,226,142.4,207.1z"/>
	<path fill="#434345" d="M117.3,185.4c0,0-3.5-1.8-1.8-2.9c1.7-1.1,3.9,2.5,14.2,1.2c0,0,3.6-0.2,6.7-2.5c3.1-2.3,0.4,1.3-1.5,2.4
		C132.9,184.7,126.2,188.4,117.3,185.4z"/>
	<path fill="#666769" d="M142.4,207.1c-3.9,4.3-7.7,6.8-11.1,7.3c-5.5,0.8-11.9-1.6-17.4-5.8c-0.5,1.1-0.9,2.4-1.3,4.1
		c1.6-0.8,4.6-1.2,6.3,4.2c2.4,7.7-1.2,15.4,5.5,24.3c0,0-4.3-19.1,0.2-21.1c4.5-2,1.2,7.1,4.3,16c3,8.9,3.4,12.4,3,13.6
		c0,0,2.8-4.9,1.4-10.3c-1.4-5.5-3.6-13.6-0.6-14.4c3-0.8,4.9,5.1,6.5,13.2c1.6,8.1-0.1,17.7-13.6,18.8c0,0,11.7,3.1,16.8-8.3
		C147.4,237.5,133.8,226,142.4,207.1z"/>
	<path fill="#969799" d="M78.5,77.1c0,0-9.9,0.1-15.4,9.3c-5.5,9.1,1.9,9.5,5,5c4.2-5.9,5.5-7.8,11.9-8.2
		C86.4,82.7,83.2,76.9,78.5,77.1z"/>
	<path fill="#969799" d="M124.7,64.3c0,0-13.1-4.3-23.5,0.7c-10.4,4.9-14,9.5-13.6,12.8c0.4,3.3,13.1-5.8,21.3-3
		c8.2,2.8,11.3,1.1,17.6-2.6c6.3-3.7,10.6-7.4,18.7-6.3c8.1,1.1,3.3-4.9-3.6-4.3c-6.9,0.7-11.8,3.7-12.8,4.5
		C126.7,65.2,124.7,64.3,124.7,64.3z"/>
	<path fill="#666769" d="M113.1,179.8c0,0,0.2,0.2,0.6,0.4c2.8,1.1,5.6,3,13.4,2.8c6.5-0.2,9.4-3.7,11.6-4.7
		c-0.4-3.4-4.4-38,4.2-53.5c-9.1,0-17.2-4.5-22.1-11.4c-3.7,4.1-9.1,6.7-15.1,6.7c-1,0-2-0.1-3-0.2
		C104.5,125.6,114.5,161.9,113.1,179.8z"/>
	<path fill="#3E3D40" d="M153.1,53.8c0,0-2.1,4.3,3.6,6.3c5,1.7,8.3-0.8,11.7-3.7c3.5-2.9,18.6-29.8,42.7-42
		c15.2-7.7,23.6-8.3,20.1-8.9c-3.5-0.6-32.1,3.8-50,17.8C163.4,37.3,156.3,47.1,153.1,53.8z"/>
	<path fill="#3E3D40" d="M82.6,60.6c0,0,2.1,4.6,6.1,4.3c4-0.3,8.2-6.4,0.9-15.8c-7.3-9.4-28-27.4-58.7-36.2
		C30.9,12.9,67.7,31.2,82.6,60.6z"/>
</g>
</svg>
