<?xml version="1.0" encoding="utf-8"?>
<!-- Generator: Adobe Illustrator 17.1.0, SVG Export Plug-In . SVG Version: 6.00 Build 0)  -->
<!DOCTYPE svg PUBLIC "-//W3C//DTD SVG 1.1//EN" "http://www.w3.org/Graphics/SVG/1.1/DTD/svg11.dtd">
<svg version="1.1" id="Layer_1" xmlns="http://www.w3.org/2000/svg" xmlns:xlink="http://www.w3.org/1999/xlink" x="0px" y="0px"
	 width="260px" height="260px" viewBox="0 0 260 260" enable-background="new 0 0 260 260" xml:space="preserve">
<g>
	<path fill="#F7F1C1" d="M189.9,150.9c-4.3-16.2-12.1-26.7-18.8-33.1c-0.7,0.8-1.7,1.6-3,2.3c-9.2,4.9-13.5-0.6-13.5-0.6
		s-0.6,8.6-10.4,11.1c-9.8,2.5-13.5-2.5-13.5-2.5s-1.8,9.8-11.1,11.7c-9.2,1.8-13.5-7.4-13.5-7.4s-4.3,14.1-13.5,11.7
		c-9.2-2.5-3.7-14.7-3.7-14.7s-11.4-0.5-15.2-7.8c-7.9,5.7-21.5,16.4-24.5,25.7c-4.2,13.3,4.2,24.3,12.1,26.7
		c7.9,2.4,15.2-12.7,15.2-12.7l1.8,8.5c0,0-6.1,4.2-5.5,14.6c0.6,10.3,9.1,7.9,9.1,7.9c7.3,15.8,32.4,38.2,45.1,41.9
		c12.7,3.6,11.8-1.9,11.8-1.9s2.3,2.4,24.5,5c25.6,2.9,32.7-18,32.7-18S198.4,183.1,189.9,150.9z"/>
	<path fill="#E7E0A5" d="M171.1,117.8c-0.7,0.8-1.7,1.6-3,2.3c-9.2,4.9-13.5-0.6-13.5-0.6s-0.6,8.6-10.4,11.1
		c-9.8,2.5-13.5-2.5-13.5-2.5s-1.8,9.8-11.1,11.7c-9.2,1.8-13.5-7.4-13.5-7.4s-4.3,14.1-13.5,11.7c-9.2-2.5-3.7-14.7-3.7-14.7
		s-11.4-0.5-15.2-7.8c-1.4,1-2.9,2.1-4.5,3.4c0.2,0.3,0.6,0.5,1.1,0.6c4.4,0.7,4.8,13.2,6.6,19.1c1.8,5.9,7,9.2,15.4,9.2
		c8.5,0,14.7-7,14.7-7s-0.4,4,4.8,7.4c5.1,3.3,20.6-10.7,20.6-10.7s10.3,5.5,18.8,0.7c8.5-4.8,10.7-15.1,10.7-15.1s3.3,2.6,9.2-4.4
		c1.3-1.5,1.9-3.2,2.1-4.9C172.4,119.1,171.7,118.5,171.1,117.8z"/>
	<path fill="#FBF7DE" d="M186.9,146.1c0,0,8.5,46.8,3.4,56.4c-5.1,9.6-14.1,7.3-20.3,11.8c-6.2,4.5-28.2-4.5-37.8-13.5
		c-9.6-9,1.1-28.8,8.5-32.7C148,164.1,166,104.4,186.9,146.1z"/>
	<path fill="#E7E7E8" d="M116.5,81.4c0,0,0-11.7,11.7-13.5c11.7-1.8,12.9,9.8,12.9,9.8s2.5-11.7,13.5-9.2
		c11.1,2.5,8.6,12.3,8.6,12.3s15.4-0.1,15.4,11.7c0,6.8-8,12.9-8,12.9s6.8,9.8-2.5,14.7c-9.2,4.9-13.5-0.6-13.5-0.6
		s-0.6,8.6-10.4,11.1c-9.8,2.5-13.5-2.5-13.5-2.5s-1.8,9.8-11.1,11.7c-9.2,1.8-13.5-7.4-13.5-7.4s-4.3,14.1-13.5,11.7
		c-9.2-2.5-3.7-14.7-3.7-14.7s-13.5-0.6-16-9.8c-2.5-9.2,10.4-14.7,10.4-14.7s-8-4.3-4.3-14.1c3.7-9.8,17.8-1.8,17.8-1.8
		s-4.9-10.4,3.7-14.7C109.1,69.8,116.5,81.4,116.5,81.4z"/>
	<path fill="#9A7000" d="M215.9,43.3c-29.6-2.3-48,17.6-55.5,28c4.3,3.8,2.8,9.5,2.8,9.5s13.7-0.1,15.2,9.9
		c15-20.4,31.5-25.3,38.7-25.3c8.2,0,18.3,10.1,13.3,26.6c-5.1,16.4-18.3,13.9-18.3,13.9c-5.1-8.2-3.2-20.9-3.2-20.9
		s-10.1,6.3-10.8,15.8c-0.6,9.5,17.1,34.1,43,12.6C267.1,92,255.7,46.4,215.9,43.3z"/>
	<path fill="#9A7000" d="M56.5,67.3c8.6,2.7,17.6,17.2,22,25.2c0.1-0.6,0.3-1.2,0.6-1.8c3.6-9.6,17.1-2.3,17.8-1.9l0,0
		c-0.3-0.6-4.6-10.5,3.7-14.7c1.7-0.8,3.3-1.1,4.8-0.9c-6.5-13.3-22-37-49.4-35.6C17.9,39.5-4.9,79.3,9.1,104
		c13.9,24.7,35.4,30.4,50,17.7c14.5-12.6-7-28.5-7-28.5s3.8,14.5-1.9,19.6c0,0-22.1,3.8-24.7-20.2C23,68.6,44.5,63.5,56.5,67.3z"/>
	<path fill="#F7F1C1" d="M200.6,125.8c-2.8-8.8-19.7-17.6-28.5-21.7c-0.9,0.8-1.5,1.3-1.5,1.3s5,7.3,0.5,12.4l0,0
		c4.5,4.4,9.6,10.6,13.7,19.2C191.2,136.6,203.4,134.7,200.6,125.8z"/>
	<path fill="#6A3A09" d="M51.8,110.7c-0.4,0.8-1,1.6-1.6,2.2c0,0-22.1,3.8-24.7-20.2C23,69,43.7,63.7,55.8,67.1
		c-3.2-1.6-7.6-2.8-13.8-2.8c-20.9,0-35,15.8-31.6,32.1c3.4,16.4,20.3,29.9,30.4,28.2C46.8,123.7,50.4,116.9,51.8,110.7z"/>
	<path fill="#6A3A09" d="M244.4,66.6c-8.4-7.5-23.5-5.7-34.7,0.1c3-0.9,5.6-1.2,7.5-1.2c8.2,0,18.3,10.1,13.3,26.6
		c-5.1,16.4-18.3,13.9-18.3,13.9c5.3,10.9,17.1,12,27.2,3.6C249.5,101,255.7,76.7,244.4,66.6z"/>
	<path fill="#F3A69E" d="M88.8,129.4c0,0-4.8-0.2-9.2-2.4c-6.9,5.8-18.2,16.8-20.2,28.3c-3,16.8,9.2,17.5,15.8,4.4
		C75.2,159.7,79.8,137,88.8,129.4z"/>
	<path fill="#DC9790" d="M195.2,131.5c1.4-3.1-10-8.6-19.7-9c3,3.5,6,7.9,8.6,13.1C186.1,135.5,193.9,134.6,195.2,131.5z"/>
	<path fill="#FBFBFB" d="M140.4,82.5c0,0-2.8-13.2-10.7-11.9c-8,1.2-11.3,13.8-11,14.7c0.3,0.9-8.6-6.1-14.1,1.5
		c-5.5,7.6,0.9,11.9,0.9,11.9s-13.2,7.3-9.5,16.5c3.3,8.3,17.1,3.4,17.1,3.4s2.8,10.7,9.8,8.9c7-1.8,7-8.6,7-8.6s1.5,8.9,11,6.1
		c9.5-2.8,8.3-11.9,8.3-11.9s7,3.4,11.9-1.2c4.9-4.6-0.3-10.4-0.3-10.4s12.9-1.5,13.5-8c0.6-6.4-12.2-9.2-12.2-9.2s1.2-11-6.7-11.9
		C147.5,71.5,140.4,82.5,140.4,82.5z"/>
	<path fill="#DC9790" d="M88.8,129.4c0,0-4.8-0.2-9.2-2.4c-6.9,5.8-18.2,16.8-20.2,28.3c-1.1,6.2-0.1,10.3,1.9,12.2
		c0.9,0,1.6-0.6,1.6-1.5c0-2.9,4-17.6,9.6-22.8c5.3-5,6.2,3.4,6.2,4C81,140.6,84.4,133.1,88.8,129.4z"/>
	<path fill="#E7E0A5" d="M172.1,104.1c-0.9,0.8-1.5,1.3-1.5,1.3s5,7.3,0.5,12.4l0,0c0.6,0.6,1.2,1.2,1.9,1.9
		c1.3-5.5,10.3-7.9,12.7-8.4C180.8,108.3,175.8,105.7,172.1,104.1z"/>
	<path fill="#FBF7DE" d="M101.6,172.6c0,0-9-7.9-17.1-4.3c-8.1,3.6-4.5,6.7,1.1,6.5c5.6-0.2,12.6,0.2,14.6,3.6
		C102.3,181.9,106.6,177.1,101.6,172.6z"/>
	<g>
		<path fill="#E7E0A5" d="M180.9,154.2c0,10.4-8.4,18.9-18.9,18.9c-10.4,0-18.9-8.4-18.9-18.9c0-10.4,8.4-18.9,18.9-18.9
			C172.5,135.3,180.9,143.7,180.9,154.2z"/>
		<circle fill="#E7E0A5" cx="130.7" cy="165.8" r="25.1"/>
		<circle fill="#ECF4F8" cx="163.8" cy="150.3" r="18.9"/>
		<path fill="#FFFFFF" d="M177.2,136.6c-0.1-0.1-0.2-0.2-0.4-0.3c-0.2-0.2-0.4-0.3-0.6-0.5c-1.2-1-2.6-1.8-4-2.5
			c-2.1-0.9-4.5-1.5-7-1.5c-9.3,0-16.9,7.2-16.9,16.2c0,8.9,7.5,16.2,16.9,16.2c9.3,0,16.9-7.2,16.9-16.2
			C182.1,143.5,180.2,139.5,177.2,136.6z"/>
		<circle fill="#ECF4F8" cx="133.5" cy="163.1" r="23.2"/>
		<path fill="#FFFFFF" d="M134.6,140c-11,0.6-19.8,9.7-19.8,20.8c0,11.5,9.4,20.9,20.9,20.9c11.2,0,20.3-8.8,20.8-19.8
			C156,150.1,146.5,140.5,134.6,140z"/>
		<circle fill="#6A3A09" cx="142.6" cy="164.3" r="5.1"/>
	</g>
	<circle fill="#6A3A09" cx="166.5" cy="156.1" r="3.9"/>
	<path fill="#F0EABB" d="M175.4,216.4c0,0-3.6,7.9-16.8,9.4c-11.3,1.3-38.9-11.7-47.2-21.8c-8.1-9.9-17.3-20.3-13.1-10.9
		c11.3,25.8,40.6,39.1,40.6,39.1s2.3,2.4,24.5,5c2.9,0.3,5.5,0.3,7.9,0.1c4-1.5,6.6-3.7,7.4-5.5C181,226.9,182.5,216.7,175.4,216.4z
		"/>
	<path fill="#F3A69E" d="M161.6,241.1c0,0-8.8-13.3,11.3-24.1c13.4-7.2,24-3,27.7,6.1c0,0-9.6,3-6.5,10.3c-1,1.4-7.3,7.9-16.4,9.1
		C177.7,242.5,170.7,235,161.6,241.1z"/>
	<path fill="#FBDBD5" d="M171.9,221c0,0,3.5-3.8,9.2-5.2c5.7-1.4,11.4-1.6,12.4,0.4c1,2-3.9,3.9-10.6,6
		C176.1,224.2,170,224.1,171.9,221z"/>
	<path fill="#DC9790" d="M200.6,223.1c-0.7-1.8-1.7-3.3-2.9-4.7c0.2,4.4-5.6,9.7-14,11.8c-9,2.3-16.2,0.8-16.9-5.3
		c-0.2-1.8,0.4-3.5,1.5-5.1c-13.9,10.2-6.6,21.2-6.6,21.2c9-6.1,16.1,1.4,16.1,1.4c9.1-1.2,15.4-7.7,16.4-9.1
		C190.9,226.1,200.6,223.1,200.6,223.1z"/>
	<path fill="#DC9790" d="M138.9,232.2c0,0-34.2-16.4-45.7-47.7c0,0,1.7-1.9,4.7,0.1c0,0-2.1-5.3-7.5-2.9c-5.4,2.4-2.9,7-2.9,7
		s1-3,3.4-3C90.9,185.6,98.9,216.2,138.9,232.2z"/>
	<path fill="#B99749" d="M250.8,65.6c-5.9-11.8-17.8-21-34.9-22.4c-29.3-2.3-47.7,17.2-55.3,27.7l0.1,0.6c3.8,3.8,2.5,9.2,2.5,9.2
		s7.2,0,11.7,3.7c5.9-8,13.6-19,31.7-26.2C224.9,51.1,243.2,55.2,250.8,65.6z"/>
	<path fill="#B99749" d="M100.5,74.1c1.7-0.8,3.3-1.1,4.8-0.9c-6.5-13.3-22-37-49.4-35.6C28.5,38.9,9,60.1,5.5,81
		c6.6-16.7,25.2-28.9,47.8-25.2c18.6,3,29.3,22.9,32.3,30c5-0.4,10.8,2.7,11.2,3l0,0C96.5,88.2,92.2,78.2,100.5,74.1z"/>
</g>
</svg>
