<?xml version="1.0" encoding="utf-8"?><svg xmlns="http://www.w3.org/2000/svg" width="260" height="260" viewBox="0 0 260 260"><path fill="#F1989A" d="M8.9 171.6L65 58.6c14.4-3.8 82.3 17.7 87.9 29.4l-23.3 124s-5.4 20.3-67.9 3.3c-.1 0-.2-.1-.3-.1-.1 0-.2-.1-.3-.1C1 191 8.9 171.6 8.9 171.6zm145.2-81c1.4-.7 2-2.3 1.3-3.7-2-3.8-6.5-6.7-12.6-10-6.1-3.2-13.9-6.5-22.3-9.5-16.8-6-35.6-10.9-47.5-11.9-3.5-.3-6.3-.2-8.7.4-1.5.4-2.4 1.9-2 3.4.4 1.5 1.9 2.4 3.4 2 1.2-.4 3.7-.5 6.9-.2 16.4 1.2 50.3 11.6 67.6 20.7 5.8 2.9 9.7 6.2 10.2 7.4.4.9 1.3 1.5 2.3 1.6.4.1.9 0 1.4-.2z"/><path fill="#EBF6FC" d="M135.8 144.5c-2.5 7.5 1.5 15.6 9 18.1 7.5 2.5 15.6-1.5 18.1-9 2.5-7.5-1.5-15.6-9-18.1-7.5-2.5-15.6 1.5-18.1 9z"/><path fill="#F1989A" d="M130.4 196.4s31.3-45.8 57.4-52c0 0 7 .3 10.7 6.5 3.7 6.2 5.7-7.2 2.1-16.3-3.6-9.1-15.2-18-19.8-16.6-4.6 1.4 7 7.7-2.3 15.4-9.2 7.7-28.2 15.5-44.3 31.3-15.9 15.8-3.8 31.7-3.8 31.7z"/><path fill="#DF8286" d="M100.1 145.9c-3.5 10.4 2.1 21.7 12.5 25.2s21.7-2.1 25.2-12.5-2.1-21.7-12.5-25.2c-10.5-3.5-21.7 2.1-25.2 12.5z"/><path fill="#fff" d="M106.2 144.1c-3.2 9.7 2 20.2 11.7 23.4 9.7 3.2 20.2-2 23.4-11.7 3.2-9.7-2-20.2-11.7-23.4-9.7-3.2-20.2 2-23.4 11.7z"/><path fill="#EFF8FD" d="M106.2 144.1c3.2-9.7 13.7-14.9 23.4-11.7.3.1.6.2.8.3-8.5-2.4-17.4 2.3-20.3 10.8-2.9 8.7 1.8 18.2 10.5 21.1 8.5 2.8 17.6-1.5 20.8-9.7-.1.3-.2.6-.2.9-3.2 9.7-13.7 14.9-23.4 11.7-9.7-3.2-14.9-13.7-11.6-23.4z"/><path fill="#1A171B" d="M143.8 145.7c-.6 1.8.4 3.7 2.1 4.3 1.8.6 3.7-.4 4.3-2.1.6-1.8-.4-3.7-2.1-4.3-1.8-.6-3.7.3-4.3 2.1zm-27.3 2.6c-.8 2.5.5 5.2 3 6.1 2.5.8 5.2-.5 6.1-3 .8-2.5-.5-5.2-3-6.1-2.5-.8-5.2.5-6.1 3z"/><path fill="#F5B5B5" d="M201.4 141.5s-1-7.8-6.2-14c-5.2-6.3-12.1-9.6-13.4-8.4-1.2 1.2 4.3 1.6 9.6 8.4 5.3 6.8 7.6 11.4 8.7 17.8 1.1 6.5 1.5 1.3 1.3-3.8z"/><path fill="#DF8286" d="M136.7 179.1c7.2-10.4 40.3-33.6 45.6-37.6 3.9-3 2.5-6 1.6-7.5-1.6-1.4-4.1-1-2.3-2.7 3.5-3.2.5-9.1.5-9.1.2-1.9 8.2 6.4 12.2 13.2 4 6.8 5.8 15.6 4 13.4-1.8-2.3-7.3-5-7.3-5-2.5-1.2-5.9-2.3-23.4 10.8-17.9 13.3-34.9 36.8-34.9 36.8s-3.2-1.9 4-12.3z"/><path fill="#F5B5B5" d="M180.2 139.2s4.6-4.1 1.5-4.5c-3.1-.4-29.9 17.1-35.1 23-5.2 6 .7 4.1 10.8-2.7 10.1-6.8 22.8-15.8 22.8-15.8z"/><path fill="#DC6D7C" d="M132.7 193.2S97.4 208 67.4 171.3l-3.1 3.1s27.2 39 68.4 18.8zM75 170.9s-11.3-2.1-13.1 13.1c0 0-3.9-20.8 13.1-13.1z"/><path fill="#DF8286" d="M56.6 92.2C68 69.6 66.8 64.3 62.5 63.7l1.3-2.6c.6.3 1.3.4 2 .2 1.2-.4 3.7-.5 6.9-.2 16.4 1.2 50.3 11.6 67.6 20.7 1.9 1 3.7 2 5.1 3 1.7 1.4 3.4 2.9 5 4.5 0 0-40.8-20.6-49.1-7.1-8.3 13.5-29.7 74.3-29.7 74.3s-12.4-.5-16.3 15.7c-3.9 16.2-8 37.1 5.8 42.9-29.4-11.8-42.5-22.4-48.3-30.3 1.8-3.8 32.4-70.1 43.8-92.6z"/><path fill="#F5B5B5" d="M81.6 166.7s-4.1-7.5-10.6-7.8c-6.5-.3-11.1 6.5-6.6 6.9 4.5.4 7.8-2.3 11.9 3 4 5.2 7.1 2.6 5.3-2.1zm58.1-32.9s7.9-37 7.7-40.9c-.2-4-16.6-8.7-24.6-8.4-7.9.4-15.9 44.7-16.1 47.7-.2 2.9 6.9-5.7 18.6-3.8 11.7 1.9 14.4 5.4 14.4 5.4z"/><path fill="#F1989A" d="M114.6 68.3C108.2 62 100.3 57 91.2 53.9c-32.1-10.7-66.9 6.6-77.6 38.7-6.3 18.9-2.9 38.9 7.6 54.2l-3.5 6.9C4.3 136.3-.4 112.8 7.1 90.4c12-35.7 50.6-55 86.3-43 14.4 4.8 26.2 14 34.2 25.6-4.1-1.6-8.5-3.2-13-4.7zm-96.9 85.4l2.4-4.7c-11.6-17-15.4-39.1-8.4-60.1 6.7-20.1 21.9-35 40.3-42C31.6 53 14.4 68.7 7.1 90.4c-7.5 22.4-2.8 45.9 10.6 63.3z"/><path fill="#DF8286" d="M7.1 90.4c5.7-17 17.4-30.2 32-38.2C35.9 54.7 29 58.3 21.5 68 12.9 79.2 6.8 93.7 6.2 109.3c-.6 15.6 6.4 31.8 9.6 35.8 2.4 3 4.1 1.6 4.7.8.2.3.4.6.6.9l-3.5 6.9C4.3 136.3-.4 112.8 7.1 90.4z"/><path fill="#F5B5B5" d="M117.4 62.3s1.8 1.9.1 2.2c-1.8.4-14.5-16.2-40.5-19.7 0 0 21.3 0 40.4 17.5z"/><path fill="#67C7EE" d="M204.5 139.7s17.9-5 24.3 18.5c6.4 23.5-24 52.9-12.4 58.9 11.5 6 22.5-22.2 20.8-48.1-1.6-26-24.3-36.5-32.7-29.3zm-2.4-9.9s18.5-7.3 27.9 7.7c9.4 15 14.8 33.9 9.3 57.8-5.6 24 9.7 11.4 12.4-17.4 2.8-28.8-15.5-65.7-49.6-48.1zm-8.4-9.9s18.8-16.5 36.8-11.4c18 5.1 29.3 25.3 25.1 31.9-4.2 6.6-10.7-21.6-30.2-25.4-19.5-3.8-31.7 4.9-31.7 4.9z"/></svg>