<?xml version="1.0" encoding="utf-8"?><svg xmlns="http://www.w3.org/2000/svg" width="260" height="260" viewBox="0 0 260 260"><path fill="#FBDC9A" d="M102.7 222.5s-.8 15.6 7.8 18.7c8.6 3.1 34.3 4.2 38.1-2.9 3.9-7 3.9-14.3 3.9-14.3l-49.8-1.5z"/><path fill="#F8C550" d="M167.1 216.7c2.4-3.1 5.3-7.4 8.6-13.5 12.1-22.3-4.4-79.7-3.3-91.7 1.1-12 12-9.8 18.6-16.4 6.5-6.5-10.4-18.6-19.6-12.5-9.3 6-3.8 12.5-9.3 13.1-5.1.5-12-5.6-13-6.4 1 .9 7.9 7.6-1.8 8.6C137 99 131 88 131 88s5.5 12.5-3.3 12.5c-8.7 0-8.7-7.1-8.7-7.1s-1.1 7.6-10.9 7.1-4.9-8.2-4.9-8.2c-2-4.5-13.5-10.4-24.4-3.5-10.9 6.9-4.5 22.4 3.1 20.9s8.7 1.6 8.7 1.6 0 0 4 15.1 1.8 40-2.9 58.9 1.4 25.8 1.4 25.8 4.4 12.3 16.6 15.4c9.4 2.4 16-.9 16-.9s2.7 2.6 13.7 2.2c11.1-.4 12.3-1.3 17.8-3.4 2.4-.7 6.2-3.8 9.9-7.7z"/><path fill="#F3AB4D" d="M187.8 90.6c-8-5.5-10.2-2.2-15.3 2.9-5.1 5.1-6.5 29.1-10.5 18.9-4-10.2-12.4-6.9-13.8-7.6-1.5-.7-4 4.4-10.2 4.4-6.2 0-20.7-4-20.7-4s-5.1 3.6-13.8-.7c-5.8-2.9-3.3-9.2-.9-13.2-.2-.2-.3-.4-.5-.6-22 25.3 41.1 46.9 41.1 46.9s17.8-4.7 22.9 19.3c5.1 24-5.1 31.3-5.1 31.3l14.9 3.6s2.2-1.4 4.1-4.8c2.2-26.5-8.3-65.7-7.4-75.3 1-11.5 11.1-10 17.7-15.6.3-2.1-.3-4-2.5-5.5z"/><path fill="#FBDC9A" d="M180.2 182.1c-.1-.2-.1-.4-.2-.6-5.6-17.8-28.1 7.3-28.1 7.3-7.3 8.4-37.8 11.3-42 9.8-6.4-2.1-5.6-11.7-13.4-14.5-1.9-.7-3.6.3-5 2.3-4.3 18.3 1.6 25 1.6 25s4.4 12.3 16.6 15.4c9.4 2.4 16-.9 16-.9s2.7 2.6 13.7 2.2c10.1-.3 12-1.1 16.5-2.9 1.8-.9 3.6-1.9 5.3-3 1.8-1.4 3.9-3.3 5.9-5.5 2.4-3.1 5.3-7.4 8.6-13.5 3-5.4 4.2-12.8 4.5-21.1z"/><path fill="#E7CA8F" d="M180.2 182.1c-.1-.2-.1-.4-.2-.6-2.3-7.3-7.4-7.4-12.7-5-.3.4-.5.7-.5.7s.3 30.7-18.8 40.8c-19.1 10.1-23.5 3.3-23.5 3.3s-15.5 6.9-28.6-4.8c0 0-.1-.1-.1-.1 2.5 3.8 6.9 8.5 13.9 10.3 9.4 2.4 16-.9 16-.9s2.7 2.6 13.7 2.2c10.1-.3 12-1.1 16.5-2.9 1.8-.9 3.6-1.9 5.3-3 1.8-1.4 3.9-3.3 5.9-5.5 2.4-3.1 5.3-7.4 8.6-13.5 3-5.3 4.2-12.7 4.5-21z"/><path fill="#F2D495" d="M139.4 228.1c-11.1.4-13.7-2.2-13.7-2.2s-6.6 3.3-16 .9c-2.7-.7-5-1.8-7-3.2 0 3.5.6 15 7.8 17.6 8.6 3.1 34.3 4.2 38.1-2.9 2.5-4.5 3.4-9.1 3.7-11.8-2.7.9-5.7 1.3-12.9 1.6z"/><path fill="#F09C2C" d="M143.8 133.5s-.7 23.3 6.5 53.1c0 0-30.4-11.5-50.1 1.5 0 0 17.3-28.4 11.9-47.7-5.4-19.3 21.5-19.3 31.7-6.9zm20.1-9.2c-2.7 9.2-12.3 14.5-21.5 11.9-9.2-2.7-14.5-12.3-11.9-21.5 2.7-9.2 12.3-14.5 21.5-11.9 9.3 2.7 14.6 12.3 11.9 21.5zm-24 4.3c-3.3 11.4-15.2 18-26.7 14.7-11.4-3.3-18-15.2-14.7-26.7 3.3-11.4 15.2-18 26.7-14.7 11.4 3.3 18 15.3 14.7 26.7z"/><path fill="#ECF4F8" d="M130.1 122.5c2.5 8.6 11.5 13.6 20.1 11.1 8.6-2.5 13.6-11.5 11.1-20.1-2.5-8.6-11.5-13.6-20.1-11.1-8.6 2.5-13.6 11.5-11.1 20.1z"/><path fill="#fff" d="M131.3 109.9c.1-.1.1-.3.2-.4.1-.2.2-.4.3-.5.8-1.1 1.7-2.1 2.7-3 1.5-1.3 3.4-2.3 5.4-2.9 7.7-2.2 15.6 2 17.8 9.3 2.1 7.4-2.4 15.1-10.1 17.4-7.7 2.2-15.6-2-17.8-9.3-.8-3.8-.3-7.5 1.5-10.6z"/><path fill="#ECF4F8" d="M98.5 126.8c3 10.6 14.1 16.6 24.6 13.6 10.6-3 16.6-14.1 13.6-24.6-3-10.6-14.1-16.6-24.6-13.6-10.5 3-16.6 14.1-13.6 24.6z"/><path fill="#fff" d="M111.2 102.5c9.2-2.1 18.6 3.3 21.3 12.5 2.7 9.5-2.7 19.5-12.3 22.2-9.2 2.7-18.8-2.4-21.9-11.4-2.4-9.9 3.2-20 12.9-23.3z"/><path fill="#6A3A09" d="M126.8 129.4c-.9 3.2-4.2 5-7.4 4.1-3.2-.9-5-4.2-4.1-7.4.9-3.2 4.2-5 7.4-4.1 3.2.9 5 4.3 4.1 7.4zm24.7-3.4c-.7 2.3-3 3.6-5.3 2.9-2.3-.7-3.6-3-2.9-5.3.6-2.3 3-3.6 5.3-2.9 2.3.7 3.6 3.1 2.9 5.3z"/><path fill="#EC7007" d="M103.2 92.4s-4.9 7.6 4.9 8.2c9.8.5 10.9-7.1 10.9-7.1s0 7.1 8.7 7.1 3.3-12.5 3.3-12.5 6 10.9 16.4 9.8c10.4-1.1 1.6-8.7 1.6-8.7s7.6 7.1 13.1 6.5c5.5-.5 0-7.1 9.3-13.1s26.2 6 19.6 12.5c-6.5 6.5-17.5 4.4-18.6 16.4-1.1 12 15.1 69.2 3.3 91.7-8 15.2-16.2 20.5-18.6 21.5 0 0 2.3 11.4 11 9.8 8.7-1.6 3.4-10.4 3.4-10.4s8.2 10.1 14.2 7c5.9-3.2-.6-9.9-.6-9.9s9.4 9.4 14 6.1c4.5-3.3-1-9.8-1-9.8s14 9.6 19.7 3.2c5.7-6.4-6.1-15.6-6.1-15.6s11.4 6.3 16.1 1.7c4.7-4.7-10.5-22.5-10.5-22.5s15.6 3.5 20-2.3c4.3-5.8-14.4-21.4-14.4-21.4s18.5 2.4 22.4-6.9c3.9-9.3-17.3-23.4-17.3-23.4s14.1-.1 14.7-8.4c.6-8.2-18.4-11-18.4-11s10.8-3.5 10.4-8.9c-.4-5.4-12.8-8.3-12.8-8.3s14.2-4.9 10.9-14.6c-3.3-9.7-20.7-8.2-20.7-8.2s15.4-5.7 12.7-11.4c-2.7-5.7-30.7-4.2-30.7-4.2s11.8-17.3 5.3-21.7c-6.6-4.3-26 5.9-26 5.9s19.1-23.8 2.4-20.7c-16.7 3.1-24.6 18.9-24.6 18.9s3.1-20-4.8-19.2c-7.8.7-9.8 24.3-9.8 24.3s1.2-19.6-3.7-20c-4.9-.4-6.3 13-6.3 13s-3.4-22-13.1-19-2.9 20.5-2.9 20.5-13.3-17.8-19.4-14.6c-6 3.3-.1 21-.1 21s-24.2-7.4-26.5-1.5c-2.3 5.9 9 12.4 9 12.4S51.5 49 48.8 58.7C46 68.5 56.4 71 56.4 71s-18.6-2-19.8 1.5C35.4 76 50.8 90 50.8 90S25.7 86.1 24 95.8c-1.7 9.7 18.6 15.4 18.6 15.4s-21-1.5-22 6.2 14.6 13.3 14.6 13.3-23 6.7-20.8 13.7c2.2 7.1 23.4 4.5 23.4 4.5s-17.4 9.4-12.7 16.9c4.8 7.5 20.1 3.8 20.1 3.8s-17.9 13.5-12.8 21c5.1 7.5 20.3-.4 20.3-.4s-13.4 10.7-8.6 15c4.9 4.3 14.9-4.9 14.9-4.9s-11.8 20.4-4.5 22.9c7.3 2.5 20.8-14.8 20.8-14.8s-8.1 17.3-.2 19.8c7.9 2.4 18.1-17.1 18.1-17.1s-6.1-6.9-1.4-25.8c4.7-18.9 6.9-43.8 2.9-58.9-4-15.1-4-15.1-4-15.1s-1.1-3.1-8.7-1.6-14-14-3.1-20.9c10.9-6.8 22.3-.9 24.3 3.6z"/><path fill="#1A171B" d="M104.1 199s-7.8-5.8-3.9-10.8c3.9-5.1 20.5-8.8 37.8-6.9 17.3 1.8 15.9 10.8 9.7 16.6 0 0-2.5-3.7-6.7-1.8-4.2 1.8-.5 6.7-.5 6.7s-13.1 10.1-15.7 11.1c0 0-2.5 10.1 5.5 12.9 8.1 2.8 18.7.2 18.7.2s-14.5 3.7-23.5 0c0 0-9.5 2.8-16.8-.5 0 0 7.8 2.5 14.1-1.6 0 0-1.6-5.3-1.4-11.3l-11.8-9s2.8-2.5.2-5.1c-2.4-2.6-5.7-.5-5.7-.5z"/><path fill="#5A5B5D" d="M118.8 183.8s17-2.2 25.6.9c8.5 3.1-9.4 4-19.3 4.5-9.9.4-13.9-4.1-6.3-5.4z"/><path fill="#D98E2A" d="M169.6 99.5s3.2-13.6 12.1-11.2c8.9 2.2-12.4 20.7-12.1 11.2zm-75.9.8S80.4 92.5 77.3 98c-3.2 5.5 2.9 6.1 7.5 6.1s12.1.8 8.9-3.8z"/><path fill="#DE5726" d="M227.9 130.3s14.1-.1 14.7-8.4c.6-8.2-18.4-11-18.4-11s10.8-3.5 10.4-8.9c-.4-5.4-12.8-8.3-12.8-8.3s14.2-4.9 10.9-14.6c-3.3-9.7-20.7-8.2-20.7-8.2s15.4-5.7 12.7-11.4c-2.7-5.7-30.7-4.2-30.7-4.2s11.8-17.3 5.3-21.7c-6-4-22.8 4.3-25.6 5.7l-2.3 2.8s15.6-.3 14.6 10.5-19.4 10.8-19.4 10.8 15.9 7.3 8.6 11.1c-7.3 3.8-27.4-7-27.4-7s9.2 11.5 1.3 13.4c-8 1.9-17.2-11.5-17.2-11.5s8 15.3-4.5 15.3c-8 0-9.6-5.1-9.6-5.1s.3 7.6-6.4 7.6-10.2-6.7-10.2-6.7 1.9 6.4-6.4 4.5c-8.3-1.9-16.6-1-16.6-1s4.5 1.6-1.6 6c-4 2.9-7.5 1.2-9.5-.4 2.2 2.3 5.7 6.5 2.5 8.3-4.5 2.5-8 2.2-8 2.2s18.2 6 11.5 11.8c-6.7 5.7-5.1 5.4-5.1 5.4S87.6 120 85.7 128c-1.8 7.4-13.2 2.1-14.8 1.4 2 1 19.9 10.1 15.1 15.2-5.1 5.4-11.8 2.9-11.8 2.9s14 7 10.8 16.9c-3 9.2-9.6 7.9-10.4 7.7.9.3 12.3 3.4 10.7 9.5-1.6 6.4-4.5 7.6-4.5 7.6s5.7-.5 9.4 3.3c.3-2.1.7-4.4 1.3-6.9 4.7-18.9 6.9-43.8 2.9-58.9-4-15.1-4-15.1-4-15.1s-1.1-3.1-8.7-1.6-14-14-3.1-20.9C89.5 82.2 101 88 103 92.6c0 0-4.9 7.6 4.9 8.2 9.8.5 10.9-7.1 10.9-7.1s0 7.1 8.7 7.1 3.3-12.5 3.3-12.5 6 10.9 16.4 9.8c9.7-1 2.7-7.7 1.7-8.6.9.8 7.9 7 13 6.4 5.5-.5 0-7.1 9.3-13.1s26.2 6 19.6 12.5c-6.5 6.5-17.5 4.4-18.6 16.4-1.1 12 15.1 69.2 3.3 91.7-8 15.2-16.2 20.5-18.6 21.5 0 0 2.3 11.4 11 9.8 8.7-1.6 3.4-10.4 3.4-10.4s8.2 10.1 14.2 7c5.9-3.2-.6-9.9-.6-9.9s9.4 9.4 14 6.1c4.5-3.3-1-9.8-1-9.8s14 9.6 19.7 3.2c5.7-6.4-6.1-15.6-6.1-15.6s11.4 6.3 16.1 1.7c4.7-4.7-10.5-22.5-10.5-22.5s15.6 3.5 20-2.3c4.3-5.8-14.4-21.4-14.4-21.4s18.5 2.4 22.4-6.9c4.1-9.6-17.2-23.6-17.2-23.6zM67.3 89.7c-.9-.9-1.6-1.5-1.6-1.5s.6.7 1.6 1.5z"/><path fill="#FBDA95" d="M98.2 90.6s-6.4-4.8-13.3-2.5-1.4 3.2 4.3 6c5.6 2.8 13.6.2 9-3.5zm71.4-5.5s-4.6 4.3-2.8 6.6c1.8 2.3 5.3-6.2 10.1-6.2s7.4-1.4 3.4-3c-4.1-1.7-8.4.8-10.7 2.6z"/><path fill="#F3A949" d="M114.7 144.8s-.5 20.2-7.1 31.1c-6.5 10.9 8.7 2.7 15.8 2.7 7.1 0 14.2.5 11.5-10.9-2.7-11.5-4.4-25.6-4.4-25.6s-3.8 2.7-15.8 2.7z"/><path fill="#E7CA8F" d="M139.4 228.1c-11.1.4-13.7-2.2-13.7-2.2s-6.6 3.3-16 .9c-2.7-.7-5-1.8-7-3.2 0 .5 0 1 0 1.7 1.8 2.1 8.3 8 21.2 6.8 15.5-1.5 18.2 6.9 13.1 10.7-.2.1-.3.3-.5.4 5.8-.6 10.6-2.1 12.1-4.9 2.5-4.5 3.4-9.1 3.7-11.8-2.7.9-5.7 1.3-12.9 1.6z"/><path fill="#D3BA84" d="M139.4 228.1c-11.1.4-13.7-2.2-13.7-2.2s-6.6 3.3-16 .9c-2.7-.7-5-1.8-7-3.2 0 .3 0 .7 0 1.2 1.7 1.7 5.2 4.3 11.3 5 9.7 1.2 13.3-.3 13.3-.3s12.5.3 14.8 4c2.2 3.7.2 6.9-.3 7.5-.6.6 3.7-.1 5.8-4.6 1.7-3.6 2.2-7.7 2.3-9.2-2.3.4-5.3.7-10.5.9zM99 208.2c0 .7-.6 1.3-1.3 1.3-.7 0-1.3-.6-1.3-1.3 0-.7.6-1.3 1.3-1.3.8.1 1.3.6 1.3 1.3zm8.6 1c0 .7-.6 1.3-1.3 1.3-.7 0-1.3-.6-1.3-1.3 0-.7.6-1.3 1.3-1.3.7 0 1.3.5 1.3 1.3zm-4.7-7.3c0 .7-.6 1.3-1.3 1.3-.7 0-1.3-.6-1.3-1.3 0-.7.6-1.3 1.3-1.3.7 0 1.3.6 1.3 1.3z"/><circle fill="#D3BA84" cx="145.2" cy="207" r="1.3"/><path fill="#D3BA84" d="M156 212.8c0 .7-.6 1.3-1.3 1.3-.7 0-1.3-.6-1.3-1.3 0-.7.6-1.3 1.3-1.3.7 0 1.3.6 1.3 1.3zm8-9.8c0 .7-.6 1.3-1.3 1.3-.7 0-1.3-.6-1.3-1.3 0-.7.6-1.3 1.3-1.3.7 0 1.3.6 1.3 1.3z"/><circle fill="#D3BA84" cx="153.2" cy="202.8" r="1.3"/><path fill="#D3BA84" d="M162.5 207.9c0 .7-.6 1.3-1.3 1.3-.7 0-1.3-.6-1.3-1.3s.6-1.3 1.3-1.3c.7 0 1.3.6 1.3 1.3zm-23.3 10.5c0 .7-.6 1.3-1.3 1.3-.7 0-1.3-.6-1.3-1.3 0-.7.6-1.3 1.3-1.3.8 0 1.3.6 1.3 1.3z"/><circle fill="#D3BA84" cx="107.8" cy="217.3" r="1.3"/><circle fill="#D3BA84" cx="137.9" cy="209.5" r="1.3"/><path fill="#D3BA84" d="M148.7 218.8c0 .7-.6 1.3-1.3 1.3-.7 0-1.3-.6-1.3-1.3 0-.7.6-1.3 1.3-1.3.7 0 1.3.6 1.3 1.3zm-33.1-2.9c0 .7-.6 1.3-1.3 1.3-.7 0-1.3-.6-1.3-1.3 0-.7.6-1.3 1.3-1.3.7 0 1.3.6 1.3 1.3z"/><circle fill="#D3BA84" cx="144.9" cy="214.1" r="1.3"/></svg>