<?xml version="1.0" encoding="utf-8"?><svg xmlns="http://www.w3.org/2000/svg" width="90" height="70" viewBox="0 0 90 70"><g fill-rule="evenodd" clip-rule="evenodd"><path fill="#FCDB43" d="M11.6 57.6h57v3.6h-57z"/><path fill="#ED9707" d="M75.2 19.6c-.6-.7-1.5-1.1-2.3-1.2-.2-.8-.6-1.6-1.2-2.3-1.7-1.7-4.6-1.7-6.3 0-1.7 1.7-1.7 4.6 0 6.3 0 0 0 0 .1.1l-5 5C58.8 26.5 57 26 55 26c-2.7 0-5.3 1.1-7.3 3-4 4-4 10.5 0 14.5.4.4.4 1.1 0 1.5-.2.2-.5.3-.7.3-.3 0-.5-.1-.7-.3-4.8-4.8-4.8-12.7 0-17.5 2.3-2.3 5.4-3.6 8.7-3.6.7 0 1.5.1 2.2.2-2.9-1.6-6.3-2.6-9.8-2.6-7.3 0-13.8 3.9-17.3 9.8-1.8 3-2.8 6.5-2.8 10.2 0 .6-.5 1.1-1.1 1.1-.6 0-1-.5-1-1.1 0-2.9.6-5.7 1.6-8.3-5.2 2.7-8.8 8.2-8.8 14.5 0 .9.1 1.8.2 2.6H16c-.7 0-1.3.6-1.3 1.3v2.7c0 .7.6 1.3 1.3 1.3h46c3.5-3.6 5.7-8.3 5.7-13.7 0-4.2-1.3-8.1-3.4-11.3l4.6-4.6s0 0 0 .1c1.7 1.7 4.6 1.7 6.3 0 1.7-1.9 1.7-4.7 0-6.5zm-.9 5.5c-1.3 1.3-3.3 1.3-4.6 0 0 0 0 0 0-.1l-.9-.9-1.8 1.7-1.6-1.6 1.7-1.7-.9-.9s0 0-.1 0c-1.3-1.3-1.3-3.3 0-4.6 1.3-1.3 3.3-1.3 4.6 0 .4.4.7.8.8 1.3.1.4.2.8.1 1.3.4 0 .8 0 1.3.1s1 .4 1.3.8c1.3 1.3 1.3 3.3.1 4.6z"/></g></svg>