<?xml version="1.0" encoding="utf-8"?>
<!-- Generator: Adobe Illustrator 17.1.0, SVG Export Plug-In . SVG Version: 6.00 Build 0)  -->
<!DOCTYPE svg PUBLIC "-//W3C//DTD SVG 1.1//EN" "http://www.w3.org/Graphics/SVG/1.1/DTD/svg11.dtd">
<svg version="1.1" xmlns="http://www.w3.org/2000/svg" xmlns:xlink="http://www.w3.org/1999/xlink" x="0px" y="0px" width="90px"
	 height="70px" viewBox="0 0 90 70" enable-background="new 0 0 90 70" xml:space="preserve">
<g id="Слой_47__x2B__Слой_0__x2B__Группа_1__x2B__Фигура_1_копия_2_xA0_Изображение_1_" display="none">
	
		<image display="inline" overflow="visible" width="980" height="600" id="Слой_47__x2B__Слой_0__x2B__Группа_1__x2B__Фигура_1_копия_2_xA0_Изображение" xlink:href="43CCC12A.png"  transform="matrix(1 0 0 1 -798 -186.6667)">
	</image>
</g>
<g id="Группа_179_1_" display="none">
	<g id="Группа_178_3_" display="inline">
		<g id="Тень_Слой_48_xA0_Изображение_1_">
			
				<image overflow="visible" width="980" height="600" id="Тень_Слой_48_xA0_Изображение" xlink:href="43CCC12E.png"  transform="matrix(1 0 0 1 -798 -186.6667)">
			</image>
		</g>
		<g id="Фигура_753_2_" enable-background="new    ">
			<defs>
				<path id="SVGID_1_" enable-background="new    " d="M105-588.7l-290,5c-11,0-20,9-20,20l-0.4,62.4l-43.6,47.6l43.3-8.3
					l-0.3,50.3c0,11,9,20,20,20l290,15c11,0,20-9,20-20l1-172C125-579.7,116-588.7,105-588.7z"/>
			</defs>
			<clipPath id="SVGID_2_">
				<use xlink:href="#SVGID_1_"  overflow="visible"/>
			</clipPath>
			<g clip-path="url(#SVGID_2_)">
				
					<image overflow="visible" width="980" height="600" id="Фигура_753_xA0_Изображение" xlink:href="43CCC129.png"  transform="matrix(1 0 0 1 -798 -186.6667)">
				</image>
			</g>
		</g>
	</g>
</g>
<g id="шапка_сайта_1_">
	<g id="Группа_176_1_">
		<g id="иконки_1_">
			<g id="диалоги_1_" display="none">
			</g>
			<g id="мой_жираф_1_" display="none">
			</g>
		</g>
		<g id="поиск__x2B__добавить_1_">
			<g id="поиск_1_">
			</g>
		</g>
	</g>
</g>
<g id="категории_1_">
	<g id="_x31__ряд_1_">
		<g id="_x31__3_">
			<g id="К_мясу_xA0_Изображение_1_" display="none">
			</g>
		</g>
		<g id="_x32__1_">
			<g id="К_овощам_и_грибам_xA0_Изображение_1_" display="none">
			</g>
			<g id="_x31__копия_20_1_">
			</g>
		</g>
		<g id="_x33__1_">
			<g id="К_крупам_xA0_Изображение_1_" display="none">
			</g>
		</g>
		<g id="_x34__1_">
			<g id="К_рыбе_xA0_Изображение_1_" display="none">
			</g>
			<g id="_x31__копия_18_1_">
			</g>
		</g>
	</g>
	<g id="_x31__ряд_копия_1_">
		<g id="_x31__копия_1_">
			<g id="К_макаронам_xA0_Изображение_1_" display="none">
			</g>
			<g id="_x31__2_">
			</g>
		</g>
		<g id="_x32__копия_1_">
			<g id="К_бобовым_xA0_Изображение_1_" display="none">
			</g>
		</g>
		<g id="_x33__копия_1_">
			<g id="К_салатам_xA0_Изображение_1_" display="none">
			</g>
			<g id="_x31__копия_23_1_">
				<g id="Фигура_302_xA0_Изображение_1_">
				</g>
			</g>
		</g>
		<g id="_x34__копия_1_">
			<g id="К_маринадам_xA0_Изображение_1_" display="none">
			</g>
			<g id="_x31__копия_28_1_">
				<g id="Фигура_296_копия_6">
					<g>
						<path fill-rule="evenodd" clip-rule="evenodd" fill="#FCC65E" d="M66.7,51.1c0.1-0.2,0.2-0.4,0.2-0.7c0-0.4-0.2-0.9-0.4-1.3
							c-0.2-0.3-0.5,0-0.6,0.2l0,0.1l-0.1,0.1l0,0l-0.1-0.1c-0.2-0.3-0.3-0.7-0.6-0.9c-0.2-0.2-0.5-0.1-0.6,0.1
							c-0.2,0.2-0.2,0.4-0.3,0.7l-0.1,0.1l0,0l-0.2-0.1l-0.2,0c-0.3,0-0.5,0.2-0.5,0.5c0,0.2,0.1,0.5,0.1,0.7c0,0.1-0.4,0.1-0.5,0.1
							c-0.4,0.1-0.5,0.3-0.5,0.7c0,0.1,0,0.3-0.1,0.4l0,0.1l0,0l0,0c-0.1-0.1-0.2-0.2-0.3-0.2c-0.2,0.1-0.4,0.4-0.5,0.6
							c-0.3,0.4-0.5,0.9-0.7,1.4c-0.2-0.5-0.5-0.9-0.9-1.2c-0.8-0.5-1.9-0.8-2.9-0.6c-3.3,0.7-6.6,1.7-9,3.3c-0.5,0.3-1,0.6-1.4,1.1
							c-0.2,0.3-0.4,0.5-0.5,0.9l0,0c0.1,0.2,0.3,0.3,0.4,0.4c1.3,0.7,3,1,4.4,1.2c1.8,0.2,3.6,0.4,5.5,0.2c1.4-0.2,3.2-0.6,4.1-1.9
							c0.3-0.4,0.5-0.9,0.5-1.4c0.4,0.4,0.9,0.8,1,1.4c0,0.2-0.1,0.6,0.2,0.7c0.1,0,0.2,0,0.3,0l0.1,0l0.1,0l0,0l0,0l0,0.1
							c0.1,0.3,0.1,1,0.6,1.1c0.2,0,0.3-0.1,0.5-0.2c0.3-0.2,0.8-0.2,1.2-0.3c0.2-0.1,0.2-0.4,0.2-0.6l0-0.1l0,0l0,0l0.3,0l0.1,0
							c0.2-0.1,0.4-0.2,0.3-0.5c-0.1-0.3-0.4-0.4-0.7-0.5l-0.1,0l0.1-0.2l0.1-0.5l0-0.1c0-0.2-0.1-0.4-0.3-0.4
							c-0.4-0.1-0.6,0.1-1,0.1c0,0-0.1-0.1-0.1-0.1c-0.1-0.2-0.3-0.5-0.6-0.5c-0.2,0-0.4,0.1-0.5,0c0,0-0.1,0-0.1-0.1
							c0.3,0,0.6-0.1,0.7-0.4c0-0.1,0-0.2,0-0.4l0,0l0,0l0.1,0c0.4,0,1,0.2,1.1-0.3c0-0.1,0-0.2,0.1-0.3l0,0l0,0l0,0l0,0l0.1,0
							c0.3,0.2,0.8,0.5,1.1,0.1c0.1-0.1,0-0.3,0-0.4l0-0.1c0.2-0.1,0.6,0,0.7-0.2c0.2-0.3,0.1-0.8,0.1-1.1
							C66.7,51.6,66.7,51.3,66.7,51.1z M61.9,51.8L61.9,51.8L61.9,51.8L61.9,51.8L61.9,51.8z M62.2,51.7L62.2,51.7L62.2,51.7
							L62.2,51.7L62.2,51.7z M65.3,56.9L65.3,56.9L65.3,56.9L65.3,56.9L65.3,56.9L65.3,56.9L65.3,56.9z M64.7,57.8L64.7,57.8
							L64.7,57.8L64.7,57.8z M63.7,49.8L63.7,49.8L63.7,49.8L63.7,49.8L63.7,49.8z M64.2,49.4L64.2,49.4L64.2,49.4L64.2,49.4
							L64.2,49.4L64.2,49.4L64.2,49.4L64.2,49.4z M46.8,54.8c0.1,0.1,0.3,0,0.4-0.1c1.2-1.7,1.8-3.8,0.6-5.7
							c-0.6-1.1-2.1-2.6-3.9-3.2c-2.5-0.8-4.9-0.6-6.6,0.9c-1.1,0.9-1.9,3-1.4,4.5c0,0.1,0.1,0.1,0.2,0.2l0.1,0
							c1.3-0.1,2.2-0.2,3.5,0c-0.7,1-1.6,2.3-1.7,3.5c0,0.5-0.3,2.6,0.2,2.9c0.7,0.4,2.2,0.9,3,1c0.5,0.1,1.8-1.6,2-2
							c0.8-1.1,0.8-2.6,0.9-3.9c1,0.6,1.7,1.1,2.5,1.9L46.8,54.8z M35.4,51.6c-0.7-0.4-2.2-0.7-3.3-0.4c-1.8,0.4-2.9,1.6-3,3.4
							c-0.1,0.7,0.2,1.6,0.8,2c0,0,0.1,0,0.2,0l0.1,0c0.7-0.5,1.1-0.8,1.9-1.2c0,0.8,0,1.8,0.4,2.5c0.2,0.3,0.7,1.5,1.1,1.5
							c0.5,0,1.5-0.2,2-0.4c0.3-0.1,0.4-1.5,0.4-1.8c0-0.9-0.5-1.7-0.9-2.5c0.8,0,1.3,0.1,2.1,0.2l0.1,0c0.1,0,0.2-0.1,0.2-0.2
							C37.2,53.4,36.7,52.2,35.4,51.6z M52.4,49.5c2.6,0.7,5,0.4,6.6-1.1c1.1-1,1.8-3.1,1.3-4.5c0-0.1-0.1-0.1-0.2-0.1l-0.1,0
							c-1.3,0.2-2.2,0.2-3.5,0.1c0.7-1,1.5-2.4,1.5-3.6c0-0.5,0.2-2.6-0.3-2.9c-0.7-0.4-2.2-0.8-3.1-0.9c-0.5,0-1.7,1.7-1.9,2.1
							c-0.7,1.1-0.7,2.6-0.7,4c-1-0.5-1.7-1-2.6-1.8l-0.1-0.1c-0.1-0.1-0.3,0-0.4,0.1c-1.1,1.8-1.6,3.9-0.4,5.7
							C49,47.6,50.5,49,52.4,49.5z M60.7,43.5c0.7,0.4,2.2,0.6,3.4,0.3c1.8-0.5,2.8-1.7,2.9-3.5c0-0.7-0.3-1.6-0.9-2
							c0,0-0.1,0-0.2,0l-0.1,0c-0.6,0.5-1.1,0.9-1.8,1.2c0-0.8,0-1.8-0.5-2.5c-0.2-0.3-0.8-1.5-1.2-1.5c-0.5,0-1.5,0.3-2,0.5
							c-0.3,0.2-0.3,1.5-0.3,1.8c0,0.9,0.6,1.7,1,2.4c-0.8,0-1.3,0-2.1-0.1l-0.1,0c-0.1,0-0.2,0.1-0.2,0.2
							C58.9,41.8,59.4,42.9,60.7,43.5z M35.2,48.4c1.1-1,1.8-3.1,1.3-4.5c0-0.1-0.1-0.1-0.2-0.1l-0.1,0c-1.3,0.2-2.2,0.2-3.5,0.1
							c0.7-1,1.5-2.4,1.5-3.6c0-0.5,0.2-2.6-0.3-2.9c-0.7-0.4-2.2-0.8-3.1-0.9c-0.5,0-1.7,1.7-1.9,2.1c-0.7,1.1-0.7,2.6-0.7,4
							c-1-0.5-1.7-1-2.6-1.8l-0.1-0.1c-0.1-0.1-0.3,0-0.4,0.1c-1.1,1.8-1.6,3.9-0.4,5.7c0.6,1.1,2.2,2.5,4,3
							C31.1,50.3,33.5,49.9,35.2,48.4z M36.9,43.5c0.7,0.4,2.2,0.6,3.4,0.3c1.8-0.5,2.8-1.7,2.9-3.5c0-0.7-0.3-1.6-0.9-2
							c0,0-0.1,0-0.2,0l-0.1,0c-0.6,0.5-1.1,0.9-1.8,1.2c0-0.8,0-1.8-0.5-2.5c-0.2-0.3-0.8-1.5-1.2-1.5c-0.5,0-1.5,0.3-2,0.5
							c-0.3,0.2-0.3,1.5-0.3,1.8c0,0.9,0.6,1.7,1,2.4c-0.8,0-1.3,0-2.1-0.1l-0.1,0c-0.1,0-0.2,0.1-0.2,0.2
							C35.1,41.8,35.6,42.9,36.9,43.5z"/>
					</g>
				</g>
				<g id="Фигура_296_копия_5">
					<g>
						<path fill-rule="evenodd" clip-rule="evenodd" fill="#4DABEA" d="M70,28.3c-1.9-3.2-5.1-5.9-9.2-7.7c-2.8-1.3-5.9-2.1-9.3-2.5
							c0.3-0.6,0.5-1.4,0.5-2.1c0-1.3-0.5-2.5-1.4-3.4c-0.9-0.9-2.1-1.4-3.4-1.4s-2.5,0.5-3.4,1.4c-0.9,0.9-1.4,2.1-1.4,3.4
							c0,0.8,0.2,1.5,0.5,2.1c-3.3,0.4-6.5,1.3-9.3,2.5c-4,1.8-7.3,4.5-9.2,7.7c-0.4,0.7-0.2,1.6,0.5,2c0.7,0.4,1.6,0.2,2-0.5
							c16.6,0,24.7-0.1,40.4,0c0.4,0.7,1.3,0.9,2,0.5C70.2,29.9,70.5,29,70,28.3z M48.6,17.2c-0.3,0.3-0.8,0.5-1.3,0.5
							s-1-0.2-1.3-0.5c-0.3-0.3-0.5-0.8-0.5-1.3c0-0.5,0.2-1,0.5-1.3c0.3-0.3,0.8-0.5,1.3-0.5s1,0.2,1.3,0.5
							c0.3,0.3,0.5,0.8,0.5,1.3C49.1,16.4,48.9,16.9,48.6,17.2z"/>
					</g>
				</g>
				<g id="Фигура_296_копия_4">
					<g>
						<path fill-rule="evenodd" clip-rule="evenodd" fill="#7BC9FE" d="M77.8,38.9c-0.7-0.7-1.7-1.1-2.8-1.1h-4.7v-2.5
							c0-0.3,0.1-0.5,0.3-0.7c0.2-0.2,0.4-0.3,0.7-0.3H72c0.8,0,1.5-0.7,1.5-1.5c0-0.8-0.7-1.5-1.5-1.5h-0.7c-1.1,0-2.1,0.4-2.8,1.2
							c-0.7,0.7-1.2,1.7-1.2,2.8v19.8c0,1.2-0.5,2.4-1.3,3.2c-0.8,0.8-1.9,1.3-3.2,1.3H31.7c-1.2,0-2.4-0.5-3.2-1.3
							c-0.8-0.8-1.3-1.9-1.3-3.2V44.6c0-0.1,0-0.1,0-0.2v-5.2c0-0.1,0-0.1,0-0.2v-3.8c0-1.1-0.4-2.1-1.2-2.8
							c-0.7-0.7-1.7-1.2-2.8-1.2h-0.7c-0.8,0-1.5,0.7-1.5,1.5c0,0.8,0.7,1.5,1.5,1.5h0.7c0.3,0,0.5,0.1,0.7,0.3
							c0.2,0.2,0.3,0.4,0.3,0.7v2.5h-4.7c-1.1,0-2,0.4-2.8,1.1c-0.7,0.7-1.1,1.7-1.1,2.8V42c0,1.1,0.4,2,1.1,2.8
							c0.7,0.7,1.7,1.1,2.8,1.1h4.7v9.1c0,2.1,0.8,3.9,2.2,5.3c1.4,1.4,3.2,2.2,5.3,2.2h31.2c2.1,0,3.9-0.8,5.3-2.2
							c1.4-1.4,2.2-3.2,2.2-5.3v-9.1H75c1.1,0,2-0.4,2.8-1.1c0.7-0.7,1.1-1.7,1.1-2.8v-0.4C78.9,40.6,78.5,39.6,77.8,38.9z M24.2,43
							h-4.7c-0.3,0-0.5-0.1-0.6-0.3c-0.2-0.2-0.3-0.4-0.3-0.6v-0.4c0-0.3,0.1-0.5,0.3-0.6c0.2-0.2,0.4-0.3,0.6-0.3h4.7V43z M75.9,42
							c0,0.3-0.1,0.5-0.3,0.6C75.5,42.9,75.3,43,75,43h-4.7v-2.2H75c0.2,0,0.5,0.1,0.6,0.3c0.2,0.2,0.3,0.4,0.3,0.6V42z M64.2,49.4
							L64.2,49.4L64.2,49.4L64.2,49.4L64.2,49.4z M64.7,57.8L64.7,57.8L64.7,57.8L64.7,57.8z M63.7,49.8L63.7,49.8L63.7,49.8
							L63.7,49.8L63.7,49.8z M64.1,49.4L64.1,49.4L64.1,49.4L64.1,49.4z"/>
					</g>
				</g>
			</g>
		</g>
	</g>
	<g id="_x31__ряд_копия_2_1_">
		<g id="_x31__копия_2_1_">
			<g id="К_птице_xA0_Изображение_1_">
			</g>
		</g>
		<g id="_x32__копия_2_1_">
			<g id="К_супам_xA0_Изображение_1_">
			</g>
		</g>
		<g id="_x33__копия_2_1_">
			<g id="Для_варений_xA0_Изображение_1_">
			</g>
			<g id="_x31__копия_30_1_">
			</g>
		</g>
		<g id="_x34__копия_2_1_">
			<g id="К_напиткам_xA0_Изображение_1_">
			</g>
			<g id="_x31__копия_31_1_">
			</g>
		</g>
	</g>
	<g id="_x31__ряд_копия_3_1_">
		<g id="_x31__копия_4_1_">
			<g id="К_соусам_xA0_Изображение_1_">
			</g>
			<g id="_x31__копия_25_1_">
			</g>
		</g>
		<g id="_x32__копия_3_1_">
			<g id="К_хлебо_булочным_изделиям_xA0_Изображение_1_">
			</g>
			<g id="_x31__копия_19_1_">
				<g id="Фигура_259_копия_2_xA0_Изображение_1_">
				</g>
			</g>
		</g>
		<g id="_x33__копия_3_1_">
			<g id="К_кондитерским_изделиям_xA0_Изображение_1_">
			</g>
			<g id="птироженое_копия_1_">
			</g>
		</g>
		<g id="_x34__копия_3_1_">
			<g id="Для_консерваций_и_солений_xA0_Изображение_1_">
			</g>
			<g id="Группа_9_копия_1_">
				<g id="_x31__банка_1_">
				</g>
			</g>
		</g>
	</g>
</g>
<g id="по_алфавиту_1_" display="none">
	<g id="a_1_" display="inline">
	</g>
	<g id="б_1_" display="inline">
	</g>
	<g id="в_1_" display="inline">
	</g>
	<g id="м_1_" display="inline">
	</g>
	<g id="н_1_" display="inline">
	</g>
	<g id="о_1_" display="inline">
	</g>
	<g id="иконка_3_" display="inline">
	</g>
</g>
<g id="Фигура_750_2_" display="none" enable-background="new    ">
</g>
<g id="Группа_178_2_">
	<g id="иконка_2_">
	</g>
</g>
</svg>
