<?xml version="1.0" encoding="utf-8"?><svg xmlns="http://www.w3.org/2000/svg" width="90" height="70" viewBox="0 0 90 70"><g fill-rule="evenodd" clip-rule="evenodd"><path fill="#FCC65E" d="M66.7 51.1c.1-.2.2-.4.2-.7 0-.4-.2-.9-.4-1.3-.2-.3-.5 0-.6.2v.1l-.1.1-.1-.1c-.2-.3-.3-.7-.6-.9-.2-.2-.5-.1-.6.1-.2.2-.2.4-.3.7l-.1.1-.2-.1h-.2c-.3 0-.5.2-.5.5 0 .2.1.5.1.7 0 .1-.4.1-.5.1-.4.1-.5.3-.5.7 0 .1 0 .3-.1.4v.1c-.1-.1-.2-.2-.3-.2-.2.1-.4.4-.5.6-.3.4-.5.9-.7 1.4-.2-.5-.5-.9-.9-1.2-.8-.5-1.9-.8-2.9-.6-3.3.7-6.6 1.7-9 3.3-.5.3-1 .6-1.4 1.1-.2.3-.4.5-.5.9.1.2.3.3.4.4 1.3.7 3 1 4.4 1.2 1.8.2 3.6.4 5.5.2 1.4-.2 3.2-.6 4.1-1.9.3-.4.5-.9.5-1.4.4.4.9.8 1 1.4 0 .2-.1.6.2.7.1 0 .2 0 .3 0h.2v.1c.1.3.1 1 .6 1.1.2 0 .3-.1.5-.2.3-.2.8-.2 1.2-.3.2-.1.2-.4.2-.6v-.1h.4c.2-.1.4-.2.3-.5-.1-.3-.4-.4-.7-.5H65l.1-.2.1-.5v-.1c0-.2-.1-.4-.3-.4-.4-.1-.6.1-1 .1 0 0-.1-.1-.1-.1-.1-.2-.3-.5-.6-.5-.2 0-.4.1-.5 0 0 0-.1 0-.1-.1.3 0 .6-.1.7-.4 0-.1 0-.2 0-.4h.1c.4 0 1 .2 1.1-.3 0-.1 0-.2.1-.3h.1c.3.2.8.5 1.1.1.1-.1 0-.3 0-.4v-.1c.2-.1.6 0 .7-.2.2-.3.1-.8.1-1.1.1-.2.1-.5.1-.7zm-4.8.7zm.3-.1zm3.1 5.2zm-.6.9zm-1-8zm.5-.4zm-17.4 5.4c.1.1.3 0 .4-.1 1.2-1.7 1.8-3.8.6-5.7-.6-1.1-2.1-2.6-3.9-3.2-2.5-.8-4.9-.6-6.6.9-1.1.9-1.9 3-1.4 4.5 0 .1.1.1.2.2h.1c1.3-.1 2.2-.2 3.5 0-.7 1-1.6 2.3-1.7 3.5 0 .5-.3 2.6.2 2.9.7.4 2.2.9 3 1 .5.1 1.8-1.6 2-2 .8-1.1.8-2.6.9-3.9 1 .6 1.7 1.1 2.5 1.9h.2zm-11.4-3.2c-.7-.4-2.2-.7-3.3-.4-1.8.4-2.9 1.6-3 3.4-.1.7.2 1.6.8 2 0 0 .1 0 .2 0h.1c.7-.5 1.1-.8 1.9-1.2 0 .8 0 1.8.4 2.5.2.3.7 1.5 1.1 1.5.5 0 1.5-.2 2-.4.3-.1.4-1.5.4-1.8 0-.9-.5-1.7-.9-2.5.8 0 1.3.1 2.1.2h.1c.1 0 .2-.1.2-.2-.3-1.3-.8-2.5-2.1-3.1zm17-2.1c2.6.7 5 .4 6.6-1.1 1.1-1 1.8-3.1 1.3-4.5 0-.1-.1-.1-.2-.1H60c-1.3.2-2.2.2-3.5.1.7-1 1.5-2.4 1.5-3.6 0-.5.2-2.6-.3-2.9-.7-.4-2.2-.8-3.1-.9-.5 0-1.7 1.7-1.9 2.1-.7 1.1-.7 2.6-.7 4-1-.5-1.7-1-2.6-1.8l-.1-.1c-.1-.1-.3 0-.4.1-1.1 1.8-1.6 3.9-.4 5.7.5 1.1 2 2.5 3.9 3zm8.3-6c.7.4 2.2.6 3.4.3 1.8-.5 2.8-1.7 2.9-3.5 0-.7-.3-1.6-.9-2 0 0-.1 0-.2 0h-.1c-.6.5-1.1.9-1.8 1.2 0-.8 0-1.8-.5-2.5-.2-.3-.8-1.5-1.2-1.5-.5 0-1.5.3-2 .5-.3.2-.3 1.5-.3 1.8 0 .9.6 1.7 1 2.4-.8 0-1.3 0-2.1-.1h-.1c-.1 0-.2.1-.2.2.3 1.5.8 2.6 2.1 3.2zm-25.5 4.9c1.1-1 1.8-3.1 1.3-4.5 0-.1-.1-.1-.2-.1h-.1c-1.3.2-2.2.2-3.5.1.7-1 1.5-2.4 1.5-3.6 0-.5.2-2.6-.3-2.9-.7-.4-2.2-.8-3.1-.9-.5 0-1.7 1.7-1.9 2.1-.7 1.1-.7 2.6-.7 4-1-.5-1.7-1-2.6-1.8l-.1-.1c-.1-.1-.3 0-.4.1-1.1 1.8-1.6 3.9-.4 5.7.6 1.1 2.2 2.5 4 3 2.4.8 4.8.4 6.5-1.1zm1.7-4.9c.7.4 2.2.6 3.4.3 1.8-.5 2.8-1.7 2.9-3.5 0-.7-.3-1.6-.9-2 0 0-.1 0-.2 0H42c-.6.5-1.1.9-1.8 1.2 0-.8 0-1.8-.5-2.5-.2-.3-.8-1.5-1.2-1.5-.5 0-1.5.3-2 .5-.3.2-.3 1.5-.3 1.8 0 .9.6 1.7 1 2.4-.8 0-1.3 0-2.1-.1H35c-.1 0-.2.1-.2.2.3 1.5.8 2.6 2.1 3.2z"/><path fill="#4DABEA" d="M70 28.3c-1.9-3.2-5.1-5.9-9.2-7.7-2.8-1.3-5.9-2.1-9.3-2.5.3-.6.5-1.4.5-2.1 0-1.3-.5-2.5-1.4-3.4-.9-.9-2.1-1.4-3.4-1.4s-2.5.5-3.4 1.4c-.9.9-1.4 2.1-1.4 3.4 0 .8.2 1.5.5 2.1-3.3.4-6.5 1.3-9.3 2.5-4 1.8-7.3 4.5-9.2 7.7-.4.7-.2 1.6.5 2 .7.4 1.6.2 2-.5 16.6 0 24.7-.1 40.4 0 .4.7 1.3.9 2 .5.9-.4 1.2-1.3.7-2zM48.6 17.2c-.3.3-.8.5-1.3.5s-1-.2-1.3-.5c-.3-.3-.5-.8-.5-1.3s.2-1 .5-1.3c.3-.3.8-.5 1.3-.5s1 .2 1.3.5c.3.3.5.8.5 1.3s-.2 1-.5 1.3z"/><path fill="#7BC9FE" d="M77.8 38.9c-.7-.7-1.7-1.1-2.8-1.1h-4.7v-2.5c0-.3.1-.5.3-.7.2-.2.4-.3.7-.3h.7c.8 0 1.5-.7 1.5-1.5s-.7-1.5-1.5-1.5h-.7c-1.1 0-2.1.4-2.8 1.2-.7.7-1.2 1.7-1.2 2.8v19.8c0 1.2-.5 2.4-1.3 3.2-.8.8-1.9 1.3-3.2 1.3H31.7c-1.2 0-2.4-.5-3.2-1.3-.8-.8-1.3-1.9-1.3-3.2V44.6c0-.1 0-.1 0-.2v-5.2c0-.1 0-.1 0-.2v-3.8c0-1.1-.4-2.1-1.2-2.8-.7-.7-1.7-1.2-2.8-1.2h-.7c-.8 0-1.5.7-1.5 1.5s.7 1.5 1.5 1.5h.7c.3 0 .5.1.7.3.2.2.3.4.3.7v2.5h-4.7c-1.1 0-2 .4-2.8 1.1-.7.7-1.1 1.7-1.1 2.8v.4c0 1.1.4 2 1.1 2.8.7.7 1.7 1.1 2.8 1.1h4.7V55c0 2.1.8 3.9 2.2 5.3 1.4 1.4 3.2 2.2 5.3 2.2h31.2c2.1 0 3.9-.8 5.3-2.2 1.4-1.4 2.2-3.2 2.2-5.3v-9.1H75c1.1 0 2-.4 2.8-1.1.7-.7 1.1-1.7 1.1-2.8v-.4c0-1-.4-2-1.1-2.7zM24.2 43h-4.7c-.3 0-.5-.1-.6-.3-.2-.2-.3-.4-.3-.6v-.4c0-.3.1-.5.3-.6.2-.2.4-.3.6-.3h4.7V43zm51.7-1c0 .3-.1.5-.3.6-.1.3-.3.4-.6.4h-4.7v-2.2H75c.2 0 .5.1.6.3.2.2.3.4.3.6v.3zm-11.7 7.4zm.5 8.4zm-1-8zm.4-.4z"/></g></svg>