<?xml version="1.0" encoding="utf-8"?><svg xmlns="http://www.w3.org/2000/svg" width="90" height="75" viewBox="-1.6 1.1 90 75" enable-background="new -1.6 1.1 90 75"><path fill="#FDE4A9" d="M10.4 59.9l-.2-8.9v-8.9l-3.4-2.7.9-4.6s2.1-.5 3-.5 6.8 0 6.8 0h6.2l6.2.2 5.3.9 4.1 1.6v2.7l-.5 2.7-1.4 1.6-2.1.5.2 16.9s0 1.4-1.1 1.4c-1.2.1-8.5.5-8.5.5l-8.7-.9-4.7-1.1-2.1-1.4z"/><path fill="#C77946" d="M48.4 37.2c-.5.5-1.2.9-1.9 1v14.3c0 1.1-.5 2.1-1.3 2.8l-9.3 8.5c-.7.6-1.6 1-2.6 1-.1 0-.2 0-.3 0l-20.3-1.7c-2.2-.2-3.9-2-3.9-4.2v-16c-1.9-.4-3.3-2.1-3.3-4.1v-2.3c0-1.5.8-2.9 2.1-3.5l11.7-5.6c.2-.2.5-.3.8-.4.4-.1.7-.2 1.2-.2.1 0 .2 0 .3 0l24.3 2c2 .2 3.5 1.8 3.5 3.8v2.1c.1 1-.3 1.9-1 2.5zM38 39c0-.9-.7-1.7-1.6-1.8L9.7 35c-.9-.1-1.6.6-1.6 1.5v2.3c0 .9.7 1.7 1.6 1.8 1 .1 1.6.8 1.6 1.8 0 4.1 0 16.5 0 16.5 0 .9.7 1.7 1.6 1.8l20.2 1.6c.9.1 1.6-.6 1.6-1.5 0 0 0-12.4 0-16.5 0-1 .6-1.6 1.6-1.6.9.1 1.6-.6 1.6-1.5L38 39zm-8.5 16.6c-.3 0-.6-.3-.6-.6s.3-.6.6-.6.6.3.6.6-.3.6-.6.6zm-3.4-8.2c-.7 0-1.2-.6-1.2-1.2 0-.7.6-1.2 1.2-1.2.7 0 1.2.6 1.2 1.2s-.5 1.2-1.2 1.2zm-2.2-7.2c-.5 0-.9-.4-.9-.9s.4-.9.9-.9.9.4.9.9-.4.9-.9.9zm-3.9 11c-.4 0-.8-.3-.8-.8 0-.4.3-.8.8-.8.4 0 .8.3.8.8-.1.4-.4.8-.8.8zm.1 5.8c0 .9-.7 1.6-1.6 1.6s-1.6-.7-1.6-1.6c0-.9.7-1.6 1.6-1.6s1.6.7 1.6 1.6zm-3.3-12.2c-.8 0-1.4-.6-1.4-1.4S16 42 16.8 42s1.4.6 1.4 1.4-.6 1.4-1.4 1.4z"/><path fill="#FFCB5A" stroke="#fff" stroke-width="2" stroke-miterlimit="10" d="M86.2 37.1c-2-3.8-7.6-5.6-14-4.3 1.3.6 2.8 1.1 4 2.1.7.5.8 1.5.3 2.1-.3.4-.7.6-1.2.6-.3 0-.6-.1-.9-.3-3.6-2.8-7.4-3.2-10.6-2.5-1.4.3-4.8 2.2-5.1 2.3 0 0 0 0-.1 0 3.3.3 6.6 1.8 8.9 4.4.5.6.5 1.6-.1 2.1-.3.3-.6.4-1 .4s-.8-.2-1.1-.5c-3.2-3.6-9.1-5-13-2.4-2.2 1.4-2.7 2.7-3.2 4.9 4.8-1.2 8 .1 11.2 4 .5.6.4 1.6-.2 2.1-.6.5-1.6.4-2.1-.2-3.5-4.2-10.7-5.9-14.5-1.1-2 3.2-2 6.4-.7 8.9 3.3 6.3 15.6 6.3 27.6 0s19.1-16.4 15.8-22.6z"/></svg>