<?xml version="1.0" encoding="utf-8"?><svg xmlns="http://www.w3.org/2000/svg" width="90" height="70" viewBox="0 0 90 70"><g fill-rule="evenodd" clip-rule="evenodd"><path fill="#C77946" d="M23 58.7c-.6.3-1.3.5-1.9.6-.6.1-1.3 0-1.8-.3-1.1-.5-2-1.6-2.7-2.7-.7-1.1-1.1-2.4-1.4-3.7-.4-2.6-.1-5.3.9-7.8s2.6-4.7 4.7-6.3c2.1-1.7 4.6-2.8 7.2-3.2 2.6-.4 5.4-.2 7.8.9 1.2.5 2.3 1.3 3.2 2.3.4.5.8 1 1.1 1.6.3.6.4 1.2.3 1.8-.1.6-.3 1.2-.6 1.8-.3.6-.7 1.1-1.2 1.7-.4.5-.9 1.1-1.4 1.6-.5.5-1 1-1.5 1.5 1.1-.8 2.2-1.7 3.3-2.7.4-.3.7-.7 1-1.1.5-.5.9-1.1 1.3-1.7.5-.8.8-1.7 1-2.7.2-.9.2-1.9 0-2.9-.3-1.9-1.3-3.6-2.5-5.1-1.2-1.5-2.7-2.7-4.4-3.7-.8-.5-1.7-.9-2.6-1.2-.9-.3-1.8-.5-2.8-.7-1.9-.3-3.8-.4-5.7-.1-3.8.5-7.5 1.9-10.5 4.4-1.5 1.2-2.8 2.7-3.8 4.2-1.1 1.6-2 3.3-2.6 5.1-.6 1.8-1 3.7-1.1 5.6-.1 1.9.1 3.9.8 5.7.6 1.8 1.6 3.5 2.9 4.9 1.3 1.4 2.8 2.6 4.5 3.4 1.7.8 3.7 1.2 5.5.8.9-.2 1.8-.5 2.6-.9.6-.4 1.2-.8 1.8-1.3.8-.6 1.4-1.2 2.1-1.9-.6.4-1.1.8-1.7 1.2-.6.3-1.2.6-1.8.9zm19-8c-3.4-2-7 1.9-12-5.1.1-.1.2-.2.3-.2.2-.2.5-.4.8-.5.6-.3 1.2-.5 1.9-.6 1.3-.3 2.7-.2 4.1 0-1.3-.4-2.7-.7-4.2-.7-.7 0-1.5.1-2.2.4-.4.1-.7.3-1.1.5-.1.1-.2.1-.3.2-.3-.2-.6-.3-.9-.4 0-.1 0-.2 0-.3 0-.2 0-.3-.1-.5 0-.3 0-.6 0-1 .1-.6.2-1.3.5-1.9.3-.6.6-1.2 1.1-1.7.5-.5 1-.9 1.6-1.3-.6.3-1.3.6-1.8 1-.6.4-1.1 1-1.5 1.6-.4.6-.7 1.3-.9 2-.1.4-.2.7-.2 1.1 0 .2 0 .4 0 .6 0 .1 0 .2 0 .4-.4.1-.8.4-1.1.6-.3-.3-.7-.6-1-.8-.5-.4-1-.7-1.6-1-1.1-.6-2.2-1.2-3.3-1.6 1.1.6 2 1.3 2.9 2.1.4.4.9.8 1.3 1.3.3.3.6.7.8 1-.7.9-1.1 2.1-.9 3.3-.1 0-.2.1-.3.1-.3.1-.6.3-.9.4-.6.3-1.1.7-1.6 1.2s-.9 1-1.2 1.6c-.3.6-.5 1.2-.6 1.8.2-.6.5-1.1.9-1.6s.8-.9 1.3-1.2c.5-.3 1-.6 1.6-.8.3-.1.6-.2.9-.2.1 0 .2 0 .3-.1 1.6 4.4 5.1 8 10.4 10.3 2.9 1.3 6.8 1.3 8.8-1.8 1.9-2.9.9-6.6-1.8-8.2zm-.1 6.8c-1.1 1.6-2.7 1.9-3.9 1.9-1 0-2.1-.2-3-.7-5-2.3-8.2-5.6-9.5-9.8-.4-1.3.1-2.3.5-2.8.6-.8 1.5-1.3 2-1.2.3 0 .4.1.4.2 3.2 4.8 6.1 5.5 8.7 5.5.3 0 .5 0 .8 0 .2 0 .4 0 .7 0 .9 0 1.6.1 2.2.5 1 .6 1.7 1.6 1.9 2.7.2 1.3-.1 2.6-.8 3.7z"/><path fill="#6B5B87" d="M70.6 13.6c-.1-.1-.1-.1-.2-.2-1.4-.3-3.2-.6-4.3-.3.6 1.3.7 2.8.4 4.4l-.2 1.1-1.1.2c-1.6.2-3.1 0-4.4-.6-.5.8-.5 2.9-.3 4.3 4.3 10.1-20.9 24.1-7.9 37.4 7 7.1 19.2 1.4 25.3-8.9 5.2-9 6.5-23.6-7.3-37.4z"/><path fill="#fff" d="M67.6 24.1c-2.9-2.3-3.2 1.7-4 4.7-2.6 9.6-15.9 18.6-9.1 26.6 4.2 5.1 12.4 4.5 17.5-5.6 3.1-6.1 2.4-20.3-4.4-25.7z"/><path fill="#33B11A" d="M68.9 10.8c-2.4-2.6-6.3-3-9.2-1.1-1-.9-2.2-1.7-3.6-1.9-1-.1-2.6.1-4.1 1.6-.5.5-.5 1.3 0 1.7.5.5 1.2.4 1.7 0 .7-.7 1.3-1 2-.9.7.1 1.5.5 2.1 1.1-2.1 2.8-2 6.8.5 9.4 2.3 2.4-.5-1.9 1.5-5.4.1.1.1.2.2.2 1.2 1.3 3 1.8 4.8 1.5.4-1.8 0-3.6-1.3-4.9-.1-.1-.2-.2-.2-.2 3.6-1.6 7.9 1.3 5.6-1.1z"/></g></svg>