<?xml version="1.0" encoding="utf-8"?>
<!-- Generator: Adobe Illustrator 17.1.0, SVG Export Plug-In . SVG Version: 6.00 Build 0)  -->
<!DOCTYPE svg PUBLIC "-//W3C//DTD SVG 1.1//EN" "http://www.w3.org/Graphics/SVG/1.1/DTD/svg11.dtd">
<svg version="1.1" xmlns="http://www.w3.org/2000/svg" xmlns:xlink="http://www.w3.org/1999/xlink" x="0px" y="0px" width="90px"
	 height="70px" viewBox="0 0 90 70" enable-background="new 0 0 90 70" xml:space="preserve">
<g id="Слой_47__x2B__Слой_0__x2B__Группа_1__x2B__Фигура_1_копия_2_xA0_Изображение_1_" display="none">
	
		<image display="inline" overflow="visible" width="980" height="600" id="Слой_47__x2B__Слой_0__x2B__Группа_1__x2B__Фигура_1_копия_2_xA0_Изображение" xlink:href="6F32FC4D.png"  transform="matrix(1 0 0 1 -803.5289 -319.3333)">
	</image>
</g>
<g id="Группа_179_1_" display="none">
	<g id="Группа_178_3_" display="inline">
		<g id="Тень_Слой_48_xA0_Изображение_1_">
			
				<image overflow="visible" width="980" height="600" id="Тень_Слой_48_xA0_Изображение" xlink:href="6F32FC4F.png"  transform="matrix(1 0 0 1 -803.5289 -319.3333)">
			</image>
		</g>
		<g id="Фигура_753_2_" enable-background="new    ">
			<defs>
				<path id="SVGID_1_" enable-background="new    " d="M99.5-721.3l-290,5c-11,0-20,9-20,20l-0.4,62.4l-43.6,47.6l43.3-8.3
					l-0.3,50.3c0,11,9,20,20,20l290,15c11,0,20-9,20-20l1-172C119.5-712.4,110.5-721.3,99.5-721.3z"/>
			</defs>
			<clipPath id="SVGID_2_">
				<use xlink:href="#SVGID_1_"  overflow="visible"/>
			</clipPath>
			<g clip-path="url(#SVGID_2_)">
				
					<image overflow="visible" width="980" height="600" id="Фигура_753_xA0_Изображение" xlink:href="6F32FC4A.png"  transform="matrix(1 0 0 1 -803.5289 -319.3333)">
				</image>
			</g>
		</g>
	</g>
</g>
<g id="шапка_сайта_1_">
	<g id="Группа_176_1_">
		<g id="иконки_1_">
			<g id="диалоги_1_" display="none">
			</g>
			<g id="мой_жираф_1_" display="none">
			</g>
		</g>
		<g id="поиск__x2B__добавить_1_">
			<g id="поиск_1_">
			</g>
		</g>
	</g>
</g>
<g id="категории_1_">
	<g id="_x31__ряд_1_">
		<g id="_x31__3_">
			<g id="К_мясу_xA0_Изображение_1_" display="none">
			</g>
		</g>
		<g id="_x32__1_">
			<g id="К_овощам_и_грибам_xA0_Изображение_1_" display="none">
			</g>
			<g id="_x31__копия_20_1_">
			</g>
		</g>
		<g id="_x33__1_">
			<g id="К_крупам_xA0_Изображение_1_" display="none">
			</g>
		</g>
		<g id="_x34__1_">
			<g id="К_рыбе_xA0_Изображение_1_" display="none">
			</g>
			<g id="_x31__копия_18_1_">
			</g>
		</g>
	</g>
	<g id="_x31__ряд_копия_1_">
		<g id="_x31__копия_1_">
			<g id="К_макаронам_xA0_Изображение_1_" display="none">
			</g>
			<g id="_x31__2_">
			</g>
		</g>
		<g id="_x32__копия_1_">
			<g id="К_бобовым_xA0_Изображение_1_" display="none">
			</g>
		</g>
		<g id="_x33__копия_1_">
			<g id="К_салатам_xA0_Изображение_1_" display="none">
			</g>
			<g id="_x31__копия_23_1_">
				<g id="Фигура_302_xA0_Изображение_1_">
				</g>
			</g>
		</g>
		<g id="_x34__копия_1_">
			<g id="К_маринадам_xA0_Изображение_1_" display="none">
			</g>
			<g id="_x31__копия_28_1_">
			</g>
		</g>
	</g>
	<g id="_x31__ряд_копия_2_1_">
		<g id="_x31__копия_2_1_">
			<g id="К_птице_xA0_Изображение_1_">
			</g>
		</g>
		<g id="_x32__копия_2_1_">
			<g id="К_супам_xA0_Изображение_1_">
			</g>
		</g>
		<g id="_x33__копия_2_1_">
			<g id="Для_варений_xA0_Изображение_1_">
			</g>
			<g id="_x31__копия_30_1_">
			</g>
		</g>
		<g id="_x34__копия_2_1_">
			<g id="К_напиткам_xA0_Изображение_1_">
			</g>
			<g id="_x31__копия_31_1_">
				<g id="Фигура_300_копия_3">
					<g>
						<path fill-rule="evenodd" clip-rule="evenodd" fill="#61BDF7" d="M55.9,22.1c0.1-0.1,0.2-0.1,0.2-0.2c0-0.1-0.1-0.3-0.6-0.4
							l-0.3,0.4c0.1,0,0.1,0,0.2,0c-1.4,0.3-5.9,0.7-12.7,0.7c-6.8,0-11.3-0.4-12.7-0.7c1.4-0.3,5.9-0.7,12.7-0.7
							c4.3,0,7.7,0.2,9.9,0.4l0.1-0.8c-2.4-0.2-6-0.5-10-0.5c-7.4,0-14.2,0.9-14.2,1.5c0,0.1,0.2,0.2,0.5,0.3c-0.2,0-0.3,0-0.3,0
							c0,0,6.6,16.6,4.2,36.1c-0.1,0.4-0.1,0.8-0.2,1.3c0,0,0,0,0,0c-0.1,0.4-0.1,0.8-0.2,1.1c0,0.1,0,0.2,0,0.3
							c0,0.3-0.1,0.6-0.2,0.9c0,0.1,0,0.2-0.1,0.3c-0.1,0.4-0.1,0.8-0.2,1.2c0,0,0,0.1,0,0.1c0,0,0,0,0,0c0,0,0,0.1,0.1,0.1
							c0,0,0,0,0,0c0,0,0.1,0.1,0.1,0.1c0,0,0,0,0,0c0,0,0.1,0.1,0.2,0.1l0,0c0.1,0,0.1,0.1,0.2,0.1c0,0,0,0,0,0
							c0.1,0,0.2,0.1,0.3,0.1c0,0,0,0,0,0c1.3,0.5,3.8,0.8,6.7,0.9v-5.6c-2.2-0.1-4.1-0.3-5.2-0.6c1.8-18.6-4.1-34.8-4.9-36.8
							c2.2,0.6,7.5,1.2,13.2,1.2c6.4,0,11.7-0.7,13-1.2c-4.3,13.4-6.1,25.9-5.6,36.8c-1.2,0.3-3.3,0.6-5.9,0.7v5.6
							c0.3,0,0.5,0,0.8,0c0,0,0,0,0,0c0.2,0,0.4,0,0.7,0c0,0,0,0,0.1,0c0.2,0,0.4,0,0.6,0c0,0,0,0,0.1,0c0.2,0,0.4,0,0.6,0
							c0,0,0.1,0,0.1,0c0.2,0,0.4,0,0.6,0c0,0,0.1,0,0.1,0c0.2,0,0.4,0,0.6-0.1c0,0,0,0,0.1,0c0.2,0,0.4,0,0.5-0.1c0,0,0,0,0,0
							c0.2,0,0.3,0,0.5-0.1c0,0,0,0,0,0c0.3-0.1,0.6-0.1,0.9-0.2c0,0,0,0,0,0c0.1,0,0.3-0.1,0.4-0.1c0,0,0,0,0,0
							c0.1,0,0.2-0.1,0.3-0.1c0,0,0,0,0,0c0.1,0,0.2-0.1,0.2-0.1c0,0,0,0,0,0c0.1,0,0.1-0.1,0.2-0.1c0,0,0,0,0,0
							c0.1,0,0.1-0.1,0.1-0.1c0,0,0,0,0,0c0,0,0.1-0.1,0.1-0.1c0,0,0,0,0,0c0,0,0-0.1,0-0.1c-0.1-0.9-0.2-1.8-0.3-2.7c0,0,0,0,0,0
							c-0.1-0.9-0.2-1.8-0.3-2.7h0c-0.8-10.9,1.3-25.7,4.7-36C56.1,22.4,56,22.2,55.9,22.1z"/>
					</g>
				</g>
				<g id="Фигура_300_копия_2">
					<g>
						<path fill-rule="evenodd" clip-rule="evenodd" fill="#7FDC75" d="M49.1,54.8c0-7.2,0.9-14.9,2.9-23.1
							c-2.9-0.6-6.1-0.8-9.7-0.8c-2.9,0-6.5,0.3-8.7,0.8c1.2,5.1,2.3,11.9,2.3,19.4c0,1.9,0,3.9-0.2,5.9c0,0.4-0.1,0.7-0.1,1.1
							c1.6,0.3,4,0.5,6.7,0.5c2.8,0,5.3-0.2,6.9-0.5c0-0.3,0-0.7,0-1C49.1,56.3,49.1,55.5,49.1,54.8z M44.4,41.2
							c0,0.4-0.3,0.7-0.7,0.7c-0.4,0-0.7-0.3-0.7-0.7c0-0.4,0.3-0.7,0.7-0.7C44,40.4,44.4,40.8,44.4,41.2z M42.7,47.9
							c0.3,0,0.5,0.2,0.5,0.5c0,0.3-0.2,0.5-0.5,0.5c-0.3,0-0.5-0.2-0.5-0.5C42.3,48.1,42.5,47.9,42.7,47.9z M41.8,44.8
							c-0.3,0-0.6-0.3-0.6-0.6c0-0.3,0.3-0.6,0.6-0.6c0.3,0,0.6,0.3,0.6,0.6C42.4,44.5,42.1,44.8,41.8,44.8z M42.1,35.7
							c0.6,0,1,0.5,1,1c0,0.6-0.5,1-1,1c-0.6,0-1-0.5-1-1C41.1,36.1,41.6,35.7,42.1,35.7z M37.1,36.9c0.4,0,0.7,0.3,0.7,0.7
							c0,0.4-0.3,0.7-0.7,0.7c-0.4,0-0.7-0.3-0.7-0.7C36.4,37.2,36.7,36.9,37.1,36.9z M36.6,44.9c0-0.6,0.5-1.2,1.2-1.2
							c0.6,0,1.2,0.5,1.2,1.2c0,0.6-0.5,1.2-1.2,1.2C37.1,46,36.6,45.5,36.6,44.9z M38.8,47.9c0,0.1-0.1,0.3-0.3,0.3
							c-0.1,0-0.3-0.1-0.3-0.3c0-0.1,0.1-0.3,0.3-0.3C38.7,47.7,38.8,47.8,38.8,47.9z M38.3,54.4c-0.3,0-0.6-0.3-0.6-0.6
							c0-0.3,0.3-0.6,0.6-0.6c0.3,0,0.6,0.3,0.6,0.6C38.9,54.1,38.6,54.4,38.3,54.4z M40.1,41.7c-0.4,0-0.8-0.3-0.8-0.8
							c0-0.4,0.3-0.8,0.8-0.8c0.4,0,0.8,0.3,0.8,0.8C40.9,41.3,40.6,41.7,40.1,41.7z M40.7,50.7c0-0.3,0.3-0.6,0.6-0.6
							c0.3,0,0.6,0.3,0.6,0.6s-0.3,0.6-0.6,0.6C41,51.3,40.7,51,40.7,50.7z M42.4,55.1c-0.5,0-0.8-0.4-0.8-0.8
							c0-0.5,0.4-0.8,0.8-0.8c0.5,0,0.8,0.4,0.8,0.8C43.3,54.7,42.9,55.1,42.4,55.1z M44.1,51.6c-0.3,0-0.6-0.3-0.6-0.6
							c0-0.3,0.3-0.6,0.6-0.6c0.3,0,0.6,0.3,0.6,0.6C44.7,51.3,44.4,51.6,44.1,51.6z M45,47.8c0-0.5,0.4-0.9,0.9-0.9
							c0.5,0,0.9,0.4,0.9,0.9c0,0.5-0.4,0.9-0.9,0.9C45.4,48.7,45,48.3,45,47.8z M46.4,54.1c-0.3,0-0.5-0.2-0.5-0.5
							c0-0.3,0.2-0.5,0.5-0.5c0.3,0,0.5,0.2,0.5,0.5C47,53.9,46.7,54.1,46.4,54.1z M47.1,45c-0.2,0-0.3-0.1-0.3-0.3
							c0-0.2,0.1-0.3,0.3-0.3c0.2,0,0.3,0.1,0.3,0.3C47.4,44.8,47.3,45,47.1,45z M47.4,38.1c-0.4,0-0.8-0.3-0.8-0.8
							c0-0.4,0.3-0.8,0.8-0.8c0.4,0,0.8,0.3,0.8,0.8C48.2,37.7,47.8,38.1,47.4,38.1z"/>
					</g>
				</g>
				<g id="Фигура_300_копия_4">
					<g>
						<path fill-rule="evenodd" clip-rule="evenodd" fill="#FE9652" d="M59.5,14.7l11.1-8.1l-1-1.4l-11.2,8.2l-0.1-0.1
							c-0.1-0.1-0.3-0.2-0.3-0.1c-0.1,0.1,0,0.3,0,0.4l0.1,0.1l-0.8,0.6L57.2,14c-0.1-0.1-0.3-0.2-0.3-0.1c-0.1,0.1,0,0.3,0,0.4
							l0.1,0.1l-1.2,0.9l-0.1-0.1c-0.1-0.1-0.3-0.1-0.4,0c-0.1,0.1,0,0.3,0.1,0.3l0.1,0.1L55,16.8l-0.2-0.1c-0.1,0-0.3,0-0.4,0.1
							c0,0.1,0.1,0.3,0.2,0.3l0.2,0.1l-0.5,1.1l-0.2-0.1c-0.1,0-0.3,0-0.4,0.1c0,0.1,0.1,0.3,0.2,0.3l0.2,0.1l-6.2,15l1.9-0.1
							l5.9-14.2l0.1,0.1c0.1,0,0.3,0,0.3-0.1c0-0.1-0.1-0.3-0.2-0.3L56,19l0.5-1.1l0.2,0.1c0.1,0,0.3,0,0.3-0.1
							c0-0.1-0.1-0.3-0.2-0.3l-0.2-0.1l0.4-0.9l0.1,0.1c0.1,0.1,0.3,0.1,0.4,0c0.1-0.1,0-0.3-0.1-0.3l-0.1,0l0.8-0.6l0.1,0.1
							c0.1,0.1,0.2,0.2,0.3,0.1c0.1-0.1,0-0.3,0-0.4l-0.1-0.1l0.8-0.6l0.1,0.1c0.1,0.1,0.2,0.2,0.3,0.1c0.1-0.1,0-0.3,0-0.4
							L59.5,14.7z"/>
					</g>
				</g>
			</g>
		</g>
	</g>
	<g id="_x31__ряд_копия_3_1_">
		<g id="_x31__копия_4_1_">
			<g id="К_соусам_xA0_Изображение_1_">
			</g>
			<g id="_x31__копия_25_1_">
			</g>
		</g>
		<g id="_x32__копия_3_1_">
			<g id="К_хлебо_булочным_изделиям_xA0_Изображение_1_">
			</g>
			<g id="_x31__копия_19_1_">
				<g id="Фигура_259_копия_2_xA0_Изображение_1_">
				</g>
			</g>
		</g>
		<g id="_x33__копия_3_1_">
			<g id="К_кондитерским_изделиям_xA0_Изображение_1_">
			</g>
			<g id="птироженое_копия_1_">
			</g>
		</g>
		<g id="_x34__копия_3_1_">
			<g id="Для_консерваций_и_солений_xA0_Изображение_1_">
			</g>
			<g id="Группа_9_копия_1_">
				<g id="_x31__банка_1_">
				</g>
			</g>
		</g>
	</g>
</g>
<g id="по_алфавиту_1_" display="none">
	<g id="a_1_" display="inline">
	</g>
	<g id="б_1_" display="inline">
	</g>
	<g id="в_1_" display="inline">
	</g>
	<g id="м_1_" display="inline">
	</g>
	<g id="н_1_" display="inline">
	</g>
	<g id="о_1_" display="inline">
	</g>
	<g id="иконка_3_" display="inline">
	</g>
</g>
<g id="Фигура_750_2_" display="none" enable-background="new    ">
</g>
<g id="Группа_178_2_">
	<g id="иконка_2_">
	</g>
</g>
</svg>
