<?xml version="1.0" encoding="utf-8"?><svg xmlns="http://www.w3.org/2000/svg" width="90" height="70" viewBox="0 0 90 70"><path fill-rule="evenodd" clip-rule="evenodd" fill="#F8DD60" d="M59.9 42.6h-1v3.3c-3.2 2.6-6.6-.1-9.8 3.5-.9 1-1.5 2-1.9 3v-5.2c3.7.2 6.9-.5 9.6-3.5 2.3-2.6 3.4-6 3.2-9.3V30h-1v3.3c-3.2 2.6-6.6-.1-9.8 3.5-.9 1-1.5 2-1.9 3v-5.2c3.7.2 6.9-.5 9.6-3.5 2.3-2.6 3.3-5.8 3.2-9v-7.9h-1v6.6c-3.2 2.6-6.6-.1-9.9 3.5-.9 1-1.5 2-1.9 3v-3.4c2.9-1.9 4.8-3.2 4.8-7 0-5-3.8-7.6-5.3-10.3V1.9h-1v4.6c-1.4 2.6-5.3 5-5.3 10.4 0 3.7 1.9 5.1 4.8 7v3.4c-.4-1-1-2-1.9-3-3.2-3.6-6.7-.9-9.9-3.5v-6.6h-1v8.1c-.1 3.1 1 6.3 3.2 8.8 2.7 3 5.9 3.8 9.6 3.5v5.2c-.4-1-1-2-1.9-3-3.2-3.6-6.7-.9-9.9-3.5V30h-1v4.5c-.2 3.2.9 6.5 3.2 9.1 2.7 3 5.9 3.8 9.6 3.5v5.2c-.4-1-1-2-1.9-3-3.2-3.6-6.7-.9-9.9-3.5v-3.3h-1V47c-.2 3.2.9 6.5 3.2 9.1 2.7 3 5.9 3.8 9.6 3.5v3.1h2v-3.1c3.7.2 6.9-.5 9.6-3.5 2.3-2.6 3.4-6 3.2-9.3v-4.2z"/></svg>