<?xml version="1.0" encoding="utf-8"?>
<!-- Generator: Adobe Illustrator 17.1.0, SVG Export Plug-In . SVG Version: 6.00 Build 0)  -->
<!DOCTYPE svg PUBLIC "-//W3C//DTD SVG 1.1//EN" "http://www.w3.org/Graphics/SVG/1.1/DTD/svg11.dtd">
<svg version="1.1" xmlns="http://www.w3.org/2000/svg" xmlns:xlink="http://www.w3.org/1999/xlink" x="0px" y="0px" width="90px"
	 height="70px" viewBox="0 0 90 70" enable-background="new 0 0 90 70" xml:space="preserve">
<g id="Слой_47__x2B__Слой_0__x2B__Группа_1__x2B__Фигура_1_копия_2_xA0_Изображение_1_" display="none">
	
		<image display="inline" overflow="visible" width="980" height="600" id="Слой_47__x2B__Слой_0__x2B__Группа_1__x2B__Фигура_1_копия_2_xA0_Изображение" xlink:href="15A1C451.png"  transform="matrix(1 0 0 1 -109.0523 -180.6667)">
	</image>
</g>
<g id="Группа_179_1_" display="none">
	<g id="Группа_178_3_" display="inline">
		<g id="Тень_Слой_48_xA0_Изображение_1_">
			
				<image overflow="visible" width="980" height="600" id="Тень_Слой_48_xA0_Изображение" xlink:href="15A1C453.png"  transform="matrix(1 0 0 1 -109.0523 -180.6667)">
			</image>
		</g>
		<g id="Фигура_753_2_" enable-background="new    ">
			<defs>
				<path id="SVGID_1_" enable-background="new    " d="M793.9-582.7l-290,5c-11,0-20,9-20,20l-0.4,62.4l-43.6,47.6l43.3-8.3
					l-0.3,50.3c0,11,9,20,20,20l290,15c11,0,20-9,20-20l1-172C813.9-573.7,805-582.7,793.9-582.7z"/>
			</defs>
			<clipPath id="SVGID_2_">
				<use xlink:href="#SVGID_1_"  overflow="visible"/>
			</clipPath>
			<g clip-path="url(#SVGID_2_)">
				
					<image overflow="visible" width="980" height="600" id="Фигура_753_xA0_Изображение" xlink:href="15A1C456.png"  transform="matrix(1 0 0 1 -109.0523 -180.6667)">
				</image>
			</g>
		</g>
	</g>
</g>
<g id="шапка_сайта_1_">
	<g id="Группа_176_1_">
		<g id="иконки_1_">
			<g id="диалоги_1_" display="none">
			</g>
			<g id="мой_жираф_1_" display="none">
			</g>
		</g>
		<g id="поиск__x2B__добавить_1_">
			<g id="поиск_1_">
			</g>
		</g>
	</g>
</g>
<g id="категории_1_">
	<g id="_x31__ряд_1_">
		<g id="_x31__3_">
			<g id="К_мясу_xA0_Изображение_1_" display="none">
			</g>
		</g>
		<g id="_x32__1_">
			<g id="К_овощам_и_грибам_xA0_Изображение_1_" display="none">
			</g>
			<g id="_x31__копия_20_1_">
			</g>
		</g>
		<g id="_x33__1_">
			<g id="К_крупам_xA0_Изображение_1_" display="none">
			</g>
		</g>
		<g id="_x34__1_">
			<g id="К_рыбе_xA0_Изображение_1_" display="none">
			</g>
			<g id="_x31__копия_18_1_">
			</g>
		</g>
	</g>
	<g id="_x31__ряд_копия_1_">
		<g id="_x31__копия_1_">
			<g id="К_макаронам_xA0_Изображение_1_" display="none">
			</g>
			<g id="_x31__2_">
				<g id="Фигура_270_копия_4">
					<g>
						<path fill-rule="evenodd" clip-rule="evenodd" fill="#107DC2" d="M20.1,56.3c2.5,2.2,5.4,4.7,8.5,6.1h27.6
							c3.1-1.4,5.9-3.9,8.5-6.1H20.1z"/>
					</g>
				</g>
				<g id="Фигура_270_копия_3">
					<g>
						<path fill-rule="evenodd" clip-rule="evenodd" fill="#61BDF7" d="M70.4,34.4v6.5c0,1-0.8,1.8-1.8,1.8c-1,0-1.8-0.8-1.8-1.8
							v-6.5H31.2c0.3,0.3,0.7,0.9,1,1c3.8,2,2.6,5.6,1.9,7.8c-0.4,1.2-0.8,2.4-0.6,3.3c0.2,1-0.4,1.9-1.3,2.1c-0.1,0-0.3,0-0.4,0
							c-0.8,0-1.5-0.6-1.7-1.4c-0.4-1.8,0.2-3.6,0.7-5.2c0.9-2.7,0.8-3.1-0.1-3.6c-2.2-1.2-4-3.7-4.2-4c0,0,0-0.2,0-0.2H8.7
							c0.7,7.5,3.9,14.6,8.6,19.8h50.1c4.8-5.3,7.9-12.4,8.6-19.8H70.4z"/>
					</g>
				</g>
				<g id="Фигура_270_копия_2">
					<g>
						<path fill-rule="evenodd" clip-rule="evenodd" fill="#FFD542" d="M59.6,32.1c-2.4,0.8-4-0.2-6.5-1.8c-2.4-1.6-5.4-3.6-9.5-2.2
							c-2.9,0.9-4.3,2.9-5.3,4.9h4.1c0.6-0.7,1.3-1.2,2.2-1.5c2.2-0.7,3.8,0.1,6,1.5h11C61.3,32.2,60.4,31.8,59.6,32.1z M45.1,21.3
							c0-1-0.8-1.7-1.8-1.7c-1,0-1.7,0.8-1.7,1.8c0.1,2.5-1.4,3.8-3.7,5.6c-1.8,1.4-3.9,3.2-4.6,5.9H37c0.6-1.1,1.7-2,3.1-3.2
							C42.4,27.9,45.2,25.6,45.1,21.3z M86.2,39.9c-2.4-0.5-3.3-2.2-4.6-4.9c-1.2-2.6-2.8-5.9-7-6.8c-2.4-0.5-4.3,0-5.9,0.8
							c-0.3-0.4-0.6-0.8-1-1.1c-3.2-3-6.7-2.4-9.6-2c-2.9,0.4-4.8,0.6-6.6-1.1c-0.7-0.7-1.8-0.6-2.5,0.1c-0.7,0.7-0.6,1.8,0.1,2.5
							c3.2,3,6.7,2.4,9.6,2c2.9-0.5,4.8-0.6,6.6,1.1c0.2,0.2,0.4,0.4,0.5,0.6c-0.2,0.1-0.3,0.3-0.5,0.4c-0.7,0.6-1.4,1.1-2,1.5h6.9
							c0-0.2-0.1-0.4-0.1-0.7c1.1-0.6,2.2-0.9,3.7-0.6c2.4,0.5,3.3,2.2,4.6,4.9c1.2,2.6,2.8,5.9,7,6.8c1,0.2,1.9-0.4,2.1-1.3
							C87.8,41,87.2,40.1,86.2,39.9z M29.4,32.9h0.1c-0.2-0.1-0.4-0.3-0.5-0.4c1.1-1.2,2.3-1.9,4-1.9c1,0,1.8-0.8,1.8-1.8
							c0-1-0.8-1.8-1.8-1.8c-3.1,0-5.1,1.4-6.6,3.1c-2-1.7-4.4-3.3-8-2.8c-2.8,0.5-4.5,2-5.8,3.7c-1.7-2-3.8-4-7.4-4
							c-1,0-1.8,0.8-1.8,1.8c0,1,0.8,1.8,1.8,1.8c1.9,0,3.1,0.8,4.3,2.3h0.6c-0.8,2.2-3.4,5.4-4,5.5c-1,0.2-1.6,1.1-1.5,2
							c0.2,1,1.1,1.5,2,1.5c1.6-0.1,4.7-3.4,7-8.6c0-0.2-0.1-0.3-0.2-0.4h2.2c0.8-1.1,1.8-1.8,3.3-2c2.1-0.3,3.5,0.5,5.2,2
							c0,0,0,0,0,0h4.7c-1.1,0.1-2.6-0.1-3.6,0.1c0.2,0.5,5.3,6,5.4,6.6c0.1,1-1.6,8.3,1,8.6c3.1,0.4,3-7.8,2.9-8.7
							C34.4,38.8,29.9,33.8,29.4,32.9z M70.2,32.9c-1.2,0.3-3.3,0-4.5,0.1c0.2,0.5,0.7,6.1,0.7,6.7c0.1,1-1,5.7,1.5,6
							c3.1,0.4,2.6-5.4,2.5-6.4C70.4,38.7,70.4,33.5,70.2,32.9z"/>
					</g>
				</g>
			</g>
		</g>
		<g id="_x32__копия_1_">
			<g id="К_бобовым_xA0_Изображение_1_" display="none">
			</g>
		</g>
		<g id="_x33__копия_1_">
			<g id="К_салатам_xA0_Изображение_1_" display="none">
			</g>
			<g id="_x31__копия_23_1_">
				<g id="Фигура_302_xA0_Изображение_1_">
				</g>
			</g>
		</g>
		<g id="_x34__копия_1_">
			<g id="К_маринадам_xA0_Изображение_1_" display="none">
			</g>
			<g id="_x31__копия_28_1_">
			</g>
		</g>
	</g>
	<g id="_x31__ряд_копия_2_1_">
		<g id="_x31__копия_2_1_">
			<g id="К_птице_xA0_Изображение_1_">
			</g>
		</g>
		<g id="_x32__копия_2_1_">
			<g id="К_супам_xA0_Изображение_1_">
			</g>
		</g>
		<g id="_x33__копия_2_1_">
			<g id="Для_варений_xA0_Изображение_1_">
			</g>
			<g id="_x31__копия_30_1_">
			</g>
		</g>
		<g id="_x34__копия_2_1_">
			<g id="К_напиткам_xA0_Изображение_1_">
			</g>
			<g id="_x31__копия_31_1_">
			</g>
		</g>
	</g>
	<g id="_x31__ряд_копия_3_1_">
		<g id="_x31__копия_4_1_">
			<g id="К_соусам_xA0_Изображение_1_">
			</g>
			<g id="_x31__копия_25_1_">
			</g>
		</g>
		<g id="_x32__копия_3_1_">
			<g id="К_хлебо_булочным_изделиям_xA0_Изображение_1_">
			</g>
			<g id="_x31__копия_19_1_">
				<g id="Фигура_259_копия_2_xA0_Изображение_1_">
				</g>
			</g>
		</g>
		<g id="_x33__копия_3_1_">
			<g id="К_кондитерским_изделиям_xA0_Изображение_1_">
			</g>
			<g id="птироженое_копия_1_">
			</g>
		</g>
		<g id="_x34__копия_3_1_">
			<g id="Для_консерваций_и_солений_xA0_Изображение_1_">
			</g>
			<g id="Группа_9_копия_1_">
				<g id="_x31__банка_1_">
				</g>
			</g>
		</g>
	</g>
</g>
<g id="по_алфавиту_1_" display="none">
	<g id="a_1_" display="inline">
	</g>
	<g id="б_1_" display="inline">
	</g>
	<g id="в_1_" display="inline">
	</g>
	<g id="м_1_" display="inline">
	</g>
	<g id="н_1_" display="inline">
	</g>
	<g id="о_1_" display="inline">
	</g>
	<g id="иконка_3_" display="inline">
	</g>
</g>
<g id="Фигура_750_2_" display="none" enable-background="new    ">
</g>
<g id="Группа_178_2_">
	<g id="иконка_2_">
	</g>
</g>
</svg>
