<?xml version="1.0" encoding="utf-8"?>
<!-- Generator: Adobe Illustrator 17.1.0, SVG Export Plug-In . SVG Version: 6.00 Build 0)  -->
<!DOCTYPE svg PUBLIC "-//W3C//DTD SVG 1.1//EN" "http://www.w3.org/Graphics/SVG/1.1/DTD/svg11.dtd">
<svg version="1.1" xmlns="http://www.w3.org/2000/svg" xmlns:xlink="http://www.w3.org/1999/xlink" x="0px" y="0px" width="90px"
	 height="70px" viewBox="0 0 90 70" enable-background="new 0 0 90 70" xml:space="preserve">
<g id="Слой_47__x2B__Слой_0__x2B__Группа_1__x2B__Фигура_1_копия_2_xA0_Изображение_1_" display="none">
	
		<image display="inline" overflow="visible" width="980" height="600" id="Слой_47__x2B__Слой_0__x2B__Группа_1__x2B__Фигура_1_копия_2_xA0_Изображение" xlink:href="E776C774.png"  transform="matrix(1 0 0 1 -339.25 -36.6276)">
	</image>
</g>
<g id="Группа_179_1_" display="none">
	<g id="Группа_178_3_" display="inline">
		<g id="Тень_Слой_48_xA0_Изображение_1_">
			
				<image overflow="visible" width="980" height="600" id="Тень_Слой_48_xA0_Изображение" xlink:href="E776C775.png"  transform="matrix(1 0 0 1 -339.25 -36.6276)">
			</image>
		</g>
		<g id="Фигура_753_2_" enable-background="new    ">
			<defs>
				<path id="SVGID_1_" enable-background="new    " d="M563.7-438.6l-290,5c-11,0-20,9-20,20l-0.4,62.4l-43.6,47.6l43.3-8.3
					l-0.3,50.3c0,11,9,20,20,20l290,15c11,0,20-9,20-20l1-172C583.7-429.7,574.8-438.6,563.7-438.6z"/>
			</defs>
			<clipPath id="SVGID_2_">
				<use xlink:href="#SVGID_1_"  overflow="visible"/>
			</clipPath>
			<g clip-path="url(#SVGID_2_)">
				
					<image overflow="visible" width="980" height="600" id="Фигура_753_xA0_Изображение" xlink:href="E776C773.png"  transform="matrix(1 0 0 1 -339.25 -36.6276)">
				</image>
			</g>
		</g>
	</g>
</g>
<g id="шапка_сайта_1_">
	<g id="Группа_176_1_">
		<g id="иконки_1_">
			<g id="диалоги_1_" display="none">
			</g>
			<g id="мой_жираф_1_" display="none">
			</g>
		</g>
		<g id="поиск__x2B__добавить_1_">
			<g id="поиск_1_">
			</g>
		</g>
	</g>
</g>
<g id="категории_1_">
	<g id="_x31__ряд_1_">
		<g id="_x31__3_">
			<g id="К_мясу_xA0_Изображение_1_" display="none">
			</g>
		</g>
		<g id="_x32__1_">
			<g id="К_овощам_и_грибам_xA0_Изображение_1_" display="none">
			</g>
			<g id="_x31__копия_20_1_">
				<g id="Фигура_263_копия">
					<g>
						<path fill-rule="evenodd" clip-rule="evenodd" fill="#C77946" d="M23,58.7c-0.6,0.3-1.3,0.5-1.9,0.6c-0.6,0.1-1.3,0-1.8-0.3
							c-1.1-0.5-2-1.6-2.7-2.7c-0.7-1.1-1.1-2.4-1.4-3.7c-0.4-2.6-0.1-5.3,0.9-7.8c1-2.5,2.6-4.7,4.7-6.3c2.1-1.7,4.6-2.8,7.2-3.2
							c2.6-0.4,5.4-0.2,7.8,0.9c1.2,0.5,2.3,1.3,3.2,2.3c0.4,0.5,0.8,1,1.1,1.6c0.3,0.6,0.4,1.2,0.3,1.8c-0.1,0.6-0.3,1.2-0.6,1.8
							c-0.3,0.6-0.7,1.1-1.2,1.7c-0.4,0.5-0.9,1.1-1.4,1.6c-0.5,0.5-1,1-1.5,1.5c1.1-0.8,2.2-1.7,3.3-2.7c0.4-0.3,0.7-0.7,1-1.1
							c0.5-0.5,0.9-1.1,1.3-1.7c0.5-0.8,0.8-1.7,1-2.7c0.2-0.9,0.2-1.9,0-2.9c-0.3-1.9-1.3-3.6-2.5-5.1c-1.2-1.5-2.7-2.7-4.4-3.7
							c-0.8-0.5-1.7-0.9-2.6-1.2c-0.9-0.3-1.8-0.5-2.8-0.7c-1.9-0.3-3.8-0.4-5.7-0.1c-3.8,0.5-7.5,1.9-10.5,4.4
							c-1.5,1.2-2.8,2.7-3.8,4.2c-1.1,1.6-2,3.3-2.6,5.1c-0.6,1.8-1,3.7-1.1,5.6c-0.1,1.9,0.1,3.9,0.8,5.7c0.6,1.8,1.6,3.5,2.9,4.9
							c1.3,1.4,2.8,2.6,4.5,3.4c1.7,0.8,3.7,1.2,5.5,0.8c0.9-0.2,1.8-0.5,2.6-0.9c0.6-0.4,1.2-0.8,1.8-1.3c0.8-0.6,1.4-1.2,2.1-1.9
							c-0.6,0.4-1.1,0.8-1.7,1.2C24.2,58.1,23.6,58.4,23,58.7z M42,50.7c-3.4-2-7,1.9-12-5.1c0.1-0.1,0.2-0.2,0.3-0.2
							c0.2-0.2,0.5-0.4,0.8-0.5c0.6-0.3,1.2-0.5,1.9-0.6c1.3-0.3,2.7-0.2,4.1,0c-1.3-0.4-2.7-0.7-4.2-0.7c-0.7,0-1.5,0.1-2.2,0.4
							c-0.4,0.1-0.7,0.3-1.1,0.5c-0.1,0.1-0.2,0.1-0.3,0.2c-0.3-0.2-0.6-0.3-0.9-0.4c0-0.1,0-0.2,0-0.3c0-0.2,0-0.3-0.1-0.5
							c0-0.3,0-0.6,0-1c0.1-0.6,0.2-1.3,0.5-1.9c0.3-0.6,0.6-1.2,1.1-1.7c0.5-0.5,1-0.9,1.6-1.3c-0.6,0.3-1.3,0.6-1.8,1
							c-0.6,0.4-1.1,1-1.5,1.6c-0.4,0.6-0.7,1.3-0.9,2c-0.1,0.4-0.2,0.7-0.2,1.1c0,0.2,0,0.4,0,0.6c0,0.1,0,0.2,0,0.4
							c-0.4,0.1-0.8,0.4-1.1,0.6c-0.3-0.3-0.7-0.6-1-0.8c-0.5-0.4-1-0.7-1.6-1c-1.1-0.6-2.2-1.2-3.3-1.6c1.1,0.6,2,1.3,2.9,2.1
							c0.4,0.4,0.9,0.8,1.3,1.3c0.3,0.3,0.6,0.7,0.8,1c-0.7,0.9-1.1,2.1-0.9,3.3c-0.1,0-0.2,0.1-0.3,0.1c-0.3,0.1-0.6,0.3-0.9,0.4
							c-0.6,0.3-1.1,0.7-1.6,1.2c-0.5,0.5-0.9,1-1.2,1.6c-0.3,0.6-0.5,1.2-0.6,1.8c0.2-0.6,0.5-1.1,0.9-1.6c0.4-0.5,0.8-0.9,1.3-1.2
							c0.5-0.3,1-0.6,1.6-0.8c0.3-0.1,0.6-0.2,0.9-0.2c0.1,0,0.2,0,0.3-0.1c1.6,4.4,5.1,8,10.4,10.3c2.9,1.3,6.8,1.3,8.8-1.8
							C45.7,56,44.7,52.3,42,50.7z M41.9,57.5c-1.1,1.6-2.7,1.9-3.9,1.9c-1,0-2.1-0.2-3-0.7c-5-2.3-8.2-5.6-9.5-9.8
							c-0.4-1.3,0.1-2.3,0.5-2.8c0.6-0.8,1.5-1.3,2-1.2c0.3,0,0.4,0.1,0.4,0.2c3.2,4.8,6.1,5.5,8.7,5.5c0.3,0,0.5,0,0.8,0
							c0.2,0,0.4,0,0.7,0c0.9,0,1.6,0.1,2.2,0.5c1,0.6,1.7,1.6,1.9,2.7C42.9,55.1,42.6,56.4,41.9,57.5z"/>
					</g>
				</g>
				<g id="Фигура_264_копия">
					<g>
						<path fill-rule="evenodd" clip-rule="evenodd" fill="#6B5B87" d="M70.6,13.6c-0.1-0.1-0.1-0.1-0.2-0.2
							c-1.4-0.3-3.2-0.6-4.3-0.3c0.6,1.3,0.7,2.8,0.4,4.4l-0.2,1.1l-1.1,0.2c-1.6,0.2-3.1,0-4.4-0.6c-0.5,0.8-0.5,2.9-0.3,4.3
							c4.3,10.1-20.9,24.1-7.9,37.4c7,7.1,19.2,1.4,25.3-8.9C83.1,42,84.4,27.4,70.6,13.6z"/>
					</g>
				</g>
				<g id="Фигура_264_копия_3">
					<g>
						<path fill-rule="evenodd" clip-rule="evenodd" fill="#FFFFFF" d="M67.6,24.1c-2.9-2.3-3.2,1.7-4,4.7
							c-2.6,9.6-15.9,18.6-9.1,26.6c4.2,5.1,12.4,4.5,17.5-5.6C75.1,43.7,74.4,29.5,67.6,24.1z"/>
					</g>
				</g>
				<g id="Фигура_264_копия_2">
					<g>
						<path fill-rule="evenodd" clip-rule="evenodd" fill="#33B11A" d="M68.9,10.8c-2.4-2.6-6.3-3-9.2-1.1c-1-0.9-2.2-1.7-3.6-1.9
							c-1-0.1-2.6,0.1-4.1,1.6c-0.5,0.5-0.5,1.3,0,1.7c0.5,0.5,1.2,0.4,1.7,0c0.7-0.7,1.3-1,2-0.9c0.7,0.1,1.5,0.5,2.1,1.1
							c-2.1,2.8-2,6.8,0.5,9.4c2.3,2.4-0.5-1.9,1.5-5.4c0.1,0.1,0.1,0.2,0.2,0.2c1.2,1.3,3,1.8,4.8,1.5c0.4-1.8,0-3.6-1.3-4.9
							c-0.1-0.1-0.2-0.2-0.2-0.2C66.9,10.3,71.2,13.2,68.9,10.8z"/>
					</g>
				</g>
			</g>
		</g>
		<g id="_x33__1_">
			<g id="К_крупам_xA0_Изображение_1_" display="none">
			</g>
		</g>
		<g id="_x34__1_">
			<g id="К_рыбе_xA0_Изображение_1_" display="none">
			</g>
			<g id="_x31__копия_18_1_">
			</g>
		</g>
	</g>
	<g id="_x31__ряд_копия_1_">
		<g id="_x31__копия_1_">
			<g id="К_макаронам_xA0_Изображение_1_" display="none">
			</g>
			<g id="_x31__2_">
			</g>
		</g>
		<g id="_x32__копия_1_">
			<g id="К_бобовым_xA0_Изображение_1_" display="none">
			</g>
		</g>
		<g id="_x33__копия_1_">
			<g id="К_салатам_xA0_Изображение_1_" display="none">
			</g>
			<g id="_x31__копия_23_1_">
				<g id="Фигура_302_xA0_Изображение_1_">
				</g>
			</g>
		</g>
		<g id="_x34__копия_1_">
			<g id="К_маринадам_xA0_Изображение_1_" display="none">
			</g>
			<g id="_x31__копия_28_1_">
			</g>
		</g>
	</g>
	<g id="_x31__ряд_копия_2_1_">
		<g id="_x31__копия_2_1_">
			<g id="К_птице_xA0_Изображение_1_">
			</g>
		</g>
		<g id="_x32__копия_2_1_">
			<g id="К_супам_xA0_Изображение_1_">
			</g>
		</g>
		<g id="_x33__копия_2_1_">
			<g id="Для_варений_xA0_Изображение_1_">
			</g>
			<g id="_x31__копия_30_1_">
			</g>
		</g>
		<g id="_x34__копия_2_1_">
			<g id="К_напиткам_xA0_Изображение_1_">
			</g>
			<g id="_x31__копия_31_1_">
			</g>
		</g>
	</g>
	<g id="_x31__ряд_копия_3_1_">
		<g id="_x31__копия_4_1_">
			<g id="К_соусам_xA0_Изображение_1_">
			</g>
			<g id="_x31__копия_25_1_">
			</g>
		</g>
		<g id="_x32__копия_3_1_">
			<g id="К_хлебо_булочным_изделиям_xA0_Изображение_1_">
			</g>
			<g id="_x31__копия_19_1_">
				<g id="Фигура_259_копия_2_xA0_Изображение_1_">
				</g>
			</g>
		</g>
		<g id="_x33__копия_3_1_">
			<g id="К_кондитерским_изделиям_xA0_Изображение_1_">
			</g>
			<g id="птироженое_копия_1_">
			</g>
		</g>
		<g id="_x34__копия_3_1_">
			<g id="Для_консерваций_и_солений_xA0_Изображение_1_">
			</g>
			<g id="Группа_9_копия_1_">
				<g id="_x31__банка_1_">
				</g>
			</g>
		</g>
	</g>
</g>
<g id="по_алфавиту_1_" display="none">
	<g id="a_1_" display="inline">
	</g>
	<g id="б_1_" display="inline">
	</g>
	<g id="в_1_" display="inline">
	</g>
	<g id="м_1_" display="inline">
	</g>
	<g id="н_1_" display="inline">
	</g>
	<g id="о_1_" display="inline">
	</g>
	<g id="иконка_3_" display="inline">
	</g>
</g>
<g id="Фигура_750_2_" display="none" enable-background="new    ">
</g>
<g id="Группа_178_2_">
	<g id="иконка_2_">
	</g>
</g>
</svg>
