<?xml version="1.0" encoding="utf-8"?>
<!-- Generator: Adobe Illustrator 17.1.0, SVG Export Plug-In . SVG Version: 6.00 Build 0)  -->
<!DOCTYPE svg PUBLIC "-//W3C//DTD SVG 1.1//EN" "http://www.w3.org/Graphics/SVG/1.1/DTD/svg11.dtd">
<svg version="1.1" id="Слой_1" xmlns:ev="http://www.w3.org/2001/xml-events"
	 xmlns="http://www.w3.org/2000/svg" xmlns:xlink="http://www.w3.org/1999/xlink" x="0px" y="0px" width="90px" height="75px"
	 viewBox="-1.6 1.1 90 75" enable-background="new -1.6 1.1 90 75" xml:space="preserve">
<g>
	<path fill="#FDE4A9" d="M10.4,59.9L10.2,51v-5.5v-3.4l-3.4-2.7l0.9-4.6c0,0,2.1-0.5,3-0.5s6.8,0,6.8,0h6.2l6.2,0.2l5.3,0.9l4.1,1.6
		v2.7l-0.5,2.7L37.4,44l-2.1,0.5l0.2,16.9c0,0,0,1.4-1.1,1.4c-1.2,0.1-8.5,0.5-8.5,0.5l-8.7-0.9l-4.7-1.1L10.4,59.9z"/>
	<path fill="#C77946" d="M48.4,37.2c-0.5,0.5-1.2,0.9-1.9,1v14.3c0,1.1-0.5,2.1-1.3,2.8l-9.3,8.5l0,0c-0.7,0.6-1.6,1-2.6,1
		c-0.1,0-0.2,0-0.3,0l-20.3-1.7c-2.2-0.2-3.9-2-3.9-4.2v-16c-1.9-0.4-3.3-2.1-3.3-4.1v-2.3c0-1.5,0.8-2.9,2.1-3.5l0,0l11.7-5.6
		c0.2-0.2,0.5-0.3,0.8-0.4l0,0l0,0c0.4-0.1,0.7-0.2,1.2-0.2c0.1,0,0.2,0,0.3,0l24.3,2c2,0.2,3.5,1.8,3.5,3.8v2.1
		C49.5,35.7,49.1,36.6,48.4,37.2z M38,39c0-0.9-0.7-1.7-1.6-1.8L9.7,35c-0.9-0.1-1.6,0.6-1.6,1.5v2.3c0,0.9,0.7,1.7,1.6,1.8
		c1,0.1,1.6,0.8,1.6,1.8c0,4.1,0,16.5,0,16.5c0,0.9,0.7,1.7,1.6,1.8l20.2,1.6c0.9,0.1,1.6-0.6,1.6-1.5c0,0,0-12.4,0-16.5
		c0-1,0.6-1.6,1.6-1.6c0.9,0.1,1.6-0.6,1.6-1.5L38,39L38,39z M29.5,55.6c-0.3,0-0.6-0.3-0.6-0.6s0.3-0.6,0.6-0.6
		c0.3,0,0.6,0.3,0.6,0.6S29.8,55.6,29.5,55.6z M26.1,47.4c-0.7,0-1.2-0.6-1.2-1.2c0-0.7,0.6-1.2,1.2-1.2c0.7,0,1.2,0.6,1.2,1.2
		C27.3,46.8,26.8,47.4,26.1,47.4z M23.9,40.2c-0.5,0-0.9-0.4-0.9-0.9s0.4-0.9,0.9-0.9s0.9,0.4,0.9,0.9S24.4,40.2,23.9,40.2z
		 M20,51.2c-0.4,0-0.8-0.3-0.8-0.8c0-0.4,0.3-0.8,0.8-0.8c0.4,0,0.8,0.3,0.8,0.8C20.7,50.8,20.4,51.2,20,51.2z M20.1,57
		c0,0.9-0.7,1.6-1.6,1.6s-1.6-0.7-1.6-1.6c0-0.9,0.7-1.6,1.6-1.6S20.1,56.1,20.1,57z M16.8,44.8c-0.8,0-1.4-0.6-1.4-1.4
		S16,42,16.8,42s1.4,0.6,1.4,1.4S17.6,44.8,16.8,44.8z"/>
	<path fill="#FFCB5A" stroke="#FFFFFF" stroke-width="2" stroke-miterlimit="10" d="M86.2,37.1c-2-3.8-7.6-5.6-14-4.3
		c1.3,0.6,2.8,1.1,4,2.1c0.7,0.5,0.8,1.5,0.3,2.1c-0.3,0.4-0.7,0.6-1.2,0.6c-0.3,0-0.6-0.1-0.9-0.3c-3.6-2.8-7.4-3.2-10.6-2.5
		c-1.4,0.3-4.8,2.2-5.1,2.3c0,0,0,0-0.1,0c3.3,0.3,6.6,1.8,8.9,4.4c0.5,0.6,0.5,1.6-0.1,2.1c-0.3,0.3-0.6,0.4-1,0.4
		s-0.8-0.2-1.1-0.5c-3.2-3.6-9.1-5-13-2.4c-2.2,1.4-2.7,2.7-3.2,4.9c4.8-1.2,8,0.1,11.2,4c0.5,0.6,0.4,1.6-0.2,2.1
		c-0.6,0.5-1.6,0.4-2.1-0.2c-3.5-4.2-10.7-5.9-14.5-1.1c-2,3.2-2,6.4-0.7,8.9c3.3,6.3,15.6,6.3,27.6,0S89.5,43.3,86.2,37.1z"/>
</g>
</svg>
