<?xml version="1.0" encoding="utf-8"?><svg xmlns="http://www.w3.org/2000/svg" width="90" height="70" viewBox="0 0 90 70"><path fill-rule="evenodd" clip-rule="evenodd" fill="#F86F14" d="M57.4 51.4c-3.6 3.2-5.7 6.8-4.7 7.9 1 1.1 4.7-.6 8.4-3.8 3.6-3.2 5.7-6.8 4.7-7.9-1.1-1.2-4.8.5-8.4 3.8zm2.6 2.9c-1.6 1.4-3.2 2.2-3.7 1.7-.4-.5.5-2 2.1-3.4s3.2-2.2 3.7-1.7c.4.4-.5 2-2.1 3.4zM34.1 20.8l-7.7-8.6s0 0 .1-.1c2.3-2.1 2.5-5.6.4-7.9-2.1-2.3-5.6-2.5-7.9-.4-.9.8-1.4 1.7-1.7 2.8-1.1.1-2.1.6-3 1.4-2.3 2.1-2.5 5.6-.4 7.9 2.1 2.3 5.6 2.5 7.9.4 0 0 0 0 .1-.1l7.7 8.6c3.4 4-4.9 21.4 14.3 42.9-2.4-2.7 2.7-11.1 11.3-18.8 8.6-7.7 17.5-11.8 19.9-9.1-20.9-23.4-36.7-14.4-41-19zm-5.5.5L22.1 14l-1.2 1s0 0-.1.1c-1.7 1.5-4.2 1.3-5.7-.3-1.5-1.7-1.3-4.2.3-5.7.5-.5 1.1-.8 1.7-.9.5-.1 1.1-.1 1.6-.1 0-.5.1-1.1.2-1.6.2-.6.6-1.2 1.1-1.6 1.7-1.5 4.2-1.3 5.7.3 1.5 1.7 1.3 4.2-.3 5.7 0 0 0 0-.1.1l-1.2 1.1 6.5 7.3-2 1.9zm37.2 16.3c-.3.3-.6.4-1 .4-.5 0-.9-.1-1.3-.5-4-4.4-10.8-7.7-15.4-8.6-.9-.2-1.4-1-1.2-1.9.2-.9 1-1.4 1.9-1.2 5 1 12.5 4.5 17.1 9.6.6.6.6 1.6-.1 2.2z"/></svg>