<?xml version="1.0" encoding="utf-8"?><svg xmlns="http://www.w3.org/2000/svg" width="90" height="70" viewBox="0 0 90 70"><g fill-rule="evenodd" clip-rule="evenodd"><ellipse fill="#60C93F" cx="33.5" cy="55" rx="6.9" ry="2.5"/><ellipse transform="matrix(.603 -.798 .798 .603 -30.563 37.81)" fill="#60C93F" cx="22.7" cy="49.6" rx="6.9" ry="2.5"/><ellipse transform="matrix(.575 -.818 .818 .575 -22.565 52.14)" fill="#60C93F" cx="38.9" cy="47.8" rx="2.5" ry="6.9"/><circle fill="#60C93F" cx="30.1" cy="47.8" r="3.8"/><circle fill="#60C93F" cx="22.9" cy="40.6" r="3.8"/><circle fill="#F35321" cx="31.9" cy="38.8" r="3.8"/><circle fill="#60C93F" cx="40.9" cy="38.8" r="3.8"/><circle fill="#F35321" cx="40.9" cy="46" r="3.8"/><circle fill="#60C93F" cx="39.1" cy="53.2" r="3.8"/><circle fill="#F35321" cx="31.9" cy="56.8" r="3.8"/><circle fill="#60C93F" cx="24.7" cy="53.2" r="3.8"/><circle fill="#60C93F" cx="24.7" cy="44.2" r="3.8"/><circle fill="#F35321" cx="31.9" cy="40.6" r="3.8"/><circle fill="#60C93F" cx="39.1" cy="55" r="3.8"/><circle fill="#60C93F" cx="24.7" cy="55" r="3.8"/><circle fill="#60C93F" cx="35.5" cy="42.4" r="3.8"/><path fill="#75C6F9" d="M19.7 25.6h24.9v1.9H19.7z"/><path fill="#61BDF7" d="M45 24.3c-1.1-1.5-2.8-2.6-4.6-3.1-.3-.1-.5-.2-.6-.4-.1-.2-.2-.4-.2-.7v-.8c0-.8-.6-1.4-1.4-1.4-.8 0-1.4.6-1.4 1.4v.8c0 .9.3 1.7.8 2.4s1.2 1.2 2.1 1.4c1.3.3 2.4 1.1 3.1 2.1.8 1 1.2 2.2 1.2 3.6v23.6c0 1.6-.7 3.1-1.7 4.1-1.1 1.1-2.5 1.7-4.1 1.7H25.3c-1.6 0-3.1-.7-4.1-1.7-1.1-1.1-1.7-2.5-1.7-4.1V29.6c0-1.3.5-2.6 1.2-3.6.8-1 1.9-1.8 3.1-2.1.9-.2 1.6-.7 2.1-1.4s.8-1.5.8-2.4v-.8c0-.8-.6-1.4-1.4-1.4-.8 0-1.4.6-1.4 1.4v.8c0 .3-.1.5-.2.7-.1.2-.4.3-.6.4-1.9.5-3.5 1.6-4.6 3.1-1.1 1.5-1.8 3.3-1.8 5.2v23.6c0 2.4 1 4.5 2.5 6.1 1.6 1.6 3.7 2.5 6.1 2.5h12.8c2.4 0 4.5-1 6.1-2.5 1.6-1.6 2.5-3.7 2.5-6.1V29.6c0-2-.6-3.8-1.7-5.3zm-21.3-7.4h16c.8 0 1.4-.6 1.4-1.4 0-.8-.6-1.4-1.4-1.4h-16c-.8 0-1.4.6-1.4 1.4 0 .8.6 1.4 1.4 1.4z"/><circle fill="#FADD17" cx="56.9" cy="47.9" r="3.3"/><circle fill="#ED9707" cx="60.2" cy="39.6" r="3.3"/><circle fill="#FECC1E" cx="60.2" cy="46.9" r="3.3"/><circle fill="#FECC1E" cx="65.6" cy="37.8" r="3.3"/><circle fill="#FEE488" cx="72.8" cy="45" r="3.3"/><circle fill="#FECC1E" cx="65.6" cy="45" r="3.3"/><circle fill="#FC8526" cx="67.4" cy="52.3" r="3.3"/><circle fill="#FECD21" cx="58.4" cy="52.3" r="3.3"/><circle fill="#F35321" cx="53" cy="48.7" r="3.3"/><circle fill="#ED9707" cx="62" cy="57.7" r="3.3"/><circle fill="#FECC1E" cx="65.2" cy="46.2" r="3.3"/><circle fill="#ED9707" cx="70.1" cy="39.6" r="3.3"/><circle fill="#FECC1E" cx="71.8" cy="49.5" r="3.3"/><circle fill="#FECC1E" cx="70.1" cy="57.8" r="3.3"/><circle fill="#FECC1E" cx="63.5" cy="54.5" r="3.3"/><circle fill="#ED9707" cx="55.3" cy="56.1" r="3.3"/><circle fill="#ED9707" cx="53.6" cy="41.3" r="3.3"/><path fill="#37B4DD" d="M75.4 27.8c-1-1.4-2.5-2.4-4.2-2.8-.2-.1-.4-.2-.6-.4-.1-.2-.2-.4-.2-.6v-.7c0-.7-.6-1.3-1.3-1.3-.7 0-1.3.6-1.3 1.3v.7c0 .8.3 1.6.7 2.2.5.6 1.1 1.1 1.9 1.3 1.1.3 2.1 1 2.8 1.9.7.9 1.1 2 1.1 3.2V54c0 1.5-.6 2.8-1.6 3.8s-2.3 1.6-3.8 1.6H57.5c-1.5 0-2.8-.6-3.8-1.6s-1.6-2.3-1.6-3.8V32.5c0-1.2.4-2.3 1.1-3.2.7-.9 1.7-1.6 2.8-1.9.8-.2 1.4-.7 1.9-1.3.5-.6.7-1.4.7-2.2v-.7c0-.7-.6-1.3-1.3-1.3-.7 0-1.3.6-1.3 1.3v.7c0 .2-.1.5-.2.6-.1.2-.3.3-.6.4-1.7.5-3.1 1.5-4.2 2.8-1 1.3-1.6 3-1.6 4.8V54c0 2.2.9 4.1 2.3 5.5 1.4 1.4 3.4 2.3 5.5 2.3h11.6c2.2 0 4.1-.9 5.5-2.3 1.4-1.4 2.3-3.4 2.3-5.5V32.5c.4-1.7-.2-3.4-1.2-4.7zM56 21h14.6c.7 0 1.3-.6 1.3-1.3 0-.7-.6-1.3-1.3-1.3H56c-.7 0-1.3.6-1.3 1.3.1.7.6 1.3 1.3 1.3z"/><path fill="#69C3FD" d="M54.7 27.5h16.9v1.2H54.7z"/></g></svg>