<?xml version="1.0" encoding="utf-8"?><svg xmlns="http://www.w3.org/2000/svg" xmlns:xlink="http://www.w3.org/1999/xlink" width="90" height="70" viewBox="0 0 90 70"><path fill-rule="evenodd" clip-rule="evenodd" fill="#EE6911" d="M64.5 32c1.3-1.6 3.1-2.5 4.8-3-1.7-2.7-5.9-3.9-9.4-2.8.2 1.2.4 2.3.6 3.3 1.8.6 3.2 1.6 4 2.5zm-13.9-.3c.8-.8 6-1.6 7.6-2.1-.1-1-.9-2-1.2-3.1-2.9-.7-9.1-.6-11.5 2.3 1.8.4 3.7 1.3 5.1 2.9zm21.1-1.2c-2.3.3-5.5 1.3-6.7 4.3-.1.2-.2.3-.4.4 3.7 1.6 6 4 6 4 .3.4.3.9 0 1.3-.4.3-.9.3-1.3 0-.2-.2-3.1-3.2-7.5-4.4-1.3.2-2.8.4-4.5.4-1.5 0-2.8-.1-4-.3-2.4.7-4.9 2.1-7.6 4.4-.2.2-.4.2-.6.2-.3 0-.5-.1-.7-.3-.3-.4-.3-.9.1-1.3 2.1-1.8 4.1-3.1 6-3.9-.7-.4-1.1-.9-1.1-1.6 0-.1 0-.2 0-.3-1.6-2.6-4.7-3.1-6.8-3.1-6.2 2.8-8.7 8.8-8.7 14.9 0 2.4.6 4.7 1.6 6.8C37 55.9 41.1 63.3 50 65.2c0 0 20.9 4 28.1-12.8 1.1-2.2 1.8-4.6 1.8-7.2.2-6-2.9-12.7-8.2-14.7zM45.3 57.1c-.4.6-1.1.8-1.7.6-.2-.1-.5-.2-.7-.4-4.7-4.4-5-11.6-5.1-11.9 0-1 .7-1.9 1.6-2 .9-.1 1.7.6 1.8 1.6 0 .1.3 5.9 4 9.4.7.8.8 2 .1 2.7z"/><image overflow="visible" width="31" height="25" xlink:href="89BE6CE0.png" transform="translate(43.667 19.667)"/><path fill-rule="evenodd" clip-rule="evenodd" fill="#42B037" d="M20.2 65.3c.1.4.4.8.9 1 .7.3 1.5-.1 1.8-.8.1-.1.1-.3.1-.4-.2.1-.4.1-.5.2-.8.1-1.5.2-2.3 0zm23-53.5c.3-.3.4-.8.3-1.2-.2-.8-.9-1.2-1.7-1.1-.1 0-.3.1-.4.2.2.1.3.2.4.3.6.5 1.1 1.1 1.4 1.8zm-13 .3C18.7 23.8 12.7 39.9 13.8 56.3c.4 5.7 4.7 9.4 8.5 8.4 3.8-1.1 6-5.2 5.7-9.3C27.2 43 31.7 30.9 40.4 22c2.8-2.9 3.9-7.5 1.7-10.8-2.2-3.2-7.9-3.2-11.9.9zM20 35c1 0 1.8.8 1.8 1.8s-.8 1.8-1.8 1.8-1.8-.8-1.8-1.8c-.1-.9.7-1.8 1.8-1.8zm-2.2 8.7c1 0 1.8.8 1.8 1.8s-.8 1.8-1.8 1.8-1.8-.8-1.8-1.8c-.1-1 .8-1.8 1.8-1.8zm0 12.4c-1 0-1.8-.8-1.8-1.8s.8-1.8 1.8-1.8 1.8.8 1.8 1.8-.8 1.8-1.8 1.8zm2.2-4.3c-1 0-1.8-.8-1.8-1.8s.8-1.8 1.8-1.8 1.8.8 1.8 1.8c0 .9-.8 1.8-1.8 1.8zm2.1-8.7c-1 0-1.8-.8-1.8-1.8s.8-1.8 1.8-1.8 1.8.8 1.8 1.8c.1.9-.8 1.8-1.8 1.8zm2.2-8.7c-1 0-1.8-.8-1.8-1.8s.8-1.8 1.8-1.8 1.8.8 1.8 1.8-.8 1.8-1.8 1.8zm0-6.5c-1 0-1.8-.8-1.8-1.8s.8-1.8 1.8-1.8 1.8.8 1.8 1.8-.8 1.8-1.8 1.8zm2.2-6.5c-1 0-1.8-.8-1.8-1.8s.8-1.8 1.8-1.8 1.8.8 1.8 1.8-.8 1.8-1.8 1.8zm4.3 2.1c-1 0-1.8-.8-1.8-1.8s.8-1.8 1.8-1.8 1.8.8 1.8 1.8-.8 1.8-1.8 1.8zm0-6.5c-1 0-1.8-.8-1.8-1.8s.8-1.8 1.8-1.8 1.8.8 1.8 1.8-.8 1.8-1.8 1.8z"/></svg>