<?xml version="1.0" encoding="utf-8"?><svg xmlns="http://www.w3.org/2000/svg" width="90" height="70" viewBox="0 0 90 70"><g fill-rule="evenodd" clip-rule="evenodd"><path fill="#FAD450" d="M79.5 18.1c-.4-.5-2.2-1.3-2.7-.9 0 0-.8.4-1.5 1L55 30.6h5.4l18.9-10.8c.5-.4.6-1.1.2-1.7z"/><path fill="#B78ECA" d="M55.7 57.7H33c-1 0-1.7.8-1.7 1.7 0 1 .8 2.2 1.7 2.2h22.7c1 0 1.7-1.2 1.7-2.2 0-.9-.8-1.7-1.7-1.7zm-38.5-26c0 1.9.2 4.2.6 6.1h46.6c.4 0 .7.4.7.8s-.3.1-.7.1H18.1c2 7.4 7.1 14.5 13.9 17.9h24.7c8.8-4.5 14.8-14.5 14.8-24.9H17.2z"/></g></svg>