<?xml version="1.0" encoding="utf-8"?>
<!-- Generator: Adobe Illustrator 17.1.0, SVG Export Plug-In . SVG Version: 6.00 Build 0)  -->
<!DOCTYPE svg PUBLIC "-//W3C//DTD SVG 1.1//EN" "http://www.w3.org/Graphics/SVG/1.1/DTD/svg11.dtd">
<svg version="1.1" xmlns="http://www.w3.org/2000/svg" xmlns:xlink="http://www.w3.org/1999/xlink" x="0px" y="0px" width="90px"
	 height="70px" viewBox="0 0 90 70" enable-background="new 0 0 90 70" xml:space="preserve">
<g id="Слой_47__x2B__Слой_0__x2B__Группа_1__x2B__Фигура_1_копия_2_xA0_Изображение_1_" display="none">
	
		<image display="inline" overflow="visible" width="980" height="600" id="Слой_47__x2B__Слой_0__x2B__Группа_1__x2B__Фигура_1_копия_2_xA0_Изображение" xlink:href="CFB01898.png"  transform="matrix(1 0 0 1 -339.25 -186.6667)">
	</image>
</g>
<g id="Группа_179_1_" display="none">
	<g id="Группа_178_3_" display="inline">
		<g id="Тень_Слой_48_xA0_Изображение_1_">
			
				<image overflow="visible" width="980" height="600" id="Тень_Слой_48_xA0_Изображение" xlink:href="CFB01899.png"  transform="matrix(1 0 0 1 -339.25 -186.6667)">
			</image>
		</g>
		<g id="Фигура_753_2_" enable-background="new    ">
			<defs>
				<path id="SVGID_1_" enable-background="new    " d="M563.7-588.7l-290,5c-11,0-20,9-20,20l-0.4,62.4l-43.6,47.6l43.3-8.3
					l-0.3,50.3c0,11,9,20,20,20l290,15c11,0,20-9,20-20l1-172C583.7-579.7,574.8-588.7,563.7-588.7z"/>
			</defs>
			<clipPath id="SVGID_2_">
				<use xlink:href="#SVGID_1_"  overflow="visible"/>
			</clipPath>
			<g clip-path="url(#SVGID_2_)">
				
					<image overflow="visible" width="980" height="600" id="Фигура_753_xA0_Изображение" xlink:href="CFB0189F.png"  transform="matrix(1 0 0 1 -339.25 -186.6667)">
				</image>
			</g>
		</g>
	</g>
</g>
<g id="шапка_сайта_1_">
	<g id="Группа_176_1_">
		<g id="иконки_1_">
			<g id="диалоги_1_" display="none">
			</g>
			<g id="мой_жираф_1_" display="none">
			</g>
		</g>
		<g id="поиск__x2B__добавить_1_">
			<g id="поиск_1_">
			</g>
		</g>
	</g>
</g>
<g id="категории_1_">
	<g id="_x31__ряд_1_">
		<g id="_x31__3_">
			<g id="К_мясу_xA0_Изображение_1_" display="none">
			</g>
		</g>
		<g id="_x32__1_">
			<g id="К_овощам_и_грибам_xA0_Изображение_1_" display="none">
			</g>
			<g id="_x31__копия_20_1_">
			</g>
		</g>
		<g id="_x33__1_">
			<g id="К_крупам_xA0_Изображение_1_" display="none">
			</g>
		</g>
		<g id="_x34__1_">
			<g id="К_рыбе_xA0_Изображение_1_" display="none">
			</g>
			<g id="_x31__копия_18_1_">
			</g>
		</g>
	</g>
	<g id="_x31__ряд_копия_1_">
		<g id="_x31__копия_1_">
			<g id="К_макаронам_xA0_Изображение_1_" display="none">
			</g>
			<g id="_x31__2_">
			</g>
		</g>
		<g id="_x32__копия_1_">
			<g id="К_бобовым_xA0_Изображение_1_" display="none">
			</g>
			<g id="Фигура_265_копия">
				<g>
					<path fill-rule="evenodd" clip-rule="evenodd" fill="#59BC4F" d="M71,29.9c0.2-2,1.3-5,5-9l-0.6-0.8c-4.9,2.8-8.3,3.4-10.2,2.6
						c-0.1-0.1-0.3-0.1-0.4-0.1c-3.4-1.4-7.5-1-10.6,1.4c-1.2,0.9-2.1,2-2.7,3.3l-2.7,2.1c-1.7,0.3-3.4,1-4.9,2.2
						c-1.5,1.2-2.6,2.7-3.3,4.3l-3.8,3c-1.3,0.4-2.6,1-3.8,1.9c-2.1,1.7-3.4,4-3.9,6.5c-0.2,0.6-0.3,1.3-0.3,2c0,0.1,0,0.2,0,0.3
						c0.1,0.5,0.2,1.2,0.2,2.1c-0.2,2-1.3,5-5,9l0.6,0.8c4.9-2.8,8.3-3.4,10.2-2.6c0.8,0.3,1.6,0.5,2.5,0.5c3,0.7,6.2,0,8.8-2
						c1.2-0.9,2.1-2.1,2.8-3.4l3.6-2.8c1.8-0.3,3.5-1,5-2.2c1.5-1.2,2.6-2.7,3.3-4.4l2.5-2c1.4-0.3,2.7-1,3.9-1.9
						c3.3-2.6,4.6-6.7,3.8-10.5C71,30,71,29.9,71,29.9z"/>
				</g>
			</g>
			<g id="Фигура_265_копия_2">
				<g>
					<path fill-rule="evenodd" clip-rule="evenodd" fill="#86DE7C" d="M58.9,20c-0.2-1.5-0.7-2.9-1.6-4.2c0-0.1,0-0.1-0.1-0.2
						c-0.5-1.9-0.6-5.2,1.5-10.2L58,4.9c-3.7,4.3-6.6,6.1-8.6,6c-0.1,0-0.3,0-0.4,0c-3.7-0.1-7.4,1.7-9.4,5c-0.8,1.3-1.2,2.6-1.4,4
						l-1.8,2.9c-1.5,0.9-2.9,2.2-3.9,3.8c-1,1.6-1.5,3.4-1.6,5.2L28.3,36c-1.1,0.8-2.1,1.8-2.9,3.1c-1.4,2.3-1.8,5-1.4,7.4
						c0.1,0.7,0.2,1.3,0.4,1.9c0,0.1,0.1,0.2,0.1,0.3c0.3,0.4,0.6,1,0.9,1.9c0.3,1.1,0.4,2.6,0.1,4.6c1-1.7,1.3-3,1.4-3.9
						c0.1-0.7,0-1.2-0.1-1.4l-0.1-0.3l0-0.3c0-0.1,0-0.2,0-0.3l0-0.1c0.1-0.7,0.2-1.5,0.4-2.2c0.5-3,2.1-5.7,4.5-7.6
						c1.2-1,2.6-1.7,4.1-2.1l0.6-0.5c-2.6-2.1-3.3-5.8-1.5-8.7c1.9-3.2,6-4.1,9.2-2.2c1,0.6,1.7,1.4,2.3,2.3c0.5-0.2,1-0.3,1.6-0.4
						l1.9-1.5c-1.7,0.4-3.5,0.2-5.1-0.7c-3.1-1.9-4.1-5.9-2.2-9c1.9-3.1,5.9-4.1,9-2.2c2.6,1.6,3.7,4.6,2.9,7.4
						C55.9,20.7,57.4,20.2,58.9,20z M43.6,26.6c-2.4-1.5-5.1-1.4-6,0.2c-0.9,1.5,0.2,4,2.6,5.4c0.1,0,0.2,0.1,0.2,0.1
						c0.6-0.8,1.4-1.5,2.2-2.2c0.9-0.7,1.9-1.3,3-1.7C45.1,27.7,44.4,27.1,43.6,26.6z M51.1,15c-2.3-1.4-5-1.4-5.9,0.2
						c-0.9,1.5,0.2,3.9,2.6,5.3c2.3,1.4,5,1.4,5.9-0.2C54.6,18.8,53.4,16.4,51.1,15z"/>
				</g>
			</g>
		</g>
		<g id="_x33__копия_1_">
			<g id="К_салатам_xA0_Изображение_1_" display="none">
			</g>
			<g id="_x31__копия_23_1_">
				<g id="Фигура_302_xA0_Изображение_1_">
				</g>
			</g>
		</g>
		<g id="_x34__копия_1_">
			<g id="К_маринадам_xA0_Изображение_1_" display="none">
			</g>
			<g id="_x31__копия_28_1_">
			</g>
		</g>
	</g>
	<g id="_x31__ряд_копия_2_1_">
		<g id="_x31__копия_2_1_">
			<g id="К_птице_xA0_Изображение_1_">
			</g>
		</g>
		<g id="_x32__копия_2_1_">
			<g id="К_супам_xA0_Изображение_1_">
			</g>
		</g>
		<g id="_x33__копия_2_1_">
			<g id="Для_варений_xA0_Изображение_1_">
			</g>
			<g id="_x31__копия_30_1_">
			</g>
		</g>
		<g id="_x34__копия_2_1_">
			<g id="К_напиткам_xA0_Изображение_1_">
			</g>
			<g id="_x31__копия_31_1_">
			</g>
		</g>
	</g>
	<g id="_x31__ряд_копия_3_1_">
		<g id="_x31__копия_4_1_">
			<g id="К_соусам_xA0_Изображение_1_">
			</g>
			<g id="_x31__копия_25_1_">
			</g>
		</g>
		<g id="_x32__копия_3_1_">
			<g id="К_хлебо_булочным_изделиям_xA0_Изображение_1_">
			</g>
			<g id="_x31__копия_19_1_">
				<g id="Фигура_259_копия_2_xA0_Изображение_1_">
				</g>
			</g>
		</g>
		<g id="_x33__копия_3_1_">
			<g id="К_кондитерским_изделиям_xA0_Изображение_1_">
			</g>
			<g id="птироженое_копия_1_">
			</g>
		</g>
		<g id="_x34__копия_3_1_">
			<g id="Для_консерваций_и_солений_xA0_Изображение_1_">
			</g>
			<g id="Группа_9_копия_1_">
				<g id="_x31__банка_1_">
				</g>
			</g>
		</g>
	</g>
</g>
<g id="по_алфавиту_1_" display="none">
	<g id="a_1_" display="inline">
	</g>
	<g id="б_1_" display="inline">
	</g>
	<g id="в_1_" display="inline">
	</g>
	<g id="м_1_" display="inline">
	</g>
	<g id="н_1_" display="inline">
	</g>
	<g id="о_1_" display="inline">
	</g>
	<g id="иконка_3_" display="inline">
	</g>
</g>
<g id="Фигура_750_2_" display="none" enable-background="new    ">
</g>
<g id="Группа_178_2_">
	<g id="иконка_2_">
	</g>
</g>
</svg>
