<?xml version="1.0" encoding="utf-8"?>
<!-- Generator: Adobe Illustrator 17.1.0, SVG Export Plug-In . SVG Version: 6.00 Build 0)  -->
<!DOCTYPE svg PUBLIC "-//W3C//DTD SVG 1.1//EN" "http://www.w3.org/Graphics/SVG/1.1/DTD/svg11.dtd">
<svg version="1.1" xmlns="http://www.w3.org/2000/svg" xmlns:xlink="http://www.w3.org/1999/xlink" x="0px" y="0px" width="90px"
	 height="70px" viewBox="0 0 90 70" enable-background="new 0 0 90 70" xml:space="preserve">
<g id="Слой_47__x2B__Слой_0__x2B__Группа_1__x2B__Фигура_1_копия_2_xA0_Изображение_1_" display="none">
	
		<image display="inline" overflow="visible" width="980" height="600" id="Слой_47__x2B__Слой_0__x2B__Группа_1__x2B__Фигура_1_копия_2_xA0_Изображение" xlink:href="9D5DF926.png"  transform="matrix(1 0 0 1 -569.3333 -462)">
	</image>
</g>
<g id="Группа_179_1_" display="none">
	<g id="Группа_178_3_" display="inline">
		<g id="Тень_Слой_48_xA0_Изображение_1_">
			
				<image overflow="visible" width="980" height="600" id="Тень_Слой_48_xA0_Изображение" xlink:href="9D5DF92A.png"  transform="matrix(1 0 0 1 -569.3333 -462)">
			</image>
		</g>
		<g id="Фигура_753_2_" enable-background="new    ">
			<defs>
				<path id="SVGID_1_" enable-background="new    " d="M333.7-864l-290,5c-11,0-20,9-20,20l-0.4,62.4L-20.3-729l43.3-8.3L22.7-687
					c0,11,9,20,20,20l290,15c11,0,20-9,20-20l1-172C353.7-855,344.7-864,333.7-864z"/>
			</defs>
			<clipPath id="SVGID_2_">
				<use xlink:href="#SVGID_1_"  overflow="visible"/>
			</clipPath>
			<g clip-path="url(#SVGID_2_)">
				
					<image overflow="visible" width="980" height="600" id="Фигура_753_xA0_Изображение" xlink:href="9D5DF92D.png"  transform="matrix(1 0 0 1 -569.3333 -462)">
				</image>
			</g>
		</g>
	</g>
</g>
<g id="шапка_сайта_1_">
	<g id="Группа_176_1_">
		<g id="иконки_1_">
			<g id="диалоги_1_" display="none">
			</g>
			<g id="мой_жираф_1_" display="none">
			</g>
		</g>
		<g id="поиск__x2B__добавить_1_">
			<g id="поиск_1_">
			</g>
		</g>
	</g>
</g>
<g id="категории_1_">
	<g id="_x31__ряд_1_">
		<g id="_x31__3_">
			<g id="К_мясу_xA0_Изображение_1_" display="none">
			</g>
		</g>
		<g id="_x32__1_">
			<g id="К_овощам_и_грибам_xA0_Изображение_1_" display="none">
			</g>
			<g id="_x31__копия_20_1_">
			</g>
		</g>
		<g id="_x33__1_">
			<g id="К_крупам_xA0_Изображение_1_" display="none">
			</g>
		</g>
		<g id="_x34__1_">
			<g id="К_рыбе_xA0_Изображение_1_" display="none">
			</g>
			<g id="_x31__копия_18_1_">
			</g>
		</g>
	</g>
	<g id="_x31__ряд_копия_1_">
		<g id="_x31__копия_1_">
			<g id="К_макаронам_xA0_Изображение_1_" display="none">
			</g>
			<g id="_x31__2_">
			</g>
		</g>
		<g id="_x32__копия_1_">
			<g id="К_бобовым_xA0_Изображение_1_" display="none">
			</g>
		</g>
		<g id="_x33__копия_1_">
			<g id="К_салатам_xA0_Изображение_1_" display="none">
			</g>
			<g id="_x31__копия_23_1_">
				<g id="Фигура_302_xA0_Изображение_1_">
				</g>
			</g>
		</g>
		<g id="_x34__копия_1_">
			<g id="К_маринадам_xA0_Изображение_1_" display="none">
			</g>
			<g id="_x31__копия_28_1_">
			</g>
		</g>
	</g>
	<g id="_x31__ряд_копия_2_1_">
		<g id="_x31__копия_2_1_">
			<g id="К_птице_xA0_Изображение_1_">
			</g>
		</g>
		<g id="_x32__копия_2_1_">
			<g id="К_супам_xA0_Изображение_1_">
			</g>
		</g>
		<g id="_x33__копия_2_1_">
			<g id="Для_варений_xA0_Изображение_1_">
			</g>
			<g id="_x31__копия_30_1_">
			</g>
		</g>
		<g id="_x34__копия_2_1_">
			<g id="К_напиткам_xA0_Изображение_1_">
			</g>
			<g id="_x31__копия_31_1_">
			</g>
		</g>
	</g>
	<g id="_x31__ряд_копия_3_1_">
		<g id="_x31__копия_4_1_">
			<g id="К_соусам_xA0_Изображение_1_">
			</g>
			<g id="_x31__копия_25_1_">
			</g>
		</g>
		<g id="_x32__копия_3_1_">
			<g id="К_хлебо_булочным_изделиям_xA0_Изображение_1_">
			</g>
			<g id="_x31__копия_19_1_">
				<g id="Фигура_259_копия_2_xA0_Изображение_1_">
				</g>
			</g>
		</g>
		<g id="_x33__копия_3_1_">
			<g id="К_кондитерским_изделиям_xA0_Изображение_1_">
			</g>
			<g id="птироженое_копия_1_">
				<g id="Фигура_279_копия">
					<g>
						<path fill-rule="evenodd" clip-rule="evenodd" fill="#FE802C" d="M61.7,33.1c0.1-1.4-4.8-1.8-10.6-4.1
							c-7.4-2.9-5.5-2.7-10.7-0.4c-3.8,1.7-9.1,1.2-10.2,3.6c-0.2,0.1-0.3,0.2-0.5,0.3c-2.6,2-1,7.5-0.3,10.4
							c0.8,3.8,2.4,10,3.4,13.8c0.5,2.2,1.5,4.2,3.6,5c2.1,0.8,4.2,1.1,9.2,1.1c5,0.1,7.5-0.7,9.3-1.2c1.8-0.5,2.9-2.7,3.4-4.9
							c1-3.8,2.6-10,3.4-13.8C62.1,40.3,63,35,61.7,33.1z M45.7,23.3c5.5-0.1,7.3-4.5,5.5-8.4c-1.8-3.9-7.4-5.6-7.4-5.6
							c2.2,1.7-1.9,4.6-3.2,6.5C39.4,17.7,40.2,23.4,45.7,23.3z"/>
					</g>
				</g>
				<g id="Фигура_279_копия_2">
					<g>
						<path fill-rule="evenodd" clip-rule="evenodd" fill="#FADD17" d="M55,26.3c-7.4-2.9-14.8-2-20,0.3c-5.2,2.4-12.5,6.2-9.1,13.2
							c3.3,6.9,9.7-1.4,9.7-1.4s1.2,5.9,6,5.3c4.8-0.5,5.5-3.7,5.5-3.7s1.6,3.7,6.4,3.4c4.8-0.3,4.7-3.6,4.7-3.6s3.5,4.1,6.7,1.7
							C68.9,38.8,62.4,29.2,55,26.3z"/>
					</g>
				</g>
				<g id="Фигура_280_копия">
					<g>
						<path fill-rule="evenodd" clip-rule="evenodd" fill="#FFFFFF" d="M55.4,38.1c-2.7,3.3-7.2,2.2-9.8-0.2
							c-4.1,3.7-8.6,1.8-10.2,0c-1.7,2.9-6.6,3.5-6.6,3.5s0.1,2.5,0.5,2.8c2.4,0,4.6-1.7,6.2-2.9c3.3,3.1,7.2,2.8,10.2,0.9
							c3.8,3.7,8.3,1.2,9.4-0.1c3,3.6,7.1-0.4,7.1-1.4C59.1,42,57.5,39.8,55.4,38.1z"/>
					</g>
				</g>
				<g id="Фигура_281_копия">
					<g>
						<polygon fill-rule="evenodd" clip-rule="evenodd" fill="#FFFFFF" points="38.9,46.4 35,46.5 40.3,59.1 						"/>
					</g>
				</g>
				<g id="Фигура_282_копия">
					<g>
						<polygon fill-rule="evenodd" clip-rule="evenodd" fill="#FFFFFF" points="43.1,46.8 45.1,60.7 48.2,46.9 						"/>
					</g>
				</g>
				<g id="Фигура_283_копия">
					<g>
						<polygon fill-rule="evenodd" clip-rule="evenodd" fill="#FFFFFF" points="52.4,47 50.4,58 56.3,46.9 						"/>
					</g>
				</g>
				<g id="Фигура_284_копия">
					<g>
						<path fill-rule="evenodd" clip-rule="evenodd" fill="#FFFFFF" d="M45,14.2c-3.5,3.5-0.3,6.9-0.3,6.9l0.9-0.3
							C45.6,20.8,45.5,16,45,14.2z"/>
					</g>
				</g>
			</g>
		</g>
		<g id="_x34__копия_3_1_">
			<g id="Для_консерваций_и_солений_xA0_Изображение_1_">
			</g>
			<g id="Группа_9_копия_1_">
				<g id="_x31__банка_1_">
				</g>
			</g>
		</g>
	</g>
</g>
<g id="по_алфавиту_1_" display="none">
	<g id="a_1_" display="inline">
	</g>
	<g id="б_1_" display="inline">
	</g>
	<g id="в_1_" display="inline">
	</g>
	<g id="м_1_" display="inline">
	</g>
	<g id="н_1_" display="inline">
	</g>
	<g id="о_1_" display="inline">
	</g>
	<g id="иконка_3_" display="inline">
	</g>
</g>
<g id="Фигура_750_2_" display="none" enable-background="new    ">
</g>
<g id="Группа_178_2_">
	<g id="иконка_2_">
	</g>
</g>
</svg>
