<?xml version="1.0" encoding="utf-8"?>
<!-- Generator: Adobe Illustrator 17.1.0, SVG Export Plug-In . SVG Version: 6.00 Build 0)  -->
<!DOCTYPE svg PUBLIC "-//W3C//DTD SVG 1.1//EN" "http://www.w3.org/Graphics/SVG/1.1/DTD/svg11.dtd">
<svg version="1.1" xmlns="http://www.w3.org/2000/svg" xmlns:xlink="http://www.w3.org/1999/xlink" x="0px" y="0px" width="90px"
	 height="70px" viewBox="0 0 90 70" enable-background="new 0 0 90 70" xml:space="preserve">
<g id="Слой_47__x2B__Слой_0__x2B__Группа_1__x2B__Фигура_1_копия_2_xA0_Изображение_1_" display="none">
	
		<image display="inline" overflow="visible" width="980" height="600" id="Слой_47__x2B__Слой_0__x2B__Группа_1__x2B__Фигура_1_копия_2_xA0_Изображение" xlink:href="B524A802.png"  transform="matrix(1 0 0 1 -565.3333 -319.3333)">
	</image>
</g>
<g id="Группа_179_1_" display="none">
	<g id="Группа_178_3_" display="inline">
		<g id="Тень_Слой_48_xA0_Изображение_1_">
			
				<image overflow="visible" width="980" height="600" id="Тень_Слой_48_xA0_Изображение" xlink:href="B524A806.png"  transform="matrix(1 0 0 1 -565.3333 -319.3333)">
			</image>
		</g>
		<g id="Фигура_753_2_" enable-background="new    ">
			<defs>
				<path id="SVGID_1_" enable-background="new    " d="M337.7-721.3l-290,5c-11,0-20,9-20,20L27.3-634l-43.6,47.6l43.3-8.3
					l-0.3,50.3c0,11,9,20,20,20l290,15c11,0,20-9,20-20l1-172C357.7-712.4,348.7-721.3,337.7-721.3z"/>
			</defs>
			<clipPath id="SVGID_2_">
				<use xlink:href="#SVGID_1_"  overflow="visible"/>
			</clipPath>
			<g clip-path="url(#SVGID_2_)">
				
					<image overflow="visible" width="980" height="600" id="Фигура_753_xA0_Изображение" xlink:href="B524A801.png"  transform="matrix(1 0 0 1 -565.3333 -319.3333)">
				</image>
			</g>
		</g>
	</g>
</g>
<g id="шапка_сайта_1_">
	<g id="Группа_176_1_">
		<g id="иконки_1_">
			<g id="диалоги_1_" display="none">
			</g>
			<g id="мой_жираф_1_" display="none">
			</g>
		</g>
		<g id="поиск__x2B__добавить_1_">
			<g id="поиск_1_">
			</g>
		</g>
	</g>
</g>
<g id="категории_1_">
	<g id="_x31__ряд_1_">
		<g id="_x31__3_">
			<g id="К_мясу_xA0_Изображение_1_" display="none">
			</g>
		</g>
		<g id="_x32__1_">
			<g id="К_овощам_и_грибам_xA0_Изображение_1_" display="none">
			</g>
			<g id="_x31__копия_20_1_">
			</g>
		</g>
		<g id="_x33__1_">
			<g id="К_крупам_xA0_Изображение_1_" display="none">
			</g>
		</g>
		<g id="_x34__1_">
			<g id="К_рыбе_xA0_Изображение_1_" display="none">
			</g>
			<g id="_x31__копия_18_1_">
			</g>
		</g>
	</g>
	<g id="_x31__ряд_копия_1_">
		<g id="_x31__копия_1_">
			<g id="К_макаронам_xA0_Изображение_1_" display="none">
			</g>
			<g id="_x31__2_">
			</g>
		</g>
		<g id="_x32__копия_1_">
			<g id="К_бобовым_xA0_Изображение_1_" display="none">
			</g>
		</g>
		<g id="_x33__копия_1_">
			<g id="К_салатам_xA0_Изображение_1_" display="none">
			</g>
			<g id="_x31__копия_23_1_">
				<g id="Фигура_302_xA0_Изображение_1_">
				</g>
			</g>
		</g>
		<g id="_x34__копия_1_">
			<g id="К_маринадам_xA0_Изображение_1_" display="none">
			</g>
			<g id="_x31__копия_28_1_">
			</g>
		</g>
	</g>
	<g id="_x31__ряд_копия_2_1_">
		<g id="_x31__копия_2_1_">
			<g id="К_птице_xA0_Изображение_1_">
			</g>
		</g>
		<g id="_x32__копия_2_1_">
			<g id="К_супам_xA0_Изображение_1_">
			</g>
		</g>
		<g id="_x33__копия_2_1_">
			<g id="Для_варений_xA0_Изображение_1_">
			</g>
			<g id="_x31__копия_30_1_">
				<g id="Фигура_272_копия_3">
					<g>
						<path fill-rule="evenodd" clip-rule="evenodd" fill="#2EAF22" d="M77.2,19.8c-0.2,1.5-4.5,4.2-7.1,4.1c0,0,3.2-1.3,1.9-3.7
							c-2,1.9-4.7,1.5-5.4,2.9c-0.4-1.8-1.4-3.4-2.6-3.8c0,0,0,0,0,0c0,0,0,0,0,0c-1.2,0.4-2.2,2-2.6,3.8c-0.6-1.3-3.3-1-5.4-2.9
							c-1.3,2.4,1.9,3.7,1.9,3.7c-2.6,0.2-6.8-2.5-7.1-4.1c-1.2,2.9,1.7,5.7,5.3,6.9c2.2-0.8,4.9-1.2,7.8-1.2c3,0,5.6,0.4,7.8,1.2
							C75.4,25.6,78.4,22.7,77.2,19.8z"/>
					</g>
				</g>
				<g id="Фигура_272_копия_2">
					<g>
						<path fill-rule="evenodd" clip-rule="evenodd" fill="#EE6911" d="M64.1,26.9c-8.7,0-15.7,3.6-15.7,12.3c0,8.7,11.6,20,15.7,20
							c4.3,0,15.7-11.4,15.7-20C79.8,30.5,72.7,26.9,64.1,26.9z M49.5,36.6c0.1-0.9,0.6-1.3,1.2-1.2c0.6,0.1,1,0.5,0.9,1.5
							c-0.1,0.9-1,2.1-1.3,2C50,38.9,49.4,37.6,49.5,36.6z M52.8,46.5c-0.2,0.1-1.5-0.6-2-1.4c-0.4-0.8-0.2-1.4,0.3-1.7
							c0.5-0.3,1.1-0.1,1.6,0.7C53.1,44.9,53,46.3,52.8,46.5z M54.3,31.9c-0.2-0.1-0.3-1.4,0.1-2.1c0.4-0.7,0.9-0.8,1.4-0.6
							c0.4,0.3,0.6,0.8,0.2,1.5C55.6,31.4,54.5,32,54.3,31.9z M57.5,40c-0.3,0-1.5-1.3-1.6-2.4c-0.1-1.1,0.4-1.7,1.1-1.8
							c0.7-0.1,1.3,0.3,1.5,1.4C58.6,38.4,57.9,40,57.5,40z M59.1,51.8c-0.3,0-1.2-1.1-1.3-2c-0.1-0.9,0.3-1.4,0.9-1.5
							c0.6-0.1,1.1,0.3,1.2,1.2C60,50.4,59.4,51.7,59.1,51.8z M64.4,56.5c-0.3,0-1.1-1.2-1.1-2.2c0-0.9,0.5-1.3,1.1-1.3
							c0.6,0,1.1,0.4,1.1,1.3C65.5,55.3,64.7,56.5,64.4,56.5z M64.4,45.4c-0.3,0-1.3-1.5-1.3-2.7c0-1.2,0.6-1.7,1.3-1.7
							c0.7,0,1.3,0.5,1.3,1.7C65.7,43.9,64.8,45.4,64.4,45.4z M64.4,33.2c-0.4,0-1.4-1-1.4-1.8c0-0.8,0.6-1.1,1.4-1.1
							c0.8,0,1.4,0.3,1.4,1.1C65.8,32.2,64.8,33.2,64.4,33.2z M69,51.8c-0.3,0-0.9-1.4-0.8-2.3c0.1-0.9,0.6-1.3,1.2-1.2
							c0.6,0.1,1,0.5,0.9,1.5C70.2,50.7,69.3,51.8,69,51.8z M72.3,37.6c-0.2,1.2-1.3,2.6-1.7,2.5c-0.4,0-1.1-1.7-1-2.9
							c0.2-1.2,0.8-1.6,1.5-1.5C71.9,35.9,72.4,36.4,72.3,37.6z M73.8,31.9c-0.2,0.1-1.3-0.5-1.7-1.2c-0.4-0.7-0.2-1.2,0.2-1.5
							c0.4-0.3,1-0.2,1.4,0.6C74.1,30.5,74,31.7,73.8,31.9z M77.3,45c-0.4,0.8-1.7,1.6-2,1.4c-0.3-0.1-0.4-1.6,0.1-2.4
							c0.4-0.8,1-1,1.6-0.7C77.5,43.6,77.7,44.2,77.3,45z M77.8,38.9c-0.3,0-1.2-1.1-1.3-2c-0.1-0.9,0.3-1.4,0.9-1.5
							c0.6-0.1,1.1,0.3,1.2,1.2C78.7,37.6,78.1,38.9,77.8,38.9z"/>
					</g>
				</g>
				<g id="Фигура_273_копия_3">
					<g>
						<path fill-rule="evenodd" clip-rule="evenodd" fill="#42B037" d="M39.6,22.6c0.8,0.8,1.6,1.8,2.4,3c1.4,2.1,2.9,5.1,3.6,8.9
							c3.8,1,7.9,0.9,9.3,0.8C53.4,30.5,51.7,18.1,39.6,22.6z M35.3,21.2c-0.3-0.2-0.7-0.1-0.9,0.2c-0.2,0.3-0.1,0.7,0.2,0.9
							c0.1,0.1,10.1,6.7,8.1,20.6c0,0.3,0.2,0.6,0.5,0.7c0,0,0,0,0.1,0c0.4,0.1,0.7-0.2,0.7-0.5c1.1-7.7-1.3-13.2-3.5-16.5
							C38,23,35.4,21.3,35.3,21.2z M36.8,27.1c-9.2,3.6-12.2,11.5-12.3,11.9c-0.1,0.3,0.1,0.7,0.4,0.8c0,0,0,0,0.1,0
							c0.3,0.1,0.6-0.1,0.8-0.4c0-0.1,2.9-7.7,11.5-11.1c0.3-0.1,0.5-0.5,0.4-0.8C37.5,27.1,37.2,26.9,36.8,27.1z"/>
					</g>
				</g>
				<g id="Фигура_273_копия_2">
					<g>
						<path fill-rule="evenodd" clip-rule="evenodd" fill="#CA2020" d="M24.5,40.9c-1.9-1.7-4.5-2.3-6.9-1.4
							c-3.5,1.4-5.1,5.8-3.5,9.8c0.9,2.3,2.7,4,4.6,4.8c1.9,1,4.3,1.1,6.7,0.2c4-1.6,6.2-5.7,4.8-9.2C29.3,42.7,27,41.2,24.5,40.9z
							 M19.8,45.3c-1.8,0.8-3.7,0.5-4.3-0.8c-0.6-1.3,0.3-3,2.1-3.8c1.8-0.8,3.7-0.5,4.3,0.8C22.5,42.8,21.6,44.5,19.8,45.3z
							 M49.9,47.3c-1.7-1.9-4.3-2.5-6.8-1.9c-2.4-0.9-5.1-0.6-6.9,1.1c-2.8,2.5-2.8,7.2,0.1,10.4c1.7,1.9,3.9,2.8,6,2.9
							c2.1,0.2,4.4-0.5,6.3-2.1C51.9,54.7,52.4,50.1,49.9,47.3z M45.3,51.5c-1.2-1.5-1.2-3.5-0.1-4.4c1.1-0.9,3-0.3,4.2,1.2
							c1.2,1.5,1.2,3.5,0.1,4.4C48.4,53.5,46.5,53,45.3,51.5z"/>
					</g>
				</g>
			</g>
		</g>
		<g id="_x34__копия_2_1_">
			<g id="К_напиткам_xA0_Изображение_1_">
			</g>
			<g id="_x31__копия_31_1_">
			</g>
		</g>
	</g>
	<g id="_x31__ряд_копия_3_1_">
		<g id="_x31__копия_4_1_">
			<g id="К_соусам_xA0_Изображение_1_">
			</g>
			<g id="_x31__копия_25_1_">
			</g>
		</g>
		<g id="_x32__копия_3_1_">
			<g id="К_хлебо_булочным_изделиям_xA0_Изображение_1_">
			</g>
			<g id="_x31__копия_19_1_">
				<g id="Фигура_259_копия_2_xA0_Изображение_1_">
				</g>
			</g>
		</g>
		<g id="_x33__копия_3_1_">
			<g id="К_кондитерским_изделиям_xA0_Изображение_1_">
			</g>
			<g id="птироженое_копия_1_">
			</g>
		</g>
		<g id="_x34__копия_3_1_">
			<g id="Для_консерваций_и_солений_xA0_Изображение_1_">
			</g>
			<g id="Группа_9_копия_1_">
				<g id="_x31__банка_1_">
				</g>
			</g>
		</g>
	</g>
</g>
<g id="по_алфавиту_1_" display="none">
	<g id="a_1_" display="inline">
	</g>
	<g id="б_1_" display="inline">
	</g>
	<g id="в_1_" display="inline">
	</g>
	<g id="м_1_" display="inline">
	</g>
	<g id="н_1_" display="inline">
	</g>
	<g id="о_1_" display="inline">
	</g>
	<g id="иконка_3_" display="inline">
	</g>
</g>
<g id="Фигура_750_2_" display="none" enable-background="new    ">
</g>
<g id="Группа_178_2_">
	<g id="иконка_2_">
	</g>
</g>
</svg>
