<?xml version="1.0" encoding="utf-8"?><svg xmlns="http://www.w3.org/2000/svg" width="90" height="70" viewBox="0 0 90 70"><g fill-rule="evenodd" clip-rule="evenodd"><path fill="#61BDF7" d="M55.9 22.1c.1-.1.2-.1.2-.2s-.1-.3-.6-.4l-.3.4c.1 0 .1 0 .2 0-1.4.3-5.9.7-12.7.7-6.8 0-11.3-.4-12.7-.7 1.4-.3 5.9-.7 12.7-.7 4.3 0 7.7.2 9.9.4l.1-.8c-2.4-.2-6-.5-10-.5-7.4 0-14.2.9-14.2 1.5 0 .1.2.2.5.3-.2 0-.3 0-.3 0s6.6 16.6 4.2 36.1c-.1.4-.1.8-.2 1.3-.1.4-.1.8-.2 1.1 0 .1 0 .2 0 .3 0 .3-.1.6-.2.9 0 .1 0 .2-.1.3-.1.4-.1.8-.2 1.2 0 0 0 .1 0 .1s0 .1.1.1c0 0 .1.1.1.1s.1.1.2.1.1.1.2.1.2.1.3.1c1.3.5 3.8.8 6.7.9v-5.6c-2.2-.1-4.1-.3-5.2-.6 1.8-18.6-4.1-34.8-4.9-36.8 2.2.6 7.5 1.2 13.2 1.2 6.4 0 11.7-.7 13-1.2-4.3 13.4-6.1 25.9-5.6 36.8-1.2.3-3.3.6-5.9.7v5.6c.3 0 .5 0 .8 0 .2 0 .4 0 .7 0 0 0 0 0 .1 0 .2 0 .4 0 .6 0 0 0 0 0 .1 0 .2 0 .4 0 .6 0 0 0 .1 0 .1 0 .2 0 .4 0 .6 0 0 0 .1 0 .1 0 .2 0 .4 0 .6-.1 0 0 0 0 .1 0 .2 0 .4 0 .5-.1.2 0 .3 0 .5-.1.3-.1.6-.1.9-.2.1 0 .3-.1.4-.1.1 0 .2-.1.3-.1.1 0 .2-.1.2-.1.1 0 .1-.1.2-.1s.1-.1.1-.1.1-.1.1-.1 0-.1 0-.1c-.1-.9-.2-1.8-.3-2.7-.1-.9-.2-1.8-.3-2.7-.8-10.9 1.3-25.7 4.7-36 .2.1.1-.1 0-.2z"/><path fill="#7FDC75" d="M49.1 54.8c0-7.2.9-14.9 2.9-23.1-2.9-.6-6.1-.8-9.7-.8-2.9 0-6.5.3-8.7.8 1.2 5.1 2.3 11.9 2.3 19.4 0 1.9 0 3.9-.2 5.9 0 .4-.1.7-.1 1.1 1.6.3 4 .5 6.7.5 2.8 0 5.3-.2 6.9-.5 0-.3 0-.7 0-1-.1-.8-.1-1.6-.1-2.3zm-4.7-13.6c0 .4-.3.7-.7.7-.4 0-.7-.3-.7-.7 0-.4.3-.7.7-.7.3-.1.7.3.7.7zm-1.7 6.7c.3 0 .5.2.5.5s-.2.5-.5.5-.5-.2-.5-.5c.1-.3.3-.5.5-.5zm-.9-3.1c-.3 0-.6-.3-.6-.6s.3-.6.6-.6.6.3.6.6-.3.6-.6.6zm.3-9.1c.6 0 1 .5 1 1 0 .6-.5 1-1 1-.6 0-1-.5-1-1 0-.6.5-1 1-1zm-5 1.2c.4 0 .7.3.7.7 0 .4-.3.7-.7.7-.4 0-.7-.3-.7-.7 0-.4.3-.7.7-.7zm-.5 8c0-.6.5-1.2 1.2-1.2.6 0 1.2.5 1.2 1.2 0 .6-.5 1.2-1.2 1.2-.7-.1-1.2-.6-1.2-1.2zm2.2 3c0 .1-.1.3-.3.3-.1 0-.3-.1-.3-.3 0-.1.1-.3.3-.3.2.1.3.2.3.3zm-.5 6.5c-.3 0-.6-.3-.6-.6s.3-.6.6-.6.6.3.6.6-.3.6-.6.6zm1.8-12.7c-.4 0-.8-.3-.8-.8 0-.4.3-.8.8-.8.4 0 .8.3.8.8 0 .4-.3.8-.8.8zm.6 9c0-.3.3-.6.6-.6s.6.3.6.6-.3.6-.6.6-.6-.3-.6-.6zm1.7 4.4c-.5 0-.8-.4-.8-.8 0-.5.4-.8.8-.8.5 0 .8.4.8.8.1.4-.3.8-.8.8zm1.7-3.5c-.3 0-.6-.3-.6-.6s.3-.6.6-.6.6.3.6.6-.3.6-.6.6zm.9-3.8c0-.5.4-.9.9-.9s.9.4.9.9-.4.9-.9.9-.9-.4-.9-.9zm1.4 6.3c-.3 0-.5-.2-.5-.5s.2-.5.5-.5.5.2.5.5c.1.3-.2.5-.5.5zm.7-9.1c-.2 0-.3-.1-.3-.3 0-.2.1-.3.3-.3.2 0 .3.1.3.3 0 .1-.1.3-.3.3zm.3-6.9c-.4 0-.8-.3-.8-.8 0-.4.3-.8.8-.8.4 0 .8.3.8.8 0 .4-.4.8-.8.8z"/><path fill="#FE9652" d="M59.5 14.7l11.1-8.1-1-1.4-11.2 8.2-.1-.1c-.1-.1-.3-.2-.3-.1-.1.1 0 .3 0 .4l.1.1-.8.6-.1-.3c-.1-.1-.3-.2-.3-.1-.1.1 0 .3 0 .4l.1.1-1.2.9-.1-.1c-.1-.1-.3-.1-.4 0-.1.1 0 .3.1.3l.1.1-.5 1.2-.2-.1c-.1 0-.3 0-.4.1 0 .1.1.3.2.3l.2.1-.5 1.1-.2-.1c-.1 0-.3 0-.4.1 0 .1.1.3.2.3l.2.1-6.2 15 1.9-.1 5.9-14.2.1.1c.1 0 .3 0 .3-.1s-.1-.3-.2-.3l.1-.1.5-1.1.2.1c.1 0 .3 0 .3-.1s-.1-.3-.2-.3l-.2-.1.4-.9.1.1c.1.1.3.1.4 0 .1-.1 0-.3-.1-.3h-.1l.8-.6.1.1c.1.1.2.2.3.1.1-.1 0-.3 0-.4l-.1-.1.8-.6.1.1c.1.1.2.2.3.1.1-.1 0-.3 0-.4h-.1z"/></g></svg>