<?xml version="1.0" encoding="utf-8"?>
<!-- Generator: Adobe Illustrator 17.1.0, SVG Export Plug-In . SVG Version: 6.00 Build 0)  -->
<!DOCTYPE svg PUBLIC "-//W3C//DTD SVG 1.1//EN" "http://www.w3.org/Graphics/SVG/1.1/DTD/svg11.dtd">
<svg version="1.1" xmlns="http://www.w3.org/2000/svg" xmlns:xlink="http://www.w3.org/1999/xlink" x="0px" y="0px" width="90px"
	 height="70px" viewBox="0 0 90 70" enable-background="new 0 0 90 70" xml:space="preserve">
<g id="Слой_47__x2B__Слой_0__x2B__Группа_1__x2B__Фигура_1_копия_2_xA0_Изображение_1_" display="none">
	
		<image display="inline" overflow="visible" width="980" height="600" id="Слой_47__x2B__Слой_0__x2B__Группа_1__x2B__Фигура_1_копия_2_xA0_Изображение" xlink:href="FB1653BB.png"  transform="matrix(1 0 0 1 -339.25 -319.3333)">
	</image>
</g>
<g id="Группа_179_1_" display="none">
	<g id="Группа_178_3_" display="inline">
		<g id="Тень_Слой_48_xA0_Изображение_1_">
			
				<image overflow="visible" width="980" height="600" id="Тень_Слой_48_xA0_Изображение" xlink:href="FB1653B9.png"  transform="matrix(1 0 0 1 -339.25 -319.3333)">
			</image>
		</g>
		<g id="Фигура_753_2_" enable-background="new    ">
			<defs>
				<path id="SVGID_1_" enable-background="new    " d="M563.7-721.3l-290,5c-11,0-20,9-20,20l-0.4,62.4l-43.6,47.6l43.3-8.3
					l-0.3,50.3c0,11,9,20,20,20l290,15c11,0,20-9,20-20l1-172C583.7-712.4,574.8-721.3,563.7-721.3z"/>
			</defs>
			<clipPath id="SVGID_2_">
				<use xlink:href="#SVGID_1_"  overflow="visible"/>
			</clipPath>
			<g clip-path="url(#SVGID_2_)">
				
					<image overflow="visible" width="980" height="600" id="Фигура_753_xA0_Изображение" xlink:href="FB1653BF.png"  transform="matrix(1 0 0 1 -339.25 -319.3333)">
				</image>
			</g>
		</g>
	</g>
</g>
<g id="шапка_сайта_1_">
	<g id="Группа_176_1_">
		<g id="иконки_1_">
			<g id="диалоги_1_" display="none">
			</g>
			<g id="мой_жираф_1_" display="none">
			</g>
		</g>
		<g id="поиск__x2B__добавить_1_">
			<g id="поиск_1_">
			</g>
		</g>
	</g>
</g>
<g id="категории_1_">
	<g id="_x31__ряд_1_">
		<g id="_x31__3_">
			<g id="К_мясу_xA0_Изображение_1_" display="none">
			</g>
		</g>
		<g id="_x32__1_">
			<g id="К_овощам_и_грибам_xA0_Изображение_1_" display="none">
			</g>
			<g id="_x31__копия_20_1_">
			</g>
		</g>
		<g id="_x33__1_">
			<g id="К_крупам_xA0_Изображение_1_" display="none">
			</g>
		</g>
		<g id="_x34__1_">
			<g id="К_рыбе_xA0_Изображение_1_" display="none">
			</g>
			<g id="_x31__копия_18_1_">
			</g>
		</g>
	</g>
	<g id="_x31__ряд_копия_1_">
		<g id="_x31__копия_1_">
			<g id="К_макаронам_xA0_Изображение_1_" display="none">
			</g>
			<g id="_x31__2_">
			</g>
		</g>
		<g id="_x32__копия_1_">
			<g id="К_бобовым_xA0_Изображение_1_" display="none">
			</g>
		</g>
		<g id="_x33__копия_1_">
			<g id="К_салатам_xA0_Изображение_1_" display="none">
			</g>
			<g id="_x31__копия_23_1_">
				<g id="Фигура_302_xA0_Изображение_1_">
				</g>
			</g>
		</g>
		<g id="_x34__копия_1_">
			<g id="К_маринадам_xA0_Изображение_1_" display="none">
			</g>
			<g id="_x31__копия_28_1_">
			</g>
		</g>
	</g>
	<g id="_x31__ряд_копия_2_1_">
		<g id="_x31__копия_2_1_">
			<g id="К_птице_xA0_Изображение_1_">
			</g>
		</g>
		<g id="_x32__копия_2_1_">
			<g id="К_супам_xA0_Изображение_1_">
			</g>
			<g id="Фигура_261_копия_2">
				<g>
					<path fill-rule="evenodd" clip-rule="evenodd" fill="#FAD450" d="M79.5,18.1c-0.4-0.5-2.2-1.3-2.7-0.9c0,0-0.8,0.4-1.5,1
						L55,30.6h5.4l18.9-10.8C79.8,19.4,79.9,18.7,79.5,18.1z"/>
				</g>
			</g>
			<g id="Фигура_261_копия_3">
				<g>
					<path fill-rule="evenodd" clip-rule="evenodd" fill="#B78ECA" d="M55.7,57.7H33c-1,0-1.7,0.8-1.7,1.7c0,1,0.8,2.2,1.7,2.2h22.7
						c1,0,1.7-1.2,1.7-2.2C57.4,58.5,56.6,57.7,55.7,57.7z M17.2,31.7c0,1.9,0.2,4.2,0.6,6.1h46.6c0.4,0,0.7,0.4,0.7,0.8
						c0,0.4-0.3,0.1-0.7,0.1H18.1c2,7.4,7.1,14.5,13.9,17.9h24.7c8.8-4.5,14.8-14.5,14.8-24.9H17.2z"/>
				</g>
			</g>
		</g>
		<g id="_x33__копия_2_1_">
			<g id="Для_варений_xA0_Изображение_1_">
			</g>
			<g id="_x31__копия_30_1_">
			</g>
		</g>
		<g id="_x34__копия_2_1_">
			<g id="К_напиткам_xA0_Изображение_1_">
			</g>
			<g id="_x31__копия_31_1_">
			</g>
		</g>
	</g>
	<g id="_x31__ряд_копия_3_1_">
		<g id="_x31__копия_4_1_">
			<g id="К_соусам_xA0_Изображение_1_">
			</g>
			<g id="_x31__копия_25_1_">
			</g>
		</g>
		<g id="_x32__копия_3_1_">
			<g id="К_хлебо_булочным_изделиям_xA0_Изображение_1_">
			</g>
			<g id="_x31__копия_19_1_">
				<g id="Фигура_259_копия_2_xA0_Изображение_1_">
				</g>
			</g>
		</g>
		<g id="_x33__копия_3_1_">
			<g id="К_кондитерским_изделиям_xA0_Изображение_1_">
			</g>
			<g id="птироженое_копия_1_">
			</g>
		</g>
		<g id="_x34__копия_3_1_">
			<g id="Для_консерваций_и_солений_xA0_Изображение_1_">
			</g>
			<g id="Группа_9_копия_1_">
				<g id="_x31__банка_1_">
				</g>
			</g>
		</g>
	</g>
</g>
<g id="по_алфавиту_1_" display="none">
	<g id="a_1_" display="inline">
	</g>
	<g id="б_1_" display="inline">
	</g>
	<g id="в_1_" display="inline">
	</g>
	<g id="м_1_" display="inline">
	</g>
	<g id="н_1_" display="inline">
	</g>
	<g id="о_1_" display="inline">
	</g>
	<g id="иконка_3_" display="inline">
	</g>
</g>
<g id="Фигура_750_2_" display="none" enable-background="new    ">
</g>
<g id="Группа_178_2_">
	<g id="иконка_2_">
	</g>
</g>
</svg>
