<?xml version="1.0" encoding="utf-8"?>
<!-- Generator: Adobe Illustrator 17.1.0, SVG Export Plug-In . SVG Version: 6.00 Build 0)  -->
<!DOCTYPE svg PUBLIC "-//W3C//DTD SVG 1.1//EN" "http://www.w3.org/Graphics/SVG/1.1/DTD/svg11.dtd">
<svg version="1.1" xmlns="http://www.w3.org/2000/svg" xmlns:xlink="http://www.w3.org/1999/xlink" x="0px" y="0px" width="90px"
	 height="70px" viewBox="0 0 90 70" enable-background="new 0 0 90 70" xml:space="preserve">
<g id="Слой_47__x2B__Слой_0__x2B__Группа_1__x2B__Фигура_1_копия_2_xA0_Изображение_1_" display="none">
	
		<image display="inline" overflow="visible" width="980" height="600" id="Слой_47__x2B__Слой_0__x2B__Группа_1__x2B__Фигура_1_копия_2_xA0_Изображение" xlink:href="89BE6CE3.png"  transform="matrix(1 0 0 1 -565.3333 -183.3333)">
	</image>
</g>
<g id="Группа_179_1_" display="none">
	<g id="Группа_178_3_" display="inline">
		<g id="Тень_Слой_48_xA0_Изображение_1_">
			
				<image overflow="visible" width="980" height="600" id="Тень_Слой_48_xA0_Изображение" xlink:href="89BE6CE1.png"  transform="matrix(1 0 0 1 -565.3333 -183.3333)">
			</image>
		</g>
		<g id="Фигура_753_2_" enable-background="new    ">
			<defs>
				<path id="SVGID_1_" enable-background="new    " d="M337.7-585.3l-290,5c-11,0-20,9-20,20L27.3-498l-43.6,47.6l43.3-8.3
					l-0.3,50.3c0,11,9,20,20,20l290,15c11,0,20-9,20-20l1-172C357.7-576.4,348.7-585.3,337.7-585.3z"/>
			</defs>
			<clipPath id="SVGID_2_">
				<use xlink:href="#SVGID_1_"  overflow="visible"/>
			</clipPath>
			<g clip-path="url(#SVGID_2_)">
				
					<image overflow="visible" width="980" height="600" id="Фигура_753_xA0_Изображение" xlink:href="89BE6CE7.png"  transform="matrix(1 0 0 1 -565.3333 -183.3333)">
				</image>
			</g>
		</g>
	</g>
</g>
<g id="шапка_сайта_1_">
	<g id="Группа_176_1_">
		<g id="иконки_1_">
			<g id="диалоги_1_" display="none">
			</g>
			<g id="мой_жираф_1_" display="none">
			</g>
		</g>
		<g id="поиск__x2B__добавить_1_">
			<g id="поиск_1_">
			</g>
		</g>
	</g>
</g>
<g id="категории_1_">
	<g id="_x31__ряд_1_">
		<g id="_x31__3_">
			<g id="К_мясу_xA0_Изображение_1_" display="none">
			</g>
		</g>
		<g id="_x32__1_">
			<g id="К_овощам_и_грибам_xA0_Изображение_1_" display="none">
			</g>
			<g id="_x31__копия_20_1_">
			</g>
		</g>
		<g id="_x33__1_">
			<g id="К_крупам_xA0_Изображение_1_" display="none">
			</g>
		</g>
		<g id="_x34__1_">
			<g id="К_рыбе_xA0_Изображение_1_" display="none">
			</g>
			<g id="_x31__копия_18_1_">
			</g>
		</g>
	</g>
	<g id="_x31__ряд_копия_1_">
		<g id="_x31__копия_1_">
			<g id="К_макаронам_xA0_Изображение_1_" display="none">
			</g>
			<g id="_x31__2_">
			</g>
		</g>
		<g id="_x32__копия_1_">
			<g id="К_бобовым_xA0_Изображение_1_" display="none">
			</g>
		</g>
		<g id="_x33__копия_1_">
			<g id="К_салатам_xA0_Изображение_1_" display="none">
			</g>
			<g id="_x31__копия_23_1_">
				<g id="Фигура_285_копия_6_2_">
					<g>
						<path fill-rule="evenodd" clip-rule="evenodd" fill="#EE6911" d="M64.5,32c1.3-1.6,3.1-2.5,4.8-3c-1.7-2.7-5.9-3.9-9.4-2.8
							c0.2,1.2,0.4,2.3,0.6,3.3C62.3,30.1,63.7,31.1,64.5,32z M50.6,31.7c0.8-0.8,6-1.6,7.6-2.1c-0.1-1-0.9-2-1.2-3.1
							c-2.9-0.7-9.1-0.6-11.5,2.3C47.3,29.2,49.2,30.1,50.6,31.7z M71.7,30.5c-2.3,0.3-5.5,1.3-6.7,4.3c-0.1,0.2-0.2,0.3-0.4,0.4
							c3.7,1.6,6,4,6,4c0.3,0.4,0.3,0.9,0,1.3c-0.4,0.3-0.9,0.3-1.3,0c-0.2-0.2-3.1-3.2-7.5-4.4c-1.3,0.2-2.8,0.4-4.5,0.4
							c-1.5,0-2.8-0.1-4-0.3c-2.4,0.7-4.9,2.1-7.6,4.4c-0.2,0.2-0.4,0.2-0.6,0.2c-0.3,0-0.5-0.1-0.7-0.3c-0.3-0.4-0.3-0.9,0.1-1.3
							c2.1-1.8,4.1-3.1,6-3.9c-0.7-0.4-1.1-0.9-1.1-1.6c0-0.1,0-0.2,0-0.3c-1.6-2.6-4.7-3.1-6.8-3.1c-6.2,2.8-8.7,8.8-8.7,14.9
							c0,2.4,0.6,4.7,1.6,6.8c1.5,3.9,5.6,11.3,14.5,13.2c0,0,20.9,4,28.1-12.8c1.1-2.2,1.8-4.6,1.8-7.2
							C80.1,39.2,77,32.5,71.7,30.5z M45.3,57.1c-0.4,0.6-1.1,0.8-1.7,0.6c-0.2-0.1-0.5-0.2-0.7-0.4c-4.7-4.4-5-11.6-5.1-11.9
							c0-1,0.7-1.9,1.6-2c0.9-0.1,1.7,0.6,1.8,1.6c0,0.1,0.3,5.9,4,9.4C45.9,55.2,46,56.4,45.3,57.1z"/>
					</g>
				</g>
				<g id="Фигура_302_xA0_Изображение_1_">
					
						<image overflow="visible" width="31" height="25" id="Фигура_302_xA0_Изображение" xlink:href="89BE6CE0.png"  transform="matrix(1 0 0 1 43.6667 19.6667)">
					</image>
				</g>
				<g id="Фигура_301_копия_2_">
					<g>
						<path fill-rule="evenodd" clip-rule="evenodd" fill="#42B037" d="M20.2,65.3c0.1,0.4,0.4,0.8,0.9,1c0.7,0.3,1.5-0.1,1.8-0.8
							c0.1-0.1,0.1-0.3,0.1-0.4c-0.2,0.1-0.4,0.1-0.5,0.2C21.7,65.4,21,65.5,20.2,65.3z M43.2,11.8c0.3-0.3,0.4-0.8,0.3-1.2
							c-0.2-0.8-0.9-1.2-1.7-1.1c-0.1,0-0.3,0.1-0.4,0.2c0.2,0.1,0.3,0.2,0.4,0.3C42.4,10.5,42.9,11.1,43.2,11.8z M30.2,12.1
							C18.7,23.8,12.7,39.9,13.8,56.3c0.4,5.7,4.7,9.4,8.5,8.4c3.8-1.1,6-5.2,5.7-9.3C27.2,43,31.7,30.9,40.4,22
							c2.8-2.9,3.9-7.5,1.7-10.8C39.9,8,34.2,8,30.2,12.1z M20,35c1,0,1.8,0.8,1.8,1.8c0,1-0.8,1.8-1.8,1.8c-1,0-1.8-0.8-1.8-1.8
							C18.1,35.9,18.9,35,20,35z M17.8,43.7c1,0,1.8,0.8,1.8,1.8c0,1-0.8,1.8-1.8,1.8c-1,0-1.8-0.8-1.8-1.8
							C15.9,44.5,16.8,43.7,17.8,43.7z M17.8,56.1c-1,0-1.8-0.8-1.8-1.8c0-1,0.8-1.8,1.8-1.8c1,0,1.8,0.8,1.8,1.8
							C19.6,55.3,18.8,56.1,17.8,56.1z M20,51.8c-1,0-1.8-0.8-1.8-1.8c0-1,0.8-1.8,1.8-1.8c1,0,1.8,0.8,1.8,1.8
							C21.8,50.9,21,51.8,20,51.8z M22.1,43.1c-1,0-1.8-0.8-1.8-1.8c0-1,0.8-1.8,1.8-1.8c1,0,1.8,0.8,1.8,1.8
							C24,42.2,23.1,43.1,22.1,43.1z M24.3,34.4c-1,0-1.8-0.8-1.8-1.8c0-1,0.8-1.8,1.8-1.8s1.8,0.8,1.8,1.8
							C26.1,33.6,25.3,34.4,24.3,34.4z M24.3,27.9c-1,0-1.8-0.8-1.8-1.8c0-1,0.8-1.8,1.8-1.8s1.8,0.8,1.8,1.8
							C26.1,27.1,25.3,27.9,24.3,27.9z M26.5,21.4c-1,0-1.8-0.8-1.8-1.8c0-1,0.8-1.8,1.8-1.8c1,0,1.8,0.8,1.8,1.8
							C28.3,20.6,27.5,21.4,26.5,21.4z M30.8,23.5c-1,0-1.8-0.8-1.8-1.8c0-1,0.8-1.8,1.8-1.8c1,0,1.8,0.8,1.8,1.8
							C32.6,22.7,31.8,23.5,30.8,23.5z M30.8,17c-1,0-1.8-0.8-1.8-1.8c0-1,0.8-1.8,1.8-1.8c1,0,1.8,0.8,1.8,1.8
							C32.6,16.2,31.8,17,30.8,17z"/>
					</g>
				</g>
			</g>
		</g>
		<g id="_x34__копия_1_">
			<g id="К_маринадам_xA0_Изображение_1_" display="none">
			</g>
			<g id="_x31__копия_28_1_">
			</g>
		</g>
	</g>
	<g id="_x31__ряд_копия_2_1_">
		<g id="_x31__копия_2_1_">
			<g id="К_птице_xA0_Изображение_1_">
			</g>
		</g>
		<g id="_x32__копия_2_1_">
			<g id="К_супам_xA0_Изображение_1_">
			</g>
		</g>
		<g id="_x33__копия_2_1_">
			<g id="Для_варений_xA0_Изображение_1_">
			</g>
			<g id="_x31__копия_30_1_">
			</g>
		</g>
		<g id="_x34__копия_2_1_">
			<g id="К_напиткам_xA0_Изображение_1_">
			</g>
			<g id="_x31__копия_31_1_">
			</g>
		</g>
	</g>
	<g id="_x31__ряд_копия_3_1_">
		<g id="_x31__копия_4_1_">
			<g id="К_соусам_xA0_Изображение_1_">
			</g>
			<g id="_x31__копия_25_1_">
			</g>
		</g>
		<g id="_x32__копия_3_1_">
			<g id="К_хлебо_булочным_изделиям_xA0_Изображение_1_">
			</g>
			<g id="_x31__копия_19_1_">
				<g id="Фигура_259_копия_2_xA0_Изображение_1_">
				</g>
			</g>
		</g>
		<g id="_x33__копия_3_1_">
			<g id="К_кондитерским_изделиям_xA0_Изображение_1_">
			</g>
			<g id="птироженое_копия_1_">
			</g>
		</g>
		<g id="_x34__копия_3_1_">
			<g id="Для_консерваций_и_солений_xA0_Изображение_1_">
			</g>
			<g id="Группа_9_копия_1_">
				<g id="_x31__банка_1_">
				</g>
			</g>
		</g>
	</g>
</g>
<g id="по_алфавиту_1_" display="none">
	<g id="a_1_" display="inline">
	</g>
	<g id="б_1_" display="inline">
	</g>
	<g id="в_1_" display="inline">
	</g>
	<g id="м_1_" display="inline">
	</g>
	<g id="н_1_" display="inline">
	</g>
	<g id="о_1_" display="inline">
	</g>
	<g id="иконка_3_" display="inline">
	</g>
</g>
<g id="Фигура_750_2_" display="none" enable-background="new    ">
</g>
<g id="Группа_178_2_">
	<g id="иконка_2_">
	</g>
</g>
</svg>
