<?xml version="1.0" encoding="utf-8"?>
<!-- Generator: Adobe Illustrator 17.1.0, SVG Export Plug-In . SVG Version: 6.00 Build 0)  -->
<!DOCTYPE svg PUBLIC "-//W3C//DTD SVG 1.1//EN" "http://www.w3.org/Graphics/SVG/1.1/DTD/svg11.dtd">
<svg version="1.1" xmlns="http://www.w3.org/2000/svg" xmlns:xlink="http://www.w3.org/1999/xlink" x="0px" y="0px" width="90px"
	 height="70px" viewBox="0 0 90 70" enable-background="new 0 0 90 70" xml:space="preserve">
<g id="Слой_47__x2B__Слой_0__x2B__Группа_1__x2B__Фигура_1_копия_2_xA0_Изображение_1_" display="none">
	
		<image display="inline" overflow="visible" width="980" height="600" id="Слой_47__x2B__Слой_0__x2B__Группа_1__x2B__Фигура_1_копия_2_xA0_Изображение" xlink:href="E34FA4DF.png"  transform="matrix(1 0 0 1 -345.5071 -462)">
	</image>
</g>
<g id="Группа_179_1_" display="none">
	<g id="Группа_178_3_" display="inline">
		<g id="Тень_Слой_48_xA0_Изображение_1_">
			
				<image overflow="visible" width="980" height="600" id="Тень_Слой_48_xA0_Изображение" xlink:href="E34FA4DD.png"  transform="matrix(1 0 0 1 -345.5071 -462)">
			</image>
		</g>
		<g id="Фигура_753_2_" enable-background="new    ">
			<defs>
				<path id="SVGID_1_" enable-background="new    " d="M557.5-864l-290,5c-11,0-20,9-20,20l-0.4,62.4L203.5-729l43.3-8.3l-0.3,50.3
					c0,11,9,20,20,20l290,15c11,0,20-9,20-20l1-172C577.5-855,568.5-864,557.5-864z"/>
			</defs>
			<clipPath id="SVGID_2_">
				<use xlink:href="#SVGID_1_"  overflow="visible"/>
			</clipPath>
			<g clip-path="url(#SVGID_2_)">
				
					<image overflow="visible" width="980" height="600" id="Фигура_753_xA0_Изображение" xlink:href="E34FA4E3.png"  transform="matrix(1 0 0 1 -345.5071 -462)">
				</image>
			</g>
		</g>
	</g>
</g>
<g id="шапка_сайта_1_">
	<g id="Группа_176_1_">
		<g id="иконки_1_">
			<g id="диалоги_1_" display="none">
			</g>
			<g id="мой_жираф_1_" display="none">
			</g>
		</g>
		<g id="поиск__x2B__добавить_1_">
			<g id="поиск_1_">
			</g>
		</g>
	</g>
</g>
<g id="категории_1_">
	<g id="_x31__ряд_1_">
		<g id="_x31__3_">
			<g id="К_мясу_xA0_Изображение_1_" display="none">
			</g>
		</g>
		<g id="_x32__1_">
			<g id="К_овощам_и_грибам_xA0_Изображение_1_" display="none">
			</g>
			<g id="_x31__копия_20_1_">
			</g>
		</g>
		<g id="_x33__1_">
			<g id="К_крупам_xA0_Изображение_1_" display="none">
			</g>
		</g>
		<g id="_x34__1_">
			<g id="К_рыбе_xA0_Изображение_1_" display="none">
			</g>
			<g id="_x31__копия_18_1_">
			</g>
		</g>
	</g>
	<g id="_x31__ряд_копия_1_">
		<g id="_x31__копия_1_">
			<g id="К_макаронам_xA0_Изображение_1_" display="none">
			</g>
			<g id="_x31__2_">
			</g>
		</g>
		<g id="_x32__копия_1_">
			<g id="К_бобовым_xA0_Изображение_1_" display="none">
			</g>
		</g>
		<g id="_x33__копия_1_">
			<g id="К_салатам_xA0_Изображение_1_" display="none">
			</g>
			<g id="_x31__копия_23_1_">
				<g id="Фигура_302_xA0_Изображение_1_">
				</g>
			</g>
		</g>
		<g id="_x34__копия_1_">
			<g id="К_маринадам_xA0_Изображение_1_" display="none">
			</g>
			<g id="_x31__копия_28_1_">
			</g>
		</g>
	</g>
	<g id="_x31__ряд_копия_2_1_">
		<g id="_x31__копия_2_1_">
			<g id="К_птице_xA0_Изображение_1_">
			</g>
		</g>
		<g id="_x32__копия_2_1_">
			<g id="К_супам_xA0_Изображение_1_">
			</g>
		</g>
		<g id="_x33__копия_2_1_">
			<g id="Для_варений_xA0_Изображение_1_">
			</g>
			<g id="_x31__копия_30_1_">
			</g>
		</g>
		<g id="_x34__копия_2_1_">
			<g id="К_напиткам_xA0_Изображение_1_">
			</g>
			<g id="_x31__копия_31_1_">
			</g>
		</g>
	</g>
	<g id="_x31__ряд_копия_3_1_">
		<g id="_x31__копия_4_1_">
			<g id="К_соусам_xA0_Изображение_1_">
			</g>
			<g id="_x31__копия_25_1_">
			</g>
		</g>
		<g id="_x32__копия_3_1_">
			<g id="К_хлебо_булочным_изделиям_xA0_Изображение_1_">
			</g>
			<g id="_x31__копия_19_1_">
				<g id="Фигура_339_1_">
					<g>
						<path fill-rule="evenodd" clip-rule="evenodd" fill="#FDE4A9" d="M33.7,30.2l-5.3-0.9L22.2,29h-6.2c0,0-5.9,0-6.8,0
							c-0.9,0-3,0.5-3,0.5l-0.9,4.6l3.4,2.7v8.9L9,54.6l2.1,1.4l4.8,1.1l8.7,0.9c0,0,7.3-0.5,8.4-0.5s1.1-1.4,1.1-1.4l-0.2-16.9
							l2.1-0.5l1.4-1.6l0.5-2.7v-2.7L33.7,30.2z"/>
					</g>
				</g>
				<g id="Фигура_316_копия_1_">
					<g>
						<path fill-rule="evenodd" clip-rule="evenodd" fill="#C77946" d="M44.6,23.5l-24.3-2c-0.1,0-0.2,0-0.3,0
							c-0.4,0-0.8,0.1-1.2,0.2l0,0l0,0c-0.3,0.1-0.5,0.2-0.8,0.4L6.3,27.7l0,0c-1.3,0.6-2.1,2-2.1,3.5v2.3c0,2,1.4,3.7,3.3,4.1v16
							c0,2.2,1.7,4,3.9,4.2l20.2,1.7c0.1,0,0.2,0,0.3,0c1,0,1.9-0.4,2.6-1v0l9.3-8.5c0.8-0.7,1.3-1.6,1.3-2.8V32.9
							c0.7-0.1,1.4-0.5,1.9-1c0.7-0.7,1-1.6,1-2.5v-2.1C48.1,25.4,46.5,23.7,44.6,23.5z M36.6,36c0,0.9-0.7,1.6-1.6,1.5
							c-1-0.1-1.6,0.5-1.6,1.6c0,4.1,0,16.5,0,16.5c0,0.9-0.7,1.6-1.6,1.5l-20.2-1.7c-0.9-0.1-1.6-0.9-1.6-1.8c0,0,0-12.4,0-16.5
							c0-1-0.6-1.7-1.6-1.8c-0.9-0.1-1.6-0.9-1.6-1.8v-2.3c0-0.9,0.7-1.6,1.6-1.5L35,31.9c0.9,0.1,1.6,0.9,1.6,1.8V36z M16.8,38.1
							c0-0.8-0.6-1.4-1.4-1.4c-0.8,0-1.4,0.6-1.4,1.4c0,0.8,0.6,1.4,1.4,1.4C16.2,39.5,16.8,38.9,16.8,38.1z M24.7,39.6
							c-0.7,0-1.2,0.6-1.2,1.2c0,0.7,0.6,1.2,1.2,1.2c0.7,0,1.2-0.6,1.2-1.2C25.9,40.1,25.4,39.6,24.7,39.6z M18.6,44.4
							c-0.4,0-0.8,0.3-0.8,0.8c0,0.4,0.3,0.8,0.8,0.8c0.4,0,0.8-0.3,0.8-0.8C19.3,44.7,19,44.4,18.6,44.4z M28.1,49.1
							c-0.3,0-0.6,0.3-0.6,0.6c0,0.3,0.3,0.6,0.6,0.6c0.3,0,0.6-0.3,0.6-0.6C28.7,49.4,28.4,49.1,28.1,49.1z M22.5,33.1
							c-0.5,0-0.9,0.4-0.9,0.9c0,0.5,0.4,0.9,0.9,0.9c0.5,0,0.9-0.4,0.9-0.9C23.4,33.5,23,33.1,22.5,33.1z M17.1,50.1
							c-0.9,0-1.6,0.7-1.6,1.6s0.7,1.6,1.6,1.6c0.9,0,1.6-0.7,1.6-1.6S18,50.1,17.1,50.1z"/>
					</g>
				</g>
				<g id="Фигура_259_копия_2_xA0_Изображение_1_">
					
						<image overflow="visible" width="59" height="45" id="Фигура_259_копия_2_xA0_Изображение" xlink:href="E34FA4E5.png"  transform="matrix(1 0 0 1 34.4929 21)">
					</image>
				</g>
			</g>
		</g>
		<g id="_x33__копия_3_1_">
			<g id="К_кондитерским_изделиям_xA0_Изображение_1_">
			</g>
			<g id="птироженое_копия_1_">
			</g>
		</g>
		<g id="_x34__копия_3_1_">
			<g id="Для_консерваций_и_солений_xA0_Изображение_1_">
			</g>
			<g id="Группа_9_копия_1_">
				<g id="_x31__банка_1_">
				</g>
			</g>
		</g>
	</g>
</g>
<g id="по_алфавиту_1_" display="none">
	<g id="a_1_" display="inline">
	</g>
	<g id="б_1_" display="inline">
	</g>
	<g id="в_1_" display="inline">
	</g>
	<g id="м_1_" display="inline">
	</g>
	<g id="н_1_" display="inline">
	</g>
	<g id="о_1_" display="inline">
	</g>
	<g id="иконка_3_" display="inline">
	</g>
</g>
<g id="Фигура_750_2_" display="none" enable-background="new    ">
</g>
<g id="Группа_178_2_">
	<g id="иконка_2_">
	</g>
</g>
</svg>
