<?xml version="1.0" encoding="utf-8"?><svg xmlns="http://www.w3.org/2000/svg" width="90" height="70" viewBox="0 0 90 70"><g fill-rule="evenodd" clip-rule="evenodd"><path fill="#59BC4F" d="M71 29.9c.2-2 1.3-5 5-9l-.6-.8c-4.9 2.8-8.3 3.4-10.2 2.6-.1-.1-.3-.1-.4-.1-3.4-1.4-7.5-1-10.6 1.4-1.2.9-2.1 2-2.7 3.3l-2.7 2.1c-1.7.3-3.4 1-4.9 2.2-1.5 1.2-2.6 2.7-3.3 4.3l-3.8 3c-1.3.4-2.6 1-3.8 1.9-2.1 1.7-3.4 4-3.9 6.5-.2.6-.3 1.3-.3 2 0 .1 0 .2 0 .3.1.5.2 1.2.2 2.1-.2 2-1.3 5-5 9l.6.8c4.9-2.8 8.3-3.4 10.2-2.6.8.3 1.6.5 2.5.5 3 .7 6.2 0 8.8-2 1.2-.9 2.1-2.1 2.8-3.4l3.6-2.8c1.8-.3 3.5-1 5-2.2 1.5-1.2 2.6-2.7 3.3-4.4l2.5-2c1.4-.3 2.7-1 3.9-1.9 3.3-2.6 4.6-6.7 3.8-10.5 0-.2 0-.3 0-.3z"/><path fill="#86DE7C" d="M58.9 20c-.2-1.5-.7-2.9-1.6-4.2 0-.1 0-.1-.1-.2-.5-1.9-.6-5.2 1.5-10.2l-.7-.5c-3.7 4.3-6.6 6.1-8.6 6-.1 0-.3 0-.4 0-3.7-.1-7.4 1.7-9.4 5-.8 1.3-1.2 2.6-1.4 4l-1.8 2.9c-1.5.9-2.9 2.2-3.9 3.8-1 1.6-1.5 3.4-1.6 5.2L28.3 36c-1.1.8-2.1 1.8-2.9 3.1-1.4 2.3-1.8 5-1.4 7.4.1.7.2 1.3.4 1.9 0 .1.1.2.1.3.3.4.6 1 .9 1.9.3 1.1.4 2.6.1 4.6 1-1.7 1.3-3 1.4-3.9.1-.7 0-1.2-.1-1.4l-.1-.3v-.3c0-.1 0-.2 0-.3v-.1c.1-.7.2-1.5.4-2.2.5-3 2.1-5.7 4.5-7.6 1.2-1 2.6-1.7 4.1-2.1l.6-.5c-2.6-2.1-3.3-5.8-1.5-8.7 1.9-3.2 6-4.1 9.2-2.2 1 .6 1.7 1.4 2.3 2.3.5-.2 1-.3 1.6-.4l1.9-1.5c-1.7.4-3.5.2-5.1-.7-3.1-1.9-4.1-5.9-2.2-9 1.9-3.1 5.9-4.1 9-2.2 2.6 1.6 3.7 4.6 2.9 7.4 1.5-.8 3-1.3 4.5-1.5zm-15.3 6.6c-2.4-1.5-5.1-1.4-6 .2-.9 1.5.2 4 2.6 5.4.1 0 .2.1.2.1.6-.8 1.4-1.5 2.2-2.2.9-.7 1.9-1.3 3-1.7-.5-.7-1.2-1.3-2-1.8zM51.1 15c-2.3-1.4-5-1.4-5.9.2-.9 1.5.2 3.9 2.6 5.3 2.3 1.4 5 1.4 5.9-.2.9-1.5-.3-3.9-2.6-5.3z"/></g></svg>