<?xml version="1.0" encoding="utf-8"?><svg xmlns="http://www.w3.org/2000/svg" width="90" height="70" viewBox="0 0 90 70"><g fill-rule="evenodd" clip-rule="evenodd"><path fill="#FE802C" d="M61.7 33.1c.1-1.4-4.8-1.8-10.6-4.1-7.4-2.9-5.5-2.7-10.7-.4-3.8 1.7-9.1 1.2-10.2 3.6-.2.1-.3.2-.5.3-2.6 2-1 7.5-.3 10.4.8 3.8 2.4 10 3.4 13.8.5 2.2 1.5 4.2 3.6 5 2.1.8 4.2 1.1 9.2 1.1 5 .1 7.5-.7 9.3-1.2 1.8-.5 2.9-2.7 3.4-4.9 1-3.8 2.6-10 3.4-13.8.4-2.6 1.3-7.9 0-9.8zm-16-9.8c5.5-.1 7.3-4.5 5.5-8.4-1.8-3.9-7.4-5.6-7.4-5.6 2.2 1.7-1.9 4.6-3.2 6.5-1.2 1.9-.4 7.6 5.1 7.5z"/><path fill="#FADD17" d="M55 26.3c-7.4-2.9-14.8-2-20 .3-5.2 2.4-12.5 6.2-9.1 13.2 3.3 6.9 9.7-1.4 9.7-1.4s1.2 5.9 6 5.3c4.8-.5 5.5-3.7 5.5-3.7s1.6 3.7 6.4 3.4c4.8-.3 4.7-3.6 4.7-3.6s3.5 4.1 6.7 1.7c4-2.7-2.5-12.3-9.9-15.2z"/><path fill="#fff" d="M55.4 38.1c-2.7 3.3-7.2 2.2-9.8-.2-4.1 3.7-8.6 1.8-10.2 0-1.7 2.9-6.6 3.5-6.6 3.5s.1 2.5.5 2.8c2.4 0 4.6-1.7 6.2-2.9 3.3 3.1 7.2 2.8 10.2.9 3.8 3.7 8.3 1.2 9.4-.1 3 3.6 7.1-.4 7.1-1.4-3.1 1.3-4.7-.9-6.8-2.6zm-16.5 8.3l-3.9.1 5.3 12.6zm4.2.4l2 13.9 3.1-13.8zm9.3.2l-2 11 5.9-11.1zM45 14.2c-3.5 3.5-.3 6.9-.3 6.9l.9-.3s-.1-4.8-.6-6.6z"/></g></svg>