<?xml version="1.0" encoding="utf-8"?><svg xmlns="http://www.w3.org/2000/svg" width="90" height="70" viewBox="0 0 90 70"><g fill-rule="evenodd" clip-rule="evenodd"><path fill="#7BC9FE" d="M39.3 16.3c-12.6 0-21.5 7-26.9 17.5l3.9 2.9-2.5 4.1c2.9 5.5 2.9 7.6 8.4 10.6C25.8 47.8 31.3 40 32.4 35c-.1 5.3-2 14.4-5 18.6 4 1.8 7.2 4 11.8 3.7C58.9 56 68.3 39.2 68.3 39.2l.1-4.5c.1 0-11.6-18.4-29.1-18.4zm-18 19.2c-1.7 0-4.6-3.8-4.6-5.4 0-1.7 4.7-4.6 6.3-4.6 1.7 0 3.2 2.2 3.2 3.9 0 1.6-3.3 6.1-4.9 6.1zm14.1 17.9c3.4-4.4 5.4-10.3 5.4-16.7 0-6.4-2-12.3-5.4-16.7 5.1 3.8 8.4 9.9 8.4 16.7 0 6.8-3.3 12.9-8.4 16.7zm14.5-2.6c2.8-3.7 4.5-8.5 4.5-13.8 0-5.3-1.7-10.2-4.5-13.8 4.2 3.2 6.9 8.2 6.9 13.8 0 5.7-2.7 10.7-6.9 13.8z"/><path fill="#F5741E" d="M55 54.8l8.7.4-3.5-3.8c-1.6 1.3-3.3 2.4-5.2 3.4zM60.5 17l-8 .5c1.7.7 3.4 1.6 4.9 2.6l3.1-3.1zm22.7 7.3c-8 .9-14.7 10.4-14.7 10.4l-.1 4.5s6.6 9.7 14.8 10.6c-.4-5.4-3.1-10-5.9-12.7 2.8-2.9 5.5-7.4 5.9-12.8z"/><path fill="#C1C1C1" d="M29.8 17.6C19.7 19.7 16.5 23 9.9 33.2l3.5 3.6-3.5 3.5c2.9 5.5 8.2 9.8 13.6 12.8 3.7-3.6 6.3-8.2 7.4-13.3-.1 5.3-1.8 10.4-4.8 14.6 4 1.8 6.3-5 9-8.9 4.7-9.2-1.7-24.3-5.3-27.9zm-9 15.2c-1.7 0-3-1.3-3-3s1.3-3 3-3 3 1.3 3 3-1.3 3-3 3z"/></g></svg>