<?xml version="1.0" encoding="utf-8"?>
<!-- Generator: Adobe Illustrator 17.1.0, SVG Export Plug-In . SVG Version: 6.00 Build 0)  -->
<!DOCTYPE svg PUBLIC "-//W3C//DTD SVG 1.1//EN" "http://www.w3.org/Graphics/SVG/1.1/DTD/svg11.dtd">
<svg version="1.1" xmlns="http://www.w3.org/2000/svg" xmlns:xlink="http://www.w3.org/1999/xlink" x="0px" y="0px" width="90px"
	 height="70px" viewBox="0 0 90 70" enable-background="new 0 0 90 70" xml:space="preserve">
<g id="Слой_47__x2B__Слой_0__x2B__Группа_1__x2B__Фигура_1_копия_2_xA0_Изображение_1_" display="none">
	
		<image display="inline" overflow="visible" width="980" height="600" id="Слой_47__x2B__Слой_0__x2B__Группа_1__x2B__Фигура_1_копия_2_xA0_Изображение" xlink:href="576C4D71.png"  transform="matrix(1 0 0 1 -798 -459.3333)">
	</image>
</g>
<g id="Группа_179_1_" display="none">
	<g id="Группа_178_3_" display="inline">
		<g id="Тень_Слой_48_xA0_Изображение_1_">
			
				<image overflow="visible" width="980" height="600" id="Тень_Слой_48_xA0_Изображение" xlink:href="576C4D73.png"  transform="matrix(1 0 0 1 -798 -459.3333)">
			</image>
		</g>
		<g id="Фигура_753_2_" enable-background="new    ">
			<defs>
				<path id="SVGID_1_" enable-background="new    " d="M105-861.3l-290,5c-11,0-20,9-20,20l-0.4,62.4l-43.6,47.6l43.3-8.3
					l-0.3,50.3c0,11,9,20,20,20l290,15c11,0,20-9,20-20l1-172C125-852.4,116-861.3,105-861.3z"/>
			</defs>
			<clipPath id="SVGID_2_">
				<use xlink:href="#SVGID_1_"  overflow="visible"/>
			</clipPath>
			<g clip-path="url(#SVGID_2_)">
				
					<image overflow="visible" width="980" height="600" id="Фигура_753_xA0_Изображение" xlink:href="576C4D76.png"  transform="matrix(1 0 0 1 -798 -459.3333)">
				</image>
			</g>
		</g>
	</g>
</g>
<g id="шапка_сайта_1_">
	<g id="Группа_176_1_">
		<g id="иконки_1_">
			<g id="диалоги_1_" display="none">
			</g>
			<g id="мой_жираф_1_" display="none">
			</g>
		</g>
		<g id="поиск__x2B__добавить_1_">
			<g id="поиск_1_">
			</g>
		</g>
	</g>
</g>
<g id="категории_1_">
	<g id="_x31__ряд_1_">
		<g id="_x31__3_">
			<g id="К_мясу_xA0_Изображение_1_" display="none">
			</g>
		</g>
		<g id="_x32__1_">
			<g id="К_овощам_и_грибам_xA0_Изображение_1_" display="none">
			</g>
			<g id="_x31__копия_20_1_">
			</g>
		</g>
		<g id="_x33__1_">
			<g id="К_крупам_xA0_Изображение_1_" display="none">
			</g>
		</g>
		<g id="_x34__1_">
			<g id="К_рыбе_xA0_Изображение_1_" display="none">
			</g>
			<g id="_x31__копия_18_1_">
			</g>
		</g>
	</g>
	<g id="_x31__ряд_копия_1_">
		<g id="_x31__копия_1_">
			<g id="К_макаронам_xA0_Изображение_1_" display="none">
			</g>
			<g id="_x31__2_">
			</g>
		</g>
		<g id="_x32__копия_1_">
			<g id="К_бобовым_xA0_Изображение_1_" display="none">
			</g>
		</g>
		<g id="_x33__копия_1_">
			<g id="К_салатам_xA0_Изображение_1_" display="none">
			</g>
			<g id="_x31__копия_23_1_">
				<g id="Фигура_302_xA0_Изображение_1_">
				</g>
			</g>
		</g>
		<g id="_x34__копия_1_">
			<g id="К_маринадам_xA0_Изображение_1_" display="none">
			</g>
			<g id="_x31__копия_28_1_">
			</g>
		</g>
	</g>
	<g id="_x31__ряд_копия_2_1_">
		<g id="_x31__копия_2_1_">
			<g id="К_птице_xA0_Изображение_1_">
			</g>
		</g>
		<g id="_x32__копия_2_1_">
			<g id="К_супам_xA0_Изображение_1_">
			</g>
		</g>
		<g id="_x33__копия_2_1_">
			<g id="Для_варений_xA0_Изображение_1_">
			</g>
			<g id="_x31__копия_30_1_">
			</g>
		</g>
		<g id="_x34__копия_2_1_">
			<g id="К_напиткам_xA0_Изображение_1_">
			</g>
			<g id="_x31__копия_31_1_">
			</g>
		</g>
	</g>
	<g id="_x31__ряд_копия_3_1_">
		<g id="_x31__копия_4_1_">
			<g id="К_соусам_xA0_Изображение_1_">
			</g>
			<g id="_x31__копия_25_1_">
			</g>
		</g>
		<g id="_x32__копия_3_1_">
			<g id="К_хлебо_булочным_изделиям_xA0_Изображение_1_">
			</g>
			<g id="_x31__копия_19_1_">
				<g id="Фигура_259_копия_2_xA0_Изображение_1_">
				</g>
			</g>
		</g>
		<g id="_x33__копия_3_1_">
			<g id="К_кондитерским_изделиям_xA0_Изображение_1_">
			</g>
			<g id="птироженое_копия_1_">
			</g>
		</g>
		<g id="_x34__копия_3_1_">
			<g id="Для_консерваций_и_солений_xA0_Изображение_1_">
			</g>
			<g id="Группа_9_копия_1_">
				<g id="_x31__банка_1_">
					<g id="Фигура_291_копия_3">
						<g>
							<ellipse fill-rule="evenodd" clip-rule="evenodd" fill="#60C93F" cx="33.5" cy="55" rx="6.9" ry="2.5"/>
						</g>
					</g>
					<g id="Фигура_291_копия_4">
						<g>
							
								<ellipse transform="matrix(0.6026 -0.7981 0.7981 0.6026 -30.5634 37.8097)" fill-rule="evenodd" clip-rule="evenodd" fill="#60C93F" cx="22.7" cy="49.6" rx="6.9" ry="2.5"/>
						</g>
					</g>
					<g id="Фигура_291_копия_5">
						<g>
							
								<ellipse transform="matrix(0.5746 -0.8184 0.8184 0.5746 -22.5648 52.1402)" fill-rule="evenodd" clip-rule="evenodd" fill="#60C93F" cx="38.9" cy="47.8" rx="2.5" ry="6.9"/>
						</g>
					</g>
					<g id="Фигура_292_копия_13">
						<g>
							<circle fill-rule="evenodd" clip-rule="evenodd" fill="#60C93F" cx="30.1" cy="47.8" r="3.8"/>
						</g>
					</g>
					<g id="Фигура_292_копия_14">
						<g>
							<circle fill-rule="evenodd" clip-rule="evenodd" fill="#60C93F" cx="22.9" cy="40.6" r="3.8"/>
						</g>
					</g>
					<g id="Фигура_292_копия_15">
						<g>
							<circle fill-rule="evenodd" clip-rule="evenodd" fill="#F35321" cx="31.9" cy="38.8" r="3.8"/>
						</g>
					</g>
					<g id="Фигура_292_копия_16">
						<g>
							<circle fill-rule="evenodd" clip-rule="evenodd" fill="#60C93F" cx="40.9" cy="38.8" r="3.8"/>
						</g>
					</g>
					<g id="Фигура_292_копия_17">
						<g>
							<circle fill-rule="evenodd" clip-rule="evenodd" fill="#F35321" cx="40.9" cy="46" r="3.8"/>
						</g>
					</g>
					<g id="Фигура_292_копия_18">
						<g>
							<circle fill-rule="evenodd" clip-rule="evenodd" fill="#60C93F" cx="39.1" cy="53.2" r="3.8"/>
						</g>
					</g>
					<g id="Фигура_292_копия_19">
						<g>
							<circle fill-rule="evenodd" clip-rule="evenodd" fill="#F35321" cx="31.9" cy="56.8" r="3.8"/>
						</g>
					</g>
					<g id="Фигура_292_копия_20">
						<g>
							<circle fill-rule="evenodd" clip-rule="evenodd" fill="#60C93F" cx="24.7" cy="53.2" r="3.8"/>
						</g>
					</g>
					<g id="Фигура_292_копия_21">
						<g>
							<circle fill-rule="evenodd" clip-rule="evenodd" fill="#60C93F" cx="24.7" cy="44.2" r="3.8"/>
						</g>
					</g>
					<g id="Фигура_292_копия_22">
						<g>
							<circle fill-rule="evenodd" clip-rule="evenodd" fill="#F35321" cx="31.9" cy="40.6" r="3.8"/>
						</g>
					</g>
					<g id="Фигура_292_копия_23">
						<g>
							<circle fill-rule="evenodd" clip-rule="evenodd" fill="#60C93F" cx="39.1" cy="55" r="3.8"/>
						</g>
					</g>
					<g id="Фигура_292_копия_24">
						<g>
							<circle fill-rule="evenodd" clip-rule="evenodd" fill="#60C93F" cx="24.7" cy="55" r="3.8"/>
						</g>
					</g>
					<g id="Фигура_292_копия_25">
						<g>
							<circle fill-rule="evenodd" clip-rule="evenodd" fill="#60C93F" cx="35.5" cy="42.4" r="3.8"/>
						</g>
					</g>
					<g id="Фигура_293_копия">
						<g>
							<rect x="19.7" y="25.6" fill-rule="evenodd" clip-rule="evenodd" fill="#75C6F9" width="24.9" height="1.9"/>
						</g>
					</g>
					<g id="Фигура_288_копия_2">
						<g>
							<path fill-rule="evenodd" clip-rule="evenodd" fill="#61BDF7" d="M45,24.3c-1.1-1.5-2.8-2.6-4.6-3.1
								c-0.3-0.1-0.5-0.2-0.6-0.4c-0.1-0.2-0.2-0.4-0.2-0.7v-0.8c0-0.8-0.6-1.4-1.4-1.4c-0.8,0-1.4,0.6-1.4,1.4v0.8
								c0,0.9,0.3,1.7,0.8,2.4c0.5,0.7,1.2,1.2,2.1,1.4c1.3,0.3,2.4,1.1,3.1,2.1c0.8,1,1.2,2.2,1.2,3.6v23.6c0,1.6-0.7,3.1-1.7,4.1
								c-1.1,1.1-2.5,1.7-4.1,1.7H25.3c-1.6,0-3.1-0.7-4.1-1.7c-1.1-1.1-1.7-2.5-1.7-4.1V29.6c0-1.3,0.5-2.6,1.2-3.6
								c0.8-1,1.9-1.8,3.1-2.1c0.9-0.2,1.6-0.7,2.1-1.4c0.5-0.7,0.8-1.5,0.8-2.4v-0.8c0-0.8-0.6-1.4-1.4-1.4c-0.8,0-1.4,0.6-1.4,1.4
								v0.8c0,0.3-0.1,0.5-0.2,0.7c-0.1,0.2-0.4,0.3-0.6,0.4c-1.9,0.5-3.5,1.6-4.6,3.1c-1.1,1.5-1.8,3.3-1.8,5.2v23.6
								c0,2.4,1,4.5,2.5,6.1c1.6,1.6,3.7,2.5,6.1,2.5h12.8c2.4,0,4.5-1,6.1-2.5c1.6-1.6,2.5-3.7,2.5-6.1V29.6
								C46.7,27.6,46.1,25.8,45,24.3z M23.7,16.9h16c0.8,0,1.4-0.6,1.4-1.4c0-0.8-0.6-1.4-1.4-1.4h-16c-0.8,0-1.4,0.6-1.4,1.4
								C22.3,16.3,22.9,16.9,23.7,16.9z"/>
						</g>
					</g>
				</g>
				<g id="Фигура_290_копия_17_2_">
					<g>
						<circle fill-rule="evenodd" clip-rule="evenodd" fill="#FADD17" cx="56.9" cy="47.9" r="3.3"/>
					</g>
				</g>
				<g id="Фигура_290_копия_18_2_">
					<g>
						<circle fill-rule="evenodd" clip-rule="evenodd" fill="#ED9707" cx="60.2" cy="39.6" r="3.3"/>
					</g>
				</g>
				<g id="Фигура_290_копия_19_2_">
					<g>
						<circle fill-rule="evenodd" clip-rule="evenodd" fill="#FECC1E" cx="60.2" cy="46.9" r="3.3"/>
					</g>
				</g>
				<g id="Фигура_290_копия_20_2_">
					<g>
						<circle fill-rule="evenodd" clip-rule="evenodd" fill="#FECC1E" cx="65.6" cy="37.8" r="3.3"/>
					</g>
				</g>
				<g id="Фигура_290_копия_21_2_">
					<g>
						<circle fill-rule="evenodd" clip-rule="evenodd" fill="#FEE488" cx="72.8" cy="45" r="3.3"/>
					</g>
				</g>
				<g id="Фигура_290_копия_22_2_">
					<g>
						<circle fill-rule="evenodd" clip-rule="evenodd" fill="#FECC1E" cx="65.6" cy="45" r="3.3"/>
					</g>
				</g>
				<g id="Фигура_290_копия_23_2_">
					<g>
						<circle fill-rule="evenodd" clip-rule="evenodd" fill="#FC8526" cx="67.4" cy="52.3" r="3.3"/>
					</g>
				</g>
				<g id="Фигура_290_копия_24_2_">
					<g>
						<circle fill-rule="evenodd" clip-rule="evenodd" fill="#FECD21" cx="58.4" cy="52.3" r="3.3"/>
					</g>
				</g>
				<g id="Фигура_290_копия_25_2_">
					<g>
						<circle fill-rule="evenodd" clip-rule="evenodd" fill="#F35321" cx="53" cy="48.7" r="3.3"/>
					</g>
				</g>
				<g id="Фигура_290_копия_26_2_">
					<g>
						<circle fill-rule="evenodd" clip-rule="evenodd" fill="#ED9707" cx="62" cy="57.7" r="3.3"/>
					</g>
				</g>
				<g id="Фигура_290_копия_27_2_">
					<g>
						<circle fill-rule="evenodd" clip-rule="evenodd" fill="#FECC1E" cx="65.2" cy="46.2" r="3.3"/>
					</g>
				</g>
				<g id="Фигура_290_копия_28_2_">
					<g>
						<circle fill-rule="evenodd" clip-rule="evenodd" fill="#ED9707" cx="70.1" cy="39.6" r="3.3"/>
					</g>
				</g>
				<g id="Фигура_290_копия_29_2_">
					<g>
						<circle fill-rule="evenodd" clip-rule="evenodd" fill="#FECC1E" cx="71.8" cy="49.5" r="3.3"/>
					</g>
				</g>
				<g id="Фигура_290_копия_30_2_">
					<g>
						<circle fill-rule="evenodd" clip-rule="evenodd" fill="#FECC1E" cx="70.1" cy="57.8" r="3.3"/>
					</g>
				</g>
				<g id="Фигура_290_копия_31_2_">
					<g>
						<circle fill-rule="evenodd" clip-rule="evenodd" fill="#FECC1E" cx="63.5" cy="54.5" r="3.3"/>
					</g>
				</g>
				<g id="Фигура_290_копия_32_2_">
					<g>
						<circle fill-rule="evenodd" clip-rule="evenodd" fill="#ED9707" cx="55.3" cy="56.1" r="3.3"/>
					</g>
				</g>
				<g id="Фигура_290_копия_33_2_">
					<g>
						<circle fill-rule="evenodd" clip-rule="evenodd" fill="#ED9707" cx="53.6" cy="41.3" r="3.3"/>
					</g>
				</g>
				<g id="Фигура_288_копия_3_2_">
					<g>
						<path fill-rule="evenodd" clip-rule="evenodd" fill="#37B4DD" d="M75.4,27.8c-1-1.4-2.5-2.4-4.2-2.8c-0.2-0.1-0.4-0.2-0.6-0.4
							c-0.1-0.2-0.2-0.4-0.2-0.6v-0.7c0-0.7-0.6-1.3-1.3-1.3c-0.7,0-1.3,0.6-1.3,1.3v0.7c0,0.8,0.3,1.6,0.7,2.2
							c0.5,0.6,1.1,1.1,1.9,1.3c1.1,0.3,2.1,1,2.8,1.9c0.7,0.9,1.1,2,1.1,3.2V54c0,1.5-0.6,2.8-1.6,3.8c-1,1-2.3,1.6-3.8,1.6H57.5
							c-1.5,0-2.8-0.6-3.8-1.6c-1-1-1.6-2.3-1.6-3.8V32.5c0-1.2,0.4-2.3,1.1-3.2c0.7-0.9,1.7-1.6,2.8-1.9c0.8-0.2,1.4-0.7,1.9-1.3
							c0.5-0.6,0.7-1.4,0.7-2.2v-0.7c0-0.7-0.6-1.3-1.3-1.3c-0.7,0-1.3,0.6-1.3,1.3v0.7c0,0.2-0.1,0.5-0.2,0.6
							c-0.1,0.2-0.3,0.3-0.6,0.4c-1.7,0.5-3.1,1.5-4.2,2.8c-1,1.3-1.6,3-1.6,4.8V54c0,2.2,0.9,4.1,2.3,5.5c1.4,1.4,3.4,2.3,5.5,2.3
							h11.6c2.2,0,4.1-0.9,5.5-2.3c1.4-1.4,2.3-3.4,2.3-5.5V32.5C77,30.8,76.4,29.1,75.4,27.8z M56,21h14.6c0.7,0,1.3-0.6,1.3-1.3
							c0-0.7-0.6-1.3-1.3-1.3H56c-0.7,0-1.3,0.6-1.3,1.3C54.8,20.4,55.3,21,56,21z"/>
					</g>
				</g>
				<g id="Фигура_289_копия_2_">
					<g>
						<rect x="54.7" y="27.5" fill-rule="evenodd" clip-rule="evenodd" fill="#69C3FD" width="16.9" height="1.2"/>
					</g>
				</g>
			</g>
		</g>
	</g>
</g>
<g id="по_алфавиту_1_" display="none">
	<g id="a_1_" display="inline">
	</g>
	<g id="б_1_" display="inline">
	</g>
	<g id="в_1_" display="inline">
	</g>
	<g id="м_1_" display="inline">
	</g>
	<g id="н_1_" display="inline">
	</g>
	<g id="о_1_" display="inline">
	</g>
	<g id="иконка_3_" display="inline">
	</g>
</g>
<g id="Фигура_750_2_" display="none" enable-background="new    ">
</g>
<g id="Группа_178_2_">
	<g id="иконка_2_">
	</g>
</g>
</svg>
