<?xml version="1.0" encoding="utf-8"?>
<!-- Generator: Adobe Illustrator 17.1.0, SVG Export Plug-In . SVG Version: 6.00 Build 0)  -->
<!DOCTYPE svg PUBLIC "-//W3C//DTD SVG 1.1//EN" "http://www.w3.org/Graphics/SVG/1.1/DTD/svg11.dtd">
<svg version="1.1" xmlns="http://www.w3.org/2000/svg" xmlns:xlink="http://www.w3.org/1999/xlink" x="0px" y="0px" width="90px"
	 height="70px" viewBox="0 0 90 70" enable-background="new 0 0 90 70" xml:space="preserve">
<g id="Слой_47__x2B__Слой_0__x2B__Группа_1__x2B__Фигура_1_копия_2_xA0_Изображение_1_" display="none">
	
		<image display="inline" overflow="visible" width="980" height="600" id="Слой_47__x2B__Слой_0__x2B__Группа_1__x2B__Фигура_1_копия_2_xA0_Изображение" xlink:href="5B937006.png"  transform="matrix(1 0 0 1 -794.6667 -34.281)">
	</image>
</g>
<g id="Группа_179_1_" display="none">
	<g id="Группа_178_3_" display="inline">
		<g id="Тень_Слой_48_xA0_Изображение_1_">
			
				<image overflow="visible" width="980" height="600" id="Тень_Слой_48_xA0_Изображение" xlink:href="5B93700A.png"  transform="matrix(1 0 0 1 -794.6667 -34.281)">
			</image>
		</g>
		<g id="Фигура_753_2_" enable-background="new    ">
			<defs>
				<path id="SVGID_1_" enable-background="new    " d="M108.3-436.3l-290,5c-11,0-20,9-20,20l-0.4,62.4l-43.6,47.6l43.3-8.3
					l-0.3,50.3c0,11,9,20,20,20l290,15c11,0,20-9,20-20l1-172C128.3-427.3,119.4-436.3,108.3-436.3z"/>
			</defs>
			<clipPath id="SVGID_2_">
				<use xlink:href="#SVGID_1_"  overflow="visible"/>
			</clipPath>
			<g clip-path="url(#SVGID_2_)">
				
					<image overflow="visible" width="980" height="600" id="Фигура_753_xA0_Изображение" xlink:href="5B93700D.png"  transform="matrix(1 0 0 1 -794.6667 -34.281)">
				</image>
			</g>
		</g>
	</g>
</g>
<g id="шапка_сайта_1_">
	<g id="Группа_176_1_">
		<g id="иконки_1_">
			<g id="диалоги_1_" display="none">
			</g>
			<g id="мой_жираф_1_" display="none">
			</g>
		</g>
		<g id="поиск__x2B__добавить_1_">
			<g id="поиск_1_">
			</g>
		</g>
	</g>
</g>
<g id="категории_1_">
	<g id="_x31__ряд_1_">
		<g id="_x31__3_">
			<g id="К_мясу_xA0_Изображение_1_" display="none">
			</g>
		</g>
		<g id="_x32__1_">
			<g id="К_овощам_и_грибам_xA0_Изображение_1_" display="none">
			</g>
			<g id="_x31__копия_20_1_">
			</g>
		</g>
		<g id="_x33__1_">
			<g id="К_крупам_xA0_Изображение_1_" display="none">
			</g>
		</g>
		<g id="_x34__1_">
			<g id="К_рыбе_xA0_Изображение_1_" display="none">
			</g>
			<g id="_x31__копия_18_1_">
				<g id="Фигура_268_копия">
					<g>
						<path fill-rule="evenodd" clip-rule="evenodd" fill="#7BC9FE" d="M39.3,16.3c-12.6,0-21.5,7-26.9,17.5l3.9,2.9l-2.5,4.1
							c2.9,5.5,2.9,7.6,8.4,10.6C25.8,47.8,31.3,40,32.4,35c-0.1,5.3-2,14.4-5,18.6c4,1.8,7.2,4,11.8,3.7
							c19.7-1.3,29.1-18.1,29.1-18.1l0.1-4.5C68.5,34.7,56.8,16.3,39.3,16.3z M21.3,35.5c-1.7,0-4.6-3.8-4.6-5.4
							c0-1.7,4.7-4.6,6.3-4.6c1.7,0,3.2,2.2,3.2,3.9C26.2,31,22.9,35.5,21.3,35.5z M35.4,53.4c3.4-4.4,5.4-10.3,5.4-16.7
							c0-6.4-2-12.3-5.4-16.7c5.1,3.8,8.4,9.9,8.4,16.7C43.8,43.5,40.5,49.6,35.4,53.4z M49.9,50.8c2.8-3.7,4.5-8.5,4.5-13.8
							c0-5.3-1.7-10.2-4.5-13.8c4.2,3.2,6.9,8.2,6.9,13.8C56.8,42.7,54.1,47.7,49.9,50.8z"/>
					</g>
				</g>
				<g id="Фигура_268_копия_3">
					<g>
						<path fill-rule="evenodd" clip-rule="evenodd" fill="#F5741E" d="M55,54.8l8.7,0.4l-3.5-3.8C58.6,52.7,56.9,53.8,55,54.8z
							 M60.5,17l-8,0.5c1.7,0.7,3.4,1.6,4.9,2.6L60.5,17z M83.2,24.3c-8,0.9-14.7,10.4-14.7,10.4l-0.1,4.5c0,0,6.6,9.7,14.8,10.6
							c-0.4-5.4-3.1-10-5.9-12.7C80.1,34.2,82.8,29.7,83.2,24.3z"/>
					</g>
				</g>
				<g id="Фигура_268_копия_2">
					<g>
						<path fill-rule="evenodd" clip-rule="evenodd" fill="#C1C1C1" d="M29.8,17.6C19.7,19.7,16.5,23,9.9,33.2l3.5,3.6l-3.5,3.5
							c2.9,5.5,8.2,9.8,13.6,12.8c3.7-3.6,6.3-8.2,7.4-13.3c-0.1,5.3-1.8,10.4-4.8,14.6c4,1.8,6.3-5,9-8.9
							C39.8,36.3,33.4,21.2,29.8,17.6z M20.8,32.8c-1.7,0-3-1.3-3-3c0-1.7,1.3-3,3-3c1.7,0,3,1.3,3,3C23.8,31.5,22.5,32.8,20.8,32.8
							z"/>
					</g>
				</g>
			</g>
		</g>
	</g>
	<g id="_x31__ряд_копия_1_">
		<g id="_x31__копия_1_">
			<g id="К_макаронам_xA0_Изображение_1_" display="none">
			</g>
			<g id="_x31__2_">
			</g>
		</g>
		<g id="_x32__копия_1_">
			<g id="К_бобовым_xA0_Изображение_1_" display="none">
			</g>
		</g>
		<g id="_x33__копия_1_">
			<g id="К_салатам_xA0_Изображение_1_" display="none">
			</g>
			<g id="_x31__копия_23_1_">
				<g id="Фигура_302_xA0_Изображение_1_">
				</g>
			</g>
		</g>
		<g id="_x34__копия_1_">
			<g id="К_маринадам_xA0_Изображение_1_" display="none">
			</g>
			<g id="_x31__копия_28_1_">
			</g>
		</g>
	</g>
	<g id="_x31__ряд_копия_2_1_">
		<g id="_x31__копия_2_1_">
			<g id="К_птице_xA0_Изображение_1_">
			</g>
		</g>
		<g id="_x32__копия_2_1_">
			<g id="К_супам_xA0_Изображение_1_">
			</g>
		</g>
		<g id="_x33__копия_2_1_">
			<g id="Для_варений_xA0_Изображение_1_">
			</g>
			<g id="_x31__копия_30_1_">
			</g>
		</g>
		<g id="_x34__копия_2_1_">
			<g id="К_напиткам_xA0_Изображение_1_">
			</g>
			<g id="_x31__копия_31_1_">
			</g>
		</g>
	</g>
	<g id="_x31__ряд_копия_3_1_">
		<g id="_x31__копия_4_1_">
			<g id="К_соусам_xA0_Изображение_1_">
			</g>
			<g id="_x31__копия_25_1_">
			</g>
		</g>
		<g id="_x32__копия_3_1_">
			<g id="К_хлебо_булочным_изделиям_xA0_Изображение_1_">
			</g>
			<g id="_x31__копия_19_1_">
				<g id="Фигура_259_копия_2_xA0_Изображение_1_">
				</g>
			</g>
		</g>
		<g id="_x33__копия_3_1_">
			<g id="К_кондитерским_изделиям_xA0_Изображение_1_">
			</g>
			<g id="птироженое_копия_1_">
			</g>
		</g>
		<g id="_x34__копия_3_1_">
			<g id="Для_консерваций_и_солений_xA0_Изображение_1_">
			</g>
			<g id="Группа_9_копия_1_">
				<g id="_x31__банка_1_">
				</g>
			</g>
		</g>
	</g>
</g>
<g id="по_алфавиту_1_" display="none">
	<g id="a_1_" display="inline">
	</g>
	<g id="б_1_" display="inline">
	</g>
	<g id="в_1_" display="inline">
	</g>
	<g id="м_1_" display="inline">
	</g>
	<g id="н_1_" display="inline">
	</g>
	<g id="о_1_" display="inline">
	</g>
	<g id="иконка_3_" display="inline">
	</g>
</g>
<g id="Фигура_750_2_" display="none" enable-background="new    ">
</g>
<g id="Группа_178_2_">
	<g id="иконка_2_">
	</g>
</g>
</svg>
