<?xml version="1.0" encoding="utf-8"?><svg xmlns="http://www.w3.org/2000/svg" width="90" height="70" viewBox="0 0 90 70"><g fill-rule="evenodd" clip-rule="evenodd"><path fill="#107DC2" d="M20.1 56.3c2.5 2.2 5.4 4.7 8.5 6.1h27.6c3.1-1.4 5.9-3.9 8.5-6.1H20.1z"/><path fill="#61BDF7" d="M70.4 34.4v6.5c0 1-.8 1.8-1.8 1.8s-1.8-.8-1.8-1.8v-6.5H31.2c.3.3.7.9 1 1 3.8 2 2.6 5.6 1.9 7.8-.4 1.2-.8 2.4-.6 3.3.2 1-.4 1.9-1.3 2.1-.1 0-.3 0-.4 0-.8 0-1.5-.6-1.7-1.4-.4-1.8.2-3.6.7-5.2.9-2.7.8-3.1-.1-3.6-2.2-1.2-4-3.7-4.2-4 0 0 0-.2 0-.2H8.7c.7 7.5 3.9 14.6 8.6 19.8h50.1c4.8-5.3 7.9-12.4 8.6-19.8h-5.6z"/><path fill="#FFD542" d="M59.6 32.1c-2.4.8-4-.2-6.5-1.8-2.4-1.6-5.4-3.6-9.5-2.2-2.9.9-4.3 2.9-5.3 4.9h4.1c.6-.7 1.3-1.2 2.2-1.5 2.2-.7 3.8.1 6 1.5h11c-.3-.8-1.2-1.2-2-.9zM45.1 21.3c0-1-.8-1.7-1.8-1.7s-1.7.8-1.7 1.8c.1 2.5-1.4 3.8-3.7 5.6-1.8 1.4-3.9 3.2-4.6 5.9H37c.6-1.1 1.7-2 3.1-3.2 2.3-1.8 5.1-4.1 5-8.4zm41.1 18.6c-2.4-.5-3.3-2.2-4.6-4.9-1.2-2.6-2.8-5.9-7-6.8-2.4-.5-4.3 0-5.9.8-.3-.4-.6-.8-1-1.1-3.2-3-6.7-2.4-9.6-2-2.9.4-4.8.6-6.6-1.1-.7-.7-1.8-.6-2.5.1s-.6 1.8.1 2.5c3.2 3 6.7 2.4 9.6 2 2.9-.5 4.8-.6 6.6 1.1.2.2.4.4.5.6-.2.1-.3.3-.5.4-.7.6-1.4 1.1-2 1.5h6.9c0-.2-.1-.4-.1-.7 1.1-.6 2.2-.9 3.7-.6 2.4.5 3.3 2.2 4.6 4.9 1.2 2.6 2.8 5.9 7 6.8 1 .2 1.9-.4 2.1-1.3.3-1.1-.3-2-1.3-2.2zm-56.8-7h.1c-.2-.1-.4-.3-.5-.4 1.1-1.2 2.3-1.9 4-1.9 1 0 1.8-.8 1.8-1.8S34 27 33 27c-3.1 0-5.1 1.4-6.6 3.1-2-1.7-4.4-3.3-8-2.8-2.8.5-4.5 2-5.8 3.7-1.7-2-3.8-4-7.4-4-1 0-1.8.8-1.8 1.8s.8 1.8 1.8 1.8c1.9 0 3.1.8 4.3 2.3h.6c-.8 2.2-3.4 5.4-4 5.5-1 .2-1.6 1.1-1.5 2 .2 1 1.1 1.5 2 1.5 1.6-.1 4.7-3.4 7-8.6 0-.2-.1-.3-.2-.4h2.2c.8-1.1 1.8-1.8 3.3-2 2.1-.3 3.5.5 5.2 2h4.7c-1.1.1-2.6-.1-3.6.1.2.5 5.3 6 5.4 6.6.1 1-1.6 8.3 1 8.6 3.1.4 3-7.8 2.9-8.7-.1-.7-4.6-5.7-5.1-6.6zm40.8 0c-1.2.3-3.3 0-4.5.1.2.5.7 6.1.7 6.7.1 1-1 5.7 1.5 6 3.1.4 2.6-5.4 2.5-6.4 0-.6 0-5.8-.2-6.4z"/></g></svg>