<?xml version="1.0" encoding="utf-8"?><svg xmlns="http://www.w3.org/2000/svg" width="100" height="75" viewBox="0 0 100 75"><path fill="#73CEF8" d="M83.9 37.6c-7.4.8-11.7 6.4-13.6 9.6-4.9-10-15.1-17-27-17-11.7 0-21.8 6.7-26.7 16.4l4.2 2.9-4 2.7c2.7 5.1 6.8 9.3 11.8 12.1 3.5-3.3 5.9-7.6 6.9-12.3-.1 4.9-1.6 9.6-4.4 13.5 3.7 1.7 7.8 2.6 12.2 2.6 11.8 0 22-6.8 26.9-16.7 1.8 3.1 6.1 9 13.7 9.8-.4-5-2.9-9.2-5.5-11.8 2.6-2.6 5.1-6.8 5.5-11.8zm-57.7 7.9c-1.5 0-2.8-1.2-2.8-2.8 0-1.5 1.2-2.8 2.8-2.8 1.6 0 2.8 1.2 2.8 2.8 0 1.6-1.3 2.8-2.8 2.8zm13.5 19c3.1-4.1 5-9.5 5-15.5s-1.9-11.4-5-15.5c4.7 3.5 7.7 9.1 7.7 15.5s-3 12-7.7 15.5zm13.4-2.4c2.6-3.4 4.1-7.9 4.1-12.8s-1.6-9.3-4.1-12.7c3.9 2.9 6.4 7.6 6.4 12.8s-2.5 9.8-6.4 12.7z"/><path fill="#FF6900" d="M55.6 31.3s6-1.2 7.6-1.3c-.3.9-1.9 3.8-3.2 4.2-.9-.7-1.9-1.9-4.4-2.9z"/><path fill="#FF7D27" d="M58.1 65.8s3.4-1.8 4.5-3.1c.9.5 3.7 3.7 3.7 3.7s-4.2.8-8.2-.6zm12.8-19.1s3.4-7.2 12.7-9.5c1.5 4.2-3 11-5.1 12.1 2.2 1.1 6.4 8.3 5.2 12-5-.4-11.2-4.4-13.1-9.6-.3-1.3-1.1-3.3.3-5z"/><path fill="#D2D2D2" d="M28.9 64.2c-3.5-.6-11.3-8-11.9-11.6l4.2-3.4-4.5-3.4s5.1-9.1 13.5-12.2c5.4 5.4 9.5 18.1-1.3 30.6zm-2.1-23.7c-1.2 0-2.1 1-2.1 2.1s1 2.1 2.1 2.1c1.2 0 2.1-1 2.1-2.1s-.9-2.1-2.1-2.1z"/></svg>