<?xml version="1.0" encoding="utf-8"?><svg xmlns="http://www.w3.org/2000/svg" width="100" height="75" viewBox="0 0 100 75"><path fill="#9EA59D" d="M47.2 48.5V38.3H28.1v10.3c0 4.7 3.8 8.5 8.5 8.6v10.3h-5.4c-.5 0-1 .4-1 1V68c0 .5.4 1 1 1h12.9c.5 0 1-.4 1-1v.4c0-.5-.4-1-1-1h-5.4V57.1c4.7 0 8.5-3.9 8.5-8.6zm-17.7 0v-8.8h16.2v8.8c0 3.9-3.2 7.2-7.2 7.2h-1.8c-4 0-7.2-3.2-7.2-7.2z"/><path fill="#E22E2E" d="M36.7 54.7c-3.4 0-6.2-2.8-6.2-6.2v-4.4h14.3v4.4c0 3.4-2.8 6.2-6.2 6.2h-1.9z"/><path fill="#349627" d="M64 22c-1.6-1.3-1.7-2.7-1.7-4.4 0-1 0-6.6 0-10.6h.1c.3 0 .6-.3.6-.6V4.5c0-.3-.3-.6-.6-.6h-.1c0-.8 0-1.2 0-1.2h-1.5v-.1h-2.4v.1h-1.5s0 .5 0 1.2h-.1c-.3 0-.6.3-.6.6v1.9c0 .3.3.6.6.6h.1c0 4 0 9.6 0 10.6 0 1.6-.1 3.1-1.7 4.4-1.8 1.4-3.3 2.8-3.3 7.2 0 4.3 0 35.5 0 37.3 0 2.1 2.6 2.8 5.3 2.8.5 0 .9 0 1.2 0 1.7 0 2.3 0 2.3 0 .4 0 .8 0 1.2 0 2.7 0 5.3-.7 5.3-2.8 0-1.8 0-33 0-37.3 0-4.4-1.5-5.8-3.2-7.2zm1.2 41.4c0 .7-.6 1.3-1.3 1.3-.7 0-1.3-.6-1.3-1.3v-32c0-.7.6-1.3 1.3-1.3.7 0 1.3.6 1.3 1.3v32zm-1.4-35.3c-.9 0-1.6-.9-1.6-2s.7-2 1.6-2 1.6.9 1.6 2-.7 2-1.6 2z"/></svg>