<?xml version="1.0" encoding="utf-8"?>
<!-- Generator: Adobe Illustrator 17.1.0, SVG Export Plug-In . SVG Version: 6.00 Build 0)  -->
<!DOCTYPE svg PUBLIC "-//W3C//DTD SVG 1.1//EN" "http://www.w3.org/Graphics/SVG/1.1/DTD/svg11.dtd">
<svg version="1.1" id="Слой_1" xmlns:ev="http://www.w3.org/2001/xml-events"
	 xmlns="http://www.w3.org/2000/svg" xmlns:xlink="http://www.w3.org/1999/xlink" x="0px" y="0px" width="100px" height="75px"
	 viewBox="0 0 100 75" enable-background="new 0 0 100 75" xml:space="preserve">
<path fill="#C77946" d="M49.9,64.7c-2,3-5.9,3.1-8.8,1.8c-5.3-2.4-8.8-5.9-10.4-10.3c-0.1,0-0.2,0-0.3,0.1c-0.3,0.1-0.6,0.1-0.9,0.2
	c-0.6,0.2-1.1,0.5-1.6,0.8s-1,0.8-1.3,1.2c-0.4,0.5-0.7,1-0.9,1.6c0.1-0.6,0.3-1.2,0.6-1.8c0.3-0.6,0.7-1.1,1.2-1.6s1-0.9,1.6-1.2
	c0.3-0.2,0.6-0.3,0.9-0.4c0.1,0,0.2-0.1,0.3-0.1c-0.2-1.3,0.2-2.5,0.9-3.3c-0.3-0.3-0.6-0.7-0.8-1c-0.4-0.4-0.8-0.9-1.3-1.3
	c-0.9-0.8-1.9-1.5-2.9-2.1c1.2,0.4,2.3,0.9,3.3,1.6c0.5,0.3,1.1,0.7,1.6,1c0.4,0.3,0.7,0.5,1,0.8c0.4-0.3,0.7-0.5,1.1-0.6
	c0-0.1,0-0.3,0-0.4c0-0.2,0-0.4,0-0.6c0-0.4,0.1-0.7,0.2-1.1c0.2-0.7,0.5-1.4,0.9-2s0.9-1.1,1.5-1.6c0.6-0.4,1.2-0.8,1.8-1
	c-0.6,0.4-1.1,0.8-1.6,1.3s-0.8,1.1-1.1,1.6c-0.3,0.6-0.4,1.2-0.5,1.9c0,0.3,0,0.6,0,1c0,0.2,0,0.3,0.1,0.5c0,0.1,0,0.2,0,0.3
	c0.3,0,0.6,0.2,0.9,0.4c0.1-0.1,0.2-0.2,0.3-0.2c0.3-0.2,0.7-0.4,1.1-0.5c0.7-0.2,1.5-0.3,2.2-0.4c1.5,0,2.9,0.3,4.2,0.7
	c-1.4-0.2-2.8-0.2-4.1,0c-0.7,0.1-1.3,0.3-1.9,0.6c-0.3,0.1-0.5,0.3-0.8,0.5c-0.1,0.1-0.2,0.2-0.3,0.2c5,7,8.6,3.1,12,5.1
	C51,57.9,52,61.7,49.9,64.7z M48.9,59.5c-0.2-1.1-0.9-2.1-1.9-2.7c-0.6-0.4-1.3-0.5-2.2-0.5c-0.2,0-0.4,0-0.7,0c-0.2,0-0.5,0-0.8,0
	c-2.7,0-5.6-0.7-8.7-5.5c-0.1-0.1-0.2-0.2-0.4-0.2c-0.5,0-1.4,0.4-2,1.2c-0.4,0.5-0.9,1.5-0.5,2.8c1.3,4.2,4.5,7.5,9.5,9.8
	c1,0.4,2,0.7,3,0.7c1.2,0,2.9-0.3,3.9-1.9C48.9,62,49.1,60.7,48.9,59.5z M47.4,48.5c-0.4,0.6-0.8,1.2-1.3,1.7
	c-0.3,0.4-0.6,0.8-1,1.1c-1,1-2.1,1.9-3.3,2.7c0.5-0.5,1-1,1.5-1.5s1-1,1.4-1.6c0.4-0.5,0.8-1.1,1.2-1.7c0.3-0.6,0.6-1.2,0.6-1.8
	c0.1-0.6,0-1.2-0.3-1.8s-0.6-1.1-1.1-1.6c-0.9-1-2-1.7-3.2-2.3c-2.4-1.1-5.2-1.3-7.8-0.9c-2.6,0.4-5.1,1.6-7.2,3.2
	c-2.1,1.7-3.7,3.8-4.7,6.3s-1.4,5.2-0.9,7.8c0.2,1.3,0.7,2.6,1.4,3.7c0.7,1.1,1.6,2.2,2.7,2.7c0.6,0.3,1.2,0.3,1.8,0.3
	c0.6-0.1,1.3-0.3,1.9-0.6c0.6-0.3,1.2-0.6,1.8-1c0.6-0.4,1.2-0.8,1.7-1.2c-0.7,0.7-1.4,1.3-2.1,1.9c-0.6,0.5-1.1,0.9-1.8,1.3
	c-0.8,0.4-1.7,0.8-2.6,0.9c-1.9,0.4-3.8,0-5.5-0.8c-1.7-0.8-3.2-2-4.5-3.4s-2.3-3.1-2.9-4.9c-0.6-1.8-0.9-3.8-0.8-5.7
	c0.1-1.9,0.5-3.8,1.1-5.6s1.5-3.5,2.6-5.1s2.3-3,3.8-4.2c3-2.4,6.7-3.9,10.4-4.4c1.9-0.2,3.8-0.2,5.7,0.1c0.9,0.2,1.9,0.4,2.8,0.7
	c0.9,0.3,1.8,0.7,2.6,1.2c1.7,0.9,3.2,2.2,4.4,3.7s2.1,3.2,2.5,5.1c0.2,1,0.2,1.9,0,2.9C48.2,46.8,47.9,47.7,47.4,48.5z"/>
<path fill="#6B5B87" d="M76.8,19.2c-0.1-0.1-0.1-0.1-0.2-0.2c-1.4-0.3-3.2-0.6-4.3-0.3c0.6,1.3,0.7,2.8,0.4,4.4l-0.2,1.1l-1.1,0.2
	c-1.6,0.2-3.1,0-4.4-0.6c-0.5,0.8-0.5,2.9-0.3,4.3c4.3,10.1-20.9,24.1-7.9,37.4c7,7.1,19.2,1.4,25.3-8.9
	C89.3,47.6,90.7,33,76.8,19.2z"/>
<path fill="#FFFFFF" d="M78.2,55.5C73.1,65.5,65,66.1,60.7,61c-6.7-8,6.6-17,9.2-26.6c0.8-3,1.1-7,4-4.7
	C80.6,35.1,81.3,49.3,78.2,55.5z"/>
<path fill="#33B11A" d="M65.9,15.4c-1-0.9-2.2-1.7-3.6-1.9c-1-0.1-2.6,0.1-4.1,1.6c-0.5,0.5-0.5,1.3,0,1.7c0.5,0.5,1.2,0.4,1.7,0
	c0.7-0.7,1.3-1,2-0.9c0.8,0.1,1.5,0.5,2.2,1.1c-2.1,2.8-2,6.8,0.5,9.4c2.3,2.4-0.5-1.9,1.5-5.4c0.1,0.1,0.1,0.2,0.2,0.2
	c1.2,1.3,3,1.8,4.8,1.5c0.4-1.8,0-3.6-1.3-4.9c-0.1-0.1-0.2-0.2-0.2-0.2c3.6-1.8,7.8,1.2,5.5-1.2C72.7,13.9,68.8,13.5,65.9,15.4z"/>
</svg>
