<?xml version="1.0" encoding="utf-8"?><svg xmlns="http://www.w3.org/2000/svg" width="100" height="75" viewBox="0 0 100 75"><path fill="#BF6D36" d="M33 27.7c-1.2-.7-5.9-4.2-7.4-4.2 1.6 1.8 2.3 4.1 2.3 4.1h-1.8s-2.5 0-6.9 1.1c.4.9 3.1.5 4.9 1.4-5.6 3.5-9.5 10.5-9.5 18.5 0 1.7.2 3.3.5 4.9.5-.7 1.2-1.3 1.9-1.8-.1-1-.2-2-.2-3.1 0-7 3.2-13.1 8-16.4-.4 1.1-.9 1.9-.9 1.9s2.7-3 4.6-3c1.4 0 1.3 1.2 1.2 1.9.3-.6 1-1.4 3.1-1.4 2.6 0 2.8 1.4 2.9 1.9l.2-3s3.2 1.2 3.7 2.3c.3.7 0-.4-.2-1.3 5.3 3 8.9 9.5 8.9 17 0 1.2-.1 2.3-.3 3.4.7.6 1.3 1.2 1.8 2 .4-1.7.6-3.5.6-5.4 0-6.6-2.6-12.5-6.7-16.4-.3-1.5-3.1-3.4-3.1-3.4s2.7-1.6 3.9-1.2c-1.6-.9-7.1.5-7.1.5l-.9-2-.6 2.1h-.1c-.4-.5-2.5-2.6-4.5-2.9-.2.7 2.4 1.2 2 2.6-.1-.1-.2-.1-.3-.1zm6.4 9.7c-2.3 0-4.1 2.3-4.1 5.1s1.8 5.1 4.1 5.1 4.1-2.3 4.1-5.1-1.8-5.1-4.1-5.1zm-.1 8.8c-1.3 0-2.4-1.1-2.4-2.4 0-1.3 1.1-2.4 2.4-2.4 1.3 0 2.4 1.1 2.4 2.4 0 1.3-1.1 2.4-2.4 2.4zm-13.9-9.1c-2.3 0-4.1 2.3-4.1 5.1s1.8 5.1 4.1 5.1 4.1-2.3 4.1-5.1-1.8-5.1-4.1-5.1zm.1 8.7c-1.3 0-2.4-1.1-2.4-2.4 0-1.3 1.1-2.4 2.4-2.4s2.4 1.1 2.4 2.4c0 1.3-1.1 2.4-2.4 2.4zm4.1-12.7c-.1.3-.1.6-.1.6s.1-.3.1-.6zm6 .5v.2c-.1.1 0 0 0-.2zm7.2-7.7c1 0 1.8.2 2.3.5.6.3.8.9.7 1.5.7-.4 1.5-.9 2.2-1.3 0-3.4-1.5-6.7-4.3-8.9-1.1-.9-1.1-.9-1.1-.9-1.3-.6-2.3.3-1.4 1.4 2.3 2.8 2.6 5.2 1.6 7.7zm-23.9 1.4c1.4-.3 2.6-.6 3.6-.7-1.4-2.8-1.3-5.4 1.3-8.4.9-1.1-.1-1.9-1.4-1.4 0 0 0 0-1.1.9-2.8 2.2-4.2 5.4-4.3 8.7.6.3 1.2.7 1.8 1-.1 0 0-.1.1-.1zm2.2 3.3c-5.9-4-15.9-9.4-18.7-3.1-3 6.3 5.7 9.2 13.7 9.3 1.3-2.4 3-4.5 5-6.2zm41.9-3c-2.8-6.5-13.1-.8-18.9 3.2 1.9 1.7 3.5 3.7 4.8 6.1 8.1-.1 17.1-3 14.1-9.3z"/><path fill="#FFCB5A" d="M32.5 70.7c-1 0-1.9-.1-2.8-.3-.4.1-.8.3-1.2.4 1.3.4 2.7.6 4.1.6 1.3 0 2.6-.2 3.8-.5-.5-.1-.9-.2-1.3-.4-1 .1-1.8.2-2.6.2zm12.6-17.8c-2.6-1.9-7.4-3.1-12.9-3.1S21.9 51 19.3 52.9c-3.1 1.7-5.2 4.7-5.2 8.1 0 5.3 5 9.6 11.3 9.6 2.6 0 4.9-.7 6.8-2 1.9 1.2 4.2 2 6.8 2 6.2 0 11.3-4.3 11.3-9.6 0-3.4-2.1-6.4-5.2-8.1zM26 63c-.5 1.8-2.8 2.7-5 2s-3.6-2.7-3-4.5c.5-1.8 2.8-2.7 5-2s3.6 2.7 3 4.5zm18.1 2c-2.2.7-4.5-.2-5-2s.8-3.8 3-4.5 4.5.2 5 2c.6 1.8-.8 3.8-3 4.5z"/><path fill="#FD9652" d="M88.9 35.6s.4 3.4-2.4 5.5-4.7 2.7-6.7 2.8c-1.9.1-4.2-.4-5.7-1.4-1.5-.9-2.4-1.4-3.4-3.2s-1.1-2.4-1.4-4.2c-.3-1.8-.5-2.5-1.3-2.7s-1.3.2-1.6.5c-.3.3-.6 1.5-.6 1.5s-1.6.5-1.5 1.8.8 1.6.8 1.6-.9.7-.8 1.6.8 1.5.8 1.5-.8.6-.7 1.9c.1 1.3.4.7.7 1.3-.6.7-1 1.4-.8 2.2.3.8 1.4 1.3 1.4 1.3s.4 3.2 1 4.7c.7 1.5 3.1 5.1 5.3 6.3 2.2 1.2 3.9 1.8 6.2 1.9-.1.9.2 1.8.6 2.3.5.7 1 1.6 2.5 1.8.1.7.1 2.2.1 2.2s-1.6.2-1.7.6c-.2.4.2.6.5.6.4 0 1.6-.5 2.3-.5.7 0 2.8.3 3.2.4.5.1.6-.3.6-.3s-.1-.6-.3-.6c-.2 0-1.2-.2-1.2-.2l-1.1-.1H83l.1-2.3s.9-.3 1.7-1.1c.8-.8 1.2-1.9 1.1-3.1 1.1-.4 4.5-1.5 5.9-2.8s3-3.1 3.8-4.7c.7-1.7 1.4-3.8 1.3-7s-.2-6.4-.2-6.4l3.3-2.2-3.4-1.7s2.3-1.5 1.4-3c-.9-1.6-2.2-.8-2.2-.8s-.2-1.7-1.6-2-1.7.7-1.7.7-1.4-1-2.3-.4c-1 .6-.9 1.7-.9 1.7s-1.4-.4-2.1.9c-.7 1.3.4 2.3.4 2.3l1.3.8z"/><path fill="#fff" d="M69.7 52.2s9 5.4 16.6 4.1c7.6-1.3 6.6-7.5 5.8-8.7-.8-1.3-3.7-3.7-7.6-2.8-3.9.9-6.5 1.7-8.5 3s-6.3 4.4-6.3 4.4zm24.6-17.5c-.6 0-1.1.5-1.1 1.1 0 .6.5 1.1 1.1 1.1s1.1-.5 1.1-1.1c.1-.6-.4-1.1-1.1-1.1z"/></svg>