<?xml version="1.0" encoding="utf-8"?>
<!-- Generator: Adobe Illustrator 17.1.0, SVG Export Plug-In . SVG Version: 6.00 Build 0)  -->
<!DOCTYPE svg PUBLIC "-//W3C//DTD SVG 1.1//EN" "http://www.w3.org/Graphics/SVG/1.1/DTD/svg11.dtd">
<svg version="1.1" id="Слой_1" xmlns:ev="http://www.w3.org/2001/xml-events"
	 xmlns="http://www.w3.org/2000/svg" xmlns:xlink="http://www.w3.org/1999/xlink" x="0px" y="0px" width="100px" height="75px"
	 viewBox="0 0 100 75" enable-background="new 0 0 100 75" xml:space="preserve">
<path fill="#FDE4A9" d="M14.1,53.5l-0.2-8.9v-5.5v-3.4L10.5,33l0.9-4.6c0,0,2.1-0.5,3-0.5s6.8,0,6.8,0h6.2l6.2,0.2l5.3,0.9l4.1,1.6
	v2.7L42.5,36l-1.4,1.6L39,38.1L39.2,55c0,0,0,1.4-1.1,1.4c-1.2,0.1-8.5,0.5-8.5,0.5L20.9,56l-4.7-1.1L14.1,53.5z"/>
<path fill="#C77946" d="M52.1,30.8c-0.5,0.5-1.2,0.9-1.9,1v14.3c0,1.1-0.5,2.1-1.3,2.8l-9.3,8.5l0,0c-0.7,0.6-1.6,1-2.6,1
	c-0.1,0-0.2,0-0.3,0l-20.3-1.7c-2.2-0.2-3.9-2-3.9-4.2v-16c-1.9-0.4-3.3-2.1-3.3-4.1v-2.3c0-1.5,0.8-2.9,2.1-3.5l0,0L23,21
	c0.2-0.2,0.5-0.3,0.8-0.4l0,0l0,0c0.4-0.1,0.7-0.2,1.2-0.2c0.1,0,0.2,0,0.3,0l24.3,2c2,0.2,3.5,1.8,3.5,3.8v2.1
	C53.2,29.3,52.8,30.2,52.1,30.8z M41.7,32.6c0-0.9-0.7-1.7-1.6-1.8l-26.7-2.2c-0.9-0.1-1.6,0.6-1.6,1.5v2.3c0,0.9,0.7,1.7,1.6,1.8
	c1,0.1,1.6,0.8,1.6,1.8c0,4.1,0,16.5,0,16.5c0,0.9,0.7,1.7,1.6,1.8l20.2,1.6c0.9,0.1,1.6-0.6,1.6-1.5c0,0,0-12.4,0-16.5
	c0-1,0.6-1.6,1.6-1.6c0.9,0.1,1.6-0.6,1.6-1.5L41.7,32.6L41.7,32.6z M33.2,49.2c-0.3,0-0.6-0.3-0.6-0.6c0-0.3,0.3-0.6,0.6-0.6
	c0.3,0,0.6,0.3,0.6,0.6C33.8,48.9,33.5,49.2,33.2,49.2z M29.8,41c-0.7,0-1.2-0.6-1.2-1.2c0-0.7,0.6-1.2,1.2-1.2
	c0.7,0,1.2,0.6,1.2,1.2C31,40.4,30.5,41,29.8,41z M27.6,33.8c-0.5,0-0.9-0.4-0.9-0.9s0.4-0.9,0.9-0.9s0.9,0.4,0.9,0.9
	S28.1,33.8,27.6,33.8z M23.7,44.8c-0.4,0-0.8-0.3-0.8-0.8c0-0.4,0.3-0.8,0.8-0.8c0.4,0,0.8,0.3,0.8,0.8
	C24.4,44.4,24.1,44.8,23.7,44.8z M23.8,50.6c0,0.9-0.7,1.6-1.6,1.6s-1.6-0.7-1.6-1.6c0-0.9,0.7-1.6,1.6-1.6
	C23.1,49,23.8,49.7,23.8,50.6z M20.5,38.4c-0.8,0-1.4-0.6-1.4-1.4c0-0.8,0.6-1.4,1.4-1.4s1.4,0.6,1.4,1.4
	C22,37.8,21.3,38.4,20.5,38.4z"/>
<path fill="#FFCB5A" d="M89.9,30.7c-2-3.8-7.3-5.3-13.8-4.5c1.3,0.6,2.6,1.3,3.8,2.3c0.7,0.5,0.8,1.5,0.3,2.1
	c-0.3,0.4-0.7,0.6-1.2,0.6c-0.3,0-0.6-0.1-0.9-0.3c-3.6-2.8-7.4-3.2-10.6-2.5c-1.3,0.5-2.6,1.1-4,1.7c-0.2,0.1-0.3,0.2-0.4,0.3
	c-0.2,0.2-0.4,0.2-0.7,0.3c0,0,0,0-0.1,0c3.3,0.3,6.6,1.8,8.9,4.4c0.5,0.6,0.5,1.6-0.1,2.1c-0.3,0.3-0.6,0.4-1,0.4s-0.8-0.2-1.1-0.5
	c-3.2-3.6-8.8-4.5-13-2.4c-2,1.5-3.7,3.1-5.2,4.7c4.8-1.2,10,0.3,13.2,4.2c0.5,0.6,0.4,1.6-0.2,2.1c-0.6,0.5-1.6,0.4-2.1-0.2
	c-3.5-4.2-9.9-4.7-14.5-1.1c-1.7,3.3-2,6.4-0.7,8.9c3.3,6.3,15.6,6.3,27.6,0S93.2,36.9,89.9,30.7z"/>
</svg>
