<?xml version="1.0" encoding="utf-8"?>
<!-- Generator: Adobe Illustrator 17.1.0, SVG Export Plug-In . SVG Version: 6.00 Build 0)  -->
<!DOCTYPE svg PUBLIC "-//W3C//DTD SVG 1.1//EN" "http://www.w3.org/Graphics/SVG/1.1/DTD/svg11.dtd">
<svg version="1.1" id="Слой_1" xmlns:ev="http://www.w3.org/2001/xml-events"
	 xmlns="http://www.w3.org/2000/svg" xmlns:xlink="http://www.w3.org/1999/xlink" x="0px" y="0px" width="100px" height="75px"
	 viewBox="0 0 100 75" enable-background="new 0 0 100 75" xml:space="preserve">
<path fill="#F86F24" d="M80.8,51.4l-2.6,5.7L69,52.2l-10,2.2v7.5h26V51.1h-2.4L80.8,51.4z"/>
<path fill="#FD9652" d="M79.9,49.3l-2.5,5.4L69,50.1l-14.7,3.3l4.7-11l0.4,0.1L73.5,48h0.9L85,42.7l0.6-0.3l4.5,6.8L79.9,49.3z
	 M85,66.1H59v-3h26V66.1z"/>
<path fill="#C56E35" d="M77,38v-6h8v6H77z M77,24.9h6.7c0.7,0,1.3,0.6,1.3,1.3V31h-8V24.9z M73.5,44.9l-5.5-2V39h8.1v5l-1.7,0.8
	h-0.9V44.9z M68,32.1h8.1v6H68V32.1z M68,24.9h8.1v6H68V24.9z M67,39v3.3L60.1,39H67z M59,32.1h8v6h-8V32.1z M59,26.2
	c0-0.7,0.6-1.3,1.3-1.3H67v6h-8V26.2z M77,43.3V39h7.6L77,43.3z"/>
<path fill="#FFCB5A" d="M51.9,44.7c-5.1-9-11.7-10.6-12.8-10.8c-0.2-0.2-0.5-0.5-0.7-0.6l0,0c0,0-1.9-1.3,0.5-4l0,0
	c1.4-1.7,2.3-3.9,2.3-6.4c0-5.5-4.5-10-10-10s-10,4.5-10,10c0,2.6,1,4.9,2.6,6.7c1.7,2.1,0.6,3.3,0.3,3.6l0,0
	c-0.1,0-0.1,0.1-0.1,0.1l0,0c-0.2,0.2-0.4,0.4-0.6,0.6l0,0c0,0-7.4,1-13,10.9c0,0-1.7,2.8,0.2,4.8c0,0,2.4,2.4,4.2,1.3
	c0,0,2.9-2.6,3.9-4.1c-0.1,1-0.1,2-0.1,3.2c0,0-3,15.6,3,16.4c0,0,4.9,1.2,5.5-5.1c0,0,1-7.7,4-7.7s4,7.7,4,7.7
	c0.7,6.3,5.5,5.1,5.5,5.1c6-0.8,3-16.4,3-16.4c0-1,0-2-0.1-2.9c1.2,1.5,3.7,3.9,3.7,3.9c1.8,1.1,4.2-1.3,4.2-1.3
	C53.6,47.5,51.9,44.7,51.9,44.7z M27.8,17.9c1,0,1.9,0.8,1.9,1.9c0,1-0.8,1.9-1.9,1.9c-1,0-1.9-0.8-1.9-1.9
	C25.9,18.8,26.8,17.9,27.8,17.9z M31.1,49.2c-0.9,0-1.7-0.8-1.7-1.7s0.8-1.7,1.7-1.7c0.9,0,1.7,0.8,1.7,1.7
	C32.9,48.4,32.1,49.2,31.1,49.2z M31.1,43.6c-0.9,0-1.7-0.8-1.7-1.7c0-1,0.8-1.7,1.7-1.7c0.9,0,1.7,0.8,1.7,1.7
	C32.9,42.8,32.1,43.6,31.1,43.6z M31.1,38c-0.9,0-1.7-0.8-1.7-1.7c0-0.9,0.8-1.7,1.7-1.7c0.9,0,1.7,0.8,1.7,1.7
	C32.9,37.2,32.1,38,31.1,38z M37,25.6c-1.9,1.9-3.9,2.8-6,2.8h-0.1c-3.2,0-5.5-2.4-5.6-2.5c-0.4-0.4-0.4-1.1,0-1.5s1.1-0.4,1.5,0
	c0,0,1.7,1.8,4.1,1.8c1.6,0,3.2-0.8,4.6-2.2c0.4-0.4,1.1-0.4,1.5,0C37.4,24.5,37.4,25.2,37,25.6z M34.5,21.7c-1,0-1.9-0.8-1.9-1.9
	c0-1,0.8-1.9,1.9-1.9c1,0,1.9,0.8,1.9,1.9C36.3,20.8,35.5,21.7,34.5,21.7z"/>
</svg>
