<?xml version="1.0" encoding="utf-8"?>
<!-- Generator: Adobe Illustrator 17.1.0, SVG Export Plug-In . SVG Version: 6.00 Build 0)  -->
<!DOCTYPE svg PUBLIC "-//W3C//DTD SVG 1.1//EN" "http://www.w3.org/Graphics/SVG/1.1/DTD/svg11.dtd">
<svg version="1.1" id="Слой_1" xmlns:ev="http://www.w3.org/2001/xml-events"
	 xmlns="http://www.w3.org/2000/svg" xmlns:xlink="http://www.w3.org/1999/xlink" x="0px" y="0px" width="100px" height="75px"
	 viewBox="0 0 100 75" enable-background="new 0 0 100 75" xml:space="preserve">
<path fill="#FDE4A9" d="M15.1,58.5l-0.2-8.9v-5.5v-3.4L11.5,38l0.9-4.6c0,0,2.1-0.5,3-0.5s6.8,0,6.8,0h6.2l6.2,0.2l5.3,0.9l4.1,1.6
	v2.7L43.5,41l-1.4,1.6L40,43.1L40.2,60c0,0,0,1.4-1.1,1.4c-1.2,0.1-8.5,0.5-8.5,0.5L21.9,61l-4.7-1.1L15.1,58.5z"/>
<path fill="#C77946" d="M53.1,35.8c-0.5,0.5-1.2,0.9-1.9,1v14.3c0,1.1-0.5,2.1-1.3,2.8l-9.3,8.5l0,0c-0.7,0.6-1.6,1-2.6,1
	c-0.1,0-0.2,0-0.3,0l-20.3-1.7c-2.2-0.2-3.9-2-3.9-4.2v-16c-1.9-0.4-3.3-2.1-3.3-4.1v-2.3c0-1.5,0.8-2.9,2.1-3.5l0,0L24,26
	c0.2-0.2,0.5-0.3,0.8-0.4l0,0l0,0c0.4-0.1,0.7-0.2,1.2-0.2c0.1,0,0.2,0,0.3,0l24.3,2c2,0.2,3.5,1.8,3.5,3.8v2.1
	C54.2,34.3,53.8,35.2,53.1,35.8z M42.7,37.6c0-0.9-0.7-1.7-1.6-1.8l-26.7-2.2c-0.9-0.1-1.6,0.6-1.6,1.5v2.3c0,0.9,0.7,1.7,1.6,1.8
	c1,0.1,1.6,0.8,1.6,1.8c0,4.1,0,16.5,0,16.5c0,0.9,0.7,1.7,1.6,1.8l20.2,1.6c0.9,0.1,1.6-0.6,1.6-1.5c0,0,0-12.4,0-16.5
	c0-1,0.6-1.6,1.6-1.6c0.9,0.1,1.6-0.6,1.6-1.5L42.7,37.6L42.7,37.6z M34.2,54.2c-0.3,0-0.6-0.3-0.6-0.6s0.3-0.6,0.6-0.6
	s0.6,0.3,0.6,0.6S34.5,54.2,34.2,54.2z M30.8,46c-0.7,0-1.2-0.6-1.2-1.2c0-0.7,0.6-1.2,1.2-1.2c0.7,0,1.2,0.6,1.2,1.2
	S31.5,46,30.8,46z M28.6,38.8c-0.5,0-0.9-0.4-0.9-0.9s0.4-0.9,0.9-0.9s0.9,0.4,0.9,0.9S29.1,38.8,28.6,38.8z M24.7,49.8
	c-0.4,0-0.8-0.3-0.8-0.8c0-0.4,0.3-0.8,0.8-0.8c0.4,0,0.8,0.3,0.8,0.8C25.4,49.4,25.1,49.8,24.7,49.8z M24.8,55.6
	c0,0.9-0.7,1.6-1.6,1.6s-1.6-0.7-1.6-1.6c0-0.9,0.7-1.6,1.6-1.6C24.1,54,24.8,54.7,24.8,55.6z M21.5,43.4c-0.8,0-1.4-0.6-1.4-1.4
	c0-0.8,0.6-1.4,1.4-1.4s1.4,0.6,1.4,1.4C23,42.8,22.3,43.4,21.5,43.4z"/>
<path fill="#FFCB5A" d="M90.9,35.7c-2-3.8-7.3-5.3-13.8-4.5c1.3,0.6,2.6,1.3,3.8,2.3c0.7,0.5,0.8,1.5,0.3,2.1
	c-0.3,0.4-0.7,0.6-1.2,0.6c-0.3,0-0.6-0.1-0.9-0.3c-3.6-2.8-7.4-3.2-10.6-2.5c-1.3,0.5-2.6,1.1-4,1.7c-0.2,0.1-0.3,0.2-0.4,0.3
	c-0.2,0.2-0.4,0.2-0.7,0.3c0,0,0,0-0.1,0c3.3,0.3,6.6,1.8,8.9,4.4c0.5,0.6,0.5,1.6-0.1,2.1c-0.3,0.3-0.6,0.4-1,0.4s-0.8-0.2-1.1-0.5
	c-3.2-3.6-8.8-4.5-13-2.4c-2,1.5-3.7,3.1-5.2,4.7c4.8-1.2,10,0.3,13.2,4.2c0.5,0.6,0.4,1.6-0.2,2.1s-1.6,0.4-2.1-0.2
	c-3.5-4.2-9.9-4.7-14.5-1.1c-1.7,3.3-2,6.4-0.7,8.9c3.3,6.3,15.6,6.3,27.6,0S94.2,41.9,90.9,35.7z"/>
</svg>
