<?xml version="1.0" encoding="utf-8"?><svg xmlns="http://www.w3.org/2000/svg" width="100" height="75" viewBox="0 0 100 75"><path fill="#2CB5F5" d="M42.8 28.1l6.2-9.3 7.7 5.2-13.9 4.1zM33.9 8.7l13.9 3.2.2 4.3-14.1-4V8.7zM41 28.3l-16.7-4.4 9-9.9 13.5 4.2L41 28.3zm-.1 40.3l-17.8-6.3-.1-36.7 17.7 5.1.2 37.9z"/><path fill="#72DAFC" d="M42.8 30.5L57 26.2l-.1 35.7-14 6.5-.1-37.9z"/><path fill="#fff" d="M26.8 48.1l2.1 1.2V42l2.1 6 2.1 1.2 2.2-5V52l2.1 1.2v-11l-3-1.1-2.4 4.2-2.3-6.4-3-1.2.1 10.4z"/><path fill="#95D34D" d="M74.6 36.9l5.2-7.8 6.4 4.4-11.6 3.4zm-7.4-16.2l11.7 2.7.2 3.6-11.8-3.4v-2.9h-.1zm5.9 16.4l-14-3.7 7.6-8.3L78 28.6l-4.9 8.5zM73 71l-14.9-5.3V34.9l14.8 4.3L73 71z"/><path fill="#CDF999" d="M74.6 38.9l12.2-3.6-.2 29.9-11.8 5.4-.2-31.7z"/><path fill="#fff" d="M62 44.9l2.6.8-.1 3.8 3-2.8 2.6.7-3.5 3.9 3.1 7.4-2.9-1.3-2.3-5.7.1 4.8-2.6-1.1V44.9z"/></svg>