<?xml version="1.0" encoding="utf-8"?>
<!-- Generator: Adobe Illustrator 17.1.0, SVG Export Plug-In . SVG Version: 6.00 Build 0)  -->
<!DOCTYPE svg PUBLIC "-//W3C//DTD SVG 1.1//EN" "http://www.w3.org/Graphics/SVG/1.1/DTD/svg11.dtd">
<svg version="1.1" id="Слой_1" xmlns:ev="http://www.w3.org/2001/xml-events"
	 xmlns="http://www.w3.org/2000/svg" xmlns:xlink="http://www.w3.org/1999/xlink" x="0px" y="0px" width="100px" height="75px"
	 viewBox="-15 -17.5 100 75" enable-background="new -15 -17.5 100 75" xml:space="preserve">
<path fill="#73CEF8" d="M67.9,8.6c-7.4,0.8-11.7,6.4-13.6,9.6c-4.9-10-15.1-17-27-17C15.6,1.2,5.5,7.9,0.6,17.6l4.2,2.9l-4,2.7
	c2.7,5.1,6.8,9.3,11.8,12.1c3.5-3.3,5.9-7.6,6.9-12.3c-0.1,4.9-1.6,9.6-4.4,13.5c3.7,1.7,7.8,2.6,12.2,2.6c11.8,0,22-6.8,26.9-16.7
	c1.8,3.1,6.1,9,13.7,9.8c-0.4-5-2.9-9.2-5.5-11.8C65,17.8,67.5,13.6,67.9,8.6z M10.2,16.5c-1.5,0-2.8-1.2-2.8-2.8
	c0-1.5,1.2-2.8,2.8-2.8s2.8,1.2,2.8,2.8C13,15.3,11.7,16.5,10.2,16.5z M23.7,35.5c3.1-4.1,5-9.5,5-15.5c0-6-1.9-11.4-5-15.5
	c4.7,3.5,7.7,9.1,7.7,15.5C31.4,26.4,28.4,32,23.7,35.5z M37.1,33.1c2.6-3.4,4.1-7.9,4.1-12.8S39.6,11,37.1,7.6
	c3.9,2.9,6.4,7.6,6.4,12.8C43.5,25.6,41,30.2,37.1,33.1z"/>
<path fill="#FF6900" d="M39.6,2.3c0,0,6-1.2,7.6-1.3c-0.3,0.9-1.9,3.8-3.2,4.2C43.1,4.5,42.1,3.3,39.6,2.3z"/>
<path fill="#FF7D27" d="M42.1,36.8c0,0,3.4-1.8,4.5-3.1c0.9,0.5,3.7,3.7,3.7,3.7S46.1,38.2,42.1,36.8z"/>
<path fill="#FF7D27" d="M54.9,17.7c0,0,3.4-7.2,12.7-9.5c1.5,4.2-3,11-5.1,12.1c2.2,1.1,6.4,8.3,5.2,12c-5-0.4-11.2-4.4-13.1-9.6
	C54.3,21.4,53.5,19.4,54.9,17.7z"/>
<path fill="#D2D2D2" d="M12.9,35.2C9.4,34.6,1.6,27.2,1,23.6l4.2-3.4l-4.5-3.4c0,0,5.1-9.1,13.5-12.2C19.6,10,23.7,22.7,12.9,35.2z
	 M10.8,11.5c-1.2,0-2.1,1-2.1,2.1s1,2.1,2.1,2.1c1.2,0,2.1-1,2.1-2.1S12,11.5,10.8,11.5z"/>
</svg>
