<?xml version="1.0" encoding="utf-8"?>
<!-- Generator: Adobe Illustrator 17.1.0, SVG Export Plug-In . SVG Version: 6.00 Build 0)  -->
<!DOCTYPE svg PUBLIC "-//W3C//DTD SVG 1.1//EN" "http://www.w3.org/Graphics/SVG/1.1/DTD/svg11.dtd">
<svg version="1.1" id="Слой_1" xmlns:ev="http://www.w3.org/2001/xml-events"
	 xmlns="http://www.w3.org/2000/svg" xmlns:xlink="http://www.w3.org/1999/xlink" x="0px" y="0px" width="100px" height="75px"
	 viewBox="0 0 100 75" enable-background="new 0 0 100 75" xml:space="preserve">
<path fill="#A9E267" d="M30.3,48l1.8,14.9h10.6l1.7-15L30.3,48z"/>
<path fill="#FDA0C3" d="M25.2,29.5c0,0,7.7-1.1,9.4,1.7c1.7,2.8,3.7,16.7,3.7,16.7l-3,0.1c0,0-1.5-12.5-3.4-14.9c-1.9-1.9-7-1-7-1
	L25.2,29.5z"/>
<path fill="#FD9652" d="M62.3,12.5c5.3,0,9.7,4.3,9.7,9.7v40.5c0,5.3-4.3,4.3-9.7,4.3S53,68,53,62.7V22.2
	C53,16.8,56.9,12.5,62.3,12.5z"/>
<path fill="#FFE17B" d="M55,19.9v44h15.1l0.1-44.1L55,19.9z"/>
<path fill="#85BA7F" d="M59,6.9h7v4.2h-7V6.9z"/>
<path fill="#7DBDFE" d="M46.4,63.8c0,0-0.6,3.1-2.9,3.1s-12.6,0-12.6,0s-2.5,0.7-2.9-3.3c-0.4-3.9-2.3-27.7-2.3-27.7h22.8L46.4,63.8
	z M30.7,64h13.4l2.8-26.9H27.5L30.7,64z"/>
<path fill="#FFFFFF" d="M54.8,20.1l5.3-5.7l4.4,0.1l5.9,5.6H54.8z"/>
</svg>
