<?xml version="1.0" encoding="utf-8"?><svg xmlns="http://www.w3.org/2000/svg" width="100" height="75" viewBox="0 0 100 75"><path fill="#F86F24" d="M80.8 51.4l-2.6 5.7-9.2-4.9-10 2.2v7.5h26V51.1h-2.4l-1.8.3z"/><path fill="#FD9652" d="M79.9 49.3l-2.5 5.4-8.4-4.6-14.7 3.3 4.7-11 .4.1L73.5 48h.9L85 42.7l.6-.3 4.5 6.8-10.2.1zM85 66.1H59v-3h26v3z"/><path fill="#C56E35" d="M77 38v-6h8v6h-8zm0-13.1h6.7c.7 0 1.3.6 1.3 1.3V31h-8v-6.1zm-3.5 20l-5.5-2V39h8.1v5l-1.7.8h-.9v.1zM68 32.1h8.1v6H68v-6zm0-7.2h8.1v6H68v-6zM67 39v3.3L60.1 39H67zm-8-6.9h8v6h-8v-6zm0-5.9c0-.7.6-1.3 1.3-1.3H67v6h-8v-4.7zm18 17.1V39h7.6L77 43.3z"/><path fill="#FFCB5A" d="M51.9 44.7c-5.1-9-11.7-10.6-12.8-10.8-.2-.2-.5-.5-.7-.6 0 0-1.9-1.3.5-4 1.4-1.7 2.3-3.9 2.3-6.4 0-5.5-4.5-10-10-10s-10 4.5-10 10c0 2.6 1 4.9 2.6 6.7 1.7 2.1.6 3.3.3 3.6-.1 0-.1.1-.1.1-.2.2-.4.4-.6.6 0 0-7.4 1-13 10.9 0 0-1.7 2.8.2 4.8 0 0 2.4 2.4 4.2 1.3 0 0 2.9-2.6 3.9-4.1-.1 1-.1 2-.1 3.2 0 0-3 15.6 3 16.4 0 0 4.9 1.2 5.5-5.1 0 0 1-7.7 4-7.7s4 7.7 4 7.7c.7 6.3 5.5 5.1 5.5 5.1 6-.8 3-16.4 3-16.4 0-1 0-2-.1-2.9 1.2 1.5 3.7 3.9 3.7 3.9 1.8 1.1 4.2-1.3 4.2-1.3 2.2-2.2.5-5 .5-5zM27.8 17.9c1 0 1.9.8 1.9 1.9 0 1-.8 1.9-1.9 1.9-1 0-1.9-.8-1.9-1.9 0-1 .9-1.9 1.9-1.9zm3.3 31.3c-.9 0-1.7-.8-1.7-1.7s.8-1.7 1.7-1.7c.9 0 1.7.8 1.7 1.7.1.9-.7 1.7-1.7 1.7zm0-5.6c-.9 0-1.7-.8-1.7-1.7 0-1 .8-1.7 1.7-1.7.9 0 1.7.8 1.7 1.7.1.9-.7 1.7-1.7 1.7zm0-5.6c-.9 0-1.7-.8-1.7-1.7 0-.9.8-1.7 1.7-1.7.9 0 1.7.8 1.7 1.7.1.9-.7 1.7-1.7 1.7zM37 25.6c-1.9 1.9-3.9 2.8-6 2.8h-.1c-3.2 0-5.5-2.4-5.6-2.5-.4-.4-.4-1.1 0-1.5s1.1-.4 1.5 0c0 0 1.7 1.8 4.1 1.8 1.6 0 3.2-.8 4.6-2.2.4-.4 1.1-.4 1.5 0 .4.5.4 1.2 0 1.6zm-2.5-3.9c-1 0-1.9-.8-1.9-1.9 0-1 .8-1.9 1.9-1.9 1 0 1.9.8 1.9 1.9-.1 1-.9 1.9-1.9 1.9z"/></svg>