<?xml version="1.0" encoding="utf-8"?>
<!-- Generator: Adobe Illustrator 17.1.0, SVG Export Plug-In . SVG Version: 6.00 Build 0)  -->
<!DOCTYPE svg PUBLIC "-//W3C//DTD SVG 1.1//EN" "http://www.w3.org/Graphics/SVG/1.1/DTD/svg11.dtd">
<svg version="1.1" id="Слой_1" xmlns:ev="http://www.w3.org/2001/xml-events"
	 xmlns="http://www.w3.org/2000/svg" xmlns:xlink="http://www.w3.org/1999/xlink" x="0px" y="0px" width="100px" height="75px"
	 viewBox="0 0 100 75" enable-background="new 0 0 100 75" xml:space="preserve">
<path fill="#2CB5F5" d="M42.8,28.1l6.2-9.3l7.7,5.2L42.8,28.1z M33.9,8.7l13.9,3.2l0.2,4.3l-14.1-4V8.7z M41,28.3l-16.7-4.4l9-9.9
	l13.5,4.2L41,28.3z M40.9,68.6l-17.8-6.3L23,25.6l17.7,5.1L40.9,68.6z"/>
<path fill="#72DAFC" d="M42.8,30.5L57,26.2l-0.1,35.7l-14,6.5L42.8,30.5z"/>
<path fill="#FFFFFF" d="M26.8,48.1l2.1,1.2V42l2.1,6l2.1,1.2l2.2-5V52l2.1,1.2v-11l-3-1.1L32,45.3l-2.3-6.4l-3-1.2L26.8,48.1
	L26.8,48.1z"/>
<path fill="#95D34D" d="M74.6,36.9l5.2-7.8l6.4,4.4L74.6,36.9z M67.2,20.7l11.7,2.7l0.2,3.6l-11.8-3.4v-2.9H67.2z M73.1,37.1
	l-14-3.7l7.6-8.3L78,28.6L73.1,37.1z M73,71l-14.9-5.3V34.9l14.8,4.3L73,71z"/>
<path fill="#CDF999" d="M74.6,38.9l12.2-3.6l-0.2,29.9l-11.8,5.4L74.6,38.9z"/>
<path fill="#FFFFFF" d="M62,44.9l2.6,0.8l-0.1,3.8l3-2.8l2.6,0.7l-3.5,3.9l3.1,7.4l-2.9-1.3l-2.3-5.7l0.1,4.8L62,55.4L62,44.9z"/>
</svg>
