<?xml version="1.0" encoding="utf-8"?>
<!-- Generator: Adobe Illustrator 17.1.0, SVG Export Plug-In . SVG Version: 6.00 Build 0)  -->
<!DOCTYPE svg PUBLIC "-//W3C//DTD SVG 1.1//EN" "http://www.w3.org/Graphics/SVG/1.1/DTD/svg11.dtd">
<svg version="1.1" id="Слой_1" xmlns:ev="http://www.w3.org/2001/xml-events"
	 xmlns="http://www.w3.org/2000/svg" xmlns:xlink="http://www.w3.org/1999/xlink" x="0px" y="0px" width="100px" height="75px"
	 viewBox="0 0 100 75" enable-background="new 0 0 100 75" xml:space="preserve">
<path fill="#73CEF8" d="M83.9,37.6c-7.4,0.8-11.7,6.4-13.6,9.6c-4.9-10-15.1-17-27-17c-11.7,0-21.8,6.7-26.7,16.4l4.2,2.9l-4,2.7
	c2.7,5.1,6.8,9.3,11.8,12.1c3.5-3.3,5.9-7.6,6.9-12.3c-0.1,4.9-1.6,9.6-4.4,13.5c3.7,1.7,7.8,2.6,12.2,2.6c11.8,0,22-6.8,26.9-16.7
	c1.8,3.1,6.1,9,13.7,9.8c-0.4-5-2.9-9.2-5.5-11.8C81,46.8,83.5,42.6,83.9,37.6z M26.2,45.5c-1.5,0-2.8-1.2-2.8-2.8
	c0-1.5,1.2-2.8,2.8-2.8c1.6,0,2.8,1.2,2.8,2.8C29,44.3,27.7,45.5,26.2,45.5z M39.7,64.5c3.1-4.1,5-9.5,5-15.5s-1.9-11.4-5-15.5
	c4.7,3.5,7.7,9.1,7.7,15.5S44.4,61,39.7,64.5z M53.1,62.1c2.6-3.4,4.1-7.9,4.1-12.8s-1.6-9.3-4.1-12.7c3.9,2.9,6.4,7.6,6.4,12.8
	S57,59.2,53.1,62.1z"/>
<path fill="#FF6900" d="M55.6,31.3c0,0,6-1.2,7.6-1.3c-0.3,0.9-1.9,3.8-3.2,4.2C59.1,33.5,58.1,32.3,55.6,31.3z"/>
<path fill="#FF7D27" d="M58.1,65.8c0,0,3.4-1.8,4.5-3.1c0.9,0.5,3.7,3.7,3.7,3.7S62.1,67.2,58.1,65.8z"/>
<path fill="#FF7D27" d="M70.9,46.7c0,0,3.4-7.2,12.7-9.5c1.5,4.2-3,11-5.1,12.1c2.2,1.1,6.4,8.3,5.2,12c-5-0.4-11.2-4.4-13.1-9.6
	C70.3,50.4,69.5,48.4,70.9,46.7z"/>
<path fill="#D2D2D2" d="M28.9,64.2c-3.5-0.6-11.3-8-11.9-11.6l4.2-3.4l-4.5-3.4c0,0,5.1-9.1,13.5-12.2C35.6,39,39.7,51.7,28.9,64.2z
	 M26.8,40.5c-1.2,0-2.1,1-2.1,2.1c0,1.1,1,2.1,2.1,2.1c1.2,0,2.1-1,2.1-2.1C28.9,41.5,28,40.5,26.8,40.5z"/>
</svg>
