<?xml version="1.0" encoding="utf-8"?>
<!-- Generator: Adobe Illustrator 17.1.0, SVG Export Plug-In . SVG Version: 6.00 Build 0)  -->
<!DOCTYPE svg PUBLIC "-//W3C//DTD SVG 1.1//EN" "http://www.w3.org/Graphics/SVG/1.1/DTD/svg11.dtd">
<svg version="1.1" id="Слой_1" xmlns:ev="http://www.w3.org/2001/xml-events"
	 xmlns="http://www.w3.org/2000/svg" xmlns:xlink="http://www.w3.org/1999/xlink" x="0px" y="0px" width="100px" height="75px"
	 viewBox="0 0 100 75" enable-background="new 0 0 100 75" xml:space="preserve">
<path fill="#BF6D36" d="M33,27.7c-1.2-0.7-5.9-4.2-7.4-4.2c1.6,1.8,2.3,4.1,2.3,4.1h-1.8c0,0-2.5,0-6.9,1.1c0.4,0.9,3.1,0.5,4.9,1.4
	c-5.6,3.5-9.5,10.5-9.5,18.5c0,1.7,0.2,3.3,0.5,4.9c0.5-0.7,1.2-1.3,1.9-1.8c-0.1-1-0.2-2-0.2-3.1c0-7,3.2-13.1,8-16.4
	c-0.4,1.1-0.9,1.9-0.9,1.9s2.7-3,4.6-3c1.4,0,1.3,1.2,1.2,1.9c0.3-0.6,1-1.4,3.1-1.4c2.6,0,2.8,1.4,2.9,1.9l0.2-3
	c0,0,3.2,1.2,3.7,2.3c0.3,0.7,0-0.4-0.2-1.3c5.3,3,8.9,9.5,8.9,17c0,1.2-0.1,2.3-0.3,3.4c0.7,0.6,1.3,1.2,1.8,2
	c0.4-1.7,0.6-3.5,0.6-5.4c0-6.6-2.6-12.5-6.7-16.4c-0.3-1.5-3.1-3.4-3.1-3.4s2.7-1.6,3.9-1.2c-1.6-0.9-7.1,0.5-7.1,0.5l-0.9-2
	l-0.6,2.1h-0.1c-0.4-0.5-2.5-2.6-4.5-2.9c-0.2,0.7,2.4,1.2,2,2.6C33.2,27.7,33.1,27.7,33,27.7z M39.4,37.4c-2.3,0-4.1,2.3-4.1,5.1
	s1.8,5.1,4.1,5.1s4.1-2.3,4.1-5.1C43.5,39.7,41.7,37.4,39.4,37.4z M39.3,46.2c-1.3,0-2.4-1.1-2.4-2.4c0-1.3,1.1-2.4,2.4-2.4
	c1.3,0,2.4,1.1,2.4,2.4C41.7,45.1,40.6,46.2,39.3,46.2z M25.4,37.1c-2.3,0-4.1,2.3-4.1,5.1s1.8,5.1,4.1,5.1s4.1-2.3,4.1-5.1
	C29.5,39.4,27.7,37.1,25.4,37.1z M25.5,45.8c-1.3,0-2.4-1.1-2.4-2.4c0-1.3,1.1-2.4,2.4-2.4s2.4,1.1,2.4,2.4
	C27.9,44.7,26.8,45.8,25.5,45.8z M29.6,33.1c-0.1,0.3-0.1,0.6-0.1,0.6S29.6,33.4,29.6,33.1z M35.6,33.6v0.2
	C35.5,33.9,35.6,33.8,35.6,33.6z M42.8,25.9c1,0,1.8,0.2,2.3,0.5c0.6,0.3,0.8,0.9,0.7,1.5c0.7-0.4,1.5-0.9,2.2-1.3
	c0-3.4-1.5-6.7-4.3-8.9c-1.1-0.9-1.1-0.9-1.1-0.9c-1.3-0.6-2.3,0.3-1.4,1.4C43.5,21,43.8,23.4,42.8,25.9z M18.9,27.3
	c1.4-0.3,2.6-0.6,3.6-0.7c-1.4-2.8-1.3-5.4,1.3-8.4c0.9-1.1-0.1-1.9-1.4-1.4c0,0,0,0-1.1,0.9c-2.8,2.2-4.2,5.4-4.3,8.7
	c0.6,0.3,1.2,0.7,1.8,1C18.7,27.4,18.8,27.3,18.9,27.3z M21.1,30.6c-5.9-4-15.9-9.4-18.7-3.1c-3,6.3,5.7,9.2,13.7,9.3
	C17.4,34.4,19.1,32.3,21.1,30.6z M63,27.6c-2.8-6.5-13.1-0.8-18.9,3.2c1.9,1.7,3.5,3.7,4.8,6.1C57,36.8,66,33.9,63,27.6z"/>
<path fill="#FFCB5A" d="M32.5,70.7c-1,0-1.9-0.1-2.8-0.3c-0.4,0.1-0.8,0.3-1.2,0.4c1.3,0.4,2.7,0.6,4.1,0.6c1.3,0,2.6-0.2,3.8-0.5
	c-0.5-0.1-0.9-0.2-1.3-0.4C34.1,70.6,33.3,70.7,32.5,70.7z M45.1,52.9c-2.6-1.9-7.4-3.1-12.9-3.1S21.9,51,19.3,52.9
	c-3.1,1.7-5.2,4.7-5.2,8.1c0,5.3,5,9.6,11.3,9.6c2.6,0,4.9-0.7,6.8-2c1.9,1.2,4.2,2,6.8,2c6.2,0,11.3-4.3,11.3-9.6
	C50.3,57.6,48.2,54.6,45.1,52.9z M26,63c-0.5,1.8-2.8,2.7-5,2s-3.6-2.7-3-4.5c0.5-1.8,2.8-2.7,5-2S26.6,61.2,26,63z M44.1,65
	c-2.2,0.7-4.5-0.2-5-2c-0.5-1.8,0.8-3.8,3-4.5s4.5,0.2,5,2C47.7,62.3,46.3,64.3,44.1,65z"/>
<path fill="#FD9652" d="M88.9,35.6c0,0,0.4,3.4-2.4,5.5c-2.8,2.1-4.7,2.7-6.7,2.8c-1.9,0.1-4.2-0.4-5.7-1.4
	c-1.5-0.9-2.4-1.4-3.4-3.2s-1.1-2.4-1.4-4.2c-0.3-1.8-0.5-2.5-1.3-2.7s-1.3,0.2-1.6,0.5c-0.3,0.3-0.6,1.5-0.6,1.5s-1.6,0.5-1.5,1.8
	s0.8,1.6,0.8,1.6s-0.9,0.7-0.8,1.6s0.8,1.5,0.8,1.5s-0.8,0.6-0.7,1.9c0.1,1.3,0.4,0.7,0.7,1.3c-0.6,0.7-1,1.4-0.8,2.2
	c0.3,0.8,1.4,1.3,1.4,1.3s0.4,3.2,1,4.7c0.7,1.5,3.1,5.1,5.3,6.3c2.2,1.2,3.9,1.8,6.2,1.9c-0.1,0.9,0.2,1.8,0.6,2.3
	c0.5,0.7,1,1.6,2.5,1.8c0.1,0.7,0.1,2.2,0.1,2.2s-1.6,0.2-1.7,0.6c-0.2,0.4,0.2,0.6,0.5,0.6c0.4,0,1.6-0.5,2.3-0.5
	c0.7,0,2.8,0.3,3.2,0.4c0.5,0.1,0.6-0.3,0.6-0.3S86.2,67,86,67c-0.2,0-1.2-0.2-1.2-0.2l-1.1-0.1H83l0.1-2.3c0,0,0.9-0.3,1.7-1.1
	c0.8-0.8,1.2-1.9,1.1-3.1c1.1-0.4,4.5-1.5,5.9-2.8s3-3.1,3.8-4.7c0.7-1.7,1.4-3.8,1.3-7s-0.2-6.4-0.2-6.4l3.3-2.2l-3.4-1.7
	c0,0,2.3-1.5,1.4-3c-0.9-1.6-2.2-0.8-2.2-0.8s-0.2-1.7-1.6-2s-1.7,0.7-1.7,0.7s-1.4-1-2.3-0.4c-1,0.6-0.9,1.7-0.9,1.7
	s-1.4-0.4-2.1,0.9c-0.7,1.3,0.4,2.3,0.4,2.3L88.9,35.6z"/>
<path fill="#FFFFFF" d="M69.7,52.2c0,0,9,5.4,16.6,4.1c7.6-1.3,6.6-7.5,5.8-8.7c-0.8-1.3-3.7-3.7-7.6-2.8c-3.9,0.9-6.5,1.7-8.5,3
	C74,49.1,69.7,52.2,69.7,52.2z"/>
<path fill="#FFFFFF" d="M94.3,34.7c-0.6,0-1.1,0.5-1.1,1.1c0,0.6,0.5,1.1,1.1,1.1s1.1-0.5,1.1-1.1C95.5,35.2,95,34.7,94.3,34.7z"/>
</svg>
