<?xml version="1.0" encoding="utf-8"?><svg xmlns="http://www.w3.org/2000/svg" width="100" height="75" viewBox="0 0 100 75"><path fill="#A9E267" d="M30.3 48l1.8 14.9h10.6l1.7-15-14.1.1z"/><path fill="#FDA0C3" d="M25.2 29.5s7.7-1.1 9.4 1.7c1.7 2.8 3.7 16.7 3.7 16.7l-3 .1s-1.5-12.5-3.4-14.9c-1.9-1.9-7-1-7-1l.3-2.6z"/><path fill="#FD9652" d="M62.3 12.5c5.3 0 9.7 4.3 9.7 9.7v40.5c0 5.3-4.3 4.3-9.7 4.3S53 68 53 62.7V22.2c0-5.4 3.9-9.7 9.3-9.7z"/><path fill="#FFE17B" d="M55 19.9v44h15.1l.1-44.1-15.2.1z"/><path fill="#85BA7F" d="M59 6.9h7v4.2h-7V6.9z"/><path fill="#7DBDFE" d="M46.4 63.8s-.6 3.1-2.9 3.1-12.6 0-12.6 0-2.5.7-2.9-3.3c-.4-3.9-2.3-27.7-2.3-27.7h22.8l-2.1 27.9zm-15.7.2h13.4l2.8-26.9H27.5L30.7 64z"/><path fill="#fff" d="M54.8 20.1l5.3-5.7 4.4.1 5.9 5.6H54.8z"/></svg>