<?xml version="1.0" encoding="utf-8"?>
<!-- Generator: Adobe Illustrator 17.1.0, SVG Export Plug-In . SVG Version: 6.00 Build 0)  -->
<!DOCTYPE svg PUBLIC "-//W3C//DTD SVG 1.1//EN" "http://www.w3.org/Graphics/SVG/1.1/DTD/svg11.dtd">
<svg version="1.1" id="Слой_1" xmlns:ev="http://www.w3.org/2001/xml-events"
	 xmlns="http://www.w3.org/2000/svg" xmlns:xlink="http://www.w3.org/1999/xlink" x="0px" y="0px" width="100px" height="75px"
	 viewBox="-18 -6 100 75" enable-background="new -18 -6 100 75" xml:space="preserve">
<path fill="#2CB5F5" d="M19.8,20.1l6.2-9.3l7.7,5.2L19.8,20.1z M10.9,0.7l13.9,3.2L25,8.2l-14.1-4V0.7z M18,20.3L1.3,15.9l9-9.9
	l13.5,4.2L18,20.3z M17.9,60.6L0.1,54.3L0,17.6l17.7,5.1L17.9,60.6z"/>
<path fill="#72DAFC" d="M19.8,22.5L34,18.2l-0.1,35.7l-14,6.5L19.8,22.5z"/>
<path fill="#FFFFFF" d="M3.8,40.1l2.1,1.2V34l2.1,6l2.1,1.2l2.2-5V44l2.1,1.2V34.2l-3-1.1L9,37.3l-2.3-6.4l-3-1.2V40.1z"/>
<path fill="#95D34D" d="M51.6,28.9l5.2-7.8l6.4,4.4L51.6,28.9z M44.2,12.7l11.7,2.7l0.2,3.6l-11.8-3.4V12.7z M50.1,29.1l-14-3.7
	l7.6-8.3L55,20.6L50.1,29.1z M50,63l-14.9-5.3l0-30.8l14.8,4.3L50,63z"/>
<path fill="#CDF999" d="M51.6,30.9l12.2-3.6l-0.2,29.9l-11.8,5.4L51.6,30.9z"/>
<path fill="#FFFFFF" d="M39,36.9l2.6,0.8l-0.1,3.8l3-2.8l2.6,0.7l-3.5,3.9l3.1,7.4l-2.9-1.3l-2.3-5.7l0.1,4.8l-2.6-1.1L39,36.9z"/>
</svg>
