<?xml version="1.0" encoding="utf-8"?>
<!-- Generator: Adobe Illustrator 17.1.0, SVG Export Plug-In . SVG Version: 6.00 Build 0)  -->
<!DOCTYPE svg PUBLIC "-//W3C//DTD SVG 1.1//EN" "http://www.w3.org/Graphics/SVG/1.1/DTD/svg11.dtd">
<svg version="1.1" id="Слой_1" xmlns:ev="http://www.w3.org/2001/xml-events"
	 xmlns="http://www.w3.org/2000/svg" xmlns:xlink="http://www.w3.org/1999/xlink" x="0px" y="0px" width="100px" height="75px"
	 viewBox="0 0 100 75" enable-background="new 0 0 100 75" xml:space="preserve">
<path fill="#FDE4A9" d="M16.1,62.5l-0.2-8.9v-5.5v-3.4L12.5,42l0.9-4.6c0,0,2.1-0.5,3-0.5s6.8,0,6.8,0h6.2l6.2,0.2l5.3,0.9l4.1,1.6
	v2.7L44.5,45l-1.4,1.6L41,47.1L41.2,64c0,0,0,1.4-1.1,1.4c-1.2,0.1-8.5,0.5-8.5,0.5L22.9,65l-4.7-1.1L16.1,62.5z"/>
<path fill="#C77946" d="M54.1,39.8c-0.5,0.5-1.2,0.9-1.9,1v14.3c0,1.1-0.5,2.1-1.3,2.8l-9.3,8.5l0,0c-0.7,0.6-1.6,1-2.6,1
	c-0.1,0-0.2,0-0.3,0l-20.3-1.7c-2.2-0.2-3.9-2-3.9-4.2v-16c-1.9-0.4-3.3-2.1-3.3-4.1v-2.3c0-1.5,0.8-2.9,2.1-3.5l0,0L25,30
	c0.2-0.2,0.5-0.3,0.8-0.4l0,0l0,0c0.4-0.1,0.7-0.2,1.2-0.2c0.1,0,0.2,0,0.3,0l24.3,2c2,0.2,3.5,1.8,3.5,3.8v2.1
	C55.2,38.3,54.8,39.2,54.1,39.8z M43.7,41.6c0-0.9-0.7-1.7-1.6-1.8l-26.7-2.2c-0.9-0.1-1.6,0.6-1.6,1.5v2.3c0,0.9,0.7,1.7,1.6,1.8
	c1,0.1,1.6,0.8,1.6,1.8c0,4.1,0,16.5,0,16.5c0,0.9,0.7,1.7,1.6,1.8l20.2,1.6c0.9,0.1,1.6-0.6,1.6-1.5c0,0,0-12.4,0-16.5
	c0-1,0.6-1.6,1.6-1.6c0.9,0.1,1.6-0.6,1.6-1.5L43.7,41.6L43.7,41.6z M35.2,58.2c-0.3,0-0.6-0.3-0.6-0.6s0.3-0.6,0.6-0.6
	s0.6,0.3,0.6,0.6S35.5,58.2,35.2,58.2z M31.8,50c-0.7,0-1.2-0.6-1.2-1.2c0-0.7,0.6-1.2,1.2-1.2c0.7,0,1.2,0.6,1.2,1.2
	S32.5,50,31.8,50z M29.6,42.8c-0.5,0-0.9-0.4-0.9-0.9s0.4-0.9,0.9-0.9s0.9,0.4,0.9,0.9S30.1,42.8,29.6,42.8z M25.7,53.8
	c-0.4,0-0.8-0.3-0.8-0.8c0-0.4,0.3-0.8,0.8-0.8c0.4,0,0.8,0.3,0.8,0.8C26.4,53.4,26.1,53.8,25.7,53.8z M25.8,59.6
	c0,0.9-0.7,1.6-1.6,1.6s-1.6-0.7-1.6-1.6c0-0.9,0.7-1.6,1.6-1.6C25.1,58,25.8,58.7,25.8,59.6z M22.5,47.4c-0.8,0-1.4-0.6-1.4-1.4
	c0-0.8,0.6-1.4,1.4-1.4s1.4,0.6,1.4,1.4C24,46.8,23.3,47.4,22.5,47.4z"/>
<path fill="#FFCB5A" d="M91.9,39.7c-2-3.8-7.3-5.3-13.8-4.5c1.3,0.6,2.6,1.3,3.8,2.3c0.7,0.5,0.8,1.5,0.3,2.1
	c-0.3,0.4-0.7,0.6-1.2,0.6c-0.3,0-0.6-0.1-0.9-0.3c-3.6-2.8-7.4-3.2-10.6-2.5c-1.3,0.5-2.6,1.1-4,1.7c-0.2,0.1-0.3,0.2-0.4,0.3
	c-0.2,0.2-0.4,0.2-0.7,0.3c0,0,0,0-0.1,0c3.3,0.3,6.6,1.8,8.9,4.4c0.5,0.6,0.5,1.6-0.1,2.1c-0.3,0.3-0.6,0.4-1,0.4s-0.8-0.2-1.1-0.5
	c-3.2-3.6-8.8-4.5-13-2.4c-2,1.5-3.7,3.1-5.2,4.7c4.8-1.2,10,0.3,13.2,4.2c0.5,0.6,0.4,1.6-0.2,2.1s-1.6,0.4-2.1-0.2
	c-3.5-4.2-9.9-4.7-14.5-1.1c-1.7,3.3-2,6.4-0.7,8.9c3.3,6.3,15.6,6.3,27.6,0S95.2,45.9,91.9,39.7z"/>
</svg>
