<?xml version="1.0" encoding="utf-8"?>
<!-- Generator: Adobe Illustrator 17.1.0, SVG Export Plug-In . SVG Version: 6.00 Build 0)  -->
<!DOCTYPE svg PUBLIC "-//W3C//DTD SVG 1.1//EN" "http://www.w3.org/Graphics/SVG/1.1/DTD/svg11.dtd">
<svg version="1.1" id="Слой_1" xmlns:ev="http://www.w3.org/2001/xml-events"
	 xmlns="http://www.w3.org/2000/svg" xmlns:xlink="http://www.w3.org/1999/xlink" x="0px" y="0px" width="100px" height="75px"
	 viewBox="1 -9.5 100 75" enable-background="new 1 -9.5 100 75" xml:space="preserve">
<path fill="#BF6D36" d="M33.1,13.7c-1.2-0.7-5.9-4.2-7.4-4.2c1.6,1.8,2.3,4.1,2.3,4.1h-1.8c0,0-2.5,0-6.9,1.1
	c0.4,0.9,3.1,0.5,4.9,1.4c-5.6,3.5-9.5,10.5-9.5,18.5c0,1.7,0.2,3.3,0.5,4.9c0.5-0.7,1.2-1.3,1.9-1.8c-0.1-1-0.2-2-0.2-3.1
	c0-7,3.2-13.1,8-16.4c-0.4,1.1-0.9,1.9-0.9,1.9s2.7-3,4.6-3c1.4,0,1.3,1.2,1.2,1.9c0.3-0.6,1-1.4,3.1-1.4c2.6,0,2.8,1.4,2.9,1.9
	l0.2-3c0,0,3.2,1.2,3.7,2.3c0.3,0.7,0-0.4-0.2-1.3c5.3,3,8.9,9.5,8.9,17c0,1.2-0.1,2.3-0.3,3.4c0.7,0.6,1.3,1.2,1.8,2
	c0.4-1.7,0.6-3.5,0.6-5.4c0-6.6-2.6-12.5-6.7-16.4c-0.3-1.5-3.1-3.4-3.1-3.4s2.7-1.6,3.9-1.2c-1.6-0.9-7.1,0.5-7.1,0.5l-0.9-2
	L36,14.1c0,0-0.1,0-0.1,0c-0.4-0.5-2.5-2.6-4.5-2.9c-0.2,0.7,2.4,1.2,2,2.6C33.3,13.7,33.2,13.7,33.1,13.7z M39.5,23.4
	c-2.3,0-4.1,2.3-4.1,5.1s1.8,5.1,4.1,5.1c2.3,0,4.1-2.3,4.1-5.1S41.8,23.4,39.5,23.4z M39.4,32.2c-1.3,0-2.4-1.1-2.4-2.4
	c0-1.3,1.1-2.4,2.4-2.4c1.3,0,2.4,1.1,2.4,2.4C41.8,31.1,40.7,32.2,39.4,32.2z M25.5,23.1c-2.3,0-4.1,2.3-4.1,5.1
	c0,2.8,1.8,5.1,4.1,5.1c2.3,0,4.1-2.3,4.1-5.1C29.6,25.4,27.8,23.1,25.5,23.1z M25.6,31.8c-1.3,0-2.4-1.1-2.4-2.4s1.1-2.4,2.4-2.4
	c1.3,0,2.4,1.1,2.4,2.4S26.9,31.8,25.6,31.8z M29.7,19.1c-0.1,0.3-0.1,0.6-0.1,0.6S29.7,19.4,29.7,19.1z M35.7,19.6l0,0.2
	C35.6,19.9,35.7,19.8,35.7,19.6z M42.9,11.9c1,0,1.8,0.2,2.3,0.5c0.6,0.3,0.8,0.9,0.7,1.5c0.7-0.4,1.5-0.9,2.2-1.3
	c0-3.4-1.5-6.7-4.3-8.9c-1.1-0.9-1.1-0.9-1.1-0.9c-1.3-0.6-2.3,0.3-1.4,1.4C43.6,7,43.9,9.4,42.9,11.9z M19,13.3
	c1.4-0.3,2.6-0.6,3.6-0.7c-1.4-2.8-1.3-5.4,1.3-8.4c0.9-1.1-0.1-1.9-1.4-1.4c0,0,0,0-1.1,0.9c-2.8,2.2-4.2,5.4-4.3,8.7
	c0.6,0.3,1.2,0.7,1.8,1C18.8,13.4,18.9,13.3,19,13.3z M21.2,16.6c-5.9-4-15.9-9.4-18.7-3.1c-3,6.3,5.7,9.2,13.7,9.3
	C17.5,20.4,19.2,18.3,21.2,16.6z M63.1,13.6c-2.8-6.5-13.1-0.8-18.9,3.2c1.9,1.7,3.5,3.7,4.8,6.1C57.1,22.8,66.1,19.9,63.1,13.6z"/>
<path fill="#FFCB5A" d="M32.6,56.7c-1,0-1.9-0.1-2.8-0.3c-0.4,0.1-0.8,0.3-1.2,0.4c1.3,0.4,2.7,0.6,4.1,0.6c1.3,0,2.6-0.2,3.8-0.5
	c-0.5-0.1-0.9-0.2-1.3-0.4C34.2,56.6,33.4,56.7,32.6,56.7z M45.2,38.9c-2.6-1.9-7.4-3.1-12.9-3.1c-5.5,0-10.3,1.2-12.9,3.1
	c-3.1,1.7-5.2,4.7-5.2,8.1c0,5.3,5,9.6,11.3,9.6c2.6,0,4.9-0.7,6.8-2c1.9,1.2,4.2,2,6.8,2c6.2,0,11.3-4.3,11.3-9.6
	C50.4,43.6,48.3,40.6,45.2,38.9z M26.1,49c-0.5,1.8-2.8,2.7-5,2c-2.2-0.7-3.6-2.7-3-4.5c0.5-1.8,2.8-2.7,5-2
	C25.3,45.2,26.7,47.2,26.1,49z M44.2,51c-2.2,0.7-4.5-0.2-5-2c-0.5-1.8,0.8-3.8,3-4.5c2.2-0.7,4.5,0.2,5,2
	C47.8,48.3,46.4,50.3,44.2,51z"/>
<path fill="#FD9652" d="M89,21.6c0,0,0.4,3.4-2.4,5.5c-2.8,2.1-4.7,2.7-6.7,2.8c-1.9,0.1-4.2-0.4-5.7-1.4c-1.5-0.9-2.4-1.4-3.4-3.2
	s-1.1-2.4-1.4-4.2c-0.3-1.8-0.5-2.5-1.3-2.7c-0.8-0.2-1.3,0.2-1.6,0.5c-0.3,0.3-0.6,1.5-0.6,1.5s-1.6,0.5-1.5,1.8
	c0.1,1.3,0.8,1.6,0.8,1.6s-0.9,0.7-0.8,1.6c0.1,0.9,0.8,1.5,0.8,1.5s-0.8,0.6-0.7,1.9c0.1,1.3,0.4,0.7,0.7,1.3
	c-0.6,0.7-1,1.4-0.8,2.2c0.3,0.8,1.4,1.3,1.4,1.3s0.4,3.2,1,4.7c0.7,1.5,3.1,5.1,5.3,6.3c2.2,1.2,3.9,1.8,6.2,1.9
	c-0.1,0.9,0.2,1.8,0.6,2.3c0.5,0.7,1,1.6,2.5,1.8c0.1,0.7,0.1,2.2,0.1,2.2s-1.6,0.2-1.7,0.6c-0.2,0.4,0.2,0.6,0.5,0.6
	c0.4,0,1.6-0.5,2.3-0.5c0.7,0,2.8,0.3,3.2,0.4c0.5,0.1,0.6-0.3,0.6-0.3S86.3,53,86.1,53c-0.2,0-1.2-0.2-1.2-0.2l-1.1-0.1h-0.7
	l0.1-2.3c0,0,0.9-0.3,1.7-1.1c0.8-0.8,1.2-1.9,1.1-3.1c1.1-0.4,4.5-1.5,5.9-2.8c1.4-1.3,3-3.1,3.8-4.7c0.7-1.7,1.4-3.8,1.3-7
	c-0.1-3.2-0.2-6.4-0.2-6.4l3.3-2.2l-3.4-1.7c0,0,2.3-1.5,1.4-3c-0.9-1.6-2.2-0.8-2.2-0.8s-0.2-1.7-1.6-2c-1.4-0.3-1.7,0.7-1.7,0.7
	s-1.4-1-2.3-0.4c-1,0.6-0.9,1.7-0.9,1.7s-1.4-0.4-2.1,0.9c-0.7,1.3,0.4,2.3,0.4,2.3L89,21.6z"/>
<path fill="#FFFFFF" d="M69.8,38.2c0,0,9,5.4,16.6,4.1c7.6-1.3,6.6-7.5,5.8-8.7c-0.8-1.3-3.7-3.7-7.6-2.8c-3.9,0.9-6.5,1.7-8.5,3
	C74.1,35.1,69.8,38.2,69.8,38.2z"/>
<path fill="#FFFFFF" d="M94.4,20.7c-0.6,0-1.1,0.5-1.1,1.1c0,0.6,0.5,1.1,1.1,1.1c0.6,0,1.1-0.5,1.1-1.1
	C95.6,21.2,95.1,20.7,94.4,20.7z"/>
</svg>
