<?xml version="1.0" encoding="utf-8"?><svg baseProfile="full" xmlns="http://www.w3.org/2000/svg" height="8" width="12"><path fill="rgb( 133, 131, 131 )" d="M6.004 4.308s3.8-3.8 3.8-3.8c.383-.382 1.002-.382 1.384 0 0 0 .346.345.346.345.382.383.382 1.002 0 1.384 0 0-4.474 4.472-4.474 4.472-.006.005-.01.014-.015.02 0 0-.346.346-.346.346-.195.192-.446.287-.698.286-.252 0-.504-.094-.696-.286 0 0-.345-.346-.345-.346-.007-.005-.01-.015-.015-.022 0 0-4.472-4.473-4.472-4.473-.382-.382-.382-1 0-1.384 0 0 .344-.343.344-.343.38-.382 1-.382 1.384 0 0 0 3.8 3.8 3.8 3.8z"/></svg>