<?xml version="1.0" encoding="utf-8"?><svg baseProfile="full" xmlns="http://www.w3.org/2000/svg" height="8" width="12"><path fill="#797979" d="M6.004 4.308s3.8-3.8 3.8-3.8c.383-.382 1.002-.382 1.384 0 0 0 .346.345.346.345.382.383.382 1.002 0 1.384 0 0-4.474 4.472-4.474 4.472-.006 0-.01.01-.015.02 0 0-.346.342-.346.342-.2.192-.45.287-.7.286-.25 0-.506-.094-.698-.286 0 0-.345-.346-.345-.346-.008-.007-.01-.017-.016-.024 0 0-4.47-4.473-4.47-4.473-.383-.38-.383-1 0-1.384 0 0 .343-.344.343-.344.38-.382 1-.382 1.384 0 0 0 3.8 3.8 3.8 3.8z"/></svg>