<?xml version="1.0" encoding="utf-8"?><svg baseProfile="full" xmlns="http://www.w3.org/2000/svg" height="8" width="12"><path fill="rgb( 255,255,255 )" d="M6.004 4.308s3.8-3.8 3.8-3.8c.383-.382 1.002-.382 1.384 0 0 0 .346.345.346.345.382.383.382 1.002 0 1.384 0 0-4.474 4.472-4.474 4.472-.006.003-.01.012-.015.02 0 0-.346.344-.346.344-.197.192-.448.287-.7.286-.25 0-.504-.093-.696-.285 0 0-.345-.346-.345-.346-.008-.007-.01-.017-.016-.024 0 0-4.472-4.473-4.472-4.473-.382-.382-.382-1 0-1.384 0 0 .344-.344.344-.344.38-.382 1-.382 1.384 0 0 0 3.8 3.8 3.8 3.8z"/></svg>
