<?xml version="1.0" encoding="utf-8"?>
<!-- Generator: Adobe Illustrator 17.1.0, SVG Export Plug-In . SVG Version: 6.00 Build 0)  -->
<!DOCTYPE svg PUBLIC "-//W3C//DTD SVG 1.1//EN" "http://www.w3.org/Graphics/SVG/1.1/DTD/svg11.dtd">
<svg version="1.1" id="Слой_1" xmlns:ev="http://www.w3.org/2001/xml-events"
	 xmlns="http://www.w3.org/2000/svg" xmlns:xlink="http://www.w3.org/1999/xlink" x="0px" y="0px" width="8px" height="12px"
	 viewBox="0 0 8 12" enable-background="new 0 0 8 12" xml:space="preserve">
<path fill="#858383" d="M4.6,6L0.8,2.2c-0.4-0.4-0.4-1,0-1.4l0.3-0.3c0.4-0.4,1-0.4,1.4,0L7,5l0,0l0.3,0.3C7.5,5.5,7.6,5.7,7.6,6
	c0,0.3-0.1,0.5-0.3,0.7L7,7l0,0l-4.5,4.5c-0.4,0.4-1,0.4-1.4,0l-0.3-0.3c-0.4-0.4-0.4-1,0-1.4L4.6,6z"/>
</svg>
