<?xml version="1.0" encoding="utf-8"?><svg baseProfile="full" xmlns="http://www.w3.org/2000/svg" height="8" width="12"><path fill="rgb( 255,255,255 )" d="M6.004 4.308s3.8-3.8 3.8-3.8c.383-.382 1.002-.382 1.384 0 0 0 .346.345.346.345.382.383.382 1.002 0 1.384 0 0-4.474 4.472-4.474 4.472-.006.007-.01.016-.015.022 0 0-.346.346-.346.346-.193.192-.444.287-.696.286-.252 0-.504-.094-.696-.286 0 0-.345-.346-.345-.346-.008-.006-.01-.016-.016-.023 0 0-4.472-4.473-4.472-4.473-.382-.382-.382-1 0-1.384 0 0 .344-.345.344-.345.38-.382 1-.382 1.384 0 0 0 3.8 3.8 3.8 3.8z"/></svg>