<?xml version="1.0" encoding="utf-8"?>
<!-- Generator: Adobe Illustrator 17.1.0, SVG Export Plug-In . SVG Version: 6.00 Build 0)  -->
<!DOCTYPE svg PUBLIC "-//W3C//DTD SVG 1.1//EN" "http://www.w3.org/Graphics/SVG/1.1/DTD/svg11.dtd">
<svg version="1.1" id="Слой_1" xmlns:ev="http://www.w3.org/2001/xml-events"
	 xmlns="http://www.w3.org/2000/svg" xmlns:xlink="http://www.w3.org/1999/xlink" x="0px" y="0px" width="8px" height="12px"
	 viewBox="0 0 8 12" enable-background="new 0 0 8 12" xml:space="preserve">
<path fill="#f17504" d="M3.3,6l3.8,3.8c0.4,0.4,0.4,1,0,1.4l-0.4,0.3c-0.4,0.4-1,0.4-1.4,0L0.8,7.1l0,0L0.5,6.7
	C0.3,6.5,0.2,6.3,0.2,6c0-0.3,0.1-0.5,0.3-0.7L0.8,5l0,0l4.5-4.5c0.4-0.4,1-0.4,1.4,0L7,0.8c0.4,0.4,0.4,1,0,1.4L3.3,6z"/>
</svg>
